<?xml version="1.0" encoding="utf-8"?>
<!-- Generator: Adobe Illustrator 19.2.1, SVG Export Plug-In . SVG Version: 6.00 Build 0)  -->
<!DOCTYPE svg PUBLIC "-//W3C//DTD SVG 1.1//EN" "http://www.w3.org/Graphics/SVG/1.1/DTD/svg11.dtd">
<svg version="1.1" id="Layer_1" xmlns="http://www.w3.org/2000/svg" xmlns:xlink="http://www.w3.org/1999/xlink" x="0px" y="0px"
	 width="792px" height="323.1px" viewBox="0 0 792 323.1" enable-background="new 0 0 792 323.1" xml:space="preserve">
<g>
	<g>
		<path fill="#D6E7F7" d="M204.8,180.7c-0.5,1.4-1.7,4.3-5.7,4.3c-2.6,0-4.3-1.2-5-3.7l1.7-0.6c0.1,0.7,0.2,1.4,0.7,2
			c0.9,1.1,2.3,1,2.7,1c0.5,0,1.8,0,2.9-0.9c0.2-0.2,0.6-0.6,1-1.2c0.7-1.4,0.9-3.5,1-5.1c-0.2,0.4-0.8,1.3-1.9,1.9
			c-0.5,0.2-1.5,0.7-2.8,0.7c-0.5,0-1.6,0-2.8-0.7c-2.6-1.4-2.7-4.3-2.7-5.1c0-0.9,0.1-1.7,0.5-2.5c0.5-1.2,1.8-3.4,5.2-3.4
			c0.9,0,3.2,0.1,4.7,2.3c0.8,1.1,1.4,3,1.4,6.1C205.5,176.4,205.5,178.6,204.8,180.7z M203.7,172.4c-0.2-0.9-1.1-3.7-4.3-3.7
			c-1.1,0-2.2,0.4-2.9,1.2c-0.5,0.6-1.1,1.7-1.1,3.4c0,0.4,0,1.9,0.9,3.1c0.4,0.6,1.4,1.4,3.2,1.4c1,0,1.7-0.2,2-0.4
			c0.8-0.4,1.7-1.2,2-2.1c0.3-0.6,0.3-1.3,0.3-1.5C203.9,173.1,203.7,172.6,203.7,172.4z"/>
		<path fill="#D6E7F7" d="M213.9,177.2c-0.7,0.8-1.5,1.2-2.6,1.2c-0.3,0-1.1,0-1.8-0.5c-1-0.7-2-2.2-2-5c0-0.4,0-3.3,1.7-4.8
			c0.8-0.7,1.7-0.7,2.1-0.7c0.3,0,1.1,0,1.8,0.5c1,0.7,1.9,2.4,1.9,5.2C215.1,173.7,215,175.8,213.9,177.2z M211.3,168.6
			c-0.5,0-1.4,0.2-1.9,1.3c-0.3,0.5-0.6,1.6-0.6,3.1c0,0.1,0,2.3,0.8,3.4c0.2,0.3,0.7,1,1.8,1c2.2,0,2.5-2.7,2.5-4.2
			C213.9,170.3,212.9,168.6,211.3,168.6z M213.7,185.6l-1-0.4l8.4-18.5l1,0.5L213.7,185.6z M225.5,184.1c-0.8,0.7-1.7,0.8-2.1,0.8
			c-0.3,0-1.1,0-1.8-0.5c-1-0.6-1.9-2.2-1.9-4.9c0-0.4,0-3,1.4-4.5c0.4-0.4,1.1-1,2.4-1c1.4,0,2.1,0.6,2.4,1.1
			c1.3,1.6,1.3,4.2,1.3,4.6C227.1,180,227,182.7,225.5,184.1z M225.4,176.5c-0.6-1.2-1.4-1.5-2-1.5c-0.3,0-0.7,0.1-1.2,0.5
			c-1.1,0.9-1.3,2.7-1.3,4c0,1,0.2,1.8,0.3,2.2c0.1,0.3,0.3,1.3,1.1,1.9c0.5,0.3,1,0.3,1.2,0.3c2.2,0,2.5-2.7,2.5-4.2
			C225.9,178.1,225.6,177,225.4,176.5z"/>
	</g>
	<polyline fill="none" stroke="#FF5959" stroke-miterlimit="10" points="176.6,147 156.3,147 156.3,202.6 164.6,202.6 	"/>
	<polyline fill="none" stroke="#FF5959" stroke-miterlimit="10" points="243.9,147 264.2,147 264.2,202.6 255.9,202.6 	"/>
	<g>
		<path fill="#D6E7F7" d="M190.3,238.3c-1.7,2.7-5.3,5.1-5.7,5.4c-1.2,0.8-2.2,1.4-2.2,1.4h8.5v1.3h-10.7v-1.3l0.3-0.2
			c0.5-0.3,1-0.6,1.5-1c1-0.7,2-1.4,2.9-2.2c0.2-0.2,1.7-1.4,2.7-2.4c0.5-0.6,2.2-2.3,2.2-4.8c0-0.7-0.1-1.4-0.5-2.1
			c-1-1.9-3.2-2-3.7-2c-1.5,0-2.9,0.6-3.7,2c-0.1,0.3-0.5,0.9-0.5,1.8c0,1.5,0.9,2.5,1.2,2.9l-2-0.2c-0.5-1.3-0.6-2.2-0.6-2.8
			c0-1,0.3-1.7,0.4-2.1c0.5-1.2,2-2.9,5.1-2.9c0.9,0,3.9,0.1,5.2,2.9c0.2,0.4,0.5,1.3,0.5,2.5C191.4,235.3,191.3,236.6,190.3,238.3z
			"/>
		<path fill="#D6E7F7" d="M199.6,246.4l0-13.8c-0.3,0.3-0.6,0.3-1,0.5c-0.3,0.1-0.9,0.2-1.6,0.2h-0.4l0-1.3c0.7,0,1.1-0.1,1.4-0.2
			c0.6-0.2,1.6-0.6,1.6-2.1v-0.2h1.5v16.9H199.6z"/>
		<path fill="#D6E7F7" d="M207.7,246.4v-2.8h1.9v2.8H207.7z"/>
		<path fill="#D6E7F7" d="M217.6,246.4l0-13.8c-0.3,0.3-0.6,0.3-1,0.5c-0.3,0.1-0.9,0.2-1.6,0.2h-0.4l0-1.3c0.7,0,1.1-0.1,1.4-0.2
			c0.6-0.2,1.6-0.6,1.6-2.1v-0.2h1.5v16.9H217.6z"/>
		<path fill="#D6E7F7" d="M231.7,239c-0.7,0.8-1.5,1.2-2.6,1.2c-0.3,0-1.1,0-1.8-0.5c-1-0.7-2-2.2-2-5c0-0.4,0-3.3,1.7-4.8
			c0.8-0.7,1.7-0.7,2.1-0.7c0.3,0,1.1,0,1.8,0.5c1,0.7,1.9,2.4,1.9,5.2C232.9,235.4,232.9,237.6,231.7,239z M229.2,230.3
			c-0.5,0-1.4,0.2-1.9,1.3c-0.3,0.5-0.6,1.6-0.6,3.1c0,0.1,0,2.3,0.8,3.4c0.2,0.3,0.7,1,1.8,1c2.2,0,2.5-2.7,2.5-4.2
			C231.7,232.1,230.8,230.3,229.2,230.3z M231.5,247.4l-1-0.4l8.4-18.5l1,0.5L231.5,247.4z M243.3,245.8c-0.8,0.7-1.7,0.8-2.1,0.8
			c-0.3,0-1.1,0-1.8-0.5c-1-0.6-1.9-2.2-1.9-4.9c0-0.4,0-3,1.4-4.5c0.4-0.4,1.1-1,2.4-1c1.4,0,2.1,0.6,2.4,1.1
			c1.3,1.6,1.3,4.2,1.3,4.6C244.9,241.7,244.9,244.4,243.3,245.8z M243.2,238.2c-0.6-1.2-1.4-1.5-2-1.5c-0.3,0-0.7,0.1-1.2,0.5
			c-1.1,0.9-1.3,2.7-1.3,4c0,1,0.2,1.8,0.3,2.2c0.1,0.3,0.3,1.3,1.1,1.9c0.5,0.3,1,0.3,1.2,0.3c2.2,0,2.5-2.7,2.5-4.2
			C243.7,239.8,243.4,238.8,243.2,238.2z"/>
	</g>
	<polyline fill="none" stroke="#FF5959" stroke-miterlimit="10" points="176.6,208.7 156.3,208.7 156.3,264.4 164.6,264.4 	"/>
	<polyline fill="none" stroke="#FF5959" stroke-miterlimit="10" points="243.9,208.7 264.2,208.7 264.2,264.4 255.9,264.4 	"/>
	<g>
		<path fill="#D6E7F7" d="M547,89.8c-1.4,2.6-4.2,2.8-5.1,2.8c-1.8,0-2.9-0.6-3.5-1.1c-1.5-1.2-2.4-3.2-2.4-7.2
			c0-2.4,0.3-5.2,1.8-7.2c1.2-1.5,2.6-2.2,4.6-2.2c0.3,0,1.1,0,2,0.3c1,0.3,2.4,1.1,3.1,3.4l-1.6,0.6c0-0.1-0.1-0.8-0.4-1.4
			c-0.8-1.6-2.7-1.6-3.1-1.6c-1.8,0-2.7,0.7-3.2,1.3c-0.6,0.7-1.1,1.7-1.5,3.7c-0.2,1-0.2,1.3-0.2,1.8c0.6-1,1.5-1.5,1.8-1.7
			c0.5-0.3,1.4-0.6,2.8-0.6c0.5,0,2.2,0.1,3.5,1.2c0.3,0.2,0.6,0.5,1.1,1.2c0.9,1.4,0.9,2.9,0.9,3.5C547.7,87.3,547.7,88.5,547,89.8
			z M545.8,84.9c-0.6-1.7-2-2.6-3.7-2.6c-0.2,0-0.9,0-1.5,0.2c-1.7,0.5-2.4,1.8-2.6,2.4c-0.1,0.3-0.3,0.7-0.3,1.4
			c0,0.4,0,1.2,0.5,2.2c0.4,0.9,1.3,2.7,3.9,2.7c1.1,0,2-0.2,2.8-1c0.6-0.6,1.4-1.7,1.3-3.6C546.1,86.1,546,85.4,545.8,84.9z"/>
		<path fill="#D6E7F7" d="M549.7,92.3v-2.8h1.9v2.8H549.7z"/>
		<path fill="#D6E7F7" d="M565,88.6c-0.2,0.8-1,3-3.4,3.8c-0.3,0.1-1,0.3-2,0.3c-0.5,0-2.1,0-3.5-1c-0.7-0.6-1.8-1.6-2.1-3.8
			l1.6-0.5c0,0.4,0,0.7,0.1,0.8c0.1,0.3,0.3,1.4,1.1,2.1c0.8,0.7,1.8,1,2.9,1c0.7,0,1.2-0.1,1.9-0.4c2.3-1.1,2.3-3.8,2.3-4.4
			c0-1.5-0.4-3-1.6-3.9c-0.4-0.3-1.2-0.8-2.4-0.8c-0.5,0-1.5,0.1-2.4,0.9c-0.1,0.1-0.4,0.4-0.6,0.7c-0.2,0.4-0.4,0.8-0.6,1.6
			l-1.2-0.1l0.3-9.6h9v1.4h-7.6l-0.3,5.8c0.3-0.6,0.7-1,0.9-1.2c0.5-0.4,1.3-0.9,2.8-0.9c1.6,0,3,0.6,4,1.8c0.6,0.7,1.4,2,1.4,4.2
			C565.2,86.9,565.2,87.7,565,88.6z"/>
		<path fill="#D6E7F7" d="M573.7,84.9c-0.7,0.8-1.5,1.2-2.6,1.2c-0.3,0-1.1,0-1.8-0.5c-1-0.7-2-2.2-2-5c0-0.4,0-3.3,1.7-4.8
			c0.8-0.7,1.7-0.7,2.1-0.7c0.3,0,1.1,0,1.8,0.5c1,0.7,1.9,2.4,1.9,5.2C574.9,81.3,574.9,83.5,573.7,84.9z M571.2,76.2
			c-0.5,0-1.4,0.2-1.9,1.3c-0.3,0.5-0.6,1.6-0.6,3.1c0,0.1,0,2.3,0.8,3.4c0.2,0.3,0.7,1,1.8,1c2.2,0,2.5-2.7,2.5-4.2
			C573.7,78,572.8,76.2,571.2,76.2z M573.5,93.3l-1-0.4l8.4-18.5l1,0.5L573.5,93.3z M585.3,91.7c-0.8,0.7-1.7,0.8-2.1,0.8
			c-0.3,0-1.1,0-1.8-0.5c-1-0.6-1.9-2.2-1.9-4.9c0-0.4,0-3,1.4-4.5c0.4-0.4,1.1-1,2.4-1c1.4,0,2.1,0.6,2.4,1.1
			c1.3,1.6,1.3,4.2,1.3,4.6C586.9,87.6,586.9,90.3,585.3,91.7z M585.2,84.1c-0.6-1.2-1.4-1.5-2-1.5c-0.3,0-0.7,0.1-1.2,0.5
			c-1.1,0.9-1.3,2.7-1.3,4c0,1,0.2,1.8,0.3,2.2c0.1,0.3,0.3,1.3,1.1,1.9c0.5,0.3,1,0.3,1.2,0.3c2.2,0,2.5-2.7,2.5-4.2
			C585.7,85.7,585.4,84.7,585.2,84.1z"/>
	</g>
	<polyline fill="none" stroke="#FF5959" stroke-miterlimit="10" points="527.6,54.6 507.3,54.6 507.3,110.3 515.6,110.3 	"/>
	<polyline fill="none" stroke="#FF5959" stroke-miterlimit="10" points="594.9,54.6 615.2,54.6 615.2,110.3 606.9,110.3 	"/>
	<g>
		<path fill="#D6E7F7" d="M547.1,164.2c-0.6,1.2-2.2,2.8-5.4,2.8c-2,0-4.1-0.6-5.2-2.4c-0.3-0.4-0.7-1.3-0.7-2.6
			c0-0.5,0-1.5,0.8-2.5c0.3-0.4,1.2-1.4,2.7-1.8c-0.2,0-0.6-0.2-1-0.5c-0.6-0.4-1.9-1.4-1.9-3.3c0-0.3,0-1.1,0.5-1.9
			c0.6-1.1,2-2.5,4.9-2.5c0.6,0,3.4,0,4.8,2.2c0.6,0.9,0.6,1.8,0.6,2.2c0,0.4,0,1.5-0.8,2.5c-0.1,0.1-0.4,0.4-0.8,0.7
			c-0.6,0.5-1.1,0.6-1.4,0.7c0.3,0.1,0.6,0.2,0.9,0.4c0.7,0.4,2.5,1.6,2.5,4C547.6,163.1,547.2,163.9,547.1,164.2z M545.6,160.4
			c-1-1.9-3.4-1.9-3.9-1.9c-2.1,0-4.3,1.1-4.3,3.6c0,1.1,0.4,2,1.3,2.7c1.2,1,2.6,1,3,1c0.9,0,1.5-0.1,1.8-0.3
			c1.5-0.5,2.5-1.7,2.5-3.3C546,161.2,545.8,160.7,545.6,160.4z M541.7,150.8c-3,0-3.8,2-3.8,3.2c0,0.5,0.1,1.3,0.9,2.1
			c1.1,1,2.4,1,2.9,1c0.2,0,0.8,0,1.5-0.2c0.6-0.2,2.4-0.9,2.4-3C545.5,152.6,544.7,150.8,541.7,150.8z"/>
		<path fill="#D6E7F7" d="M549.7,166.7v-2.8h1.9v2.8H549.7z"/>
		<path fill="#D6E7F7" d="M564.2,158.6c-1.7,2.7-5.3,5.1-5.7,5.4c-1.2,0.8-2.2,1.4-2.2,1.4h8.5v1.3h-10.7v-1.3l0.3-0.2
			c0.5-0.3,1-0.6,1.5-1c1-0.7,2-1.4,2.9-2.2c0.2-0.2,1.7-1.4,2.7-2.4c0.5-0.6,2.2-2.3,2.2-4.8c0-0.7-0.1-1.4-0.5-2.1
			c-1-1.9-3.2-2-3.7-2c-1.5,0-2.9,0.6-3.7,2c-0.1,0.3-0.5,0.9-0.5,1.8c0,1.5,0.9,2.5,1.2,2.9l-2-0.2c-0.5-1.3-0.6-2.2-0.6-2.8
			c0-1,0.3-1.7,0.4-2.1c0.5-1.2,2-2.9,5.1-2.9c0.9,0,3.9,0.1,5.2,2.9c0.2,0.4,0.5,1.3,0.5,2.5C565.4,155.7,565.3,156.9,564.2,158.6z
			"/>
		<path fill="#D6E7F7" d="M573.7,159.3c-0.7,0.8-1.5,1.2-2.6,1.2c-0.3,0-1.1,0-1.8-0.5c-1-0.7-2-2.2-2-5c0-0.4,0-3.3,1.7-4.8
			c0.8-0.7,1.7-0.7,2.1-0.7c0.3,0,1.1,0,1.8,0.5c1,0.7,1.9,2.4,1.9,5.2C574.9,155.7,574.9,157.9,573.7,159.3z M571.2,150.6
			c-0.5,0-1.4,0.2-1.9,1.3c-0.3,0.5-0.6,1.6-0.6,3.1c0,0.1,0,2.3,0.8,3.4c0.2,0.3,0.7,1,1.8,1c2.2,0,2.5-2.7,2.5-4.2
			C573.7,152.4,572.8,150.6,571.2,150.6z M573.5,167.7l-1-0.4l8.4-18.5l1,0.5L573.5,167.7z M585.3,166.1c-0.8,0.7-1.7,0.8-2.1,0.8
			c-0.3,0-1.1,0-1.8-0.5c-1-0.6-1.9-2.2-1.9-4.9c0-0.4,0-3,1.4-4.5c0.4-0.4,1.1-1,2.4-1c1.4,0,2.1,0.6,2.4,1.1
			c1.3,1.6,1.3,4.2,1.3,4.6C586.9,162,586.9,164.8,585.3,166.1z M585.2,158.5c-0.6-1.2-1.4-1.5-2-1.5c-0.3,0-0.7,0.1-1.2,0.5
			c-1.1,0.9-1.3,2.7-1.3,4c0,1,0.2,1.8,0.3,2.2c0.1,0.3,0.3,1.3,1.1,1.9c0.5,0.3,1,0.3,1.2,0.3c2.2,0,2.5-2.7,2.5-4.2
			C585.7,160.1,585.4,159.1,585.2,158.5z"/>
	</g>
	<polyline fill="none" stroke="#FF5959" stroke-miterlimit="10" points="527.6,129.1 507.3,129.1 507.3,184.7 515.6,184.7 	"/>
	<polyline fill="none" stroke="#FF5959" stroke-miterlimit="10" points="594.9,129.1 615.2,129.1 615.2,184.7 606.9,184.7 	"/>
	<circle fill="#FF5959" cx="333.9" cy="63.2" r="21.7"/>
	<circle fill="#FF5959" cx="436.8" cy="64.6" r="21.7"/>
	<path fill="#FF5959" d="M336.6,86.3h-27.5c0,0-12.6,3.8-12.6,19.2v52.8c0,0,5.4,13.9,12.6,0c0,0-1.2-6.7-6.9-6.7
		c0,0,5.7-16.3,0-21.7c0,0,12.9-8.9,4.4-17.5c0,0,5.1-12.5,6.4,13s0,124.8,0,124.8s8.1,14.9,19.5,0v-60.6c0,0,0.9-4.1,4.1,0v60.6
		c11.4,14.9,19.5,0,19.5,0s-1.4-99.3,0-124.8c1.4-25.5,6.4-13,6.4-13c-8.5,8.6,4.4,17.5,4.4,17.5c-5.7,5.4,0,21.7,0,21.7
		c-5.7,0-6.9,6.7-6.9,6.7c7.2,13.9,12.6,0,12.6,0v-52.8c0-15.4-12.6-19.2-12.6-19.2h-27.5"/>
	<path fill="#FF5959" d="M436.8,89.5h20c0,0,11.2-0.7,15.9,27.8c0,0,1.4,27.8,10.5,31.8c0,0,7.5,14.2-9.8,11.9
		c0,0-15.4-18.3-12.6-37.6c0,0-10.1,9.1-6.4,22.4c0,0,20,31.2,20.3,41c0,0-14.9,6.1-20.7,2v62.7c0,0-8.5,12.2-17.3,0v-64.4"/>
	<path fill="#FF5959" d="M439.2,89.5h-20c0,0-11.2-0.7-15.9,27.8c0,0-1.4,27.8-10.5,31.8c0,0-7.5,14.2,9.8,11.9
		c0,0,15.4-18.3,12.6-37.6c0,0,10.1,9.1,6.4,22.4c0,0-20,31.2-20.3,41c0,0,14.9,6.1,20.7,2v62.7c0,0,8.5,12.2,17.3,0v-64.4"/>
	<path fill="#665237" d="M315.1,239.1c0,0-2.7,14.9,7.2,14.9c9.9,0,6.8-14.9,6.8-14.9"/>
	<path fill="#665237" d="M424.7,245c0,0-2.7,9,7.2,9s6.8-9,6.8-9"/>
	<path fill="#665237" d="M437.2,245c0,0-2.7,9,7.2,9s6.8-9,6.8-9"/>
	<path fill="#665237" d="M338.8,239.1c0,0-2.7,14.9,7.3,14.9c10,0,6.8-14.9,6.8-14.9"/>
	<path fill="#FF5959" d="M314.8,169.4"/>
	<path fill="#FFCA61" d="M314.8,163.3v72.8h14.8v-53.2c0,0,4.3-4.7,8.9,0.2v53h14.9v-72.8H314.8z"/>
	<polyline fill="#FFCA61" points="424.3,241.9 450.7,241.9 450.7,231.2 424.3,231.2 	"/>
	<polyline fill="none" stroke="#FF5959" stroke-miterlimit="10" points="264.2,169.4 294.1,245 304.2,245 	"/>
	<polyline fill="none" stroke="#FF5959" stroke-miterlimit="10" points="263.2,250.5 293.1,174.8 303.3,174.8 	"/>
	<polyline fill="none" stroke="#FF5959" stroke-miterlimit="10" points="505.1,161.8 475.2,237.5 465,237.5 	"/>
	<polyline fill="none" stroke="#FF5959" stroke-miterlimit="10" points="505.1,100.3 476.1,251.5 466.2,251.5 	"/>
	<g>
		<rect x="497.5" y="199.7" fill="none" width="275" height="114.4"/>
		<path fill="#D6E7F7" d="M506.6,204.8c-0.3,0.4-0.7,0.6-0.8,0.7c-0.8,0.4-1.7,0.4-3.5,0.4h-2.5v5.1h-1v-11.3h3.9c0.7,0,1.3,0,2,0
			c0.8,0.1,1.4,0.2,1.9,0.8c0.3,0.4,0.7,1.1,0.7,2.2C507.3,203.5,507.1,204.2,506.6,204.8z M505.9,201.5c-0.5-0.9-1.3-0.9-2.2-0.9
			c-0.4,0-0.8,0-1.2,0h-2.7v4.4h2.4c0.5,0,1,0,1.5,0c0.8,0,1.6,0,2.1-0.7c0.2-0.3,0.5-0.7,0.5-1.5
			C506.2,202.6,506.2,202,505.9,201.5z"/>
		<path fill="#D6E7F7" d="M514,209.9c-0.4,0.5-1.2,1.2-2.7,1.2c-0.3,0-1,0-1.8-0.4c-1.8-0.9-1.9-3.2-1.9-3.7c0-0.3,0-0.9,0.2-1.6
			c0.5-1.4,1.7-2.4,3.3-2.4c0.5,0,1.6,0.1,2.4,1.1c0.6,0.7,1,1.8,1,2.7v0.2h-5.9c0,0.6,0.1,1,0.1,1.3c0.2,0.6,0.7,1.9,2.4,1.9
			c0.7,0,1.7-0.2,2.4-1.6l0.9,0.3C514.5,209.1,514.3,209.5,514,209.9z M511.1,204c-1.3,0-2,0.9-2.2,1.3c-0.1,0.3-0.2,0.7-0.3,1.1
			h4.8C513.3,204.4,512,204,511.1,204z"/>
		<path fill="#D6E7F7" d="M520.1,204.1c-0.2,0-0.4,0-0.6,0c-1.2,0-1.9,0.7-2.1,1.8c-0.1,0.4-0.1,0.9-0.1,1.8v3.3h-0.9v-7.6h0.9v1.2
			c0-0.1,0.1-0.3,0.2-0.4c0.1-0.1,0.4-0.5,0.9-0.8c0.2-0.1,0.5-0.2,1.1-0.2c0.1,0,0.3,0,0.6,0L520.1,204.1z"/>
		<path fill="#D6E7F7" d="M526.7,210.4c-0.4,0.3-1.1,0.8-2.2,0.8c-0.4,0-1.5,0-2.3-0.9c-1.1-1.1-1.2-2.7-1.2-3.1
			c0-0.6,0.1-1.1,0.2-1.6c0.5-1.6,1.8-2.5,3.4-2.5c1.2,0,1.9,0.5,2.2,0.8c0.4,0.4,0.6,0.8,0.7,1.1l-0.9,0.2
			c-0.3-0.8-1.2-1.3-2.1-1.3c-0.3,0-1,0-1.6,0.6c-1,0.8-1,2.3-1,2.6c0,0.2,0,1.5,0.7,2.4c0.1,0.1,0.3,0.4,0.8,0.6
			c0.2,0.1,0.5,0.2,1,0.2c1,0,1.6-0.4,2.1-1.3l1,0.2C527.3,209.7,527.1,210.1,526.7,210.4z"/>
		<path fill="#D6E7F7" d="M535,209.9c-0.4,0.5-1.2,1.2-2.7,1.2c-0.3,0-1,0-1.8-0.4c-1.8-0.9-1.9-3.2-1.9-3.7c0-0.3,0-0.9,0.2-1.6
			c0.5-1.4,1.7-2.4,3.3-2.4c0.5,0,1.6,0.1,2.4,1.1c0.6,0.7,1,1.8,1,2.7v0.2h-5.9c0,0.6,0.1,1,0.1,1.3c0.2,0.6,0.7,1.9,2.4,1.9
			c0.7,0,1.7-0.2,2.4-1.6l0.9,0.3C535.5,209.1,535.3,209.5,535,209.9z M532.1,204c-1.3,0-2,0.9-2.2,1.3c-0.1,0.3-0.2,0.7-0.3,1.1
			h4.8C534.3,204.4,533,204,532.1,204z"/>
		<path fill="#D6E7F7" d="M542.5,211v-4c0-1,0-1.6-0.2-2.1c-0.2-0.4-0.4-0.6-0.6-0.7c-0.4-0.3-0.9-0.2-1-0.2c-0.2,0-0.6,0-1,0.2
			c-0.6,0.3-1,0.9-1.2,1.5c-0.1,0.4-0.1,1-0.1,1.9v3.3h-0.9v-7.6h0.9v1.4c0.1-0.2,0.2-0.5,0.5-0.8c0.3-0.3,0.8-0.7,1.9-0.7
			c1.4,0,2.1,0.8,2.3,1.3c0.3,0.6,0.3,1.2,0.3,2.5v4H542.5z"/>
		<path fill="#D6E7F7" d="M547.8,211.1c-0.1,0-0.2,0-0.3,0c-0.2,0-0.8-0.1-1-0.7c-0.1-0.3-0.1-1.2-0.1-1.5v-4.8h-1.6v-0.8h1.6v-3.2
			h0.9v3.2h1.7v0.8h-1.7v4.2c0,0.3,0,0.5,0,0.8c0,0.4,0,1.1,0.6,1.1c0.4,0,0.8-0.3,1.1-0.5v1C548.8,210.9,548.4,211.1,547.8,211.1z"
			/>
		<path fill="#D6E7F7" d="M555.4,210.6c-0.3-0.3-0.3-0.6-0.3-1c-0.1,0.2-0.2,0.5-0.4,0.7c-0.3,0.4-1.1,0.9-2.3,0.9
			c-1,0-1.5-0.3-1.8-0.7c-0.2-0.2-0.6-0.7-0.6-1.4c0-0.2,0-0.7,0.4-1.2c0.6-0.7,1.5-0.9,2.4-1.2c0.5-0.1,1-0.3,1.4-0.4l0.9-0.2v-0.4
			c0-0.3,0-0.4-0.1-0.7c-0.2-0.5-0.6-1-1.7-1c-1,0-1.5,0.3-1.7,0.7c-0.2,0.4-0.3,0.8-0.3,1.2l-1-0.2c0-0.2,0.1-0.8,0.4-1.3
			c0.4-0.5,1.1-1.2,2.5-1.2c0.8,0,1.8,0.2,2.3,0.8c0.5,0.6,0.5,1.4,0.5,2.2v2.4c0,0.7,0,1.2,0.3,1.5c0.2,0.2,0.6,0.2,0.9,0.2v0.8
			C556.3,211,555.8,210.9,555.4,210.6z M555.1,206.9l-0.5,0.1c-1.5,0.4-2.8,0.7-3.2,1c-0.3,0.2-0.5,0.6-0.5,0.9
			c0,0.3,0.1,0.5,0.1,0.5c0.4,0.7,1.2,0.7,1.4,0.7c0.9,0,2.1-0.6,2.4-1.4c0.1-0.3,0.2-0.6,0.2-1.3V206.9z"/>
		<path fill="#D6E7F7" d="M564.7,212c0,0.3,0,1.3-0.8,2c-0.4,0.4-1.2,0.9-2.6,0.9c-0.4,0-2.2,0-3-1.5c-0.3-0.5-0.3-1.1-0.3-1.3
			l1-0.2c0.1,0.8,0.4,2.1,2.4,2.1c0.3,0,1.6,0,2.1-1c0.3-0.5,0.2-1.1,0.3-2.3c0-0.3,0-0.6,0-0.8v-0.4c0,0-0.1,0.3-0.2,0.4
			c-0.3,0.5-1,1.2-2.4,1.2c-0.8,0-1.3-0.2-1.6-0.4c-1.7-1-1.8-3.2-1.8-3.6c0-1.3,0.4-2.8,1.6-3.5c0.3-0.2,0.9-0.4,1.7-0.4
			c0.3,0,1.1,0,1.8,0.6c0.3,0.2,0.5,0.5,0.5,0.6c0.1,0.2,0.1,0.3,0.1,0.3v-1.4h0.9v6.8C564.7,210.8,564.7,211.4,564.7,212z
			 M563.3,204.8c-0.2-0.3-0.8-0.8-1.8-0.8c-0.1,0-0.5,0-0.9,0.1c-1.6,0.6-1.6,2.6-1.6,3c0,1.1,0.3,1.9,0.6,2.3
			c0.2,0.3,0.6,0.6,0.9,0.8c0.4,0.2,0.8,0.2,0.9,0.2c0.2,0,0.9,0,1.5-0.4c0.8-0.6,0.9-1.7,1-2.6
			C563.8,207.1,563.9,205.7,563.3,204.8z"/>
		<path fill="#D6E7F7" d="M573,209.9c-0.4,0.5-1.2,1.2-2.7,1.2c-0.3,0-1,0-1.8-0.4c-1.8-0.9-1.9-3.2-1.9-3.7c0-0.3,0-0.9,0.2-1.6
			c0.5-1.4,1.7-2.4,3.3-2.4c0.5,0,1.6,0.1,2.4,1.1c0.6,0.7,1,1.8,1,2.7v0.2h-5.9c0,0.6,0.1,1,0.1,1.3c0.2,0.6,0.7,1.9,2.4,1.9
			c0.7,0,1.7-0.2,2.4-1.6l0.9,0.3C573.5,209.1,573.3,209.5,573,209.9z M570.2,204c-1.3,0-2,0.9-2.2,1.3c-0.1,0.3-0.2,0.7-0.3,1.1
			h4.8C572.3,204.4,571,204,570.2,204z"/>
		<path fill="#D6E7F7" d="M586.7,211h-0.8l-1.9-6.3l-1.9,6.3h-0.8l-2.6-7.6h0.9l2,6.2l1.9-6.2h0.8l1.9,6.2l1.9-6.2h0.9L586.7,211z"
			/>
		<path fill="#D6E7F7" d="M590.6,201.5v-1.5h0.9v1.5H590.6z M590.6,211v-7.6h0.9v7.6H590.6z"/>
		<path fill="#D6E7F7" d="M596,211.1c-0.1,0-0.2,0-0.3,0c-0.2,0-0.8-0.1-1-0.7c-0.1-0.3-0.1-1.2-0.1-1.5v-4.8H593v-0.8h1.6v-3.2h0.9
			v3.2h1.7v0.8h-1.7v4.2c0,0.3,0,0.5,0,0.8c0,0.4,0,1.1,0.6,1.1c0.4,0,0.8-0.3,1.1-0.5v1C597,210.9,596.6,211.1,596,211.1z"/>
		<path fill="#D6E7F7" d="M603.6,211v-4.2c0-0.2,0-0.5,0-0.7c0-0.8-0.1-1.5-0.9-1.9c-0.3-0.1-0.6-0.2-0.9-0.2
			c-1.2,0-1.7,0.7-1.9,1.1c-0.3,0.6-0.3,1.2-0.3,2.6v3.3h-1v-11.3h1v4.9c0,0,0.1-0.3,0.3-0.4c0.3-0.4,0.9-1,2.1-1
			c0.3,0,1.4,0.1,2.1,0.9c0.4,0.6,0.5,1.2,0.5,2.5v4.3H603.6z"/>
		<path fill="#D6E7F7" d="M616.1,211v-1.4c-0.1,0.3-0.2,0.4-0.3,0.6c-0.7,1-1.7,1-2.1,1c-0.1,0-0.5,0-0.9-0.1
			c-0.7-0.2-1.2-0.8-1.5-1.5c-0.2-0.5-0.2-1.2-0.2-2.4v-3.7h1v4c0,0.9,0,1.4,0.1,1.9c0.1,0.5,0.5,1.1,1.6,1.1c0.4,0,1.2,0,1.8-0.8
			c0.6-0.8,0.5-1.8,0.5-2.7v-3.3h0.9v7.6H616.1z"/>
		<path fill="#D6E7F7" d="M624.4,209.8c-0.3,0.6-1.1,1.3-2.6,1.3c-0.5,0-1.7-0.1-2.6-1.2c-0.2-0.3-0.4-0.6-0.5-0.9l0.9-0.3
			c0.1,0.5,0.7,1.5,2.1,1.5c0.7,0,1.2-0.2,1.4-0.4c0.3-0.3,0.5-0.7,0.5-1.1c0-0.2-0.1-0.5-0.2-0.7c-0.2-0.3-0.6-0.5-1.4-0.7
			c-0.8-0.2-1.9-0.3-2.5-1c-0.3-0.3-0.4-0.8-0.4-1.2c0-0.2,0.1-1,0.7-1.5c0.5-0.5,1.4-0.6,2.1-0.6c0.2,0,1.2,0,1.9,0.5
			c0.6,0.4,0.8,1,0.8,1.2l-0.9,0.2c-0.2-0.9-1.1-1.1-1.9-1.1c-0.6,0-1,0.1-1.2,0.3c-0.1,0-0.2,0.2-0.3,0.3c-0.2,0.3-0.2,0.5-0.2,0.7
			c0,0.9,0.9,1.1,1.6,1.2l0.8,0.2c0.7,0.1,1.3,0.4,1.7,1c0.4,0.5,0.4,0.9,0.4,1.2C624.7,209,624.7,209.4,624.4,209.8z"/>
		<path fill="#D6E7F7" d="M631.7,211v-1.4c-0.1,0.3-0.2,0.4-0.3,0.6c-0.7,1-1.7,1-2.1,1c-0.1,0-0.5,0-0.9-0.1
			c-0.7-0.2-1.2-0.8-1.5-1.5c-0.2-0.5-0.2-1.2-0.2-2.4v-3.7h1v4c0,0.9,0,1.4,0.1,1.9c0.1,0.5,0.5,1.1,1.6,1.1c0.4,0,1.2,0,1.8-0.8
			c0.6-0.8,0.5-1.8,0.5-2.7v-3.3h0.9v7.6H631.7z"/>
		<path fill="#D6E7F7" d="M640,210.6c-0.3-0.3-0.3-0.6-0.3-1c-0.1,0.2-0.2,0.5-0.4,0.7c-0.3,0.4-1.1,0.9-2.3,0.9
			c-1,0-1.5-0.3-1.8-0.7c-0.2-0.2-0.6-0.7-0.6-1.4c0-0.2,0-0.7,0.4-1.2c0.6-0.7,1.5-0.9,2.4-1.2c0.5-0.1,1-0.3,1.4-0.4l0.9-0.2v-0.4
			c0-0.3,0-0.4-0.1-0.7c-0.2-0.5-0.6-1-1.7-1c-1,0-1.5,0.3-1.7,0.7c-0.2,0.4-0.3,0.8-0.3,1.2l-1-0.2c0-0.2,0.1-0.8,0.4-1.3
			c0.4-0.5,1.1-1.2,2.5-1.2c0.8,0,1.8,0.2,2.3,0.8c0.5,0.6,0.5,1.4,0.5,2.2v2.4c0,0.7,0,1.2,0.3,1.5c0.2,0.2,0.6,0.2,0.9,0.2v0.8
			C640.9,211,640.4,210.9,640,210.6z M639.7,206.9l-0.5,0.1c-1.5,0.4-2.8,0.7-3.2,1c-0.3,0.2-0.5,0.6-0.5,0.9c0,0.3,0.1,0.5,0.1,0.5
			c0.4,0.7,1.2,0.7,1.4,0.7c0.9,0,2.1-0.6,2.4-1.4c0.1-0.3,0.2-0.6,0.2-1.3V206.9z"/>
		<path fill="#D6E7F7" d="M643.1,211v-11.3h1V211H643.1z"/>
		<path fill="#D6E7F7" d="M655.5,211v-1.4c-0.4,1-1.3,1.6-2.4,1.6c-0.3,0-0.9,0-1.6-0.5c-1.5-1-1.6-3.1-1.6-3.5
			c0-0.5,0.1-2.5,1.6-3.5c0.3-0.2,0.8-0.5,1.6-0.5c0.6,0,1.2,0.2,1.7,0.6c0.4,0.3,0.4,0.6,0.5,0.8v-4.9h0.9V211H655.5z M654.7,204.4
			c-0.2-0.1-0.6-0.4-1.3-0.4c-0.2,0-0.6,0-1,0.2c-0.7,0.4-1.3,1.2-1.3,2.9c0,0.3,0,3.1,2.3,3.1c0.6,0,1.1-0.2,1.5-0.6
			c0.6-0.7,0.7-1.6,0.7-2.5C655.6,205.7,655.3,204.9,654.7,204.4z"/>
		<path fill="#D6E7F7" d="M663.8,210.6c-0.3-0.3-0.3-0.6-0.3-1c-0.1,0.2-0.2,0.5-0.4,0.7c-0.3,0.4-1.1,0.9-2.3,0.9
			c-1,0-1.5-0.3-1.8-0.7c-0.2-0.2-0.6-0.7-0.6-1.4c0-0.2,0-0.7,0.4-1.2c0.6-0.7,1.5-0.9,2.4-1.2c0.5-0.1,1-0.3,1.4-0.4l0.9-0.2v-0.4
			c0-0.3,0-0.4-0.1-0.7c-0.2-0.5-0.6-1-1.7-1c-1,0-1.5,0.3-1.7,0.7c-0.2,0.4-0.3,0.8-0.3,1.2l-1-0.2c0-0.2,0.1-0.8,0.4-1.3
			c0.4-0.5,1.1-1.2,2.5-1.2c0.8,0,1.8,0.2,2.3,0.8c0.5,0.6,0.5,1.4,0.5,2.2v2.4c0,0.7,0,1.2,0.3,1.5c0.2,0.2,0.6,0.2,0.9,0.2v0.8
			C664.7,211,664.2,210.9,663.8,210.6z M663.5,206.9l-0.5,0.1c-1.5,0.4-2.8,0.7-3.2,1c-0.3,0.2-0.5,0.6-0.5,0.9
			c0,0.3,0.1,0.5,0.1,0.5c0.4,0.7,1.2,0.7,1.4,0.7c0.9,0,2.1-0.6,2.4-1.4c0.1-0.3,0.2-0.6,0.2-1.3V206.9z"/>
		<path fill="#D6E7F7" d="M666.9,201.5v-1.5h0.9v1.5H666.9z M666.9,211v-7.6h0.9v7.6H666.9z"/>
		<path fill="#D6E7F7" d="M670.2,211v-11.3h1V211H670.2z"/>
		<path fill="#D6E7F7" d="M675.7,212.1c-0.7,1.8-1,2.8-2.2,2.8c-0.5,0-0.8-0.2-1-0.3v-1c0.4,0.3,0.7,0.4,1,0.4c0.5,0,0.7-0.4,1-1.2
			c0.1-0.2,0.2-0.5,0.3-0.7l0.4-1.1l-2.6-7.6h0.9l2.2,6.5l2.5-6.5h1L675.7,212.1z"/>
		<path fill="#D6E7F7" d="M689.6,210.6c-0.3-0.3-0.3-0.6-0.3-1c-0.1,0.2-0.2,0.5-0.4,0.7c-0.3,0.4-1.1,0.9-2.3,0.9
			c-1,0-1.5-0.3-1.8-0.7c-0.2-0.2-0.6-0.7-0.6-1.4c0-0.2,0-0.7,0.4-1.2c0.6-0.7,1.5-0.9,2.4-1.2c0.5-0.1,1-0.3,1.4-0.4l0.9-0.2v-0.4
			c0-0.3,0-0.4-0.1-0.7c-0.2-0.5-0.6-1-1.7-1c-1,0-1.5,0.3-1.7,0.7c-0.2,0.4-0.3,0.8-0.3,1.2l-1-0.2c0-0.2,0.1-0.8,0.4-1.3
			c0.4-0.5,1.1-1.2,2.5-1.2c0.8,0,1.8,0.2,2.3,0.8c0.5,0.6,0.5,1.4,0.5,2.2v2.4c0,0.7,0,1.2,0.3,1.5c0.2,0.2,0.6,0.2,0.9,0.2v0.8
			C690.4,211,689.9,210.9,689.6,210.6z M689.3,206.9l-0.5,0.1c-1.5,0.4-2.8,0.7-3.2,1c-0.3,0.2-0.5,0.6-0.5,0.9
			c0,0.3,0.1,0.5,0.1,0.5c0.4,0.7,1.2,0.7,1.4,0.7c0.9,0,2.1-0.6,2.4-1.4c0.1-0.3,0.2-0.6,0.2-1.3V206.9z"/>
		<path fill="#D6E7F7" d="M692.6,211v-11.3h1V211H692.6z"/>
		<path fill="#D6E7F7" d="M701.2,210.4c-0.4,0.3-1.1,0.8-2.2,0.8c-0.4,0-1.5,0-2.3-0.9c-1.1-1.1-1.2-2.7-1.2-3.1
			c0-0.6,0.1-1.1,0.2-1.6c0.5-1.6,1.8-2.5,3.4-2.5c1.2,0,1.9,0.5,2.2,0.8c0.4,0.4,0.6,0.8,0.7,1.1l-0.9,0.2
			c-0.3-0.8-1.2-1.3-2.1-1.3c-0.3,0-1,0-1.6,0.6c-1,0.8-1,2.3-1,2.6c0,0.2,0,1.5,0.7,2.4c0.1,0.1,0.3,0.4,0.8,0.6
			c0.2,0.1,0.5,0.2,1,0.2c1,0,1.6-0.4,2.1-1.3l1,0.2C701.8,209.7,701.6,210.1,701.2,210.4z"/>
		<path fill="#D6E7F7" d="M709.9,208.6c-0.5,1.5-1.7,2.5-3.3,2.5c-0.5,0-1.7-0.1-2.6-1.3c-0.3-0.5-0.8-1.3-0.8-2.6
			c0-0.3,0-1.1,0.4-1.9c0.8-1.9,2.4-2.2,3.1-2.2c0.9,0,1.6,0.3,2.2,0.8c0.8,0.8,1.2,2,1.2,3.1C710.1,207.4,710.1,208,709.9,208.6z
			 M706.6,203.9c-0.2,0-0.8,0-1.4,0.4c-0.6,0.4-1.1,1.3-1.1,2.9c0,0.3,0,1.8,1,2.6c0.2,0.2,0.7,0.4,1.4,0.4c1.1,0,2.5-0.7,2.5-3.1
			C709.1,204.7,707.8,203.9,706.6,203.9z"/>
		<path fill="#D6E7F7" d="M717,211v-4.2c0-0.2,0-0.5,0-0.7c0-0.8-0.1-1.5-0.9-1.9c-0.3-0.1-0.6-0.2-0.9-0.2c-1.2,0-1.7,0.7-1.9,1.1
			c-0.3,0.6-0.3,1.2-0.3,2.6v3.3h-1v-11.3h1v4.9c0,0,0.1-0.3,0.3-0.4c0.3-0.4,0.9-1,2.1-1c0.3,0,1.4,0.1,2.1,0.9
			c0.4,0.6,0.5,1.2,0.5,2.5v4.3H717z"/>
		<path fill="#D6E7F7" d="M726.5,208.6c-0.5,1.5-1.7,2.5-3.3,2.5c-0.5,0-1.7-0.1-2.6-1.3c-0.3-0.5-0.8-1.3-0.8-2.6
			c0-0.3,0-1.1,0.4-1.9c0.8-1.9,2.4-2.2,3.1-2.2c0.9,0,1.6,0.3,2.2,0.8c0.8,0.8,1.2,2,1.2,3.1C726.7,207.4,726.7,208,726.5,208.6z
			 M723.3,203.9c-0.2,0-0.8,0-1.4,0.4c-0.6,0.4-1.1,1.3-1.1,2.9c0,0.3,0,1.8,1,2.6c0.2,0.2,0.7,0.4,1.4,0.4c1.1,0,2.5-0.7,2.5-3.1
			C725.8,204.7,724.5,203.9,723.3,203.9z"/>
		<path fill="#D6E7F7" d="M728.6,211v-11.3h1V211H728.6z"/>
		<path fill="#D6E7F7" d="M498.7,220.7v-1.5h0.9v1.5H498.7z M498.7,230.2v-7.6h0.9v7.6H498.7z"/>
		<path fill="#D6E7F7" d="M507,230.2v-4c0-1,0-1.6-0.2-2.1c-0.2-0.4-0.4-0.6-0.6-0.7c-0.4-0.3-0.9-0.2-1-0.2c-0.2,0-0.6,0-1,0.2
			c-0.6,0.3-1,0.9-1.2,1.5c-0.1,0.4-0.1,1-0.1,1.9v3.3H502v-7.6h0.9v1.4c0.1-0.2,0.2-0.5,0.5-0.8c0.3-0.3,0.8-0.7,1.9-0.7
			c1.4,0,2.1,0.8,2.3,1.3c0.3,0.6,0.3,1.2,0.3,2.5v4H507z"/>
		<path fill="#D6E7F7" d="M512.3,230.3c-0.1,0-0.2,0-0.3,0c-0.2,0-0.8-0.1-1-0.7c-0.1-0.3-0.1-1.2-0.1-1.5v-4.8h-1.6v-0.8h1.6v-3.2
			h0.9v3.2h1.7v0.8h-1.7v4.2c0,0.3,0,0.5,0,0.8c0,0.4,0,1.1,0.6,1.1c0.4,0,0.8-0.3,1.1-0.5v1C513.4,230.1,513,230.3,512.3,230.3z"/>
		<path fill="#D6E7F7" d="M520,229.8c-0.3-0.3-0.3-0.6-0.3-1c-0.1,0.2-0.2,0.5-0.4,0.7c-0.3,0.4-1.1,0.9-2.3,0.9
			c-1,0-1.5-0.3-1.8-0.7c-0.2-0.2-0.6-0.7-0.6-1.4c0-0.2,0-0.7,0.4-1.2c0.6-0.7,1.5-0.9,2.4-1.2c0.5-0.1,1-0.3,1.4-0.4l0.9-0.2v-0.4
			c0-0.3,0-0.4-0.1-0.7c-0.2-0.5-0.6-1-1.7-1c-1,0-1.5,0.3-1.7,0.7c-0.2,0.4-0.3,0.8-0.3,1.2l-1-0.2c0-0.2,0.1-0.8,0.4-1.3
			c0.4-0.5,1.1-1.2,2.5-1.2c0.8,0,1.8,0.2,2.3,0.8c0.5,0.6,0.5,1.4,0.5,2.2v2.4c0,0.7,0,1.2,0.3,1.5c0.2,0.2,0.6,0.2,0.9,0.2v0.8
			C520.8,230.2,520.3,230.1,520,229.8z M519.6,226.1l-0.5,0.1c-1.5,0.4-2.8,0.7-3.2,1c-0.3,0.2-0.5,0.6-0.5,0.9
			c0,0.3,0.1,0.5,0.1,0.5c0.4,0.7,1.2,0.7,1.4,0.7c0.9,0,2.1-0.6,2.4-1.4c0.1-0.3,0.2-0.6,0.2-1.3V226.1z"/>
		<path fill="#D6E7F7" d="M528.5,230.2l-2.9-4l-1.6,1.6v2.4H523v-11.3h0.9v7.7l4.3-4h1.2l-3.2,3l3.4,4.6H528.5z"/>
		<path fill="#D6E7F7" d="M536.9,229.1c-0.4,0.5-1.2,1.2-2.7,1.2c-0.3,0-1,0-1.8-0.4c-1.8-0.9-1.9-3.2-1.9-3.7c0-0.3,0-0.9,0.2-1.6
			c0.5-1.4,1.7-2.4,3.3-2.4c0.5,0,1.6,0.1,2.4,1.1c0.6,0.7,1,1.8,1,2.7v0.2h-5.9c0,0.6,0.1,1,0.1,1.3c0.2,0.6,0.7,1.9,2.4,1.9
			c0.7,0,1.7-0.2,2.4-1.6l0.9,0.3C537.4,228.3,537.2,228.7,536.9,229.1z M534,223.2c-1.3,0-2,0.9-2.2,1.3c-0.1,0.3-0.2,0.7-0.3,1.1
			h4.8C536.2,223.6,534.8,223.2,534,223.2z"/>
		<path fill="#D6E7F7" d="M549.7,231.2c0,0.3,0,1.3-0.8,2c-0.4,0.4-1.2,0.9-2.6,0.9c-0.4,0-2.2,0-3-1.5c-0.3-0.5-0.3-1.1-0.3-1.3
			l1-0.2c0.1,0.8,0.4,2.1,2.4,2.1c0.3,0,1.6,0,2.1-1c0.3-0.5,0.2-1.1,0.3-2.3c0-0.3,0-0.6,0-0.8v-0.4c0,0-0.1,0.3-0.2,0.4
			c-0.3,0.5-1,1.2-2.4,1.2c-0.8,0-1.3-0.2-1.6-0.4c-1.7-1-1.8-3.2-1.8-3.6c0-1.3,0.4-2.8,1.6-3.5c0.3-0.2,0.9-0.4,1.7-0.4
			c0.3,0,1.1,0,1.8,0.6c0.3,0.2,0.5,0.5,0.5,0.6c0.1,0.2,0.1,0.3,0.1,0.3v-1.4h0.9v6.8C549.7,230,549.7,230.6,549.7,231.2z
			 M548.3,224c-0.2-0.3-0.8-0.8-1.8-0.8c-0.1,0-0.5,0-0.9,0.1c-1.6,0.6-1.6,2.6-1.6,3c0,1.1,0.3,1.9,0.6,2.3
			c0.2,0.3,0.6,0.6,0.9,0.8c0.4,0.2,0.8,0.2,0.9,0.2c0.2,0,0.9,0,1.5-0.4c0.8-0.6,0.9-1.7,1-2.6C548.8,226.3,548.8,224.9,548.3,224z
			"/>
		<path fill="#D6E7F7" d="M555.8,223.3c-0.2,0-0.4,0-0.6,0c-1.2,0-1.9,0.7-2.1,1.8c-0.1,0.4-0.1,0.9-0.1,1.8v3.3h-0.9v-7.6h0.9v1.2
			c0-0.1,0.1-0.3,0.2-0.4c0.1-0.1,0.4-0.5,0.9-0.8c0.2-0.1,0.5-0.2,1.1-0.2c0.1,0,0.3,0,0.6,0L555.8,223.3z"/>
		<path fill="#D6E7F7" d="M563,229.1c-0.4,0.5-1.2,1.2-2.7,1.2c-0.3,0-1,0-1.8-0.4c-1.8-0.9-1.9-3.2-1.9-3.7c0-0.3,0-0.9,0.2-1.6
			c0.5-1.4,1.7-2.4,3.3-2.4c0.5,0,1.6,0.1,2.4,1.1c0.6,0.7,1,1.8,1,2.7v0.2h-5.9c0,0.6,0.1,1,0.1,1.3c0.2,0.6,0.7,1.9,2.4,1.9
			c0.7,0,1.7-0.2,2.4-1.6l0.9,0.3C563.5,228.3,563.3,228.7,563,229.1z M560.2,223.2c-1.3,0-2,0.9-2.2,1.3c-0.1,0.3-0.2,0.7-0.3,1.1
			h4.8C562.3,223.6,561,223.2,560.2,223.2z"/>
		<path fill="#D6E7F7" d="M570.4,229.8c-0.3-0.3-0.3-0.6-0.3-1c-0.1,0.2-0.2,0.5-0.4,0.7c-0.3,0.4-1.1,0.9-2.3,0.9
			c-1,0-1.5-0.3-1.8-0.7c-0.2-0.2-0.6-0.7-0.6-1.4c0-0.2,0-0.7,0.4-1.2c0.6-0.7,1.5-0.9,2.4-1.2c0.5-0.1,1-0.3,1.4-0.4l0.9-0.2v-0.4
			c0-0.3,0-0.4-0.1-0.7c-0.2-0.5-0.6-1-1.7-1c-1,0-1.5,0.3-1.7,0.7c-0.2,0.4-0.3,0.8-0.3,1.2l-1-0.2c0-0.2,0.1-0.8,0.4-1.3
			c0.4-0.5,1.1-1.2,2.5-1.2c0.8,0,1.8,0.2,2.3,0.8c0.5,0.6,0.5,1.4,0.5,2.2v2.4c0,0.7,0,1.2,0.3,1.5c0.2,0.2,0.6,0.2,0.9,0.2v0.8
			C571.3,230.2,570.8,230.1,570.4,229.8z M570.1,226.1l-0.5,0.1c-1.5,0.4-2.8,0.7-3.2,1c-0.3,0.2-0.5,0.6-0.5,0.9
			c0,0.3,0.1,0.5,0.1,0.5c0.4,0.7,1.2,0.7,1.4,0.7c0.9,0,2.1-0.6,2.4-1.4c0.1-0.3,0.2-0.6,0.2-1.3V226.1z"/>
		<path fill="#D6E7F7" d="M575.5,230.3c-0.1,0-0.2,0-0.3,0c-0.2,0-0.8-0.1-1-0.7c-0.1-0.3-0.1-1.2-0.1-1.5v-4.8h-1.6v-0.8h1.6v-3.2
			h0.9v3.2h1.7v0.8H575v4.2c0,0.3,0,0.5,0,0.8c0,0.4,0,1.1,0.6,1.1c0.4,0,0.8-0.3,1.1-0.5v1C576.5,230.1,576.1,230.3,575.5,230.3z"
			/>
		<path fill="#D6E7F7" d="M584,229.1c-0.4,0.5-1.2,1.2-2.7,1.2c-0.3,0-1,0-1.8-0.4c-1.8-0.9-1.9-3.2-1.9-3.7c0-0.3,0-0.9,0.2-1.6
			c0.5-1.4,1.7-2.4,3.3-2.4c0.5,0,1.6,0.1,2.4,1.1c0.6,0.7,1,1.8,1,2.7v0.2h-5.9c0,0.6,0.1,1,0.1,1.3c0.2,0.6,0.7,1.9,2.4,1.9
			c0.7,0,1.7-0.2,2.4-1.6l0.9,0.3C584.5,228.3,584.3,228.7,584,229.1z M581.2,223.2c-1.3,0-2,0.9-2.2,1.3c-0.1,0.3-0.2,0.7-0.3,1.1
			h4.8C583.3,223.6,582,223.2,581.2,223.2z"/>
		<path fill="#D6E7F7" d="M590.2,223.3c-0.2,0-0.4,0-0.6,0c-1.2,0-1.9,0.7-2.1,1.8c-0.1,0.4-0.1,0.9-0.1,1.8v3.3h-0.9v-7.6h0.9v1.2
			c0-0.1,0.1-0.3,0.2-0.4c0.1-0.1,0.4-0.5,0.9-0.8c0.2-0.1,0.5-0.2,1.1-0.2c0.1,0,0.3,0,0.6,0L590.2,223.3z"/>
		<path fill="#D6E7F7" d="M597.6,230.3c-0.1,0-0.2,0-0.3,0c-0.2,0-0.8-0.1-1-0.7c-0.1-0.3-0.1-1.2-0.1-1.5v-4.8h-1.6v-0.8h1.6v-3.2
			h0.9v3.2h1.7v0.8h-1.7v4.2c0,0.3,0,0.5,0,0.8c0,0.4,0,1.1,0.6,1.1c0.4,0,0.8-0.3,1.1-0.5v1C598.6,230.1,598.3,230.3,597.6,230.3z"
			/>
		<path fill="#D6E7F7" d="M605.3,230.2V226c0-0.2,0-0.5,0-0.7c0-0.8-0.1-1.5-0.9-1.9c-0.3-0.1-0.6-0.2-0.9-0.2
			c-1.2,0-1.7,0.7-1.9,1.1c-0.3,0.6-0.3,1.2-0.3,2.6v3.3h-1v-11.3h1v4.9c0,0,0.1-0.3,0.3-0.4c0.3-0.4,0.9-1,2.1-1
			c0.3,0,1.4,0.1,2.1,0.9c0.4,0.6,0.5,1.2,0.5,2.5v4.3H605.3z"/>
		<path fill="#D6E7F7" d="M613.6,229.8c-0.3-0.3-0.3-0.6-0.3-1c-0.1,0.2-0.2,0.5-0.4,0.7c-0.3,0.4-1.1,0.9-2.3,0.9
			c-1,0-1.5-0.3-1.8-0.7c-0.2-0.2-0.6-0.7-0.6-1.4c0-0.2,0-0.7,0.4-1.2c0.6-0.7,1.5-0.9,2.4-1.2c0.5-0.1,1-0.3,1.4-0.4l0.9-0.2v-0.4
			c0-0.3,0-0.4-0.1-0.7c-0.2-0.5-0.6-1-1.7-1c-1,0-1.5,0.3-1.7,0.7c-0.2,0.4-0.3,0.8-0.3,1.2l-1-0.2c0-0.2,0.1-0.8,0.4-1.3
			c0.4-0.5,1.1-1.2,2.5-1.2c0.8,0,1.8,0.2,2.3,0.8c0.5,0.6,0.5,1.4,0.5,2.2v2.4c0,0.7,0,1.2,0.3,1.5c0.2,0.2,0.6,0.2,0.9,0.2v0.8
			C614.4,230.2,613.9,230.1,613.6,229.8z M613.3,226.1l-0.5,0.1c-1.5,0.4-2.8,0.7-3.2,1c-0.3,0.2-0.5,0.6-0.5,0.9
			c0,0.3,0.1,0.5,0.1,0.5c0.4,0.7,1.2,0.7,1.4,0.7c0.9,0,2.1-0.6,2.4-1.4c0.1-0.3,0.2-0.6,0.2-1.3V226.1z"/>
		<path fill="#D6E7F7" d="M621.6,230.2v-4c0-1,0-1.6-0.2-2.1c-0.2-0.4-0.4-0.6-0.6-0.7c-0.4-0.3-0.9-0.2-1-0.2c-0.2,0-0.6,0-1,0.2
			c-0.6,0.3-1,0.9-1.2,1.5c-0.1,0.4-0.1,1-0.1,1.9v3.3h-0.9v-7.6h0.9v1.4c0.1-0.2,0.2-0.5,0.5-0.8c0.3-0.3,0.8-0.7,1.9-0.7
			c1.4,0,2.1,0.8,2.3,1.3c0.3,0.6,0.3,1.2,0.3,2.5v4H621.6z"/>
		<path fill="#D6E7F7" d="M635.6,224.7c-1.1,1.8-3.5,3.4-3.8,3.6c-0.8,0.6-1.5,0.9-1.5,0.9h5.7v0.9h-7.1v-0.9l0.2-0.1
			c0.3-0.2,0.7-0.4,1-0.7c0.7-0.5,1.3-0.9,2-1.5c0.1-0.1,1.1-0.9,1.8-1.6c0.4-0.4,1.5-1.5,1.5-3.2c0-0.5-0.1-0.9-0.3-1.4
			c-0.7-1.2-2.1-1.3-2.5-1.3c-1,0-2,0.4-2.4,1.4c-0.1,0.2-0.3,0.6-0.3,1.2c0,1,0.6,1.7,0.8,1.9l-1.3-0.2c-0.4-0.9-0.4-1.4-0.4-1.9
			c0-0.7,0.2-1.2,0.3-1.4c0.4-0.8,1.3-1.9,3.4-1.9c0.6,0,2.6,0.1,3.5,1.9c0.1,0.3,0.4,0.9,0.4,1.7
			C636.4,222.8,636.3,223.6,635.6,224.7z"/>
		<path fill="#D6E7F7" d="M643.7,222.4c-1.8,3.3-2.1,6.3-2.3,7.7h-1.1c0.2-2.8,1.1-5.5,2.5-7.8c0.5-0.9,1.1-1.7,1.6-2.5h-5.3v2.5
			h-0.9v-3.5h7.2v0.9C644.5,221,644,221.8,643.7,222.4z"/>
		<path fill="#D6E7F7" d="M647.3,230.2v-1.9h1.3v1.9H647.3z"/>
		<path fill="#D6E7F7" d="M656.9,224.7c-1.1,1.8-3.5,3.4-3.8,3.6c-0.8,0.6-1.5,0.9-1.5,0.9h5.7v0.9h-7.1v-0.9l0.2-0.1
			c0.3-0.2,0.7-0.4,1-0.7c0.7-0.5,1.3-0.9,2-1.5c0.1-0.1,1.1-0.9,1.8-1.6c0.4-0.4,1.5-1.5,1.5-3.2c0-0.5-0.1-0.9-0.3-1.4
			c-0.7-1.2-2.1-1.3-2.5-1.3c-1,0-2,0.4-2.4,1.4c-0.1,0.2-0.3,0.6-0.3,1.2c0,1,0.6,1.7,0.8,1.9l-1.3-0.2c-0.4-0.9-0.4-1.4-0.4-1.9
			c0-0.7,0.2-1.2,0.3-1.4c0.4-0.8,1.3-1.9,3.4-1.9c0.6,0,2.6,0.1,3.5,1.9c0.1,0.3,0.4,0.9,0.4,1.7
			C657.7,222.8,657.6,223.6,656.9,224.7z"/>
		<path fill="#D6E7F7" d="M670.1,231.2c0,0.3,0,1.3-0.8,2c-0.4,0.4-1.2,0.9-2.6,0.9c-0.4,0-2.2,0-3-1.5c-0.3-0.5-0.3-1.1-0.3-1.3
			l1-0.2c0.1,0.8,0.4,2.1,2.4,2.1c0.3,0,1.6,0,2.1-1c0.3-0.5,0.2-1.1,0.3-2.3c0-0.3,0-0.6,0-0.8v-0.4c0,0-0.1,0.3-0.2,0.4
			c-0.3,0.5-1,1.2-2.4,1.2c-0.8,0-1.3-0.2-1.6-0.4c-1.7-1-1.8-3.2-1.8-3.6c0-1.3,0.4-2.8,1.6-3.5c0.3-0.2,0.9-0.4,1.7-0.4
			c0.3,0,1.1,0,1.8,0.6c0.3,0.2,0.5,0.5,0.5,0.6c0.1,0.2,0.1,0.3,0.1,0.3v-1.4h0.9v6.8C670.1,230,670.2,230.6,670.1,231.2z
			 M668.7,224c-0.2-0.3-0.8-0.8-1.8-0.8c-0.1,0-0.5,0-0.9,0.1c-1.6,0.6-1.6,2.6-1.6,3c0,1.1,0.3,1.9,0.6,2.3
			c0.2,0.3,0.6,0.6,0.9,0.8c0.4,0.2,0.8,0.2,0.9,0.2c0.2,0,0.9,0,1.5-0.4c0.8-0.6,0.9-1.7,1-2.6C669.2,226.3,669.3,224.9,668.7,224z
			"/>
		<path fill="#D6E7F7" d="M676.2,223.3c-0.2,0-0.4,0-0.6,0c-1.2,0-1.9,0.7-2.1,1.8c-0.1,0.4-0.1,0.9-0.1,1.8v3.3h-0.9v-7.6h0.9v1.2
			c0-0.1,0.1-0.3,0.2-0.4c0.1-0.1,0.4-0.5,0.9-0.8c0.2-0.1,0.5-0.2,1.1-0.2c0.1,0,0.3,0,0.6,0L676.2,223.3z"/>
		<path fill="#D6E7F7" d="M682.5,229.8c-0.3-0.3-0.3-0.6-0.3-1c-0.1,0.2-0.2,0.5-0.4,0.7c-0.3,0.4-1.1,0.9-2.3,0.9
			c-1,0-1.5-0.3-1.8-0.7c-0.2-0.2-0.6-0.7-0.6-1.4c0-0.2,0-0.7,0.4-1.2c0.6-0.7,1.5-0.9,2.4-1.2c0.5-0.1,1-0.3,1.4-0.4l0.9-0.2v-0.4
			c0-0.3,0-0.4-0.1-0.7c-0.2-0.5-0.6-1-1.7-1c-1,0-1.5,0.3-1.7,0.7c-0.2,0.4-0.3,0.8-0.3,1.2l-1-0.2c0-0.2,0.1-0.8,0.4-1.3
			c0.4-0.5,1.1-1.2,2.5-1.2c0.8,0,1.8,0.2,2.3,0.8c0.5,0.6,0.5,1.4,0.5,2.2v2.4c0,0.7,0,1.2,0.3,1.5c0.2,0.2,0.6,0.2,0.9,0.2v0.8
			C683.3,230.2,682.8,230.1,682.5,229.8z M682.2,226.1l-0.5,0.1c-1.5,0.4-2.8,0.7-3.2,1c-0.3,0.2-0.5,0.6-0.5,0.9
			c0,0.3,0.1,0.5,0.1,0.5c0.4,0.7,1.2,0.7,1.4,0.7c0.9,0,2.1-0.6,2.4-1.4c0.1-0.3,0.2-0.6,0.2-1.3V226.1z"/>
		<path fill="#D6E7F7" d="M694.6,230.2V226c0-1.3,0.1-2-0.5-2.5c-0.4-0.3-0.8-0.3-0.9-0.3c-0.8,0-1.4,0.5-1.8,1.2
			c-0.3,0.6-0.3,1.2-0.3,2.5v3.2h-0.9v-4.2c0-1,0-1.6-0.2-2c-0.3-0.5-0.7-0.7-1.2-0.7c-0.4,0-1.2,0.1-1.7,1
			c-0.4,0.7-0.4,1.4-0.4,2.8v3.1h-0.9v-7.6h0.9v1.6c0-0.1,0.1-0.4,0.2-0.6c0.4-0.8,1.2-1.1,2.1-1.1c1.2,0,1.8,0.7,1.9,1.2
			c0.1,0.2,0.1,0.4,0.2,0.8c0.1-0.4,0.2-0.6,0.3-0.8c0.2-0.4,0.8-1.1,2.1-1.1c0.5,0,1,0.1,1.4,0.4c0.9,0.6,0.9,1.7,0.9,3.6v3.8
			H694.6z"/>
		<path fill="#D6E7F7" d="M702.9,229c-0.3,0.6-1.1,1.3-2.6,1.3c-0.5,0-1.7-0.1-2.6-1.2c-0.2-0.3-0.4-0.6-0.5-0.9l0.9-0.3
			c0.1,0.5,0.7,1.5,2.1,1.5c0.7,0,1.2-0.2,1.4-0.4c0.3-0.3,0.5-0.7,0.5-1.1c0-0.2-0.1-0.5-0.2-0.7c-0.2-0.3-0.6-0.5-1.4-0.7
			c-0.8-0.2-1.9-0.3-2.5-1c-0.3-0.3-0.4-0.8-0.4-1.2c0-0.2,0.1-1,0.7-1.5c0.5-0.5,1.4-0.6,2.1-0.6c0.2,0,1.2,0,1.9,0.5
			c0.6,0.4,0.8,1,0.8,1.2l-0.9,0.2c-0.2-0.9-1.1-1.1-1.9-1.1c-0.6,0-1,0.1-1.2,0.3c-0.1,0-0.2,0.2-0.3,0.3c-0.2,0.3-0.2,0.5-0.2,0.7
			c0,0.9,0.9,1.1,1.6,1.2l0.8,0.2c0.7,0.1,1.3,0.4,1.7,1c0.4,0.5,0.4,0.9,0.4,1.2C703.2,228.2,703.1,228.6,702.9,229z"/>
		<path fill="#D6E7F7" d="M712.7,232.8c-2.5-1.9-3.9-4.7-3.9-7.8c0-1,0.2-2.2,0.5-3.2c0.4-1.2,1-2.2,1.8-3.1
			c0.5-0.5,0.7-0.7,1.5-1.3l0.4,0.5c-0.8,0.7-1,0.9-1.5,1.5c-1,1.4-1.6,3.3-1.6,5.5c0,1.7,0.4,3.4,1.1,4.8c0.3,0.6,0.6,1.1,1,1.5
			c0.3,0.4,0.5,0.6,1,0.9L712.7,232.8z"/>
		<path fill="#D6E7F7" d="M716.3,230.3c-0.1,0-0.2,0-0.3,0c-0.2,0-0.8-0.1-1-0.7c-0.1-0.3-0.1-1.2-0.1-1.5v-4.8h-1.6v-0.8h1.6v-3.2
			h0.9v3.2h1.7v0.8h-1.7v4.2c0,0.3,0,0.5,0,0.8c0,0.4,0,1.1,0.6,1.1c0.4,0,0.8-0.3,1.1-0.5v1C717.3,230.1,716.9,230.3,716.3,230.3z"
			/>
		<path fill="#D6E7F7" d="M726,230.2h-0.8l-1.9-6.3l-1.9,6.3h-0.8l-2.6-7.6h0.9l2,6.2l1.9-6.2h0.8l1.9,6.2l1.9-6.2h0.9L726,230.2z"
			/>
		<path fill="#D6E7F7" d="M736.2,227.8c-0.5,1.5-1.7,2.5-3.3,2.5c-0.5,0-1.7-0.1-2.6-1.3c-0.3-0.5-0.8-1.3-0.8-2.6
			c0-0.3,0-1.1,0.4-1.9c0.8-1.9,2.4-2.2,3.1-2.2c0.9,0,1.6,0.3,2.2,0.8c0.8,0.8,1.2,2,1.2,3.1C736.4,226.6,736.4,227.2,736.2,227.8z
			 M732.9,223.1c-0.2,0-0.8,0-1.4,0.4c-0.6,0.4-1.1,1.3-1.1,2.9c0,0.3,0,1.8,1,2.6c0.2,0.2,0.7,0.4,1.4,0.4c1.1,0,2.5-0.7,2.5-3.1
			C735.4,223.9,734.2,223.1,732.9,223.1z"/>
		<path fill="#D6E7F7" d="M503.7,248.2c-0.3,0.6-1.1,1.3-2.6,1.3c-0.5,0-1.7-0.1-2.6-1.2c-0.2-0.3-0.4-0.6-0.5-0.9l0.9-0.3
			c0.1,0.5,0.7,1.5,2.1,1.5c0.7,0,1.2-0.2,1.4-0.4c0.3-0.3,0.5-0.7,0.5-1.1c0-0.2-0.1-0.5-0.2-0.7c-0.2-0.3-0.6-0.5-1.4-0.7
			c-0.8-0.2-1.9-0.3-2.5-1c-0.3-0.3-0.4-0.8-0.4-1.2c0-0.2,0.1-1,0.7-1.5c0.5-0.5,1.4-0.6,2.1-0.6c0.2,0,1.2,0,1.9,0.5
			c0.6,0.4,0.8,1,0.8,1.2l-0.9,0.2c-0.2-0.9-1.1-1.1-1.9-1.1c-0.6,0-1,0.1-1.2,0.3c-0.1,0-0.2,0.2-0.3,0.3c-0.2,0.3-0.2,0.5-0.2,0.7
			c0,0.9,0.9,1.1,1.6,1.2l0.8,0.2c0.7,0.1,1.3,0.4,1.7,1c0.4,0.5,0.4,0.9,0.4,1.2C503.9,247.4,503.9,247.8,503.7,248.2z"/>
		<path fill="#D6E7F7" d="M508,249.5c-0.1,0-0.2,0-0.3,0c-0.2,0-0.8-0.1-1-0.7c-0.1-0.3-0.1-1.2-0.1-1.5v-4.8H505v-0.8h1.6v-3.2h0.9
			v3.2h1.7v0.8h-1.7v4.2c0,0.3,0,0.5,0,0.8c0,0.4,0,1.1,0.6,1.1c0.4,0,0.8-0.3,1.1-0.5v1C509,249.3,508.6,249.5,508,249.5z"/>
		<path fill="#D6E7F7" d="M515.6,249c-0.3-0.3-0.3-0.6-0.3-1c-0.1,0.2-0.2,0.5-0.4,0.7c-0.3,0.4-1.1,0.9-2.3,0.9
			c-1,0-1.5-0.3-1.8-0.7c-0.2-0.2-0.6-0.7-0.6-1.4c0-0.2,0-0.7,0.4-1.2c0.6-0.7,1.5-0.9,2.4-1.2c0.5-0.1,1-0.3,1.4-0.4l0.9-0.2v-0.4
			c0-0.3,0-0.4-0.1-0.7c-0.2-0.5-0.6-1-1.7-1c-1,0-1.5,0.3-1.7,0.7c-0.2,0.4-0.3,0.8-0.3,1.2l-1-0.2c0-0.2,0.1-0.8,0.4-1.3
			c0.4-0.5,1.1-1.2,2.5-1.2c0.8,0,1.8,0.2,2.3,0.8c0.5,0.6,0.5,1.4,0.5,2.2v2.4c0,0.7,0,1.2,0.3,1.5c0.2,0.2,0.6,0.2,0.9,0.2v0.8
			C516.4,249.4,515.9,249.3,515.6,249z M515.3,245.3l-0.5,0.1c-1.5,0.4-2.8,0.7-3.2,1c-0.3,0.2-0.5,0.6-0.5,0.9
			c0,0.3,0.1,0.5,0.1,0.5c0.4,0.7,1.2,0.7,1.4,0.7c0.9,0,2.1-0.6,2.4-1.4c0.1-0.3,0.2-0.6,0.2-1.3V245.3z"/>
		<path fill="#D6E7F7" d="M523.7,249.4v-4c0-1,0-1.6-0.2-2.1c-0.2-0.4-0.4-0.6-0.6-0.7c-0.4-0.3-0.9-0.2-1-0.2c-0.2,0-0.6,0-1,0.2
			c-0.6,0.3-1,0.9-1.2,1.5c-0.1,0.4-0.1,1-0.1,1.9v3.3h-0.9v-7.6h0.9v1.4c0.1-0.2,0.2-0.5,0.5-0.8c0.3-0.3,0.8-0.7,1.9-0.7
			c1.4,0,2.1,0.8,2.3,1.3c0.3,0.6,0.3,1.2,0.3,2.5v4H523.7z"/>
		<path fill="#D6E7F7" d="M532,249.4V248c-0.4,1-1.3,1.6-2.4,1.6c-0.3,0-0.9,0-1.6-0.5c-1.5-1-1.6-3.1-1.6-3.5
			c0-0.5,0.1-2.5,1.6-3.5c0.3-0.2,0.8-0.5,1.6-0.5c0.6,0,1.2,0.2,1.7,0.6c0.4,0.3,0.4,0.6,0.5,0.8v-4.9h0.9v11.3H532z M531.1,242.8
			c-0.2-0.1-0.6-0.4-1.3-0.4c-0.2,0-0.6,0-1,0.2c-0.7,0.4-1.3,1.2-1.3,2.9c0,0.3,0,3.1,2.3,3.1c0.6,0,1.1-0.2,1.5-0.6
			c0.6-0.7,0.7-1.6,0.7-2.5C532,244.1,531.8,243.3,531.1,242.8z"/>
		<path fill="#D6E7F7" d="M540.3,249c-0.3-0.3-0.3-0.6-0.3-1c-0.1,0.2-0.2,0.5-0.4,0.7c-0.3,0.4-1.1,0.9-2.3,0.9
			c-1,0-1.5-0.3-1.8-0.7c-0.2-0.2-0.6-0.7-0.6-1.4c0-0.2,0-0.7,0.4-1.2c0.6-0.7,1.5-0.9,2.4-1.2c0.5-0.1,1-0.3,1.4-0.4l0.9-0.2v-0.4
			c0-0.3,0-0.4-0.1-0.7c-0.2-0.5-0.6-1-1.7-1c-1,0-1.5,0.3-1.7,0.7c-0.2,0.4-0.3,0.8-0.3,1.2l-1-0.2c0-0.2,0.1-0.8,0.4-1.3
			c0.4-0.5,1.1-1.2,2.5-1.2c0.8,0,1.8,0.2,2.3,0.8c0.5,0.6,0.5,1.4,0.5,2.2v2.4c0,0.7,0,1.2,0.3,1.5c0.2,0.2,0.6,0.2,0.9,0.2v0.8
			C541.1,249.4,540.6,249.3,540.3,249z M540,245.3l-0.5,0.1c-1.5,0.4-2.8,0.7-3.2,1c-0.3,0.2-0.5,0.6-0.5,0.9c0,0.3,0.1,0.5,0.1,0.5
			c0.4,0.7,1.2,0.7,1.4,0.7c0.9,0,2.1-0.6,2.4-1.4c0.1-0.3,0.2-0.6,0.2-1.3V245.3z"/>
		<path fill="#D6E7F7" d="M547,242.5c-0.2,0-0.4,0-0.6,0c-1.2,0-1.9,0.7-2.1,1.8c-0.1,0.4-0.1,0.9-0.1,1.8v3.3h-0.9v-7.6h0.9v1.2
			c0-0.1,0.1-0.3,0.2-0.4c0.1-0.1,0.4-0.5,0.9-0.8c0.2-0.1,0.5-0.2,1.1-0.2c0.1,0,0.3,0,0.6,0L547,242.5z"/>
		<path fill="#D6E7F7" d="M553.4,249.4V248c-0.4,1-1.3,1.6-2.4,1.6c-0.3,0-0.9,0-1.6-0.5c-1.5-1-1.6-3.1-1.6-3.5
			c0-0.5,0.1-2.5,1.6-3.5c0.3-0.2,0.8-0.5,1.6-0.5c0.6,0,1.2,0.2,1.7,0.6c0.4,0.3,0.4,0.6,0.5,0.8v-4.9h0.9v11.3H553.4z
			 M552.5,242.8c-0.2-0.1-0.6-0.4-1.3-0.4c-0.2,0-0.6,0-1,0.2c-0.7,0.4-1.3,1.2-1.3,2.9c0,0.3,0,3.1,2.3,3.1c0.6,0,1.1-0.2,1.5-0.6
			c0.6-0.7,0.7-1.6,0.7-2.5C553.4,244.1,553.1,243.3,552.5,242.8z"/>
		<path fill="#D6E7F7" d="M565.8,249.4V248c-0.4,1-1.3,1.6-2.4,1.6c-0.3,0-0.9,0-1.6-0.5c-1.5-1-1.6-3.1-1.6-3.5
			c0-0.5,0.1-2.5,1.6-3.5c0.3-0.2,0.8-0.5,1.6-0.5c0.6,0,1.2,0.2,1.7,0.6c0.4,0.3,0.4,0.6,0.5,0.8v-4.9h0.9v11.3H565.8z
			 M564.9,242.8c-0.2-0.1-0.6-0.4-1.3-0.4c-0.2,0-0.6,0-1,0.2c-0.7,0.4-1.3,1.2-1.3,2.9c0,0.3,0,3.1,2.3,3.1c0.6,0,1.1-0.2,1.5-0.6
			c0.6-0.7,0.7-1.6,0.7-2.5C565.9,244.1,565.6,243.3,564.9,242.8z"/>
		<path fill="#D6E7F7" d="M572.8,242.5c-0.2,0-0.4,0-0.6,0c-1.2,0-1.9,0.7-2.1,1.8c-0.1,0.4-0.1,0.9-0.1,1.8v3.3h-0.9v-7.6h0.9v1.2
			c0-0.1,0.1-0.3,0.2-0.4c0.1-0.1,0.4-0.5,0.9-0.8c0.2-0.1,0.5-0.2,1.1-0.2c0.1,0,0.3,0,0.6,0L572.8,242.5z"/>
		<path fill="#D6E7F7" d="M574.2,239.9v-1.5h0.9v1.5H574.2z M574.2,249.4v-7.6h0.9v7.6H574.2z"/>
		<path fill="#D6E7F7" d="M582.5,249.4v-4c0-1,0-1.6-0.2-2.1c-0.2-0.4-0.4-0.6-0.6-0.7c-0.4-0.3-0.9-0.2-1-0.2c-0.2,0-0.6,0-1,0.2
			c-0.6,0.3-1,0.9-1.2,1.5c-0.1,0.4-0.1,1-0.1,1.9v3.3h-0.9v-7.6h0.9v1.4c0.1-0.2,0.2-0.5,0.5-0.8c0.3-0.3,0.8-0.7,1.9-0.7
			c1.4,0,2.1,0.8,2.3,1.3c0.3,0.6,0.3,1.2,0.3,2.5v4H582.5z"/>
		<path fill="#D6E7F7" d="M591.3,249.4l-2.9-4l-1.6,1.6v2.4h-0.9v-11.3h0.9v7.7l4.3-4h1.2l-3.2,3l3.4,4.6H591.3z"/>
		<path fill="#D6E7F7" d="M598.8,248.2c-0.3,0.6-1.1,1.3-2.6,1.3c-0.5,0-1.7-0.1-2.6-1.2c-0.2-0.3-0.4-0.6-0.5-0.9l0.9-0.3
			c0.1,0.5,0.7,1.5,2.1,1.5c0.7,0,1.2-0.2,1.4-0.4c0.3-0.3,0.5-0.7,0.5-1.1c0-0.2-0.1-0.5-0.2-0.7c-0.2-0.3-0.6-0.5-1.4-0.7
			c-0.8-0.2-1.9-0.3-2.5-1c-0.3-0.3-0.4-0.8-0.4-1.2c0-0.2,0.1-1,0.7-1.5c0.5-0.5,1.4-0.6,2.1-0.6c0.2,0,1.2,0,1.9,0.5
			c0.6,0.4,0.8,1,0.8,1.2l-0.9,0.2c-0.2-0.9-1.1-1.1-1.9-1.1c-0.6,0-1,0.1-1.2,0.3c-0.1,0-0.2,0.2-0.3,0.3c-0.2,0.3-0.2,0.5-0.2,0.7
			c0,0.9,0.9,1.1,1.6,1.2l0.8,0.2c0.7,0.1,1.3,0.4,1.7,1c0.4,0.5,0.4,0.9,0.4,1.2C599.1,247.4,599.1,247.8,598.8,248.2z"/>
		<path fill="#D6E7F7" d="M603.8,247.6c-0.4,1.2-1,2.2-1.8,3.1c-0.5,0.5-0.7,0.7-1.5,1.2l-0.4-0.5c0.8-0.7,1-0.9,1.5-1.5
			c1-1.4,1.6-3.4,1.6-5.5c0-1.7-0.4-3.4-1.1-4.8c-0.3-0.5-0.6-1-1-1.5c-0.3-0.4-0.5-0.6-1-0.9l0.4-0.6c2.5,1.9,3.9,4.7,3.9,7.8
			C604.3,245.4,604.1,246.6,603.8,247.6z"/>
	</g>
	<g>
		<rect x="23.1" y="72.5" fill="none" width="279.2" height="113"/>
		<path fill="#D6E7F7" d="M32.3,77.7c-0.3,0.4-0.7,0.6-0.8,0.7c-0.8,0.4-1.7,0.4-3.5,0.4h-2.5v5.1h-1V72.5h3.9c0.7,0,1.3,0,2,0
			c0.8,0.1,1.4,0.2,1.9,0.8c0.3,0.4,0.7,1.1,0.7,2.2C33,76.3,32.8,77.1,32.3,77.7z M31.6,74.3c-0.5-0.9-1.3-0.9-2.2-0.9
			c-0.4,0-0.8,0-1.2,0h-2.7v4.4h2.4c0.5,0,1,0,1.5,0c0.8,0,1.6,0,2.1-0.7c0.2-0.3,0.5-0.7,0.5-1.5C31.9,75.4,31.9,74.9,31.6,74.3z"
			/>
		<path fill="#D6E7F7" d="M39.7,82.8C39.3,83.3,38.5,84,37,84c-0.3,0-1,0-1.8-0.4c-1.8-0.9-1.9-3.2-1.9-3.7c0-0.3,0-0.9,0.2-1.6
			C34,77,35.3,76,36.8,76c0.5,0,1.6,0.1,2.4,1.1c0.6,0.7,1,1.8,1,2.7V80h-5.9c0,0.6,0.1,1,0.1,1.3c0.2,0.6,0.7,1.9,2.4,1.9
			c0.7,0,1.7-0.2,2.4-1.6l0.9,0.3C40.2,82,40,82.4,39.7,82.8z M36.8,76.9c-1.3,0-2,0.9-2.2,1.3c-0.1,0.3-0.2,0.7-0.3,1.1h4.8
			C39,77.3,37.6,76.9,36.8,76.9z"/>
		<path fill="#D6E7F7" d="M45.8,77c-0.2,0-0.4,0-0.6,0c-1.2,0-1.9,0.7-2.1,1.8c-0.1,0.4-0.1,0.9-0.1,1.8v3.3h-0.9v-7.6h0.9v1.2
			c0-0.1,0.1-0.3,0.2-0.4c0.1-0.1,0.4-0.5,0.9-0.8c0.2-0.1,0.5-0.2,1.1-0.2c0.1,0,0.3,0,0.6,0L45.8,77z"/>
		<path fill="#D6E7F7" d="M52.4,83.3C52,83.6,51.3,84,50.2,84c-0.4,0-1.5,0-2.3-0.9c-1.1-1.1-1.2-2.7-1.2-3.1c0-0.6,0.1-1.1,0.2-1.6
			c0.5-1.6,1.8-2.5,3.4-2.5c1.2,0,1.9,0.5,2.2,0.8c0.4,0.4,0.6,0.8,0.7,1.1l-0.9,0.2c-0.3-0.8-1.2-1.3-2.1-1.3c-0.3,0-1,0-1.6,0.6
			c-1,0.8-1,2.3-1,2.6c0,0.2,0,1.5,0.7,2.4c0.1,0.1,0.3,0.4,0.8,0.6c0.2,0.1,0.5,0.2,1,0.2c1,0,1.6-0.4,2.1-1.3l1,0.2
			C53,82.6,52.7,83,52.4,83.3z"/>
		<path fill="#D6E7F7" d="M60.7,82.8C60.3,83.3,59.5,84,58,84c-0.3,0-1,0-1.8-0.4c-1.8-0.9-1.9-3.2-1.9-3.7c0-0.3,0-0.9,0.2-1.6
			C55,77,56.3,76,57.8,76c0.5,0,1.6,0.1,2.4,1.1c0.6,0.7,1,1.8,1,2.7V80h-5.9c0,0.6,0.1,1,0.1,1.3c0.2,0.6,0.7,1.9,2.4,1.9
			c0.7,0,1.7-0.2,2.4-1.6l0.9,0.3C61.2,82,61,82.4,60.7,82.8z M57.8,76.9c-1.3,0-2,0.9-2.2,1.3c-0.1,0.3-0.2,0.7-0.3,1.1h4.8
			C60,77.3,58.7,76.9,57.8,76.9z"/>
		<path fill="#D6E7F7" d="M68.1,83.8v-4c0-1,0-1.6-0.2-2.1c-0.2-0.4-0.4-0.6-0.6-0.7c-0.4-0.3-0.9-0.2-1-0.2c-0.2,0-0.6,0-1,0.2
			c-0.6,0.3-1,0.9-1.2,1.5c-0.1,0.4-0.1,1-0.1,1.9v3.3h-0.9v-7.6h0.9v1.4c0.1-0.2,0.2-0.5,0.5-0.8c0.3-0.3,0.8-0.7,1.9-0.7
			c1.4,0,2.1,0.8,2.3,1.3c0.3,0.6,0.3,1.2,0.3,2.5v4H68.1z"/>
		<path fill="#D6E7F7" d="M73.5,84c-0.1,0-0.2,0-0.3,0c-0.2,0-0.8-0.1-1-0.7c-0.1-0.3-0.1-1.2-0.1-1.5V77h-1.6v-0.8h1.6V73H73v3.2
			h1.7V77H73v4.2c0,0.3,0,0.5,0,0.8c0,0.4,0,1.1,0.6,1.1c0.4,0,0.8-0.3,1.1-0.5v1C74.5,83.8,74.1,84,73.5,84z"/>
		<path fill="#D6E7F7" d="M81.1,83.4c-0.3-0.3-0.3-0.6-0.3-1c-0.1,0.2-0.2,0.5-0.4,0.7c-0.3,0.4-1.1,0.9-2.3,0.9
			c-1,0-1.5-0.3-1.8-0.7c-0.2-0.2-0.6-0.7-0.6-1.4c0-0.2,0-0.7,0.4-1.2c0.6-0.7,1.5-0.9,2.4-1.2c0.5-0.1,1-0.3,1.4-0.4l0.9-0.2v-0.4
			c0-0.3,0-0.4-0.1-0.7c-0.2-0.5-0.6-1-1.7-1c-1,0-1.5,0.3-1.7,0.7c-0.2,0.4-0.3,0.8-0.3,1.2l-1-0.2c0-0.2,0.1-0.8,0.4-1.3
			c0.4-0.5,1.1-1.2,2.5-1.2c0.8,0,1.8,0.2,2.3,0.8c0.5,0.6,0.5,1.4,0.5,2.2v2.4c0,0.7,0,1.2,0.3,1.5c0.2,0.2,0.6,0.2,0.9,0.2v0.8
			C81.9,83.8,81.4,83.8,81.1,83.4z M80.8,79.8l-0.5,0.1c-1.5,0.4-2.8,0.7-3.2,1c-0.3,0.2-0.5,0.6-0.5,0.9c0,0.3,0.1,0.5,0.1,0.5
			c0.4,0.7,1.2,0.7,1.4,0.7c0.9,0,2.1-0.6,2.4-1.4c0.1-0.3,0.2-0.6,0.2-1.3V79.8z"/>
		<path fill="#D6E7F7" d="M90.4,84.9c0,0.3,0,1.3-0.8,2c-0.4,0.4-1.2,0.9-2.6,0.9c-0.4,0-2.2,0-3-1.5c-0.3-0.5-0.3-1.1-0.3-1.3
			l1-0.2c0.1,0.8,0.4,2.1,2.4,2.1c0.3,0,1.6,0,2.1-1c0.3-0.5,0.2-1.1,0.3-2.3c0-0.3,0-0.6,0-0.8v-0.4c0,0-0.1,0.3-0.2,0.4
			c-0.3,0.5-1,1.2-2.4,1.2c-0.8,0-1.3-0.2-1.6-0.4c-1.7-1-1.8-3.2-1.8-3.6c0-1.3,0.4-2.8,1.6-3.5c0.3-0.2,0.9-0.4,1.7-0.4
			c0.3,0,1.1,0,1.8,0.6c0.3,0.2,0.5,0.5,0.5,0.6c0.1,0.2,0.1,0.3,0.1,0.3v-1.4h0.9V83C90.4,83.6,90.4,84.3,90.4,84.9z M88.9,77.7
			c-0.2-0.3-0.8-0.8-1.8-0.8c-0.1,0-0.5,0-0.9,0.1c-1.6,0.6-1.6,2.6-1.6,3c0,1.1,0.3,1.9,0.6,2.3c0.2,0.3,0.6,0.6,0.9,0.8
			c0.4,0.2,0.8,0.2,0.9,0.2c0.2,0,0.9,0,1.5-0.4c0.8-0.6,0.9-1.7,1-2.6C89.5,79.9,89.5,78.5,88.9,77.7z"/>
		<path fill="#D6E7F7" d="M98.7,82.8C98.3,83.3,97.5,84,96,84c-0.3,0-1,0-1.8-0.4c-1.8-0.9-1.9-3.2-1.9-3.7c0-0.3,0-0.9,0.2-1.6
			c0.5-1.4,1.7-2.4,3.3-2.4c0.5,0,1.6,0.1,2.4,1.1c0.6,0.7,1,1.8,1,2.7V80h-5.9c0,0.6,0.1,1,0.1,1.3c0.2,0.6,0.7,1.9,2.4,1.9
			c0.7,0,1.7-0.2,2.4-1.6l0.9,0.3C99.2,82,99,82.4,98.7,82.8z M95.8,76.9c-1.3,0-2,0.9-2.2,1.3c-0.1,0.3-0.2,0.7-0.3,1.1h4.8
			C98,77.3,96.7,76.9,95.8,76.9z"/>
		<path fill="#D6E7F7" d="M112.3,83.8h-0.8l-1.9-6.3l-1.9,6.3H107l-2.6-7.6h0.9l2,6.2l1.9-6.2h0.8l1.9,6.2l1.9-6.2h0.9L112.3,83.8z"
			/>
		<path fill="#D6E7F7" d="M116.3,74.4V73h0.9v1.5H116.3z M116.3,83.8v-7.6h0.9v7.6H116.3z"/>
		<path fill="#D6E7F7" d="M121.6,84c-0.1,0-0.2,0-0.3,0c-0.2,0-0.8-0.1-1-0.7c-0.1-0.3-0.1-1.2-0.1-1.5V77h-1.6v-0.8h1.6V73h0.9v3.2
			h1.7V77h-1.7v4.2c0,0.3,0,0.5,0,0.8c0,0.4,0,1.1,0.6,1.1c0.4,0,0.8-0.3,1.1-0.5v1C122.6,83.8,122.3,84,121.6,84z"/>
		<path fill="#D6E7F7" d="M129.3,83.8v-4.2c0-0.2,0-0.5,0-0.7c0-0.8-0.1-1.5-0.9-1.9c-0.3-0.1-0.6-0.2-0.9-0.2
			c-1.2,0-1.7,0.7-1.9,1.1c-0.3,0.6-0.3,1.2-0.3,2.6v3.3h-1V72.5h1v4.9c0,0,0.1-0.3,0.3-0.4c0.3-0.4,0.9-1,2.1-1
			c0.3,0,1.4,0.1,2.1,0.9c0.4,0.6,0.5,1.2,0.5,2.5v4.3H129.3z"/>
		<path fill="#D6E7F7" d="M141.8,83.8v-1.4c-0.1,0.3-0.2,0.4-0.3,0.6c-0.7,1-1.7,1-2.1,1c-0.1,0-0.5,0-0.9-0.1
			c-0.7-0.2-1.2-0.8-1.5-1.5c-0.2-0.5-0.2-1.2-0.2-2.4v-3.7h1v4c0,0.9,0,1.4,0.1,1.9c0.1,0.5,0.5,1.1,1.6,1.1c0.4,0,1.2,0,1.8-0.8
			c0.6-0.8,0.5-1.8,0.5-2.7v-3.3h0.9v7.6H141.8z"/>
		<path fill="#D6E7F7" d="M150.1,82.7c-0.3,0.6-1.1,1.3-2.6,1.3c-0.5,0-1.7-0.1-2.6-1.2c-0.2-0.3-0.4-0.6-0.5-0.9l0.9-0.3
			c0.1,0.5,0.7,1.5,2.1,1.5c0.7,0,1.2-0.2,1.4-0.4c0.3-0.3,0.5-0.7,0.5-1.1c0-0.2-0.1-0.5-0.2-0.7c-0.2-0.3-0.6-0.5-1.4-0.7
			c-0.8-0.2-1.9-0.3-2.5-1c-0.3-0.3-0.4-0.8-0.4-1.2c0-0.2,0.1-1,0.7-1.5c0.5-0.5,1.4-0.6,2.1-0.6c0.2,0,1.2,0,1.9,0.5
			c0.6,0.4,0.8,1,0.8,1.2l-0.9,0.2c-0.2-0.9-1.1-1.1-1.9-1.1c-0.6,0-1,0.1-1.2,0.3c-0.1,0-0.2,0.2-0.3,0.3c-0.2,0.3-0.2,0.5-0.2,0.7
			c0,0.9,0.9,1.1,1.6,1.2l0.8,0.2c0.7,0.1,1.3,0.4,1.7,1c0.4,0.5,0.4,0.9,0.4,1.2C150.4,81.8,150.3,82.3,150.1,82.7z"/>
		<path fill="#D6E7F7" d="M157.4,83.8v-1.4c-0.1,0.3-0.2,0.4-0.3,0.6c-0.7,1-1.7,1-2.1,1c-0.1,0-0.5,0-0.9-0.1
			c-0.7-0.2-1.2-0.8-1.5-1.5c-0.2-0.5-0.2-1.2-0.2-2.4v-3.7h1v4c0,0.9,0,1.4,0.1,1.9c0.1,0.5,0.5,1.1,1.6,1.1c0.4,0,1.2,0,1.8-0.8
			c0.6-0.8,0.5-1.8,0.5-2.7v-3.3h0.9v7.6H157.4z"/>
		<path fill="#D6E7F7" d="M165.7,83.4c-0.3-0.3-0.3-0.6-0.3-1c-0.1,0.2-0.2,0.5-0.4,0.7c-0.3,0.4-1.1,0.9-2.3,0.9
			c-1,0-1.5-0.3-1.8-0.7c-0.2-0.2-0.6-0.7-0.6-1.4c0-0.2,0-0.7,0.4-1.2c0.6-0.7,1.5-0.9,2.4-1.2c0.5-0.1,1-0.3,1.4-0.4l0.9-0.2v-0.4
			c0-0.3,0-0.4-0.1-0.7c-0.2-0.5-0.6-1-1.7-1c-1,0-1.5,0.3-1.7,0.7c-0.2,0.4-0.3,0.8-0.3,1.2l-1-0.2c0-0.2,0.1-0.8,0.4-1.3
			c0.4-0.5,1.1-1.2,2.5-1.2c0.8,0,1.8,0.2,2.3,0.8c0.5,0.6,0.5,1.4,0.5,2.2v2.4c0,0.7,0,1.2,0.3,1.5c0.2,0.2,0.6,0.2,0.9,0.2v0.8
			C166.5,83.8,166,83.8,165.7,83.4z M165.4,79.8l-0.5,0.1c-1.5,0.4-2.8,0.7-3.2,1c-0.3,0.2-0.5,0.6-0.5,0.9c0,0.3,0.1,0.5,0.1,0.5
			c0.4,0.7,1.2,0.7,1.4,0.7c0.9,0,2.1-0.6,2.4-1.4c0.1-0.3,0.2-0.6,0.2-1.3V79.8z"/>
		<path fill="#D6E7F7" d="M168.7,83.8V72.5h1v11.3H168.7z"/>
		<path fill="#D6E7F7" d="M181.2,83.8v-1.4c-0.4,1-1.3,1.6-2.4,1.6c-0.3,0-0.9,0-1.6-0.5c-1.5-1-1.6-3.1-1.6-3.5
			c0-0.5,0.1-2.5,1.6-3.5c0.3-0.2,0.8-0.5,1.6-0.5c0.6,0,1.2,0.2,1.7,0.6c0.4,0.3,0.4,0.6,0.5,0.8v-4.9h0.9v11.3H181.2z M180.3,77.3
			c-0.2-0.1-0.6-0.4-1.3-0.4c-0.2,0-0.6,0-1,0.2c-0.7,0.4-1.3,1.2-1.3,2.9c0,0.3,0,3.1,2.3,3.1c0.6,0,1.1-0.2,1.5-0.6
			c0.6-0.7,0.7-1.6,0.7-2.5C181.3,78.5,181,77.8,180.3,77.3z"/>
		<path fill="#D6E7F7" d="M189.5,83.4c-0.3-0.3-0.3-0.6-0.3-1c-0.1,0.2-0.2,0.5-0.4,0.7c-0.3,0.4-1.1,0.9-2.3,0.9
			c-1,0-1.5-0.3-1.8-0.7c-0.2-0.2-0.6-0.7-0.6-1.4c0-0.2,0-0.7,0.4-1.2c0.6-0.7,1.5-0.9,2.4-1.2c0.5-0.1,1-0.3,1.4-0.4l0.9-0.2v-0.4
			c0-0.3,0-0.4-0.1-0.7c-0.2-0.5-0.6-1-1.7-1c-1,0-1.5,0.3-1.7,0.7c-0.2,0.4-0.3,0.8-0.3,1.2l-1-0.2c0-0.2,0.1-0.8,0.4-1.3
			c0.4-0.5,1.1-1.2,2.5-1.2c0.8,0,1.8,0.2,2.3,0.8c0.5,0.6,0.5,1.4,0.5,2.2v2.4c0,0.7,0,1.2,0.3,1.5c0.2,0.2,0.6,0.2,0.9,0.2v0.8
			C190.3,83.8,189.8,83.8,189.5,83.4z M189.2,79.8l-0.5,0.1c-1.5,0.4-2.8,0.7-3.2,1c-0.3,0.2-0.5,0.6-0.5,0.9c0,0.3,0.1,0.5,0.1,0.5
			c0.4,0.7,1.2,0.7,1.4,0.7c0.9,0,2.1-0.6,2.4-1.4c0.1-0.3,0.2-0.6,0.2-1.3V79.8z"/>
		<path fill="#D6E7F7" d="M192.6,74.4V73h0.9v1.5H192.6z M192.6,83.8v-7.6h0.9v7.6H192.6z"/>
		<path fill="#D6E7F7" d="M195.9,83.8V72.5h1v11.3H195.9z"/>
		<path fill="#D6E7F7" d="M201.4,84.9c-0.7,1.8-1,2.8-2.2,2.8c-0.5,0-0.8-0.2-1-0.3v-1c0.4,0.3,0.7,0.4,1,0.4c0.5,0,0.7-0.4,1-1.2
			c0.1-0.2,0.2-0.5,0.3-0.7l0.4-1.1l-2.6-7.6h0.9l2.2,6.5l2.5-6.5h1L201.4,84.9z"/>
		<path fill="#D6E7F7" d="M215.6,83.3c-0.4,0.3-1.1,0.8-2.2,0.8c-0.4,0-1.5,0-2.3-0.9c-1.1-1.1-1.2-2.7-1.2-3.1
			c0-0.6,0.1-1.1,0.2-1.6c0.5-1.6,1.8-2.5,3.4-2.5c1.2,0,1.9,0.5,2.2,0.8c0.4,0.4,0.6,0.8,0.7,1.1l-0.9,0.2
			c-0.3-0.8-1.2-1.3-2.1-1.3c-0.3,0-1,0-1.6,0.6c-1,0.8-1,2.3-1,2.6c0,0.2,0,1.5,0.7,2.4c0.1,0.1,0.3,0.4,0.8,0.6
			c0.2,0.1,0.5,0.2,1,0.2c1,0,1.6-0.4,2.1-1.3l1,0.2C216.2,82.6,215.9,83,215.6,83.3z"/>
		<path fill="#D6E7F7" d="M223,83.4c-0.3-0.3-0.3-0.6-0.3-1c-0.1,0.2-0.2,0.5-0.4,0.7c-0.3,0.4-1.1,0.9-2.3,0.9
			c-1,0-1.5-0.3-1.8-0.7c-0.2-0.2-0.6-0.7-0.6-1.4c0-0.2,0-0.7,0.4-1.2c0.6-0.7,1.5-0.9,2.4-1.2c0.5-0.1,1-0.3,1.4-0.4l0.9-0.2v-0.4
			c0-0.3,0-0.4-0.1-0.7c-0.2-0.5-0.6-1-1.7-1c-1,0-1.5,0.3-1.7,0.7c-0.2,0.4-0.3,0.8-0.3,1.2l-1-0.2c0-0.2,0.1-0.8,0.4-1.3
			c0.4-0.5,1.1-1.2,2.5-1.2c0.8,0,1.8,0.2,2.3,0.8c0.5,0.6,0.5,1.4,0.5,2.2v2.4c0,0.7,0,1.2,0.3,1.5c0.2,0.2,0.6,0.2,0.9,0.2v0.8
			C223.8,83.8,223.3,83.8,223,83.4z M222.6,79.8l-0.5,0.1c-1.5,0.4-2.8,0.7-3.2,1c-0.3,0.2-0.5,0.6-0.5,0.9c0,0.3,0.1,0.5,0.1,0.5
			c0.4,0.7,1.2,0.7,1.4,0.7c0.9,0,2.1-0.6,2.4-1.4c0.1-0.3,0.2-0.6,0.2-1.3V79.8z"/>
		<path fill="#D6E7F7" d="M227.8,77v6.8h-0.9V77h-1.7v-0.8h1.7v-1.5c0-0.8,0-1,0.1-1.5c0.2-0.5,0.5-1,1.6-1c0.4,0,0.6,0,1,0.1v0.9
			c-0.2-0.1-0.5-0.2-0.9-0.2c-0.3,0-0.5,0.1-0.6,0.2c-0.3,0.3-0.3,0.6-0.3,1.3v1.5h1.7V77H227.8z"/>
		<path fill="#D6E7F7" d="M232.8,77v6.8h-0.9V77h-1.7v-0.8h1.7v-1.5c0-0.8,0-1,0.1-1.5c0.2-0.5,0.5-1,1.6-1c0.4,0,0.6,0,1,0.1v0.9
			c-0.2-0.1-0.5-0.2-0.9-0.2c-0.3,0-0.5,0.1-0.6,0.2c-0.3,0.3-0.3,0.6-0.3,1.3v1.5h1.7V77H232.8z"/>
		<path fill="#D6E7F7" d="M241.9,82.8c-0.4,0.5-1.2,1.2-2.7,1.2c-0.3,0-1,0-1.8-0.4c-1.8-0.9-1.9-3.2-1.9-3.7c0-0.3,0-0.9,0.2-1.6
			c0.5-1.4,1.7-2.4,3.3-2.4c0.5,0,1.6,0.1,2.4,1.1c0.6,0.7,1,1.8,1,2.7V80h-5.9c0,0.6,0.1,1,0.1,1.3c0.2,0.6,0.7,1.9,2.4,1.9
			c0.7,0,1.7-0.2,2.4-1.6l0.9,0.3C242.4,82,242.2,82.4,241.9,82.8z M239,76.9c-1.3,0-2,0.9-2.2,1.3c-0.1,0.3-0.2,0.7-0.3,1.1h4.8
			C241.2,77.3,239.8,76.9,239,76.9z"/>
		<path fill="#D6E7F7" d="M244.3,74.4V73h0.9v1.5H244.3z M244.3,83.8v-7.6h0.9v7.6H244.3z"/>
		<path fill="#D6E7F7" d="M252.7,83.8v-4c0-1,0-1.6-0.2-2.1c-0.2-0.4-0.4-0.6-0.6-0.7c-0.4-0.3-0.9-0.2-1-0.2c-0.2,0-0.6,0-1,0.2
			c-0.6,0.3-1,0.9-1.2,1.5c-0.1,0.4-0.1,1-0.1,1.9v3.3h-0.9v-7.6h0.9v1.4c0.1-0.2,0.2-0.5,0.5-0.8c0.3-0.3,0.8-0.7,1.9-0.7
			c1.4,0,2.1,0.8,2.3,1.3c0.3,0.6,0.3,1.2,0.3,2.5v4H252.7z"/>
		<path fill="#D6E7F7" d="M261.9,82.8c-0.4,0.5-1.2,1.2-2.7,1.2c-0.3,0-1,0-1.8-0.4c-1.8-0.9-1.9-3.2-1.9-3.7c0-0.3,0-0.9,0.2-1.6
			c0.5-1.4,1.7-2.4,3.3-2.4c0.5,0,1.6,0.1,2.4,1.1c0.6,0.7,1,1.8,1,2.7V80h-5.9c0,0.6,0.1,1,0.1,1.3c0.2,0.6,0.7,1.9,2.4,1.9
			c0.7,0,1.7-0.2,2.4-1.6l0.9,0.3C262.4,82,262.2,82.4,261.9,82.8z M259,76.9c-1.3,0-2,0.9-2.2,1.3c-0.1,0.3-0.2,0.7-0.3,1.1h4.8
			C261.2,77.3,259.8,76.9,259,76.9z"/>
		<path fill="#D6E7F7" d="M24.3,93.6v-1.5h0.9v1.5H24.3z M24.3,103v-7.6h0.9v7.6H24.3z"/>
		<path fill="#D6E7F7" d="M32.7,103v-4c0-1,0-1.6-0.2-2.1c-0.2-0.4-0.4-0.6-0.6-0.7c-0.4-0.3-0.9-0.2-1-0.2c-0.2,0-0.6,0-1,0.2
			c-0.6,0.3-1,0.9-1.2,1.5c-0.1,0.4-0.1,1-0.1,1.9v3.3h-0.9v-7.6h0.9v1.4c0.1-0.2,0.2-0.5,0.5-0.8c0.3-0.3,0.8-0.7,1.9-0.7
			c1.4,0,2.1,0.8,2.3,1.3c0.3,0.6,0.3,1.2,0.3,2.5v4H32.7z"/>
		<path fill="#D6E7F7" d="M38,103.2c-0.1,0-0.2,0-0.3,0c-0.2,0-0.8-0.1-1-0.7c-0.1-0.3-0.1-1.2-0.1-1.5v-4.8H35v-0.8h1.6v-3.2h0.9
			v3.2h1.7v0.8h-1.7v4.2c0,0.3,0,0.5,0,0.8c0,0.4,0,1.1,0.6,1.1c0.4,0,0.8-0.3,1.1-0.5v1C39,103,38.7,103.2,38,103.2z"/>
		<path fill="#D6E7F7" d="M45.6,102.6c-0.3-0.3-0.3-0.6-0.3-1c-0.1,0.2-0.2,0.5-0.4,0.7c-0.3,0.4-1.1,0.9-2.3,0.9
			c-1,0-1.5-0.3-1.8-0.7c-0.2-0.2-0.6-0.7-0.6-1.4c0-0.2,0-0.7,0.4-1.2c0.6-0.7,1.5-0.9,2.4-1.2c0.5-0.1,1-0.3,1.4-0.4l0.9-0.2v-0.4
			c0-0.3,0-0.4-0.1-0.7c-0.2-0.5-0.6-1-1.7-1c-1,0-1.5,0.3-1.7,0.7c-0.2,0.4-0.3,0.8-0.3,1.2l-1-0.2c0-0.2,0.1-0.8,0.4-1.3
			c0.4-0.5,1.1-1.2,2.5-1.2c0.8,0,1.8,0.2,2.3,0.8c0.5,0.6,0.5,1.4,0.5,2.2v2.4c0,0.7,0,1.2,0.3,1.5c0.2,0.2,0.6,0.2,0.9,0.2v0.8
			C46.5,103,46,103,45.6,102.6z M45.3,99l-0.5,0.1c-1.5,0.4-2.8,0.7-3.2,1c-0.3,0.2-0.5,0.6-0.5,0.9c0,0.3,0.1,0.5,0.1,0.5
			c0.4,0.7,1.2,0.7,1.4,0.7c0.9,0,2.1-0.6,2.4-1.4c0.1-0.3,0.2-0.6,0.2-1.3V99z"/>
		<path fill="#D6E7F7" d="M54.2,103l-2.9-4l-1.6,1.6v2.4h-0.9V91.7h0.9v7.7l4.3-4h1.2l-3.2,3l3.4,4.6H54.2z"/>
		<path fill="#D6E7F7" d="M62.6,102c-0.4,0.5-1.2,1.2-2.7,1.2c-0.3,0-1,0-1.8-0.4c-1.8-0.9-1.9-3.2-1.9-3.7c0-0.3,0-0.9,0.2-1.6
			c0.5-1.4,1.7-2.4,3.3-2.4c0.5,0,1.6,0.1,2.4,1.1c0.6,0.7,1,1.8,1,2.7v0.2h-5.9c0,0.6,0.1,1,0.1,1.3c0.2,0.6,0.7,1.9,2.4,1.9
			c0.7,0,1.7-0.2,2.4-1.6l0.9,0.3C63.1,101.2,62.9,101.6,62.6,102z M59.7,96.1c-1.3,0-2,0.9-2.2,1.3c-0.1,0.3-0.2,0.7-0.3,1.1h4.8
			C61.8,96.5,60.5,96.1,59.7,96.1z"/>
		<path fill="#D6E7F7" d="M75.4,104.1c0,0.3,0,1.3-0.8,2c-0.4,0.4-1.2,0.9-2.6,0.9c-0.4,0-2.2,0-3-1.5c-0.3-0.5-0.3-1.1-0.3-1.3
			l1-0.2c0.1,0.8,0.4,2.1,2.4,2.1c0.3,0,1.6,0,2.1-1c0.3-0.5,0.2-1.1,0.3-2.3c0-0.3,0-0.6,0-0.8v-0.4c0,0-0.1,0.3-0.2,0.4
			c-0.3,0.5-1,1.2-2.4,1.2c-0.8,0-1.3-0.2-1.6-0.4c-1.7-1-1.8-3.2-1.8-3.6c0-1.3,0.4-2.8,1.6-3.5c0.3-0.2,0.9-0.4,1.7-0.4
			c0.3,0,1.1,0,1.8,0.6c0.3,0.2,0.5,0.5,0.5,0.6c0.1,0.2,0.1,0.3,0.1,0.3v-1.4h0.9v6.8C75.4,102.8,75.4,103.5,75.4,104.1z
			 M73.9,96.9c-0.2-0.3-0.8-0.8-1.8-0.8c-0.1,0-0.5,0-0.9,0.1c-1.6,0.6-1.6,2.6-1.6,3c0,1.1,0.3,1.9,0.6,2.3
			c0.2,0.3,0.6,0.6,0.9,0.8c0.4,0.2,0.8,0.2,0.9,0.2c0.2,0,0.9,0,1.5-0.4c0.8-0.6,0.9-1.7,1-2.6C74.5,99.1,74.5,97.7,73.9,96.9z"/>
		<path fill="#D6E7F7" d="M81.5,96.2c-0.2,0-0.4,0-0.6,0c-1.2,0-1.9,0.7-2.1,1.8c-0.1,0.4-0.1,0.9-0.1,1.8v3.3h-0.9v-7.6h0.9v1.2
			c0-0.1,0.1-0.3,0.2-0.4c0.1-0.1,0.4-0.5,0.9-0.8c0.2-0.1,0.5-0.2,1.1-0.2c0.1,0,0.3,0,0.6,0L81.5,96.2z"/>
		<path fill="#D6E7F7" d="M88.7,102c-0.4,0.5-1.2,1.2-2.7,1.2c-0.3,0-1,0-1.8-0.4c-1.8-0.9-1.9-3.2-1.9-3.7c0-0.3,0-0.9,0.2-1.6
			c0.5-1.4,1.7-2.4,3.3-2.4c0.5,0,1.6,0.1,2.4,1.1c0.6,0.7,1,1.8,1,2.7v0.2h-5.9c0,0.6,0.1,1,0.1,1.3c0.2,0.6,0.7,1.9,2.4,1.9
			c0.7,0,1.7-0.2,2.4-1.6l0.9,0.3C89.2,101.2,89,101.6,88.7,102z M85.8,96.1c-1.3,0-2,0.9-2.2,1.3c-0.1,0.3-0.2,0.7-0.3,1.1h4.8
			C88,96.5,86.7,96.1,85.8,96.1z"/>
		<path fill="#D6E7F7" d="M96.1,102.6c-0.3-0.3-0.3-0.6-0.3-1c-0.1,0.2-0.2,0.5-0.4,0.7c-0.3,0.4-1.1,0.9-2.3,0.9
			c-1,0-1.5-0.3-1.8-0.7c-0.2-0.2-0.6-0.7-0.6-1.4c0-0.2,0-0.7,0.4-1.2c0.6-0.7,1.5-0.9,2.4-1.2c0.5-0.1,1-0.3,1.4-0.4l0.9-0.2v-0.4
			c0-0.3,0-0.4-0.1-0.7c-0.2-0.5-0.6-1-1.7-1c-1,0-1.5,0.3-1.7,0.7c-0.2,0.4-0.3,0.8-0.3,1.2l-1-0.2c0-0.2,0.1-0.8,0.4-1.3
			c0.4-0.5,1.1-1.2,2.5-1.2c0.8,0,1.8,0.2,2.3,0.8c0.5,0.6,0.5,1.4,0.5,2.2v2.4c0,0.7,0,1.2,0.3,1.5c0.2,0.2,0.6,0.2,0.9,0.2v0.8
			C96.9,103,96.4,103,96.1,102.6z M95.8,99l-0.5,0.1c-1.5,0.4-2.8,0.7-3.2,1c-0.3,0.2-0.5,0.6-0.5,0.9c0,0.3,0.1,0.5,0.1,0.5
			c0.4,0.7,1.2,0.7,1.4,0.7c0.9,0,2.1-0.6,2.4-1.4c0.1-0.3,0.2-0.6,0.2-1.3V99z"/>
		<path fill="#D6E7F7" d="M101.2,103.2c-0.1,0-0.2,0-0.3,0c-0.2,0-0.8-0.1-1-0.7c-0.1-0.3-0.1-1.2-0.1-1.5v-4.8h-1.6v-0.8h1.6v-3.2
			h0.9v3.2h1.7v0.8h-1.7v4.2c0,0.3,0,0.5,0,0.8c0,0.4,0,1.1,0.6,1.1c0.4,0,0.8-0.3,1.1-0.5v1C102.2,103,101.8,103.2,101.2,103.2z"/>
		<path fill="#D6E7F7" d="M109.7,102c-0.4,0.5-1.2,1.2-2.7,1.2c-0.3,0-1,0-1.8-0.4c-1.8-0.9-1.9-3.2-1.9-3.7c0-0.3,0-0.9,0.2-1.6
			c0.5-1.4,1.7-2.4,3.3-2.4c0.5,0,1.6,0.1,2.4,1.1c0.6,0.7,1,1.8,1,2.7v0.2h-5.9c0,0.6,0.1,1,0.1,1.3c0.2,0.6,0.7,1.9,2.4,1.9
			c0.7,0,1.7-0.2,2.4-1.6l0.9,0.3C110.2,101.2,110,101.6,109.7,102z M106.8,96.1c-1.3,0-2,0.9-2.2,1.3c-0.1,0.3-0.2,0.7-0.3,1.1h4.8
			C109,96.5,107.7,96.1,106.8,96.1z"/>
		<path fill="#D6E7F7" d="M115.8,96.2c-0.2,0-0.4,0-0.6,0c-1.2,0-1.9,0.7-2.1,1.8c-0.1,0.4-0.1,0.9-0.1,1.8v3.3h-0.9v-7.6h0.9v1.2
			c0-0.1,0.1-0.3,0.2-0.4c0.1-0.1,0.4-0.5,0.9-0.8c0.2-0.1,0.5-0.2,1.1-0.2c0.1,0,0.3,0,0.6,0L115.8,96.2z"/>
		<path fill="#D6E7F7" d="M123.3,103.2c-0.1,0-0.2,0-0.3,0c-0.2,0-0.8-0.1-1-0.7c-0.1-0.3-0.1-1.2-0.1-1.5v-4.8h-1.6v-0.8h1.6v-3.2
			h0.9v3.2h1.7v0.8h-1.7v4.2c0,0.3,0,0.5,0,0.8c0,0.4,0,1.1,0.6,1.1c0.4,0,0.8-0.3,1.1-0.5v1C124.3,103,123.9,103.2,123.3,103.2z"/>
		<path fill="#D6E7F7" d="M131,103v-4.2c0-0.2,0-0.5,0-0.7c0-0.8-0.1-1.5-0.9-1.9c-0.3-0.1-0.6-0.2-0.9-0.2c-1.2,0-1.7,0.7-1.9,1.1
			c-0.3,0.6-0.3,1.2-0.3,2.6v3.3h-1V91.7h1v4.9c0,0,0.1-0.3,0.3-0.4c0.3-0.4,0.9-1,2.1-1c0.3,0,1.4,0.1,2.1,0.9
			c0.4,0.6,0.5,1.2,0.5,2.5v4.3H131z"/>
		<path fill="#D6E7F7" d="M139.3,102.6c-0.3-0.3-0.3-0.6-0.3-1c-0.1,0.2-0.2,0.5-0.4,0.7c-0.3,0.4-1.1,0.9-2.3,0.9
			c-1,0-1.5-0.3-1.8-0.7c-0.2-0.2-0.6-0.7-0.6-1.4c0-0.2,0-0.7,0.4-1.2c0.6-0.7,1.5-0.9,2.4-1.2c0.5-0.1,1-0.3,1.4-0.4l0.9-0.2v-0.4
			c0-0.3,0-0.4-0.1-0.7c-0.2-0.5-0.6-1-1.7-1c-1,0-1.5,0.3-1.7,0.7c-0.2,0.4-0.3,0.8-0.3,1.2l-1-0.2c0-0.2,0.1-0.8,0.4-1.3
			c0.4-0.5,1.1-1.2,2.5-1.2c0.8,0,1.8,0.2,2.3,0.8c0.5,0.6,0.5,1.4,0.5,2.2v2.4c0,0.7,0,1.2,0.3,1.5c0.2,0.2,0.6,0.2,0.9,0.2v0.8
			C140.1,103,139.6,103,139.3,102.6z M138.9,99l-0.5,0.1c-1.5,0.4-2.8,0.7-3.2,1c-0.3,0.2-0.5,0.6-0.5,0.9c0,0.3,0.1,0.5,0.1,0.5
			c0.4,0.7,1.2,0.7,1.4,0.7c0.9,0,2.1-0.6,2.4-1.4c0.1-0.3,0.2-0.6,0.2-1.3V99z"/>
		<path fill="#D6E7F7" d="M147.3,103v-4c0-1,0-1.6-0.2-2.1c-0.2-0.4-0.4-0.6-0.6-0.7c-0.4-0.3-0.9-0.2-1-0.2c-0.2,0-0.6,0-1,0.2
			c-0.6,0.3-1,0.9-1.2,1.5c-0.1,0.4-0.1,1-0.1,1.9v3.3h-0.9v-7.6h0.9v1.4c0.1-0.2,0.2-0.5,0.5-0.8c0.3-0.3,0.8-0.7,1.9-0.7
			c1.4,0,2.1,0.8,2.3,1.3c0.3,0.6,0.3,1.2,0.3,2.5v4H147.3z"/>
		<path fill="#D6E7F7" d="M160.5,100.2v2.8h-1v-2.8h-5v-0.8l5-7.7h1.1v7.6h1.8v0.9H160.5z M159.5,93.3l-3.9,6h3.9V93.3z"/>
		<path fill="#D6E7F7" d="M170,102.2c-0.7,0.7-1.5,1-2.5,1c-0.3,0-1.2,0-1.9-0.5c-1.1-0.7-2-2.4-2-5.3c0-0.4-0.1-3.5,1.7-5.1
			c0.4-0.3,1.1-0.8,2.3-0.8c1.5,0,2.3,0.8,2.7,1.2c1.4,1.7,1.3,4.5,1.3,4.9C171.5,98,171.5,100.7,170,102.2z M169.8,94
			c-0.2-0.4-0.8-1.6-2.3-1.6c-0.4,0-1,0.1-1.6,0.7c-1,1-1.3,2.9-1.3,4.3c0,1.5,0.3,2.7,0.5,3.2c0.1,0.3,0.4,0.7,0.6,1
			c0.2,0.3,0.8,0.8,1.8,0.8c0.7,0,1.4-0.3,1.8-0.8c0.6-0.7,1-1.9,1.1-3.9C170.5,97.3,170.5,95.3,169.8,94z"/>
		<path fill="#D6E7F7" d="M179.4,102.2c-0.7,0.7-1.5,1-2.5,1c-0.3,0-1.2,0-1.9-0.5c-1.1-0.7-2-2.4-2-5.3c0-0.4-0.1-3.5,1.7-5.1
			c0.4-0.3,1.1-0.8,2.3-0.8c1.5,0,2.3,0.8,2.7,1.2c1.4,1.7,1.3,4.5,1.3,4.9C180.9,98,180.8,100.7,179.4,102.2z M179.2,94
			c-0.2-0.4-0.8-1.6-2.3-1.6c-0.4,0-1,0.1-1.6,0.7c-1,1-1.3,2.9-1.3,4.3c0,1.5,0.3,2.7,0.5,3.2c0.1,0.3,0.4,0.7,0.6,1
			c0.2,0.3,0.8,0.8,1.8,0.8c0.7,0,1.4-0.3,1.8-0.8c0.6-0.7,1-1.9,1.1-3.9C179.8,97.3,179.8,95.3,179.2,94z"/>
		<path fill="#D6E7F7" d="M195.9,103v-4.1c0-1.3,0.1-2-0.5-2.5c-0.4-0.3-0.8-0.3-0.9-0.3c-0.8,0-1.4,0.5-1.8,1.2
			c-0.3,0.6-0.3,1.2-0.3,2.5v3.2h-0.9v-4.2c0-1,0-1.6-0.2-2c-0.3-0.5-0.7-0.7-1.2-0.7c-0.4,0-1.2,0.1-1.7,1
			c-0.4,0.7-0.4,1.4-0.4,2.8v3.1h-0.9v-7.6h0.9V97c0-0.1,0.1-0.4,0.2-0.6c0.4-0.8,1.2-1.1,2.1-1.1c1.2,0,1.8,0.7,1.9,1.2
			c0.1,0.2,0.1,0.4,0.2,0.8c0.1-0.4,0.2-0.6,0.3-0.8c0.2-0.4,0.8-1.1,2.1-1.1c0.5,0,1,0.1,1.4,0.4c0.9,0.6,0.9,1.7,0.9,3.6v3.8
			H195.9z"/>
		<path fill="#D6E7F7" d="M199.2,93.6v-1.5h0.9v1.5H199.2z M199.2,103v-7.6h0.9v7.6H199.2z"/>
		<path fill="#D6E7F7" d="M202.5,103V91.7h1V103H202.5z"/>
		<path fill="#D6E7F7" d="M205.9,103V91.7h1V103H205.9z"/>
		<path fill="#D6E7F7" d="M209.2,93.6v-1.5h0.9v1.5H209.2z M209.2,103v-7.6h0.9v7.6H209.2z"/>
		<path fill="#D6E7F7" d="M218.8,104.1c0,0.3,0,1.3-0.8,2c-0.4,0.4-1.2,0.9-2.6,0.9c-0.4,0-2.2,0-3-1.5c-0.3-0.5-0.3-1.1-0.3-1.3
			l1-0.2c0.1,0.8,0.4,2.1,2.4,2.1c0.3,0,1.6,0,2.1-1c0.3-0.5,0.2-1.1,0.3-2.3c0-0.3,0-0.6,0-0.8v-0.4c0,0-0.1,0.3-0.2,0.4
			c-0.3,0.5-1,1.2-2.4,1.2c-0.8,0-1.3-0.2-1.6-0.4c-1.7-1-1.8-3.2-1.8-3.6c0-1.3,0.4-2.8,1.6-3.5c0.3-0.2,0.9-0.4,1.7-0.4
			c0.3,0,1.1,0,1.8,0.6c0.3,0.2,0.5,0.5,0.5,0.6c0.1,0.2,0.1,0.3,0.1,0.3v-1.4h0.9v6.8C218.8,102.8,218.8,103.5,218.8,104.1z
			 M217.3,96.9c-0.2-0.3-0.8-0.8-1.8-0.8c-0.1,0-0.5,0-0.9,0.1c-1.6,0.6-1.6,2.6-1.6,3c0,1.1,0.3,1.9,0.6,2.3
			c0.2,0.3,0.6,0.6,0.9,0.8c0.4,0.2,0.8,0.2,0.9,0.2c0.2,0,0.9,0,1.5-0.4c0.8-0.6,0.9-1.7,1-2.6C217.9,99.1,217.9,97.7,217.3,96.9z"
			/>
		<path fill="#D6E7F7" d="M224.9,96.2c-0.2,0-0.4,0-0.6,0c-1.2,0-1.9,0.7-2.1,1.8c-0.1,0.4-0.1,0.9-0.1,1.8v3.3h-0.9v-7.6h0.9v1.2
			c0-0.1,0.1-0.3,0.2-0.4c0.1-0.1,0.4-0.5,0.9-0.8c0.2-0.1,0.5-0.2,1.1-0.2c0.1,0,0.3,0,0.6,0L224.9,96.2z"/>
		<path fill="#D6E7F7" d="M231.2,102.6c-0.3-0.3-0.3-0.6-0.3-1c-0.1,0.2-0.2,0.5-0.4,0.7c-0.3,0.4-1.1,0.9-2.3,0.9
			c-1,0-1.5-0.3-1.8-0.7c-0.2-0.2-0.6-0.7-0.6-1.4c0-0.2,0-0.7,0.4-1.2c0.6-0.7,1.5-0.9,2.4-1.2c0.5-0.1,1-0.3,1.4-0.4l0.9-0.2v-0.4
			c0-0.3,0-0.4-0.1-0.7c-0.2-0.5-0.6-1-1.7-1c-1,0-1.5,0.3-1.7,0.7c-0.2,0.4-0.3,0.8-0.3,1.2l-1-0.2c0-0.2,0.1-0.8,0.4-1.3
			c0.4-0.5,1.1-1.2,2.5-1.2c0.8,0,1.8,0.2,2.3,0.8c0.5,0.6,0.5,1.4,0.5,2.2v2.4c0,0.7,0,1.2,0.3,1.5c0.2,0.2,0.6,0.2,0.9,0.2v0.8
			C232,103,231.5,103,231.2,102.6z M230.8,99l-0.5,0.1c-1.5,0.4-2.8,0.7-3.2,1c-0.3,0.2-0.5,0.6-0.5,0.9c0,0.3,0.1,0.5,0.1,0.5
			c0.4,0.7,1.2,0.7,1.4,0.7c0.9,0,2.1-0.6,2.4-1.4c0.1-0.3,0.2-0.6,0.2-1.3V99z"/>
		<path fill="#D6E7F7" d="M243.2,103v-4.1c0-1.3,0.1-2-0.5-2.5c-0.4-0.3-0.8-0.3-0.9-0.3c-0.8,0-1.4,0.5-1.8,1.2
			c-0.3,0.6-0.3,1.2-0.3,2.5v3.2h-0.9v-4.2c0-1,0-1.6-0.2-2c-0.3-0.5-0.7-0.7-1.2-0.7c-0.4,0-1.2,0.1-1.7,1
			c-0.4,0.7-0.4,1.4-0.4,2.8v3.1h-0.9v-7.6h0.9V97c0-0.1,0.1-0.4,0.2-0.6c0.4-0.8,1.2-1.1,2.1-1.1c1.2,0,1.8,0.7,1.9,1.2
			c0.1,0.2,0.1,0.4,0.2,0.8c0.1-0.4,0.2-0.6,0.3-0.8c0.2-0.4,0.8-1.1,2.1-1.1c0.5,0,1,0.1,1.4,0.4c0.9,0.6,0.9,1.7,0.9,3.6v3.8
			H243.2z"/>
		<path fill="#D6E7F7" d="M251.6,101.9c-0.3,0.6-1.1,1.3-2.6,1.3c-0.5,0-1.7-0.1-2.6-1.2c-0.2-0.3-0.4-0.6-0.5-0.9l0.9-0.3
			c0.1,0.5,0.7,1.5,2.1,1.5c0.7,0,1.2-0.2,1.4-0.4c0.3-0.3,0.5-0.7,0.5-1.1c0-0.2-0.1-0.5-0.2-0.7c-0.2-0.3-0.6-0.5-1.4-0.7
			c-0.8-0.2-1.9-0.3-2.5-1c-0.3-0.3-0.4-0.8-0.4-1.2c0-0.2,0.1-1,0.7-1.5c0.5-0.5,1.4-0.6,2.1-0.6c0.2,0,1.2,0,1.9,0.5
			c0.6,0.4,0.8,1,0.8,1.2l-0.9,0.2c-0.2-0.9-1.1-1.1-1.9-1.1c-0.6,0-1,0.1-1.2,0.3c-0.1,0-0.2,0.2-0.3,0.3c-0.2,0.3-0.2,0.5-0.2,0.7
			c0,0.9,0.9,1.1,1.6,1.2l0.8,0.2c0.7,0.1,1.3,0.4,1.7,1c0.4,0.5,0.4,0.9,0.4,1.2C251.8,101,251.8,101.5,251.6,101.9z"/>
	</g>
</g>
<g>
</g>
<g>
</g>
<g>
</g>
<g>
</g>
<g>
</g>
<g>
</g>
</svg>
