<?xml version="1.0" encoding="utf-8"?>
<!-- Generator: Adobe Illustrator 19.2.1, SVG Export Plug-In . SVG Version: 6.00 Build 0)  -->
<!DOCTYPE svg PUBLIC "-//W3C//DTD SVG 1.1//EN" "http://www.w3.org/Graphics/SVG/1.1/DTD/svg11.dtd">
<svg version="1.1" id="Layer_1" xmlns="http://www.w3.org/2000/svg" xmlns:xlink="http://www.w3.org/1999/xlink" x="0px" y="0px"
	 width="792px" height="612px" viewBox="0 0 792 612" enable-background="new 0 0 792 612" xml:space="preserve">
<g>
	<g>
		<path fill="#D6E7F7" d="M204.8,308.1c-0.5,1.4-1.7,4.3-5.7,4.3c-2.6,0-4.3-1.2-5-3.7l1.7-0.6c0.1,0.7,0.2,1.4,0.7,2
			c0.9,1.1,2.3,1,2.7,1c0.5,0,1.8,0,2.9-0.9c0.2-0.2,0.6-0.6,1-1.2c0.7-1.4,0.9-3.5,1-5.1c-0.2,0.4-0.8,1.3-1.9,1.9
			c-0.5,0.2-1.5,0.7-2.8,0.7c-0.5,0-1.6,0-2.8-0.7c-2.6-1.4-2.7-4.3-2.7-5.1c0-0.9,0.1-1.7,0.5-2.5c0.5-1.2,1.8-3.4,5.2-3.4
			c0.9,0,3.2,0.1,4.7,2.3c0.8,1.1,1.4,3,1.4,6.1C205.5,303.8,205.5,306,204.8,308.1z M203.7,299.7c-0.2-0.9-1.1-3.7-4.3-3.7
			c-1.1,0-2.2,0.4-2.9,1.2c-0.5,0.6-1.1,1.7-1.1,3.4c0,0.4,0,1.9,0.9,3.1c0.4,0.6,1.4,1.4,3.2,1.4c1,0,1.7-0.2,2-0.4
			c0.8-0.4,1.7-1.2,2-2.1c0.3-0.6,0.3-1.3,0.3-1.5C203.9,300.5,203.7,300,203.7,299.7z"/>
		<path fill="#D6E7F7" d="M213.9,304.6c-0.7,0.8-1.5,1.2-2.6,1.2c-0.3,0-1.1,0-1.8-0.5c-1-0.7-2-2.2-2-5c0-0.4,0-3.3,1.7-4.8
			c0.8-0.7,1.7-0.7,2.1-0.7c0.3,0,1.1,0,1.8,0.5c1,0.7,1.9,2.4,1.9,5.2C215.1,301.1,215,303.2,213.9,304.6z M211.3,296
			c-0.5,0-1.4,0.2-1.9,1.3c-0.3,0.5-0.6,1.6-0.6,3.1c0,0.1,0,2.3,0.8,3.4c0.2,0.3,0.7,1,1.8,1c2.2,0,2.5-2.7,2.5-4.2
			C213.9,297.7,212.9,295.9,211.3,296z M213.7,313l-1-0.4l8.4-18.5l1,0.5L213.7,313z M225.5,311.5c-0.8,0.7-1.7,0.8-2.1,0.8
			c-0.3,0-1.1,0-1.8-0.5c-1-0.6-1.9-2.2-1.9-4.9c0-0.4,0-3,1.4-4.5c0.4-0.4,1.1-1,2.4-1c1.4,0,2.1,0.6,2.4,1.1
			c1.3,1.6,1.3,4.2,1.3,4.6C227.1,307.4,227,310.1,225.5,311.5z M225.4,303.8c-0.6-1.2-1.4-1.5-2-1.5c-0.3,0-0.7,0.1-1.2,0.5
			c-1.1,0.9-1.3,2.7-1.3,4c0,1,0.2,1.8,0.3,2.2c0.1,0.3,0.3,1.3,1.1,1.9c0.5,0.3,1,0.3,1.2,0.3c2.2,0,2.5-2.7,2.5-4.2
			C225.9,305.4,225.6,304.4,225.4,303.8z"/>
	</g>
	<polyline fill="none" stroke="#FF5959" stroke-miterlimit="10" points="176.6,274.4 156.3,274.4 156.3,330 164.6,330 	"/>
	<polyline fill="none" stroke="#FF5959" stroke-miterlimit="10" points="243.9,274.4 264.2,274.4 264.2,330 255.9,330 	"/>
	<g>
		<path fill="#D6E7F7" d="M190.3,365.6c-1.7,2.7-5.3,5.1-5.7,5.4c-1.2,0.8-2.2,1.4-2.2,1.4h8.5v1.3h-10.7v-1.3l0.3-0.2
			c0.5-0.3,1-0.6,1.5-1c1-0.7,2-1.4,2.9-2.2c0.2-0.2,1.7-1.4,2.7-2.4c0.5-0.6,2.2-2.3,2.2-4.8c0-0.7-0.1-1.4-0.5-2.1
			c-1-1.9-3.2-2-3.7-2c-1.5,0-2.9,0.6-3.7,2c-0.1,0.3-0.5,0.9-0.5,1.8c0,1.5,0.9,2.5,1.2,2.9l-2-0.2c-0.5-1.3-0.6-2.2-0.6-2.8
			c0-1,0.3-1.7,0.4-2.1c0.5-1.2,2-2.9,5.1-2.9c0.9,0,3.9,0.1,5.2,2.9c0.2,0.4,0.5,1.3,0.5,2.5C191.4,362.7,191.3,364,190.3,365.6z"
			/>
		<path fill="#D6E7F7" d="M199.6,373.8l0-13.8c-0.3,0.3-0.6,0.3-1,0.5c-0.3,0.1-0.9,0.2-1.6,0.2h-0.4l0-1.3c0.7,0,1.1-0.1,1.4-0.2
			c0.6-0.2,1.6-0.6,1.6-2.1v-0.2h1.5v16.9H199.6z"/>
		<path fill="#D6E7F7" d="M207.7,373.8V371h1.9v2.8H207.7z"/>
		<path fill="#D6E7F7" d="M217.6,373.8l0-13.8c-0.3,0.3-0.6,0.3-1,0.5c-0.3,0.1-0.9,0.2-1.6,0.2h-0.4l0-1.3c0.7,0,1.1-0.1,1.4-0.2
			c0.6-0.2,1.6-0.6,1.6-2.1v-0.2h1.5v16.9H217.6z"/>
		<path fill="#D6E7F7" d="M231.7,366.4c-0.7,0.8-1.5,1.2-2.6,1.2c-0.3,0-1.1,0-1.8-0.5c-1-0.7-2-2.2-2-5c0-0.4,0-3.3,1.7-4.8
			c0.8-0.7,1.7-0.7,2.1-0.7c0.3,0,1.1,0,1.8,0.5c1,0.7,1.9,2.4,1.9,5.2C232.9,362.8,232.9,364.9,231.7,366.4z M229.2,357.7
			c-0.5,0-1.4,0.2-1.9,1.3c-0.3,0.5-0.6,1.6-0.6,3.1c0,0.1,0,2.3,0.8,3.4c0.2,0.3,0.7,1,1.8,1c2.2,0,2.5-2.7,2.5-4.2
			C231.7,359.5,230.8,357.7,229.2,357.7z M231.5,374.7l-1-0.4l8.4-18.5l1,0.5L231.5,374.7z M243.3,373.2c-0.8,0.7-1.7,0.8-2.1,0.8
			c-0.3,0-1.1,0-1.8-0.5c-1-0.6-1.9-2.2-1.9-4.9c0-0.4,0-3,1.4-4.5c0.4-0.4,1.1-1,2.4-1c1.4,0,2.1,0.6,2.4,1.1
			c1.3,1.6,1.3,4.2,1.3,4.6C244.9,369.1,244.9,371.8,243.3,373.2z M243.2,365.6c-0.6-1.2-1.4-1.5-2-1.5c-0.3,0-0.7,0.1-1.2,0.5
			c-1.1,0.9-1.3,2.7-1.3,4c0,1,0.2,1.8,0.3,2.2c0.1,0.3,0.3,1.3,1.1,1.9c0.5,0.3,1,0.3,1.2,0.3c2.2,0,2.5-2.7,2.5-4.2
			C243.7,367.2,243.4,366.1,243.2,365.6z"/>
	</g>
	<polyline fill="none" stroke="#FF5959" stroke-miterlimit="10" points="176.6,336.1 156.3,336.1 156.3,391.7 164.6,391.7 	"/>
	<polyline fill="none" stroke="#FF5959" stroke-miterlimit="10" points="243.9,336.1 264.2,336.1 264.2,391.7 255.9,391.7 	"/>
	<g>
		<path fill="#D6E7F7" d="M547,217.2c-1.4,2.6-4.2,2.8-5.1,2.8c-1.8,0-2.9-0.6-3.5-1.1c-1.5-1.2-2.4-3.2-2.4-7.2
			c0-2.4,0.3-5.2,1.8-7.2c1.2-1.5,2.6-2.2,4.6-2.2c0.3,0,1.1,0,2,0.3c1,0.3,2.4,1.1,3.1,3.4l-1.6,0.6c0-0.1-0.1-0.8-0.4-1.4
			c-0.8-1.6-2.7-1.6-3.1-1.6c-1.8,0-2.7,0.7-3.2,1.3c-0.6,0.7-1.1,1.7-1.5,3.7c-0.2,1-0.2,1.3-0.2,1.8c0.6-1,1.5-1.5,1.8-1.7
			c0.5-0.3,1.4-0.6,2.8-0.6c0.5,0,2.2,0.1,3.5,1.2c0.3,0.2,0.6,0.5,1.1,1.2c0.9,1.4,0.9,2.9,0.9,3.5
			C547.7,214.7,547.7,215.9,547,217.2z M545.8,212.2c-0.6-1.7-2-2.6-3.7-2.6c-0.2,0-0.9,0-1.5,0.2c-1.7,0.5-2.4,1.8-2.6,2.4
			c-0.1,0.3-0.3,0.7-0.3,1.4c0,0.4,0,1.2,0.5,2.2c0.4,0.9,1.3,2.7,3.9,2.7c1.1,0,2-0.2,2.8-1c0.6-0.6,1.4-1.7,1.3-3.6
			C546.1,213.5,546,212.8,545.8,212.2z"/>
		<path fill="#D6E7F7" d="M549.7,219.7v-2.8h1.9v2.8H549.7z"/>
		<path fill="#D6E7F7" d="M565,216c-0.2,0.8-1,3-3.4,3.8c-0.3,0.1-1,0.3-2,0.3c-0.5,0-2.1,0-3.5-1c-0.7-0.6-1.8-1.6-2.1-3.8l1.6-0.5
			c0,0.4,0,0.7,0.1,0.8c0.1,0.3,0.3,1.4,1.1,2.1c0.8,0.7,1.8,1,2.9,1c0.7,0,1.2-0.1,1.9-0.4c2.3-1.1,2.3-3.8,2.3-4.4
			c0-1.5-0.4-3-1.6-3.9c-0.4-0.3-1.2-0.8-2.4-0.8c-0.5,0-1.5,0.1-2.4,0.9c-0.1,0.1-0.4,0.4-0.6,0.7c-0.2,0.4-0.4,0.8-0.6,1.6
			l-1.2-0.1l0.3-9.6h9v1.4h-7.6l-0.3,5.8c0.3-0.6,0.7-1,0.9-1.2c0.5-0.4,1.3-0.9,2.8-0.9c1.6,0,3,0.6,4,1.8c0.6,0.7,1.4,2,1.4,4.2
			C565.2,214.3,565.2,215,565,216z"/>
		<path fill="#D6E7F7" d="M573.7,212.3c-0.7,0.8-1.5,1.2-2.6,1.2c-0.3,0-1.1,0-1.8-0.5c-1-0.7-2-2.2-2-5c0-0.4,0-3.3,1.7-4.8
			c0.8-0.7,1.7-0.7,2.1-0.7c0.3,0,1.1,0,1.8,0.5c1,0.7,1.9,2.4,1.9,5.2C574.9,208.7,574.9,210.8,573.7,212.3z M571.2,203.6
			c-0.5,0-1.4,0.2-1.9,1.3c-0.3,0.5-0.6,1.6-0.6,3.1c0,0.1,0,2.3,0.8,3.4c0.2,0.3,0.7,1,1.8,1c2.2,0,2.5-2.7,2.5-4.2
			C573.7,205.4,572.8,203.6,571.2,203.6z M573.5,220.6l-1-0.4l8.4-18.5l1,0.5L573.5,220.6z M585.3,219.1c-0.8,0.7-1.7,0.8-2.1,0.8
			c-0.3,0-1.1,0-1.8-0.5c-1-0.6-1.9-2.2-1.9-4.9c0-0.4,0-3,1.4-4.5c0.4-0.4,1.1-1,2.4-1c1.4,0,2.1,0.6,2.4,1.1
			c1.3,1.6,1.3,4.2,1.3,4.6C586.9,215,586.9,217.7,585.3,219.1z M585.2,211.5c-0.6-1.2-1.4-1.5-2-1.5c-0.3,0-0.7,0.1-1.2,0.5
			c-1.1,0.9-1.3,2.7-1.3,4c0,1,0.2,1.8,0.3,2.2c0.1,0.3,0.3,1.3,1.1,1.9c0.5,0.3,1,0.3,1.2,0.3c2.2,0,2.5-2.7,2.5-4.2
			C585.7,213.1,585.4,212,585.2,211.5z"/>
	</g>
	<polyline fill="none" stroke="#FF5959" stroke-miterlimit="10" points="527.6,182 507.3,182 507.3,237.6 515.6,237.6 	"/>
	<polyline fill="none" stroke="#FF5959" stroke-miterlimit="10" points="594.9,182 615.2,182 615.2,237.6 606.9,237.6 	"/>
	<g>
		<path fill="#D6E7F7" d="M547.1,291.6c-0.6,1.2-2.2,2.8-5.4,2.8c-2,0-4.1-0.6-5.2-2.4c-0.3-0.4-0.7-1.3-0.7-2.6
			c0-0.5,0-1.5,0.8-2.5c0.3-0.4,1.2-1.4,2.7-1.8c-0.2,0-0.6-0.2-1-0.5c-0.6-0.4-1.9-1.4-1.9-3.3c0-0.3,0-1.1,0.5-1.9
			c0.6-1.1,2-2.5,4.9-2.5c0.6,0,3.4,0,4.8,2.2c0.6,0.9,0.6,1.8,0.6,2.2c0,0.4,0,1.5-0.8,2.5c-0.1,0.1-0.4,0.4-0.8,0.7
			c-0.6,0.5-1.1,0.6-1.4,0.7c0.3,0.1,0.6,0.2,0.9,0.4c0.7,0.4,2.5,1.6,2.5,4C547.6,290.5,547.2,291.3,547.1,291.6z M545.6,287.7
			c-1-1.9-3.4-1.9-3.9-1.9c-2.1,0-4.3,1.1-4.3,3.6c0,1.1,0.4,2,1.3,2.7c1.2,1,2.6,1,3,1c0.9,0,1.5-0.1,1.8-0.3
			c1.5-0.5,2.5-1.7,2.5-3.3C546,288.6,545.8,288.1,545.6,287.7z M541.7,278.1c-3,0-3.8,2-3.8,3.2c0,0.5,0.1,1.3,0.9,2.1
			c1.1,1,2.4,1,2.9,1c0.2,0,0.8,0,1.5-0.2c0.6-0.2,2.4-0.9,2.4-3C545.5,279.9,544.7,278.1,541.7,278.1z"/>
		<path fill="#D6E7F7" d="M549.7,294.1v-2.8h1.9v2.8H549.7z"/>
		<path fill="#D6E7F7" d="M564.2,285.9c-1.7,2.7-5.3,5.1-5.7,5.4c-1.2,0.8-2.2,1.4-2.2,1.4h8.5v1.3h-10.7v-1.3l0.3-0.2
			c0.5-0.3,1-0.6,1.5-1c1-0.7,2-1.4,2.9-2.2c0.2-0.2,1.7-1.4,2.7-2.4c0.5-0.6,2.2-2.3,2.2-4.8c0-0.7-0.1-1.4-0.5-2.1
			c-1-1.9-3.2-2-3.7-2c-1.5,0-2.9,0.6-3.7,2c-0.1,0.3-0.5,0.9-0.5,1.8c0,1.5,0.9,2.5,1.2,2.9l-2-0.2c-0.5-1.3-0.6-2.2-0.6-2.8
			c0-1,0.3-1.7,0.4-2.1c0.5-1.2,2-2.9,5.1-2.9c0.9,0,3.9,0.1,5.2,2.9c0.2,0.4,0.5,1.3,0.5,2.5C565.4,283,565.3,284.3,564.2,285.9z"
			/>
		<path fill="#D6E7F7" d="M573.7,286.7c-0.7,0.8-1.5,1.2-2.6,1.2c-0.3,0-1.1,0-1.8-0.5c-1-0.7-2-2.2-2-5c0-0.4,0-3.3,1.7-4.8
			c0.8-0.7,1.7-0.7,2.1-0.7c0.3,0,1.1,0,1.8,0.5c1,0.7,1.9,2.4,1.9,5.2C574.9,283.1,574.9,285.3,573.7,286.7z M571.2,278
			c-0.5,0-1.4,0.2-1.9,1.3c-0.3,0.5-0.6,1.6-0.6,3.1c0,0.1,0,2.3,0.8,3.4c0.2,0.3,0.7,1,1.8,1c2.2,0,2.5-2.7,2.5-4.2
			C573.7,279.8,572.8,278,571.2,278z M573.5,295l-1-0.4l8.4-18.5l1,0.5L573.5,295z M585.3,293.5c-0.8,0.7-1.7,0.8-2.1,0.8
			c-0.3,0-1.1,0-1.8-0.5c-1-0.6-1.9-2.2-1.9-4.9c0-0.4,0-3,1.4-4.5c0.4-0.4,1.1-1,2.4-1c1.4,0,2.1,0.6,2.4,1.1
			c1.3,1.6,1.3,4.2,1.3,4.6C586.9,289.4,586.9,292.1,585.3,293.5z M585.2,285.9c-0.6-1.2-1.4-1.5-2-1.5c-0.3,0-0.7,0.1-1.2,0.5
			c-1.1,0.9-1.3,2.7-1.3,4c0,1,0.2,1.8,0.3,2.2c0.1,0.3,0.3,1.3,1.1,1.9c0.5,0.3,1,0.3,1.2,0.3c2.2,0,2.5-2.7,2.5-4.2
			C585.7,287.5,585.4,286.5,585.2,285.9z"/>
	</g>
	<polyline fill="none" stroke="#FF5959" stroke-miterlimit="10" points="527.6,256.4 507.3,256.4 507.3,312 515.6,312 	"/>
	<polyline fill="none" stroke="#FF5959" stroke-miterlimit="10" points="594.9,256.4 615.2,256.4 615.2,312 606.9,312 	"/>
	<circle fill="#FF5959" cx="333.9" cy="190.6" r="21.7"/>
	<circle fill="#FF5959" cx="436.8" cy="192" r="21.7"/>
	<path fill="#FF5959" d="M336.6,213.6h-27.5c0,0-12.6,3.8-12.6,19.2v52.8c0,0,5.4,13.9,12.6,0c0,0-1.2-6.7-6.9-6.7
		c0,0,5.7-16.3,0-21.7c0,0,12.9-8.9,4.4-17.5c0,0,5.1-12.5,6.4,13s0,124.8,0,124.8s8.1,14.9,19.5,0v-60.6c0,0,0.9-4.1,4.1,0v60.6
		c11.4,14.9,19.5,0,19.5,0s-1.4-99.3,0-124.8c1.4-25.5,6.4-13,6.4-13c-8.5,8.6,4.4,17.5,4.4,17.5c-5.7,5.4,0,21.7,0,21.7
		c-5.7,0-6.9,6.7-6.9,6.7c7.2,13.9,12.6,0,12.6,0v-52.8c0-15.4-12.6-19.2-12.6-19.2h-27.5"/>
	<path fill="#FF5959" d="M436.8,216.9h20c0,0,11.2-0.7,15.9,27.8c0,0,1.4,27.8,10.5,31.8c0,0,7.5,14.2-9.8,11.9
		c0,0-15.4-18.3-12.6-37.6c0,0-10.1,9.1-6.4,22.4c0,0,20,31.2,20.3,41c0,0-14.9,6.1-20.7,2v62.7c0,0-8.5,12.2-17.3,0v-64.4"/>
	<path fill="#FF5959" d="M439.2,216.9h-20c0,0-11.2-0.7-15.9,27.8c0,0-1.4,27.8-10.5,31.8c0,0-7.5,14.2,9.8,11.9
		c0,0,15.4-18.3,12.6-37.6c0,0,10.1,9.1,6.4,22.4c0,0-20,31.2-20.3,41c0,0,14.9,6.1,20.7,2v62.7c0,0,8.5,12.2,17.3,0v-64.4"/>
	<path fill="#665237" d="M315.1,366.5c0,0-2.7,14.9,7.2,14.9c9.9,0,6.8-14.9,6.8-14.9"/>
	<path fill="#665237" d="M424.7,372.4c0,0-2.7,9,7.2,9s6.8-9,6.8-9"/>
	<path fill="#665237" d="M437.2,372.4c0,0-2.7,9,7.2,9s6.8-9,6.8-9"/>
	<path fill="#665237" d="M338.8,366.5c0,0-2.7,14.9,7.3,14.9c10,0,6.8-14.9,6.8-14.9"/>
	<path fill="#FF5959" d="M314.8,296.7"/>
	<path fill="#FFCA61" d="M314.8,290.6v72.8h14.8v-53.2c0,0,4.3-4.7,8.9,0.2v53h14.9v-72.8H314.8z"/>
	<polyline fill="#FFCA61" points="424.3,369.2 450.7,369.2 450.7,358.6 424.3,358.6 	"/>
	<polyline fill="none" stroke="#FF5959" stroke-miterlimit="10" points="264.2,296.7 294.1,372.4 304.2,372.4 	"/>
	<polyline fill="none" stroke="#FF5959" stroke-miterlimit="10" points="263.2,377.8 293.1,302.2 303.3,302.2 	"/>
	<polyline fill="none" stroke="#FF5959" stroke-miterlimit="10" points="505.1,289.2 475.2,364.9 465,364.9 	"/>
	<polyline fill="none" stroke="#FF5959" stroke-miterlimit="10" points="505.1,227.7 476.1,378.8 466.2,378.8 	"/>
	<g>
		<rect x="497.5" y="327.1" fill="none" width="275" height="114.4"/>
		<path fill="#D6E7F7" d="M506.6,332.2c-0.3,0.4-0.7,0.6-0.8,0.7c-0.8,0.4-1.7,0.4-3.5,0.4h-2.5v5.1h-1v-11.3h3.9c0.7,0,1.3,0,2,0
			c0.8,0.1,1.4,0.2,1.9,0.8c0.3,0.4,0.7,1.1,0.7,2.2C507.3,330.9,507.1,331.6,506.6,332.2z M505.9,328.8c-0.5-0.9-1.3-0.9-2.2-0.9
			c-0.4,0-0.8,0-1.2,0h-2.7v4.4h2.4c0.5,0,1,0,1.5,0c0.8,0,1.6,0,2.1-0.7c0.2-0.3,0.5-0.7,0.5-1.5
			C506.2,329.9,506.2,329.4,505.9,328.8z"/>
		<path fill="#D6E7F7" d="M514,337.3c-0.4,0.5-1.2,1.2-2.7,1.2c-0.3,0-1,0-1.8-0.4c-1.8-0.9-1.9-3.2-1.9-3.7c0-0.3,0-0.9,0.2-1.6
			c0.5-1.4,1.7-2.4,3.3-2.4c0.5,0,1.6,0.1,2.4,1.1c0.6,0.7,1,1.8,1,2.7v0.2h-5.9c0,0.6,0.1,1,0.1,1.3c0.2,0.6,0.7,1.9,2.4,1.9
			c0.7,0,1.7-0.2,2.4-1.6l0.9,0.3C514.5,336.5,514.3,336.9,514,337.3z M511.1,331.4c-1.3,0-2,0.9-2.2,1.3c-0.1,0.3-0.2,0.7-0.3,1.1
			h4.8C513.3,331.8,512,331.4,511.1,331.4z"/>
		<path fill="#D6E7F7" d="M520.1,331.5c-0.2,0-0.4,0-0.6,0c-1.2,0-1.9,0.7-2.1,1.8c-0.1,0.4-0.1,0.9-0.1,1.8v3.3h-0.9v-7.6h0.9v1.2
			c0-0.1,0.1-0.3,0.2-0.4c0.1-0.1,0.4-0.5,0.9-0.8c0.2-0.1,0.5-0.2,1.1-0.2c0.1,0,0.3,0,0.6,0L520.1,331.5z"/>
		<path fill="#D6E7F7" d="M526.7,337.8c-0.4,0.3-1.1,0.8-2.2,0.8c-0.4,0-1.5,0-2.3-0.9c-1.1-1.1-1.2-2.7-1.2-3.1
			c0-0.6,0.1-1.1,0.2-1.6c0.5-1.6,1.8-2.5,3.4-2.5c1.2,0,1.9,0.5,2.2,0.8c0.4,0.4,0.6,0.8,0.7,1.1l-0.9,0.2
			c-0.3-0.8-1.2-1.3-2.1-1.3c-0.3,0-1,0-1.6,0.6c-1,0.8-1,2.3-1,2.6c0,0.2,0,1.5,0.7,2.4c0.1,0.1,0.3,0.4,0.8,0.6
			c0.2,0.1,0.5,0.2,1,0.2c1,0,1.6-0.4,2.1-1.3l1,0.2C527.3,337.1,527.1,337.5,526.7,337.8z"/>
		<path fill="#D6E7F7" d="M535,337.3c-0.4,0.5-1.2,1.2-2.7,1.2c-0.3,0-1,0-1.8-0.4c-1.8-0.9-1.9-3.2-1.9-3.7c0-0.3,0-0.9,0.2-1.6
			c0.5-1.4,1.7-2.4,3.3-2.4c0.5,0,1.6,0.1,2.4,1.1c0.6,0.7,1,1.8,1,2.7v0.2h-5.9c0,0.6,0.1,1,0.1,1.3c0.2,0.6,0.7,1.9,2.4,1.9
			c0.7,0,1.7-0.2,2.4-1.6l0.9,0.3C535.5,336.5,535.3,336.9,535,337.3z M532.1,331.4c-1.3,0-2,0.9-2.2,1.3c-0.1,0.3-0.2,0.7-0.3,1.1
			h4.8C534.3,331.8,533,331.4,532.1,331.4z"/>
		<path fill="#D6E7F7" d="M542.5,338.4v-4c0-1,0-1.6-0.2-2.1c-0.2-0.4-0.4-0.6-0.6-0.7c-0.4-0.3-0.9-0.2-1-0.2c-0.2,0-0.6,0-1,0.2
			c-0.6,0.3-1,0.9-1.2,1.5c-0.1,0.4-0.1,1-0.1,1.9v3.3h-0.9v-7.6h0.9v1.4c0.1-0.2,0.2-0.5,0.5-0.8c0.3-0.3,0.8-0.7,1.9-0.7
			c1.4,0,2.1,0.8,2.3,1.3c0.3,0.6,0.3,1.2,0.3,2.5v4H542.5z"/>
		<path fill="#D6E7F7" d="M547.8,338.5c-0.1,0-0.2,0-0.3,0c-0.2,0-0.8-0.1-1-0.7c-0.1-0.3-0.1-1.2-0.1-1.5v-4.8h-1.6v-0.8h1.6v-3.2
			h0.9v3.2h1.7v0.8h-1.7v4.2c0,0.3,0,0.5,0,0.8c0,0.4,0,1.1,0.6,1.1c0.4,0,0.8-0.3,1.1-0.5v1C548.8,338.3,548.4,338.5,547.8,338.5z"
			/>
		<path fill="#D6E7F7" d="M555.4,338c-0.3-0.3-0.3-0.6-0.3-1c-0.1,0.2-0.2,0.5-0.4,0.7c-0.3,0.4-1.1,0.9-2.3,0.9
			c-1,0-1.5-0.3-1.8-0.7c-0.2-0.2-0.6-0.7-0.6-1.4c0-0.2,0-0.7,0.4-1.2c0.6-0.7,1.5-0.9,2.4-1.2c0.5-0.1,1-0.3,1.4-0.4l0.9-0.2v-0.4
			c0-0.3,0-0.4-0.1-0.7c-0.2-0.5-0.6-1-1.7-1c-1,0-1.5,0.3-1.7,0.7c-0.2,0.4-0.3,0.8-0.3,1.2l-1-0.2c0-0.2,0.1-0.8,0.4-1.3
			c0.4-0.5,1.1-1.2,2.5-1.2c0.8,0,1.8,0.2,2.3,0.8c0.5,0.6,0.5,1.4,0.5,2.2v2.4c0,0.7,0,1.2,0.3,1.5c0.2,0.2,0.6,0.2,0.9,0.2v0.8
			C556.3,338.4,555.8,338.3,555.4,338z M555.1,334.3l-0.5,0.1c-1.5,0.4-2.8,0.7-3.2,1c-0.3,0.2-0.5,0.6-0.5,0.9
			c0,0.3,0.1,0.5,0.1,0.5c0.4,0.7,1.2,0.7,1.4,0.7c0.9,0,2.1-0.6,2.4-1.4c0.1-0.3,0.2-0.6,0.2-1.3V334.3z"/>
		<path fill="#D6E7F7" d="M564.7,339.4c0,0.3,0,1.3-0.8,2c-0.4,0.4-1.2,0.9-2.6,0.9c-0.4,0-2.2,0-3-1.5c-0.3-0.5-0.3-1.1-0.3-1.3
			l1-0.2c0.1,0.8,0.4,2.1,2.4,2.1c0.3,0,1.6,0,2.1-1c0.3-0.5,0.2-1.1,0.3-2.3c0-0.3,0-0.6,0-0.8v-0.4c0,0-0.1,0.3-0.2,0.4
			c-0.3,0.5-1,1.2-2.4,1.2c-0.8,0-1.3-0.2-1.6-0.4c-1.7-1-1.8-3.2-1.8-3.6c0-1.3,0.4-2.8,1.6-3.5c0.3-0.2,0.9-0.4,1.7-0.4
			c0.3,0,1.1,0,1.8,0.6c0.3,0.2,0.5,0.5,0.5,0.6c0.1,0.2,0.1,0.3,0.1,0.3v-1.4h0.9v6.8C564.7,338.2,564.7,338.8,564.7,339.4z
			 M563.3,332.2c-0.2-0.3-0.8-0.8-1.8-0.8c-0.1,0-0.5,0-0.9,0.1c-1.6,0.6-1.6,2.6-1.6,3c0,1.1,0.3,1.9,0.6,2.3
			c0.2,0.3,0.6,0.6,0.9,0.8c0.4,0.2,0.8,0.2,0.9,0.2c0.2,0,0.9,0,1.5-0.4c0.8-0.6,0.9-1.7,1-2.6
			C563.8,334.5,563.9,333.1,563.3,332.2z"/>
		<path fill="#D6E7F7" d="M573,337.3c-0.4,0.5-1.2,1.2-2.7,1.2c-0.3,0-1,0-1.8-0.4c-1.8-0.9-1.9-3.2-1.9-3.7c0-0.3,0-0.9,0.2-1.6
			c0.5-1.4,1.7-2.4,3.3-2.4c0.5,0,1.6,0.1,2.4,1.1c0.6,0.7,1,1.8,1,2.7v0.2h-5.9c0,0.6,0.1,1,0.1,1.3c0.2,0.6,0.7,1.9,2.4,1.9
			c0.7,0,1.7-0.2,2.4-1.6l0.9,0.3C573.5,336.5,573.3,336.9,573,337.3z M570.2,331.4c-1.3,0-2,0.9-2.2,1.3c-0.1,0.3-0.2,0.7-0.3,1.1
			h4.8C572.3,331.8,571,331.4,570.2,331.4z"/>
		<path fill="#D6E7F7" d="M586.7,338.4h-0.8l-1.9-6.3l-1.9,6.3h-0.8l-2.6-7.6h0.9l2,6.2l1.9-6.2h0.8l1.9,6.2l1.9-6.2h0.9
			L586.7,338.4z"/>
		<path fill="#D6E7F7" d="M590.6,328.9v-1.5h0.9v1.5H590.6z M590.6,338.4v-7.6h0.9v7.6H590.6z"/>
		<path fill="#D6E7F7" d="M596,338.5c-0.1,0-0.2,0-0.3,0c-0.2,0-0.8-0.1-1-0.7c-0.1-0.3-0.1-1.2-0.1-1.5v-4.8H593v-0.8h1.6v-3.2h0.9
			v3.2h1.7v0.8h-1.7v4.2c0,0.3,0,0.5,0,0.8c0,0.4,0,1.1,0.6,1.1c0.4,0,0.8-0.3,1.1-0.5v1C597,338.3,596.6,338.5,596,338.5z"/>
		<path fill="#D6E7F7" d="M603.6,338.4v-4.2c0-0.2,0-0.5,0-0.7c0-0.8-0.1-1.5-0.9-1.9c-0.3-0.1-0.6-0.2-0.9-0.2
			c-1.2,0-1.7,0.7-1.9,1.1c-0.3,0.6-0.3,1.2-0.3,2.6v3.3h-1v-11.3h1v4.9c0,0,0.1-0.3,0.3-0.4c0.3-0.4,0.9-1,2.1-1
			c0.3,0,1.4,0.1,2.1,0.9c0.4,0.6,0.5,1.2,0.5,2.5v4.3H603.6z"/>
		<path fill="#D6E7F7" d="M616.1,338.4V337c-0.1,0.3-0.2,0.4-0.3,0.6c-0.7,1-1.7,1-2.1,1c-0.1,0-0.5,0-0.9-0.1
			c-0.7-0.2-1.2-0.8-1.5-1.5c-0.2-0.5-0.2-1.2-0.2-2.4v-3.7h1v4c0,0.9,0,1.4,0.1,1.9c0.1,0.5,0.5,1.1,1.6,1.1c0.4,0,1.2,0,1.8-0.8
			c0.6-0.8,0.5-1.8,0.5-2.7v-3.3h0.9v7.6H616.1z"/>
		<path fill="#D6E7F7" d="M624.4,337.2c-0.3,0.6-1.1,1.3-2.6,1.3c-0.5,0-1.7-0.1-2.6-1.2c-0.2-0.3-0.4-0.6-0.5-0.9l0.9-0.3
			c0.1,0.5,0.7,1.5,2.1,1.5c0.7,0,1.2-0.2,1.4-0.4c0.3-0.3,0.5-0.7,0.5-1.1c0-0.2-0.1-0.5-0.2-0.7c-0.2-0.3-0.6-0.5-1.4-0.7
			c-0.8-0.2-1.9-0.3-2.5-1c-0.3-0.3-0.4-0.8-0.4-1.2c0-0.2,0.1-1,0.7-1.5c0.5-0.5,1.4-0.6,2.1-0.6c0.2,0,1.2,0,1.9,0.5
			c0.6,0.4,0.8,1,0.8,1.2l-0.9,0.2c-0.2-0.9-1.1-1.1-1.9-1.1c-0.6,0-1,0.1-1.2,0.3c-0.1,0-0.2,0.2-0.3,0.3c-0.2,0.3-0.2,0.5-0.2,0.7
			c0,0.9,0.9,1.1,1.6,1.2l0.8,0.2c0.7,0.1,1.3,0.4,1.7,1c0.4,0.5,0.4,0.9,0.4,1.2C624.7,336.4,624.7,336.8,624.4,337.2z"/>
		<path fill="#D6E7F7" d="M631.7,338.4V337c-0.1,0.3-0.2,0.4-0.3,0.6c-0.7,1-1.7,1-2.1,1c-0.1,0-0.5,0-0.9-0.1
			c-0.7-0.2-1.2-0.8-1.5-1.5c-0.2-0.5-0.2-1.2-0.2-2.4v-3.7h1v4c0,0.9,0,1.4,0.1,1.9c0.1,0.5,0.5,1.1,1.6,1.1c0.4,0,1.2,0,1.8-0.8
			c0.6-0.8,0.5-1.8,0.5-2.7v-3.3h0.9v7.6H631.7z"/>
		<path fill="#D6E7F7" d="M640,338c-0.3-0.3-0.3-0.6-0.3-1c-0.1,0.2-0.2,0.5-0.4,0.7c-0.3,0.4-1.1,0.9-2.3,0.9c-1,0-1.5-0.3-1.8-0.7
			c-0.2-0.2-0.6-0.7-0.6-1.4c0-0.2,0-0.7,0.4-1.2c0.6-0.7,1.5-0.9,2.4-1.2c0.5-0.1,1-0.3,1.4-0.4l0.9-0.2v-0.4c0-0.3,0-0.4-0.1-0.7
			c-0.2-0.5-0.6-1-1.7-1c-1,0-1.5,0.3-1.7,0.7c-0.2,0.4-0.3,0.8-0.3,1.2l-1-0.2c0-0.2,0.1-0.8,0.4-1.3c0.4-0.5,1.1-1.2,2.5-1.2
			c0.8,0,1.8,0.2,2.3,0.8c0.5,0.6,0.5,1.4,0.5,2.2v2.4c0,0.7,0,1.2,0.3,1.5c0.2,0.2,0.6,0.2,0.9,0.2v0.8
			C640.9,338.4,640.4,338.3,640,338z M639.7,334.3l-0.5,0.1c-1.5,0.4-2.8,0.7-3.2,1c-0.3,0.2-0.5,0.6-0.5,0.9c0,0.3,0.1,0.5,0.1,0.5
			c0.4,0.7,1.2,0.7,1.4,0.7c0.9,0,2.1-0.6,2.4-1.4c0.1-0.3,0.2-0.6,0.2-1.3V334.3z"/>
		<path fill="#D6E7F7" d="M643.1,338.4v-11.3h1v11.3H643.1z"/>
		<path fill="#D6E7F7" d="M655.5,338.4V337c-0.4,1-1.3,1.6-2.4,1.6c-0.3,0-0.9,0-1.6-0.5c-1.5-1-1.6-3.1-1.6-3.5
			c0-0.5,0.1-2.5,1.6-3.5c0.3-0.2,0.8-0.5,1.6-0.5c0.6,0,1.2,0.2,1.7,0.6c0.4,0.3,0.4,0.6,0.5,0.8v-4.9h0.9v11.3H655.5z
			 M654.7,331.8c-0.2-0.1-0.6-0.4-1.3-0.4c-0.2,0-0.6,0-1,0.2c-0.7,0.4-1.3,1.2-1.3,2.9c0,0.3,0,3.1,2.3,3.1c0.6,0,1.1-0.2,1.5-0.6
			c0.6-0.7,0.7-1.6,0.7-2.5C655.6,333.1,655.3,332.3,654.7,331.8z"/>
		<path fill="#D6E7F7" d="M663.8,338c-0.3-0.3-0.3-0.6-0.3-1c-0.1,0.2-0.2,0.5-0.4,0.7c-0.3,0.4-1.1,0.9-2.3,0.9
			c-1,0-1.5-0.3-1.8-0.7c-0.2-0.2-0.6-0.7-0.6-1.4c0-0.2,0-0.7,0.4-1.2c0.6-0.7,1.5-0.9,2.4-1.2c0.5-0.1,1-0.3,1.4-0.4l0.9-0.2v-0.4
			c0-0.3,0-0.4-0.1-0.7c-0.2-0.5-0.6-1-1.7-1c-1,0-1.5,0.3-1.7,0.7c-0.2,0.4-0.3,0.8-0.3,1.2l-1-0.2c0-0.2,0.1-0.8,0.4-1.3
			c0.4-0.5,1.1-1.2,2.5-1.2c0.8,0,1.8,0.2,2.3,0.8c0.5,0.6,0.5,1.4,0.5,2.2v2.4c0,0.7,0,1.2,0.3,1.5c0.2,0.2,0.6,0.2,0.9,0.2v0.8
			C664.7,338.4,664.2,338.3,663.8,338z M663.5,334.3l-0.5,0.1c-1.5,0.4-2.8,0.7-3.2,1c-0.3,0.2-0.5,0.6-0.5,0.9
			c0,0.3,0.1,0.5,0.1,0.5c0.4,0.7,1.2,0.7,1.4,0.7c0.9,0,2.1-0.6,2.4-1.4c0.1-0.3,0.2-0.6,0.2-1.3V334.3z"/>
		<path fill="#D6E7F7" d="M666.9,328.9v-1.5h0.9v1.5H666.9z M666.9,338.4v-7.6h0.9v7.6H666.9z"/>
		<path fill="#D6E7F7" d="M670.2,338.4v-11.3h1v11.3H670.2z"/>
		<path fill="#D6E7F7" d="M675.7,339.5c-0.7,1.8-1,2.8-2.2,2.8c-0.5,0-0.8-0.2-1-0.3v-1c0.4,0.3,0.7,0.4,1,0.4c0.5,0,0.7-0.4,1-1.2
			c0.1-0.2,0.2-0.5,0.3-0.7l0.4-1.1l-2.6-7.6h0.9l2.2,6.5l2.5-6.5h1L675.7,339.5z"/>
		<path fill="#D6E7F7" d="M689.6,338c-0.3-0.3-0.3-0.6-0.3-1c-0.1,0.2-0.2,0.5-0.4,0.7c-0.3,0.4-1.1,0.9-2.3,0.9
			c-1,0-1.5-0.3-1.8-0.7c-0.2-0.2-0.6-0.7-0.6-1.4c0-0.2,0-0.7,0.4-1.2c0.6-0.7,1.5-0.9,2.4-1.2c0.5-0.1,1-0.3,1.4-0.4l0.9-0.2v-0.4
			c0-0.3,0-0.4-0.1-0.7c-0.2-0.5-0.6-1-1.7-1c-1,0-1.5,0.3-1.7,0.7c-0.2,0.4-0.3,0.8-0.3,1.2l-1-0.2c0-0.2,0.1-0.8,0.4-1.3
			c0.4-0.5,1.1-1.2,2.5-1.2c0.8,0,1.8,0.2,2.3,0.8c0.5,0.6,0.5,1.4,0.5,2.2v2.4c0,0.7,0,1.2,0.3,1.5c0.2,0.2,0.6,0.2,0.9,0.2v0.8
			C690.4,338.4,689.9,338.3,689.6,338z M689.3,334.3l-0.5,0.1c-1.5,0.4-2.8,0.7-3.2,1c-0.3,0.2-0.5,0.6-0.5,0.9
			c0,0.3,0.1,0.5,0.1,0.5c0.4,0.7,1.2,0.7,1.4,0.7c0.9,0,2.1-0.6,2.4-1.4c0.1-0.3,0.2-0.6,0.2-1.3V334.3z"/>
		<path fill="#D6E7F7" d="M692.6,338.4v-11.3h1v11.3H692.6z"/>
		<path fill="#D6E7F7" d="M701.2,337.8c-0.4,0.3-1.1,0.8-2.2,0.8c-0.4,0-1.5,0-2.3-0.9c-1.1-1.1-1.2-2.7-1.2-3.1
			c0-0.6,0.1-1.1,0.2-1.6c0.5-1.6,1.8-2.5,3.4-2.5c1.2,0,1.9,0.5,2.2,0.8c0.4,0.4,0.6,0.8,0.7,1.1l-0.9,0.2
			c-0.3-0.8-1.2-1.3-2.1-1.3c-0.3,0-1,0-1.6,0.6c-1,0.8-1,2.3-1,2.6c0,0.2,0,1.5,0.7,2.4c0.1,0.1,0.3,0.4,0.8,0.6
			c0.2,0.1,0.5,0.2,1,0.2c1,0,1.6-0.4,2.1-1.3l1,0.2C701.8,337.1,701.6,337.5,701.2,337.8z"/>
		<path fill="#D6E7F7" d="M709.9,336c-0.5,1.5-1.7,2.5-3.3,2.5c-0.5,0-1.7-0.1-2.6-1.3c-0.3-0.5-0.8-1.3-0.8-2.6
			c0-0.3,0-1.1,0.4-1.9c0.8-1.9,2.4-2.2,3.1-2.2c0.9,0,1.6,0.3,2.2,0.8c0.8,0.8,1.2,2,1.2,3.1C710.1,334.8,710.1,335.4,709.9,336z
			 M706.6,331.3c-0.2,0-0.8,0-1.4,0.4c-0.6,0.4-1.1,1.3-1.1,2.9c0,0.3,0,1.8,1,2.6c0.2,0.2,0.7,0.4,1.4,0.4c1.1,0,2.5-0.7,2.5-3.1
			C709.1,332.1,707.8,331.3,706.6,331.3z"/>
		<path fill="#D6E7F7" d="M717,338.4v-4.2c0-0.2,0-0.5,0-0.7c0-0.8-0.1-1.5-0.9-1.9c-0.3-0.1-0.6-0.2-0.9-0.2
			c-1.2,0-1.7,0.7-1.9,1.1c-0.3,0.6-0.3,1.2-0.3,2.6v3.3h-1v-11.3h1v4.9c0,0,0.1-0.3,0.3-0.4c0.3-0.4,0.9-1,2.1-1
			c0.3,0,1.4,0.1,2.1,0.9c0.4,0.6,0.5,1.2,0.5,2.5v4.3H717z"/>
		<path fill="#D6E7F7" d="M726.5,336c-0.5,1.5-1.7,2.5-3.3,2.5c-0.5,0-1.7-0.1-2.6-1.3c-0.3-0.5-0.8-1.3-0.8-2.6
			c0-0.3,0-1.1,0.4-1.9c0.8-1.9,2.4-2.2,3.1-2.2c0.9,0,1.6,0.3,2.2,0.8c0.8,0.8,1.2,2,1.2,3.1C726.7,334.8,726.7,335.4,726.5,336z
			 M723.3,331.3c-0.2,0-0.8,0-1.4,0.4c-0.6,0.4-1.1,1.3-1.1,2.9c0,0.3,0,1.8,1,2.6c0.2,0.2,0.7,0.4,1.4,0.4c1.1,0,2.5-0.7,2.5-3.1
			C725.8,332.1,724.5,331.3,723.3,331.3z"/>
		<path fill="#D6E7F7" d="M728.6,338.4v-11.3h1v11.3H728.6z"/>
		<path fill="#D6E7F7" d="M498.7,348.1v-1.5h0.9v1.5H498.7z M498.7,357.6v-7.6h0.9v7.6H498.7z"/>
		<path fill="#D6E7F7" d="M507,357.6v-4c0-1,0-1.6-0.2-2.1c-0.2-0.4-0.4-0.6-0.6-0.7c-0.4-0.3-0.9-0.2-1-0.2c-0.2,0-0.6,0-1,0.2
			c-0.6,0.3-1,0.9-1.2,1.5c-0.1,0.4-0.1,1-0.1,1.9v3.3H502v-7.6h0.9v1.4c0.1-0.2,0.2-0.5,0.5-0.8c0.3-0.3,0.8-0.7,1.9-0.7
			c1.4,0,2.1,0.8,2.3,1.3c0.3,0.6,0.3,1.2,0.3,2.5v4H507z"/>
		<path fill="#D6E7F7" d="M512.3,357.7c-0.1,0-0.2,0-0.3,0c-0.2,0-0.8-0.1-1-0.7c-0.1-0.3-0.1-1.2-0.1-1.5v-4.8h-1.6v-0.8h1.6v-3.2
			h0.9v3.2h1.7v0.8h-1.7v4.2c0,0.3,0,0.5,0,0.8c0,0.4,0,1.1,0.6,1.1c0.4,0,0.8-0.3,1.1-0.5v1C513.4,357.5,513,357.7,512.3,357.7z"/>
		<path fill="#D6E7F7" d="M520,357.2c-0.3-0.3-0.3-0.6-0.3-1c-0.1,0.2-0.2,0.5-0.4,0.7c-0.3,0.4-1.1,0.9-2.3,0.9
			c-1,0-1.5-0.3-1.8-0.7c-0.2-0.2-0.6-0.7-0.6-1.4c0-0.2,0-0.7,0.4-1.2c0.6-0.7,1.5-0.9,2.4-1.2c0.5-0.1,1-0.3,1.4-0.4l0.9-0.2v-0.4
			c0-0.3,0-0.4-0.1-0.7c-0.2-0.5-0.6-1-1.7-1c-1,0-1.5,0.3-1.7,0.7c-0.2,0.4-0.3,0.8-0.3,1.2l-1-0.2c0-0.2,0.1-0.8,0.4-1.3
			c0.4-0.5,1.1-1.2,2.5-1.2c0.8,0,1.8,0.2,2.3,0.8c0.5,0.6,0.5,1.4,0.5,2.2v2.4c0,0.7,0,1.2,0.3,1.5c0.2,0.2,0.6,0.2,0.9,0.2v0.8
			C520.8,357.6,520.3,357.5,520,357.2z M519.6,353.5l-0.5,0.1c-1.5,0.4-2.8,0.7-3.2,1c-0.3,0.2-0.5,0.6-0.5,0.9
			c0,0.3,0.1,0.5,0.1,0.5c0.4,0.7,1.2,0.7,1.4,0.7c0.9,0,2.1-0.6,2.4-1.4c0.1-0.3,0.2-0.6,0.2-1.3V353.5z"/>
		<path fill="#D6E7F7" d="M528.5,357.6l-2.9-4l-1.6,1.6v2.4H523v-11.3h0.9v7.7l4.3-4h1.2l-3.2,3l3.4,4.6H528.5z"/>
		<path fill="#D6E7F7" d="M536.9,356.5c-0.4,0.5-1.2,1.2-2.7,1.2c-0.3,0-1,0-1.8-0.4c-1.8-0.9-1.9-3.2-1.9-3.7c0-0.3,0-0.9,0.2-1.6
			c0.5-1.4,1.7-2.4,3.3-2.4c0.5,0,1.6,0.1,2.4,1.1c0.6,0.7,1,1.8,1,2.7v0.2h-5.9c0,0.6,0.1,1,0.1,1.3c0.2,0.6,0.7,1.9,2.4,1.9
			c0.7,0,1.7-0.2,2.4-1.6l0.9,0.3C537.4,355.7,537.2,356.1,536.9,356.5z M534,350.6c-1.3,0-2,0.9-2.2,1.3c-0.1,0.3-0.2,0.7-0.3,1.1
			h4.8C536.2,351,534.8,350.6,534,350.6z"/>
		<path fill="#D6E7F7" d="M549.7,358.6c0,0.3,0,1.3-0.8,2c-0.4,0.4-1.2,0.9-2.6,0.9c-0.4,0-2.2,0-3-1.5c-0.3-0.5-0.3-1.1-0.3-1.3
			l1-0.2c0.1,0.8,0.4,2.1,2.4,2.1c0.3,0,1.6,0,2.1-1c0.3-0.5,0.2-1.1,0.3-2.3c0-0.3,0-0.6,0-0.8v-0.4c0,0-0.1,0.3-0.2,0.4
			c-0.3,0.5-1,1.2-2.4,1.2c-0.8,0-1.3-0.2-1.6-0.4c-1.7-1-1.8-3.2-1.8-3.6c0-1.3,0.4-2.8,1.6-3.5c0.3-0.2,0.9-0.4,1.7-0.4
			c0.3,0,1.1,0,1.8,0.6c0.3,0.2,0.5,0.5,0.5,0.6c0.1,0.2,0.1,0.3,0.1,0.3v-1.4h0.9v6.8C549.7,357.4,549.7,358,549.7,358.6z
			 M548.3,351.4c-0.2-0.3-0.8-0.8-1.8-0.8c-0.1,0-0.5,0-0.9,0.1c-1.6,0.6-1.6,2.6-1.6,3c0,1.1,0.3,1.9,0.6,2.3
			c0.2,0.3,0.6,0.6,0.9,0.8c0.4,0.2,0.8,0.2,0.9,0.2c0.2,0,0.9,0,1.5-0.4c0.8-0.6,0.9-1.7,1-2.6
			C548.8,353.7,548.8,352.3,548.3,351.4z"/>
		<path fill="#D6E7F7" d="M555.8,350.7c-0.2,0-0.4,0-0.6,0c-1.2,0-1.9,0.7-2.1,1.8c-0.1,0.4-0.1,0.9-0.1,1.8v3.3h-0.9v-7.6h0.9v1.2
			c0-0.1,0.1-0.3,0.2-0.4c0.1-0.1,0.4-0.5,0.9-0.8c0.2-0.1,0.5-0.2,1.1-0.2c0.1,0,0.3,0,0.6,0L555.8,350.7z"/>
		<path fill="#D6E7F7" d="M563,356.5c-0.4,0.5-1.2,1.2-2.7,1.2c-0.3,0-1,0-1.8-0.4c-1.8-0.9-1.9-3.2-1.9-3.7c0-0.3,0-0.9,0.2-1.6
			c0.5-1.4,1.7-2.4,3.3-2.4c0.5,0,1.6,0.1,2.4,1.1c0.6,0.7,1,1.8,1,2.7v0.2h-5.9c0,0.6,0.1,1,0.1,1.3c0.2,0.6,0.7,1.9,2.4,1.9
			c0.7,0,1.7-0.2,2.4-1.6l0.9,0.3C563.5,355.7,563.3,356.1,563,356.5z M560.2,350.6c-1.3,0-2,0.9-2.2,1.3c-0.1,0.3-0.2,0.7-0.3,1.1
			h4.8C562.3,351,561,350.6,560.2,350.6z"/>
		<path fill="#D6E7F7" d="M570.4,357.2c-0.3-0.3-0.3-0.6-0.3-1c-0.1,0.2-0.2,0.5-0.4,0.7c-0.3,0.4-1.1,0.9-2.3,0.9
			c-1,0-1.5-0.3-1.8-0.7c-0.2-0.2-0.6-0.7-0.6-1.4c0-0.2,0-0.7,0.4-1.2c0.6-0.7,1.5-0.9,2.4-1.2c0.5-0.1,1-0.3,1.4-0.4l0.9-0.2v-0.4
			c0-0.3,0-0.4-0.1-0.7c-0.2-0.5-0.6-1-1.7-1c-1,0-1.5,0.3-1.7,0.7c-0.2,0.4-0.3,0.8-0.3,1.2l-1-0.2c0-0.2,0.1-0.8,0.4-1.3
			c0.4-0.5,1.1-1.2,2.5-1.2c0.8,0,1.8,0.2,2.3,0.8c0.5,0.6,0.5,1.4,0.5,2.2v2.4c0,0.7,0,1.2,0.3,1.5c0.2,0.2,0.6,0.2,0.9,0.2v0.8
			C571.3,357.6,570.8,357.5,570.4,357.2z M570.1,353.5l-0.5,0.1c-1.5,0.4-2.8,0.7-3.2,1c-0.3,0.2-0.5,0.6-0.5,0.9
			c0,0.3,0.1,0.5,0.1,0.5c0.4,0.7,1.2,0.7,1.4,0.7c0.9,0,2.1-0.6,2.4-1.4c0.1-0.3,0.2-0.6,0.2-1.3V353.5z"/>
		<path fill="#D6E7F7" d="M575.5,357.7c-0.1,0-0.2,0-0.3,0c-0.2,0-0.8-0.1-1-0.7c-0.1-0.3-0.1-1.2-0.1-1.5v-4.8h-1.6v-0.8h1.6v-3.2
			h0.9v3.2h1.7v0.8H575v4.2c0,0.3,0,0.5,0,0.8c0,0.4,0,1.1,0.6,1.1c0.4,0,0.8-0.3,1.1-0.5v1C576.5,357.5,576.1,357.7,575.5,357.7z"
			/>
		<path fill="#D6E7F7" d="M584,356.5c-0.4,0.5-1.2,1.2-2.7,1.2c-0.3,0-1,0-1.8-0.4c-1.8-0.9-1.9-3.2-1.9-3.7c0-0.3,0-0.9,0.2-1.6
			c0.5-1.4,1.7-2.4,3.3-2.4c0.5,0,1.6,0.1,2.4,1.1c0.6,0.7,1,1.8,1,2.7v0.2h-5.9c0,0.6,0.1,1,0.1,1.3c0.2,0.6,0.7,1.9,2.4,1.9
			c0.7,0,1.7-0.2,2.4-1.6l0.9,0.3C584.5,355.7,584.3,356.1,584,356.5z M581.2,350.6c-1.3,0-2,0.9-2.2,1.3c-0.1,0.3-0.2,0.7-0.3,1.1
			h4.8C583.3,351,582,350.6,581.2,350.6z"/>
		<path fill="#D6E7F7" d="M590.2,350.7c-0.2,0-0.4,0-0.6,0c-1.2,0-1.9,0.7-2.1,1.8c-0.1,0.4-0.1,0.9-0.1,1.8v3.3h-0.9v-7.6h0.9v1.2
			c0-0.1,0.1-0.3,0.2-0.4c0.1-0.1,0.4-0.5,0.9-0.8c0.2-0.1,0.5-0.2,1.1-0.2c0.1,0,0.3,0,0.6,0L590.2,350.7z"/>
		<path fill="#D6E7F7" d="M597.6,357.7c-0.1,0-0.2,0-0.3,0c-0.2,0-0.8-0.1-1-0.7c-0.1-0.3-0.1-1.2-0.1-1.5v-4.8h-1.6v-0.8h1.6v-3.2
			h0.9v3.2h1.7v0.8h-1.7v4.2c0,0.3,0,0.5,0,0.8c0,0.4,0,1.1,0.6,1.1c0.4,0,0.8-0.3,1.1-0.5v1C598.6,357.5,598.3,357.7,597.6,357.7z"
			/>
		<path fill="#D6E7F7" d="M605.3,357.6v-4.2c0-0.2,0-0.5,0-0.7c0-0.8-0.1-1.5-0.9-1.9c-0.3-0.1-0.6-0.2-0.9-0.2
			c-1.2,0-1.7,0.7-1.9,1.1c-0.3,0.6-0.3,1.2-0.3,2.6v3.3h-1v-11.3h1v4.9c0,0,0.1-0.3,0.3-0.4c0.3-0.4,0.9-1,2.1-1
			c0.3,0,1.4,0.1,2.1,0.9c0.4,0.6,0.5,1.2,0.5,2.5v4.3H605.3z"/>
		<path fill="#D6E7F7" d="M613.6,357.2c-0.3-0.3-0.3-0.6-0.3-1c-0.1,0.2-0.2,0.5-0.4,0.7c-0.3,0.4-1.1,0.9-2.3,0.9
			c-1,0-1.5-0.3-1.8-0.7c-0.2-0.2-0.6-0.7-0.6-1.4c0-0.2,0-0.7,0.4-1.2c0.6-0.7,1.5-0.9,2.4-1.2c0.5-0.1,1-0.3,1.4-0.4l0.9-0.2v-0.4
			c0-0.3,0-0.4-0.1-0.7c-0.2-0.5-0.6-1-1.7-1c-1,0-1.5,0.3-1.7,0.7c-0.2,0.4-0.3,0.8-0.3,1.2l-1-0.2c0-0.2,0.1-0.8,0.4-1.3
			c0.4-0.5,1.1-1.2,2.5-1.2c0.8,0,1.8,0.2,2.3,0.8c0.5,0.6,0.5,1.4,0.5,2.2v2.4c0,0.7,0,1.2,0.3,1.5c0.2,0.2,0.6,0.2,0.9,0.2v0.8
			C614.4,357.6,613.9,357.5,613.6,357.2z M613.3,353.5l-0.5,0.1c-1.5,0.4-2.8,0.7-3.2,1c-0.3,0.2-0.5,0.6-0.5,0.9
			c0,0.3,0.1,0.5,0.1,0.5c0.4,0.7,1.2,0.7,1.4,0.7c0.9,0,2.1-0.6,2.4-1.4c0.1-0.3,0.2-0.6,0.2-1.3V353.5z"/>
		<path fill="#D6E7F7" d="M621.6,357.6v-4c0-1,0-1.6-0.2-2.1c-0.2-0.4-0.4-0.6-0.6-0.7c-0.4-0.3-0.9-0.2-1-0.2c-0.2,0-0.6,0-1,0.2
			c-0.6,0.3-1,0.9-1.2,1.5c-0.1,0.4-0.1,1-0.1,1.9v3.3h-0.9v-7.6h0.9v1.4c0.1-0.2,0.2-0.5,0.5-0.8c0.3-0.3,0.8-0.7,1.9-0.7
			c1.4,0,2.1,0.8,2.3,1.3c0.3,0.6,0.3,1.2,0.3,2.5v4H621.6z"/>
		<path fill="#D6E7F7" d="M635.6,352.1c-1.1,1.8-3.5,3.4-3.8,3.6c-0.8,0.6-1.5,0.9-1.5,0.9h5.7v0.9h-7.1v-0.9l0.2-0.1
			c0.3-0.2,0.7-0.4,1-0.7c0.7-0.5,1.3-0.9,2-1.5c0.1-0.1,1.1-0.9,1.8-1.6c0.4-0.4,1.5-1.5,1.5-3.2c0-0.5-0.1-0.9-0.3-1.4
			c-0.7-1.2-2.1-1.3-2.5-1.3c-1,0-2,0.4-2.4,1.4c-0.1,0.2-0.3,0.6-0.3,1.2c0,1,0.6,1.7,0.8,1.9l-1.3-0.2c-0.4-0.9-0.4-1.4-0.4-1.9
			c0-0.7,0.2-1.2,0.3-1.4c0.4-0.8,1.3-1.9,3.4-1.9c0.6,0,2.6,0.1,3.5,1.9c0.1,0.3,0.4,0.9,0.4,1.7
			C636.4,350.2,636.3,351,635.6,352.1z"/>
		<path fill="#D6E7F7" d="M643.7,349.8c-1.8,3.3-2.1,6.3-2.3,7.7h-1.1c0.2-2.8,1.1-5.5,2.5-7.8c0.5-0.9,1.1-1.7,1.6-2.5h-5.3v2.5
			h-0.9v-3.5h7.2v0.9C644.5,348.4,644,349.2,643.7,349.8z"/>
		<path fill="#D6E7F7" d="M647.3,357.6v-1.9h1.3v1.9H647.3z"/>
		<path fill="#D6E7F7" d="M656.9,352.1c-1.1,1.8-3.5,3.4-3.8,3.6c-0.8,0.6-1.5,0.9-1.5,0.9h5.7v0.9h-7.1v-0.9l0.2-0.1
			c0.3-0.2,0.7-0.4,1-0.7c0.7-0.5,1.3-0.9,2-1.5c0.1-0.1,1.1-0.9,1.8-1.6c0.4-0.4,1.5-1.5,1.5-3.2c0-0.5-0.1-0.9-0.3-1.4
			c-0.7-1.2-2.1-1.3-2.5-1.3c-1,0-2,0.4-2.4,1.4c-0.1,0.2-0.3,0.6-0.3,1.2c0,1,0.6,1.7,0.8,1.9l-1.3-0.2c-0.4-0.9-0.4-1.4-0.4-1.9
			c0-0.7,0.2-1.2,0.3-1.4c0.4-0.8,1.3-1.9,3.4-1.9c0.6,0,2.6,0.1,3.5,1.9c0.1,0.3,0.4,0.9,0.4,1.7
			C657.7,350.2,657.6,351,656.9,352.1z"/>
		<path fill="#D6E7F7" d="M670.1,358.6c0,0.3,0,1.3-0.8,2c-0.4,0.4-1.2,0.9-2.6,0.9c-0.4,0-2.2,0-3-1.5c-0.3-0.5-0.3-1.1-0.3-1.3
			l1-0.2c0.1,0.8,0.4,2.1,2.4,2.1c0.3,0,1.6,0,2.1-1c0.3-0.5,0.2-1.1,0.3-2.3c0-0.3,0-0.6,0-0.8v-0.4c0,0-0.1,0.3-0.2,0.4
			c-0.3,0.5-1,1.2-2.4,1.2c-0.8,0-1.3-0.2-1.6-0.4c-1.7-1-1.8-3.2-1.8-3.6c0-1.3,0.4-2.8,1.6-3.5c0.3-0.2,0.9-0.4,1.7-0.4
			c0.3,0,1.1,0,1.8,0.6c0.3,0.2,0.5,0.5,0.5,0.6c0.1,0.2,0.1,0.3,0.1,0.3v-1.4h0.9v6.8C670.1,357.4,670.2,358,670.1,358.6z
			 M668.7,351.4c-0.2-0.3-0.8-0.8-1.8-0.8c-0.1,0-0.5,0-0.9,0.1c-1.6,0.6-1.6,2.6-1.6,3c0,1.1,0.3,1.9,0.6,2.3
			c0.2,0.3,0.6,0.6,0.9,0.8c0.4,0.2,0.8,0.2,0.9,0.2c0.2,0,0.9,0,1.5-0.4c0.8-0.6,0.9-1.7,1-2.6
			C669.2,353.7,669.3,352.3,668.7,351.4z"/>
		<path fill="#D6E7F7" d="M676.2,350.7c-0.2,0-0.4,0-0.6,0c-1.2,0-1.9,0.7-2.1,1.8c-0.1,0.4-0.1,0.9-0.1,1.8v3.3h-0.9v-7.6h0.9v1.2
			c0-0.1,0.1-0.3,0.2-0.4c0.1-0.1,0.4-0.5,0.9-0.8c0.2-0.1,0.5-0.2,1.1-0.2c0.1,0,0.3,0,0.6,0L676.2,350.7z"/>
		<path fill="#D6E7F7" d="M682.5,357.2c-0.3-0.3-0.3-0.6-0.3-1c-0.1,0.2-0.2,0.5-0.4,0.7c-0.3,0.4-1.1,0.9-2.3,0.9
			c-1,0-1.5-0.3-1.8-0.7c-0.2-0.2-0.6-0.7-0.6-1.4c0-0.2,0-0.7,0.4-1.2c0.6-0.7,1.5-0.9,2.4-1.2c0.5-0.1,1-0.3,1.4-0.4l0.9-0.2v-0.4
			c0-0.3,0-0.4-0.1-0.7c-0.2-0.5-0.6-1-1.7-1c-1,0-1.5,0.3-1.7,0.7c-0.2,0.4-0.3,0.8-0.3,1.2l-1-0.2c0-0.2,0.1-0.8,0.4-1.3
			c0.4-0.5,1.1-1.2,2.5-1.2c0.8,0,1.8,0.2,2.3,0.8c0.5,0.6,0.5,1.4,0.5,2.2v2.4c0,0.7,0,1.2,0.3,1.5c0.2,0.2,0.6,0.2,0.9,0.2v0.8
			C683.3,357.6,682.8,357.5,682.5,357.2z M682.2,353.5l-0.5,0.1c-1.5,0.4-2.8,0.7-3.2,1c-0.3,0.2-0.5,0.6-0.5,0.9
			c0,0.3,0.1,0.5,0.1,0.5c0.4,0.7,1.2,0.7,1.4,0.7c0.9,0,2.1-0.6,2.4-1.4c0.1-0.3,0.2-0.6,0.2-1.3V353.5z"/>
		<path fill="#D6E7F7" d="M694.6,357.6v-4.1c0-1.3,0.1-2-0.5-2.5c-0.4-0.3-0.8-0.3-0.9-0.3c-0.8,0-1.4,0.5-1.8,1.2
			c-0.3,0.6-0.3,1.2-0.3,2.5v3.2h-0.9v-4.2c0-1,0-1.6-0.2-2c-0.3-0.5-0.7-0.7-1.2-0.7c-0.4,0-1.2,0.1-1.7,1
			c-0.4,0.7-0.4,1.4-0.4,2.8v3.1h-0.9v-7.6h0.9v1.6c0-0.1,0.1-0.4,0.2-0.6c0.4-0.8,1.2-1.1,2.1-1.1c1.2,0,1.8,0.7,1.9,1.2
			c0.1,0.2,0.1,0.4,0.2,0.8c0.1-0.4,0.2-0.6,0.3-0.8c0.2-0.4,0.8-1.1,2.1-1.1c0.5,0,1,0.1,1.4,0.4c0.9,0.6,0.9,1.7,0.9,3.6v3.8
			H694.6z"/>
		<path fill="#D6E7F7" d="M702.9,356.4c-0.3,0.6-1.1,1.3-2.6,1.3c-0.5,0-1.7-0.1-2.6-1.2c-0.2-0.3-0.4-0.6-0.5-0.9l0.9-0.3
			c0.1,0.5,0.7,1.5,2.1,1.5c0.7,0,1.2-0.2,1.4-0.4c0.3-0.3,0.5-0.7,0.5-1.1c0-0.2-0.1-0.5-0.2-0.7c-0.2-0.3-0.6-0.5-1.4-0.7
			c-0.8-0.2-1.9-0.3-2.5-1c-0.3-0.3-0.4-0.8-0.4-1.2c0-0.2,0.1-1,0.7-1.5c0.5-0.5,1.4-0.6,2.1-0.6c0.2,0,1.2,0,1.9,0.5
			c0.6,0.4,0.8,1,0.8,1.2l-0.9,0.2c-0.2-0.9-1.1-1.1-1.9-1.1c-0.6,0-1,0.1-1.2,0.3c-0.1,0-0.2,0.2-0.3,0.3c-0.2,0.3-0.2,0.5-0.2,0.7
			c0,0.9,0.9,1.1,1.6,1.2l0.8,0.2c0.7,0.1,1.3,0.4,1.7,1c0.4,0.5,0.4,0.9,0.4,1.2C703.2,355.6,703.1,356,702.9,356.4z"/>
		<path fill="#D6E7F7" d="M712.7,360.1c-2.5-1.9-3.9-4.7-3.9-7.8c0-1,0.2-2.2,0.5-3.2c0.4-1.2,1-2.2,1.8-3.1
			c0.5-0.5,0.7-0.7,1.5-1.3l0.4,0.5c-0.8,0.7-1,0.9-1.5,1.5c-1,1.4-1.6,3.3-1.6,5.5c0,1.7,0.4,3.4,1.1,4.8c0.3,0.6,0.6,1.1,1,1.5
			c0.3,0.4,0.5,0.6,1,0.9L712.7,360.1z"/>
		<path fill="#D6E7F7" d="M716.3,357.7c-0.1,0-0.2,0-0.3,0c-0.2,0-0.8-0.1-1-0.7c-0.1-0.3-0.1-1.2-0.1-1.5v-4.8h-1.6v-0.8h1.6v-3.2
			h0.9v3.2h1.7v0.8h-1.7v4.2c0,0.3,0,0.5,0,0.8c0,0.4,0,1.1,0.6,1.1c0.4,0,0.8-0.3,1.1-0.5v1C717.3,357.5,716.9,357.7,716.3,357.7z"
			/>
		<path fill="#D6E7F7" d="M726,357.6h-0.8l-1.9-6.3l-1.9,6.3h-0.8l-2.6-7.6h0.9l2,6.2l1.9-6.2h0.8l1.9,6.2l1.9-6.2h0.9L726,357.6z"
			/>
		<path fill="#D6E7F7" d="M736.2,355.2c-0.5,1.5-1.7,2.5-3.3,2.5c-0.5,0-1.7-0.1-2.6-1.3c-0.3-0.5-0.8-1.3-0.8-2.6
			c0-0.3,0-1.1,0.4-1.9c0.8-1.9,2.4-2.2,3.1-2.2c0.9,0,1.6,0.3,2.2,0.8c0.8,0.8,1.2,2,1.2,3.1C736.4,354,736.4,354.6,736.2,355.2z
			 M732.9,350.5c-0.2,0-0.8,0-1.4,0.4c-0.6,0.4-1.1,1.3-1.1,2.9c0,0.3,0,1.8,1,2.6c0.2,0.2,0.7,0.4,1.4,0.4c1.1,0,2.5-0.7,2.5-3.1
			C735.4,351.3,734.2,350.5,732.9,350.5z"/>
		<path fill="#D6E7F7" d="M503.7,375.6c-0.3,0.6-1.1,1.3-2.6,1.3c-0.5,0-1.7-0.1-2.6-1.2c-0.2-0.3-0.4-0.6-0.5-0.9l0.9-0.3
			c0.1,0.5,0.7,1.5,2.1,1.5c0.7,0,1.2-0.2,1.4-0.4c0.3-0.3,0.5-0.7,0.5-1.1c0-0.2-0.1-0.5-0.2-0.7c-0.2-0.3-0.6-0.5-1.4-0.7
			c-0.8-0.2-1.9-0.3-2.5-1c-0.3-0.3-0.4-0.8-0.4-1.2c0-0.2,0.1-1,0.7-1.5c0.5-0.5,1.4-0.6,2.1-0.6c0.2,0,1.2,0,1.9,0.5
			c0.6,0.4,0.8,1,0.8,1.2l-0.9,0.2c-0.2-0.9-1.1-1.1-1.9-1.1c-0.6,0-1,0.1-1.2,0.3c-0.1,0-0.2,0.2-0.3,0.3c-0.2,0.3-0.2,0.5-0.2,0.7
			c0,0.9,0.9,1.1,1.6,1.2l0.8,0.2c0.7,0.1,1.3,0.4,1.7,1c0.4,0.5,0.4,0.9,0.4,1.2C503.9,374.8,503.9,375.2,503.7,375.6z"/>
		<path fill="#D6E7F7" d="M508,376.9c-0.1,0-0.2,0-0.3,0c-0.2,0-0.8-0.1-1-0.7c-0.1-0.3-0.1-1.2-0.1-1.5v-4.8H505v-0.8h1.6v-3.2h0.9
			v3.2h1.7v0.8h-1.7v4.2c0,0.3,0,0.5,0,0.8c0,0.4,0,1.1,0.6,1.1c0.4,0,0.8-0.3,1.1-0.5v1C509,376.7,508.6,376.9,508,376.9z"/>
		<path fill="#D6E7F7" d="M515.6,376.4c-0.3-0.3-0.3-0.6-0.3-1c-0.1,0.2-0.2,0.5-0.4,0.7c-0.3,0.4-1.1,0.9-2.3,0.9
			c-1,0-1.5-0.3-1.8-0.7c-0.2-0.2-0.6-0.7-0.6-1.4c0-0.2,0-0.7,0.4-1.2c0.6-0.7,1.5-0.9,2.4-1.2c0.5-0.1,1-0.3,1.4-0.4l0.9-0.2v-0.4
			c0-0.3,0-0.4-0.1-0.7c-0.2-0.5-0.6-1-1.7-1c-1,0-1.5,0.3-1.7,0.7c-0.2,0.4-0.3,0.8-0.3,1.2l-1-0.2c0-0.2,0.1-0.8,0.4-1.3
			c0.4-0.5,1.1-1.2,2.5-1.2c0.8,0,1.8,0.2,2.3,0.8c0.5,0.6,0.5,1.4,0.5,2.2v2.4c0,0.7,0,1.2,0.3,1.5c0.2,0.2,0.6,0.2,0.9,0.2v0.8
			C516.4,376.8,515.9,376.7,515.6,376.4z M515.3,372.7l-0.5,0.1c-1.5,0.4-2.8,0.7-3.2,1c-0.3,0.2-0.5,0.6-0.5,0.9
			c0,0.3,0.1,0.5,0.1,0.5c0.4,0.7,1.2,0.7,1.4,0.7c0.9,0,2.1-0.6,2.4-1.4c0.1-0.3,0.2-0.6,0.2-1.3V372.7z"/>
		<path fill="#D6E7F7" d="M523.7,376.8v-4c0-1,0-1.6-0.2-2.1c-0.2-0.4-0.4-0.6-0.6-0.7c-0.4-0.3-0.9-0.2-1-0.2c-0.2,0-0.6,0-1,0.2
			c-0.6,0.3-1,0.9-1.2,1.5c-0.1,0.4-0.1,1-0.1,1.9v3.3h-0.9v-7.6h0.9v1.4c0.1-0.2,0.2-0.5,0.5-0.8c0.3-0.3,0.8-0.7,1.9-0.7
			c1.4,0,2.1,0.8,2.3,1.3c0.3,0.6,0.3,1.2,0.3,2.5v4H523.7z"/>
		<path fill="#D6E7F7" d="M532,376.8v-1.4c-0.4,1-1.3,1.6-2.4,1.6c-0.3,0-0.9,0-1.6-0.5c-1.5-1-1.6-3.1-1.6-3.5
			c0-0.5,0.1-2.5,1.6-3.5c0.3-0.2,0.8-0.5,1.6-0.5c0.6,0,1.2,0.2,1.7,0.6c0.4,0.3,0.4,0.6,0.5,0.8v-4.9h0.9v11.3H532z M531.1,370.2
			c-0.2-0.1-0.6-0.4-1.3-0.4c-0.2,0-0.6,0-1,0.2c-0.7,0.4-1.3,1.2-1.3,2.9c0,0.3,0,3.1,2.3,3.1c0.6,0,1.1-0.2,1.5-0.6
			c0.6-0.7,0.7-1.6,0.7-2.5C532,371.5,531.8,370.7,531.1,370.2z"/>
		<path fill="#D6E7F7" d="M540.3,376.4c-0.3-0.3-0.3-0.6-0.3-1c-0.1,0.2-0.2,0.5-0.4,0.7c-0.3,0.4-1.1,0.9-2.3,0.9
			c-1,0-1.5-0.3-1.8-0.7c-0.2-0.2-0.6-0.7-0.6-1.4c0-0.2,0-0.7,0.4-1.2c0.6-0.7,1.5-0.9,2.4-1.2c0.5-0.1,1-0.3,1.4-0.4l0.9-0.2v-0.4
			c0-0.3,0-0.4-0.1-0.7c-0.2-0.5-0.6-1-1.7-1c-1,0-1.5,0.3-1.7,0.7c-0.2,0.4-0.3,0.8-0.3,1.2l-1-0.2c0-0.2,0.1-0.8,0.4-1.3
			c0.4-0.5,1.1-1.2,2.5-1.2c0.8,0,1.8,0.2,2.3,0.8c0.5,0.6,0.5,1.4,0.5,2.2v2.4c0,0.7,0,1.2,0.3,1.5c0.2,0.2,0.6,0.2,0.9,0.2v0.8
			C541.1,376.8,540.6,376.7,540.3,376.4z M540,372.7l-0.5,0.1c-1.5,0.4-2.8,0.7-3.2,1c-0.3,0.2-0.5,0.6-0.5,0.9
			c0,0.3,0.1,0.5,0.1,0.5c0.4,0.7,1.2,0.7,1.4,0.7c0.9,0,2.1-0.6,2.4-1.4c0.1-0.3,0.2-0.6,0.2-1.3V372.7z"/>
		<path fill="#D6E7F7" d="M547,369.9c-0.2,0-0.4,0-0.6,0c-1.2,0-1.9,0.7-2.1,1.8c-0.1,0.4-0.1,0.9-0.1,1.8v3.3h-0.9v-7.6h0.9v1.2
			c0-0.1,0.1-0.3,0.2-0.4c0.1-0.1,0.4-0.5,0.9-0.8c0.2-0.1,0.5-0.2,1.1-0.2c0.1,0,0.3,0,0.6,0L547,369.9z"/>
		<path fill="#D6E7F7" d="M553.4,376.8v-1.4c-0.4,1-1.3,1.6-2.4,1.6c-0.3,0-0.9,0-1.6-0.5c-1.5-1-1.6-3.1-1.6-3.5
			c0-0.5,0.1-2.5,1.6-3.5c0.3-0.2,0.8-0.5,1.6-0.5c0.6,0,1.2,0.2,1.7,0.6c0.4,0.3,0.4,0.6,0.5,0.8v-4.9h0.9v11.3H553.4z
			 M552.5,370.2c-0.2-0.1-0.6-0.4-1.3-0.4c-0.2,0-0.6,0-1,0.2c-0.7,0.4-1.3,1.2-1.3,2.9c0,0.3,0,3.1,2.3,3.1c0.6,0,1.1-0.2,1.5-0.6
			c0.6-0.7,0.7-1.6,0.7-2.5C553.4,371.5,553.1,370.7,552.5,370.2z"/>
		<path fill="#D6E7F7" d="M565.8,376.8v-1.4c-0.4,1-1.3,1.6-2.4,1.6c-0.3,0-0.9,0-1.6-0.5c-1.5-1-1.6-3.1-1.6-3.5
			c0-0.5,0.1-2.5,1.6-3.5c0.3-0.2,0.8-0.5,1.6-0.5c0.6,0,1.2,0.2,1.7,0.6c0.4,0.3,0.4,0.6,0.5,0.8v-4.9h0.9v11.3H565.8z
			 M564.9,370.2c-0.2-0.1-0.6-0.4-1.3-0.4c-0.2,0-0.6,0-1,0.2c-0.7,0.4-1.3,1.2-1.3,2.9c0,0.3,0,3.1,2.3,3.1c0.6,0,1.1-0.2,1.5-0.6
			c0.6-0.7,0.7-1.6,0.7-2.5C565.9,371.5,565.6,370.7,564.9,370.2z"/>
		<path fill="#D6E7F7" d="M572.8,369.9c-0.2,0-0.4,0-0.6,0c-1.2,0-1.9,0.7-2.1,1.8c-0.1,0.4-0.1,0.9-0.1,1.8v3.3h-0.9v-7.6h0.9v1.2
			c0-0.1,0.1-0.3,0.2-0.4c0.1-0.1,0.4-0.5,0.9-0.8c0.2-0.1,0.5-0.2,1.1-0.2c0.1,0,0.3,0,0.6,0L572.8,369.9z"/>
		<path fill="#D6E7F7" d="M574.2,367.3v-1.5h0.9v1.5H574.2z M574.2,376.8v-7.6h0.9v7.6H574.2z"/>
		<path fill="#D6E7F7" d="M582.5,376.8v-4c0-1,0-1.6-0.2-2.1c-0.2-0.4-0.4-0.6-0.6-0.7c-0.4-0.3-0.9-0.2-1-0.2c-0.2,0-0.6,0-1,0.2
			c-0.6,0.3-1,0.9-1.2,1.5c-0.1,0.4-0.1,1-0.1,1.9v3.3h-0.9v-7.6h0.9v1.4c0.1-0.2,0.2-0.5,0.5-0.8c0.3-0.3,0.8-0.7,1.9-0.7
			c1.4,0,2.1,0.8,2.3,1.3c0.3,0.6,0.3,1.2,0.3,2.5v4H582.5z"/>
		<path fill="#D6E7F7" d="M591.3,376.8l-2.9-4l-1.6,1.6v2.4h-0.9v-11.3h0.9v7.7l4.3-4h1.2l-3.2,3l3.4,4.6H591.3z"/>
		<path fill="#D6E7F7" d="M598.8,375.6c-0.3,0.6-1.1,1.3-2.6,1.3c-0.5,0-1.7-0.1-2.6-1.2c-0.2-0.3-0.4-0.6-0.5-0.9l0.9-0.3
			c0.1,0.5,0.7,1.5,2.1,1.5c0.7,0,1.2-0.2,1.4-0.4c0.3-0.3,0.5-0.7,0.5-1.1c0-0.2-0.1-0.5-0.2-0.7c-0.2-0.3-0.6-0.5-1.4-0.7
			c-0.8-0.2-1.9-0.3-2.5-1c-0.3-0.3-0.4-0.8-0.4-1.2c0-0.2,0.1-1,0.7-1.5c0.5-0.5,1.4-0.6,2.1-0.6c0.2,0,1.2,0,1.9,0.5
			c0.6,0.4,0.8,1,0.8,1.2l-0.9,0.2c-0.2-0.9-1.1-1.1-1.9-1.1c-0.6,0-1,0.1-1.2,0.3c-0.1,0-0.2,0.2-0.3,0.3c-0.2,0.3-0.2,0.5-0.2,0.7
			c0,0.9,0.9,1.1,1.6,1.2l0.8,0.2c0.7,0.1,1.3,0.4,1.7,1c0.4,0.5,0.4,0.9,0.4,1.2C599.1,374.8,599.1,375.2,598.8,375.6z"/>
		<path fill="#D6E7F7" d="M603.8,374.9c-0.4,1.2-1,2.2-1.8,3.1c-0.5,0.5-0.7,0.7-1.5,1.2l-0.4-0.5c0.8-0.7,1-0.9,1.5-1.5
			c1-1.4,1.6-3.4,1.6-5.5c0-1.7-0.4-3.4-1.1-4.8c-0.3-0.5-0.6-1-1-1.5c-0.3-0.4-0.5-0.6-1-0.9l0.4-0.6c2.5,1.9,3.9,4.7,3.9,7.8
			C604.3,372.8,604.1,373.9,603.8,374.9z"/>
	</g>
	<g>
		<rect x="23.1" y="199.9" fill="none" width="279.2" height="113"/>
		<path fill="#D6E7F7" d="M32.3,205.1c-0.3,0.4-0.7,0.6-0.8,0.7c-0.8,0.4-1.7,0.4-3.5,0.4h-2.5v5.1h-1v-11.3h3.9c0.7,0,1.3,0,2,0
			c0.8,0.1,1.4,0.2,1.9,0.8c0.3,0.4,0.7,1.1,0.7,2.2C33,203.7,32.8,204.5,32.3,205.1z M31.6,201.7c-0.5-0.9-1.3-0.9-2.2-0.9
			c-0.4,0-0.8,0-1.2,0h-2.7v4.4h2.4c0.5,0,1,0,1.5,0c0.8,0,1.6,0,2.1-0.7c0.2-0.3,0.5-0.7,0.5-1.5C31.9,202.8,31.9,202.2,31.6,201.7
			z"/>
		<path fill="#D6E7F7" d="M39.7,210.2c-0.4,0.5-1.2,1.2-2.7,1.2c-0.3,0-1,0-1.8-0.4c-1.8-0.9-1.9-3.2-1.9-3.7c0-0.3,0-0.9,0.2-1.6
			c0.5-1.4,1.7-2.4,3.3-2.4c0.5,0,1.6,0.1,2.4,1.1c0.6,0.7,1,1.8,1,2.7v0.2h-5.9c0,0.6,0.1,1,0.1,1.3c0.2,0.6,0.7,1.9,2.4,1.9
			c0.7,0,1.7-0.2,2.4-1.6l0.9,0.3C40.2,209.4,40,209.8,39.7,210.2z M36.8,204.2c-1.3,0-2,0.9-2.2,1.3c-0.1,0.3-0.2,0.7-0.3,1.1h4.8
			C39,204.7,37.6,204.2,36.8,204.2z"/>
		<path fill="#D6E7F7" d="M45.8,204.4c-0.2,0-0.4,0-0.6,0c-1.2,0-1.9,0.7-2.1,1.8c-0.1,0.4-0.1,0.9-0.1,1.8v3.3h-0.9v-7.6h0.9v1.2
			c0-0.1,0.1-0.3,0.2-0.4c0.1-0.1,0.4-0.5,0.9-0.8c0.2-0.1,0.5-0.2,1.1-0.2c0.1,0,0.3,0,0.6,0L45.8,204.4z"/>
		<path fill="#D6E7F7" d="M52.4,210.7c-0.4,0.3-1.1,0.8-2.2,0.8c-0.4,0-1.5,0-2.3-0.9c-1.1-1.1-1.2-2.7-1.2-3.1
			c0-0.6,0.1-1.1,0.2-1.6c0.5-1.6,1.8-2.5,3.4-2.5c1.2,0,1.9,0.5,2.2,0.8c0.4,0.4,0.6,0.8,0.7,1.1l-0.9,0.2
			c-0.3-0.8-1.2-1.3-2.1-1.3c-0.3,0-1,0-1.6,0.6c-1,0.8-1,2.3-1,2.6c0,0.2,0,1.5,0.7,2.4c0.1,0.1,0.3,0.4,0.8,0.6
			c0.2,0.1,0.5,0.2,1,0.2c1,0,1.6-0.4,2.1-1.3l1,0.2C53,210,52.7,210.3,52.4,210.7z"/>
		<path fill="#D6E7F7" d="M60.7,210.2c-0.4,0.5-1.2,1.2-2.7,1.2c-0.3,0-1,0-1.8-0.4c-1.8-0.9-1.9-3.2-1.9-3.7c0-0.3,0-0.9,0.2-1.6
			c0.5-1.4,1.7-2.4,3.3-2.4c0.5,0,1.6,0.1,2.4,1.1c0.6,0.7,1,1.8,1,2.7v0.2h-5.9c0,0.6,0.1,1,0.1,1.3c0.2,0.6,0.7,1.9,2.4,1.9
			c0.7,0,1.7-0.2,2.4-1.6l0.9,0.3C61.2,209.4,61,209.8,60.7,210.2z M57.8,204.2c-1.3,0-2,0.9-2.2,1.3c-0.1,0.3-0.2,0.7-0.3,1.1h4.8
			C60,204.7,58.7,204.2,57.8,204.2z"/>
		<path fill="#D6E7F7" d="M68.1,211.2v-4c0-1,0-1.6-0.2-2.1c-0.2-0.4-0.4-0.6-0.6-0.7c-0.4-0.3-0.9-0.2-1-0.2c-0.2,0-0.6,0-1,0.2
			c-0.6,0.3-1,0.9-1.2,1.5c-0.1,0.4-0.1,1-0.1,1.9v3.3h-0.9v-7.6h0.9v1.4c0.1-0.2,0.2-0.5,0.5-0.8c0.3-0.3,0.8-0.7,1.9-0.7
			c1.4,0,2.1,0.8,2.3,1.3c0.3,0.6,0.3,1.2,0.3,2.5v4H68.1z"/>
		<path fill="#D6E7F7" d="M73.5,211.4c-0.1,0-0.2,0-0.3,0c-0.2,0-0.8-0.1-1-0.7c-0.1-0.3-0.1-1.2-0.1-1.5v-4.8h-1.6v-0.8h1.6v-3.2
			H73v3.2h1.7v0.8H73v4.2c0,0.3,0,0.5,0,0.8c0,0.4,0,1.1,0.6,1.1c0.4,0,0.8-0.3,1.1-0.5v1C74.5,211.2,74.1,211.4,73.5,211.4z"/>
		<path fill="#D6E7F7" d="M81.1,210.8c-0.3-0.3-0.3-0.6-0.3-1c-0.1,0.2-0.2,0.5-0.4,0.7c-0.3,0.4-1.1,0.9-2.3,0.9
			c-1,0-1.5-0.3-1.8-0.7c-0.2-0.2-0.6-0.7-0.6-1.4c0-0.2,0-0.7,0.4-1.2c0.6-0.7,1.5-0.9,2.4-1.2c0.5-0.1,1-0.3,1.4-0.4l0.9-0.2V206
			c0-0.3,0-0.4-0.1-0.7c-0.2-0.5-0.6-1-1.7-1c-1,0-1.5,0.3-1.7,0.7c-0.2,0.4-0.3,0.8-0.3,1.2l-1-0.2c0-0.2,0.1-0.8,0.4-1.3
			c0.4-0.5,1.1-1.2,2.5-1.2c0.8,0,1.8,0.2,2.3,0.8c0.5,0.6,0.5,1.4,0.5,2.2v2.4c0,0.7,0,1.2,0.3,1.5c0.2,0.2,0.6,0.2,0.9,0.2v0.8
			C81.9,211.2,81.4,211.1,81.1,210.8z M80.8,207.2l-0.5,0.1c-1.5,0.4-2.8,0.7-3.2,1c-0.3,0.2-0.5,0.6-0.5,0.9c0,0.3,0.1,0.5,0.1,0.5
			c0.4,0.7,1.2,0.7,1.4,0.7c0.9,0,2.1-0.6,2.4-1.4c0.1-0.3,0.2-0.6,0.2-1.3V207.2z"/>
		<path fill="#D6E7F7" d="M90.4,212.2c0,0.3,0,1.3-0.8,2c-0.4,0.4-1.2,0.9-2.6,0.9c-0.4,0-2.2,0-3-1.5c-0.3-0.5-0.3-1.1-0.3-1.3
			l1-0.2c0.1,0.8,0.4,2.1,2.4,2.1c0.3,0,1.6,0,2.1-1c0.3-0.5,0.2-1.1,0.3-2.3c0-0.3,0-0.6,0-0.8v-0.4c0,0-0.1,0.3-0.2,0.4
			c-0.3,0.5-1,1.2-2.4,1.2c-0.8,0-1.3-0.2-1.6-0.4c-1.7-1-1.8-3.2-1.8-3.6c0-1.3,0.4-2.8,1.6-3.5c0.3-0.2,0.9-0.4,1.7-0.4
			c0.3,0,1.1,0,1.8,0.6c0.3,0.2,0.5,0.5,0.5,0.6c0.1,0.2,0.1,0.3,0.1,0.3v-1.4h0.9v6.8C90.4,211,90.4,211.6,90.4,212.2z M88.9,205.1
			c-0.2-0.3-0.8-0.8-1.8-0.8c-0.1,0-0.5,0-0.9,0.1c-1.6,0.6-1.6,2.6-1.6,3c0,1.1,0.3,1.9,0.6,2.3c0.2,0.3,0.6,0.6,0.9,0.8
			c0.4,0.2,0.8,0.2,0.9,0.2c0.2,0,0.9,0,1.5-0.4c0.8-0.6,0.9-1.7,1-2.6C89.5,207.3,89.5,205.9,88.9,205.1z"/>
		<path fill="#D6E7F7" d="M98.7,210.2c-0.4,0.5-1.2,1.2-2.7,1.2c-0.3,0-1,0-1.8-0.4c-1.8-0.9-1.9-3.2-1.9-3.7c0-0.3,0-0.9,0.2-1.6
			c0.5-1.4,1.7-2.4,3.3-2.4c0.5,0,1.6,0.1,2.4,1.1c0.6,0.7,1,1.8,1,2.7v0.2h-5.9c0,0.6,0.1,1,0.1,1.3c0.2,0.6,0.7,1.9,2.4,1.9
			c0.7,0,1.7-0.2,2.4-1.6l0.9,0.3C99.2,209.4,99,209.8,98.7,210.2z M95.8,204.2c-1.3,0-2,0.9-2.2,1.3c-0.1,0.3-0.2,0.7-0.3,1.1h4.8
			C98,204.7,96.7,204.2,95.8,204.2z"/>
		<path fill="#D6E7F7" d="M112.3,211.2h-0.8l-1.9-6.3l-1.9,6.3H107l-2.6-7.6h0.9l2,6.2l1.9-6.2h0.8l1.9,6.2l1.9-6.2h0.9L112.3,211.2
			z"/>
		<path fill="#D6E7F7" d="M116.3,201.8v-1.5h0.9v1.5H116.3z M116.3,211.2v-7.6h0.9v7.6H116.3z"/>
		<path fill="#D6E7F7" d="M121.6,211.4c-0.1,0-0.2,0-0.3,0c-0.2,0-0.8-0.1-1-0.7c-0.1-0.3-0.1-1.2-0.1-1.5v-4.8h-1.6v-0.8h1.6v-3.2
			h0.9v3.2h1.7v0.8h-1.7v4.2c0,0.3,0,0.5,0,0.8c0,0.4,0,1.1,0.6,1.1c0.4,0,0.8-0.3,1.1-0.5v1C122.6,211.2,122.3,211.4,121.6,211.4z"
			/>
		<path fill="#D6E7F7" d="M129.3,211.2v-4.2c0-0.2,0-0.5,0-0.7c0-0.8-0.1-1.5-0.9-1.9c-0.3-0.1-0.6-0.2-0.9-0.2
			c-1.2,0-1.7,0.7-1.9,1.1c-0.3,0.6-0.3,1.2-0.3,2.6v3.3h-1v-11.3h1v4.9c0,0,0.1-0.3,0.3-0.4c0.3-0.4,0.9-1,2.1-1
			c0.3,0,1.4,0.1,2.1,0.9c0.4,0.6,0.5,1.2,0.5,2.5v4.3H129.3z"/>
		<path fill="#D6E7F7" d="M141.8,211.2v-1.4c-0.1,0.3-0.2,0.4-0.3,0.6c-0.7,1-1.7,1-2.1,1c-0.1,0-0.5,0-0.9-0.1
			c-0.7-0.2-1.2-0.8-1.5-1.5c-0.2-0.5-0.2-1.2-0.2-2.4v-3.7h1v4c0,0.9,0,1.4,0.1,1.9c0.1,0.5,0.5,1.1,1.6,1.1c0.4,0,1.2,0,1.8-0.8
			c0.6-0.8,0.5-1.8,0.5-2.7v-3.3h0.9v7.6H141.8z"/>
		<path fill="#D6E7F7" d="M150.1,210.1c-0.3,0.6-1.1,1.3-2.6,1.3c-0.5,0-1.7-0.1-2.6-1.2c-0.2-0.3-0.4-0.6-0.5-0.9l0.9-0.3
			c0.1,0.5,0.7,1.5,2.1,1.5c0.7,0,1.2-0.2,1.4-0.4c0.3-0.3,0.5-0.7,0.5-1.1c0-0.2-0.1-0.5-0.2-0.7c-0.2-0.3-0.6-0.5-1.4-0.7
			c-0.8-0.2-1.9-0.3-2.5-1c-0.3-0.3-0.4-0.8-0.4-1.2c0-0.2,0.1-1,0.7-1.5c0.5-0.5,1.4-0.6,2.1-0.6c0.2,0,1.2,0,1.9,0.5
			c0.6,0.4,0.8,1,0.8,1.2l-0.9,0.2c-0.2-0.9-1.1-1.1-1.9-1.1c-0.6,0-1,0.1-1.2,0.3c-0.1,0-0.2,0.2-0.3,0.3c-0.2,0.3-0.2,0.5-0.2,0.7
			c0,0.9,0.9,1.1,1.6,1.2l0.8,0.2c0.7,0.1,1.3,0.4,1.7,1c0.4,0.5,0.4,0.9,0.4,1.2C150.4,209.2,150.3,209.7,150.1,210.1z"/>
		<path fill="#D6E7F7" d="M157.4,211.2v-1.4c-0.1,0.3-0.2,0.4-0.3,0.6c-0.7,1-1.7,1-2.1,1c-0.1,0-0.5,0-0.9-0.1
			c-0.7-0.2-1.2-0.8-1.5-1.5c-0.2-0.5-0.2-1.2-0.2-2.4v-3.7h1v4c0,0.9,0,1.4,0.1,1.9c0.1,0.5,0.5,1.1,1.6,1.1c0.4,0,1.2,0,1.8-0.8
			c0.6-0.8,0.5-1.8,0.5-2.7v-3.3h0.9v7.6H157.4z"/>
		<path fill="#D6E7F7" d="M165.7,210.8c-0.3-0.3-0.3-0.6-0.3-1c-0.1,0.2-0.2,0.5-0.4,0.7c-0.3,0.4-1.1,0.9-2.3,0.9
			c-1,0-1.5-0.3-1.8-0.7c-0.2-0.2-0.6-0.7-0.6-1.4c0-0.2,0-0.7,0.4-1.2c0.6-0.7,1.5-0.9,2.4-1.2c0.5-0.1,1-0.3,1.4-0.4l0.9-0.2V206
			c0-0.3,0-0.4-0.1-0.7c-0.2-0.5-0.6-1-1.7-1c-1,0-1.5,0.3-1.7,0.7c-0.2,0.4-0.3,0.8-0.3,1.2l-1-0.2c0-0.2,0.1-0.8,0.4-1.3
			c0.4-0.5,1.1-1.2,2.5-1.2c0.8,0,1.8,0.2,2.3,0.8c0.5,0.6,0.5,1.4,0.5,2.2v2.4c0,0.7,0,1.2,0.3,1.5c0.2,0.2,0.6,0.2,0.9,0.2v0.8
			C166.5,211.2,166,211.1,165.7,210.8z M165.4,207.2l-0.5,0.1c-1.5,0.4-2.8,0.7-3.2,1c-0.3,0.2-0.5,0.6-0.5,0.9
			c0,0.3,0.1,0.5,0.1,0.5c0.4,0.7,1.2,0.7,1.4,0.7c0.9,0,2.1-0.6,2.4-1.4c0.1-0.3,0.2-0.6,0.2-1.3V207.2z"/>
		<path fill="#D6E7F7" d="M168.7,211.2v-11.3h1v11.3H168.7z"/>
		<path fill="#D6E7F7" d="M181.2,211.2v-1.4c-0.4,1-1.3,1.6-2.4,1.6c-0.3,0-0.9,0-1.6-0.5c-1.5-1-1.6-3.1-1.6-3.5
			c0-0.5,0.1-2.5,1.6-3.5c0.3-0.2,0.8-0.5,1.6-0.5c0.6,0,1.2,0.2,1.7,0.6c0.4,0.3,0.4,0.6,0.5,0.8v-4.9h0.9v11.3H181.2z
			 M180.3,204.7c-0.2-0.1-0.6-0.4-1.3-0.4c-0.2,0-0.6,0-1,0.2c-0.7,0.4-1.3,1.2-1.3,2.9c0,0.3,0,3.1,2.3,3.1c0.6,0,1.1-0.2,1.5-0.6
			c0.6-0.7,0.7-1.6,0.7-2.5C181.3,205.9,181,205.1,180.3,204.7z"/>
		<path fill="#D6E7F7" d="M189.5,210.8c-0.3-0.3-0.3-0.6-0.3-1c-0.1,0.2-0.2,0.5-0.4,0.7c-0.3,0.4-1.1,0.9-2.3,0.9
			c-1,0-1.5-0.3-1.8-0.7c-0.2-0.2-0.6-0.7-0.6-1.4c0-0.2,0-0.7,0.4-1.2c0.6-0.7,1.5-0.9,2.4-1.2c0.5-0.1,1-0.3,1.4-0.4l0.9-0.2V206
			c0-0.3,0-0.4-0.1-0.7c-0.2-0.5-0.6-1-1.7-1c-1,0-1.5,0.3-1.7,0.7c-0.2,0.4-0.3,0.8-0.3,1.2l-1-0.2c0-0.2,0.1-0.8,0.4-1.3
			c0.4-0.5,1.1-1.2,2.5-1.2c0.8,0,1.8,0.2,2.3,0.8c0.5,0.6,0.5,1.4,0.5,2.2v2.4c0,0.7,0,1.2,0.3,1.5c0.2,0.2,0.6,0.2,0.9,0.2v0.8
			C190.3,211.2,189.8,211.1,189.5,210.8z M189.2,207.2l-0.5,0.1c-1.5,0.4-2.8,0.7-3.2,1c-0.3,0.2-0.5,0.6-0.5,0.9
			c0,0.3,0.1,0.5,0.1,0.5c0.4,0.7,1.2,0.7,1.4,0.7c0.9,0,2.1-0.6,2.4-1.4c0.1-0.3,0.2-0.6,0.2-1.3V207.2z"/>
		<path fill="#D6E7F7" d="M192.6,201.8v-1.5h0.9v1.5H192.6z M192.6,211.2v-7.6h0.9v7.6H192.6z"/>
		<path fill="#D6E7F7" d="M195.9,211.2v-11.3h1v11.3H195.9z"/>
		<path fill="#D6E7F7" d="M201.4,212.3c-0.7,1.8-1,2.8-2.2,2.8c-0.5,0-0.8-0.2-1-0.3v-1c0.4,0.3,0.7,0.4,1,0.4c0.5,0,0.7-0.4,1-1.2
			c0.1-0.2,0.2-0.5,0.3-0.7l0.4-1.1l-2.6-7.6h0.9l2.2,6.5l2.5-6.5h1L201.4,212.3z"/>
		<path fill="#D6E7F7" d="M215.6,210.7c-0.4,0.3-1.1,0.8-2.2,0.8c-0.4,0-1.5,0-2.3-0.9c-1.1-1.1-1.2-2.7-1.2-3.1
			c0-0.6,0.1-1.1,0.2-1.6c0.5-1.6,1.8-2.5,3.4-2.5c1.2,0,1.9,0.5,2.2,0.8c0.4,0.4,0.6,0.8,0.7,1.1l-0.9,0.2
			c-0.3-0.8-1.2-1.3-2.1-1.3c-0.3,0-1,0-1.6,0.6c-1,0.8-1,2.3-1,2.6c0,0.2,0,1.5,0.7,2.4c0.1,0.1,0.3,0.4,0.8,0.6
			c0.2,0.1,0.5,0.2,1,0.2c1,0,1.6-0.4,2.1-1.3l1,0.2C216.2,210,215.9,210.3,215.6,210.7z"/>
		<path fill="#D6E7F7" d="M223,210.8c-0.3-0.3-0.3-0.6-0.3-1c-0.1,0.2-0.2,0.5-0.4,0.7c-0.3,0.4-1.1,0.9-2.3,0.9
			c-1,0-1.5-0.3-1.8-0.7c-0.2-0.2-0.6-0.7-0.6-1.4c0-0.2,0-0.7,0.4-1.2c0.6-0.7,1.5-0.9,2.4-1.2c0.5-0.1,1-0.3,1.4-0.4l0.9-0.2V206
			c0-0.3,0-0.4-0.1-0.7c-0.2-0.5-0.6-1-1.7-1c-1,0-1.5,0.3-1.7,0.7c-0.2,0.4-0.3,0.8-0.3,1.2l-1-0.2c0-0.2,0.1-0.8,0.4-1.3
			c0.4-0.5,1.1-1.2,2.5-1.2c0.8,0,1.8,0.2,2.3,0.8c0.5,0.6,0.5,1.4,0.5,2.2v2.4c0,0.7,0,1.2,0.3,1.5c0.2,0.2,0.6,0.2,0.9,0.2v0.8
			C223.8,211.2,223.3,211.1,223,210.8z M222.6,207.2l-0.5,0.1c-1.5,0.4-2.8,0.7-3.2,1c-0.3,0.2-0.5,0.6-0.5,0.9
			c0,0.3,0.1,0.5,0.1,0.5c0.4,0.7,1.2,0.7,1.4,0.7c0.9,0,2.1-0.6,2.4-1.4c0.1-0.3,0.2-0.6,0.2-1.3V207.2z"/>
		<path fill="#D6E7F7" d="M227.8,204.4v6.8h-0.9v-6.8h-1.7v-0.8h1.7v-1.5c0-0.8,0-1,0.1-1.5c0.2-0.5,0.5-1,1.6-1c0.4,0,0.6,0,1,0.1
			v0.9c-0.2-0.1-0.5-0.2-0.9-0.2c-0.3,0-0.5,0.1-0.6,0.2c-0.3,0.3-0.3,0.6-0.3,1.3v1.5h1.7v0.8H227.8z"/>
		<path fill="#D6E7F7" d="M232.8,204.4v6.8h-0.9v-6.8h-1.7v-0.8h1.7v-1.5c0-0.8,0-1,0.1-1.5c0.2-0.5,0.5-1,1.6-1c0.4,0,0.6,0,1,0.1
			v0.9c-0.2-0.1-0.5-0.2-0.9-0.2c-0.3,0-0.5,0.1-0.6,0.2c-0.3,0.3-0.3,0.6-0.3,1.3v1.5h1.7v0.8H232.8z"/>
		<path fill="#D6E7F7" d="M241.9,210.2c-0.4,0.5-1.2,1.2-2.7,1.2c-0.3,0-1,0-1.8-0.4c-1.8-0.9-1.9-3.2-1.9-3.7c0-0.3,0-0.9,0.2-1.6
			c0.5-1.4,1.7-2.4,3.3-2.4c0.5,0,1.6,0.1,2.4,1.1c0.6,0.7,1,1.8,1,2.7v0.2h-5.9c0,0.6,0.1,1,0.1,1.3c0.2,0.6,0.7,1.9,2.4,1.9
			c0.7,0,1.7-0.2,2.4-1.6l0.9,0.3C242.4,209.4,242.2,209.8,241.9,210.2z M239,204.2c-1.3,0-2,0.9-2.2,1.3c-0.1,0.3-0.2,0.7-0.3,1.1
			h4.8C241.2,204.7,239.8,204.2,239,204.2z"/>
		<path fill="#D6E7F7" d="M244.3,201.8v-1.5h0.9v1.5H244.3z M244.3,211.2v-7.6h0.9v7.6H244.3z"/>
		<path fill="#D6E7F7" d="M252.7,211.2v-4c0-1,0-1.6-0.2-2.1c-0.2-0.4-0.4-0.6-0.6-0.7c-0.4-0.3-0.9-0.2-1-0.2c-0.2,0-0.6,0-1,0.2
			c-0.6,0.3-1,0.9-1.2,1.5c-0.1,0.4-0.1,1-0.1,1.9v3.3h-0.9v-7.6h0.9v1.4c0.1-0.2,0.2-0.5,0.5-0.8c0.3-0.3,0.8-0.7,1.9-0.7
			c1.4,0,2.1,0.8,2.3,1.3c0.3,0.6,0.3,1.2,0.3,2.5v4H252.7z"/>
		<path fill="#D6E7F7" d="M261.9,210.2c-0.4,0.5-1.2,1.2-2.7,1.2c-0.3,0-1,0-1.8-0.4c-1.8-0.9-1.9-3.2-1.9-3.7c0-0.3,0-0.9,0.2-1.6
			c0.5-1.4,1.7-2.4,3.3-2.4c0.5,0,1.6,0.1,2.4,1.1c0.6,0.7,1,1.8,1,2.7v0.2h-5.9c0,0.6,0.1,1,0.1,1.3c0.2,0.6,0.7,1.9,2.4,1.9
			c0.7,0,1.7-0.2,2.4-1.6l0.9,0.3C262.4,209.4,262.2,209.8,261.9,210.2z M259,204.2c-1.3,0-2,0.9-2.2,1.3c-0.1,0.3-0.2,0.7-0.3,1.1
			h4.8C261.2,204.7,259.8,204.2,259,204.2z"/>
		<path fill="#D6E7F7" d="M24.3,221v-1.5h0.9v1.5H24.3z M24.3,230.4v-7.6h0.9v7.6H24.3z"/>
		<path fill="#D6E7F7" d="M32.7,230.4v-4c0-1,0-1.6-0.2-2.1c-0.2-0.4-0.4-0.6-0.6-0.7c-0.4-0.3-0.9-0.2-1-0.2c-0.2,0-0.6,0-1,0.2
			c-0.6,0.3-1,0.9-1.2,1.5c-0.1,0.4-0.1,1-0.1,1.9v3.3h-0.9v-7.6h0.9v1.4c0.1-0.2,0.2-0.5,0.5-0.8c0.3-0.3,0.8-0.7,1.9-0.7
			c1.4,0,2.1,0.8,2.3,1.3c0.3,0.6,0.3,1.2,0.3,2.5v4H32.7z"/>
		<path fill="#D6E7F7" d="M38,230.6c-0.1,0-0.2,0-0.3,0c-0.2,0-0.8-0.1-1-0.7c-0.1-0.3-0.1-1.2-0.1-1.5v-4.8H35v-0.8h1.6v-3.2h0.9
			v3.2h1.7v0.8h-1.7v4.2c0,0.3,0,0.5,0,0.8c0,0.4,0,1.1,0.6,1.1c0.4,0,0.8-0.3,1.1-0.5v1C39,230.4,38.7,230.6,38,230.6z"/>
		<path fill="#D6E7F7" d="M45.6,230c-0.3-0.3-0.3-0.6-0.3-1c-0.1,0.2-0.2,0.5-0.4,0.7c-0.3,0.4-1.1,0.9-2.3,0.9
			c-1,0-1.5-0.3-1.8-0.7c-0.2-0.2-0.6-0.7-0.6-1.4c0-0.2,0-0.7,0.4-1.2c0.6-0.7,1.5-0.9,2.4-1.2c0.5-0.1,1-0.3,1.4-0.4l0.9-0.2v-0.4
			c0-0.3,0-0.4-0.1-0.7c-0.2-0.5-0.6-1-1.7-1c-1,0-1.5,0.3-1.7,0.7c-0.2,0.4-0.3,0.8-0.3,1.2l-1-0.2c0-0.2,0.1-0.8,0.4-1.3
			c0.4-0.5,1.1-1.2,2.5-1.2c0.8,0,1.8,0.2,2.3,0.8c0.5,0.6,0.5,1.4,0.5,2.2v2.4c0,0.7,0,1.2,0.3,1.5c0.2,0.2,0.6,0.2,0.9,0.2v0.8
			C46.5,230.4,46,230.3,45.6,230z M45.3,226.4l-0.5,0.1c-1.5,0.4-2.8,0.7-3.2,1c-0.3,0.2-0.5,0.6-0.5,0.9c0,0.3,0.1,0.5,0.1,0.5
			c0.4,0.7,1.2,0.7,1.4,0.7c0.9,0,2.1-0.6,2.4-1.4c0.1-0.3,0.2-0.6,0.2-1.3V226.4z"/>
		<path fill="#D6E7F7" d="M54.2,230.4l-2.9-4l-1.6,1.6v2.4h-0.9v-11.3h0.9v7.7l4.3-4h1.2l-3.2,3l3.4,4.6H54.2z"/>
		<path fill="#D6E7F7" d="M62.6,229.4c-0.4,0.5-1.2,1.2-2.7,1.2c-0.3,0-1,0-1.8-0.4c-1.8-0.9-1.9-3.2-1.9-3.7c0-0.3,0-0.9,0.2-1.6
			c0.5-1.4,1.7-2.4,3.3-2.4c0.5,0,1.6,0.1,2.4,1.1c0.6,0.7,1,1.8,1,2.7v0.2h-5.9c0,0.6,0.1,1,0.1,1.3c0.2,0.6,0.7,1.9,2.4,1.9
			c0.7,0,1.7-0.2,2.4-1.6l0.9,0.3C63.1,228.6,62.9,229,62.6,229.4z M59.7,223.4c-1.3,0-2,0.9-2.2,1.3c-0.1,0.3-0.2,0.7-0.3,1.1h4.8
			C61.8,223.9,60.5,223.4,59.7,223.4z"/>
		<path fill="#D6E7F7" d="M75.4,231.4c0,0.3,0,1.3-0.8,2c-0.4,0.4-1.2,0.9-2.6,0.9c-0.4,0-2.2,0-3-1.5c-0.3-0.5-0.3-1.1-0.3-1.3
			l1-0.2c0.1,0.8,0.4,2.1,2.4,2.1c0.3,0,1.6,0,2.1-1c0.3-0.5,0.2-1.1,0.3-2.3c0-0.3,0-0.6,0-0.8V229c0,0-0.1,0.3-0.2,0.4
			c-0.3,0.5-1,1.2-2.4,1.2c-0.8,0-1.3-0.2-1.6-0.4c-1.7-1-1.8-3.2-1.8-3.6c0-1.3,0.4-2.8,1.6-3.5c0.3-0.2,0.9-0.4,1.7-0.4
			c0.3,0,1.1,0,1.8,0.6c0.3,0.2,0.5,0.5,0.5,0.6c0.1,0.2,0.1,0.3,0.1,0.3v-1.4h0.9v6.8C75.4,230.2,75.4,230.8,75.4,231.4z
			 M73.9,224.3c-0.2-0.3-0.8-0.8-1.8-0.8c-0.1,0-0.5,0-0.9,0.1c-1.6,0.6-1.6,2.6-1.6,3c0,1.1,0.3,1.9,0.6,2.3
			c0.2,0.3,0.6,0.6,0.9,0.8c0.4,0.2,0.8,0.2,0.9,0.2c0.2,0,0.9,0,1.5-0.4c0.8-0.6,0.9-1.7,1-2.6C74.5,226.5,74.5,225.1,73.9,224.3z"
			/>
		<path fill="#D6E7F7" d="M81.5,223.6c-0.2,0-0.4,0-0.6,0c-1.2,0-1.9,0.7-2.1,1.8c-0.1,0.4-0.1,0.9-0.1,1.8v3.3h-0.9v-7.6h0.9v1.2
			c0-0.1,0.1-0.3,0.2-0.4c0.1-0.1,0.4-0.5,0.9-0.8c0.2-0.1,0.5-0.2,1.1-0.2c0.1,0,0.3,0,0.6,0L81.5,223.6z"/>
		<path fill="#D6E7F7" d="M88.7,229.4c-0.4,0.5-1.2,1.2-2.7,1.2c-0.3,0-1,0-1.8-0.4c-1.8-0.9-1.9-3.2-1.9-3.7c0-0.3,0-0.9,0.2-1.6
			c0.5-1.4,1.7-2.4,3.3-2.4c0.5,0,1.6,0.1,2.4,1.1c0.6,0.7,1,1.8,1,2.7v0.2h-5.9c0,0.6,0.1,1,0.1,1.3c0.2,0.6,0.7,1.9,2.4,1.9
			c0.7,0,1.7-0.2,2.4-1.6l0.9,0.3C89.2,228.6,89,229,88.7,229.4z M85.8,223.4c-1.3,0-2,0.9-2.2,1.3c-0.1,0.3-0.2,0.7-0.3,1.1h4.8
			C88,223.9,86.7,223.4,85.8,223.4z"/>
		<path fill="#D6E7F7" d="M96.1,230c-0.3-0.3-0.3-0.6-0.3-1c-0.1,0.2-0.2,0.5-0.4,0.7c-0.3,0.4-1.1,0.9-2.3,0.9
			c-1,0-1.5-0.3-1.8-0.7c-0.2-0.2-0.6-0.7-0.6-1.4c0-0.2,0-0.7,0.4-1.2c0.6-0.7,1.5-0.9,2.4-1.2c0.5-0.1,1-0.3,1.4-0.4l0.9-0.2v-0.4
			c0-0.3,0-0.4-0.1-0.7c-0.2-0.5-0.6-1-1.7-1c-1,0-1.5,0.3-1.7,0.7c-0.2,0.4-0.3,0.8-0.3,1.2l-1-0.2c0-0.2,0.1-0.8,0.4-1.3
			c0.4-0.5,1.1-1.2,2.5-1.2c0.8,0,1.8,0.2,2.3,0.8c0.5,0.6,0.5,1.4,0.5,2.2v2.4c0,0.7,0,1.2,0.3,1.5c0.2,0.2,0.6,0.2,0.9,0.2v0.8
			C96.9,230.4,96.4,230.3,96.1,230z M95.8,226.4l-0.5,0.1c-1.5,0.4-2.8,0.7-3.2,1c-0.3,0.2-0.5,0.6-0.5,0.9c0,0.3,0.1,0.5,0.1,0.5
			c0.4,0.7,1.2,0.7,1.4,0.7c0.9,0,2.1-0.6,2.4-1.4c0.1-0.3,0.2-0.6,0.2-1.3V226.4z"/>
		<path fill="#D6E7F7" d="M101.2,230.6c-0.1,0-0.2,0-0.3,0c-0.2,0-0.8-0.1-1-0.7c-0.1-0.3-0.1-1.2-0.1-1.5v-4.8h-1.6v-0.8h1.6v-3.2
			h0.9v3.2h1.7v0.8h-1.7v4.2c0,0.3,0,0.5,0,0.8c0,0.4,0,1.1,0.6,1.1c0.4,0,0.8-0.3,1.1-0.5v1C102.2,230.4,101.8,230.6,101.2,230.6z"
			/>
		<path fill="#D6E7F7" d="M109.7,229.4c-0.4,0.5-1.2,1.2-2.7,1.2c-0.3,0-1,0-1.8-0.4c-1.8-0.9-1.9-3.2-1.9-3.7c0-0.3,0-0.9,0.2-1.6
			c0.5-1.4,1.7-2.4,3.3-2.4c0.5,0,1.6,0.1,2.4,1.1c0.6,0.7,1,1.8,1,2.7v0.2h-5.9c0,0.6,0.1,1,0.1,1.3c0.2,0.6,0.7,1.9,2.4,1.9
			c0.7,0,1.7-0.2,2.4-1.6l0.9,0.3C110.2,228.6,110,229,109.7,229.4z M106.8,223.4c-1.3,0-2,0.9-2.2,1.3c-0.1,0.3-0.2,0.7-0.3,1.1
			h4.8C109,223.9,107.7,223.4,106.8,223.4z"/>
		<path fill="#D6E7F7" d="M115.8,223.6c-0.2,0-0.4,0-0.6,0c-1.2,0-1.9,0.7-2.1,1.8c-0.1,0.4-0.1,0.9-0.1,1.8v3.3h-0.9v-7.6h0.9v1.2
			c0-0.1,0.1-0.3,0.2-0.4c0.1-0.1,0.4-0.5,0.9-0.8c0.2-0.1,0.5-0.2,1.1-0.2c0.1,0,0.3,0,0.6,0L115.8,223.6z"/>
		<path fill="#D6E7F7" d="M123.3,230.6c-0.1,0-0.2,0-0.3,0c-0.2,0-0.8-0.1-1-0.7c-0.1-0.3-0.1-1.2-0.1-1.5v-4.8h-1.6v-0.8h1.6v-3.2
			h0.9v3.2h1.7v0.8h-1.7v4.2c0,0.3,0,0.5,0,0.8c0,0.4,0,1.1,0.6,1.1c0.4,0,0.8-0.3,1.1-0.5v1C124.3,230.4,123.9,230.6,123.3,230.6z"
			/>
		<path fill="#D6E7F7" d="M131,230.4v-4.2c0-0.2,0-0.5,0-0.7c0-0.8-0.1-1.5-0.9-1.9c-0.3-0.1-0.6-0.2-0.9-0.2
			c-1.2,0-1.7,0.7-1.9,1.1c-0.3,0.6-0.3,1.2-0.3,2.6v3.3h-1v-11.3h1v4.9c0,0,0.1-0.3,0.3-0.4c0.3-0.4,0.9-1,2.1-1
			c0.3,0,1.4,0.1,2.1,0.9c0.4,0.6,0.5,1.2,0.5,2.5v4.3H131z"/>
		<path fill="#D6E7F7" d="M139.3,230c-0.3-0.3-0.3-0.6-0.3-1c-0.1,0.2-0.2,0.5-0.4,0.7c-0.3,0.4-1.1,0.9-2.3,0.9
			c-1,0-1.5-0.3-1.8-0.7c-0.2-0.2-0.6-0.7-0.6-1.4c0-0.2,0-0.7,0.4-1.2c0.6-0.7,1.5-0.9,2.4-1.2c0.5-0.1,1-0.3,1.4-0.4l0.9-0.2v-0.4
			c0-0.3,0-0.4-0.1-0.7c-0.2-0.5-0.6-1-1.7-1c-1,0-1.5,0.3-1.7,0.7c-0.2,0.4-0.3,0.8-0.3,1.2l-1-0.2c0-0.2,0.1-0.8,0.4-1.3
			c0.4-0.5,1.1-1.2,2.5-1.2c0.8,0,1.8,0.2,2.3,0.8c0.5,0.6,0.5,1.4,0.5,2.2v2.4c0,0.7,0,1.2,0.3,1.5c0.2,0.2,0.6,0.2,0.9,0.2v0.8
			C140.1,230.4,139.6,230.3,139.3,230z M138.9,226.4l-0.5,0.1c-1.5,0.4-2.8,0.7-3.2,1c-0.3,0.2-0.5,0.6-0.5,0.9
			c0,0.3,0.1,0.5,0.1,0.5c0.4,0.7,1.2,0.7,1.4,0.7c0.9,0,2.1-0.6,2.4-1.4c0.1-0.3,0.2-0.6,0.2-1.3V226.4z"/>
		<path fill="#D6E7F7" d="M147.3,230.4v-4c0-1,0-1.6-0.2-2.1c-0.2-0.4-0.4-0.6-0.6-0.7c-0.4-0.3-0.9-0.2-1-0.2c-0.2,0-0.6,0-1,0.2
			c-0.6,0.3-1,0.9-1.2,1.5c-0.1,0.4-0.1,1-0.1,1.9v3.3h-0.9v-7.6h0.9v1.4c0.1-0.2,0.2-0.5,0.5-0.8c0.3-0.3,0.8-0.7,1.9-0.7
			c1.4,0,2.1,0.8,2.3,1.3c0.3,0.6,0.3,1.2,0.3,2.5v4H147.3z"/>
		<path fill="#D6E7F7" d="M160.5,227.6v2.8h-1v-2.8h-5v-0.8l5-7.7h1.1v7.6h1.8v0.9H160.5z M159.5,220.7l-3.9,6h3.9V220.7z"/>
		<path fill="#D6E7F7" d="M170,229.6c-0.7,0.7-1.5,1-2.5,1c-0.3,0-1.2,0-1.9-0.5c-1.1-0.7-2-2.4-2-5.3c0-0.4-0.1-3.5,1.7-5.1
			c0.4-0.3,1.1-0.8,2.3-0.8c1.5,0,2.3,0.8,2.7,1.2c1.4,1.7,1.3,4.5,1.3,4.9C171.5,225.4,171.5,228.1,170,229.6z M169.8,221.3
			c-0.2-0.4-0.8-1.6-2.3-1.6c-0.4,0-1,0.1-1.6,0.7c-1,1-1.3,2.9-1.3,4.3c0,1.5,0.3,2.7,0.5,3.2c0.1,0.3,0.4,0.7,0.6,1
			c0.2,0.3,0.8,0.8,1.8,0.8c0.7,0,1.4-0.3,1.8-0.8c0.6-0.7,1-1.9,1.1-3.9C170.5,224.7,170.5,222.7,169.8,221.3z"/>
		<path fill="#D6E7F7" d="M179.4,229.6c-0.7,0.7-1.5,1-2.5,1c-0.3,0-1.2,0-1.9-0.5c-1.1-0.7-2-2.4-2-5.3c0-0.4-0.1-3.5,1.7-5.1
			c0.4-0.3,1.1-0.8,2.3-0.8c1.5,0,2.3,0.8,2.7,1.2c1.4,1.7,1.3,4.5,1.3,4.9C180.9,225.4,180.8,228.1,179.4,229.6z M179.2,221.3
			c-0.2-0.4-0.8-1.6-2.3-1.6c-0.4,0-1,0.1-1.6,0.7c-1,1-1.3,2.9-1.3,4.3c0,1.5,0.3,2.7,0.5,3.2c0.1,0.3,0.4,0.7,0.6,1
			c0.2,0.3,0.8,0.8,1.8,0.8c0.7,0,1.4-0.3,1.8-0.8c0.6-0.7,1-1.9,1.1-3.9C179.8,224.7,179.8,222.7,179.2,221.3z"/>
		<path fill="#D6E7F7" d="M195.9,230.4v-4.1c0-1.3,0.1-2-0.5-2.5c-0.4-0.3-0.8-0.3-0.9-0.3c-0.8,0-1.4,0.5-1.8,1.2
			c-0.3,0.6-0.3,1.2-0.3,2.5v3.2h-0.9v-4.2c0-1,0-1.6-0.2-2c-0.3-0.5-0.7-0.7-1.2-0.7c-0.4,0-1.2,0.1-1.7,1
			c-0.4,0.7-0.4,1.4-0.4,2.8v3.1h-0.9v-7.6h0.9v1.6c0-0.1,0.1-0.4,0.2-0.6c0.4-0.8,1.2-1.1,2.1-1.1c1.2,0,1.8,0.7,1.9,1.2
			c0.1,0.2,0.1,0.4,0.2,0.8c0.1-0.4,0.2-0.6,0.3-0.8c0.2-0.4,0.8-1.1,2.1-1.1c0.5,0,1,0.1,1.4,0.4c0.9,0.6,0.9,1.7,0.9,3.6v3.8
			H195.9z"/>
		<path fill="#D6E7F7" d="M199.2,221v-1.5h0.9v1.5H199.2z M199.2,230.4v-7.6h0.9v7.6H199.2z"/>
		<path fill="#D6E7F7" d="M202.5,230.4v-11.3h1v11.3H202.5z"/>
		<path fill="#D6E7F7" d="M205.9,230.4v-11.3h1v11.3H205.9z"/>
		<path fill="#D6E7F7" d="M209.2,221v-1.5h0.9v1.5H209.2z M209.2,230.4v-7.6h0.9v7.6H209.2z"/>
		<path fill="#D6E7F7" d="M218.8,231.4c0,0.3,0,1.3-0.8,2c-0.4,0.4-1.2,0.9-2.6,0.9c-0.4,0-2.2,0-3-1.5c-0.3-0.5-0.3-1.1-0.3-1.3
			l1-0.2c0.1,0.8,0.4,2.1,2.4,2.1c0.3,0,1.6,0,2.1-1c0.3-0.5,0.2-1.1,0.3-2.3c0-0.3,0-0.6,0-0.8V229c0,0-0.1,0.3-0.2,0.4
			c-0.3,0.5-1,1.2-2.4,1.2c-0.8,0-1.3-0.2-1.6-0.4c-1.7-1-1.8-3.2-1.8-3.6c0-1.3,0.4-2.8,1.6-3.5c0.3-0.2,0.9-0.4,1.7-0.4
			c0.3,0,1.1,0,1.8,0.6c0.3,0.2,0.5,0.5,0.5,0.6c0.1,0.2,0.1,0.3,0.1,0.3v-1.4h0.9v6.8C218.8,230.2,218.8,230.8,218.8,231.4z
			 M217.3,224.3c-0.2-0.3-0.8-0.8-1.8-0.8c-0.1,0-0.5,0-0.9,0.1c-1.6,0.6-1.6,2.6-1.6,3c0,1.1,0.3,1.9,0.6,2.3
			c0.2,0.3,0.6,0.6,0.9,0.8c0.4,0.2,0.8,0.2,0.9,0.2c0.2,0,0.9,0,1.5-0.4c0.8-0.6,0.9-1.7,1-2.6
			C217.9,226.5,217.9,225.1,217.3,224.3z"/>
		<path fill="#D6E7F7" d="M224.9,223.6c-0.2,0-0.4,0-0.6,0c-1.2,0-1.9,0.7-2.1,1.8c-0.1,0.4-0.1,0.9-0.1,1.8v3.3h-0.9v-7.6h0.9v1.2
			c0-0.1,0.1-0.3,0.2-0.4c0.1-0.1,0.4-0.5,0.9-0.8c0.2-0.1,0.5-0.2,1.1-0.2c0.1,0,0.3,0,0.6,0L224.9,223.6z"/>
		<path fill="#D6E7F7" d="M231.2,230c-0.3-0.3-0.3-0.6-0.3-1c-0.1,0.2-0.2,0.5-0.4,0.7c-0.3,0.4-1.1,0.9-2.3,0.9
			c-1,0-1.5-0.3-1.8-0.7c-0.2-0.2-0.6-0.7-0.6-1.4c0-0.2,0-0.7,0.4-1.2c0.6-0.7,1.5-0.9,2.4-1.2c0.5-0.1,1-0.3,1.4-0.4l0.9-0.2v-0.4
			c0-0.3,0-0.4-0.1-0.7c-0.2-0.5-0.6-1-1.7-1c-1,0-1.5,0.3-1.7,0.7c-0.2,0.4-0.3,0.8-0.3,1.2l-1-0.2c0-0.2,0.1-0.8,0.4-1.3
			c0.4-0.5,1.1-1.2,2.5-1.2c0.8,0,1.8,0.2,2.3,0.8c0.5,0.6,0.5,1.4,0.5,2.2v2.4c0,0.7,0,1.2,0.3,1.5c0.2,0.2,0.6,0.2,0.9,0.2v0.8
			C232,230.4,231.5,230.3,231.2,230z M230.8,226.4l-0.5,0.1c-1.5,0.4-2.8,0.7-3.2,1c-0.3,0.2-0.5,0.6-0.5,0.9c0,0.3,0.1,0.5,0.1,0.5
			c0.4,0.7,1.2,0.7,1.4,0.7c0.9,0,2.1-0.6,2.4-1.4c0.1-0.3,0.2-0.6,0.2-1.3V226.4z"/>
		<path fill="#D6E7F7" d="M243.2,230.4v-4.1c0-1.3,0.1-2-0.5-2.5c-0.4-0.3-0.8-0.3-0.9-0.3c-0.8,0-1.4,0.5-1.8,1.2
			c-0.3,0.6-0.3,1.2-0.3,2.5v3.2h-0.9v-4.2c0-1,0-1.6-0.2-2c-0.3-0.5-0.7-0.7-1.2-0.7c-0.4,0-1.2,0.1-1.7,1
			c-0.4,0.7-0.4,1.4-0.4,2.8v3.1h-0.9v-7.6h0.9v1.6c0-0.1,0.1-0.4,0.2-0.6c0.4-0.8,1.2-1.1,2.1-1.1c1.2,0,1.8,0.7,1.9,1.2
			c0.1,0.2,0.1,0.4,0.2,0.8c0.1-0.4,0.2-0.6,0.3-0.8c0.2-0.4,0.8-1.1,2.1-1.1c0.5,0,1,0.1,1.4,0.4c0.9,0.6,0.9,1.7,0.9,3.6v3.8
			H243.2z"/>
		<path fill="#D6E7F7" d="M251.6,229.3c-0.3,0.6-1.1,1.3-2.6,1.3c-0.5,0-1.7-0.1-2.6-1.2c-0.2-0.3-0.4-0.6-0.5-0.9l0.9-0.3
			c0.1,0.5,0.7,1.5,2.1,1.5c0.7,0,1.2-0.2,1.4-0.4c0.3-0.3,0.5-0.7,0.5-1.1c0-0.2-0.1-0.5-0.2-0.7c-0.2-0.3-0.6-0.5-1.4-0.7
			c-0.8-0.2-1.9-0.3-2.5-1c-0.3-0.3-0.4-0.8-0.4-1.2c0-0.2,0.1-1,0.7-1.5c0.5-0.5,1.4-0.6,2.1-0.6c0.2,0,1.2,0,1.9,0.5
			c0.6,0.4,0.8,1,0.8,1.2l-0.9,0.2c-0.2-0.9-1.1-1.1-1.9-1.1c-0.6,0-1,0.1-1.2,0.3c-0.1,0-0.2,0.2-0.3,0.3c-0.2,0.3-0.2,0.5-0.2,0.7
			c0,0.9,0.9,1.1,1.6,1.2l0.8,0.2c0.7,0.1,1.3,0.4,1.7,1c0.4,0.5,0.4,0.9,0.4,1.2C251.8,228.4,251.8,228.9,251.6,229.3z"/>
	</g>
</g>
<g>
</g>
<g>
</g>
<g>
</g>
<g>
</g>
<g>
</g>
<g>
</g>
</svg>
