<?xml version="1.0" encoding="utf-8"?>
<!-- Generator: Adobe Illustrator 19.2.1, SVG Export Plug-In . SVG Version: 6.00 Build 0)  -->
<!DOCTYPE svg PUBLIC "-//W3C//DTD SVG 1.1//EN" "http://www.w3.org/Graphics/SVG/1.1/DTD/svg11.dtd">
<svg version="1.1" id="Layer_1" xmlns="http://www.w3.org/2000/svg" xmlns:xlink="http://www.w3.org/1999/xlink" x="0px" y="0px"
	 width="792px" height="612px" viewBox="0 0 792 612" enable-background="new 0 0 792 612" xml:space="preserve">
<g>
	<circle fill="#FF5959" cx="402.6" cy="340.2" r="230.9"/>
	<circle fill="#5BB1E3" cx="402.6" cy="340.2" r="210.7"/>
	<circle fill="#4C3D2A" cx="406.4" cy="314.3" r="13.2"/>
	<path fill="#D6E7F7" d="M672,534.4H119.4c-6.6,0-12-5.4-12-12V419.9c0-6.6,5.4-12,12-12H672c6.6,0,12,5.4,12,12v102.5
		C684,529,678.6,534.4,672,534.4z"/>
	<g>
		<g>
			<polyline fill="none" stroke="#4C3D2A" stroke-width="4" stroke-linecap="round" stroke-linejoin="round" points="420.4,214.7 
				407.7,325.7 413.3,422 			"/>
			<g>
				<polygon fill="#4C3D2A" points="412.7,221.8 420.2,215.8 426.2,223.3 426.9,217.6 420.9,210.1 413.4,216.1 				"/>
			</g>
			<g>
				<polygon fill="#4C3D2A" points="414.9,450.2 396.4,411.4 413.2,419.9 428.9,409.5 				"/>
			</g>
		</g>
	</g>
	<path fill="#FFCA61" d="M304.3,248.4c0,0,11.7,1.3,7.3,4.7l2.5,7.6l-1.9,1.9c0,0,5.1,36.3,3.8,42.3c0,0,8.5,8.5,8.5,12.3v73.6
		c0,0-7.6,10.7-20.2,8.8"/>
	<path fill="#FFCA61" d="M305.8,248.4c0,0-11.7,1.3-7.3,4.7l-2.5,7.6l1.9,1.9c0,0-5.1,36.3-3.8,42.3c0,0-8.5,8.5-8.5,12.3v73.6
		c0,0,7.6,10.7,20.2,8.8"/>
	<path fill="#665237" d="M440,317.5c0,0-8.3,63.7,51.6,65.3v-65.3"/>
	<path fill="#665237" d="M540.1,317.5c0,0,8.3,63.7-51.6,65.3v-65.3"/>
	<path fill="none" stroke="#665237" stroke-width="4" stroke-miterlimit="10" d="M539.8,324.4c0,0,61.7-8.4-7.8,32.3"/>
	<g>
		<rect x="439.6" y="443.2" fill="none" width="339" height="85.5"/>
		<path fill="#4C3D2A" d="M451.6,452.8c-0.6,2.8-2.5,4.6-5.4,4.6c-3.6,0-5.7-2.8-5.7-6.7c0-3.7,2.2-6.5,6-6.5c1.5,0,2.9,0.6,3.5,0.6
			c0.4,0,0.7-0.2,1-0.4c0,0.5-0.1,1.4-0.1,2.2c0,0.6,0.1,1.5,0.1,1.9h-0.5c-0.3-1.2-1-3.6-3.7-3.6c-3.2,0-4.4,2.6-4.4,5.8
			c0,2.5,1.3,5.5,4.3,5.5c3.2,0,3.9-2.3,4.4-3.4H451.6z"/>
		<path fill="#4C3D2A" d="M456.8,457.4c-2.6,0-4.2-2-4.2-4.6c0-2.5,1.6-4.6,4.2-4.6c2.6,0,4.2,2,4.2,4.6
			C461,455.4,459.4,457.4,456.8,457.4z M459.3,452.9c0-2.3-0.7-4-2.5-4s-2.5,1.7-2.5,4c0,2.3,0.7,4,2.5,4S459.3,455.2,459.3,452.9z"
			/>
		<path fill="#4C3D2A" d="M467.4,457.2c-0.9,0-2-0.1-2.7-0.1c-0.8,0-1.7,0.1-2.4,0.1v-0.4c1.6-0.2,1.6-0.5,1.6-2.5v-4.7h-1.6V449
			c1.3-0.2,1.6-0.6,1.6-1.6c0-1.5,0.5-3.9,3.5-3.9c0.9,0,2,0.6,2,1.4c0,0.8-0.4,1.1-0.9,1.1c-0.6,0-0.7-0.3-0.9-0.8
			c0.2,0,0.5-0.2,0.5-0.5c0-0.4-0.4-0.7-0.9-0.7c-1.4,0-1.8,1.2-1.8,2.6v2l2.5-0.2v1h-2.5v4.7c0,2.1,0,2.3,2.1,2.5V457.2z"/>
		<path fill="#4C3D2A" d="M473.7,457.2c-0.9,0-2-0.1-2.7-0.1c-0.8,0-1.7,0.1-2.4,0.1v-0.4c1.6-0.2,1.6-0.5,1.6-2.5v-4.7h-1.6V449
			c1.3-0.2,1.6-0.6,1.6-1.6c0-1.5,0.5-3.9,3.5-3.9c0.9,0,2,0.6,2,1.4c0,0.8-0.4,1.1-0.9,1.1c-0.6,0-0.7-0.3-1-0.8
			c0.2,0,0.5-0.2,0.5-0.5c0-0.4-0.4-0.7-0.9-0.7c-1.4,0-1.8,1.2-1.8,2.6v2l2.5-0.2v1h-2.5v4.7c0,2.1,0,2.3,2.1,2.5V457.2z"/>
		<path fill="#4C3D2A" d="M482.6,454.1c-0.3,1.2-1.2,3.3-3.8,3.3c-2,0-3.6-1.2-3.6-4.4c0-2.9,1.7-4.7,4-4.7c2.8,0,3.2,2.4,3.2,3.5
			l-5.8,0.4c0,0.2,0,0.5,0,0.7c0,1.5,0.8,3.4,2.7,3.4c1.8,0,2.4-1.6,2.7-2.5L482.6,454.1z M480,451.3c0.3,0,0.9-0.2,0.9-0.7
			c0-0.8-0.7-1.7-1.7-1.7c-2.2,0-2.5,2-2.6,2.8L480,451.3z"/>
		<path fill="#4C3D2A" d="M491.4,454.1c-0.3,1.2-1.2,3.3-3.8,3.3c-2,0-3.6-1.2-3.6-4.4c0-2.9,1.7-4.7,4-4.7c2.8,0,3.2,2.4,3.2,3.5
			l-5.8,0.4c0,0.2,0,0.5,0,0.7c0,1.5,0.8,3.4,2.7,3.4c1.8,0,2.4-1.6,2.7-2.5L491.4,454.1z M488.8,451.3c0.3,0,0.9-0.2,0.9-0.7
			c0-0.8-0.7-1.7-1.7-1.7c-2.2,0-2.5,2-2.6,2.8L488.8,451.3z"/>
		<path fill="#4C3D2A" d="M502.3,457.2c-0.8,0-1.6-0.1-2.3-0.1c-0.8,0-1.7,0.1-2.4,0.1v-0.4c1.6-0.2,1.6-0.5,1.6-2.5v-2.6
			c0-1.7-0.3-1.8-2-1.8v-0.4c1.5-0.1,2.7-0.5,3.6-1.3c0,1-0.1,1.7-0.1,3.6v2.6c0,2.1,0,2.3,1.6,2.5V457.2z M499.6,446
			c-0.6,0-1.1-0.5-1.1-1.1c0-0.6,0.5-1.1,1.1-1.1c0.6,0,1.1,0.5,1.1,1.1C500.7,445.5,500.2,446,499.6,446z"/>
		<path fill="#4C3D2A" d="M508.6,451.3c-0.3-0.9-0.8-2.4-2.4-2.4c-1.1,0-1.6,0.5-1.6,1.3c0,2.1,5.1,1.3,5.1,4.6
			c0,1.3-1.1,2.6-2.9,2.6c-1.3,0-1.8-0.5-2.7-0.5c-0.2,0-0.5,0.1-0.7,0.3c0-0.3,0.1-0.7,0.1-1.2c0-0.7,0-1.3-0.1-2.1h0.4
			c0.2,1.1,0.6,2.9,2.8,2.9c1,0,1.9-0.6,1.9-1.5c0-2.2-5-1.4-5-4.5c0-1.3,0.9-2.5,2.8-2.5c0.9,0,1.7,0.4,2.1,0.4
			c0.2,0,0.4-0.2,0.6-0.3c0,0.3,0,0.6,0,0.9c0,0.4,0,1.2,0.1,2H508.6z"/>
		<path fill="#4C3D2A" d="M521.9,456c0.4,0,1.7,0.5,1.7,1.7c0,2.1-2.5,3.4-5,3.4c-2.2,0-3-1-3-2c0-1.3,1.1-1.8,2.1-2.3
			c-0.6-0.2-1.5-0.5-1.5-1.2c0-1,0.8-1.2,1.7-1.6c-0.7-0.3-1.8-0.9-1.8-2.6c0-1.9,1.1-3.1,3.3-3.1c0.2,0,0.5,0,0.7,0
			c0.4-0.7,1.2-2.1,2.5-2.1c0.5,0,1,0.3,1,0.9c0,0.6-0.4,0.9-0.8,0.9c-0.2,0-0.4,0-0.5-0.1c0.1-0.1,0.2-0.2,0.2-0.3
			c0-0.2-0.1-0.4-0.4-0.4c-0.8,0-1.2,0.8-1.4,1.1c0.5,0.1,2,0.7,2,2.8c0,2-1.5,3.1-3.1,3.1h-0.7c-0.6,0-1.4,0.4-1.4,0.9
			c0,0.5,0.8,0.5,1.7,0.6L521.9,456z M519.3,457c-0.3,0-0.6-0.1-0.8-0.2c-0.6,0.4-1.5,1-1.5,1.9c0,1,1,1.4,2.5,1.4
			c1.6,0,3.4-0.8,3.4-2c0-0.7-0.9-1-1.8-1L519.3,457z M521.2,451.1c0-1.1-0.5-2.3-1.7-2.3c-1.2,0-1.7,1.2-1.7,2.5
			c0,1.3,0.4,2.4,1.7,2.4C520.7,453.7,521.2,452.6,521.2,451.1z"/>
		<path fill="#4C3D2A" d="M529,457.4c-2.6,0-4.2-2-4.2-4.6c0-2.5,1.6-4.6,4.2-4.6c2.6,0,4.2,2,4.2,4.6
			C533.1,455.4,531.5,457.4,529,457.4z M531.4,452.9c0-2.3-0.7-4-2.5-4s-2.5,1.7-2.5,4c0,2.3,0.7,4,2.5,4S531.4,455.2,531.4,452.9z"
			/>
		<path fill="#4C3D2A" d="M538.8,457.4c-2.6,0-4.2-2-4.2-4.6c0-2.5,1.6-4.6,4.2-4.6c2.6,0,4.2,2,4.2,4.6
			C543,455.4,541.4,457.4,538.8,457.4z M541.3,452.9c0-2.3-0.7-4-2.5-4s-2.5,1.7-2.5,4c0,2.3,0.7,4,2.5,4S541.3,455.2,541.3,452.9z"
			/>
		<path fill="#4C3D2A" d="M553.7,457.2c-0.3,0-0.6,0-0.9-0.1c-0.3,0-0.6,0-0.8,0c-0.5,0-1.1,0.1-1.5,0.3c0-0.5,0.1-1.2,0.1-1.8
			c-1.1,1-2,1.8-3.5,1.8c-1.7,0-2.7-1.7-2.7-3.8c0-3.4,1.6-5.4,3.9-5.4c1.2,0,1.7,0.3,2.2,0.7v-1.8c0-2.2,0-2.6-2.2-2.6v-0.4
			c1.4,0,2.7-0.2,3.7-1c0,0.6-0.1,2.7-0.1,4v7c0,2.1,0,2.3,1.6,2.5V457.2z M550.7,451.7c0-1.5-0.3-2.8-2-2.8c-2,0-2.6,1.9-2.6,4.3
			c0,1.9,0.6,3.2,2.1,3.2c1.7,0,2.5-1.7,2.5-2.5V451.7z"/>
		<path fill="#4C3D2A" d="M564.2,457.2c-0.8,0-1.6-0.1-2.3-0.1c-0.8,0-1.7,0.1-2.4,0.1v-0.4c1.6-0.2,1.6-0.5,1.6-2.5v-2.6
			c0-1.7-0.3-1.8-2-1.8v-0.4c1.5-0.1,2.7-0.5,3.6-1.3c0,1-0.1,1.7-0.1,3.6v2.6c0,2.1,0,2.3,1.6,2.5V457.2z M561.6,446
			c-0.6,0-1.1-0.5-1.1-1.1c0-0.6,0.5-1.1,1.1-1.1c0.6,0,1.1,0.5,1.1,1.1C562.6,445.5,562.1,446,561.6,446z"/>
		<path fill="#4C3D2A" d="M570.1,457.2c-0.9,0-2-0.1-2.7-0.1c-0.8,0-1.7,0.1-2.4,0.1v-0.4c1.6-0.2,1.6-0.5,1.6-2.5v-4.7H565V449
			c1.3-0.2,1.6-0.6,1.6-1.6c0-1.5,0.5-3.9,3.5-3.9c0.9,0,2,0.6,2,1.4c0,0.8-0.4,1.1-0.9,1.1c-0.6,0-0.7-0.3-0.9-0.8
			c0.2,0,0.5-0.2,0.5-0.5c0-0.4-0.4-0.7-0.9-0.7c-1.4,0-1.8,1.2-1.8,2.6v2l2.5-0.2v1H568v4.7c0,2.1,0,2.3,2.1,2.5V457.2z"/>
		<path fill="#4C3D2A" d="M580.1,459.5c-0.1,0.2-1,1.8-2.8,1.8c-0.9,0-1.5-0.6-1.5-1.2c0-0.7,0.4-1,1-1c0.5,0,0.6,0.2,0.8,0.3
			c-0.2,0.2-0.4,0.3-0.4,0.6c0,0.3,0.3,0.5,0.7,0.5c1.1,0,2.4-2.1,2.4-3c0-0.6-0.2-1.2-0.5-1.7l-2-5.1c-0.5-1.2-0.6-1.7-1.9-1.7
			v-0.4c0.3,0,1.7,0.1,2.3,0.1c0.6,0,2-0.1,2.3-0.1v0.4c-0.6,0-1.5,0-1.5,0.6c0,0.4,0.1,0.5,0.2,0.9l1.9,5.1l1.8-4.7
			c0.1-0.2,0.3-0.8,0.3-1.2c0-0.8-0.9-0.8-1.7-0.8v-0.4c0.4,0,1.5,0.1,2.3,0.1c0.5,0,1.6-0.1,1.8-0.1v0.4c-0.9,0.1-1,0-1.7,1.7l-3,7
			L580.1,459.5z"/>
		<path fill="#4C3D2A" d="M590.2,457.4c-2.6,0-4.2-2-4.2-4.6c0-2.5,1.6-4.6,4.2-4.6c2.6,0,4.2,2,4.2,4.6
			C594.4,455.4,592.8,457.4,590.2,457.4z M592.7,452.9c0-2.3-0.7-4-2.5-4s-2.5,1.7-2.5,4c0,2.3,0.7,4,2.5,4S592.7,455.2,592.7,452.9
			z"/>
		<path fill="#4C3D2A" d="M605.7,457.2c-0.3,0-0.6,0-0.9-0.1c-0.3,0-0.6,0-0.9,0c-0.5,0-0.9,0-1.4,0.3c0.1-0.6,0.2-1.3,0.2-1.8
			c-0.9,0.8-2.2,1.8-4.1,1.8c-1.4,0-1.5-1.1-1.5-2.2v-3.6c0-1.7-0.3-1.8-1.8-1.8v-0.4c1.4-0.1,2.5-0.5,3.4-1.3c0,1-0.1,1.7-0.1,3.6
			v3c0,0.8,0,1.7,1.3,1.7c1.5,0,2.9-1,2.9-1.8v-2.9c0-1.8-0.3-1.8-1.8-1.8v-0.4c1.4-0.1,2.5-0.5,3.4-1.3c0,1-0.1,1.7-0.1,3.6v3.8
			c0,1.3,0.8,1.2,1.6,1.3V457.2z"/>
		<path fill="#4C3D2A" d="M607.3,449.3c0.7-0.6,1.7-1.5,1.7-2.5c0-0.4-0.2-0.8-0.6-0.8c-0.3,0-0.5,0.2-0.6,0.4
			c-0.3-0.3-0.6-0.6-0.6-1c0-0.8,0.5-1.3,1.2-1.3c0.9,0,1.4,0.9,1.4,1.8c0,1.9-1.5,3-2.2,3.6L607.3,449.3z"/>
		<path fill="#4C3D2A" d="M616.9,455c-0.1,0.3-0.7,1.6-0.9,2.4l-0.8-0.2c-0.1-0.8-0.3-1.5-0.8-2.8l-1.3-3.3c-0.7-1.8-0.6-2-2.1-2.2
			v-0.4c0.4,0,1.3,0.1,2.2,0.1c1,0,1.9-0.1,2.3-0.1v0.4c-0.8,0-1.4,0-1.5,0.6c0,0.4,0.2,0.8,0.4,1.3l1.7,4.4l1.5-3.7
			c0.2-0.6,0.6-1.4,0.6-1.9c-0.1-0.7-1-0.7-1.7-0.7v-0.4c0.4,0,1.4,0.1,2.2,0.1c0.6,0,1.6-0.1,1.9-0.1v0.4c-0.9,0.2-1.1,0.3-1.7,1.6
			L616.9,455z"/>
		<path fill="#4C3D2A" d="M628.6,454.1c-0.3,1.2-1.2,3.3-3.8,3.3c-2,0-3.6-1.2-3.6-4.4c0-2.9,1.7-4.7,4-4.7c2.8,0,3.2,2.4,3.2,3.5
			l-5.8,0.4c0,0.2,0,0.5,0,0.7c0,1.5,0.8,3.4,2.7,3.4c1.8,0,2.4-1.6,2.7-2.5L628.6,454.1z M626.1,451.3c0.3,0,0.9-0.2,0.9-0.7
			c0-0.8-0.7-1.7-1.7-1.7c-2.2,0-2.5,2-2.6,2.8L626.1,451.3z"/>
		<path fill="#4C3D2A" d="M640.9,456c0.4,0,1.7,0.5,1.7,1.7c0,2.1-2.5,3.4-5,3.4c-2.2,0-3-1-3-2c0-1.3,1.1-1.8,2.1-2.3
			c-0.6-0.2-1.5-0.5-1.5-1.2c0-1,0.8-1.2,1.7-1.6c-0.7-0.3-1.8-0.9-1.8-2.6c0-1.9,1.1-3.1,3.3-3.1c0.2,0,0.5,0,0.7,0
			c0.4-0.7,1.2-2.1,2.5-2.1c0.5,0,1,0.3,1,0.9c0,0.6-0.4,0.9-0.8,0.9c-0.2,0-0.4,0-0.5-0.1c0.1-0.1,0.2-0.2,0.2-0.3
			c0-0.2-0.1-0.4-0.4-0.4c-0.8,0-1.2,0.8-1.4,1.1c0.5,0.1,2,0.7,2,2.8c0,2-1.5,3.1-3.1,3.1h-0.7c-0.6,0-1.4,0.4-1.4,0.9
			c0,0.5,0.8,0.5,1.7,0.6L640.9,456z M638.2,457c-0.3,0-0.6-0.1-0.8-0.2c-0.6,0.4-1.5,1-1.5,1.9c0,1,1,1.4,2.5,1.4
			c1.6,0,3.4-0.8,3.4-2c0-0.7-0.9-1-1.8-1L638.2,457z M640.1,451.1c0-1.1-0.5-2.3-1.7-2.3c-1.2,0-1.7,1.2-1.7,2.5
			c0,1.3,0.4,2.4,1.7,2.4C639.7,453.7,640.1,452.6,640.1,451.1z"/>
		<path fill="#4C3D2A" d="M647.9,457.4c-2.6,0-4.2-2-4.2-4.6c0-2.5,1.6-4.6,4.2-4.6c2.6,0,4.2,2,4.2,4.6
			C652.1,455.4,650.5,457.4,647.9,457.4z M650.4,452.9c0-2.3-0.7-4-2.5-4s-2.5,1.7-2.5,4c0,2.3,0.7,4,2.5,4S650.4,455.2,650.4,452.9
			z"/>
		<path fill="#4C3D2A" d="M659.3,456.2c-0.9,0.6-1.9,1.2-3.1,1.2c-1.1,0-1.3-1.1-1.3-2.5v-5.5h-1.6v-0.5c1.7-0.2,1.9-1.1,2.5-3.1
			h0.6c0,0.7-0.1,2.1-0.1,2.9l2.7-0.2v1h-2.7v4.6c0,2.2,0.2,2.4,1,2.4c0.7,0,1.2-0.3,1.7-0.6L659.3,456.2z"/>
		<path fill="#4C3D2A" d="M673.1,457.2c-0.3,0-0.6,0-0.9-0.1c-0.3,0-0.6,0-0.9,0c-0.5,0-0.9,0-1.4,0.3c0.1-0.6,0.2-1.3,0.2-1.8
			c-0.8,0.7-1.8,1.8-3.3,1.8c-1,0-2-0.8-2-2.1c0-1.7,1.6-2.2,2.6-2.5l2.1-0.6c0.6-0.2,0.6-0.6,0.6-1.6c0-1.1-0.4-1.5-1.3-1.5
			c-1,0-2.1,0.4-2.1,1c0,0.2,0.2,0.5,0.3,0.5c0.1,0,0.2,0,0.3,0c0,0.5-0.3,1.2-1,1.2c-0.5,0-0.9-0.4-0.9-0.9c0-1.8,2.8-2.5,4.2-2.5
			c1.6,0,1.9,1,1.9,2.1v5c0,1.3,0.8,1.2,1.6,1.3V457.2z M668.7,453c-1.3,0.4-2.3,0.7-2.3,2c0,0.9,0.6,1.4,1.2,1.4c1,0,2.6-0.9,2.6-2
			v-1.8L668.7,453z"/>
		<path fill="#4C3D2A" d="M684.3,457.2c-0.8,0-1.6-0.1-2.3-0.1c-0.8,0-1.7,0.1-2.4,0.1v-0.4c1.6-0.2,1.6-0.5,1.6-2.5v-3.1
			c0-0.8,0-1.7-1.3-1.7c-1.8,0-2.9,1.3-2.9,2.4v2.5c0,2.1,0,2.3,1.6,2.5v0.4c-0.8,0-1.6-0.1-2.3-0.1c-0.8,0-1.7,0.1-2.4,0.1v-0.4
			c1.6-0.2,1.6-0.5,1.6-2.5v-2.6c0-1.7-0.3-1.8-2-1.8v-0.4c1.5-0.1,2.7-0.5,3.6-1.3c0,0.6-0.1,1-0.1,2.1c0.9-0.9,2.2-1.8,4.1-1.8
			c1.4,0,1.5,1.1,1.5,2.2v3.7c0,2.1,0,2.3,1.6,2.5V457.2z"/>
		<path fill="#4C3D2A" d="M694.8,457.2c-0.8,0-1.6-0.1-2.3-0.1c-0.8,0-1.7,0.1-2.4,0.1v-0.4c1.6-0.2,1.6-0.5,1.6-2.5v-2.6
			c0-1.7-0.3-1.8-2-1.8v-0.4c1.5-0.1,2.7-0.5,3.6-1.3c0,1-0.1,1.7-0.1,3.6v2.6c0,2.1,0,2.3,1.6,2.5V457.2z M692.1,446
			c-0.6,0-1.1-0.5-1.1-1.1c0-0.6,0.5-1.1,1.1-1.1c0.6,0,1.1,0.5,1.1,1.1C693.2,445.5,692.7,446,692.1,446z"/>
		<path fill="#4C3D2A" d="M705,457.2c-0.3,0-0.6,0-0.9-0.1c-0.3,0-0.6,0-0.8,0c-0.5,0-1.1,0.1-1.5,0.3c0-0.5,0.1-1.2,0.1-1.8
			c-1.1,1-2,1.8-3.5,1.8c-1.7,0-2.7-1.7-2.7-3.8c0-3.4,1.6-5.4,3.9-5.4c1.2,0,1.7,0.3,2.2,0.7v-1.8c0-2.2,0-2.6-2.2-2.6v-0.4
			c1.4,0,2.7-0.2,3.7-1c0,0.6-0.1,2.7-0.1,4v7c0,2.1,0,2.3,1.6,2.5V457.2z M702,451.7c0-1.5-0.3-2.8-2-2.8c-2,0-2.6,1.9-2.6,4.3
			c0,1.9,0.6,3.2,2.1,3.2c1.7,0,2.5-1.7,2.5-2.5V451.7z"/>
		<path fill="#4C3D2A" d="M713.4,454.1c-0.3,1.2-1.2,3.3-3.8,3.3c-2,0-3.6-1.2-3.6-4.4c0-2.9,1.7-4.7,4-4.7c2.8,0,3.2,2.4,3.2,3.5
			l-5.8,0.4c0,0.2,0,0.5,0,0.7c0,1.5,0.8,3.4,2.7,3.4c1.8,0,2.4-1.6,2.7-2.5L713.4,454.1z M710.8,451.3c0.3,0,0.9-0.2,0.9-0.7
			c0-0.8-0.7-1.7-1.7-1.7c-2.2,0-2.5,2-2.6,2.8L710.8,451.3z"/>
		<path fill="#4C3D2A" d="M723,457.2c-0.3,0-0.6,0-0.9-0.1c-0.3,0-0.6,0-0.9,0c-0.5,0-0.9,0-1.4,0.3c0.1-0.6,0.2-1.3,0.2-1.8
			c-0.8,0.7-1.8,1.8-3.3,1.8c-1,0-2-0.8-2-2.1c0-1.7,1.6-2.2,2.6-2.5l2.1-0.6c0.6-0.2,0.6-0.6,0.6-1.6c0-1.1-0.4-1.5-1.3-1.5
			c-1,0-2.1,0.4-2.1,1c0,0.2,0.2,0.5,0.3,0.5c0.1,0,0.2,0,0.3,0c0,0.5-0.3,1.2-1,1.2c-0.5,0-0.9-0.4-0.9-0.9c0-1.8,2.8-2.5,4.2-2.5
			c1.6,0,1.9,1,1.9,2.1v5c0,1.3,0.8,1.2,1.6,1.3V457.2z M718.6,453c-1.3,0.4-2.3,0.7-2.3,2c0,0.9,0.6,1.4,1.2,1.4c1,0,2.6-0.9,2.6-2
			v-1.8L718.6,453z"/>
		<path fill="#4C3D2A" d="M737.1,457.2c-0.3,0-0.6,0-0.9-0.1c-0.3,0-0.6,0-0.9,0c-0.5,0-0.9,0-1.4,0.3c0.1-0.6,0.2-1.3,0.2-1.8
			c-0.8,0.7-1.8,1.8-3.3,1.8c-1,0-2-0.8-2-2.1c0-1.7,1.6-2.2,2.6-2.5l2.1-0.6c0.6-0.2,0.6-0.6,0.6-1.6c0-1.1-0.4-1.5-1.3-1.5
			c-1,0-2.1,0.4-2.1,1c0,0.2,0.2,0.5,0.3,0.5c0.1,0,0.2,0,0.3,0c0,0.5-0.3,1.2-1,1.2c-0.5,0-0.9-0.4-0.9-0.9c0-1.8,2.8-2.5,4.2-2.5
			c1.6,0,1.9,1,1.9,2.1v5c0,1.3,0.8,1.2,1.6,1.3V457.2z M732.7,453c-1.3,0.4-2.3,0.7-2.3,2c0,0.9,0.6,1.4,1.2,1.4c1,0,2.6-0.9,2.6-2
			v-1.8L732.7,453z"/>
		<path fill="#4C3D2A" d="M748.3,457.2c-0.8,0-1.6-0.1-2.3-0.1c-0.8,0-1.7,0.1-2.4,0.1v-0.4c1.6-0.2,1.6-0.5,1.6-2.5v-3.1
			c0-0.8,0-1.7-1.3-1.7c-1.8,0-2.9,1.3-2.9,2.4v2.5c0,2.1,0,2.3,1.6,2.5v0.4c-0.8,0-1.6-0.1-2.3-0.1c-0.8,0-1.7,0.1-2.4,0.1v-0.4
			c1.6-0.2,1.6-0.5,1.6-2.5v-2.6c0-1.7-0.3-1.8-2-1.8v-0.4c1.5-0.1,2.7-0.5,3.6-1.3c0,0.6-0.1,1-0.1,2.1c0.9-0.9,2.2-1.8,4.1-1.8
			c1.4,0,1.5,1.1,1.5,2.2v3.7c0,2.1,0,2.3,1.6,2.5V457.2z"/>
		<path fill="#4C3D2A" d="M758.5,457.2c-0.3,0-0.6,0-0.9-0.1c-0.3,0-0.6,0-0.8,0c-0.5,0-1.1,0.1-1.5,0.3c0-0.5,0.1-1.2,0.1-1.8
			c-1.1,1-2,1.8-3.5,1.8c-1.7,0-2.7-1.7-2.7-3.8c0-3.4,1.6-5.4,3.9-5.4c1.2,0,1.7,0.3,2.2,0.7v-1.8c0-2.2,0-2.6-2.2-2.6v-0.4
			c1.4,0,2.7-0.2,3.7-1c0,0.6-0.1,2.7-0.1,4v7c0,2.1,0,2.3,1.6,2.5V457.2z M755.5,451.7c0-1.5-0.3-2.8-2-2.8c-2,0-2.6,1.9-2.6,4.3
			c0,1.9,0.6,3.2,2.1,3.2c1.7,0,2.5-1.7,2.5-2.5V451.7z"/>
		<path fill="#4C3D2A" d="M443.9,482.3c-0.1,0.2-1,1.8-2.8,1.8c-0.9,0-1.5-0.6-1.5-1.2c0-0.7,0.4-1,1-1c0.5,0,0.6,0.2,0.8,0.3
			c-0.2,0.2-0.4,0.3-0.4,0.6c0,0.3,0.3,0.5,0.7,0.5c1.1,0,2.4-2.1,2.4-3c0-0.6-0.2-1.2-0.5-1.7l-2-5.1c-0.5-1.2-0.6-1.7-1.9-1.7
			v-0.4c0.3,0,1.7,0.1,2.3,0.1c0.6,0,2-0.1,2.3-0.1v0.4c-0.6,0-1.5,0-1.5,0.6c0,0.4,0.1,0.5,0.2,0.9l1.9,5.1l1.8-4.7
			c0.1-0.2,0.3-0.8,0.3-1.2c0-0.8-0.9-0.8-1.7-0.8v-0.4c0.4,0,1.5,0.1,2.3,0.1c0.5,0,1.6-0.1,1.8-0.1v0.4c-0.9,0.1-1,0-1.7,1.7l-3,7
			L443.9,482.3z"/>
		<path fill="#4C3D2A" d="M454.1,480.2c-2.6,0-4.2-2-4.2-4.6c0-2.5,1.6-4.6,4.2-4.6c2.6,0,4.2,2,4.2,4.6
			C458.2,478.2,456.6,480.2,454.1,480.2z M456.5,475.7c0-2.3-0.7-4-2.5-4s-2.5,1.7-2.5,4c0,2.3,0.7,4,2.5,4S456.5,478,456.5,475.7z"
			/>
		<path fill="#4C3D2A" d="M469.5,480c-0.3,0-0.6,0-0.9-0.1c-0.3,0-0.6,0-0.9,0c-0.5,0-0.9,0-1.4,0.3c0.1-0.6,0.2-1.3,0.2-1.8
			c-0.9,0.8-2.2,1.8-4.1,1.8c-1.4,0-1.5-1.1-1.5-2.2v-3.6c0-1.7-0.3-1.8-1.8-1.8v-0.4c1.4-0.1,2.5-0.5,3.4-1.3c0,1-0.1,1.7-0.1,3.6
			v3c0,0.8,0,1.7,1.3,1.7c1.5,0,2.9-1,2.9-1.8v-2.9c0-1.8-0.3-1.8-1.8-1.8v-0.4c1.4-0.1,2.5-0.5,3.4-1.3c0,1-0.1,1.7-0.1,3.6v3.8
			c0,1.3,0.8,1.2,1.6,1.3V480z"/>
		<path fill="#4C3D2A" d="M478.9,479.9c0,2.1-1.5,3.7-3.6,3.7c-0.8,0-1.8-0.3-1.8-1.1c0-0.5,0.4-0.9,1-0.9c0.2,0,0.4,0.1,0.6,0.2
			c-0.1,0.1-0.2,0.3-0.2,0.5c0,0.4,0.3,0.6,0.9,0.6c1.7,0,1.7-2.2,1.7-4.4v-4.1c0-1.7-0.3-1.8-2-1.8v-0.4c1.5-0.1,2.7-0.5,3.6-1.3
			c0,1-0.1,1.7-0.1,3.6V479.9z M477.9,468.8c-0.6,0-1.1-0.5-1.1-1.1c0-0.6,0.5-1.1,1.1-1.1c0.6,0,1.1,0.5,1.1,1.1
			C478.9,468.3,478.5,468.8,477.9,468.8z"/>
		<path fill="#4C3D2A" d="M491,480c-0.3,0-0.6,0-0.9-0.1c-0.3,0-0.6,0-0.9,0c-0.5,0-0.9,0-1.4,0.3c0.1-0.6,0.2-1.3,0.2-1.8
			c-0.9,0.8-2.2,1.8-4.1,1.8c-1.4,0-1.5-1.1-1.5-2.2v-3.6c0-1.7-0.3-1.8-1.8-1.8v-0.4c1.4-0.1,2.5-0.5,3.4-1.3c0,1-0.1,1.7-0.1,3.6
			v3c0,0.8,0,1.7,1.3,1.7c1.5,0,2.9-1,2.9-1.8v-2.9c0-1.8-0.3-1.8-1.8-1.8v-0.4c1.4-0.1,2.5-0.5,3.4-1.3c0,1-0.1,1.7-0.1,3.6v3.8
			c0,1.3,0.8,1.2,1.6,1.3V480z"/>
		<path fill="#4C3D2A" d="M497.4,474.1c-0.3-0.9-0.8-2.4-2.4-2.4c-1.1,0-1.6,0.5-1.6,1.3c0,2.1,5.1,1.3,5.1,4.6
			c0,1.3-1.1,2.6-2.9,2.6c-1.3,0-1.8-0.5-2.7-0.5c-0.2,0-0.5,0.1-0.7,0.3c0-0.3,0.1-0.7,0.1-1.2c0-0.7,0-1.3-0.1-2.1h0.4
			c0.2,1.1,0.6,2.9,2.8,2.9c1,0,1.9-0.6,1.9-1.5c0-2.2-5-1.4-5-4.5c0-1.3,0.9-2.5,2.8-2.5c0.9,0,1.7,0.4,2.1,0.4
			c0.2,0,0.4-0.2,0.6-0.3c0,0.3,0,0.6,0,0.9c0,0.4,0,1.2,0.1,2H497.4z"/>
		<path fill="#4C3D2A" d="M505.5,479c-0.9,0.6-1.9,1.2-3.1,1.2c-1.1,0-1.3-1.1-1.3-2.5v-5.5h-1.6v-0.5c1.7-0.2,1.9-1.1,2.5-3.1h0.6
			c0,0.7-0.1,2.1-0.1,2.9l2.7-0.2v1h-2.7v4.6c0,2.2,0.2,2.4,1,2.4c0.7,0,1.2-0.3,1.7-0.6L505.5,479z"/>
		<path fill="#4C3D2A" d="M521.4,480c-0.8,0-1.6-0.1-2.3-0.1c-0.8,0-1.7,0.1-2.4,0.1v-0.4c1.6-0.2,1.6-0.5,1.6-2.5v-3.1
			c0-0.8,0-1.7-1.3-1.7c-1.8,0-2.9,1.3-2.9,2.4v2.5c0,2.1,0,2.3,1.6,2.5v0.4c-0.8,0-1.6-0.1-2.3-0.1c-0.8,0-1.7,0.1-2.4,0.1v-0.4
			c1.6-0.2,1.6-0.5,1.6-2.5v-2.6c0-1.7-0.3-1.8-2-1.8v-0.4c1.5-0.1,2.7-0.5,3.6-1.3c0,0.6-0.1,1-0.1,2.1c0.9-0.9,2.2-1.8,4.1-1.8
			c1.4,0,1.5,1.1,1.5,2.2v3.7c0,2.1,0,2.3,1.6,2.5V480z"/>
		<path fill="#4C3D2A" d="M529.7,476.9c-0.3,1.2-1.2,3.3-3.8,3.3c-2,0-3.6-1.2-3.6-4.4c0-2.9,1.7-4.7,4-4.7c2.8,0,3.2,2.4,3.2,3.5
			l-5.8,0.4c0,0.2,0,0.5,0,0.7c0,1.5,0.8,3.4,2.7,3.4c1.8,0,2.4-1.6,2.7-2.5L529.7,476.9z M527.2,474.1c0.3,0,0.9-0.2,0.9-0.7
			c0-0.8-0.7-1.7-1.7-1.7c-2.2,0-2.5,2-2.6,2.8L527.2,474.1z"/>
		<path fill="#4C3D2A" d="M538.5,476.9c-0.3,1.2-1.2,3.3-3.8,3.3c-2,0-3.6-1.2-3.6-4.4c0-2.9,1.7-4.7,4-4.7c2.8,0,3.2,2.4,3.2,3.5
			l-5.8,0.4c0,0.2,0,0.5,0,0.7c0,1.5,0.8,3.4,2.7,3.4c1.8,0,2.4-1.6,2.7-2.5L538.5,476.9z M536,474.1c0.3,0,0.9-0.2,0.9-0.7
			c0-0.8-0.7-1.7-1.7-1.7c-2.2,0-2.5,2-2.6,2.8L536,474.1z"/>
		<path fill="#4C3D2A" d="M549.2,480c-0.3,0-0.6,0-0.9-0.1c-0.3,0-0.6,0-0.8,0c-0.5,0-1.1,0.1-1.5,0.3c0-0.5,0.1-1.2,0.1-1.8
			c-1.1,1-2,1.8-3.5,1.8c-1.7,0-2.7-1.7-2.7-3.8c0-3.4,1.6-5.4,3.9-5.4c1.2,0,1.7,0.3,2.2,0.7V470c0-2.2,0-2.6-2.2-2.6V467
			c1.4,0,2.7-0.2,3.7-1c0,0.6-0.1,2.7-0.1,4v7c0,2.1,0,2.3,1.6,2.5V480z M546.1,474.5c0-1.5-0.3-2.8-2-2.8c-2,0-2.6,1.9-2.6,4.3
			c0,1.9,0.6,3.2,2.1,3.2c1.7,0,2.5-1.7,2.5-2.5V474.5z"/>
		<path fill="#4C3D2A" d="M560.7,479c-0.9,0.6-1.9,1.2-3.1,1.2c-1.1,0-1.3-1.1-1.3-2.5v-5.5h-1.6v-0.5c1.7-0.2,1.9-1.1,2.5-3.1h0.6
			c0,0.7-0.1,2.1-0.1,2.9l2.7-0.2v1h-2.7v4.6c0,2.2,0.2,2.4,1,2.4c0.7,0,1.2-0.3,1.7-0.6L560.7,479z"/>
		<path fill="#4C3D2A" d="M565.6,480.2c-2.6,0-4.2-2-4.2-4.6c0-2.5,1.6-4.6,4.2-4.6c2.6,0,4.2,2,4.2,4.6
			C569.7,478.2,568.1,480.2,565.6,480.2z M568.1,475.7c0-2.3-0.7-4-2.5-4s-2.5,1.7-2.5,4c0,2.3,0.7,4,2.5,4S568.1,478,568.1,475.7z"
			/>
		<path fill="#4C3D2A" d="M581,480c-0.9,0-2-0.1-2.7-0.1c-0.8,0-1.7,0.1-2.4,0.1v-0.4c1.6-0.2,1.6-0.5,1.6-2.5v-4.7h-1.6v-0.4
			c1.3-0.2,1.6-0.6,1.6-1.6c0-1.5,0.5-3.9,3.5-3.9c0.9,0,2,0.6,2,1.4c0,0.8-0.4,1.1-0.9,1.1c-0.6,0-0.7-0.3-1-0.8
			c0.2,0,0.5-0.2,0.5-0.5c0-0.4-0.4-0.7-0.9-0.7c-1.4,0-1.8,1.2-1.8,2.6v2l2.5-0.2v1h-2.5v4.7c0,2.1,0,2.3,2.1,2.5V480z"/>
		<path fill="#4C3D2A" d="M586.7,480.2c-2.6,0-4.2-2-4.2-4.6c0-2.5,1.6-4.6,4.2-4.6c2.6,0,4.2,2,4.2,4.6
			C590.9,478.2,589.2,480.2,586.7,480.2z M589.2,475.7c0-2.3-0.7-4-2.5-4s-2.5,1.7-2.5,4c0,2.3,0.7,4,2.5,4S589.2,478,589.2,475.7z"
			/>
		<path fill="#4C3D2A" d="M599.8,476.9c-0.4,1.3-1.1,3.4-3.8,3.4c-2.3,0-3.6-1.8-3.6-4.4c0-2.9,1.9-4.7,4.1-4.7
			c1.2,0,2.6,0.6,2.6,1.7c0,0.7-0.5,1.2-1.1,1.2c-0.4,0-0.9-0.3-0.9-1c0.4,0,0.6-0.3,0.6-0.5c0-0.6-0.6-0.8-1.3-0.8
			c-1.6,0-2.7,1.3-2.7,3.5c0,2,0.8,4,2.6,4c1.9,0,2.5-1.4,2.8-2.5L599.8,476.9z"/>
		<path fill="#4C3D2A" d="M610.6,480c-0.3,0-0.6,0-0.9-0.1c-0.3,0-0.6,0-0.9,0c-0.5,0-0.9,0-1.4,0.3c0.1-0.6,0.2-1.3,0.2-1.8
			c-0.9,0.8-2.2,1.8-4.1,1.8c-1.4,0-1.5-1.1-1.5-2.2v-3.6c0-1.7-0.3-1.8-1.8-1.8v-0.4c1.4-0.1,2.5-0.5,3.4-1.3c0,1-0.1,1.7-0.1,3.6
			v3c0,0.8,0,1.7,1.3,1.7c1.5,0,2.9-1,2.9-1.8v-2.9c0-1.8-0.3-1.8-1.8-1.8v-0.4c1.4-0.1,2.5-0.5,3.4-1.3c0,1-0.1,1.7-0.1,3.6v3.8
			c0,1.3,0.8,1.2,1.6,1.3V480z"/>
		<path fill="#4C3D2A" d="M617,474.1c-0.3-0.9-0.8-2.4-2.4-2.4c-1.1,0-1.6,0.5-1.6,1.3c0,2.1,5.1,1.3,5.1,4.6c0,1.3-1.1,2.6-2.9,2.6
			c-1.3,0-1.8-0.5-2.7-0.5c-0.2,0-0.5,0.1-0.7,0.3c0-0.3,0.1-0.7,0.1-1.2c0-0.7,0-1.3-0.1-2.1h0.4c0.2,1.1,0.6,2.9,2.8,2.9
			c1,0,1.9-0.6,1.9-1.5c0-2.2-5-1.4-5-4.5c0-1.3,0.9-2.5,2.8-2.5c0.9,0,1.7,0.4,2.1,0.4c0.2,0,0.4-0.2,0.6-0.3c0,0.3,0,0.6,0,0.9
			c0,0.4,0,1.2,0.1,2H617z"/>
		<path fill="#4C3D2A" d="M628.5,480.2c-2.6,0-4.2-2-4.2-4.6c0-2.5,1.6-4.6,4.2-4.6c2.6,0,4.2,2,4.2,4.6
			C632.7,478.2,631.1,480.2,628.5,480.2z M631,475.7c0-2.3-0.7-4-2.5-4s-2.5,1.7-2.5,4c0,2.3,0.7,4,2.5,4S631,478,631,475.7z"/>
		<path fill="#4C3D2A" d="M644.5,480c-0.8,0-1.6-0.1-2.3-0.1c-0.8,0-1.7,0.1-2.4,0.1v-0.4c1.6-0.2,1.6-0.5,1.6-2.5v-3.1
			c0-0.8,0-1.7-1.3-1.7c-1.8,0-2.9,1.3-2.9,2.4v2.5c0,2.1,0,2.3,1.6,2.5v0.4c-0.8,0-1.6-0.1-2.3-0.1c-0.8,0-1.7,0.1-2.4,0.1v-0.4
			c1.6-0.2,1.6-0.5,1.6-2.5v-2.6c0-1.7-0.3-1.8-2-1.8v-0.4c1.5-0.1,2.7-0.5,3.6-1.3c0,0.6-0.1,1-0.1,2.1c0.9-0.9,2.2-1.8,4.1-1.8
			c1.4,0,1.5,1.1,1.5,2.2v3.7c0,2.1,0,2.3,1.6,2.5V480z"/>
		<path fill="#4C3D2A" d="M656.1,479c-0.9,0.6-1.9,1.2-3.1,1.2c-1.1,0-1.3-1.1-1.3-2.5v-5.5h-1.6v-0.5c1.7-0.2,1.9-1.1,2.5-3.1h0.6
			c0,0.7-0.1,2.1-0.1,2.9l2.7-0.2v1h-2.7v4.6c0,2.2,0.2,2.4,1,2.4c0.7,0,1.2-0.3,1.7-0.6L656.1,479z"/>
		<path fill="#4C3D2A" d="M666.7,480c-0.8,0-1.6-0.1-2.3-0.1c-0.8,0-1.7,0.1-2.4,0.1v-0.4c1.6-0.2,1.6-0.5,1.6-2.5v-3.1
			c0-0.8,0-1.7-1.3-1.7c-1.8,0-2.9,1.3-2.9,2.4v2.5c0,2.1,0,2.3,1.6,2.5v0.4c-0.8,0-1.6-0.1-2.3-0.1c-0.8,0-1.7,0.1-2.4,0.1v-0.4
			c1.6-0.2,1.6-0.5,1.6-2.5v-7c0-2.2,0-2.6-2.2-2.6V467c1.4,0,2.7-0.2,3.7-1c0,0.6-0.1,2.7-0.1,4v2.9c0.9-0.9,2.2-1.8,4.1-1.8
			c1.4,0,1.5,1.1,1.5,2.2v3.7c0,2.1,0,2.3,1.6,2.5V480z"/>
		<path fill="#4C3D2A" d="M675,476.9c-0.3,1.2-1.2,3.3-3.8,3.3c-2,0-3.6-1.2-3.6-4.4c0-2.9,1.7-4.7,4-4.7c2.8,0,3.2,2.4,3.2,3.5
			l-5.8,0.4c0,0.2,0,0.5,0,0.7c0,1.5,0.8,3.4,2.7,3.4c1.8,0,2.4-1.6,2.7-2.5L675,476.9z M672.5,474.1c0.3,0,0.9-0.2,0.9-0.7
			c0-0.8-0.7-1.7-1.7-1.7c-2.2,0-2.5,2-2.6,2.8L672.5,474.1z"/>
		<path fill="#4C3D2A" d="M683.5,472.9c1-0.8,2-1.7,3.5-1.7c1.9,0,2.7,1.8,2.7,4c0,3.2-1.4,5.2-3.8,5.2c-1.5,0-2-0.6-2.7-1.2
			c-0.3,0.7-0.8,1.1-1.7,1.6l-0.2-0.3c0.6-0.8,0.9-0.8,0.9-3.3v-7c0-2.2,0-2.6-2.2-2.6V467c1.4,0,2.7-0.2,3.7-1c0,0.6-0.1,2.7-0.1,4
			V472.9z M683.5,476.4c0,1.3,0.1,3.2,2.3,3.2c1.5,0,2.3-1.6,2.3-3.9c0-2.1-0.6-3.6-2.1-3.6c-2.1,0-2.5,1.6-2.5,3.1V476.4z"/>
		<path fill="#4C3D2A" d="M701,480c-0.3,0-0.6,0-0.9-0.1c-0.3,0-0.6,0-0.9,0c-0.5,0-0.9,0-1.4,0.3c0.1-0.6,0.2-1.3,0.2-1.8
			c-0.9,0.8-2.2,1.8-4.1,1.8c-1.4,0-1.5-1.1-1.5-2.2v-3.6c0-1.7-0.3-1.8-1.8-1.8v-0.4c1.4-0.1,2.5-0.5,3.4-1.3c0,1-0.1,1.7-0.1,3.6
			v3c0,0.8,0,1.7,1.3,1.7c1.5,0,2.9-1,2.9-1.8v-2.9c0-1.8-0.3-1.8-1.8-1.8v-0.4c1.4-0.1,2.5-0.5,3.4-1.3c0,1-0.1,1.7-0.1,3.6v3.8
			c0,1.3,0.8,1.2,1.6,1.3V480z"/>
		<path fill="#4C3D2A" d="M707.4,474.1c-0.3-0.9-0.8-2.4-2.4-2.4c-1.1,0-1.6,0.5-1.6,1.3c0,2.1,5.1,1.3,5.1,4.6
			c0,1.3-1.1,2.6-2.9,2.6c-1.3,0-1.8-0.5-2.7-0.5c-0.2,0-0.5,0.1-0.7,0.3c0-0.3,0.1-0.7,0.1-1.2c0-0.7,0-1.3-0.1-2.1h0.4
			c0.2,1.1,0.6,2.9,2.8,2.9c1,0,1.9-0.6,1.9-1.5c0-2.2-5-1.4-5-4.5c0-1.3,0.9-2.5,2.8-2.5c0.9,0,1.7,0.4,2.1,0.4
			c0.2,0,0.4-0.2,0.6-0.3c0,0.3,0,0.6,0,0.9c0,0.4,0,1.2,0.1,2H707.4z"/>
		<path fill="#4C3D2A" d="M713.4,482.3c-0.1,0.2-1,1.8-2.8,1.8c-0.9,0-1.5-0.6-1.5-1.2c0-0.7,0.4-1,1-1c0.5,0,0.6,0.2,0.8,0.3
			c-0.2,0.2-0.4,0.3-0.4,0.6c0,0.3,0.3,0.5,0.7,0.5c1.1,0,2.4-2.1,2.4-3c0-0.6-0.2-1.2-0.5-1.7l-2-5.1c-0.5-1.2-0.6-1.7-1.9-1.7
			v-0.4c0.3,0,1.7,0.1,2.3,0.1c0.6,0,2-0.1,2.3-0.1v0.4c-0.6,0-1.5,0-1.5,0.6c0,0.4,0.1,0.5,0.2,0.9l1.9,5.1l1.8-4.7
			c0.1-0.2,0.3-0.8,0.3-1.2c0-0.8-0.9-0.8-1.7-0.8v-0.4c0.4,0,1.5,0.1,2.3,0.1c0.5,0,1.6-0.1,1.8-0.1v0.4c-0.9,0.1-1,0-1.7,1.7l-3,7
			L713.4,482.3z"/>
		<path fill="#4C3D2A" d="M735.1,478c-0.5,1-0.7,1.5-0.7,2.3l-0.8-0.1c0-0.6-0.3-1.4-0.5-2l-1.6-3.9l-1.9,4.2
			c-0.4,0.8-0.5,1.3-0.6,1.9l-0.8-0.1c0-0.4-0.3-1.4-0.6-2.2l-2-4.8c-0.5-1.2-1.1-1.1-1.7-1.2v-0.4c0.3,0,1.6,0.1,2.1,0.1
			c0.8,0,1.9-0.1,2.3-0.1v0.4c-0.7,0-1.4,0.1-1.4,0.7c0,0.5,0.2,0.8,0.4,1.3l1.7,4.3l2.1-4.6c-0.4-1.1-0.3-1.3-1.8-1.6v-0.4
			c0.4,0,1.4,0.1,2.1,0.1c0.8,0,2-0.1,2.5-0.1v0.4c-0.6,0-1.5,0.1-1.5,0.6c0,0.5,0.3,0.9,0.5,1.4l1.7,4.2l1.6-3.9
			c0.2-0.5,0.5-1.1,0.5-1.7c0-0.7-1-0.7-1.7-0.7v-0.4c0.4,0,1.5,0.1,2.3,0.1c0.5,0,1.4-0.1,1.8-0.1v0.4c-0.6,0-1.2,0.4-1.8,1.8
			L735.1,478z"/>
		<path fill="#4C3D2A" d="M743.6,480.2c-2.6,0-4.2-2-4.2-4.6c0-2.5,1.6-4.6,4.2-4.6c2.6,0,4.2,2,4.2,4.6
			C747.8,478.2,746.2,480.2,743.6,480.2z M746.1,475.7c0-2.3-0.7-4-2.5-4s-2.5,1.7-2.5,4c0,2.3,0.7,4,2.5,4S746.1,478,746.1,475.7z"
			/>
		<path fill="#4C3D2A" d="M754.2,480c-0.8,0-1.9-0.1-2.5-0.1c-0.8,0-1.7,0.1-2.4,0.1v-0.4c1.6-0.2,1.6-0.5,1.6-2.5v-2.6
			c0-1.7-0.3-1.8-2-1.8v-0.4c1.5-0.1,2.7-0.5,3.6-1.3c0,0.5-0.1,1.1-0.1,2c1-0.9,1.7-1.8,2.7-1.8c0.5,0,1,0.4,1,1
			c0,0.7-0.5,1.1-1,1.1c-0.1,0-0.4,0-0.4-0.1c0-0.1,0.1-0.2,0.1-0.3c0-0.3-0.3-0.5-0.6-0.5c-0.5,0-1.8,0.7-1.8,2.2v2.6
			c0,2.1,0,2.3,1.9,2.5V480z"/>
		<path fill="#4C3D2A" d="M766.6,480c-0.2,0-0.5,0-0.8-0.1c-0.3,0-0.6,0-0.7,0c-0.4,0-0.8,0.1-1.1,0.2c0-0.1,0-0.3,0-0.4
			c0-0.1-0.1-0.2-0.6-0.9l-2.4-3.3l-1.2,1.2c0,2.3,0,2.6,1.6,2.8v0.4c-0.8,0-1.6-0.1-2.3-0.1c-0.8,0-1.7,0.1-2.4,0.1v-0.4
			c1.6-0.2,1.6-0.5,1.6-2.5v-7c0-2.2,0-2.6-2.2-2.6V467c1.4,0,2.7-0.2,3.7-1c0,0.6-0.1,2.7-0.1,4v5.9l2.3-2.3
			c0.6-0.6,0.9-1.1,0.9-1.3c0-0.5-0.6-0.6-1.3-0.6v-0.4c0.4,0,1.7,0.1,2.3,0.1c0.7,0,1.6-0.1,2.1-0.1v0.4c-1.3,0.1-1.6,0.3-2.7,1.5
			l-1.3,1.3l2.6,3.6c0.7,1,1,1.3,2,1.4V480z"/>
		<path fill="#4C3D2A" d="M769.3,480.2c-0.6,0-1.1-0.5-1.1-1.1c0-0.6,0.5-1.1,1.1-1.1c0.6,0,1.1,0.5,1.1,1.1
			C770.4,479.8,769.9,480.2,769.3,480.2z"/>
		<path fill="#4C3D2A" d="M451.6,498.4c-0.6,2.8-2.5,4.6-5.4,4.6c-3.6,0-5.7-2.8-5.7-6.7c0-3.7,2.2-6.5,6-6.5c1.5,0,2.9,0.6,3.5,0.6
			c0.4,0,0.7-0.2,1-0.4c0,0.5-0.1,1.4-0.1,2.2c0,0.6,0.1,1.5,0.1,1.9h-0.5c-0.3-1.2-1-3.6-3.7-3.6c-3.2,0-4.4,2.6-4.4,5.8
			c0,2.5,1.3,5.5,4.3,5.5c3.2,0,3.9-2.3,4.4-3.4H451.6z"/>
		<path fill="#4C3D2A" d="M456.8,503c-2.6,0-4.2-2-4.2-4.6c0-2.5,1.6-4.6,4.2-4.6c2.6,0,4.2,2,4.2,4.6C461,501,459.4,503,456.8,503z
			 M459.3,498.5c0-2.3-0.7-4-2.5-4s-2.5,1.7-2.5,4c0,2.3,0.7,4,2.5,4S459.3,500.8,459.3,498.5z"/>
		<path fill="#4C3D2A" d="M467.4,502.8c-0.9,0-2-0.1-2.7-0.1c-0.8,0-1.7,0.1-2.4,0.1v-0.4c1.6-0.2,1.6-0.5,1.6-2.5v-4.7h-1.6v-0.4
			c1.3-0.2,1.6-0.6,1.6-1.6c0-1.5,0.5-3.9,3.5-3.9c0.9,0,2,0.6,2,1.4c0,0.8-0.4,1.1-0.9,1.1c-0.6,0-0.7-0.3-0.9-0.8
			c0.2,0,0.5-0.2,0.5-0.5c0-0.4-0.4-0.7-0.9-0.7c-1.4,0-1.8,1.2-1.8,2.6v2l2.5-0.2v1h-2.5v4.7c0,2.1,0,2.3,2.1,2.5V502.8z"/>
		<path fill="#4C3D2A" d="M473.7,502.8c-0.9,0-2-0.1-2.7-0.1c-0.8,0-1.7,0.1-2.4,0.1v-0.4c1.6-0.2,1.6-0.5,1.6-2.5v-4.7h-1.6v-0.4
			c1.3-0.2,1.6-0.6,1.6-1.6c0-1.5,0.5-3.9,3.5-3.9c0.9,0,2,0.6,2,1.4c0,0.8-0.4,1.1-0.9,1.1c-0.6,0-0.7-0.3-1-0.8
			c0.2,0,0.5-0.2,0.5-0.5c0-0.4-0.4-0.7-0.9-0.7c-1.4,0-1.8,1.2-1.8,2.6v2l2.5-0.2v1h-2.5v4.7c0,2.1,0,2.3,2.1,2.5V502.8z"/>
		<path fill="#4C3D2A" d="M482.6,499.7c-0.3,1.2-1.2,3.3-3.8,3.3c-2,0-3.6-1.2-3.6-4.4c0-2.9,1.7-4.7,4-4.7c2.8,0,3.2,2.4,3.2,3.5
			l-5.8,0.4c0,0.2,0,0.5,0,0.7c0,1.5,0.8,3.4,2.7,3.4c1.8,0,2.4-1.6,2.7-2.5L482.6,499.7z M480,496.9c0.3,0,0.9-0.2,0.9-0.7
			c0-0.8-0.7-1.7-1.7-1.7c-2.2,0-2.5,2-2.6,2.8L480,496.9z"/>
		<path fill="#4C3D2A" d="M491.4,499.7c-0.3,1.2-1.2,3.3-3.8,3.3c-2,0-3.6-1.2-3.6-4.4c0-2.9,1.7-4.7,4-4.7c2.8,0,3.2,2.4,3.2,3.5
			l-5.8,0.4c0,0.2,0,0.5,0,0.7c0,1.5,0.8,3.4,2.7,3.4c1.8,0,2.4-1.6,2.7-2.5L491.4,499.7z M488.8,496.9c0.3,0,0.9-0.2,0.9-0.7
			c0-0.8-0.7-1.7-1.7-1.7c-2.2,0-2.5,2-2.6,2.8L488.8,496.9z"/>
		<path fill="#4C3D2A" d="M503.7,501.6c0.4,0,1.7,0.5,1.7,1.7c0,2.1-2.5,3.4-5,3.4c-2.2,0-3-1-3-2c0-1.3,1.1-1.8,2.1-2.3
			c-0.6-0.2-1.5-0.5-1.5-1.2c0-1,0.8-1.2,1.7-1.6c-0.7-0.3-1.8-0.9-1.8-2.6c0-1.9,1.1-3.1,3.3-3.1c0.2,0,0.5,0,0.7,0
			c0.4-0.7,1.2-2.1,2.5-2.1c0.5,0,1,0.3,1,0.9c0,0.6-0.4,0.9-0.8,0.9c-0.2,0-0.4,0-0.5-0.1c0.1-0.1,0.2-0.2,0.2-0.3
			c0-0.2-0.1-0.4-0.4-0.4c-0.8,0-1.2,0.8-1.4,1.1c0.5,0.1,2,0.7,2,2.8c0,2-1.5,3.1-3.1,3.1h-0.7c-0.6,0-1.4,0.4-1.4,0.9
			c0,0.5,0.8,0.5,1.7,0.6L503.7,501.6z M501,502.6c-0.3,0-0.6-0.1-0.8-0.2c-0.6,0.4-1.5,1-1.5,1.9c0,1,1,1.4,2.5,1.4
			c1.6,0,3.4-0.8,3.4-2c0-0.7-0.9-1-1.8-1L501,502.6z M502.9,496.7c0-1.1-0.5-2.3-1.7-2.3c-1.2,0-1.7,1.2-1.7,2.5
			c0,1.3,0.4,2.4,1.7,2.4C502.4,499.3,502.9,498.2,502.9,496.7z"/>
		<path fill="#4C3D2A" d="M511.1,502.8c-0.8,0-1.6-0.1-2.3-0.1c-0.8,0-1.7,0.1-2.4,0.1v-0.4c1.6-0.2,1.6-0.5,1.6-2.5v-2.6
			c0-1.7-0.3-1.8-2-1.8V495c1.5-0.1,2.7-0.5,3.6-1.3c0,1-0.1,1.7-0.1,3.6v2.6c0,2.1,0,2.3,1.6,2.5V502.8z M508.4,491.6
			c-0.6,0-1.1-0.5-1.1-1.1c0-0.6,0.5-1.1,1.1-1.1c0.6,0,1.1,0.5,1.1,1.1C509.5,491.1,509,491.6,508.4,491.6z"/>
		<path fill="#4C3D2A" d="M517.3,500.6c-0.1,0.3-0.7,1.6-0.9,2.4l-0.8-0.2c-0.1-0.8-0.3-1.5-0.8-2.8l-1.3-3.3
			c-0.7-1.8-0.6-2-2.1-2.2v-0.4c0.4,0,1.3,0.1,2.2,0.1c1,0,1.9-0.1,2.3-0.1v0.4c-0.8,0-1.4,0-1.5,0.6c0,0.4,0.2,0.8,0.4,1.3l1.7,4.4
			l1.5-3.7c0.2-0.6,0.6-1.4,0.6-1.9c-0.1-0.7-1-0.7-1.7-0.7v-0.4c0.4,0,1.4,0.1,2.2,0.1c0.6,0,1.6-0.1,1.9-0.1v0.4
			c-0.9,0.2-1.1,0.3-1.7,1.6L517.3,500.6z"/>
		<path fill="#4C3D2A" d="M529,499.7c-0.3,1.2-1.2,3.3-3.8,3.3c-2,0-3.6-1.2-3.6-4.4c0-2.9,1.7-4.7,4-4.7c2.8,0,3.2,2.4,3.2,3.5
			l-5.8,0.4c0,0.2,0,0.5,0,0.7c0,1.5,0.8,3.4,2.7,3.4c1.8,0,2.4-1.6,2.7-2.5L529,499.7z M526.5,496.9c0.3,0,0.9-0.2,0.9-0.7
			c0-0.8-0.7-1.7-1.7-1.7c-2.2,0-2.5,2-2.6,2.8L526.5,496.9z"/>
		<path fill="#4C3D2A" d="M535.7,496.9c-0.3-0.9-0.8-2.4-2.4-2.4c-1.1,0-1.6,0.5-1.6,1.3c0,2.1,5.1,1.3,5.1,4.6
			c0,1.3-1.1,2.6-2.9,2.6c-1.3,0-1.8-0.5-2.7-0.5c-0.2,0-0.5,0.1-0.7,0.3c0-0.3,0.1-0.7,0.1-1.2c0-0.7,0-1.3-0.1-2.1h0.4
			c0.2,1.1,0.6,2.9,2.8,2.9c1,0,1.9-0.6,1.9-1.5c0-2.2-5-1.4-5-4.5c0-1.3,0.9-2.5,2.8-2.5c0.9,0,1.7,0.4,2.1,0.4
			c0.2,0,0.4-0.2,0.6-0.3c0,0.3,0,0.6,0,0.9c0,0.4,0,1.2,0.1,2H535.7z"/>
		<path fill="#4C3D2A" d="M546.7,505.1c-0.1,0.2-1,1.8-2.8,1.8c-0.9,0-1.5-0.6-1.5-1.2c0-0.7,0.4-1,1-1c0.5,0,0.6,0.2,0.8,0.3
			c-0.2,0.2-0.4,0.3-0.4,0.6c0,0.3,0.3,0.5,0.7,0.5c1.1,0,2.4-2.1,2.4-3c0-0.6-0.2-1.2-0.5-1.7l-2-5.1c-0.5-1.2-0.6-1.7-1.9-1.7
			v-0.4c0.3,0,1.7,0.1,2.3,0.1c0.6,0,2-0.1,2.3-0.1v0.4c-0.6,0-1.5,0-1.5,0.6c0,0.4,0.1,0.5,0.2,0.9l1.9,5.1l1.8-4.7
			c0.1-0.2,0.3-0.8,0.3-1.2c0-0.8-0.9-0.8-1.7-0.8v-0.4c0.4,0,1.5,0.1,2.3,0.1c0.5,0,1.6-0.1,1.8-0.1v0.4c-0.9,0.1-1,0-1.7,1.7l-3,7
			L546.7,505.1z"/>
		<path fill="#4C3D2A" d="M556.8,503c-2.6,0-4.2-2-4.2-4.6c0-2.5,1.6-4.6,4.2-4.6c2.6,0,4.2,2,4.2,4.6C561,501,559.4,503,556.8,503z
			 M559.3,498.5c0-2.3-0.7-4-2.5-4s-2.5,1.7-2.5,4c0,2.3,0.7,4,2.5,4S559.3,500.8,559.3,498.5z"/>
		<path fill="#4C3D2A" d="M572.3,502.8c-0.3,0-0.6,0-0.9-0.1c-0.3,0-0.6,0-0.9,0c-0.5,0-0.9,0-1.4,0.3c0.1-0.6,0.2-1.3,0.2-1.8
			c-0.9,0.8-2.2,1.8-4.1,1.8c-1.4,0-1.5-1.1-1.5-2.2v-3.6c0-1.7-0.3-1.8-1.8-1.8V495c1.4-0.1,2.5-0.5,3.4-1.3c0,1-0.1,1.7-0.1,3.6v3
			c0,0.8,0,1.7,1.3,1.7c1.5,0,2.9-1,2.9-1.8v-2.9c0-1.8-0.3-1.8-1.8-1.8V495c1.4-0.1,2.5-0.5,3.4-1.3c0,1-0.1,1.7-0.1,3.6v3.8
			c0,1.3,0.8,1.2,1.6,1.3V502.8z"/>
		<path fill="#4C3D2A" d="M593.1,502.8c-0.8,0-1.6-0.1-2.3-0.1c-0.9,0-1.7,0.1-2.4,0.1v-0.4c1.6-0.2,1.6-0.5,1.6-2.5v-3.1
			c0-0.8,0-1.7-0.9-1.7c-1.7,0-2.8,1.2-2.8,2.3v2.6c0,2.1,0,2.3,1.4,2.5v0.4c-0.7,0-1.4-0.1-2.1-0.1c-0.8,0-1.5,0.1-2.2,0.1v-0.4
			c1.4-0.2,1.4-0.5,1.4-2.5v-3.1c0-0.8,0-1.7-0.9-1.7c-1.7,0-2.8,1.2-2.8,2.3v2.6c0,2.1,0,2.3,1.6,2.5v0.4c-0.8,0-1.6-0.1-2.3-0.1
			c-0.8,0-1.7,0.1-2.4,0.1v-0.4c1.6-0.2,1.6-0.5,1.6-2.5v-2.6c0-1.7-0.3-1.8-2-1.8V495c1.5-0.1,2.7-0.5,3.6-1.3c0,0.6-0.1,1.2-0.1,2
			c0.9-0.8,2.3-1.7,3.7-1.7c1.1,0,1.3,0.8,1.4,1.7c0.9-0.8,2.3-1.7,3.7-1.7c1.2,0,1.3,1.1,1.3,2.2v3.7c0,2.1,0,2.3,1.6,2.5V502.8z"
			/>
		<path fill="#4C3D2A" d="M598.3,503c-2.6,0-4.2-2-4.2-4.6c0-2.5,1.6-4.6,4.2-4.6c2.6,0,4.2,2,4.2,4.6
			C602.5,501,600.9,503,598.3,503z M600.8,498.5c0-2.3-0.7-4-2.5-4s-2.5,1.7-2.5,4c0,2.3,0.7,4,2.5,4S600.8,500.8,600.8,498.5z"/>
		<path fill="#4C3D2A" d="M608.9,502.8c-0.8,0-1.9-0.1-2.5-0.1c-0.8,0-1.7,0.1-2.4,0.1v-0.4c1.6-0.2,1.6-0.5,1.6-2.5v-2.6
			c0-1.7-0.3-1.8-2-1.8V495c1.5-0.1,2.7-0.5,3.6-1.3c0,0.5-0.1,1.1-0.1,2c1-0.9,1.7-1.8,2.7-1.8c0.5,0,1,0.4,1,1
			c0,0.7-0.5,1.1-1,1.1c-0.1,0-0.4,0-0.4-0.1c0-0.1,0.1-0.2,0.1-0.3c0-0.3-0.3-0.5-0.6-0.5c-0.5,0-1.8,0.7-1.8,2.2v2.6
			c0,2.1,0,2.3,1.9,2.5V502.8z"/>
		<path fill="#4C3D2A" d="M618.8,499.7c-0.3,1.2-1.2,3.3-3.8,3.3c-2,0-3.6-1.2-3.6-4.4c0-2.9,1.7-4.7,4-4.7c2.8,0,3.2,2.4,3.2,3.5
			l-5.8,0.4c0,0.2,0,0.5,0,0.7c0,1.5,0.8,3.4,2.7,3.4c1.8,0,2.4-1.6,2.7-2.5L618.8,499.7z M616.2,496.9c0.3,0,0.9-0.2,0.9-0.7
			c0-0.8-0.7-1.7-1.7-1.7c-2.2,0-2.5,2-2.6,2.8L616.2,496.9z"/>
		<path fill="#4C3D2A" d="M632.5,499.7c-0.3,1.2-1.2,3.3-3.8,3.3c-2,0-3.6-1.2-3.6-4.4c0-2.9,1.7-4.7,4-4.7c2.8,0,3.2,2.4,3.2,3.5
			l-5.8,0.4c0,0.2,0,0.5,0,0.7c0,1.5,0.8,3.4,2.7,3.4c1.8,0,2.4-1.6,2.7-2.5L632.5,499.7z M629.9,496.9c0.3,0,0.9-0.2,0.9-0.7
			c0-0.8-0.7-1.7-1.7-1.7c-2.2,0-2.5,2-2.6,2.8L629.9,496.9z"/>
		<path fill="#4C3D2A" d="M644.2,502.8c-0.8,0-1.6-0.1-2.3-0.1c-0.8,0-1.7,0.1-2.4,0.1v-0.4c1.6-0.2,1.6-0.5,1.6-2.5v-3.1
			c0-0.8,0-1.7-1.3-1.7c-1.8,0-2.9,1.3-2.9,2.4v2.5c0,2.1,0,2.3,1.6,2.5v0.4c-0.8,0-1.6-0.1-2.3-0.1c-0.8,0-1.7,0.1-2.4,0.1v-0.4
			c1.6-0.2,1.6-0.5,1.6-2.5v-2.6c0-1.7-0.3-1.8-2-1.8V495c1.5-0.1,2.7-0.5,3.6-1.3c0,0.6-0.1,1-0.1,2.1c0.9-0.9,2.2-1.8,4.1-1.8
			c1.4,0,1.5,1.1,1.5,2.2v3.7c0,2.1,0,2.3,1.6,2.5V502.8z"/>
		<path fill="#4C3D2A" d="M652.5,499.7c-0.3,1.2-1.2,3.3-3.8,3.3c-2,0-3.6-1.2-3.6-4.4c0-2.9,1.7-4.7,4-4.7c2.8,0,3.2,2.4,3.2,3.5
			l-5.8,0.4c0,0.2,0,0.5,0,0.7c0,1.5,0.8,3.4,2.7,3.4c1.8,0,2.4-1.6,2.7-2.5L652.5,499.7z M650,496.9c0.3,0,0.9-0.2,0.9-0.7
			c0-0.8-0.7-1.7-1.7-1.7c-2.2,0-2.5,2-2.6,2.8L650,496.9z"/>
		<path fill="#4C3D2A" d="M658.9,502.8c-0.8,0-1.9-0.1-2.5-0.1c-0.8,0-1.7,0.1-2.4,0.1v-0.4c1.6-0.2,1.6-0.5,1.6-2.5v-2.6
			c0-1.7-0.3-1.8-2-1.8V495c1.5-0.1,2.7-0.5,3.6-1.3c0,0.5-0.1,1.1-0.1,2c1-0.9,1.7-1.8,2.7-1.8c0.5,0,1,0.4,1,1
			c0,0.7-0.5,1.1-1,1.1c-0.1,0-0.4,0-0.4-0.1c0-0.1,0.1-0.2,0.1-0.3c0-0.3-0.3-0.5-0.6-0.5c-0.5,0-1.8,0.7-1.8,2.2v2.6
			c0,2.1,0,2.3,1.9,2.5V502.8z"/>
		<path fill="#4C3D2A" d="M667.3,501.6c0.4,0,1.7,0.5,1.7,1.7c0,2.1-2.5,3.4-5,3.4c-2.2,0-3-1-3-2c0-1.3,1.1-1.8,2.1-2.3
			c-0.6-0.2-1.5-0.5-1.5-1.2c0-1,0.8-1.2,1.7-1.6c-0.7-0.3-1.8-0.9-1.8-2.6c0-1.9,1.1-3.1,3.3-3.1c0.2,0,0.5,0,0.7,0
			c0.4-0.7,1.2-2.1,2.5-2.1c0.5,0,1,0.3,1,0.9c0,0.6-0.4,0.9-0.8,0.9c-0.2,0-0.4,0-0.5-0.1c0.1-0.1,0.2-0.2,0.2-0.3
			c0-0.2-0.1-0.4-0.4-0.4c-0.8,0-1.2,0.8-1.4,1.1c0.5,0.1,2,0.7,2,2.8c0,2-1.5,3.1-3.1,3.1h-0.7c-0.6,0-1.4,0.4-1.4,0.9
			c0,0.5,0.8,0.5,1.7,0.6L667.3,501.6z M664.6,502.6c-0.3,0-0.6-0.1-0.8-0.2c-0.6,0.4-1.5,1-1.5,1.9c0,1,1,1.4,2.5,1.4
			c1.6,0,3.4-0.8,3.4-2c0-0.7-0.9-1-1.8-1L664.6,502.6z M666.6,496.7c0-1.1-0.5-2.3-1.7-2.3c-1.2,0-1.7,1.2-1.7,2.5
			c0,1.3,0.4,2.4,1.7,2.4C666.1,499.3,666.6,498.2,666.6,496.7z"/>
		<path fill="#4C3D2A" d="M673.7,505.1c-0.1,0.2-1,1.8-2.8,1.8c-0.9,0-1.5-0.6-1.5-1.2c0-0.7,0.4-1,1-1c0.5,0,0.6,0.2,0.8,0.3
			c-0.2,0.2-0.4,0.3-0.4,0.6c0,0.3,0.3,0.5,0.7,0.5c1.1,0,2.4-2.1,2.4-3c0-0.6-0.2-1.2-0.5-1.7l-2-5.1c-0.5-1.2-0.6-1.7-1.9-1.7
			v-0.4c0.3,0,1.7,0.1,2.3,0.1c0.6,0,2-0.1,2.3-0.1v0.4c-0.6,0-1.5,0-1.5,0.6c0,0.4,0.1,0.5,0.2,0.9l1.9,5.1l1.8-4.7
			c0.1-0.2,0.3-0.8,0.3-1.2c0-0.8-0.9-0.8-1.7-0.8v-0.4c0.4,0,1.5,0.1,2.3,0.1c0.5,0,1.6-0.1,1.8-0.1v0.4c-0.9,0.1-1,0-1.7,1.7l-3,7
			L673.7,505.1z"/>
		<path fill="#4C3D2A" d="M693.1,502.8c-0.3,0-0.6,0-0.9-0.1c-0.3,0-0.6,0-0.9,0c-0.5,0-0.9,0-1.4,0.3c0.1-0.6,0.2-1.3,0.2-1.8
			c-0.8,0.7-1.8,1.8-3.3,1.8c-1,0-2-0.8-2-2.1c0-1.7,1.6-2.2,2.6-2.5l2.1-0.6c0.6-0.2,0.6-0.6,0.6-1.6c0-1.1-0.4-1.5-1.3-1.5
			c-1,0-2.1,0.4-2.1,1c0,0.2,0.2,0.5,0.3,0.5c0.1,0,0.2,0,0.3,0c0,0.5-0.3,1.2-1,1.2c-0.5,0-0.9-0.4-0.9-0.9c0-1.8,2.8-2.5,4.2-2.5
			c1.6,0,1.9,1,1.9,2.1v5c0,1.3,0.8,1.2,1.6,1.3V502.8z M688.8,498.6c-1.3,0.4-2.3,0.7-2.3,2c0,0.9,0.6,1.4,1.2,1.4
			c1,0,2.6-0.9,2.6-2v-1.8L688.8,498.6z"/>
		<path fill="#4C3D2A" d="M704.4,502.8c-0.8,0-1.6-0.1-2.3-0.1c-0.8,0-1.7,0.1-2.4,0.1v-0.4c1.6-0.2,1.6-0.5,1.6-2.5v-3.1
			c0-0.8,0-1.7-1.3-1.7c-1.8,0-2.9,1.3-2.9,2.4v2.5c0,2.1,0,2.3,1.6,2.5v0.4c-0.8,0-1.6-0.1-2.3-0.1c-0.8,0-1.7,0.1-2.4,0.1v-0.4
			c1.6-0.2,1.6-0.5,1.6-2.5v-2.6c0-1.7-0.3-1.8-2-1.8V495c1.5-0.1,2.7-0.5,3.6-1.3c0,0.6-0.1,1-0.1,2.1c0.9-0.9,2.2-1.8,4.1-1.8
			c1.4,0,1.5,1.1,1.5,2.2v3.7c0,2.1,0,2.3,1.6,2.5V502.8z"/>
		<path fill="#4C3D2A" d="M714.6,502.8c-0.3,0-0.6,0-0.9-0.1c-0.3,0-0.6,0-0.8,0c-0.5,0-1.1,0.1-1.5,0.3c0-0.5,0.1-1.2,0.1-1.8
			c-1.1,1-2,1.8-3.5,1.8c-1.7,0-2.7-1.7-2.7-3.8c0-3.4,1.6-5.4,3.9-5.4c1.2,0,1.7,0.3,2.2,0.7v-1.8c0-2.2,0-2.6-2.2-2.6v-0.4
			c1.4,0,2.7-0.2,3.7-1c0,0.6-0.1,2.7-0.1,4v7c0,2.1,0,2.3,1.6,2.5V502.8z M711.5,497.3c0-1.5-0.3-2.8-2-2.8c-2,0-2.6,1.9-2.6,4.3
			c0,1.9,0.6,3.2,2.1,3.2c1.7,0,2.5-1.7,2.5-2.5V497.3z"/>
		<path fill="#4C3D2A" d="M726.1,501.8c-0.9,0.6-1.9,1.2-3.1,1.2c-1.1,0-1.3-1.1-1.3-2.5V495h-1.6v-0.5c1.7-0.2,1.9-1.1,2.5-3.1h0.6
			c0,0.7-0.1,2.1-0.1,2.9l2.7-0.2v1h-2.7v4.6c0,2.2,0.2,2.4,1,2.4c0.7,0,1.2-0.3,1.7-0.6L726.1,501.8z"/>
		<path fill="#4C3D2A" d="M736.7,502.8c-0.8,0-1.6-0.1-2.3-0.1c-0.8,0-1.7,0.1-2.4,0.1v-0.4c1.6-0.2,1.6-0.5,1.6-2.5v-3.1
			c0-0.8,0-1.7-1.3-1.7c-1.8,0-2.9,1.3-2.9,2.4v2.5c0,2.1,0,2.3,1.6,2.5v0.4c-0.8,0-1.6-0.1-2.3-0.1c-0.8,0-1.7,0.1-2.4,0.1v-0.4
			c1.6-0.2,1.6-0.5,1.6-2.5v-7c0-2.2,0-2.6-2.2-2.6v-0.4c1.4,0,2.7-0.2,3.7-1c0,0.6-0.1,2.7-0.1,4v2.9c0.9-0.9,2.2-1.8,4.1-1.8
			c1.4,0,1.5,1.1,1.5,2.2v3.7c0,2.1,0,2.3,1.6,2.5V502.8z"/>
		<path fill="#4C3D2A" d="M745.1,499.7c-0.3,1.2-1.2,3.3-3.8,3.3c-2,0-3.6-1.2-3.6-4.4c0-2.9,1.7-4.7,4-4.7c2.8,0,3.2,2.4,3.2,3.5
			l-5.8,0.4c0,0.2,0,0.5,0,0.7c0,1.5,0.8,3.4,2.7,3.4c1.8,0,2.4-1.6,2.7-2.5L745.1,499.7z M742.5,496.9c0.3,0,0.9-0.2,0.9-0.7
			c0-0.8-0.7-1.7-1.7-1.7c-2.2,0-2.5,2-2.6,2.8L742.5,496.9z"/>
		<path fill="#4C3D2A" d="M448.6,525.6c-0.3,0-0.6,0-0.9-0.1c-0.3,0-0.6,0-0.9,0c-0.5,0-0.9,0-1.4,0.3c0.1-0.6,0.2-1.3,0.2-1.8
			c-0.8,0.7-1.8,1.8-3.3,1.8c-1,0-2-0.8-2-2.1c0-1.7,1.6-2.2,2.6-2.5l2.1-0.6c0.6-0.2,0.6-0.6,0.6-1.6c0-1.1-0.4-1.5-1.3-1.5
			c-1,0-2.1,0.4-2.1,1c0,0.2,0.2,0.5,0.3,0.5c0.1,0,0.2,0,0.3,0c0,0.5-0.3,1.2-1,1.2c-0.5,0-0.9-0.4-0.9-0.9c0-1.8,2.8-2.5,4.2-2.5
			c1.6,0,1.9,1,1.9,2.1v5c0,1.3,0.8,1.2,1.6,1.3V525.6z M444.2,521.4c-1.3,0.4-2.3,0.7-2.3,2c0,0.9,0.6,1.4,1.2,1.4
			c1,0,2.6-0.9,2.6-2V521L444.2,521.4z"/>
		<path fill="#4C3D2A" d="M451.6,518.5c1-0.8,2-1.7,3.5-1.7c1.9,0,2.7,1.8,2.7,4c0,3.2-1.4,5.2-3.8,5.2c-1.5,0-2-0.6-2.7-1.2
			c-0.3,0.7-0.8,1.1-1.7,1.6l-0.2-0.3c0.6-0.8,0.9-0.8,0.9-3.3v-7c0-2.2,0-2.6-2.2-2.6v-0.4c1.4,0,2.7-0.2,3.7-1
			c0,0.6-0.1,2.7-0.1,4V518.5z M451.6,522c0,1.3,0.1,3.2,2.3,3.2c1.5,0,2.3-1.6,2.3-3.9c0-2.1-0.6-3.6-2.1-3.6
			c-2.1,0-2.5,1.6-2.5,3.1V522z"/>
		<path fill="#4C3D2A" d="M464,525.6c-0.8,0-1.6-0.1-2.3-0.1c-0.8,0-1.7,0.1-2.4,0.1v-0.4c1.6-0.2,1.6-0.5,1.6-2.5v-2.6
			c0-1.7-0.3-1.8-2-1.8v-0.4c1.5-0.1,2.7-0.5,3.6-1.3c0,1-0.1,1.7-0.1,3.6v2.6c0,2.1,0,2.3,1.6,2.5V525.6z M461.3,514.4
			c-0.6,0-1.1-0.5-1.1-1.1c0-0.6,0.5-1.1,1.1-1.1c0.6,0,1.1,0.5,1.1,1.1C462.4,513.9,461.9,514.4,461.3,514.4z"/>
		<path fill="#4C3D2A" d="M469.3,525.6c-0.8,0-1.6-0.1-2.3-0.1c-0.8,0-1.7,0.1-2.4,0.1v-0.4c1.6-0.2,1.6-0.5,1.6-2.5v-7
			c0-2.2,0-2.6-2.2-2.6v-0.4c1.4,0,2.7-0.2,3.7-1c0,0.6-0.1,2.7-0.1,4v7c0,2.1,0,2.3,1.6,2.5V525.6z"/>
		<path fill="#4C3D2A" d="M474.9,525.6c-0.8,0-1.6-0.1-2.3-0.1c-0.8,0-1.7,0.1-2.4,0.1v-0.4c1.6-0.2,1.6-0.5,1.6-2.5v-2.6
			c0-1.7-0.3-1.8-2-1.8v-0.4c1.5-0.1,2.7-0.5,3.6-1.3c0,1-0.1,1.7-0.1,3.6v2.6c0,2.1,0,2.3,1.6,2.5V525.6z M472.2,514.4
			c-0.6,0-1.1-0.5-1.1-1.1c0-0.6,0.5-1.1,1.1-1.1c0.6,0,1.1,0.5,1.1,1.1C473.3,513.9,472.8,514.4,472.2,514.4z"/>
		<path fill="#4C3D2A" d="M481.6,524.6c-0.9,0.6-1.9,1.2-3.1,1.2c-1.1,0-1.3-1.1-1.3-2.5v-5.5h-1.6v-0.5c1.7-0.2,1.9-1.1,2.5-3.1
			h0.6c0,0.7-0.1,2.1-0.1,2.9l2.7-0.2v1h-2.7v4.6c0,2.2,0.2,2.4,1,2.4c0.7,0,1.2-0.3,1.7-0.6L481.6,524.6z"/>
		<path fill="#4C3D2A" d="M485.8,527.9c-0.1,0.2-1,1.8-2.8,1.8c-0.9,0-1.5-0.6-1.5-1.2c0-0.7,0.4-1,1-1c0.5,0,0.6,0.2,0.8,0.3
			c-0.2,0.2-0.4,0.3-0.4,0.6c0,0.3,0.3,0.5,0.7,0.5c1.1,0,2.4-2.1,2.4-3c0-0.6-0.2-1.2-0.5-1.7l-2-5.1c-0.5-1.2-0.6-1.7-1.9-1.7V517
			c0.3,0,1.7,0.1,2.3,0.1c0.6,0,2-0.1,2.3-0.1v0.4c-0.6,0-1.5,0-1.5,0.6c0,0.4,0.1,0.5,0.2,0.9l1.9,5.1l1.8-4.7
			c0.1-0.2,0.3-0.8,0.3-1.2c0-0.8-0.9-0.8-1.7-0.8V517c0.4,0,1.5,0.1,2.3,0.1c0.5,0,1.6-0.1,1.8-0.1v0.4c-0.9,0.1-1,0-1.7,1.7l-3,7
			L485.8,527.9z"/>
		<path fill="#4C3D2A" d="M502.7,524.6c-0.9,0.6-1.9,1.2-3.1,1.2c-1.1,0-1.3-1.1-1.3-2.5v-5.5h-1.6v-0.5c1.7-0.2,1.9-1.1,2.5-3.1
			h0.6c0,0.7-0.1,2.1-0.1,2.9l2.7-0.2v1h-2.7v4.6c0,2.2,0.2,2.4,1,2.4c0.7,0,1.2-0.3,1.7-0.6L502.7,524.6z"/>
		<path fill="#4C3D2A" d="M507.5,525.8c-2.6,0-4.2-2-4.2-4.6c0-2.5,1.6-4.6,4.2-4.6c2.6,0,4.2,2,4.2,4.6
			C511.7,523.8,510.1,525.8,507.5,525.8z M510,521.3c0-2.3-0.7-4-2.5-4s-2.5,1.7-2.5,4c0,2.3,0.7,4,2.5,4S510,523.6,510,521.3z"/>
		<path fill="#4C3D2A" d="M523,525.6c-0.9,0-2-0.1-2.7-0.1c-0.8,0-1.7,0.1-2.4,0.1v-0.4c1.6-0.2,1.6-0.5,1.6-2.5v-4.7h-1.6v-0.4
			c1.3-0.2,1.6-0.6,1.6-1.6c0-1.5,0.5-3.9,3.5-3.9c0.9,0,2,0.6,2,1.4c0,0.8-0.4,1.1-0.9,1.1c-0.6,0-0.7-0.3-0.9-0.8
			c0.2,0,0.5-0.2,0.5-0.5c0-0.4-0.4-0.7-0.9-0.7c-1.4,0-1.8,1.2-1.8,2.6v2l2.5-0.2v1h-2.5v4.7c0,2.1,0,2.3,2.1,2.5V525.6z"/>
		<path fill="#4C3D2A" d="M528.6,525.8c-2.6,0-4.2-2-4.2-4.6c0-2.5,1.6-4.6,4.2-4.6c2.6,0,4.2,2,4.2,4.6
			C532.8,523.8,531.2,525.8,528.6,525.8z M531.1,521.3c0-2.3-0.7-4-2.5-4s-2.5,1.7-2.5,4c0,2.3,0.7,4,2.5,4S531.1,523.6,531.1,521.3
			z"/>
		<path fill="#4C3D2A" d="M541.7,522.5c-0.4,1.3-1.1,3.4-3.8,3.4c-2.3,0-3.6-1.8-3.6-4.4c0-2.9,1.9-4.7,4.1-4.7
			c1.2,0,2.6,0.6,2.6,1.7c0,0.7-0.5,1.2-1.1,1.2c-0.4,0-0.9-0.3-0.9-1c0.4,0,0.6-0.3,0.6-0.5c0-0.6-0.6-0.8-1.3-0.8
			c-1.6,0-2.7,1.3-2.7,3.5c0,2,0.8,4,2.6,4c1.9,0,2.5-1.4,2.8-2.5L541.7,522.5z"/>
		<path fill="#4C3D2A" d="M552.5,525.6c-0.3,0-0.6,0-0.9-0.1c-0.3,0-0.6,0-0.9,0c-0.5,0-0.9,0-1.4,0.3c0.1-0.6,0.2-1.3,0.2-1.8
			c-0.9,0.8-2.2,1.8-4.1,1.8c-1.4,0-1.5-1.1-1.5-2.2v-3.6c0-1.7-0.3-1.8-1.8-1.8v-0.4c1.4-0.1,2.5-0.5,3.4-1.3c0,1-0.1,1.7-0.1,3.6
			v3c0,0.8,0,1.7,1.3,1.7c1.5,0,2.9-1,2.9-1.8v-2.9c0-1.8-0.3-1.8-1.8-1.8v-0.4c1.4-0.1,2.5-0.5,3.4-1.3c0,1-0.1,1.7-0.1,3.6v3.8
			c0,1.3,0.8,1.2,1.6,1.3V525.6z"/>
		<path fill="#4C3D2A" d="M558.9,519.7c-0.3-0.9-0.8-2.4-2.4-2.4c-1.1,0-1.6,0.5-1.6,1.3c0,2.1,5.1,1.3,5.1,4.6
			c0,1.3-1.1,2.6-2.9,2.6c-1.3,0-1.8-0.5-2.7-0.5c-0.2,0-0.5,0.1-0.7,0.3c0-0.3,0.1-0.7,0.1-1.2c0-0.7,0-1.3-0.1-2.1h0.4
			c0.2,1.1,0.6,2.9,2.8,2.9c1,0,1.9-0.6,1.9-1.5c0-2.2-5-1.4-5-4.5c0-1.3,0.9-2.5,2.8-2.5c0.9,0,1.7,0.4,2.1,0.4
			c0.2,0,0.4-0.2,0.6-0.3c0,0.3,0,0.6,0,0.9c0,0.4,0,1.2,0.1,2H558.9z"/>
		<path fill="#4C3D2A" d="M563.1,525.8c-0.6,0-1.1-0.5-1.1-1.1c0-0.6,0.5-1.1,1.1-1.1c0.6,0,1.1,0.5,1.1,1.1
			C564.2,525.4,563.7,525.8,563.1,525.8z"/>
	</g>
	<g>
		<rect x="40" y="450.2" fill="none" width="349.6" height="91"/>
		<path fill="#4C3D2A" d="M47.1,457.1c2,0.2,4.3,0.6,4.3,3.3c0,2.5-2,3.8-5.1,3.8c-0.7,0-1.8-0.1-2.9-0.1c-1.1,0-2.3,0.1-2.9,0.1
			v-0.4c1.9-0.3,2.1-0.5,2.1-2.8v-6.3c0-2.3-0.2-2.5-2.1-2.8v-0.4c0.7,0,1.8,0.1,2.9,0.1c1.1,0,2.3-0.1,2.9-0.1
			c2.8,0,4.3,0.7,4.3,2.6C50.6,456.5,48.3,456.8,47.1,457.1L47.1,457.1z M44.2,456.9c1.9,0,4.7,0,4.7-2.6c0-1.6-0.9-2.3-2.7-2.3
			c-2,0-2,0.5-2,2.7V456.9z M44.2,460.9c0,2,0,2.5,2.2,2.6c2.1,0,3.2-1,3.2-3c0-3-2.2-3-5.4-3V460.9z"/>
		<path fill="#4C3D2A" d="M60.1,461.1c-0.3,1.2-1.2,3.3-3.8,3.3c-2,0-3.6-1.2-3.6-4.4c0-2.9,1.7-4.7,4-4.7c2.8,0,3.2,2.4,3.2,3.5
			l-5.8,0.4c0,0.2,0,0.5,0,0.7c0,1.5,0.8,3.4,2.7,3.4c1.8,0,2.4-1.6,2.7-2.5L60.1,461.1z M57.6,458.3c0.3,0,0.9-0.2,0.9-0.7
			c0-0.8-0.7-1.7-1.7-1.7c-2.2,0-2.5,2-2.6,2.8L57.6,458.3z"/>
		<path fill="#4C3D2A" d="M68.9,461.1c-0.3,1.2-1.2,3.3-3.8,3.3c-2,0-3.6-1.2-3.6-4.4c0-2.9,1.7-4.7,4-4.7c2.8,0,3.2,2.4,3.2,3.5
			l-5.8,0.4c0,0.2,0,0.5,0,0.7c0,1.5,0.8,3.4,2.7,3.4c1.8,0,2.4-1.6,2.7-2.5L68.9,461.1z M66.4,458.3c0.3,0,0.9-0.2,0.9-0.7
			c0-0.8-0.7-1.7-1.7-1.7c-2.2,0-2.5,2-2.6,2.8L66.4,458.3z"/>
		<path fill="#4C3D2A" d="M75.2,464.2c-0.8,0-1.9-0.1-2.5-0.1c-0.8,0-1.7,0.1-2.4,0.1v-0.4c1.6-0.2,1.6-0.5,1.6-2.5v-2.6
			c0-1.7-0.3-1.8-2-1.8v-0.4c1.5-0.1,2.7-0.5,3.6-1.3c0,0.5-0.1,1.1-0.1,2c1-0.9,1.7-1.8,2.7-1.8c0.5,0,1,0.4,1,1
			c0,0.7-0.5,1.1-1,1.1c-0.1,0-0.4,0-0.4-0.1c0-0.1,0.1-0.2,0.1-0.3c0-0.3-0.3-0.5-0.6-0.5c-0.5,0-1.8,0.7-1.8,2.2v2.6
			c0,2.1,0,2.3,1.9,2.5V464.2z"/>
		<path fill="#4C3D2A" d="M87.6,464.2c-0.8,0-1.6-0.1-2.3-0.1c-0.8,0-1.7,0.1-2.4,0.1v-0.4c1.6-0.2,1.6-0.5,1.6-2.5v-2.6
			c0-1.7-0.3-1.8-2-1.8v-0.4c1.5-0.1,2.7-0.5,3.6-1.3c0,1-0.1,1.7-0.1,3.6v2.6c0,2.1,0,2.3,1.6,2.5V464.2z M84.9,453
			c-0.6,0-1.1-0.5-1.1-1.1c0-0.6,0.5-1.1,1.1-1.1c0.6,0,1.1,0.5,1.1,1.1C86,452.5,85.5,453,84.9,453z"/>
		<path fill="#4C3D2A" d="M93.9,458.3c-0.3-0.9-0.8-2.4-2.4-2.4c-1.1,0-1.6,0.5-1.6,1.3c0,2.1,5.1,1.3,5.1,4.6
			c0,1.3-1.1,2.6-2.9,2.6c-1.3,0-1.8-0.5-2.7-0.5c-0.2,0-0.5,0.1-0.7,0.3c0-0.3,0.1-0.7,0.1-1.2c0-0.7,0-1.3-0.1-2.1h0.4
			c0.2,1.1,0.6,2.9,2.8,2.9c1,0,1.9-0.6,1.9-1.5c0-2.2-5-1.4-5-4.5c0-1.3,0.9-2.5,2.8-2.5c0.9,0,1.7,0.4,2.1,0.4
			c0.2,0,0.4-0.2,0.6-0.3c0,0.3,0,0.6,0,0.9c0,0.4,0,1.2,0.1,2H93.9z"/>
		<path fill="#4C3D2A" d="M109.5,464.2c-0.3,0-0.6,0-0.9-0.1c-0.3,0-0.6,0-0.9,0c-0.5,0-0.9,0-1.4,0.3c0.1-0.6,0.2-1.3,0.2-1.8
			c-0.8,0.7-1.8,1.8-3.3,1.8c-1,0-2-0.8-2-2.1c0-1.7,1.6-2.2,2.6-2.5l2.1-0.6c0.6-0.2,0.6-0.6,0.6-1.6c0-1.1-0.4-1.5-1.3-1.5
			c-1,0-2.1,0.4-2.1,1c0,0.2,0.2,0.5,0.3,0.5c0.1,0,0.2,0,0.3,0c0,0.5-0.3,1.2-1,1.2c-0.5,0-0.9-0.4-0.9-0.9c0-1.8,2.8-2.5,4.2-2.5
			c1.6,0,1.9,1,1.9,2.1v5c0,1.3,0.8,1.2,1.6,1.3V464.2z M105.1,459.9c-1.3,0.4-2.3,0.7-2.3,2c0,0.9,0.6,1.4,1.2,1.4
			c1,0,2.6-0.9,2.6-2v-1.8L105.1,459.9z"/>
		<path fill="#4C3D2A" d="M121.3,462.9c0.4,0,1.7,0.5,1.7,1.7c0,2.1-2.5,3.4-5,3.4c-2.2,0-3-1-3-2c0-1.3,1.1-1.8,2.1-2.3
			c-0.6-0.2-1.5-0.5-1.5-1.2c0-1,0.8-1.2,1.7-1.6c-0.7-0.3-1.8-0.9-1.8-2.6c0-1.9,1.1-3.1,3.3-3.1c0.2,0,0.5,0,0.7,0
			c0.4-0.7,1.2-2.1,2.5-2.1c0.5,0,1,0.3,1,0.9c0,0.6-0.4,0.9-0.8,0.9c-0.2,0-0.4,0-0.5-0.1c0.1-0.1,0.2-0.2,0.2-0.3
			c0-0.2-0.1-0.4-0.4-0.4c-0.8,0-1.2,0.8-1.4,1.1c0.5,0.1,2,0.7,2,2.8c0,2-1.5,3.1-3.1,3.1h-0.7c-0.6,0-1.4,0.4-1.4,0.9
			c0,0.5,0.8,0.5,1.7,0.6L121.3,462.9z M118.6,464c-0.3,0-0.6-0.1-0.8-0.2c-0.6,0.4-1.5,1-1.5,1.9c0,1,1,1.4,2.5,1.4
			c1.6,0,3.4-0.8,3.4-2c0-0.7-0.9-1-1.8-1L118.6,464z M120.5,458.1c0-1.1-0.5-2.3-1.7-2.3s-1.7,1.2-1.7,2.5c0,1.3,0.4,2.4,1.7,2.4
			C120.1,460.7,120.5,459.6,120.5,458.1z"/>
		<path fill="#4C3D2A" d="M128.3,464.4c-2.6,0-4.2-2-4.2-4.6c0-2.5,1.6-4.6,4.2-4.6c2.6,0,4.2,2,4.2,4.6
			C132.5,462.4,130.9,464.4,128.3,464.4z M130.8,459.9c0-2.3-0.7-4-2.5-4s-2.5,1.7-2.5,4c0,2.3,0.7,4,2.5,4S130.8,462.1,130.8,459.9
			z"/>
		<path fill="#4C3D2A" d="M138.2,464.4c-2.6,0-4.2-2-4.2-4.6c0-2.5,1.6-4.6,4.2-4.6c2.6,0,4.2,2,4.2,4.6
			C142.3,462.4,140.7,464.4,138.2,464.4z M140.6,459.9c0-2.3-0.7-4-2.5-4s-2.5,1.7-2.5,4c0,2.3,0.7,4,2.5,4S140.6,462.1,140.6,459.9
			z"/>
		<path fill="#4C3D2A" d="M153.1,464.2c-0.3,0-0.6,0-0.9-0.1c-0.3,0-0.6,0-0.8,0c-0.5,0-1.1,0.1-1.5,0.3c0-0.5,0.1-1.2,0.1-1.8
			c-1.1,1-2,1.8-3.5,1.8c-1.7,0-2.7-1.7-2.7-3.8c0-3.4,1.6-5.4,3.9-5.4c1.2,0,1.7,0.3,2.2,0.7v-1.8c0-2.2,0-2.6-2.2-2.6v-0.4
			c1.4,0,2.7-0.2,3.7-1c0,0.6-0.1,2.7-0.1,4v7c0,2.1,0,2.3,1.6,2.5V464.2z M150,458.7c0-1.5-0.3-2.8-2-2.8c-2,0-2.6,1.9-2.6,4.3
			c0,1.9,0.6,3.2,2.1,3.2c1.7,0,2.5-1.7,2.5-2.5V458.7z"/>
		<path fill="#4C3D2A" d="M163.6,464.2c-0.8,0-1.6-0.1-2.3-0.1c-0.8,0-1.7,0.1-2.4,0.1v-0.4c1.6-0.2,1.6-0.5,1.6-2.5v-2.6
			c0-1.7-0.3-1.8-2-1.8v-0.4c1.5-0.1,2.7-0.5,3.6-1.3c0,1-0.1,1.7-0.1,3.6v2.6c0,2.1,0,2.3,1.6,2.5V464.2z M160.9,453
			c-0.6,0-1.1-0.5-1.1-1.1c0-0.6,0.5-1.1,1.1-1.1c0.6,0,1.1,0.5,1.1,1.1C162,452.5,161.5,453,160.9,453z"/>
		<path fill="#4C3D2A" d="M173.8,464.2c-0.3,0-0.6,0-0.9-0.1c-0.3,0-0.6,0-0.8,0c-0.5,0-1.1,0.1-1.5,0.3c0-0.5,0.1-1.2,0.1-1.8
			c-1.1,1-2,1.8-3.5,1.8c-1.7,0-2.7-1.7-2.7-3.8c0-3.4,1.6-5.4,3.9-5.4c1.2,0,1.7,0.3,2.2,0.7v-1.8c0-2.2,0-2.6-2.2-2.6v-0.4
			c1.4,0,2.7-0.2,3.7-1c0,0.6-0.1,2.7-0.1,4v7c0,2.1,0,2.3,1.6,2.5V464.2z M170.8,458.7c0-1.5-0.3-2.8-2-2.8c-2,0-2.6,1.9-2.6,4.3
			c0,1.9,0.6,3.2,2.1,3.2c1.7,0,2.5-1.7,2.5-2.5V458.7z"/>
		<path fill="#4C3D2A" d="M182.2,461.1c-0.3,1.2-1.2,3.3-3.8,3.3c-2,0-3.6-1.2-3.6-4.4c0-2.9,1.7-4.7,4-4.7c2.8,0,3.2,2.4,3.2,3.5
			l-5.8,0.4c0,0.2,0,0.5,0,0.7c0,1.5,0.8,3.4,2.7,3.4c1.8,0,2.4-1.6,2.7-2.5L182.2,461.1z M179.6,458.3c0.3,0,0.9-0.2,0.9-0.7
			c0-0.8-0.7-1.7-1.7-1.7c-2.2,0-2.5,2-2.6,2.8L179.6,458.3z"/>
		<path fill="#4C3D2A" d="M191.8,464.2c-0.3,0-0.6,0-0.9-0.1c-0.3,0-0.6,0-0.9,0c-0.5,0-0.9,0-1.4,0.3c0.1-0.6,0.2-1.3,0.2-1.8
			c-0.8,0.7-1.8,1.8-3.3,1.8c-1,0-2-0.8-2-2.1c0-1.7,1.6-2.2,2.6-2.5l2.1-0.6c0.6-0.2,0.6-0.6,0.6-1.6c0-1.1-0.4-1.5-1.3-1.5
			c-1,0-2.1,0.4-2.1,1c0,0.2,0.2,0.5,0.3,0.5c0.1,0,0.2,0,0.3,0c0,0.5-0.3,1.2-1,1.2c-0.5,0-0.9-0.4-0.9-0.9c0-1.8,2.8-2.5,4.2-2.5
			c1.6,0,1.9,1,1.9,2.1v5c0,1.3,0.8,1.2,1.6,1.3V464.2z M187.4,459.9c-1.3,0.4-2.3,0.7-2.3,2c0,0.9,0.6,1.4,1.2,1.4
			c1,0,2.6-0.9,2.6-2v-1.8L187.4,459.9z"/>
		<path fill="#4C3D2A" d="M202.2,464.2c-0.8,0-1.6-0.1-2.3-0.1c-0.8,0-1.7,0.1-2.4,0.1v-0.4c1.6-0.2,1.6-0.5,1.6-2.5v-2.6
			c0-1.7-0.3-1.8-2-1.8v-0.4c1.5-0.1,2.7-0.5,3.6-1.3c0,1-0.1,1.7-0.1,3.6v2.6c0,2.1,0,2.3,1.6,2.5V464.2z M199.6,453
			c-0.6,0-1.1-0.5-1.1-1.1c0-0.6,0.5-1.1,1.1-1.1c0.6,0,1.1,0.5,1.1,1.1C200.7,452.5,200.2,453,199.6,453z"/>
		<path fill="#4C3D2A" d="M208.1,464.2c-0.9,0-2-0.1-2.7-0.1c-0.8,0-1.7,0.1-2.4,0.1v-0.4c1.6-0.2,1.6-0.5,1.6-2.5v-4.7H203V456
			c1.3-0.2,1.6-0.6,1.6-1.6c0-1.5,0.5-3.9,3.5-3.9c0.9,0,2,0.6,2,1.4c0,0.8-0.4,1.1-0.9,1.1c-0.6,0-0.7-0.3-0.9-0.8
			c0.2,0,0.5-0.2,0.5-0.5c0-0.4-0.4-0.7-0.9-0.7c-1.4,0-1.8,1.2-1.8,2.6v2l2.5-0.2v1H206v4.7c0,2.1,0,2.3,2.1,2.5V464.2z"/>
		<path fill="#4C3D2A" d="M218.1,466.5c-0.1,0.2-1,1.8-2.8,1.8c-0.9,0-1.5-0.6-1.5-1.2c0-0.7,0.4-1,1-1c0.5,0,0.6,0.2,0.8,0.3
			c-0.2,0.2-0.4,0.3-0.4,0.6c0,0.3,0.3,0.5,0.7,0.5c1.1,0,2.4-2.1,2.4-3c0-0.6-0.2-1.2-0.5-1.7l-2-5.1c-0.5-1.2-0.6-1.7-1.9-1.7
			v-0.4c0.3,0,1.7,0.1,2.3,0.1c0.6,0,2-0.1,2.3-0.1v0.4c-0.6,0-1.5,0-1.5,0.6c0,0.4,0.1,0.5,0.2,0.9l1.9,5.1l1.8-4.7
			c0.1-0.2,0.3-0.8,0.3-1.2c0-0.8-0.9-0.8-1.7-0.8v-0.4c0.4,0,1.5,0.1,2.3,0.1c0.5,0,1.6-0.1,1.8-0.1v0.4c-0.9,0.1-1,0-1.7,1.7l-3,7
			L218.1,466.5z"/>
		<path fill="#4C3D2A" d="M228.2,464.4c-2.6,0-4.2-2-4.2-4.6c0-2.5,1.6-4.6,4.2-4.6c2.6,0,4.2,2,4.2,4.6
			C232.4,462.4,230.8,464.4,228.2,464.4z M230.7,459.9c0-2.3-0.7-4-2.5-4s-2.5,1.7-2.5,4c0,2.3,0.7,4,2.5,4S230.7,462.1,230.7,459.9
			z"/>
		<path fill="#4C3D2A" d="M243.7,464.2c-0.3,0-0.6,0-0.9-0.1c-0.3,0-0.6,0-0.9,0c-0.5,0-0.9,0-1.4,0.3c0.1-0.6,0.2-1.3,0.2-1.8
			c-0.9,0.8-2.2,1.8-4.1,1.8c-1.4,0-1.5-1.1-1.5-2.2v-3.6c0-1.7-0.3-1.8-1.8-1.8v-0.4c1.4-0.1,2.5-0.5,3.4-1.3c0,1-0.1,1.7-0.1,3.6
			v3c0,0.8,0,1.7,1.3,1.7c1.5,0,2.9-1,2.9-1.8v-2.9c0-1.8-0.3-1.8-1.8-1.8v-0.4c1.4-0.1,2.5-0.5,3.4-1.3c0,1-0.1,1.7-0.1,3.6v3.8
			c0,1.3,0.8,1.2,1.6,1.3V464.2z"/>
		<path fill="#4C3D2A" d="M257.9,464.2c-0.3,0-0.6,0-0.9-0.1c-0.3,0-0.6,0-0.9,0c-0.5,0-0.9,0-1.4,0.3c0.1-0.6,0.2-1.3,0.2-1.8
			c-0.8,0.7-1.8,1.8-3.3,1.8c-1,0-2-0.8-2-2.1c0-1.7,1.6-2.2,2.6-2.5l2.1-0.6c0.6-0.2,0.6-0.6,0.6-1.6c0-1.1-0.4-1.5-1.3-1.5
			c-1,0-2.1,0.4-2.1,1c0,0.2,0.2,0.5,0.3,0.5c0.1,0,0.2,0,0.3,0c0,0.5-0.3,1.2-1,1.2c-0.5,0-0.9-0.4-0.9-0.9c0-1.8,2.8-2.5,4.2-2.5
			c1.6,0,1.9,1,1.9,2.1v5c0,1.3,0.8,1.2,1.6,1.3V464.2z M253.5,459.9c-1.3,0.4-2.3,0.7-2.3,2c0,0.9,0.6,1.4,1.2,1.4
			c1,0,2.6-0.9,2.6-2v-1.8L253.5,459.9z"/>
		<path fill="#4C3D2A" d="M263.8,464.2c-0.8,0-1.9-0.1-2.5-0.1c-0.8,0-1.7,0.1-2.4,0.1v-0.4c1.6-0.2,1.6-0.5,1.6-2.5v-2.6
			c0-1.7-0.3-1.8-2-1.8v-0.4c1.5-0.1,2.7-0.5,3.6-1.3c0,0.5-0.1,1.1-0.1,2c1-0.9,1.7-1.8,2.7-1.8c0.5,0,1,0.4,1,1
			c0,0.7-0.5,1.1-1,1.1c-0.1,0-0.4,0-0.4-0.1c0-0.1,0.1-0.2,0.1-0.3c0-0.3-0.3-0.5-0.6-0.5c-0.5,0-1.8,0.7-1.8,2.2v2.6
			c0,2.1,0,2.3,1.9,2.5V464.2z"/>
		<path fill="#4C3D2A" d="M273.6,461.1c-0.3,1.2-1.2,3.3-3.8,3.3c-2,0-3.6-1.2-3.6-4.4c0-2.9,1.7-4.7,4-4.7c2.8,0,3.2,2.4,3.2,3.5
			l-5.8,0.4c0,0.2,0,0.5,0,0.7c0,1.5,0.8,3.4,2.7,3.4c1.8,0,2.4-1.6,2.7-2.5L273.6,461.1z M271.1,458.3c0.3,0,0.9-0.2,0.9-0.7
			c0-0.8-0.7-1.7-1.7-1.7c-2.2,0-2.5,2-2.6,2.8L271.1,458.3z"/>
		<path fill="#4C3D2A" d="M285.3,458.3c-0.3-0.9-0.8-2.4-2.4-2.4c-1.1,0-1.6,0.5-1.6,1.3c0,2.1,5.1,1.3,5.1,4.6
			c0,1.3-1.1,2.6-2.9,2.6c-1.3,0-1.8-0.5-2.7-0.5c-0.2,0-0.5,0.1-0.7,0.3c0-0.3,0.1-0.7,0.1-1.2c0-0.7,0-1.3-0.1-2.1h0.4
			c0.2,1.1,0.6,2.9,2.8,2.9c1,0,1.9-0.6,1.9-1.5c0-2.2-5-1.4-5-4.5c0-1.3,0.9-2.5,2.8-2.5c0.9,0,1.7,0.4,2.1,0.4
			c0.2,0,0.4-0.2,0.6-0.3c0,0.3,0,0.6,0,0.9c0,0.4,0,1.2,0.1,2H285.3z"/>
		<path fill="#4C3D2A" d="M295.1,461.1c-0.3,1.2-1.2,3.3-3.8,3.3c-2,0-3.6-1.2-3.6-4.4c0-2.9,1.7-4.7,4-4.7c2.8,0,3.2,2.4,3.2,3.5
			l-5.8,0.4c0,0.2,0,0.5,0,0.7c0,1.5,0.8,3.4,2.7,3.4c1.8,0,2.4-1.6,2.7-2.5L295.1,461.1z M292.5,458.3c0.3,0,0.9-0.2,0.9-0.7
			c0-0.8-0.7-1.7-1.7-1.7c-2.2,0-2.5,2-2.6,2.8L292.5,458.3z"/>
		<path fill="#4C3D2A" d="M304.7,464.2c-0.3,0-0.6,0-0.9-0.1c-0.3,0-0.6,0-0.9,0c-0.5,0-0.9,0-1.4,0.3c0.1-0.6,0.2-1.3,0.2-1.8
			c-0.8,0.7-1.8,1.8-3.3,1.8c-1,0-2-0.8-2-2.1c0-1.7,1.6-2.2,2.6-2.5l2.1-0.6c0.6-0.2,0.6-0.6,0.6-1.6c0-1.1-0.4-1.5-1.3-1.5
			c-1,0-2.1,0.4-2.1,1c0,0.2,0.2,0.5,0.3,0.5c0.1,0,0.2,0,0.3,0c0,0.5-0.3,1.2-1,1.2c-0.5,0-0.9-0.4-0.9-0.9c0-1.8,2.8-2.5,4.2-2.5
			c1.6,0,1.9,1,1.9,2.1v5c0,1.3,0.8,1.2,1.6,1.3V464.2z M300.3,459.9c-1.3,0.4-2.3,0.7-2.3,2c0,0.9,0.6,1.4,1.2,1.4
			c1,0,2.6-0.9,2.6-2v-1.8L300.3,459.9z"/>
		<path fill="#4C3D2A" d="M310.6,464.2c-0.8,0-1.9-0.1-2.5-0.1c-0.8,0-1.7,0.1-2.4,0.1v-0.4c1.6-0.2,1.6-0.5,1.6-2.5v-2.6
			c0-1.7-0.3-1.8-2-1.8v-0.4c1.5-0.1,2.7-0.5,3.6-1.3c0,0.5-0.1,1.1-0.1,2c1-0.9,1.7-1.8,2.7-1.8c0.5,0,1,0.4,1,1
			c0,0.7-0.5,1.1-1,1.1c-0.1,0-0.4,0-0.4-0.1c0-0.1,0.1-0.2,0.1-0.3c0-0.3-0.3-0.5-0.6-0.5c-0.5,0-1.8,0.7-1.8,2.2v2.6
			c0,2.1,0,2.3,1.9,2.5V464.2z"/>
		<path fill="#4C3D2A" d="M320.5,461c-0.4,1.3-1.1,3.4-3.8,3.4c-2.3,0-3.6-1.8-3.6-4.4c0-2.9,1.9-4.7,4.1-4.7c1.2,0,2.6,0.6,2.6,1.7
			c0,0.7-0.5,1.2-1.1,1.2c-0.4,0-0.9-0.3-0.9-1c0.4,0,0.6-0.3,0.6-0.5c0-0.6-0.6-0.8-1.3-0.8c-1.6,0-2.7,1.3-2.7,3.5
			c0,2,0.8,4,2.6,4c1.9,0,2.5-1.4,2.8-2.5L320.5,461z"/>
		<path fill="#4C3D2A" d="M331.4,464.2c-0.8,0-1.6-0.1-2.3-0.1c-0.8,0-1.7,0.1-2.4,0.1v-0.4c1.6-0.2,1.6-0.5,1.6-2.5V458
			c0-0.8,0-1.7-1.3-1.7c-1.8,0-2.9,1.3-2.9,2.4v2.5c0,2.1,0,2.3,1.6,2.5v0.4c-0.8,0-1.6-0.1-2.3-0.1c-0.8,0-1.7,0.1-2.4,0.1v-0.4
			c1.6-0.2,1.6-0.5,1.6-2.5v-7c0-2.2,0-2.6-2.2-2.6v-0.4c1.4,0,2.7-0.2,3.7-1c0,0.6-0.1,2.7-0.1,4v2.9c0.9-0.9,2.2-1.8,4.1-1.8
			c1.4,0,1.5,1.1,1.5,2.2v3.7c0,2.1,0,2.3,1.6,2.5V464.2z"/>
		<path fill="#4C3D2A" d="M337,464.2c-0.8,0-1.6-0.1-2.3-0.1c-0.8,0-1.7,0.1-2.4,0.1v-0.4c1.6-0.2,1.6-0.5,1.6-2.5v-2.6
			c0-1.7-0.3-1.8-2-1.8v-0.4c1.5-0.1,2.7-0.5,3.6-1.3c0,1-0.1,1.7-0.1,3.6v2.6c0,2.1,0,2.3,1.6,2.5V464.2z M334.3,453
			c-0.6,0-1.1-0.5-1.1-1.1c0-0.6,0.5-1.1,1.1-1.1c0.6,0,1.1,0.5,1.1,1.1C335.4,452.5,334.9,453,334.3,453z"/>
		<path fill="#4C3D2A" d="M348.3,464.2c-0.8,0-1.6-0.1-2.3-0.1c-0.8,0-1.7,0.1-2.4,0.1v-0.4c1.6-0.2,1.6-0.5,1.6-2.5V458
			c0-0.8,0-1.7-1.3-1.7c-1.8,0-2.9,1.3-2.9,2.4v2.5c0,2.1,0,2.3,1.6,2.5v0.4c-0.8,0-1.6-0.1-2.3-0.1c-0.8,0-1.7,0.1-2.4,0.1v-0.4
			c1.6-0.2,1.6-0.5,1.6-2.5v-2.6c0-1.7-0.3-1.8-2-1.8v-0.4c1.5-0.1,2.7-0.5,3.6-1.3c0,0.6-0.1,1-0.1,2.1c0.9-0.9,2.2-1.8,4.1-1.8
			c1.4,0,1.5,1.1,1.5,2.2v3.7c0,2.1,0,2.3,1.6,2.5V464.2z"/>
		<path fill="#4C3D2A" d="M355.2,462.9c0.4,0,1.7,0.5,1.7,1.7c0,2.1-2.5,3.4-5,3.4c-2.2,0-3-1-3-2c0-1.3,1.1-1.8,2.1-2.3
			c-0.6-0.2-1.5-0.5-1.5-1.2c0-1,0.8-1.2,1.7-1.6c-0.7-0.3-1.8-0.9-1.8-2.6c0-1.9,1.1-3.1,3.3-3.1c0.2,0,0.5,0,0.7,0
			c0.4-0.7,1.2-2.1,2.5-2.1c0.5,0,1,0.3,1,0.9c0,0.6-0.4,0.9-0.8,0.9c-0.2,0-0.4,0-0.5-0.1c0.1-0.1,0.2-0.2,0.2-0.3
			c0-0.2-0.1-0.4-0.4-0.4c-0.8,0-1.2,0.8-1.4,1.1c0.5,0.1,2,0.7,2,2.8c0,2-1.5,3.1-3.1,3.1h-0.7c-0.6,0-1.4,0.4-1.4,0.9
			c0,0.5,0.8,0.5,1.7,0.6L355.2,462.9z M352.6,464c-0.3,0-0.6-0.1-0.8-0.2c-0.6,0.4-1.5,1-1.5,1.9c0,1,1,1.4,2.5,1.4
			c1.6,0,3.4-0.8,3.4-2c0-0.7-0.9-1-1.8-1L352.6,464z M354.5,458.1c0-1.1-0.5-2.3-1.7-2.3s-1.7,1.2-1.7,2.5c0,1.3,0.4,2.4,1.7,2.4
			C354,460.7,354.5,459.6,354.5,458.1z"/>
		<path fill="#4C3D2A" d="M367.8,464.2c-0.9,0-2-0.1-2.7-0.1c-0.8,0-1.7,0.1-2.4,0.1v-0.4c1.6-0.2,1.6-0.5,1.6-2.5v-4.7h-1.6V456
			c1.3-0.2,1.6-0.6,1.6-1.6c0-1.5,0.5-3.9,3.5-3.9c0.9,0,2,0.6,2,1.4c0,0.8-0.4,1.1-0.9,1.1c-0.6,0-0.7-0.3-0.9-0.8
			c0.2,0,0.5-0.2,0.5-0.5c0-0.4-0.4-0.7-0.9-0.7c-1.4,0-1.8,1.2-1.8,2.6v2l2.5-0.2v1h-2.5v4.7c0,2.1,0,2.3,2.1,2.5V464.2z"/>
		<path fill="#4C3D2A" d="M373.5,464.4c-2.6,0-4.2-2-4.2-4.6c0-2.5,1.6-4.6,4.2-4.6c2.6,0,4.2,2,4.2,4.6
			C377.7,462.4,376.1,464.4,373.5,464.4z M376,459.9c0-2.3-0.7-4-2.5-4s-2.5,1.7-2.5,4c0,2.3,0.7,4,2.5,4S376,462.1,376,459.9z"/>
		<path fill="#4C3D2A" d="M384.1,464.2c-0.8,0-1.9-0.1-2.5-0.1c-0.8,0-1.7,0.1-2.4,0.1v-0.4c1.6-0.2,1.6-0.5,1.6-2.5v-2.6
			c0-1.7-0.3-1.8-2-1.8v-0.4c1.5-0.1,2.7-0.5,3.6-1.3c0,0.5-0.1,1.1-0.1,2c1-0.9,1.7-1.8,2.7-1.8c0.5,0,1,0.4,1,1
			c0,0.7-0.5,1.1-1,1.1c-0.1,0-0.4,0-0.4-0.1c0-0.1,0.1-0.2,0.1-0.3c0-0.3-0.3-0.5-0.6-0.5c-0.5,0-1.8,0.7-1.8,2.2v2.6
			c0,2.1,0,2.3,1.9,2.5V464.2z"/>
		<path fill="#4C3D2A" d="M49,487c-0.3,0-0.6,0-0.9-0.1c-0.3,0-0.6,0-0.9,0c-0.5,0-0.9,0-1.4,0.3c0.1-0.6,0.2-1.3,0.2-1.8
			c-0.8,0.7-1.8,1.8-3.3,1.8c-1,0-2-0.8-2-2.1c0-1.7,1.6-2.2,2.6-2.5l2.1-0.6c0.6-0.2,0.6-0.6,0.6-1.6c0-1.1-0.4-1.5-1.3-1.5
			c-1,0-2.1,0.4-2.1,1c0,0.2,0.2,0.5,0.3,0.5c0.1,0,0.2,0,0.3,0c0,0.5-0.3,1.2-1,1.2c-0.5,0-0.9-0.4-0.9-0.9c0-1.8,2.8-2.5,4.2-2.5
			c1.6,0,1.9,1,1.9,2.1v5c0,1.3,0.8,1.2,1.6,1.3V487z M44.6,482.7c-1.3,0.4-2.3,0.7-2.3,2c0,0.9,0.6,1.4,1.2,1.4c1,0,2.6-0.9,2.6-2
			v-1.8L44.6,482.7z"/>
		<path fill="#4C3D2A" d="M60.2,487c-0.8,0-1.6-0.1-2.3-0.1c-0.8,0-1.7,0.1-2.4,0.1v-0.4c1.6-0.2,1.6-0.5,1.6-2.5v-3.1
			c0-0.8,0-1.7-1.3-1.7c-1.8,0-2.9,1.3-2.9,2.4v2.5c0,2.1,0,2.3,1.6,2.5v0.4c-0.8,0-1.6-0.1-2.3-0.1c-0.8,0-1.7,0.1-2.4,0.1v-0.4
			c1.6-0.2,1.6-0.5,1.6-2.5v-2.6c0-1.7-0.3-1.8-2-1.8v-0.4c1.5-0.1,2.7-0.5,3.6-1.3c0,0.6-0.1,1-0.1,2.1c0.9-0.9,2.2-1.8,4.1-1.8
			c1.4,0,1.5,1.1,1.5,2.2v3.7c0,2.1,0,2.3,1.6,2.5V487z"/>
		<path fill="#4C3D2A" d="M70.7,487c-0.8,0-1.6-0.1-2.3-0.1c-0.8,0-1.7,0.1-2.4,0.1v-0.4c1.6-0.2,1.6-0.5,1.6-2.5v-2.6
			c0-1.7-0.3-1.8-2-1.8v-0.4c1.5-0.1,2.7-0.5,3.6-1.3c0,1-0.1,1.7-0.1,3.6v2.6c0,2.1,0,2.3,1.6,2.5V487z M68,475.8
			c-0.6,0-1.1-0.5-1.1-1.1c0-0.6,0.5-1.1,1.1-1.1c0.6,0,1.1,0.5,1.1,1.1C69.1,475.3,68.6,475.8,68,475.8z"/>
		<path fill="#4C3D2A" d="M82,487c-0.8,0-1.6-0.1-2.3-0.1c-0.8,0-1.7,0.1-2.4,0.1v-0.4C79,486.3,79,486,79,484v-3.1
			c0-0.8,0-1.7-1.3-1.7c-1.8,0-2.9,1.3-2.9,2.4v2.5c0,2.1,0,2.3,1.6,2.5v0.4c-0.8,0-1.6-0.1-2.3-0.1c-0.8,0-1.7,0.1-2.4,0.1v-0.4
			c1.6-0.2,1.6-0.5,1.6-2.5v-2.6c0-1.7-0.3-1.8-2-1.8v-0.4c1.5-0.1,2.7-0.5,3.6-1.3c0,0.6-0.1,1-0.1,2.1c0.9-0.9,2.2-1.8,4.1-1.8
			c1.4,0,1.5,1.1,1.5,2.2v3.7c0,2.1,0,2.3,1.6,2.5V487z"/>
		<path fill="#4C3D2A" d="M87.6,487c-0.8,0-1.6-0.1-2.3-0.1c-0.8,0-1.7,0.1-2.4,0.1v-0.4c1.6-0.2,1.6-0.5,1.6-2.5v-2.6
			c0-1.7-0.3-1.8-2-1.8v-0.4c1.5-0.1,2.7-0.5,3.6-1.3c0,1-0.1,1.7-0.1,3.6v2.6c0,2.1,0,2.3,1.6,2.5V487z M84.9,475.8
			c-0.6,0-1.1-0.5-1.1-1.1c0-0.6,0.5-1.1,1.1-1.1c0.6,0,1.1,0.5,1.1,1.1C86,475.3,85.5,475.8,84.9,475.8z"/>
		<path fill="#4C3D2A" d="M94.3,486c-0.9,0.6-1.9,1.2-3.1,1.2c-1.1,0-1.3-1.1-1.3-2.5v-5.5h-1.6v-0.5c1.7-0.2,1.9-1.1,2.5-3.1h0.6
			c0,0.7-0.1,2.1-0.1,2.9l2.7-0.2v1h-2.7v4.6c0,2.2,0.2,2.4,1,2.4c0.7,0,1.2-0.3,1.7-0.6L94.3,486z"/>
		<path fill="#4C3D2A" d="M99.5,487c-0.8,0-1.6-0.1-2.3-0.1c-0.8,0-1.7,0.1-2.4,0.1v-0.4c1.6-0.2,1.6-0.5,1.6-2.5v-2.6
			c0-1.7-0.3-1.8-2-1.8v-0.4c1.5-0.1,2.7-0.5,3.6-1.3c0,1-0.1,1.7-0.1,3.6v2.6c0,2.1,0,2.3,1.6,2.5V487z M96.9,475.8
			c-0.6,0-1.1-0.5-1.1-1.1c0-0.6,0.5-1.1,1.1-1.1c0.6,0,1.1,0.5,1.1,1.1C97.9,475.3,97.5,475.8,96.9,475.8z"/>
		<path fill="#4C3D2A" d="M108.8,487c-0.3,0-0.6,0-0.9-0.1c-0.3,0-0.6,0-0.9,0c-0.5,0-0.9,0-1.4,0.3c0.1-0.6,0.2-1.3,0.2-1.8
			c-0.8,0.7-1.8,1.8-3.3,1.8c-1,0-2-0.8-2-2.1c0-1.7,1.6-2.2,2.6-2.5l2.1-0.6c0.6-0.2,0.6-0.6,0.6-1.6c0-1.1-0.4-1.5-1.3-1.5
			c-1,0-2.1,0.4-2.1,1c0,0.2,0.2,0.5,0.3,0.5c0.1,0,0.2,0,0.3,0c0,0.5-0.3,1.2-1,1.2c-0.5,0-0.9-0.4-0.9-0.9c0-1.8,2.8-2.5,4.2-2.5
			c1.6,0,1.9,1,1.9,2.1v5c0,1.3,0.8,1.2,1.6,1.3V487z M104.4,482.7c-1.3,0.4-2.3,0.7-2.3,2c0,0.9,0.6,1.4,1.2,1.4c1,0,2.6-0.9,2.6-2
			v-1.8L104.4,482.7z"/>
		<path fill="#4C3D2A" d="M114,487c-0.8,0-1.6-0.1-2.3-0.1c-0.8,0-1.7,0.1-2.4,0.1v-0.4c1.6-0.2,1.6-0.5,1.6-2.5v-7
			c0-2.2,0-2.6-2.2-2.6V474c1.4,0,2.7-0.2,3.7-1c0,0.6-0.1,2.7-0.1,4v7c0,2.1,0,2.3,1.6,2.5V487z"/>
		<path fill="#4C3D2A" d="M124.5,487c-0.8,0-1.6-0.1-2.3-0.1c-0.8,0-1.7,0.1-2.4,0.1v-0.4c1.6-0.2,1.6-0.5,1.6-2.5v-2.6
			c0-1.7-0.3-1.8-2-1.8v-0.4c1.5-0.1,2.7-0.5,3.6-1.3c0,1-0.1,1.7-0.1,3.6v2.6c0,2.1,0,2.3,1.6,2.5V487z M121.8,475.8
			c-0.6,0-1.1-0.5-1.1-1.1c0-0.6,0.5-1.1,1.1-1.1c0.6,0,1.1,0.5,1.1,1.1C122.9,475.3,122.4,475.8,121.8,475.8z"/>
		<path fill="#4C3D2A" d="M134.7,487c-0.3,0-0.6,0-0.9-0.1c-0.3,0-0.6,0-0.8,0c-0.5,0-1.1,0.1-1.5,0.3c0-0.5,0.1-1.2,0.1-1.8
			c-1.1,1-2,1.8-3.5,1.8c-1.7,0-2.7-1.7-2.7-3.8c0-3.4,1.6-5.4,3.9-5.4c1.2,0,1.7,0.3,2.2,0.7V477c0-2.2,0-2.6-2.2-2.6V474
			c1.4,0,2.7-0.2,3.7-1c0,0.6-0.1,2.7-0.1,4v7c0,2.1,0,2.3,1.6,2.5V487z M131.7,481.5c0-1.5-0.3-2.8-2-2.8c-2,0-2.6,1.9-2.6,4.3
			c0,1.9,0.6,3.2,2.1,3.2c1.7,0,2.5-1.7,2.5-2.5V481.5z"/>
		<path fill="#4C3D2A" d="M143.1,483.9c-0.3,1.2-1.2,3.3-3.8,3.3c-2,0-3.6-1.2-3.6-4.4c0-2.9,1.7-4.7,4-4.7c2.8,0,3.2,2.4,3.2,3.5
			l-5.8,0.4c0,0.2,0,0.5,0,0.7c0,1.5,0.8,3.4,2.7,3.4c1.8,0,2.4-1.6,2.7-2.5L143.1,483.9z M140.5,481.1c0.3,0,0.9-0.2,0.9-0.7
			c0-0.8-0.7-1.7-1.7-1.7c-2.2,0-2.5,2-2.6,2.8L140.5,481.1z"/>
		<path fill="#4C3D2A" d="M152.7,487c-0.3,0-0.6,0-0.9-0.1c-0.3,0-0.6,0-0.9,0c-0.5,0-0.9,0-1.4,0.3c0.1-0.6,0.2-1.3,0.2-1.8
			c-0.8,0.7-1.8,1.8-3.3,1.8c-1,0-2-0.8-2-2.1c0-1.7,1.6-2.2,2.6-2.5l2.1-0.6c0.6-0.2,0.6-0.6,0.6-1.6c0-1.1-0.4-1.5-1.3-1.5
			c-1,0-2.1,0.4-2.1,1c0,0.2,0.2,0.5,0.3,0.5c0.1,0,0.2,0,0.3,0c0,0.5-0.3,1.2-1,1.2c-0.5,0-0.9-0.4-0.9-0.9c0-1.8,2.8-2.5,4.2-2.5
			c1.6,0,1.9,1,1.9,2.1v5c0,1.3,0.8,1.2,1.6,1.3V487z M148.3,482.7c-1.3,0.4-2.3,0.7-2.3,2c0,0.9,0.6,1.4,1.2,1.4c1,0,2.6-0.9,2.6-2
			v-1.8L148.3,482.7z"/>
		<path fill="#4C3D2A" d="M155.4,487.2c-0.6,0-1.1-0.5-1.1-1.1c0-0.6,0.5-1.1,1.1-1.1s1.1,0.5,1.1,1.1
			C156.5,486.7,156,487.2,155.4,487.2z"/>
		<path fill="#4C3D2A" d="M172.5,487c-0.7,0-2-0.1-3.2-0.1s-2.5,0.1-3.2,0.1v-0.4c2.2-0.3,2.4-0.5,2.4-2.8v-1.2c0-0.8-0.2-1-0.6-1.7
			l-2.7-4.6c-0.8-1.3-1.2-1.5-2.1-1.5v-0.4c0.9,0,1.7,0.1,2.6,0.1c0.8,0,2.1-0.1,2.6-0.1v0.4c-1,0-1.7,0-1.7,0.6
			c0,0.5,0.3,0.8,0.6,1.2l2.7,4.5l2.2-4.1c0.2-0.4,0.6-0.9,0.6-1.5c0-0.7-1-0.7-2.1-0.7v-0.4c0.6,0,1.7,0.1,2.9,0.1
			c0.9,0,1.7-0.1,2.1-0.1v0.4c-0.9,0-1.4,0.3-2.3,1.8l-2.4,4.1c-0.6,1.1-0.7,1-0.7,2.1v1.2c0,2.3,0.2,2.5,2.4,2.8V487z"/>
		<path fill="#4C3D2A" d="M178.2,487.2c-2.6,0-4.2-2-4.2-4.6c0-2.5,1.6-4.6,4.2-4.6c2.6,0,4.2,2,4.2,4.6
			C182.4,485.2,180.8,487.2,178.2,487.2z M180.7,482.7c0-2.3-0.7-4-2.5-4s-2.5,1.7-2.5,4c0,2.3,0.7,4,2.5,4S180.7,484.9,180.7,482.7
			z"/>
		<path fill="#4C3D2A" d="M193.7,487c-0.3,0-0.6,0-0.9-0.1c-0.3,0-0.6,0-0.9,0c-0.5,0-0.9,0-1.4,0.3c0.1-0.6,0.2-1.3,0.2-1.8
			c-0.9,0.8-2.2,1.8-4.1,1.8c-1.4,0-1.5-1.1-1.5-2.2v-3.6c0-1.7-0.3-1.8-1.8-1.8v-0.4c1.4-0.1,2.5-0.5,3.4-1.3c0,1-0.1,1.7-0.1,3.6
			v3c0,0.8,0,1.7,1.3,1.7c1.5,0,2.9-1,2.9-1.8v-2.9c0-1.8-0.3-1.8-1.8-1.8v-0.4c1.4-0.1,2.5-0.5,3.4-1.3c0,1-0.1,1.7-0.1,3.6v3.8
			c0,1.3,0.8,1.2,1.6,1.3V487z"/>
		<path fill="#4C3D2A" d="M201.9,479.8c1-0.8,2-1.7,3.5-1.7c1.9,0,2.7,1.8,2.7,4c0,3.2-1.4,5.2-3.8,5.2c-1.5,0-2-0.6-2.7-1.2
			c-0.3,0.7-0.8,1.1-1.7,1.6l-0.2-0.3c0.6-0.8,0.9-0.8,0.9-3.3v-7c0-2.2,0-2.6-2.2-2.6V474c1.4,0,2.7-0.2,3.7-1c0,0.6-0.1,2.7-0.1,4
			V479.8z M201.9,483.4c0,1.3,0.1,3.2,2.3,3.2c1.5,0,2.3-1.6,2.3-3.9c0-2.1-0.6-3.6-2.1-3.6c-2.1,0-2.5,1.6-2.5,3.1V483.4z"/>
		<path fill="#4C3D2A" d="M214.5,487c-0.8,0-1.9-0.1-2.5-0.1c-0.8,0-1.7,0.1-2.4,0.1v-0.4c1.6-0.2,1.6-0.5,1.6-2.5v-2.6
			c0-1.7-0.3-1.8-2-1.8v-0.4c1.5-0.1,2.7-0.5,3.6-1.3c0,0.5-0.1,1.1-0.1,2c1-0.9,1.7-1.8,2.7-1.8c0.5,0,1,0.4,1,1
			c0,0.7-0.5,1.1-1,1.1c-0.1,0-0.4,0-0.4-0.1c0-0.1,0.1-0.2,0.1-0.3c0-0.3-0.3-0.5-0.6-0.5c-0.5,0-1.8,0.7-1.8,2.2v2.6
			c0,2.1,0,2.3,1.9,2.5V487z"/>
		<path fill="#4C3D2A" d="M225.2,487c-0.3,0-0.6,0-0.9-0.1c-0.3,0-0.6,0-0.9,0c-0.5,0-0.9,0-1.4,0.3c0.1-0.6,0.2-1.3,0.2-1.8
			c-0.8,0.7-1.8,1.8-3.3,1.8c-1,0-2-0.8-2-2.1c0-1.7,1.6-2.2,2.6-2.5l2.1-0.6c0.6-0.2,0.6-0.6,0.6-1.6c0-1.1-0.4-1.5-1.3-1.5
			c-1,0-2.1,0.4-2.1,1c0,0.2,0.2,0.5,0.3,0.5c0.1,0,0.2,0,0.3,0c0,0.5-0.3,1.2-1,1.2c-0.5,0-0.9-0.4-0.9-0.9c0-1.8,2.8-2.5,4.2-2.5
			c1.6,0,1.9,1,1.9,2.1v5c0,1.3,0.8,1.2,1.6,1.3V487z M220.8,482.7c-1.3,0.4-2.3,0.7-2.3,2c0,0.9,0.6,1.4,1.2,1.4c1,0,2.6-0.9,2.6-2
			v-1.8L220.8,482.7z"/>
		<path fill="#4C3D2A" d="M230.7,487c-0.8,0-1.6-0.1-2.3-0.1c-0.8,0-1.7,0.1-2.4,0.1v-0.4c1.6-0.2,1.6-0.5,1.6-2.5v-2.6
			c0-1.7-0.3-1.8-2-1.8v-0.4c1.5-0.1,2.7-0.5,3.6-1.3c0,1-0.1,1.7-0.1,3.6v2.6c0,2.1,0,2.3,1.6,2.5V487z M228.1,475.8
			c-0.6,0-1.1-0.5-1.1-1.1c0-0.6,0.5-1.1,1.1-1.1c0.6,0,1.1,0.5,1.1,1.1C229.2,475.3,228.7,475.8,228.1,475.8z"/>
		<path fill="#4C3D2A" d="M242.1,487c-0.8,0-1.6-0.1-2.3-0.1c-0.8,0-1.7,0.1-2.4,0.1v-0.4c1.6-0.2,1.6-0.5,1.6-2.5v-3.1
			c0-0.8,0-1.7-1.3-1.7c-1.8,0-2.9,1.3-2.9,2.4v2.5c0,2.1,0,2.3,1.6,2.5v0.4c-0.8,0-1.6-0.1-2.3-0.1c-0.8,0-1.7,0.1-2.4,0.1v-0.4
			c1.6-0.2,1.6-0.5,1.6-2.5v-2.6c0-1.7-0.3-1.8-2-1.8v-0.4c1.5-0.1,2.7-0.5,3.6-1.3c0,0.6-0.1,1-0.1,2.1c0.9-0.9,2.2-1.8,4.1-1.8
			c1.4,0,1.5,1.1,1.5,2.2v3.7c0,2.1,0,2.3,1.6,2.5V487z"/>
		<path fill="#4C3D2A" d="M262.8,487c-0.8,0-1.6-0.1-2.3-0.1c-0.9,0-1.7,0.1-2.4,0.1v-0.4c1.6-0.2,1.6-0.5,1.6-2.5v-3.1
			c0-0.8,0-1.7-0.9-1.7c-1.7,0-2.8,1.2-2.8,2.3v2.6c0,2.1,0,2.3,1.4,2.5v0.4c-0.7,0-1.4-0.1-2.1-0.1c-0.8,0-1.5,0.1-2.2,0.1v-0.4
			c1.4-0.2,1.4-0.5,1.4-2.5v-3.1c0-0.8,0-1.7-0.9-1.7c-1.7,0-2.8,1.2-2.8,2.3v2.6c0,2.1,0,2.3,1.6,2.5v0.4c-0.8,0-1.6-0.1-2.3-0.1
			c-0.8,0-1.7,0.1-2.4,0.1v-0.4c1.6-0.2,1.6-0.5,1.6-2.5v-2.6c0-1.7-0.3-1.8-2-1.8v-0.4c1.5-0.1,2.7-0.5,3.6-1.3
			c0,0.6-0.1,1.2-0.1,2c0.9-0.8,2.3-1.7,3.7-1.7c1.1,0,1.3,0.8,1.4,1.7c0.9-0.8,2.3-1.7,3.7-1.7c1.2,0,1.3,1.1,1.3,2.2v3.7
			c0,2.1,0,2.3,1.6,2.5V487z"/>
		<path fill="#4C3D2A" d="M272,487c-0.3,0-0.6,0-0.9-0.1c-0.3,0-0.6,0-0.9,0c-0.5,0-0.9,0-1.4,0.3c0.1-0.6,0.2-1.3,0.2-1.8
			c-0.8,0.7-1.8,1.8-3.3,1.8c-1,0-2-0.8-2-2.1c0-1.7,1.6-2.2,2.6-2.5l2.1-0.6c0.6-0.2,0.6-0.6,0.6-1.6c0-1.1-0.4-1.5-1.3-1.5
			c-1,0-2.1,0.4-2.1,1c0,0.2,0.2,0.5,0.3,0.5c0.1,0,0.2,0,0.3,0c0,0.5-0.3,1.2-1,1.2c-0.5,0-0.9-0.4-0.9-0.9c0-1.8,2.8-2.5,4.2-2.5
			c1.6,0,1.9,1,1.9,2.1v5c0,1.3,0.8,1.2,1.6,1.3V487z M267.6,482.7c-1.3,0.4-2.3,0.7-2.3,2c0,0.9,0.6,1.4,1.2,1.4c1,0,2.6-0.9,2.6-2
			v-1.8L267.6,482.7z"/>
		<path fill="#4C3D2A" d="M282.5,487c-0.2,0-0.5,0-0.8-0.1c-0.3,0-0.6,0-0.7,0c-0.4,0-0.8,0.1-1.1,0.2c0-0.1,0-0.3,0-0.4
			c0-0.1-0.1-0.2-0.6-0.9l-2.4-3.3l-1.2,1.2c0,2.3,0,2.6,1.6,2.8v0.4c-0.8,0-1.6-0.1-2.3-0.1c-0.8,0-1.7,0.1-2.4,0.1v-0.4
			c1.6-0.2,1.6-0.5,1.6-2.5v-7c0-2.2,0-2.6-2.2-2.6V474c1.4,0,2.7-0.2,3.7-1c0,0.6-0.1,2.7-0.1,4v5.9l2.3-2.3
			c0.6-0.6,0.9-1.1,0.9-1.3c0-0.5-0.6-0.6-1.3-0.6v-0.4c0.4,0,1.7,0.1,2.3,0.1c0.7,0,1.6-0.1,2.1-0.1v0.4c-1.3,0.1-1.6,0.3-2.7,1.5
			l-1.3,1.3l2.6,3.6c0.7,1,1,1.3,2,1.4V487z"/>
		<path fill="#4C3D2A" d="M290.5,483.9c-0.3,1.2-1.2,3.3-3.8,3.3c-2,0-3.6-1.2-3.6-4.4c0-2.9,1.7-4.7,4-4.7c2.8,0,3.2,2.4,3.2,3.5
			l-5.8,0.4c0,0.2,0,0.5,0,0.7c0,1.5,0.8,3.4,2.7,3.4c1.8,0,2.4-1.6,2.7-2.5L290.5,483.9z M288,481.1c0.3,0,0.9-0.2,0.9-0.7
			c0-0.8-0.7-1.7-1.7-1.7c-2.2,0-2.5,2-2.6,2.8L288,481.1z"/>
		<path fill="#4C3D2A" d="M297.2,481.1c-0.3-0.9-0.8-2.4-2.4-2.4c-1.1,0-1.6,0.5-1.6,1.3c0,2.1,5.1,1.3,5.1,4.6
			c0,1.3-1.1,2.6-2.9,2.6c-1.3,0-1.8-0.5-2.7-0.5c-0.2,0-0.5,0.1-0.7,0.3c0-0.3,0.1-0.7,0.1-1.2c0-0.7,0-1.3-0.1-2.1h0.4
			c0.2,1.1,0.6,2.9,2.8,2.9c1,0,1.9-0.6,1.9-1.5c0-2.2-5-1.4-5-4.5c0-1.3,0.9-2.5,2.8-2.5c0.9,0,1.7,0.4,2.1,0.4
			c0.2,0,0.4-0.2,0.6-0.3c0,0.3,0,0.6,0,0.9c0,0.4,0,1.2,0.1,2H297.2z"/>
		<path fill="#4C3D2A" d="M313.8,487c-0.3,0-0.6,0-0.9-0.1c-0.3,0-0.6,0-0.8,0c-0.5,0-1.1,0.1-1.5,0.3c0-0.5,0.1-1.2,0.1-1.8
			c-1.1,1-2,1.8-3.5,1.8c-1.7,0-2.7-1.7-2.7-3.8c0-3.4,1.6-5.4,3.9-5.4c1.2,0,1.7,0.3,2.2,0.7V477c0-2.2,0-2.6-2.2-2.6V474
			c1.4,0,2.7-0.2,3.7-1c0,0.6-0.1,2.7-0.1,4v7c0,2.1,0,2.3,1.6,2.5V487z M310.8,481.5c0-1.5-0.3-2.8-2-2.8c-2,0-2.6,1.9-2.6,4.3
			c0,1.9,0.6,3.2,2.1,3.2c1.7,0,2.5-1.7,2.5-2.5V481.5z"/>
		<path fill="#4C3D2A" d="M322.2,483.9c-0.3,1.2-1.2,3.3-3.8,3.3c-2,0-3.6-1.2-3.6-4.4c0-2.9,1.7-4.7,4-4.7c2.8,0,3.2,2.4,3.2,3.5
			l-5.8,0.4c0,0.2,0,0.5,0,0.7c0,1.5,0.8,3.4,2.7,3.4c1.8,0,2.4-1.6,2.7-2.5L322.2,483.9z M319.6,481.1c0.3,0,0.9-0.2,0.9-0.7
			c0-0.8-0.7-1.7-1.7-1.7c-2.2,0-2.5,2-2.6,2.8L319.6,481.1z"/>
		<path fill="#4C3D2A" d="M331,483.9c-0.3,1.2-1.2,3.3-3.8,3.3c-2,0-3.6-1.2-3.6-4.4c0-2.9,1.7-4.7,4-4.7c2.8,0,3.2,2.4,3.2,3.5
			L325,482c0,0.2,0,0.5,0,0.7c0,1.5,0.8,3.4,2.7,3.4c1.8,0,2.4-1.6,2.7-2.5L331,483.9z M328.4,481.1c0.3,0,0.9-0.2,0.9-0.7
			c0-0.8-0.7-1.7-1.7-1.7c-2.2,0-2.5,2-2.6,2.8L328.4,481.1z"/>
		<path fill="#4C3D2A" d="M337.2,491c-0.9,0-2-0.1-2.8-0.1c-0.8,0-1.7,0.1-2.4,0.1v-0.4c1.6-0.2,1.6-0.5,1.6-2.5v-6.6
			c0-1.7-0.3-1.8-1.8-1.8v-0.4c1.4-0.1,2.5-0.5,3.4-1.3c0,0.7-0.1,1.2-0.1,2.1c1.1-1,1.9-1.8,3.4-1.8c1.7,0,2.7,1.7,2.7,3.8
			c0,3.4-1.6,5.4-3.9,5.4c-1.2,0-1.7-0.3-2.2-0.7v1.5c0,2.1,0,2.3,2.2,2.5V491z M335,483.8c0,1.5,0.3,2.8,2,2.8c2,0,2.6-1.9,2.6-4.3
			c0-1.9-0.6-3.2-2.1-3.2c-1.7,0-2.5,1.7-2.5,2.5V483.8z"/>
		<path fill="#4C3D2A" d="M350,483.9c-0.3,1.2-1.2,3.3-3.8,3.3c-2,0-3.6-1.2-3.6-4.4c0-2.9,1.7-4.7,4-4.7c2.8,0,3.2,2.4,3.2,3.5
			L344,482c0,0.2,0,0.5,0,0.7c0,1.5,0.8,3.4,2.7,3.4c1.8,0,2.4-1.6,2.7-2.5L350,483.9z M347.4,481.1c0.3,0,0.9-0.2,0.9-0.7
			c0-0.8-0.7-1.7-1.7-1.7c-2.2,0-2.5,2-2.6,2.8L347.4,481.1z"/>
		<path fill="#4C3D2A" d="M356.3,487c-0.8,0-1.9-0.1-2.5-0.1c-0.8,0-1.7,0.1-2.4,0.1v-0.4c1.6-0.2,1.6-0.5,1.6-2.5v-2.6
			c0-1.7-0.3-1.8-2-1.8v-0.4c1.5-0.1,2.7-0.5,3.6-1.3c0,0.5-0.1,1.1-0.1,2c1-0.9,1.7-1.8,2.7-1.8c0.5,0,1,0.4,1,1
			c0,0.7-0.5,1.1-1,1.1c-0.1,0-0.4,0-0.4-0.1c0-0.1,0.1-0.2,0.1-0.3c0-0.3-0.3-0.5-0.6-0.5c-0.5,0-1.8,0.7-1.8,2.2v2.6
			c0,2.1,0,2.3,1.9,2.5V487z"/>
		<path fill="#4C3D2A" d="M48.2,506.6c-0.4,1.3-1.1,3.4-3.8,3.4c-2.3,0-3.6-1.8-3.6-4.4c0-2.9,1.9-4.7,4.1-4.7
			c1.2,0,2.6,0.6,2.6,1.7c0,0.7-0.5,1.2-1.1,1.2c-0.4,0-0.9-0.3-0.9-1c0.4,0,0.6-0.3,0.6-0.5c0-0.6-0.6-0.8-1.3-0.8
			c-1.6,0-2.7,1.3-2.7,3.5c0,2,0.8,4,2.6,4c1.9,0,2.5-1.4,2.8-2.5L48.2,506.6z"/>
		<path fill="#4C3D2A" d="M53.4,510c-2.6,0-4.2-2-4.2-4.6c0-2.5,1.6-4.6,4.2-4.6c2.6,0,4.2,2,4.2,4.6C57.6,508,55.9,510,53.4,510z
			 M55.9,505.5c0-2.3-0.7-4-2.5-4s-2.5,1.7-2.5,4c0,2.3,0.7,4,2.5,4S55.9,507.7,55.9,505.5z"/>
		<path fill="#4C3D2A" d="M69.4,509.8c-0.8,0-1.6-0.1-2.3-0.1c-0.8,0-1.7,0.1-2.4,0.1v-0.4c1.6-0.2,1.6-0.5,1.6-2.5v-3.1
			c0-0.8,0-1.7-1.3-1.7c-1.8,0-2.9,1.3-2.9,2.4v2.5c0,2.1,0,2.3,1.6,2.5v0.4c-0.8,0-1.6-0.1-2.3-0.1c-0.8,0-1.7,0.1-2.4,0.1v-0.4
			c1.6-0.2,1.6-0.5,1.6-2.5v-2.6c0-1.7-0.3-1.8-2-1.8v-0.4c1.5-0.1,2.7-0.5,3.6-1.3c0,0.6-0.1,1-0.1,2.1c0.9-0.9,2.2-1.8,4.1-1.8
			c1.4,0,1.5,1.1,1.5,2.2v3.7c0,2.1,0,2.3,1.6,2.5V509.8z"/>
		<path fill="#4C3D2A" d="M80.6,509.8c-0.8,0-1.6-0.1-2.3-0.1c-0.8,0-1.7,0.1-2.4,0.1v-0.4c1.6-0.2,1.6-0.5,1.6-2.5v-3.1
			c0-0.8,0-1.7-1.3-1.7c-1.8,0-2.9,1.3-2.9,2.4v2.5c0,2.1,0,2.3,1.6,2.5v0.4c-0.8,0-1.6-0.1-2.3-0.1c-0.8,0-1.7,0.1-2.4,0.1v-0.4
			c1.6-0.2,1.6-0.5,1.6-2.5v-2.6c0-1.7-0.3-1.8-2-1.8v-0.4c1.5-0.1,2.7-0.5,3.6-1.3c0,0.6-0.1,1-0.1,2.1c0.9-0.9,2.2-1.8,4.1-1.8
			c1.4,0,1.5,1.1,1.5,2.2v3.7c0,2.1,0,2.3,1.6,2.5V509.8z"/>
		<path fill="#4C3D2A" d="M89,506.7c-0.3,1.2-1.2,3.3-3.8,3.3c-2,0-3.6-1.2-3.6-4.4c0-2.9,1.7-4.7,4-4.7c2.8,0,3.2,2.4,3.2,3.5
			l-5.8,0.4c0,0.2,0,0.5,0,0.7c0,1.5,0.8,3.4,2.7,3.4c1.8,0,2.4-1.6,2.7-2.5L89,506.7z M86.4,503.9c0.3,0,0.9-0.2,0.9-0.7
			c0-0.8-0.7-1.7-1.7-1.7c-2.2,0-2.5,2-2.6,2.8L86.4,503.9z"/>
		<path fill="#4C3D2A" d="M97.8,506.6c-0.4,1.3-1.1,3.4-3.8,3.4c-2.3,0-3.6-1.8-3.6-4.4c0-2.9,1.9-4.7,4.1-4.7
			c1.2,0,2.6,0.6,2.6,1.7c0,0.7-0.5,1.2-1.1,1.2c-0.4,0-0.9-0.3-0.9-1c0.4,0,0.6-0.3,0.6-0.5c0-0.6-0.6-0.8-1.3-0.8
			c-1.6,0-2.7,1.3-2.7,3.5c0,2,0.8,4,2.6,4c1.9,0,2.5-1.4,2.8-2.5L97.8,506.6z"/>
		<path fill="#4C3D2A" d="M104.5,508.8c-0.9,0.6-1.9,1.2-3.1,1.2c-1.1,0-1.3-1.1-1.3-2.5V502h-1.6v-0.5c1.7-0.2,1.9-1.1,2.5-3.1h0.6
			c0,0.7-0.1,2.1-0.1,2.9l2.7-0.2v1h-2.7v4.6c0,2.2,0.2,2.4,1,2.4c0.7,0,1.2-0.3,1.7-0.6L104.5,508.8z"/>
		<path fill="#4C3D2A" d="M109.7,509.8c-0.8,0-1.6-0.1-2.3-0.1c-0.8,0-1.7,0.1-2.4,0.1v-0.4c1.6-0.2,1.6-0.5,1.6-2.5v-2.6
			c0-1.7-0.3-1.8-2-1.8v-0.4c1.5-0.1,2.7-0.5,3.6-1.3c0,1-0.1,1.7-0.1,3.6v2.6c0,2.1,0,2.3,1.6,2.5V509.8z M107.1,498.6
			c-0.6,0-1.1-0.5-1.1-1.1c0-0.6,0.5-1.1,1.1-1.1c0.6,0,1.1,0.5,1.1,1.1C108.2,498.1,107.7,498.6,107.1,498.6z"/>
		<path fill="#4C3D2A" d="M115,510c-2.6,0-4.2-2-4.2-4.6c0-2.5,1.6-4.6,4.2-4.6c2.6,0,4.2,2,4.2,4.6C119.1,508,117.5,510,115,510z
			 M117.4,505.5c0-2.3-0.7-4-2.5-4s-2.5,1.7-2.5,4c0,2.3,0.7,4,2.5,4S117.4,507.7,117.4,505.5z"/>
		<path fill="#4C3D2A" d="M130.9,509.8c-0.8,0-1.6-0.1-2.3-0.1c-0.8,0-1.7,0.1-2.4,0.1v-0.4c1.6-0.2,1.6-0.5,1.6-2.5v-3.1
			c0-0.8,0-1.7-1.3-1.7c-1.8,0-2.9,1.3-2.9,2.4v2.5c0,2.1,0,2.3,1.6,2.5v0.4c-0.8,0-1.6-0.1-2.3-0.1c-0.8,0-1.7,0.1-2.4,0.1v-0.4
			c1.6-0.2,1.6-0.5,1.6-2.5v-2.6c0-1.7-0.3-1.8-2-1.8v-0.4c1.5-0.1,2.7-0.5,3.6-1.3c0,0.6-0.1,1-0.1,2.1c0.9-0.9,2.2-1.8,4.1-1.8
			c1.4,0,1.5,1.1,1.5,2.2v3.7c0,2.1,0,2.3,1.6,2.5V509.8z"/>
		<path fill="#4C3D2A" d="M137.2,503.9c-0.3-0.9-0.8-2.4-2.4-2.4c-1.1,0-1.6,0.5-1.6,1.3c0,2.1,5.1,1.3,5.1,4.6
			c0,1.3-1.1,2.6-2.9,2.6c-1.3,0-1.8-0.5-2.7-0.5c-0.2,0-0.5,0.1-0.7,0.3c0-0.3,0.1-0.7,0.1-1.2c0-0.7,0-1.3-0.1-2.1h0.4
			c0.2,1.1,0.6,2.9,2.8,2.9c1,0,1.9-0.6,1.9-1.5c0-2.2-5-1.4-5-4.5c0-1.3,0.9-2.5,2.8-2.5c0.9,0,1.7,0.4,2.1,0.4
			c0.2,0,0.4-0.2,0.6-0.3c0,0.3,0,0.6,0,0.9c0,0.4,0,1.2,0.1,2H137.2z"/>
		<path fill="#4C3D2A" d="M152.8,509.8c-0.3,0-0.6,0-0.9-0.1c-0.3,0-0.6,0-0.9,0c-0.5,0-0.9,0-1.4,0.3c0.1-0.6,0.2-1.3,0.2-1.8
			c-0.8,0.7-1.8,1.8-3.3,1.8c-1,0-2-0.8-2-2.1c0-1.7,1.6-2.2,2.6-2.5l2.1-0.6c0.6-0.2,0.6-0.6,0.6-1.6c0-1.1-0.4-1.5-1.3-1.5
			c-1,0-2.1,0.4-2.1,1c0,0.2,0.2,0.5,0.3,0.5c0.1,0,0.2,0,0.3,0c0,0.5-0.3,1.2-1,1.2c-0.5,0-0.9-0.4-0.9-0.9c0-1.8,2.8-2.5,4.2-2.5
			c1.6,0,1.9,1,1.9,2.1v5c0,1.3,0.8,1.2,1.6,1.3V509.8z M148.4,505.5c-1.3,0.4-2.3,0.7-2.3,2c0,0.9,0.6,1.4,1.2,1.4
			c1,0,2.6-0.9,2.6-2v-1.8L148.4,505.5z"/>
		<path fill="#4C3D2A" d="M164,509.8c-0.8,0-1.6-0.1-2.3-0.1c-0.8,0-1.7,0.1-2.4,0.1v-0.4c1.6-0.2,1.6-0.5,1.6-2.5v-3.1
			c0-0.8,0-1.7-1.3-1.7c-1.8,0-2.9,1.3-2.9,2.4v2.5c0,2.1,0,2.3,1.6,2.5v0.4c-0.8,0-1.6-0.1-2.3-0.1c-0.8,0-1.7,0.1-2.4,0.1v-0.4
			c1.6-0.2,1.6-0.5,1.6-2.5v-2.6c0-1.7-0.3-1.8-2-1.8v-0.4c1.5-0.1,2.7-0.5,3.6-1.3c0,0.6-0.1,1-0.1,2.1c0.9-0.9,2.2-1.8,4.1-1.8
			c1.4,0,1.5,1.1,1.5,2.2v3.7c0,2.1,0,2.3,1.6,2.5V509.8z"/>
		<path fill="#4C3D2A" d="M174.2,509.8c-0.3,0-0.6,0-0.9-0.1c-0.3,0-0.6,0-0.8,0c-0.5,0-1.1,0.1-1.5,0.3c0-0.5,0.1-1.2,0.1-1.8
			c-1.1,1-2,1.8-3.5,1.8c-1.7,0-2.7-1.7-2.7-3.8c0-3.4,1.6-5.4,3.9-5.4c1.2,0,1.7,0.3,2.2,0.7v-1.8c0-2.2,0-2.6-2.2-2.6v-0.4
			c1.4,0,2.7-0.2,3.7-1c0,0.6-0.1,2.7-0.1,4v7c0,2.1,0,2.3,1.6,2.5V509.8z M171.2,504.3c0-1.5-0.3-2.8-2-2.8c-2,0-2.6,1.9-2.6,4.3
			c0,1.9,0.6,3.2,2.1,3.2c1.7,0,2.5-1.7,2.5-2.5V504.3z"/>
		<path fill="#4C3D2A" d="M186,508.5c0.4,0,1.7,0.5,1.7,1.7c0,2.1-2.5,3.4-5,3.4c-2.2,0-3-1-3-2c0-1.3,1.1-1.8,2.1-2.3
			c-0.6-0.2-1.5-0.5-1.5-1.2c0-1,0.8-1.2,1.7-1.6c-0.7-0.3-1.8-0.9-1.8-2.6c0-1.9,1.1-3.1,3.3-3.1c0.2,0,0.5,0,0.7,0
			c0.4-0.7,1.2-2.1,2.5-2.1c0.5,0,1,0.3,1,0.9c0,0.6-0.4,0.9-0.8,0.9c-0.2,0-0.4,0-0.5-0.1c0.1-0.1,0.2-0.2,0.2-0.3
			c0-0.2-0.1-0.4-0.4-0.4c-0.8,0-1.2,0.8-1.4,1.1c0.5,0.1,2,0.7,2,2.8c0,2-1.5,3.1-3.1,3.1H183c-0.6,0-1.4,0.4-1.4,0.9
			c0,0.5,0.8,0.5,1.7,0.6L186,508.5z M183.4,509.6c-0.3,0-0.6-0.1-0.8-0.2c-0.6,0.4-1.5,1-1.5,1.9c0,1,1,1.4,2.5,1.4
			c1.6,0,3.4-0.8,3.4-2c0-0.7-0.9-1-1.8-1L183.4,509.6z M185.3,503.7c0-1.1-0.5-2.3-1.7-2.3s-1.7,1.2-1.7,2.5c0,1.3,0.4,2.4,1.7,2.4
			C184.8,506.3,185.3,505.2,185.3,503.7z"/>
		<path fill="#4C3D2A" d="M196.2,506.7c-0.3,1.2-1.2,3.3-3.8,3.3c-2,0-3.6-1.2-3.6-4.4c0-2.9,1.7-4.7,4-4.7c2.8,0,3.2,2.4,3.2,3.5
			l-5.8,0.4c0,0.2,0,0.5,0,0.7c0,1.5,0.8,3.4,2.7,3.4c1.8,0,2.4-1.6,2.7-2.5L196.2,506.7z M193.7,503.9c0.3,0,0.9-0.2,0.9-0.7
			c0-0.8-0.7-1.7-1.7-1.7c-2.2,0-2.5,2-2.6,2.8L193.7,503.9z"/>
		<path fill="#4C3D2A" d="M203.4,508.8c-0.9,0.6-1.9,1.2-3.1,1.2c-1.1,0-1.3-1.1-1.3-2.5V502h-1.6v-0.5c1.7-0.2,1.9-1.1,2.5-3.1h0.6
			c0,0.7-0.1,2.1-0.1,2.9l2.7-0.2v1h-2.7v4.6c0,2.2,0.2,2.4,1,2.4c0.7,0,1.2-0.3,1.7-0.6L203.4,508.8z"/>
		<path fill="#4C3D2A" d="M209.3,503.9c-0.3-0.9-0.8-2.4-2.4-2.4c-1.1,0-1.6,0.5-1.6,1.3c0,2.1,5.1,1.3,5.1,4.6
			c0,1.3-1.1,2.6-2.9,2.6c-1.3,0-1.8-0.5-2.7-0.5c-0.2,0-0.5,0.1-0.7,0.3c0-0.3,0.1-0.7,0.1-1.2c0-0.7,0-1.3-0.1-2.1h0.4
			c0.2,1.1,0.6,2.9,2.8,2.9c1,0,1.9-0.6,1.9-1.5c0-2.2-5-1.4-5-4.5c0-1.3,0.9-2.5,2.8-2.5c0.9,0,1.7,0.4,2.1,0.4
			c0.2,0,0.4-0.2,0.6-0.3c0,0.3,0,0.6,0,0.9c0,0.4,0,1.2,0.1,2H209.3z"/>
		<path fill="#4C3D2A" d="M218.8,502.6c1-0.8,2-1.7,3.5-1.7c1.9,0,2.7,1.8,2.7,4c0,3.2-1.4,5.2-3.8,5.2c-1.5,0-2-0.6-2.7-1.2
			c-0.3,0.7-0.8,1.1-1.7,1.6l-0.2-0.3c0.6-0.8,0.9-0.8,0.9-3.3v-7c0-2.2,0-2.6-2.2-2.6v-0.4c1.4,0,2.7-0.2,3.7-1
			c0,0.6-0.1,2.7-0.1,4V502.6z M218.8,506.2c0,1.3,0.1,3.2,2.3,3.2c1.5,0,2.3-1.6,2.3-3.9c0-2.1-0.6-3.6-2.1-3.6
			c-2.1,0-2.5,1.6-2.5,3.1V506.2z"/>
		<path fill="#4C3D2A" d="M233.9,506.7c-0.3,1.2-1.2,3.3-3.8,3.3c-2,0-3.6-1.2-3.6-4.4c0-2.9,1.7-4.7,4-4.7c2.8,0,3.2,2.4,3.2,3.5
			l-5.8,0.4c0,0.2,0,0.5,0,0.7c0,1.5,0.8,3.4,2.7,3.4c1.8,0,2.4-1.6,2.7-2.5L233.9,506.7z M231.3,503.9c0.3,0,0.9-0.2,0.9-0.7
			c0-0.8-0.7-1.7-1.7-1.7c-2.2,0-2.5,2-2.6,2.8L231.3,503.9z"/>
		<path fill="#4C3D2A" d="M241,508.8c-0.9,0.6-1.9,1.2-3.1,1.2c-1.1,0-1.3-1.1-1.3-2.5V502h-1.6v-0.5c1.7-0.2,1.9-1.1,2.5-3.1h0.6
			c0,0.7-0.1,2.1-0.1,2.9l2.7-0.2v1H238v4.6c0,2.2,0.2,2.4,1,2.4c0.7,0,1.2-0.3,1.7-0.6L241,508.8z"/>
		<path fill="#4C3D2A" d="M247.3,508.8c-0.9,0.6-1.9,1.2-3.1,1.2c-1.1,0-1.3-1.1-1.3-2.5V502h-1.6v-0.5c1.7-0.2,1.9-1.1,2.5-3.1h0.6
			c0,0.7-0.1,2.1-0.1,2.9l2.7-0.2v1h-2.7v4.6c0,2.2,0.2,2.4,1,2.4c0.7,0,1.2-0.3,1.7-0.6L247.3,508.8z"/>
		<path fill="#4C3D2A" d="M255.3,506.7c-0.3,1.2-1.2,3.3-3.8,3.3c-2,0-3.6-1.2-3.6-4.4c0-2.9,1.7-4.7,4-4.7c2.8,0,3.2,2.4,3.2,3.5
			l-5.8,0.4c0,0.2,0,0.5,0,0.7c0,1.5,0.8,3.4,2.7,3.4c1.8,0,2.4-1.6,2.7-2.5L255.3,506.7z M252.8,503.9c0.3,0,0.9-0.2,0.9-0.7
			c0-0.8-0.7-1.7-1.7-1.7c-2.2,0-2.5,2-2.6,2.8L252.8,503.9z"/>
		<path fill="#4C3D2A" d="M261.7,509.8c-0.8,0-1.9-0.1-2.5-0.1c-0.8,0-1.7,0.1-2.4,0.1v-0.4c1.6-0.2,1.6-0.5,1.6-2.5v-2.6
			c0-1.7-0.3-1.8-2-1.8v-0.4c1.5-0.1,2.7-0.5,3.6-1.3c0,0.5-0.1,1.1-0.1,2c1-0.9,1.7-1.8,2.7-1.8c0.5,0,1,0.4,1,1
			c0,0.7-0.5,1.1-1,1.1c-0.1,0-0.4,0-0.4-0.1c0-0.1,0.1-0.2,0.1-0.3c0-0.3-0.3-0.5-0.6-0.5c-0.5,0-1.8,0.7-1.8,2.2v2.6
			c0,2.1,0,2.3,1.9,2.5V509.8z"/>
		<path fill="#4C3D2A" d="M274,509.8c-0.8,0-1.6-0.1-2.3-0.1c-0.8,0-1.7,0.1-2.4,0.1v-0.4c1.6-0.2,1.6-0.5,1.6-2.5v-2.6
			c0-1.7-0.3-1.8-2-1.8v-0.4c1.5-0.1,2.7-0.5,3.6-1.3c0,1-0.1,1.7-0.1,3.6v2.6c0,2.1,0,2.3,1.6,2.5V509.8z M271.4,498.6
			c-0.6,0-1.1-0.5-1.1-1.1c0-0.6,0.5-1.1,1.1-1.1c0.6,0,1.1,0.5,1.1,1.1C272.4,498.1,271.9,498.6,271.4,498.6z"/>
		<path fill="#4C3D2A" d="M284.3,509.8c-0.3,0-0.6,0-0.9-0.1c-0.3,0-0.6,0-0.8,0c-0.5,0-1.1,0.1-1.5,0.3c0-0.5,0.1-1.2,0.1-1.8
			c-1.1,1-2,1.8-3.5,1.8c-1.7,0-2.7-1.7-2.7-3.8c0-3.4,1.6-5.4,3.9-5.4c1.2,0,1.7,0.3,2.2,0.7v-1.8c0-2.2,0-2.6-2.2-2.6v-0.4
			c1.4,0,2.7-0.2,3.7-1c0,0.6-0.1,2.7-0.1,4v7c0,2.1,0,2.3,1.6,2.5V509.8z M281.2,504.3c0-1.5-0.3-2.8-2-2.8c-2,0-2.6,1.9-2.6,4.3
			c0,1.9,0.6,3.2,2.1,3.2c1.7,0,2.5-1.7,2.5-2.5V504.3z"/>
		<path fill="#4C3D2A" d="M292.6,506.7c-0.3,1.2-1.2,3.3-3.8,3.3c-2,0-3.6-1.2-3.6-4.4c0-2.9,1.7-4.7,4-4.7c2.8,0,3.2,2.4,3.2,3.5
			l-5.8,0.4c0,0.2,0,0.5,0,0.7c0,1.5,0.8,3.4,2.7,3.4c1.8,0,2.4-1.6,2.7-2.5L292.6,506.7z M290.1,503.9c0.3,0,0.9-0.2,0.9-0.7
			c0-0.8-0.7-1.7-1.7-1.7c-2.2,0-2.5,2-2.6,2.8L290.1,503.9z"/>
		<path fill="#4C3D2A" d="M302.2,509.8c-0.3,0-0.6,0-0.9-0.1c-0.3,0-0.6,0-0.9,0c-0.5,0-0.9,0-1.4,0.3c0.1-0.6,0.2-1.3,0.2-1.8
			c-0.8,0.7-1.8,1.8-3.3,1.8c-1,0-2-0.8-2-2.1c0-1.7,1.6-2.2,2.6-2.5l2.1-0.6c0.6-0.2,0.6-0.6,0.6-1.6c0-1.1-0.4-1.5-1.3-1.5
			c-1,0-2.1,0.4-2.1,1c0,0.2,0.2,0.5,0.3,0.5c0.1,0,0.2,0,0.3,0c0,0.5-0.3,1.2-1,1.2c-0.5,0-0.9-0.4-0.9-0.9c0-1.8,2.8-2.5,4.2-2.5
			c1.6,0,1.9,1,1.9,2.1v5c0,1.3,0.8,1.2,1.6,1.3V509.8z M297.9,505.5c-1.3,0.4-2.3,0.7-2.3,2c0,0.9,0.6,1.4,1.2,1.4
			c1,0,2.6-0.9,2.6-2v-1.8L297.9,505.5z"/>
		<path fill="#4C3D2A" d="M308.5,503.9c-0.3-0.9-0.8-2.4-2.4-2.4c-1.1,0-1.6,0.5-1.6,1.3c0,2.1,5.1,1.3,5.1,4.6
			c0,1.3-1.1,2.6-2.9,2.6c-1.3,0-1.8-0.5-2.7-0.5c-0.2,0-0.5,0.1-0.7,0.3c0-0.3,0.1-0.7,0.1-1.2c0-0.7,0-1.3-0.1-2.1h0.4
			c0.2,1.1,0.6,2.9,2.8,2.9c1,0,1.9-0.6,1.9-1.5c0-2.2-5-1.4-5-4.5c0-1.3,0.9-2.5,2.8-2.5c0.9,0,1.7,0.4,2.1,0.4
			c0.2,0,0.4-0.2,0.6-0.3c0,0.3,0,0.6,0,0.9c0,0.4,0,1.2,0.1,2H308.5z"/>
	</g>
</g>
<g>
</g>
<g>
</g>
<g>
</g>
<g>
</g>
<g>
</g>
<g>
</g>
<g>
</g>
<g>
</g>
</svg>
