<?xml version="1.0" encoding="utf-8"?>
<!-- Generator: Adobe Illustrator 19.2.1, SVG Export Plug-In . SVG Version: 6.00 Build 0)  -->
<!DOCTYPE svg PUBLIC "-//W3C//DTD SVG 1.1//EN" "http://www.w3.org/Graphics/SVG/1.1/DTD/svg11.dtd">
<svg version="1.1" id="Layer_1" xmlns="http://www.w3.org/2000/svg" xmlns:xlink="http://www.w3.org/1999/xlink" x="0px" y="0px"
	 width="792px" height="456.9px" viewBox="0 0 792 456.9" enable-background="new 0 0 792 456.9" xml:space="preserve">
<g>
	<circle fill="#FF5959" cx="388.8" cy="253.4" r="247.6"/>
	<circle fill="#5BB1E3" cx="388.8" cy="253.5" r="225.9"/>
	<circle fill="#4C3D2A" cx="392.9" cy="225.6" r="14.1"/>
	<path fill="#D6E7F7" d="M678.5,461.7H84.3c-6.6,0-12-5.4-12-12V338c0-6.6,5.4-12,12-12h594.2c6.6,0,12,5.4,12,12v111.6
		C690.5,456.3,685.1,461.7,678.5,461.7z"/>
	<path fill="#FFCA61" d="M283.3,155c0,0,12.5,1.4,7.8,5.1l2.7,8.1l-2,2c0,0,5.4,38.9,4.1,45.4c0,0,9.1,9.1,9.1,13.2v78.9
		c0,0-8.1,11.5-21.7,9.5"/>
	<path fill="#FFCA61" d="M285,155c0,0-12.5,1.4-7.8,5.1l-2.7,8.1l2,2c0,0-5.4,38.9-4.1,45.4c0,0-9.1,9.1-9.1,13.2v78.9
		c0,0,8.1,11.5,21.7,9.5"/>
	<path fill="#665237" d="M428.9,229.1c0,0-8.9,68.4,55.3,70v-70"/>
	<path fill="#665237" d="M536.2,229.1c0,0,8.9,68.4-55.3,70v-70"/>
	<path fill="none" stroke="#665237" stroke-width="4" stroke-miterlimit="10" d="M535.9,236.5c0,0,66.1-9-8.4,34.6"/>
	<g>
		<rect x="428.5" y="363.9" fill="none" width="363.5" height="91.6"/>
		<path fill="#4C3D2A" d="M441.3,374.2c-0.7,3-2.7,5-5.8,5c-3.8,0-6.1-3-6.1-7.2c0-4,2.4-7,6.4-7c1.7,0,3.1,0.7,3.8,0.7
			c0.4,0,0.7-0.2,1-0.5c0,0.5-0.1,1.5-0.1,2.3c0,0.6,0.1,1.6,0.1,2.1h-0.5c-0.3-1.3-1.1-3.8-4-3.8c-3.4,0-4.7,2.8-4.7,6.2
			c0,2.7,1.3,5.9,4.6,5.9c3.4,0,4.2-2.4,4.7-3.6H441.3z"/>
		<path fill="#4C3D2A" d="M447,379.2c-2.8,0-4.5-2.2-4.5-4.9s1.7-4.9,4.5-4.9s4.5,2.2,4.5,4.9S449.7,379.2,447,379.2z M449.6,374.3
			c0-2.4-0.7-4.3-2.7-4.3c-1.9,0-2.7,1.8-2.7,4.3s0.7,4.2,2.7,4.2C448.9,378.5,449.6,376.7,449.6,374.3z"/>
		<path fill="#4C3D2A" d="M458.3,378.9c-0.9,0-2.1-0.1-2.9-0.1c-0.8,0-1.8,0.1-2.6,0.1v-0.5c1.8-0.2,1.8-0.5,1.8-2.7v-5.1h-1.8v-0.5
			c1.4-0.2,1.8-0.7,1.8-1.7c0-1.6,0.5-4.2,3.8-4.2c1,0,2.1,0.6,2.1,1.5c0,0.9-0.4,1.2-1,1.2c-0.6,0-0.8-0.3-1-0.9
			c0.3,0,0.5-0.2,0.5-0.6c0-0.4-0.5-0.7-1-0.7c-1.5,0-1.9,1.3-1.9,2.8v2.1l2.7-0.2v1H456v5.1c0,2.2,0,2.5,2.3,2.7V378.9z"/>
		<path fill="#4C3D2A" d="M465.1,378.9c-0.9,0-2.1-0.1-2.9-0.1c-0.8,0-1.8,0.1-2.6,0.1v-0.5c1.8-0.2,1.8-0.5,1.8-2.7v-5.1h-1.8v-0.5
			c1.4-0.2,1.8-0.7,1.8-1.7c0-1.6,0.5-4.2,3.8-4.2c1,0,2.1,0.6,2.1,1.5c0,0.9-0.4,1.2-1,1.2c-0.6,0-0.8-0.3-1-0.9
			c0.3,0,0.5-0.2,0.5-0.6c0-0.4-0.5-0.7-1-0.7c-1.5,0-1.9,1.3-1.9,2.8v2.1l2.7-0.2v1h-2.7v5.1c0,2.2,0,2.5,2.3,2.7V378.9z"/>
		<path fill="#4C3D2A" d="M474.5,375.6c-0.3,1.3-1.3,3.6-4.1,3.6c-2.2,0-3.8-1.2-3.8-4.7c0-3.1,1.8-5.1,4.3-5.1c3,0,3.4,2.5,3.4,3.8
			l-6.2,0.4c0,0.2,0,0.5,0,0.8c0,1.6,0.8,3.7,2.9,3.7c2,0,2.5-1.7,2.9-2.7L474.5,375.6z M471.8,372.6c0.3,0,1-0.2,1-0.7
			c0-0.8-0.8-1.8-1.8-1.8c-2.4,0-2.7,2.2-2.8,3L471.8,372.6z"/>
		<path fill="#4C3D2A" d="M484,375.6c-0.3,1.3-1.3,3.6-4.1,3.6c-2.2,0-3.8-1.2-3.8-4.7c0-3.1,1.8-5.1,4.3-5.1c3,0,3.4,2.5,3.4,3.8
			l-6.2,0.4c0,0.2,0,0.5,0,0.8c0,1.6,0.8,3.7,2.9,3.7c2,0,2.5-1.7,2.9-2.7L484,375.6z M481.2,372.6c0.3,0,1-0.2,1-0.7
			c0-0.8-0.8-1.8-1.8-1.8c-2.4,0-2.7,2.2-2.8,3L481.2,372.6z"/>
		<path fill="#4C3D2A" d="M495.7,378.9c-0.8,0-1.8-0.1-2.4-0.1c-0.8,0-1.8,0.1-2.6,0.1v-0.5c1.8-0.2,1.8-0.5,1.8-2.7v-2.8
			c0-1.9-0.3-2-2.2-2v-0.5c1.6-0.1,2.9-0.5,3.8-1.4c0,1.1-0.1,1.9-0.1,3.8v2.8c0,2.2,0,2.5,1.8,2.7V378.9z M492.8,366.9
			c-0.7,0-1.2-0.5-1.2-1.2c0-0.7,0.5-1.2,1.2-1.2c0.6,0,1.2,0.5,1.2,1.2C494,366.4,493.5,366.9,492.8,366.9z"/>
		<path fill="#4C3D2A" d="M502.5,372.6c-0.3-0.9-0.8-2.5-2.6-2.5c-1.1,0-1.8,0.5-1.8,1.4c0,2.3,5.5,1.4,5.5,5c0,1.4-1.2,2.8-3.1,2.8
			c-1.3,0-1.9-0.5-2.9-0.5c-0.3,0-0.5,0.1-0.7,0.3c0-0.3,0.1-0.7,0.1-1.3c0-0.8,0-1.4-0.1-2.2h0.5c0.2,1.2,0.7,3.1,3,3.1
			c1.1,0,2-0.6,2-1.6c0-2.3-5.4-1.5-5.4-4.8c0-1.4,1-2.6,3-2.6c1,0,1.8,0.4,2.3,0.4c0.2,0,0.4-0.2,0.7-0.3c0,0.3,0,0.6,0,0.9
			c0,0.4,0,1.2,0.1,2.1H502.5z"/>
		<path fill="#4C3D2A" d="M516.8,377.6c0.4,0,1.8,0.5,1.8,1.9c0,2.3-2.6,3.6-5.3,3.6c-2.4,0-3.2-1.1-3.2-2.1c0-1.4,1.2-1.9,2.3-2.5
			c-0.6-0.2-1.6-0.5-1.6-1.2c0-1.1,0.8-1.2,1.8-1.7c-0.7-0.3-1.9-0.9-1.9-2.8c0-2,1.2-3.3,3.5-3.3c0.2,0,0.5,0,0.7,0
			c0.4-0.8,1.3-2.2,2.7-2.2c0.6,0,1.1,0.3,1.1,1c0,0.6-0.4,0.9-0.9,0.9c-0.2,0-0.4,0-0.5-0.1c0.1-0.1,0.2-0.2,0.2-0.4
			c0-0.2-0.1-0.4-0.5-0.4c-0.8,0-1.3,0.9-1.5,1.2c0.5,0.1,2.1,0.8,2.1,3c0,2.2-1.6,3.3-3.3,3.3h-0.8c-0.7,0-1.5,0.4-1.5,0.9
			c0,0.5,0.9,0.6,1.9,0.6L516.8,377.6z M513.9,378.7c-0.3,0-0.6-0.1-0.9-0.2c-0.7,0.5-1.6,1.1-1.6,2.1c0,1,1,1.5,2.6,1.5
			c1.8,0,3.6-0.9,3.6-2.1c0-0.8-1-1.1-2-1.1L513.9,378.7z M515.9,372.4c0-1.2-0.5-2.5-1.8-2.5c-1.3,0-1.9,1.3-1.9,2.7
			c0,1.4,0.5,2.5,1.8,2.5C515.5,375.1,515.9,374,515.9,372.4z"/>
		<path fill="#4C3D2A" d="M524.3,379.2c-2.8,0-4.5-2.2-4.5-4.9s1.7-4.9,4.5-4.9s4.5,2.2,4.5,4.9S527,379.2,524.3,379.2z
			 M526.9,374.3c0-2.4-0.7-4.3-2.7-4.3c-1.9,0-2.7,1.8-2.7,4.3s0.7,4.2,2.7,4.2C526.2,378.5,526.9,376.7,526.9,374.3z"/>
		<path fill="#4C3D2A" d="M534.9,379.2c-2.8,0-4.5-2.2-4.5-4.9s1.7-4.9,4.5-4.9s4.5,2.2,4.5,4.9S537.6,379.2,534.9,379.2z
			 M537.5,374.3c0-2.4-0.7-4.3-2.7-4.3c-1.9,0-2.7,1.8-2.7,4.3s0.7,4.2,2.7,4.2C536.8,378.5,537.5,376.7,537.5,374.3z"/>
		<path fill="#4C3D2A" d="M550.8,378.9c-0.3,0-0.6,0-0.9-0.1c-0.3,0-0.6,0-0.9,0c-0.6,0-1.2,0.1-1.6,0.4c0-0.5,0.1-1.3,0.1-2
			c-1.2,1-2.1,2-3.7,2c-1.8,0-2.9-1.8-2.9-4.1c0-3.6,1.7-5.7,4.2-5.7c1.3,0,1.8,0.4,2.4,0.7v-1.9c0-2.4,0-2.8-2.3-2.8V365
			c1.5,0,2.9-0.3,4-1.1c0,0.7-0.1,2.9-0.1,4.3v7.5c0,2.2,0,2.5,1.8,2.7V378.9z M547.6,373c0-1.7-0.4-3-2.1-3c-2.1,0-2.8,2.1-2.8,4.6
			c0,2.1,0.7,3.4,2.2,3.4c1.8,0,2.7-1.8,2.7-2.7V373z"/>
		<path fill="#4C3D2A" d="M562.1,378.9c-0.8,0-1.8-0.1-2.4-0.1c-0.8,0-1.8,0.1-2.6,0.1v-0.5c1.8-0.2,1.8-0.5,1.8-2.7v-2.8
			c0-1.9-0.3-2-2.2-2v-0.5c1.6-0.1,2.9-0.5,3.8-1.4c0,1.1-0.1,1.9-0.1,3.8v2.8c0,2.2,0,2.5,1.8,2.7V378.9z M559.2,366.9
			c-0.7,0-1.2-0.5-1.2-1.2c0-0.7,0.5-1.2,1.2-1.2c0.6,0,1.2,0.5,1.2,1.2C560.4,366.4,559.9,366.9,559.2,366.9z"/>
		<path fill="#4C3D2A" d="M568.4,378.9c-0.9,0-2.1-0.1-2.9-0.1c-0.8,0-1.8,0.1-2.6,0.1v-0.5c1.8-0.2,1.8-0.5,1.8-2.7v-5.1h-1.8v-0.5
			c1.4-0.2,1.8-0.7,1.8-1.7c0-1.6,0.5-4.2,3.8-4.2c1,0,2.1,0.6,2.1,1.5c0,0.9-0.4,1.2-1,1.2c-0.6,0-0.8-0.3-1-0.9
			c0.3,0,0.5-0.2,0.5-0.6c0-0.4-0.5-0.7-1-0.7c-1.5,0-1.9,1.3-1.9,2.8v2.1l2.7-0.2v1h-2.7v5.1c0,2.2,0,2.5,2.3,2.7V378.9z"/>
		<path fill="#4C3D2A" d="M579.1,381.4c-0.1,0.2-1.1,1.9-3,1.9c-0.9,0-1.6-0.6-1.6-1.3c0-0.8,0.5-1.1,1.1-1.1c0.5,0,0.6,0.2,0.9,0.3
			c-0.2,0.2-0.4,0.3-0.4,0.6c0,0.4,0.3,0.6,0.7,0.6c1.2,0,2.5-2.3,2.5-3.2c0-0.6-0.3-1.3-0.5-1.9l-2.1-5.4c-0.5-1.3-0.6-1.8-2-1.8
			v-0.5c0.3,0,1.9,0.1,2.4,0.1c0.7,0,2.1-0.1,2.5-0.1v0.5c-0.6,0-1.6,0-1.6,0.7c0,0.4,0.1,0.5,0.3,1l2.1,5.5l1.9-5
			c0.1-0.3,0.3-0.8,0.3-1.3c0-0.8-1-0.8-1.8-0.8v-0.5c0.4,0,1.6,0.1,2.5,0.1c0.5,0,1.7-0.1,1.9-0.1v0.5c-1,0.1-1.1,0-1.9,1.8
			l-3.2,7.6L579.1,381.4z"/>
		<path fill="#4C3D2A" d="M589.9,379.2c-2.8,0-4.5-2.2-4.5-4.9s1.7-4.9,4.5-4.9s4.5,2.2,4.5,4.9S592.7,379.2,589.9,379.2z
			 M592.6,374.3c0-2.4-0.7-4.3-2.7-4.3c-1.9,0-2.7,1.8-2.7,4.3s0.7,4.2,2.7,4.2C591.9,378.5,592.6,376.7,592.6,374.3z"/>
		<path fill="#4C3D2A" d="M606.6,378.9c-0.3,0-0.6,0-0.9-0.1c-0.3,0-0.6,0-0.9,0c-0.6,0-1,0-1.5,0.4c0.1-0.7,0.2-1.4,0.2-1.9
			c-1,0.9-2.4,1.9-4.4,1.9c-1.5,0-1.7-1.2-1.7-2.3v-3.9c0-1.9-0.3-2-2-2v-0.5c1.5-0.1,2.7-0.5,3.6-1.4c0,1.1-0.1,1.9-0.1,3.8v3.2
			c0,0.9,0,1.9,1.4,1.9c1.6,0,3.1-1,3.1-2v-3.1c0-1.9-0.3-2-2-2v-0.5c1.5-0.1,2.7-0.5,3.6-1.4c0,1.1-0.1,1.9-0.1,3.8v4.1
			c0,1.4,0.8,1.3,1.7,1.4V378.9z"/>
		<path fill="#4C3D2A" d="M608.3,370.4c0.7-0.6,1.8-1.6,1.8-2.7c0-0.4-0.2-0.8-0.6-0.8c-0.3,0-0.5,0.2-0.6,0.4
			c-0.3-0.3-0.6-0.6-0.6-1c0-0.8,0.5-1.3,1.3-1.3c0.9,0,1.5,0.9,1.5,2c0,2.1-1.6,3.2-2.4,3.9L608.3,370.4z"/>
		<path fill="#4C3D2A" d="M618.6,376.6c-0.1,0.3-0.8,1.7-0.9,2.6l-0.9-0.2c-0.1-0.8-0.3-1.6-0.9-3l-1.4-3.5
			c-0.8-1.9-0.6-2.1-2.2-2.3v-0.5c0.4,0,1.4,0.1,2.4,0.1c1,0,2.1-0.1,2.5-0.1v0.5c-0.8,0-1.5,0-1.6,0.7c0,0.5,0.2,0.8,0.4,1.4
			l1.9,4.8l1.7-4c0.3-0.7,0.7-1.5,0.7-2c-0.1-0.8-1.1-0.8-1.8-0.8v-0.5c0.5,0,1.5,0.1,2.3,0.1c0.7,0,1.7-0.1,2-0.1v0.5
			c-1,0.2-1.1,0.4-1.8,1.7L618.6,376.6z"/>
		<path fill="#4C3D2A" d="M631.1,375.6c-0.3,1.3-1.3,3.6-4.1,3.6c-2.2,0-3.8-1.2-3.8-4.7c0-3.1,1.8-5.1,4.3-5.1c3,0,3.4,2.5,3.4,3.8
			l-6.2,0.4c0,0.2,0,0.5,0,0.8c0,1.6,0.8,3.7,2.9,3.7c2,0,2.5-1.7,2.9-2.7L631.1,375.6z M628.4,372.6c0.3,0,1-0.2,1-0.7
			c0-0.8-0.8-1.8-1.8-1.8c-2.4,0-2.7,2.2-2.8,3L628.4,372.6z"/>
		<path fill="#4C3D2A" d="M644.3,377.6c0.4,0,1.8,0.5,1.8,1.9c0,2.3-2.6,3.6-5.3,3.6c-2.4,0-3.2-1.1-3.2-2.1c0-1.4,1.2-1.9,2.3-2.5
			c-0.6-0.2-1.6-0.5-1.6-1.2c0-1.1,0.8-1.2,1.8-1.7c-0.7-0.3-1.9-0.9-1.9-2.8c0-2,1.2-3.3,3.5-3.3c0.2,0,0.5,0,0.7,0
			c0.4-0.8,1.3-2.2,2.7-2.2c0.6,0,1.1,0.3,1.1,1c0,0.6-0.4,0.9-0.9,0.9c-0.2,0-0.4,0-0.5-0.1c0.1-0.1,0.2-0.2,0.2-0.4
			c0-0.2-0.1-0.4-0.5-0.4c-0.8,0-1.3,0.9-1.5,1.2c0.5,0.1,2.1,0.8,2.1,3c0,2.2-1.6,3.3-3.3,3.3h-0.8c-0.7,0-1.5,0.4-1.5,0.9
			c0,0.5,0.9,0.6,1.9,0.6L644.3,377.6z M641.5,378.7c-0.3,0-0.6-0.1-0.9-0.2c-0.7,0.5-1.6,1.1-1.6,2.1c0,1,1,1.5,2.6,1.5
			c1.8,0,3.6-0.9,3.6-2.1c0-0.8-1-1.1-2-1.1L641.5,378.7z M643.5,372.4c0-1.2-0.5-2.5-1.8-2.5c-1.3,0-1.9,1.3-1.9,2.7
			c0,1.4,0.5,2.5,1.8,2.5C643,375.1,643.5,374,643.5,372.4z"/>
		<path fill="#4C3D2A" d="M651.8,379.2c-2.8,0-4.5-2.2-4.5-4.9s1.7-4.9,4.5-4.9s4.5,2.2,4.5,4.9S654.6,379.2,651.8,379.2z
			 M654.5,374.3c0-2.4-0.7-4.3-2.7-4.3c-1.9,0-2.7,1.8-2.7,4.3s0.7,4.2,2.7,4.2C653.8,378.5,654.5,376.7,654.5,374.3z"/>
		<path fill="#4C3D2A" d="M664,377.8c-0.9,0.6-2,1.3-3.3,1.3c-1.2,0-1.3-1.2-1.3-2.6v-5.9h-1.7V370c1.8-0.2,2.1-1.2,2.6-3.4h0.6
			c0,0.7-0.1,2.3-0.1,3.1l2.9-0.2v1h-2.9v4.9c0,2.3,0.2,2.6,1.1,2.6c0.7,0,1.3-0.3,1.9-0.7L664,377.8z"/>
		<path fill="#4C3D2A" d="M678.8,378.9c-0.3,0-0.6,0-0.9-0.1c-0.3,0-0.6,0-0.9,0c-0.6,0-1,0-1.5,0.4c0.1-0.7,0.2-1.4,0.2-1.9
			c-0.8,0.8-1.9,1.9-3.5,1.9c-1.1,0-2.1-0.9-2.1-2.3c0-1.9,1.8-2.4,2.8-2.7l2.2-0.7c0.6-0.2,0.6-0.6,0.6-1.7c0-1.2-0.4-1.6-1.4-1.6
			c-1.1,0-2.2,0.4-2.2,1c0,0.2,0.2,0.5,0.4,0.5c0.1,0,0.2,0,0.3,0c0,0.5-0.3,1.3-1.1,1.3c-0.5,0-1-0.4-1-1c0-1.9,3-2.7,4.5-2.7
			c1.7,0,2,1.1,2,2.3v5.4c0,1.4,0.8,1.3,1.7,1.4V378.9z M674.1,374.4c-1.4,0.4-2.5,0.8-2.5,2.2c0,0.9,0.7,1.5,1.3,1.5
			c1,0,2.8-1,2.8-2.2v-1.9L674.1,374.4z"/>
		<path fill="#4C3D2A" d="M690.9,378.9c-0.8,0-1.8-0.1-2.4-0.1c-0.8,0-1.8,0.1-2.6,0.1v-0.5c1.8-0.2,1.8-0.5,1.8-2.7v-3.4
			c0-0.9,0-1.9-1.4-1.9c-2,0-3.1,1.4-3.1,2.6v2.6c0,2.2,0,2.5,1.8,2.7v0.5c-0.8,0-1.8-0.1-2.4-0.1c-0.8,0-1.8,0.1-2.6,0.1v-0.5
			c1.8-0.2,1.8-0.5,1.8-2.7v-2.8c0-1.9-0.3-2-2.2-2v-0.5c1.6-0.1,2.9-0.5,3.8-1.4c0,0.6-0.1,1.1-0.1,2.2c1-0.9,2.4-2,4.4-2
			c1.5,0,1.6,1.2,1.6,2.3v4c0,2.2,0,2.5,1.8,2.7V378.9z"/>
		<path fill="#4C3D2A" d="M702.1,378.9c-0.8,0-1.8-0.1-2.4-0.1c-0.8,0-1.8,0.1-2.6,0.1v-0.5c1.8-0.2,1.8-0.5,1.8-2.7v-2.8
			c0-1.9-0.3-2-2.2-2v-0.5c1.6-0.1,2.9-0.5,3.8-1.4c0,1.1-0.1,1.9-0.1,3.8v2.8c0,2.2,0,2.5,1.8,2.7V378.9z M699.2,366.9
			c-0.7,0-1.2-0.5-1.2-1.2c0-0.7,0.5-1.2,1.2-1.2c0.6,0,1.2,0.5,1.2,1.2C700.4,366.4,699.9,366.9,699.2,366.9z"/>
		<path fill="#4C3D2A" d="M713.1,378.9c-0.3,0-0.6,0-0.9-0.1c-0.3,0-0.6,0-0.9,0c-0.6,0-1.2,0.1-1.6,0.4c0-0.5,0.1-1.3,0.1-2
			c-1.2,1-2.1,2-3.7,2c-1.8,0-2.9-1.8-2.9-4.1c0-3.6,1.7-5.7,4.2-5.7c1.3,0,1.8,0.4,2.4,0.7v-1.9c0-2.4,0-2.8-2.3-2.8V365
			c1.5,0,2.9-0.3,4-1.1c0,0.7-0.1,2.9-0.1,4.3v7.5c0,2.2,0,2.5,1.8,2.7V378.9z M709.8,373c0-1.7-0.4-3-2.1-3c-2.1,0-2.8,2.1-2.8,4.6
			c0,2.1,0.7,3.4,2.2,3.4c1.8,0,2.7-1.8,2.7-2.7V373z"/>
		<path fill="#4C3D2A" d="M722,375.6c-0.3,1.3-1.3,3.6-4.1,3.6c-2.2,0-3.8-1.2-3.8-4.7c0-3.1,1.8-5.1,4.3-5.1c3,0,3.4,2.5,3.4,3.8
			l-6.2,0.4c0,0.2,0,0.5,0,0.8c0,1.6,0.8,3.7,2.9,3.7c2,0,2.5-1.7,2.9-2.7L722,375.6z M719.3,372.6c0.3,0,1-0.2,1-0.7
			c0-0.8-0.8-1.8-1.8-1.8c-2.4,0-2.7,2.2-2.8,3L719.3,372.6z"/>
		<path fill="#4C3D2A" d="M732.4,378.9c-0.3,0-0.6,0-0.9-0.1c-0.3,0-0.6,0-0.9,0c-0.6,0-1,0-1.5,0.4c0.1-0.7,0.2-1.4,0.2-1.9
			c-0.8,0.8-1.9,1.9-3.5,1.9c-1.1,0-2.1-0.9-2.1-2.3c0-1.9,1.8-2.4,2.8-2.7l2.2-0.7c0.6-0.2,0.6-0.6,0.6-1.7c0-1.2-0.4-1.6-1.4-1.6
			c-1.1,0-2.2,0.4-2.2,1c0,0.2,0.2,0.5,0.4,0.5c0.1,0,0.2,0,0.3,0c0,0.5-0.3,1.3-1.1,1.3c-0.5,0-1-0.4-1-1c0-1.9,3-2.7,4.5-2.7
			c1.7,0,2,1.1,2,2.3v5.4c0,1.4,0.8,1.3,1.7,1.4V378.9z M727.7,374.4c-1.4,0.4-2.5,0.8-2.5,2.2c0,0.9,0.7,1.5,1.3,1.5
			c1,0,2.8-1,2.8-2.2v-1.9L727.7,374.4z"/>
		<path fill="#4C3D2A" d="M747.4,378.9c-0.3,0-0.6,0-0.9-0.1c-0.3,0-0.6,0-0.9,0c-0.6,0-1,0-1.5,0.4c0.1-0.7,0.2-1.4,0.2-1.9
			c-0.8,0.8-1.9,1.9-3.5,1.9c-1.1,0-2.1-0.9-2.1-2.3c0-1.9,1.8-2.4,2.8-2.7l2.2-0.7c0.6-0.2,0.6-0.6,0.6-1.7c0-1.2-0.4-1.6-1.4-1.6
			c-1.1,0-2.2,0.4-2.2,1c0,0.2,0.2,0.5,0.4,0.5c0.1,0,0.2,0,0.3,0c0,0.5-0.3,1.3-1.1,1.3c-0.5,0-1-0.4-1-1c0-1.9,3-2.7,4.5-2.7
			c1.7,0,2,1.1,2,2.3v5.4c0,1.4,0.8,1.3,1.7,1.4V378.9z M742.7,374.4c-1.4,0.4-2.5,0.8-2.5,2.2c0,0.9,0.7,1.5,1.3,1.5
			c1,0,2.8-1,2.8-2.2v-1.9L742.7,374.4z"/>
		<path fill="#4C3D2A" d="M759.5,378.9c-0.8,0-1.8-0.1-2.4-0.1c-0.8,0-1.8,0.1-2.6,0.1v-0.5c1.8-0.2,1.8-0.5,1.8-2.7v-3.4
			c0-0.9,0-1.9-1.4-1.9c-2,0-3.1,1.4-3.1,2.6v2.6c0,2.2,0,2.5,1.8,2.7v0.5c-0.8,0-1.8-0.1-2.4-0.1c-0.8,0-1.8,0.1-2.6,0.1v-0.5
			c1.8-0.2,1.8-0.5,1.8-2.7v-2.8c0-1.9-0.3-2-2.2-2v-0.5c1.6-0.1,2.9-0.5,3.8-1.4c0,0.6-0.1,1.1-0.1,2.2c1-0.9,2.4-2,4.4-2
			c1.5,0,1.6,1.2,1.6,2.3v4c0,2.2,0,2.5,1.8,2.7V378.9z"/>
		<path fill="#4C3D2A" d="M770.4,378.9c-0.3,0-0.6,0-0.9-0.1c-0.3,0-0.6,0-0.9,0c-0.6,0-1.2,0.1-1.6,0.4c0-0.5,0.1-1.3,0.1-2
			c-1.2,1-2.1,2-3.7,2c-1.8,0-2.9-1.8-2.9-4.1c0-3.6,1.7-5.7,4.2-5.7c1.3,0,1.8,0.4,2.4,0.7v-1.9c0-2.4,0-2.8-2.3-2.8V365
			c1.5,0,2.9-0.3,4-1.1c0,0.7-0.1,2.9-0.1,4.3v7.5c0,2.2,0,2.5,1.8,2.7V378.9z M767.2,373c0-1.7-0.4-3-2.1-3c-2.1,0-2.8,2.1-2.8,4.6
			c0,2.1,0.7,3.4,2.2,3.4c1.8,0,2.7-1.8,2.7-2.7V373z"/>
		<path fill="#4C3D2A" d="M433.1,405.8c-0.1,0.2-1.1,1.9-3,1.9c-0.9,0-1.6-0.6-1.6-1.3c0-0.8,0.5-1.1,1.1-1.1c0.5,0,0.6,0.2,0.9,0.3
			c-0.2,0.2-0.4,0.3-0.4,0.6c0,0.4,0.3,0.6,0.7,0.6c1.2,0,2.5-2.3,2.5-3.2c0-0.6-0.3-1.3-0.5-1.9l-2.1-5.4c-0.5-1.3-0.6-1.8-2-1.8
			v-0.5c0.3,0,1.9,0.1,2.4,0.1c0.7,0,2.1-0.1,2.5-0.1v0.5c-0.6,0-1.6,0-1.6,0.7c0,0.4,0.1,0.5,0.3,1l2.1,5.5l1.9-5
			c0.1-0.3,0.3-0.8,0.3-1.3c0-0.8-1-0.8-1.8-0.8v-0.5c0.4,0,1.6,0.1,2.5,0.1c0.5,0,1.7-0.1,1.9-0.1v0.5c-1,0.1-1.1,0-1.9,1.8
			l-3.2,7.6L433.1,405.8z"/>
		<path fill="#4C3D2A" d="M444,403.6c-2.8,0-4.5-2.2-4.5-4.9s1.7-4.9,4.5-4.9s4.5,2.2,4.5,4.9S446.7,403.6,444,403.6z M446.6,398.7
			c0-2.4-0.7-4.3-2.7-4.3c-1.9,0-2.7,1.8-2.7,4.3s0.7,4.2,2.7,4.2C445.9,402.9,446.6,401.2,446.6,398.7z"/>
		<path fill="#4C3D2A" d="M460.6,403.3c-0.3,0-0.6,0-0.9-0.1c-0.3,0-0.6,0-0.9,0c-0.6,0-1,0-1.5,0.4c0.1-0.7,0.2-1.4,0.2-1.9
			c-1,0.9-2.4,1.9-4.4,1.9c-1.5,0-1.7-1.2-1.7-2.3v-3.9c0-1.9-0.3-2-2-2v-0.5c1.5-0.1,2.7-0.5,3.6-1.4c0,1.1-0.1,1.9-0.1,3.8v3.2
			c0,0.9,0,1.9,1.4,1.9c1.6,0,3.1-1,3.1-2v-3.1c0-1.9-0.3-2-2-2v-0.5c1.5-0.1,2.7-0.5,3.6-1.4c0,1.1-0.1,1.9-0.1,3.8v4.1
			c0,1.4,0.8,1.3,1.7,1.4V403.3z"/>
		<path fill="#4C3D2A" d="M470.6,403.2c0,2.3-1.6,4-3.9,4c-0.9,0-1.9-0.3-1.9-1.2c0-0.5,0.4-0.9,1.1-0.9c0.2,0,0.4,0.1,0.7,0.2
			c-0.1,0.1-0.2,0.3-0.2,0.5c0,0.4,0.3,0.6,0.9,0.6c1.8,0,1.8-2.4,1.8-4.7v-4.4c0-1.9-0.4-2-2.2-2v-0.5c1.6-0.1,2.9-0.5,3.8-1.4
			c0,1.1-0.1,1.9-0.1,3.8V403.2z M469.5,391.3c-0.7,0-1.2-0.5-1.2-1.2c0-0.7,0.5-1.2,1.2-1.2c0.6,0,1.2,0.5,1.2,1.2
			C470.7,390.8,470.1,391.3,469.5,391.3z"/>
		<path fill="#4C3D2A" d="M483.6,403.3c-0.3,0-0.6,0-0.9-0.1c-0.3,0-0.6,0-0.9,0c-0.6,0-1,0-1.5,0.4c0.1-0.7,0.2-1.4,0.2-1.9
			c-1,0.9-2.4,1.9-4.4,1.9c-1.5,0-1.7-1.2-1.7-2.3v-3.9c0-1.9-0.3-2-2-2v-0.5c1.5-0.1,2.7-0.5,3.6-1.4c0,1.1-0.1,1.9-0.1,3.8v3.2
			c0,0.9,0,1.9,1.4,1.9c1.6,0,3.1-1,3.1-2v-3.1c0-1.9-0.3-2-2-2v-0.5c1.5-0.1,2.7-0.5,3.6-1.4c0,1.1-0.1,1.9-0.1,3.8v4.1
			c0,1.4,0.8,1.3,1.7,1.4V403.3z"/>
		<path fill="#4C3D2A" d="M490.4,397c-0.3-0.9-0.8-2.5-2.6-2.5c-1.1,0-1.8,0.5-1.8,1.4c0,2.3,5.5,1.4,5.5,5c0,1.4-1.2,2.8-3.1,2.8
			c-1.3,0-1.9-0.5-2.9-0.5c-0.3,0-0.5,0.1-0.7,0.3c0-0.3,0.1-0.7,0.1-1.3c0-0.8,0-1.4-0.1-2.2h0.5c0.2,1.2,0.7,3.1,3,3.1
			c1.1,0,2-0.6,2-1.6c0-2.3-5.4-1.5-5.4-4.8c0-1.4,1-2.6,3-2.6c1,0,1.8,0.4,2.3,0.4c0.2,0,0.4-0.2,0.7-0.3c0,0.3,0,0.6,0,0.9
			c0,0.4,0,1.2,0.1,2.1H490.4z"/>
		<path fill="#4C3D2A" d="M499.1,402.3c-0.9,0.6-2,1.3-3.3,1.3c-1.2,0-1.3-1.2-1.3-2.6V395h-1.7v-0.5c1.8-0.2,2.1-1.2,2.6-3.4h0.6
			c0,0.7-0.1,2.3-0.1,3.1l2.9-0.2v1H496v4.9c0,2.3,0.2,2.6,1.1,2.6c0.7,0,1.3-0.3,1.9-0.7L499.1,402.3z"/>
		<path fill="#4C3D2A" d="M516.2,403.3c-0.8,0-1.8-0.1-2.4-0.1c-0.8,0-1.8,0.1-2.6,0.1v-0.5c1.8-0.2,1.8-0.5,1.8-2.7v-3.4
			c0-0.9,0-1.9-1.4-1.9c-2,0-3.1,1.4-3.1,2.6v2.6c0,2.2,0,2.5,1.8,2.7v0.5c-0.8,0-1.8-0.1-2.4-0.1c-0.8,0-1.8,0.1-2.6,0.1v-0.5
			c1.8-0.2,1.8-0.5,1.8-2.7v-2.8c0-1.9-0.3-2-2.2-2v-0.5c1.6-0.1,2.9-0.5,3.8-1.4c0,0.6-0.1,1.1-0.1,2.2c1-0.9,2.4-2,4.4-2
			c1.5,0,1.6,1.2,1.6,2.3v4c0,2.2,0,2.5,1.8,2.7V403.3z"/>
		<path fill="#4C3D2A" d="M525.1,400c-0.3,1.3-1.3,3.6-4.1,3.6c-2.2,0-3.8-1.2-3.8-4.7c0-3.1,1.8-5.1,4.3-5.1c3,0,3.4,2.5,3.4,3.8
			l-6.2,0.4c0,0.2,0,0.5,0,0.8c0,1.6,0.8,3.7,2.9,3.7c2,0,2.5-1.7,2.9-2.7L525.1,400z M522.4,397c0.3,0,1-0.2,1-0.7
			c0-0.8-0.8-1.8-1.8-1.8c-2.4,0-2.7,2.2-2.8,3L522.4,397z"/>
		<path fill="#4C3D2A" d="M534.5,400c-0.3,1.3-1.3,3.6-4.1,3.6c-2.2,0-3.8-1.2-3.8-4.7c0-3.1,1.8-5.1,4.3-5.1c3,0,3.4,2.5,3.4,3.8
			l-6.2,0.4c0,0.2,0,0.5,0,0.8c0,1.6,0.8,3.7,2.9,3.7c2,0,2.5-1.7,2.9-2.7L534.5,400z M531.8,397c0.3,0,1-0.2,1-0.7
			c0-0.8-0.8-1.8-1.8-1.8c-2.4,0-2.7,2.2-2.8,3L531.8,397z"/>
		<path fill="#4C3D2A" d="M546,403.3c-0.3,0-0.6,0-0.9-0.1c-0.3,0-0.6,0-0.9,0c-0.6,0-1.2,0.1-1.6,0.4c0-0.5,0.1-1.3,0.1-2
			c-1.2,1-2.1,2-3.7,2c-1.8,0-2.9-1.8-2.9-4.1c0-3.6,1.7-5.7,4.2-5.7c1.3,0,1.8,0.4,2.4,0.7v-1.9c0-2.4,0-2.8-2.3-2.8v-0.5
			c1.5,0,2.9-0.3,4-1.1c0,0.7-0.1,2.9-0.1,4.3v7.5c0,2.2,0,2.5,1.8,2.7V403.3z M542.7,397.5c0-1.7-0.4-3-2.1-3
			c-2.1,0-2.8,2.1-2.8,4.6c0,2.1,0.7,3.4,2.2,3.4c1.8,0,2.7-1.8,2.7-2.7V397.5z"/>
		<path fill="#4C3D2A" d="M558.4,402.3c-0.9,0.6-2,1.3-3.3,1.3c-1.2,0-1.3-1.2-1.3-2.6V395H552v-0.5c1.8-0.2,2.1-1.2,2.6-3.4h0.6
			c0,0.7-0.1,2.3-0.1,3.1l2.9-0.2v1h-2.9v4.9c0,2.3,0.2,2.6,1.1,2.6c0.7,0,1.3-0.3,1.9-0.7L558.4,402.3z"/>
		<path fill="#4C3D2A" d="M563.5,403.6c-2.8,0-4.5-2.2-4.5-4.9s1.7-4.9,4.5-4.9s4.5,2.2,4.5,4.9S566.3,403.6,563.5,403.6z
			 M566.2,398.7c0-2.4-0.7-4.3-2.7-4.3c-1.9,0-2.7,1.8-2.7,4.3s0.7,4.2,2.7,4.2C565.5,402.9,566.2,401.2,566.2,398.7z"/>
		<path fill="#4C3D2A" d="M580.1,403.3c-0.9,0-2.1-0.1-2.9-0.1c-0.8,0-1.8,0.1-2.6,0.1v-0.5c1.8-0.2,1.8-0.5,1.8-2.7V395h-1.8v-0.5
			c1.4-0.2,1.8-0.7,1.8-1.7c0-1.6,0.5-4.2,3.8-4.2c1,0,2.1,0.6,2.1,1.5c0,0.9-0.4,1.2-1,1.2c-0.6,0-0.8-0.3-1-0.9
			c0.3,0,0.5-0.2,0.5-0.6c0-0.4-0.5-0.7-1-0.7c-1.5,0-1.9,1.3-1.9,2.8v2.1l2.7-0.2v1h-2.7v5.1c0,2.2,0,2.5,2.3,2.7V403.3z"/>
		<path fill="#4C3D2A" d="M586.2,403.6c-2.8,0-4.5-2.2-4.5-4.9s1.7-4.9,4.5-4.9s4.5,2.2,4.5,4.9S588.9,403.6,586.2,403.6z
			 M588.8,398.7c0-2.4-0.7-4.3-2.7-4.3c-1.9,0-2.7,1.8-2.7,4.3s0.7,4.2,2.7,4.2C588.1,402.9,588.8,401.2,588.8,398.7z"/>
		<path fill="#4C3D2A" d="M600.3,400c-0.4,1.4-1.2,3.6-4.1,3.6c-2.4,0-3.9-1.9-3.9-4.7c0-3.1,2-5.1,4.4-5.1c1.3,0,2.8,0.6,2.8,1.9
			c0,0.8-0.5,1.2-1.2,1.2c-0.4,0-1-0.3-1-1c0.5,0,0.6-0.3,0.6-0.5c0-0.6-0.6-0.9-1.3-0.9c-1.7,0-2.9,1.4-2.9,3.8
			c0,2.1,0.8,4.2,2.8,4.2c2,0,2.6-1.5,3-2.7L600.3,400z"/>
		<path fill="#4C3D2A" d="M611.8,403.3c-0.3,0-0.6,0-0.9-0.1c-0.3,0-0.6,0-0.9,0c-0.6,0-1,0-1.5,0.4c0.1-0.7,0.2-1.4,0.2-1.9
			c-1,0.9-2.4,1.9-4.4,1.9c-1.5,0-1.7-1.2-1.7-2.3v-3.9c0-1.9-0.3-2-2-2v-0.5c1.5-0.1,2.7-0.5,3.6-1.4c0,1.1-0.1,1.9-0.1,3.8v3.2
			c0,0.9,0,1.9,1.4,1.9c1.6,0,3.1-1,3.1-2v-3.1c0-1.9-0.3-2-2-2v-0.5c1.5-0.1,2.7-0.5,3.6-1.4c0,1.1-0.1,1.9-0.1,3.8v4.1
			c0,1.4,0.8,1.3,1.7,1.4V403.3z"/>
		<path fill="#4C3D2A" d="M618.7,397c-0.3-0.9-0.8-2.5-2.6-2.5c-1.1,0-1.8,0.5-1.8,1.4c0,2.3,5.5,1.4,5.5,5c0,1.4-1.2,2.8-3.1,2.8
			c-1.3,0-1.9-0.5-2.9-0.5c-0.3,0-0.5,0.1-0.7,0.3c0-0.3,0.1-0.7,0.1-1.3c0-0.8,0-1.4-0.1-2.2h0.5c0.2,1.2,0.7,3.1,3,3.1
			c1.1,0,2-0.6,2-1.6c0-2.3-5.4-1.5-5.4-4.8c0-1.4,1-2.6,3-2.6c1,0,1.8,0.4,2.3,0.4c0.2,0,0.4-0.2,0.7-0.3c0,0.3,0,0.6,0,0.9
			c0,0.4,0,1.2,0.1,2.1H618.7z"/>
		<path fill="#4C3D2A" d="M631.1,403.6c-2.8,0-4.5-2.2-4.5-4.9s1.7-4.9,4.5-4.9s4.5,2.2,4.5,4.9S633.8,403.6,631.1,403.6z
			 M633.7,398.7c0-2.4-0.7-4.3-2.7-4.3c-1.9,0-2.7,1.8-2.7,4.3s0.7,4.2,2.7,4.2C633,402.9,633.7,401.2,633.7,398.7z"/>
		<path fill="#4C3D2A" d="M648.2,403.3c-0.8,0-1.8-0.1-2.4-0.1c-0.8,0-1.8,0.1-2.6,0.1v-0.5c1.8-0.2,1.8-0.5,1.8-2.7v-3.4
			c0-0.9,0-1.9-1.4-1.9c-2,0-3.1,1.4-3.1,2.6v2.6c0,2.2,0,2.5,1.8,2.7v0.5c-0.8,0-1.8-0.1-2.4-0.1c-0.8,0-1.8,0.1-2.6,0.1v-0.5
			c1.8-0.2,1.8-0.5,1.8-2.7v-2.8c0-1.9-0.3-2-2.2-2v-0.5c1.6-0.1,2.9-0.5,3.8-1.4c0,0.6-0.1,1.1-0.1,2.2c1-0.9,2.4-2,4.4-2
			c1.5,0,1.6,1.2,1.6,2.3v4c0,2.2,0,2.5,1.8,2.7V403.3z"/>
		<path fill="#4C3D2A" d="M660.6,402.3c-0.9,0.6-2,1.3-3.3,1.3c-1.2,0-1.3-1.2-1.3-2.6V395h-1.7v-0.5c1.8-0.2,2.1-1.2,2.6-3.4h0.6
			c0,0.7-0.1,2.3-0.1,3.1l2.9-0.2v1h-2.9v4.9c0,2.3,0.2,2.6,1.1,2.6c0.7,0,1.3-0.3,1.9-0.7L660.6,402.3z"/>
		<path fill="#4C3D2A" d="M671.9,403.3c-0.8,0-1.8-0.1-2.4-0.1c-0.8,0-1.8,0.1-2.6,0.1v-0.5c1.8-0.2,1.8-0.5,1.8-2.7v-3.4
			c0-0.9,0-1.9-1.4-1.9c-2,0-3.1,1.4-3.1,2.6v2.6c0,2.2,0,2.5,1.8,2.7v0.5c-0.8,0-1.8-0.1-2.4-0.1c-0.8,0-1.8,0.1-2.6,0.1v-0.5
			c1.8-0.2,1.8-0.5,1.8-2.7v-7.5c0-2.4,0-2.8-2.3-2.8v-0.5c1.5,0,2.9-0.3,4-1.1c0,0.7-0.1,2.9-0.1,4.3v3.1c1-0.9,2.4-2,4.4-2
			c1.5,0,1.7,1.2,1.7,2.3v4c0,2.2,0,2.5,1.8,2.7V403.3z"/>
		<path fill="#4C3D2A" d="M680.9,400c-0.3,1.3-1.3,3.6-4.1,3.6c-2.2,0-3.8-1.2-3.8-4.7c0-3.1,1.8-5.1,4.3-5.1c3,0,3.4,2.5,3.4,3.8
			l-6.2,0.4c0,0.2,0,0.5,0,0.8c0,1.6,0.8,3.7,2.9,3.7c2,0,2.5-1.7,2.9-2.7L680.9,400z M678.2,397c0.3,0,1-0.2,1-0.7
			c0-0.8-0.8-1.8-1.8-1.8c-2.4,0-2.7,2.2-2.8,3L678.2,397z"/>
		<path fill="#4C3D2A" d="M690,395.7c1.1-0.9,2.2-1.9,3.7-1.9c2.1,0,2.9,1.9,2.9,4.2c0,3.4-1.5,5.6-4.1,5.6c-1.6,0-2.2-0.7-2.9-1.3
			c-0.3,0.8-0.9,1.1-1.9,1.7l-0.2-0.4c0.6-0.9,0.9-0.9,0.9-3.5v-7.5c0-2.4,0-2.8-2.3-2.8v-0.5c1.5,0,2.9-0.3,4-1.1
			c0,0.7-0.1,2.9-0.1,4.3V395.7z M690,399.5c0,1.4,0.1,3.4,2.5,3.4c1.6,0,2.5-1.8,2.5-4.2c0-2.3-0.6-3.9-2.3-3.9
			c-2.2,0-2.7,1.7-2.7,3.4V399.5z"/>
		<path fill="#4C3D2A" d="M708.8,403.3c-0.3,0-0.6,0-0.9-0.1c-0.3,0-0.6,0-0.9,0c-0.6,0-1,0-1.5,0.4c0.1-0.7,0.2-1.4,0.2-1.9
			c-1,0.9-2.4,1.9-4.4,1.9c-1.5,0-1.7-1.2-1.7-2.3v-3.9c0-1.9-0.3-2-2-2v-0.5c1.5-0.1,2.7-0.5,3.6-1.4c0,1.1-0.1,1.9-0.1,3.8v3.2
			c0,0.9,0,1.9,1.4,1.9c1.6,0,3.1-1,3.1-2v-3.1c0-1.9-0.3-2-2-2v-0.5c1.5-0.1,2.7-0.5,3.6-1.4c0,1.1-0.1,1.9-0.1,3.8v4.1
			c0,1.4,0.8,1.3,1.7,1.4V403.3z"/>
		<path fill="#4C3D2A" d="M715.6,397c-0.3-0.9-0.8-2.5-2.6-2.5c-1.1,0-1.8,0.5-1.8,1.4c0,2.3,5.5,1.4,5.5,5c0,1.4-1.2,2.8-3.1,2.8
			c-1.3,0-1.9-0.5-2.9-0.5c-0.3,0-0.5,0.1-0.7,0.3c0-0.3,0.1-0.7,0.1-1.3c0-0.8,0-1.4-0.1-2.2h0.5c0.2,1.2,0.7,3.1,3,3.1
			c1.1,0,2-0.6,2-1.6c0-2.3-5.4-1.5-5.4-4.8c0-1.4,1-2.6,3-2.6c1,0,1.8,0.4,2.3,0.4c0.2,0,0.4-0.2,0.7-0.3c0,0.3,0,0.6,0,0.9
			c0,0.4,0,1.2,0.1,2.1H715.6z"/>
		<path fill="#4C3D2A" d="M722.1,405.8c-0.1,0.2-1.1,1.9-3,1.9c-0.9,0-1.6-0.6-1.6-1.3c0-0.8,0.5-1.1,1.1-1.1c0.5,0,0.6,0.2,0.9,0.3
			c-0.2,0.2-0.4,0.3-0.4,0.6c0,0.4,0.3,0.6,0.7,0.6c1.2,0,2.5-2.3,2.5-3.2c0-0.6-0.3-1.3-0.5-1.9l-2.1-5.4c-0.5-1.3-0.6-1.8-2-1.8
			v-0.5c0.3,0,1.9,0.1,2.4,0.1c0.7,0,2.1-0.1,2.5-0.1v0.5c-0.6,0-1.6,0-1.6,0.7c0,0.4,0.1,0.5,0.3,1l2.1,5.5l1.9-5
			c0.1-0.3,0.3-0.8,0.3-1.3c0-0.8-1-0.8-1.8-0.8v-0.5c0.4,0,1.6,0.1,2.5,0.1c0.5,0,1.7-0.1,1.9-0.1v0.5c-1,0.1-1.1,0-1.9,1.8
			l-3.2,7.6L722.1,405.8z"/>
		<path fill="#4C3D2A" d="M745.4,401.2c-0.5,1.1-0.7,1.6-0.8,2.4l-0.9-0.1c0-0.6-0.3-1.5-0.5-2.2l-1.7-4.2l-2,4.5
			c-0.4,0.9-0.5,1.4-0.7,2l-0.9-0.1c0-0.4-0.3-1.5-0.7-2.4l-2.1-5.2c-0.5-1.3-1.1-1.2-1.8-1.3v-0.5c0.3,0,1.7,0.1,2.3,0.1
			c0.8,0,2-0.1,2.5-0.1v0.5c-0.8,0-1.5,0.1-1.5,0.7c0,0.5,0.2,0.9,0.4,1.4l1.9,4.6l2.2-5c-0.5-1.2-0.4-1.4-2-1.8v-0.5
			c0.4,0,1.5,0.1,2.2,0.1c0.9,0,2.2-0.1,2.6-0.1v0.5c-0.7,0-1.6,0.1-1.6,0.7c0,0.5,0.3,1,0.5,1.5l1.8,4.5l1.8-4.2
			c0.2-0.5,0.6-1.1,0.6-1.8c0-0.8-1.1-0.7-1.8-0.8v-0.5c0.4,0,1.6,0.1,2.4,0.1c0.6,0,1.5-0.1,1.9-0.1v0.5c-0.7,0-1.3,0.4-2,1.9
			L745.4,401.2z"/>
		<path fill="#4C3D2A" d="M754.4,403.6c-2.8,0-4.5-2.2-4.5-4.9s1.7-4.9,4.5-4.9s4.5,2.2,4.5,4.9S757.2,403.6,754.4,403.6z
			 M757.1,398.7c0-2.4-0.7-4.3-2.7-4.3c-1.9,0-2.7,1.8-2.7,4.3s0.7,4.2,2.7,4.2C756.4,402.9,757.1,401.2,757.1,398.7z"/>
		<path fill="#4C3D2A" d="M765.8,403.3c-0.9,0-2-0.1-2.7-0.1c-0.8,0-1.8,0.1-2.6,0.1v-0.5c1.8-0.2,1.8-0.5,1.8-2.7v-2.8
			c0-1.9-0.3-2-2.2-2v-0.5c1.6-0.1,2.9-0.5,3.8-1.4c0,0.5-0.1,1.2-0.1,2.2c1-1,1.8-1.9,2.9-1.9c0.6,0,1.1,0.4,1.1,1
			c0,0.7-0.6,1.1-1.1,1.1c-0.1,0-0.4,0-0.4-0.1c0-0.1,0.1-0.2,0.1-0.3c0-0.4-0.3-0.5-0.6-0.5c-0.5,0-2,0.8-2,2.4v2.8
			c0,2.2,0,2.5,2.1,2.7V403.3z"/>
		<path fill="#4C3D2A" d="M779.1,403.3c-0.2,0-0.5,0-0.9-0.1c-0.3,0-0.6,0-0.8,0c-0.4,0-0.8,0.1-1.2,0.3c0-0.1,0-0.3,0-0.4
			c0-0.1-0.1-0.2-0.6-1l-2.5-3.5l-1.3,1.3c0,2.5,0,2.8,1.8,3v0.5c-0.8,0-1.8-0.1-2.4-0.1c-0.8,0-1.8,0.1-2.6,0.1v-0.5
			c1.8-0.2,1.8-0.5,1.8-2.7v-7.5c0-2.4,0-2.8-2.3-2.8v-0.5c1.5,0,2.9-0.3,4-1.1c0,0.7-0.1,2.9-0.1,4.3v6.4l2.4-2.4
			c0.7-0.7,0.9-1.2,0.9-1.4c0-0.5-0.7-0.6-1.4-0.6v-0.5c0.4,0,1.8,0.1,2.4,0.1c0.8,0,1.7-0.1,2.3-0.1v0.5c-1.4,0.1-1.7,0.3-2.9,1.6
			l-1.4,1.4l2.8,3.8c0.7,1,1.1,1.3,2.1,1.5V403.3z"/>
		<path fill="#4C3D2A" d="M782,403.6c-0.7,0-1.2-0.5-1.2-1.2c0-0.7,0.5-1.2,1.2-1.2c0.7,0,1.2,0.5,1.2,1.2
			C783.2,403.1,782.6,403.6,782,403.6z"/>
		<path fill="#4C3D2A" d="M441.3,423.1c-0.7,3-2.7,5-5.8,5c-3.8,0-6.1-3-6.1-7.2c0-4,2.4-7,6.4-7c1.7,0,3.1,0.7,3.8,0.7
			c0.4,0,0.7-0.2,1-0.5c0,0.5-0.1,1.5-0.1,2.3c0,0.6,0.1,1.6,0.1,2.1h-0.5c-0.3-1.3-1.1-3.8-4-3.8c-3.4,0-4.7,2.8-4.7,6.2
			c0,2.7,1.3,5.9,4.6,5.9c3.4,0,4.2-2.4,4.7-3.6H441.3z"/>
		<path fill="#4C3D2A" d="M447,428c-2.8,0-4.5-2.2-4.5-4.9s1.7-4.9,4.5-4.9s4.5,2.2,4.5,4.9S449.7,428,447,428z M449.6,423.2
			c0-2.4-0.7-4.3-2.7-4.3c-1.9,0-2.7,1.8-2.7,4.3s0.7,4.2,2.7,4.2C448.9,427.4,449.6,425.6,449.6,423.2z"/>
		<path fill="#4C3D2A" d="M458.3,427.8c-0.9,0-2.1-0.1-2.9-0.1c-0.8,0-1.8,0.1-2.6,0.1v-0.5c1.8-0.2,1.8-0.5,1.8-2.7v-5.1h-1.8V419
			c1.4-0.2,1.8-0.7,1.8-1.7c0-1.6,0.5-4.2,3.8-4.2c1,0,2.1,0.6,2.1,1.5c0,0.9-0.4,1.2-1,1.2c-0.6,0-0.8-0.3-1-0.9
			c0.3,0,0.5-0.2,0.5-0.6c0-0.4-0.5-0.7-1-0.7c-1.5,0-1.9,1.3-1.9,2.8v2.1l2.7-0.2v1H456v5.1c0,2.2,0,2.5,2.3,2.7V427.8z"/>
		<path fill="#4C3D2A" d="M465.1,427.8c-0.9,0-2.1-0.1-2.9-0.1c-0.8,0-1.8,0.1-2.6,0.1v-0.5c1.8-0.2,1.8-0.5,1.8-2.7v-5.1h-1.8V419
			c1.4-0.2,1.8-0.7,1.8-1.7c0-1.6,0.5-4.2,3.8-4.2c1,0,2.1,0.6,2.1,1.5c0,0.9-0.4,1.2-1,1.2c-0.6,0-0.8-0.3-1-0.9
			c0.3,0,0.5-0.2,0.5-0.6c0-0.4-0.5-0.7-1-0.7c-1.5,0-1.9,1.3-1.9,2.8v2.1l2.7-0.2v1h-2.7v5.1c0,2.2,0,2.5,2.3,2.7V427.8z"/>
		<path fill="#4C3D2A" d="M474.5,424.5c-0.3,1.3-1.3,3.6-4.1,3.6c-2.2,0-3.8-1.2-3.8-4.7c0-3.1,1.8-5.1,4.3-5.1c3,0,3.4,2.5,3.4,3.8
			l-6.2,0.4c0,0.2,0,0.5,0,0.8c0,1.6,0.8,3.7,2.9,3.7c2,0,2.5-1.7,2.9-2.7L474.5,424.5z M471.8,421.5c0.3,0,1-0.2,1-0.7
			c0-0.8-0.8-1.8-1.8-1.8c-2.4,0-2.7,2.2-2.8,3L471.8,421.5z"/>
		<path fill="#4C3D2A" d="M484,424.5c-0.3,1.3-1.3,3.6-4.1,3.6c-2.2,0-3.8-1.2-3.8-4.7c0-3.1,1.8-5.1,4.3-5.1c3,0,3.4,2.5,3.4,3.8
			l-6.2,0.4c0,0.2,0,0.5,0,0.8c0,1.6,0.8,3.7,2.9,3.7c2,0,2.5-1.7,2.9-2.7L484,424.5z M481.2,421.5c0.3,0,1-0.2,1-0.7
			c0-0.8-0.8-1.8-1.8-1.8c-2.4,0-2.7,2.2-2.8,3L481.2,421.5z"/>
		<path fill="#4C3D2A" d="M497.2,426.5c0.4,0,1.8,0.5,1.8,1.9c0,2.3-2.6,3.6-5.3,3.6c-2.4,0-3.2-1.1-3.2-2.1c0-1.4,1.2-1.9,2.3-2.5
			c-0.6-0.2-1.6-0.5-1.6-1.2c0-1.1,0.8-1.2,1.8-1.7c-0.7-0.3-1.9-0.9-1.9-2.8c0-2,1.2-3.3,3.5-3.3c0.2,0,0.5,0,0.7,0
			c0.4-0.8,1.3-2.2,2.7-2.2c0.6,0,1.1,0.3,1.1,1c0,0.6-0.4,0.9-0.9,0.9c-0.2,0-0.4,0-0.5-0.1c0.1-0.1,0.2-0.2,0.2-0.4
			c0-0.2-0.1-0.4-0.5-0.4c-0.8,0-1.3,0.9-1.5,1.2c0.5,0.1,2.1,0.8,2.1,3c0,2.2-1.6,3.3-3.3,3.3h-0.8c-0.7,0-1.5,0.4-1.5,0.9
			c0,0.5,0.9,0.6,1.9,0.6L497.2,426.5z M494.3,427.6c-0.3,0-0.6-0.1-0.9-0.2c-0.7,0.5-1.6,1.1-1.6,2.1c0,1,1,1.5,2.6,1.5
			c1.8,0,3.6-0.9,3.6-2.1c0-0.8-1-1.1-2-1.1L494.3,427.6z M496.3,421.3c0-1.2-0.5-2.5-1.8-2.5c-1.3,0-1.9,1.3-1.9,2.7
			c0,1.4,0.5,2.5,1.8,2.5C495.9,424,496.3,422.9,496.3,421.3z"/>
		<path fill="#4C3D2A" d="M505.1,427.8c-0.8,0-1.8-0.1-2.4-0.1c-0.8,0-1.8,0.1-2.6,0.1v-0.5c1.8-0.2,1.8-0.5,1.8-2.7v-2.8
			c0-1.9-0.3-2-2.2-2v-0.5c1.6-0.1,2.9-0.5,3.8-1.4c0,1.1-0.1,1.9-0.1,3.8v2.8c0,2.2,0,2.5,1.8,2.7V427.8z M502.3,415.8
			c-0.7,0-1.2-0.5-1.2-1.2c0-0.7,0.5-1.2,1.2-1.2c0.6,0,1.2,0.5,1.2,1.2C503.4,415.3,502.9,415.8,502.3,415.8z"/>
		<path fill="#4C3D2A" d="M511.8,425.5c-0.1,0.3-0.8,1.7-0.9,2.6l-0.9-0.2c-0.1-0.8-0.3-1.6-0.9-3l-1.4-3.5
			c-0.8-1.9-0.6-2.1-2.2-2.3v-0.5c0.4,0,1.4,0.1,2.4,0.1c1,0,2.1-0.1,2.5-0.1v0.5c-0.8,0-1.5,0-1.6,0.7c0,0.5,0.2,0.8,0.4,1.4
			l1.9,4.8l1.7-4c0.3-0.7,0.7-1.5,0.7-2c-0.1-0.8-1.1-0.8-1.8-0.8v-0.5c0.5,0,1.5,0.1,2.3,0.1c0.7,0,1.7-0.1,2-0.1v0.5
			c-1,0.2-1.1,0.4-1.8,1.7L511.8,425.5z"/>
		<path fill="#4C3D2A" d="M524.3,424.5c-0.3,1.3-1.3,3.6-4.1,3.6c-2.2,0-3.8-1.2-3.8-4.7c0-3.1,1.8-5.1,4.3-5.1c3,0,3.4,2.5,3.4,3.8
			l-6.2,0.4c0,0.2,0,0.5,0,0.8c0,1.6,0.8,3.7,2.9,3.7c2,0,2.5-1.7,2.9-2.7L524.3,424.5z M521.6,421.5c0.3,0,1-0.2,1-0.7
			c0-0.8-0.8-1.8-1.8-1.8c-2.4,0-2.7,2.2-2.8,3L521.6,421.5z"/>
		<path fill="#4C3D2A" d="M531.6,421.4c-0.3-0.9-0.8-2.5-2.6-2.5c-1.1,0-1.8,0.5-1.8,1.4c0,2.3,5.5,1.4,5.5,5c0,1.4-1.2,2.8-3.1,2.8
			c-1.3,0-1.9-0.5-2.9-0.5c-0.3,0-0.5,0.1-0.7,0.3c0-0.3,0.1-0.7,0.1-1.3c0-0.8,0-1.4-0.1-2.2h0.5c0.2,1.2,0.7,3.1,3,3.1
			c1.1,0,2-0.6,2-1.6c0-2.3-5.4-1.5-5.4-4.8c0-1.4,1-2.6,3-2.6c1,0,1.8,0.4,2.3,0.4c0.2,0,0.4-0.2,0.7-0.3c0,0.3,0,0.6,0,0.9
			c0,0.4,0,1.2,0.1,2.1H531.6z"/>
		<path fill="#4C3D2A" d="M543.3,430.2c-0.1,0.2-1.1,1.9-3,1.9c-0.9,0-1.6-0.6-1.6-1.3c0-0.8,0.5-1.1,1.1-1.1c0.5,0,0.6,0.2,0.9,0.3
			c-0.2,0.2-0.4,0.3-0.4,0.6c0,0.4,0.3,0.6,0.7,0.6c1.2,0,2.5-2.3,2.5-3.2c0-0.6-0.3-1.3-0.5-1.9l-2.1-5.4c-0.5-1.3-0.6-1.8-2-1.8
			v-0.5c0.3,0,1.9,0.1,2.4,0.1c0.7,0,2.1-0.1,2.5-0.1v0.5c-0.6,0-1.6,0-1.6,0.7c0,0.4,0.1,0.5,0.3,1l2.1,5.5l1.9-5
			c0.1-0.3,0.3-0.8,0.3-1.3c0-0.8-1-0.8-1.8-0.8v-0.5c0.4,0,1.6,0.1,2.5,0.1c0.5,0,1.7-0.1,1.9-0.1v0.5c-1,0.1-1.1,0-1.9,1.8
			l-3.2,7.6L543.3,430.2z"/>
		<path fill="#4C3D2A" d="M554.1,428c-2.8,0-4.5-2.2-4.5-4.9s1.7-4.9,4.5-4.9s4.5,2.2,4.5,4.9S556.9,428,554.1,428z M556.8,423.2
			c0-2.4-0.7-4.3-2.7-4.3c-1.9,0-2.7,1.8-2.7,4.3s0.7,4.2,2.7,4.2C556.1,427.4,556.8,425.6,556.8,423.2z"/>
		<path fill="#4C3D2A" d="M570.7,427.8c-0.3,0-0.6,0-0.9-0.1c-0.3,0-0.6,0-0.9,0c-0.6,0-1,0-1.5,0.4c0.1-0.7,0.2-1.4,0.2-1.9
			c-1,0.9-2.4,1.9-4.4,1.9c-1.5,0-1.7-1.2-1.7-2.3v-3.9c0-1.9-0.3-2-2-2v-0.5c1.5-0.1,2.7-0.5,3.6-1.4c0,1.1-0.1,1.9-0.1,3.8v3.2
			c0,0.9,0,1.9,1.4,1.9c1.6,0,3.1-1,3.1-2v-3.1c0-1.9-0.3-2-2-2v-0.5c1.5-0.1,2.7-0.5,3.6-1.4c0,1.1-0.1,1.9-0.1,3.8v4.1
			c0,1.4,0.8,1.3,1.7,1.4V427.8z"/>
		<path fill="#4C3D2A" d="M593.1,427.8c-0.8,0-1.7-0.1-2.4-0.1c-0.9,0-1.8,0.1-2.6,0.1v-0.5c1.8-0.2,1.8-0.5,1.8-2.7v-3.4
			c0-0.9,0-1.9-1-1.9c-1.9,0-3,1.3-3,2.5v2.8c0,2.2,0,2.5,1.5,2.7v0.5c-0.8,0-1.5-0.1-2.2-0.1c-0.8,0-1.6,0.1-2.4,0.1v-0.5
			c1.5-0.2,1.5-0.5,1.5-2.7v-3.4c0-0.9,0-1.9-1-1.9c-1.9,0-3,1.3-3,2.5v2.8c0,2.2,0,2.5,1.8,2.7v0.5c-0.8,0-1.8-0.1-2.4-0.1
			c-0.8,0-1.8,0.1-2.6,0.1v-0.5c1.8-0.2,1.8-0.5,1.8-2.7v-2.8c0-1.9-0.3-2-2.2-2v-0.5c1.6-0.1,2.9-0.5,3.8-1.4
			c0,0.7-0.1,1.3-0.1,2.1c0.9-0.9,2.5-1.8,4-1.8c1.1,0,1.4,0.9,1.5,1.8c0.9-0.9,2.5-1.8,4-1.8c1.3,0,1.4,1.2,1.4,2.3v4
			c0,2.2,0,2.5,1.8,2.7V427.8z"/>
		<path fill="#4C3D2A" d="M598.7,428c-2.8,0-4.5-2.2-4.5-4.9s1.7-4.9,4.5-4.9s4.5,2.2,4.5,4.9S601.4,428,598.7,428z M601.3,423.2
			c0-2.4-0.7-4.3-2.7-4.3c-1.9,0-2.7,1.8-2.7,4.3s0.7,4.2,2.7,4.2C600.6,427.4,601.3,425.6,601.3,423.2z"/>
		<path fill="#4C3D2A" d="M610,427.8c-0.9,0-2-0.1-2.7-0.1c-0.8,0-1.8,0.1-2.6,0.1v-0.5c1.8-0.2,1.8-0.5,1.8-2.7v-2.8
			c0-1.9-0.3-2-2.2-2v-0.5c1.6-0.1,2.9-0.5,3.8-1.4c0,0.5-0.1,1.2-0.1,2.2c1-1,1.8-1.9,2.9-1.9c0.6,0,1.1,0.4,1.1,1
			c0,0.7-0.6,1.1-1.1,1.1c-0.1,0-0.4,0-0.4-0.1c0-0.1,0.1-0.2,0.1-0.3c0-0.4-0.3-0.5-0.6-0.5c-0.5,0-2,0.8-2,2.4v2.8
			c0,2.2,0,2.5,2.1,2.7V427.8z"/>
		<path fill="#4C3D2A" d="M620.6,424.5c-0.3,1.3-1.3,3.6-4.1,3.6c-2.2,0-3.8-1.2-3.8-4.7c0-3.1,1.8-5.1,4.3-5.1c3,0,3.4,2.5,3.4,3.8
			l-6.2,0.4c0,0.2,0,0.5,0,0.8c0,1.6,0.8,3.7,2.9,3.7c2,0,2.5-1.7,2.9-2.7L620.6,424.5z M617.8,421.5c0.3,0,1-0.2,1-0.7
			c0-0.8-0.8-1.8-1.8-1.8c-2.4,0-2.7,2.2-2.8,3L617.8,421.5z"/>
		<path fill="#4C3D2A" d="M635.3,424.5c-0.3,1.3-1.3,3.6-4.1,3.6c-2.2,0-3.8-1.2-3.8-4.7c0-3.1,1.8-5.1,4.3-5.1c3,0,3.4,2.5,3.4,3.8
			l-6.2,0.4c0,0.2,0,0.5,0,0.8c0,1.6,0.8,3.7,2.9,3.7c2,0,2.5-1.7,2.9-2.7L635.3,424.5z M632.6,421.5c0.3,0,1-0.2,1-0.7
			c0-0.8-0.8-1.8-1.8-1.8c-2.4,0-2.7,2.2-2.8,3L632.6,421.5z"/>
		<path fill="#4C3D2A" d="M647.9,427.8c-0.8,0-1.8-0.1-2.4-0.1c-0.8,0-1.8,0.1-2.6,0.1v-0.5c1.8-0.2,1.8-0.5,1.8-2.7v-3.4
			c0-0.9,0-1.9-1.4-1.9c-2,0-3.1,1.4-3.1,2.6v2.6c0,2.2,0,2.5,1.8,2.7v0.5c-0.8,0-1.8-0.1-2.4-0.1c-0.8,0-1.8,0.1-2.6,0.1v-0.5
			c1.8-0.2,1.8-0.5,1.8-2.7v-2.8c0-1.9-0.3-2-2.2-2v-0.5c1.6-0.1,2.9-0.5,3.8-1.4c0,0.6-0.1,1.1-0.1,2.2c1-0.9,2.4-2,4.4-2
			c1.5,0,1.6,1.2,1.6,2.3v4c0,2.2,0,2.5,1.8,2.7V427.8z"/>
		<path fill="#4C3D2A" d="M656.8,424.5c-0.3,1.3-1.3,3.6-4.1,3.6c-2.2,0-3.8-1.2-3.8-4.7c0-3.1,1.8-5.1,4.3-5.1c3,0,3.4,2.5,3.4,3.8
			l-6.2,0.4c0,0.2,0,0.5,0,0.8c0,1.6,0.8,3.7,2.9,3.7c2,0,2.5-1.7,2.9-2.7L656.8,424.5z M654.1,421.5c0.3,0,1-0.2,1-0.7
			c0-0.8-0.8-1.8-1.8-1.8c-2.4,0-2.7,2.2-2.8,3L654.1,421.5z"/>
		<path fill="#4C3D2A" d="M663.6,427.8c-0.9,0-2-0.1-2.7-0.1c-0.8,0-1.8,0.1-2.6,0.1v-0.5c1.8-0.2,1.8-0.5,1.8-2.7v-2.8
			c0-1.9-0.3-2-2.2-2v-0.5c1.6-0.1,2.9-0.5,3.8-1.4c0,0.5-0.1,1.2-0.1,2.2c1-1,1.8-1.9,2.9-1.9c0.6,0,1.1,0.4,1.1,1
			c0,0.7-0.6,1.1-1.1,1.1c-0.1,0-0.4,0-0.4-0.1c0-0.1,0.1-0.2,0.1-0.3c0-0.4-0.3-0.5-0.6-0.5c-0.5,0-2,0.8-2,2.4v2.8
			c0,2.2,0,2.5,2.1,2.7V427.8z"/>
		<path fill="#4C3D2A" d="M672.7,426.5c0.4,0,1.8,0.5,1.8,1.9c0,2.3-2.6,3.6-5.3,3.6c-2.4,0-3.2-1.1-3.2-2.1c0-1.4,1.2-1.9,2.3-2.5
			c-0.6-0.2-1.6-0.5-1.6-1.2c0-1.1,0.8-1.2,1.8-1.7c-0.7-0.3-1.9-0.9-1.9-2.8c0-2,1.2-3.3,3.5-3.3c0.2,0,0.5,0,0.7,0
			c0.4-0.8,1.3-2.2,2.7-2.2c0.6,0,1.1,0.3,1.1,1c0,0.6-0.4,0.9-0.9,0.9c-0.2,0-0.4,0-0.5-0.1c0.1-0.1,0.2-0.2,0.2-0.4
			c0-0.2-0.1-0.4-0.5-0.4c-0.8,0-1.3,0.9-1.5,1.2c0.5,0.1,2.1,0.8,2.1,3c0,2.2-1.6,3.3-3.3,3.3h-0.8c-0.7,0-1.5,0.4-1.5,0.9
			c0,0.5,0.9,0.6,1.9,0.6L672.7,426.5z M669.8,427.6c-0.3,0-0.6-0.1-0.9-0.2c-0.7,0.5-1.6,1.1-1.6,2.1c0,1,1,1.5,2.6,1.5
			c1.8,0,3.6-0.9,3.6-2.1c0-0.8-1-1.1-2-1.1L669.8,427.6z M671.8,421.3c0-1.2-0.5-2.5-1.8-2.5c-1.3,0-1.9,1.3-1.9,2.7
			c0,1.4,0.5,2.5,1.8,2.5C671.3,424,671.8,422.9,671.8,421.3z"/>
		<path fill="#4C3D2A" d="M679.5,430.2c-0.1,0.2-1.1,1.9-3,1.9c-0.9,0-1.6-0.6-1.6-1.3c0-0.8,0.5-1.1,1.1-1.1c0.5,0,0.6,0.2,0.9,0.3
			c-0.2,0.2-0.4,0.3-0.4,0.6c0,0.4,0.3,0.6,0.7,0.6c1.2,0,2.5-2.3,2.5-3.2c0-0.6-0.3-1.3-0.5-1.9l-2.1-5.4c-0.5-1.3-0.6-1.8-2-1.8
			v-0.5c0.3,0,1.9,0.1,2.4,0.1c0.7,0,2.1-0.1,2.5-0.1v0.5c-0.6,0-1.6,0-1.6,0.7c0,0.4,0.1,0.5,0.3,1l2.1,5.5l1.9-5
			c0.1-0.3,0.3-0.8,0.3-1.3c0-0.8-1-0.8-1.8-0.8v-0.5c0.4,0,1.6,0.1,2.5,0.1c0.5,0,1.7-0.1,1.9-0.1v0.5c-1,0.1-1.1,0-1.9,1.8
			l-3.2,7.6L679.5,430.2z"/>
		<path fill="#4C3D2A" d="M700.3,427.8c-0.3,0-0.6,0-0.9-0.1c-0.3,0-0.6,0-0.9,0c-0.6,0-1,0-1.5,0.4c0.1-0.7,0.2-1.4,0.2-1.9
			c-0.8,0.8-1.9,1.9-3.5,1.9c-1.1,0-2.1-0.9-2.1-2.3c0-1.9,1.8-2.4,2.8-2.7l2.2-0.7c0.6-0.2,0.6-0.6,0.6-1.7c0-1.2-0.4-1.6-1.4-1.6
			c-1.1,0-2.2,0.4-2.2,1c0,0.2,0.2,0.5,0.4,0.5c0.1,0,0.2,0,0.3,0c0,0.5-0.3,1.3-1.1,1.3c-0.5,0-1-0.4-1-1c0-1.9,3-2.7,4.5-2.7
			c1.7,0,2,1.1,2,2.3v5.4c0,1.4,0.8,1.3,1.7,1.4V427.8z M695.6,423.3c-1.4,0.4-2.5,0.8-2.5,2.2c0,0.9,0.7,1.5,1.3,1.5
			c1,0,2.8-1,2.8-2.2v-1.9L695.6,423.3z"/>
		<path fill="#4C3D2A" d="M712.4,427.8c-0.8,0-1.8-0.1-2.4-0.1c-0.8,0-1.8,0.1-2.6,0.1v-0.5c1.8-0.2,1.8-0.5,1.8-2.7v-3.4
			c0-0.9,0-1.9-1.4-1.9c-2,0-3.1,1.4-3.1,2.6v2.6c0,2.2,0,2.5,1.8,2.7v0.5c-0.8,0-1.8-0.1-2.4-0.1c-0.8,0-1.8,0.1-2.6,0.1v-0.5
			c1.8-0.2,1.8-0.5,1.8-2.7v-2.8c0-1.9-0.3-2-2.2-2v-0.5c1.6-0.1,2.9-0.5,3.8-1.4c0,0.6-0.1,1.1-0.1,2.2c1-0.9,2.4-2,4.4-2
			c1.5,0,1.6,1.2,1.6,2.3v4c0,2.2,0,2.5,1.8,2.7V427.8z"/>
		<path fill="#4C3D2A" d="M723.3,427.8c-0.3,0-0.6,0-0.9-0.1c-0.3,0-0.6,0-0.9,0c-0.6,0-1.2,0.1-1.6,0.4c0-0.5,0.1-1.3,0.1-2
			c-1.2,1-2.1,2-3.7,2c-1.8,0-2.9-1.8-2.9-4.1c0-3.6,1.7-5.7,4.2-5.7c1.3,0,1.8,0.4,2.4,0.7v-1.9c0-2.4,0-2.8-2.3-2.8v-0.5
			c1.5,0,2.9-0.3,4-1.1c0,0.7-0.1,2.9-0.1,4.3v7.5c0,2.2,0,2.5,1.8,2.7V427.8z M720.1,421.9c0-1.7-0.4-3-2.1-3
			c-2.1,0-2.8,2.1-2.8,4.6c0,2.1,0.7,3.4,2.2,3.4c1.8,0,2.7-1.8,2.7-2.7V421.9z"/>
		<path fill="#4C3D2A" d="M735.7,426.7c-0.9,0.6-2,1.3-3.3,1.3c-1.2,0-1.3-1.2-1.3-2.6v-5.9h-1.7v-0.5c1.8-0.2,2.1-1.2,2.6-3.4h0.6
			c0,0.7-0.1,2.3-0.1,3.1l2.9-0.2v1h-2.9v4.9c0,2.3,0.2,2.6,1.1,2.6c0.7,0,1.3-0.3,1.9-0.7L735.7,426.7z"/>
		<path fill="#4C3D2A" d="M747.1,427.8c-0.8,0-1.8-0.1-2.4-0.1c-0.8,0-1.8,0.1-2.6,0.1v-0.5c1.8-0.2,1.8-0.5,1.8-2.7v-3.4
			c0-0.9,0-1.9-1.4-1.9c-2,0-3.1,1.4-3.1,2.6v2.6c0,2.2,0,2.5,1.8,2.7v0.5c-0.8,0-1.8-0.1-2.4-0.1c-0.8,0-1.8,0.1-2.6,0.1v-0.5
			c1.8-0.2,1.8-0.5,1.8-2.7v-7.5c0-2.4,0-2.8-2.3-2.8v-0.5c1.5,0,2.9-0.3,4-1.1c0,0.7-0.1,2.9-0.1,4.3v3.1c1-0.9,2.4-2,4.4-2
			c1.5,0,1.7,1.2,1.7,2.3v4c0,2.2,0,2.5,1.8,2.7V427.8z"/>
		<path fill="#4C3D2A" d="M756,424.5c-0.3,1.3-1.3,3.6-4.1,3.6c-2.2,0-3.8-1.2-3.8-4.7c0-3.1,1.8-5.1,4.3-5.1c3,0,3.4,2.5,3.4,3.8
			l-6.2,0.4c0,0.2,0,0.5,0,0.8c0,1.6,0.8,3.7,2.9,3.7c2,0,2.5-1.7,2.9-2.7L756,424.5z M753.3,421.5c0.3,0,1-0.2,1-0.7
			c0-0.8-0.8-1.8-1.8-1.8c-2.4,0-2.7,2.2-2.8,3L753.3,421.5z"/>
		<path fill="#4C3D2A" d="M438.1,452.2c-0.3,0-0.6,0-0.9-0.1c-0.3,0-0.6,0-0.9,0c-0.6,0-1,0-1.5,0.4c0.1-0.7,0.2-1.4,0.2-1.9
			c-0.8,0.8-1.9,1.9-3.5,1.9c-1.1,0-2.1-0.9-2.1-2.3c0-1.9,1.8-2.4,2.8-2.7l2.2-0.7c0.6-0.2,0.6-0.6,0.6-1.7c0-1.2-0.4-1.6-1.4-1.6
			c-1.1,0-2.2,0.4-2.2,1c0,0.2,0.2,0.5,0.4,0.5c0.1,0,0.2,0,0.3,0c0,0.5-0.3,1.3-1.1,1.3c-0.5,0-1-0.4-1-1c0-1.9,3-2.7,4.5-2.7
			c1.7,0,2,1.1,2,2.3v5.4c0,1.4,0.8,1.3,1.7,1.4V452.2z M433.4,447.7c-1.4,0.4-2.5,0.8-2.5,2.2c0,0.9,0.7,1.5,1.3,1.5
			c1,0,2.8-1,2.8-2.2v-1.9L433.4,447.7z"/>
		<path fill="#4C3D2A" d="M441.3,444.6c1.1-0.9,2.2-1.9,3.7-1.9c2.1,0,2.9,1.9,2.9,4.2c0,3.4-1.5,5.6-4.1,5.6
			c-1.6,0-2.2-0.7-2.9-1.3c-0.3,0.8-0.9,1.1-1.9,1.7l-0.2-0.4c0.6-0.9,0.9-0.9,0.9-3.5v-7.5c0-2.4,0-2.8-2.3-2.8v-0.5
			c1.5,0,2.9-0.3,4-1.1c0,0.7-0.1,2.9-0.1,4.3V444.6z M441.3,448.4c0,1.4,0.1,3.4,2.5,3.4c1.6,0,2.5-1.8,2.5-4.2
			c0-2.3-0.6-3.9-2.3-3.9c-2.2,0-2.7,1.7-2.7,3.4V448.4z"/>
		<path fill="#4C3D2A" d="M454.6,452.2c-0.8,0-1.8-0.1-2.4-0.1c-0.8,0-1.8,0.1-2.6,0.1v-0.5c1.8-0.2,1.8-0.5,1.8-2.7v-2.8
			c0-1.9-0.3-2-2.2-2v-0.5c1.6-0.1,2.9-0.5,3.8-1.4c0,1.1-0.1,1.9-0.1,3.8v2.8c0,2.2,0,2.5,1.8,2.7V452.2z M451.7,440.2
			c-0.7,0-1.2-0.5-1.2-1.2c0-0.7,0.5-1.2,1.2-1.2c0.6,0,1.2,0.5,1.2,1.2C452.9,439.7,452.4,440.2,451.7,440.2z"/>
		<path fill="#4C3D2A" d="M460.3,452.2c-0.8,0-1.8-0.1-2.4-0.1c-0.8,0-1.8,0.1-2.6,0.1v-0.5c1.8-0.2,1.8-0.5,1.8-2.7v-7.5
			c0-2.4,0-2.8-2.3-2.8v-0.5c1.5,0,2.9-0.3,4-1.1c0,0.7-0.1,2.9-0.1,4.3v7.5c0,2.2,0,2.5,1.8,2.7V452.2z"/>
		<path fill="#4C3D2A" d="M466.3,452.2c-0.8,0-1.8-0.1-2.4-0.1c-0.8,0-1.8,0.1-2.6,0.1v-0.5c1.8-0.2,1.8-0.5,1.8-2.7v-2.8
			c0-1.9-0.3-2-2.2-2v-0.5c1.6-0.1,2.9-0.5,3.8-1.4c0,1.1-0.1,1.9-0.1,3.8v2.8c0,2.2,0,2.5,1.8,2.7V452.2z M463.4,440.2
			c-0.7,0-1.2-0.5-1.2-1.2c0-0.7,0.5-1.2,1.2-1.2c0.6,0,1.2,0.5,1.2,1.2C464.6,439.7,464.1,440.2,463.4,440.2z"/>
		<path fill="#4C3D2A" d="M473.5,451.2c-0.9,0.6-2,1.3-3.3,1.3c-1.2,0-1.3-1.2-1.3-2.6v-5.9h-1.7v-0.5c1.8-0.2,2.1-1.2,2.6-3.4h0.6
			c0,0.7-0.1,2.3-0.1,3.1l2.9-0.2v1h-2.9v4.9c0,2.3,0.2,2.6,1.1,2.6c0.7,0,1.3-0.3,1.9-0.7L473.5,451.2z"/>
		<path fill="#4C3D2A" d="M478,454.7c-0.1,0.2-1.1,1.9-3,1.9c-0.9,0-1.6-0.6-1.6-1.3c0-0.8,0.5-1.1,1.1-1.1c0.5,0,0.6,0.2,0.9,0.3
			c-0.2,0.2-0.4,0.3-0.4,0.6c0,0.4,0.3,0.6,0.7,0.6c1.2,0,2.5-2.3,2.5-3.2c0-0.6-0.3-1.3-0.5-1.9l-2.1-5.4c-0.5-1.3-0.6-1.8-2-1.8
			V443c0.3,0,1.9,0.1,2.4,0.1c0.7,0,2.1-0.1,2.5-0.1v0.5c-0.6,0-1.6,0-1.6,0.7c0,0.4,0.1,0.5,0.3,1l2.1,5.5l1.9-5
			c0.1-0.3,0.3-0.8,0.3-1.3c0-0.8-1-0.8-1.8-0.8V443c0.4,0,1.6,0.1,2.5,0.1c0.5,0,1.7-0.1,1.9-0.1v0.5c-1,0.1-1.1,0-1.9,1.8
			l-3.2,7.6L478,454.7z"/>
		<path fill="#4C3D2A" d="M496.1,451.2c-0.9,0.6-2,1.3-3.3,1.3c-1.2,0-1.3-1.2-1.3-2.6v-5.9h-1.7v-0.5c1.8-0.2,2.1-1.2,2.6-3.4h0.6
			c0,0.7-0.1,2.3-0.1,3.1l2.9-0.2v1h-2.9v4.9c0,2.3,0.2,2.6,1.1,2.6c0.7,0,1.3-0.3,1.9-0.7L496.1,451.2z"/>
		<path fill="#4C3D2A" d="M501.3,452.5c-2.8,0-4.5-2.2-4.5-4.9s1.7-4.9,4.5-4.9s4.5,2.2,4.5,4.9S504,452.5,501.3,452.5z
			 M503.9,447.6c0-2.4-0.7-4.3-2.7-4.3c-1.9,0-2.7,1.8-2.7,4.3s0.7,4.2,2.7,4.2C503.2,451.8,503.9,450.1,503.9,447.6z"/>
		<path fill="#4C3D2A" d="M517.9,452.2c-0.9,0-2.1-0.1-2.9-0.1c-0.8,0-1.8,0.1-2.6,0.1v-0.5c1.8-0.2,1.8-0.5,1.8-2.7v-5.1h-1.8v-0.5
			c1.4-0.2,1.8-0.7,1.8-1.7c0-1.6,0.5-4.2,3.8-4.2c1,0,2.1,0.6,2.1,1.5c0,0.9-0.4,1.2-1,1.2c-0.6,0-0.8-0.3-1-0.9
			c0.3,0,0.5-0.2,0.5-0.6c0-0.4-0.5-0.7-1-0.7c-1.5,0-1.9,1.3-1.9,2.8v2.1l2.7-0.2v1h-2.7v5.1c0,2.2,0,2.5,2.3,2.7V452.2z"/>
		<path fill="#4C3D2A" d="M523.9,452.5c-2.8,0-4.5-2.2-4.5-4.9s1.7-4.9,4.5-4.9s4.5,2.2,4.5,4.9S526.7,452.5,523.9,452.5z
			 M526.6,447.6c0-2.4-0.7-4.3-2.7-4.3c-1.9,0-2.7,1.8-2.7,4.3s0.7,4.2,2.7,4.2C525.8,451.8,526.6,450.1,526.6,447.6z"/>
		<path fill="#4C3D2A" d="M538,448.9c-0.4,1.4-1.2,3.6-4.1,3.6c-2.4,0-3.9-1.9-3.9-4.7c0-3.1,2-5.1,4.4-5.1c1.3,0,2.8,0.6,2.8,1.9
			c0,0.8-0.5,1.2-1.2,1.2c-0.4,0-1-0.3-1-1c0.5,0,0.6-0.3,0.6-0.5c0-0.6-0.6-0.9-1.3-0.9c-1.7,0-2.9,1.4-2.9,3.8
			c0,2.1,0.8,4.2,2.8,4.2c2,0,2.6-1.5,3-2.7L538,448.9z"/>
		<path fill="#4C3D2A" d="M549.6,452.2c-0.3,0-0.6,0-0.9-0.1c-0.3,0-0.6,0-0.9,0c-0.6,0-1,0-1.5,0.4c0.1-0.7,0.2-1.4,0.2-1.9
			c-1,0.9-2.4,1.9-4.4,1.9c-1.5,0-1.7-1.2-1.7-2.3v-3.9c0-1.9-0.3-2-2-2v-0.5c1.5-0.1,2.7-0.5,3.6-1.4c0,1.1-0.1,1.9-0.1,3.8v3.2
			c0,0.9,0,1.9,1.4,1.9c1.6,0,3.1-1,3.1-2v-3.1c0-1.9-0.3-2-2-2v-0.5c1.5-0.1,2.7-0.5,3.6-1.4c0,1.1-0.1,1.9-0.1,3.8v4.1
			c0,1.4,0.8,1.3,1.7,1.4V452.2z"/>
		<path fill="#4C3D2A" d="M556.4,445.9c-0.3-0.9-0.8-2.5-2.6-2.5c-1.1,0-1.8,0.5-1.8,1.4c0,2.3,5.5,1.4,5.5,5c0,1.4-1.2,2.8-3.1,2.8
			c-1.3,0-1.9-0.5-2.9-0.5c-0.3,0-0.5,0.1-0.7,0.3c0-0.3,0.1-0.7,0.1-1.3c0-0.8,0-1.4-0.1-2.2h0.5c0.2,1.2,0.7,3.1,3,3.1
			c1.1,0,2-0.6,2-1.6c0-2.3-5.4-1.5-5.4-4.8c0-1.4,1-2.6,3-2.6c1,0,1.8,0.4,2.3,0.4c0.2,0,0.4-0.2,0.7-0.3c0,0.3,0,0.6,0,0.9
			c0,0.4,0,1.2,0.1,2.1H556.4z"/>
		<path fill="#4C3D2A" d="M560.9,452.5c-0.7,0-1.2-0.5-1.2-1.2c0-0.7,0.5-1.2,1.2-1.2c0.7,0,1.2,0.5,1.2,1.2
			C562.1,452,561.5,452.5,560.9,452.5z"/>
	</g>
	<g>
		<rect y="371.4" fill="none" width="374.9" height="97.5"/>
		<path fill="#4C3D2A" d="M7.6,378.8c2.2,0.2,4.6,0.7,4.6,3.5c0,2.7-2.1,4.1-5.4,4.1c-0.7,0-1.9-0.1-3.1-0.1s-2.4,0.1-3.2,0.1v-0.5
			c2.1-0.3,2.3-0.5,2.3-3v-6.7c0-2.5-0.2-2.7-2.3-3v-0.5c0.7,0,1.9,0.1,3.1,0.1s2.4-0.1,3.2-0.1c3,0,4.6,0.7,4.6,2.8
			c0,2.7-2.5,3-3.8,3.2V378.8z M4.5,378.5c2,0,5,0,5-2.8c0-1.7-0.9-2.4-2.9-2.4c-2.1,0-2.1,0.5-2.1,2.9V378.5z M4.5,382.9
			c0,2.1,0,2.7,2.4,2.8c2.3,0,3.4-1.1,3.4-3.2c0-3.3-2.3-3.3-5.8-3.3V382.9z"/>
		<path fill="#4C3D2A" d="M21.5,383c-0.3,1.3-1.3,3.6-4.1,3.6c-2.2,0-3.9-1.2-3.9-4.7c0-3.1,1.8-5.1,4.3-5.1c3,0,3.4,2.5,3.4,3.8
			l-6.2,0.4c0,0.2,0,0.5,0,0.8c0,1.6,0.8,3.7,2.9,3.7c2,0,2.5-1.7,2.9-2.7L21.5,383z M18.8,380c0.3,0,1-0.2,1-0.7
			c0-0.8-0.8-1.8-1.8-1.8c-2.4,0-2.7,2.2-2.8,3L18.8,380z"/>
		<path fill="#4C3D2A" d="M31,383c-0.3,1.3-1.3,3.6-4.1,3.6c-2.2,0-3.9-1.2-3.9-4.7c0-3.1,1.8-5.1,4.3-5.1c3,0,3.4,2.5,3.4,3.8
			l-6.2,0.4c0,0.2,0,0.5,0,0.8c0,1.6,0.8,3.7,2.9,3.7c2,0,2.5-1.7,2.9-2.7L31,383z M28.2,380c0.3,0,1-0.2,1-0.7
			c0-0.8-0.8-1.8-1.8-1.8c-2.4,0-2.7,2.2-2.8,3L28.2,380z"/>
		<path fill="#4C3D2A" d="M37.8,386.4c-0.9,0-2-0.1-2.7-0.1c-0.8,0-1.8,0.1-2.6,0.1v-0.5c1.8-0.2,1.8-0.5,1.8-2.7v-2.8
			c0-1.9-0.3-2-2.2-2V378c1.6-0.1,2.9-0.5,3.8-1.4c0,0.5-0.1,1.2-0.1,2.2c1-1,1.8-1.9,2.9-1.9c0.6,0,1.1,0.4,1.1,1
			c0,0.7-0.6,1.1-1.1,1.1c-0.1,0-0.4,0-0.4-0.1c0-0.1,0.1-0.2,0.1-0.3c0-0.4-0.3-0.5-0.6-0.5c-0.5,0-2,0.8-2,2.4v2.8
			c0,2.2,0,2.5,2.1,2.7V386.4z"/>
		<path fill="#4C3D2A" d="M51,386.4c-0.8,0-1.8-0.1-2.4-0.1c-0.8,0-1.8,0.1-2.6,0.1v-0.5c1.8-0.2,1.8-0.5,1.8-2.7v-2.8
			c0-1.9-0.3-2-2.2-2V378c1.6-0.1,2.9-0.5,3.8-1.4c0,1.1-0.1,1.9-0.1,3.8v2.8c0,2.2,0,2.5,1.8,2.7V386.4z M48.1,374.4
			c-0.7,0-1.2-0.5-1.2-1.2c0-0.7,0.5-1.2,1.2-1.2c0.6,0,1.2,0.5,1.2,1.2C49.3,373.8,48.8,374.4,48.1,374.4z"/>
		<path fill="#4C3D2A" d="M57.8,380c-0.3-0.9-0.8-2.5-2.6-2.5c-1.1,0-1.8,0.5-1.8,1.4c0,2.3,5.5,1.4,5.5,5c0,1.4-1.2,2.8-3.1,2.8
			c-1.3,0-1.9-0.5-2.9-0.5c-0.3,0-0.5,0.1-0.7,0.3c0-0.3,0.1-0.7,0.1-1.3c0-0.8,0-1.4-0.1-2.2h0.5c0.2,1.2,0.7,3.1,3,3.1
			c1.1,0,2-0.6,2-1.6c0-2.3-5.4-1.5-5.4-4.8c0-1.4,1-2.6,3-2.6c1,0,1.8,0.4,2.3,0.4c0.2,0,0.4-0.2,0.7-0.3c0,0.3,0,0.6,0,0.9
			c0,0.4,0,1.2,0.1,2.1H57.8z"/>
		<path fill="#4C3D2A" d="M74.5,386.4c-0.3,0-0.6,0-0.9-0.1c-0.3,0-0.6,0-0.9,0c-0.6,0-1,0-1.5,0.4c0.1-0.7,0.2-1.4,0.2-1.9
			c-0.8,0.8-1.9,1.9-3.5,1.9c-1.1,0-2.1-0.9-2.1-2.3c0-1.9,1.8-2.4,2.8-2.7l2.2-0.7c0.6-0.2,0.6-0.6,0.6-1.7c0-1.2-0.4-1.6-1.4-1.6
			c-1.1,0-2.2,0.4-2.2,1c0,0.2,0.2,0.5,0.4,0.5c0.1,0,0.2,0,0.3,0c0,0.5-0.3,1.3-1.1,1.3c-0.5,0-1-0.4-1-1c0-1.9,3-2.7,4.5-2.7
			c1.7,0,2,1.1,2,2.3v5.4c0,1.4,0.8,1.3,1.7,1.4V386.4z M69.8,381.8c-1.4,0.4-2.5,0.8-2.5,2.2c0,0.9,0.7,1.5,1.3,1.5
			c1,0,2.8-1,2.8-2.2v-1.9L69.8,381.8z"/>
		<path fill="#4C3D2A" d="M87.1,385c0.4,0,1.8,0.5,1.8,1.9c0,2.3-2.6,3.6-5.3,3.6c-2.4,0-3.2-1.1-3.2-2.1c0-1.4,1.2-1.9,2.3-2.5
			c-0.6-0.2-1.6-0.5-1.6-1.2c0-1.1,0.8-1.2,1.8-1.7c-0.7-0.3-1.9-0.9-1.9-2.8c0-2,1.2-3.3,3.5-3.3c0.2,0,0.5,0,0.7,0
			c0.4-0.8,1.3-2.2,2.7-2.2c0.6,0,1.1,0.3,1.1,1c0,0.6-0.4,0.9-0.9,0.9c-0.2,0-0.4,0-0.5-0.1c0.1-0.1,0.2-0.2,0.2-0.4
			c0-0.2-0.1-0.4-0.5-0.4c-0.8,0-1.3,0.9-1.5,1.2c0.5,0.1,2.1,0.8,2.1,3c0,2.2-1.6,3.3-3.3,3.3h-0.8c-0.7,0-1.5,0.4-1.5,0.9
			c0,0.5,0.9,0.6,1.9,0.6L87.1,385z M84.3,386.1c-0.3,0-0.6-0.1-0.9-0.2c-0.7,0.5-1.6,1.1-1.6,2.1c0,1,1,1.5,2.6,1.5
			c1.8,0,3.6-0.9,3.6-2.1c0-0.8-1-1.1-2-1.1L84.3,386.1z M86.3,379.9c0-1.2-0.5-2.5-1.8-2.5s-1.9,1.3-1.9,2.7c0,1.4,0.5,2.5,1.8,2.5
			C85.8,382.6,86.3,381.4,86.3,379.9z"/>
		<path fill="#4C3D2A" d="M94.7,386.6c-2.8,0-4.5-2.2-4.5-4.9s1.7-4.9,4.5-4.9s4.5,2.2,4.5,4.9S97.4,386.6,94.7,386.6z M97.3,381.7
			c0-2.4-0.7-4.3-2.7-4.3s-2.7,1.8-2.7,4.3s0.7,4.2,2.7,4.2S97.3,384.2,97.3,381.7z"/>
		<path fill="#4C3D2A" d="M105.2,386.6c-2.8,0-4.5-2.2-4.5-4.9s1.7-4.9,4.5-4.9s4.5,2.2,4.5,4.9S108,386.6,105.2,386.6z
			 M107.9,381.7c0-2.4-0.7-4.3-2.7-4.3s-2.7,1.8-2.7,4.3s0.7,4.2,2.7,4.2S107.9,384.2,107.9,381.7z"/>
		<path fill="#4C3D2A" d="M121.2,386.4c-0.3,0-0.6,0-0.9-0.1c-0.3,0-0.6,0-0.9,0c-0.5,0-1.2,0.1-1.6,0.4c0-0.5,0.1-1.3,0.1-2
			c-1.2,1-2.1,2-3.7,2c-1.8,0-2.9-1.8-2.9-4.1c0-3.6,1.7-5.7,4.2-5.7c1.3,0,1.8,0.4,2.4,0.7v-1.9c0-2.4,0-2.8-2.3-2.8v-0.5
			c1.5,0,2.9-0.3,4-1.1c0,0.7-0.1,2.9-0.1,4.3v7.5c0,2.2,0,2.5,1.8,2.7V386.4z M118,380.5c0-1.7-0.4-3-2.1-3c-2.1,0-2.8,2.1-2.8,4.6
			c0,2.1,0.7,3.4,2.2,3.4c1.8,0,2.7-1.8,2.7-2.7V380.5z"/>
		<path fill="#4C3D2A" d="M132.5,386.4c-0.8,0-1.8-0.1-2.4-0.1c-0.8,0-1.8,0.1-2.6,0.1v-0.5c1.8-0.2,1.8-0.5,1.8-2.7v-2.8
			c0-1.9-0.3-2-2.2-2V378c1.6-0.1,2.9-0.5,3.8-1.4c0,1.1-0.1,1.9-0.1,3.8v2.8c0,2.2,0,2.5,1.8,2.7V386.4z M129.6,374.4
			c-0.7,0-1.2-0.5-1.2-1.2c0-0.7,0.5-1.2,1.2-1.2c0.6,0,1.2,0.5,1.2,1.2C130.8,373.8,130.2,374.4,129.6,374.4z"/>
		<path fill="#4C3D2A" d="M143.5,386.4c-0.3,0-0.6,0-0.9-0.1c-0.3,0-0.6,0-0.9,0c-0.5,0-1.2,0.1-1.6,0.4c0-0.5,0.1-1.3,0.1-2
			c-1.2,1-2.1,2-3.7,2c-1.8,0-2.9-1.8-2.9-4.1c0-3.6,1.7-5.7,4.2-5.7c1.3,0,1.8,0.4,2.4,0.7v-1.9c0-2.4,0-2.8-2.3-2.8v-0.5
			c1.5,0,2.9-0.3,4-1.1c0,0.7-0.1,2.9-0.1,4.3v7.5c0,2.2,0,2.5,1.8,2.7V386.4z M140.2,380.5c0-1.7-0.4-3-2.1-3
			c-2.1,0-2.8,2.1-2.8,4.6c0,2.1,0.7,3.4,2.2,3.4c1.8,0,2.7-1.8,2.7-2.7V380.5z"/>
		<path fill="#4C3D2A" d="M152.4,383c-0.3,1.3-1.3,3.6-4.1,3.6c-2.2,0-3.9-1.2-3.9-4.7c0-3.1,1.8-5.1,4.3-5.1c3,0,3.4,2.5,3.4,3.8
			l-6.2,0.4c0,0.2,0,0.5,0,0.8c0,1.6,0.8,3.7,2.9,3.7c2,0,2.5-1.7,2.9-2.7L152.4,383z M149.7,380c0.3,0,1-0.2,1-0.7
			c0-0.8-0.8-1.8-1.8-1.8c-2.4,0-2.7,2.2-2.8,3L149.7,380z"/>
		<path fill="#4C3D2A" d="M162.7,386.4c-0.3,0-0.6,0-0.9-0.1c-0.3,0-0.6,0-0.9,0c-0.6,0-1,0-1.5,0.4c0.1-0.7,0.2-1.4,0.2-1.9
			c-0.8,0.8-1.9,1.9-3.5,1.9c-1.1,0-2.1-0.9-2.1-2.3c0-1.9,1.8-2.4,2.8-2.7l2.2-0.7c0.6-0.2,0.6-0.6,0.6-1.7c0-1.2-0.4-1.6-1.4-1.6
			c-1.1,0-2.2,0.4-2.2,1c0,0.2,0.2,0.5,0.4,0.5c0.1,0,0.2,0,0.3,0c0,0.5-0.3,1.3-1.1,1.3c-0.5,0-1-0.4-1-1c0-1.9,3-2.7,4.5-2.7
			c1.7,0,2,1.1,2,2.3v5.4c0,1.4,0.8,1.3,1.7,1.4V386.4z M158,381.8c-1.4,0.4-2.5,0.8-2.5,2.2c0,0.9,0.7,1.5,1.3,1.5
			c1,0,2.8-1,2.8-2.2v-1.9L158,381.8z"/>
		<path fill="#4C3D2A" d="M173.9,386.4c-0.8,0-1.8-0.1-2.4-0.1c-0.8,0-1.8,0.1-2.6,0.1v-0.5c1.8-0.2,1.8-0.5,1.8-2.7v-2.8
			c0-1.9-0.3-2-2.2-2V378c1.6-0.1,2.9-0.5,3.8-1.4c0,1.1-0.1,1.9-0.1,3.8v2.8c0,2.2,0,2.5,1.8,2.7V386.4z M171.1,374.4
			c-0.7,0-1.2-0.5-1.2-1.2c0-0.7,0.5-1.2,1.2-1.2c0.6,0,1.2,0.5,1.2,1.2C172.3,373.8,171.7,374.4,171.1,374.4z"/>
		<path fill="#4C3D2A" d="M180.3,386.4c-0.9,0-2.1-0.1-2.9-0.1c-0.8,0-1.8,0.1-2.6,0.1v-0.5c1.8-0.2,1.8-0.5,1.8-2.7v-5.1h-1.8v-0.5
			c1.4-0.2,1.8-0.7,1.8-1.7c0-1.6,0.5-4.2,3.8-4.2c1,0,2.1,0.6,2.1,1.5c0,0.9-0.4,1.2-1,1.2c-0.6,0-0.8-0.3-1-0.9
			c0.3,0,0.5-0.2,0.5-0.6c0-0.4-0.5-0.7-1-0.7c-1.5,0-1.9,1.3-1.9,2.8v2.1l2.7-0.2v1H178v5.1c0,2.2,0,2.5,2.3,2.7V386.4z"/>
		<path fill="#4C3D2A" d="M191,388.8c-0.1,0.2-1.1,1.9-3,1.9c-0.9,0-1.6-0.6-1.6-1.3c0-0.8,0.5-1.1,1.1-1.1c0.5,0,0.6,0.2,0.9,0.3
			c-0.2,0.2-0.4,0.3-0.4,0.6c0,0.4,0.3,0.6,0.7,0.6c1.2,0,2.5-2.3,2.5-3.2c0-0.6-0.3-1.3-0.5-1.9l-2.1-5.4c-0.5-1.3-0.6-1.8-2-1.8
			v-0.5c0.3,0,1.9,0.1,2.4,0.1c0.7,0,2.1-0.1,2.5-0.1v0.5c-0.6,0-1.6,0-1.6,0.7c0,0.4,0.1,0.5,0.3,1l2.1,5.5l1.9-5
			c0.1-0.3,0.3-0.8,0.3-1.3c0-0.8-1-0.8-1.8-0.8v-0.5c0.4,0,1.6,0.1,2.5,0.1c0.5,0,1.7-0.1,1.9-0.1v0.5c-1,0.1-1.1,0-1.9,1.8
			l-3.2,7.6L191,388.8z"/>
		<path fill="#4C3D2A" d="M201.8,386.6c-2.8,0-4.5-2.2-4.5-4.9s1.7-4.9,4.5-4.9s4.5,2.2,4.5,4.9S204.5,386.6,201.8,386.6z
			 M204.5,381.7c0-2.4-0.7-4.3-2.7-4.3s-2.7,1.8-2.7,4.3s0.7,4.2,2.7,4.2S204.5,384.2,204.5,381.7z"/>
		<path fill="#4C3D2A" d="M218.4,386.4c-0.3,0-0.6,0-0.9-0.1c-0.3,0-0.6,0-0.9,0c-0.6,0-1,0-1.5,0.4c0.1-0.7,0.2-1.4,0.2-1.9
			c-1,0.9-2.4,1.9-4.4,1.9c-1.5,0-1.6-1.2-1.6-2.3v-3.9c0-1.9-0.3-2-2-2V378c1.5-0.1,2.7-0.5,3.6-1.4c0,1.1-0.1,1.9-0.1,3.8v3.2
			c0,0.9,0,1.9,1.4,1.9c1.6,0,3.1-1,3.1-2v-3.1c0-1.9-0.3-2-2-2V378c1.5-0.1,2.7-0.5,3.6-1.4c0,1.1-0.1,1.9-0.1,3.8v4.1
			c0,1.4,0.8,1.3,1.7,1.4V386.4z"/>
		<path fill="#4C3D2A" d="M233.7,386.4c-0.3,0-0.6,0-0.9-0.1c-0.3,0-0.6,0-0.9,0c-0.6,0-1,0-1.5,0.4c0.1-0.7,0.2-1.4,0.2-1.9
			c-0.8,0.8-1.9,1.9-3.5,1.9c-1.1,0-2.1-0.9-2.1-2.3c0-1.9,1.8-2.4,2.8-2.7l2.2-0.7c0.6-0.2,0.6-0.6,0.6-1.7c0-1.2-0.4-1.6-1.4-1.6
			c-1.1,0-2.2,0.4-2.2,1c0,0.2,0.2,0.5,0.4,0.5c0.1,0,0.2,0,0.3,0c0,0.5-0.3,1.3-1.1,1.3c-0.5,0-1-0.4-1-1c0-1.9,3-2.7,4.5-2.7
			c1.7,0,2,1.1,2,2.3v5.4c0,1.4,0.8,1.3,1.7,1.4V386.4z M229,381.8c-1.4,0.4-2.5,0.8-2.5,2.2c0,0.9,0.7,1.5,1.3,1.5
			c1,0,2.8-1,2.8-2.2v-1.9L229,381.8z"/>
		<path fill="#4C3D2A" d="M239.9,386.4c-0.9,0-2-0.1-2.7-0.1c-0.8,0-1.8,0.1-2.6,0.1v-0.5c1.8-0.2,1.8-0.5,1.8-2.7v-2.8
			c0-1.9-0.3-2-2.2-2V378c1.6-0.1,2.9-0.5,3.8-1.4c0,0.5-0.1,1.2-0.1,2.2c1-1,1.8-1.9,2.9-1.9c0.6,0,1.1,0.4,1.1,1
			c0,0.7-0.6,1.1-1.1,1.1c-0.1,0-0.4,0-0.4-0.1c0-0.1,0.1-0.2,0.1-0.3c0-0.4-0.3-0.5-0.6-0.5c-0.5,0-2,0.8-2,2.4v2.8
			c0,2.2,0,2.5,2.1,2.7V386.4z"/>
		<path fill="#4C3D2A" d="M250.5,383c-0.3,1.3-1.3,3.6-4.1,3.6c-2.2,0-3.9-1.2-3.9-4.7c0-3.1,1.8-5.1,4.3-5.1c3,0,3.4,2.5,3.4,3.8
			l-6.2,0.4c0,0.2,0,0.5,0,0.8c0,1.6,0.8,3.7,2.9,3.7c2,0,2.5-1.7,2.9-2.7L250.5,383z M247.8,380c0.3,0,1-0.2,1-0.7
			c0-0.8-0.8-1.8-1.8-1.8c-2.4,0-2.7,2.2-2.8,3L247.8,380z"/>
		<path fill="#4C3D2A" d="M263,380c-0.3-0.9-0.8-2.5-2.6-2.5c-1.1,0-1.8,0.5-1.8,1.4c0,2.3,5.5,1.4,5.5,5c0,1.4-1.2,2.8-3.1,2.8
			c-1.3,0-1.9-0.5-2.9-0.5c-0.3,0-0.5,0.1-0.7,0.3c0-0.3,0.1-0.7,0.1-1.3c0-0.8,0-1.4-0.1-2.2h0.5c0.2,1.2,0.7,3.1,3,3.1
			c1.1,0,2-0.6,2-1.6c0-2.3-5.4-1.5-5.4-4.8c0-1.4,1-2.6,3-2.6c1,0,1.8,0.4,2.3,0.4c0.2,0,0.4-0.2,0.7-0.3c0,0.3,0,0.6,0,0.9
			c0,0.4,0,1.2,0.1,2.1H263z"/>
		<path fill="#4C3D2A" d="M273.5,383c-0.3,1.3-1.3,3.6-4.1,3.6c-2.2,0-3.9-1.2-3.9-4.7c0-3.1,1.8-5.1,4.3-5.1c3,0,3.4,2.5,3.4,3.8
			l-6.2,0.4c0,0.2,0,0.5,0,0.8c0,1.6,0.8,3.7,2.9,3.7c2,0,2.5-1.7,2.9-2.7L273.5,383z M270.8,380c0.3,0,1-0.2,1-0.7
			c0-0.8-0.8-1.8-1.8-1.8c-2.4,0-2.7,2.2-2.8,3L270.8,380z"/>
		<path fill="#4C3D2A" d="M283.8,386.4c-0.3,0-0.6,0-0.9-0.1c-0.3,0-0.6,0-0.9,0c-0.6,0-1,0-1.5,0.4c0.1-0.7,0.2-1.4,0.2-1.9
			c-0.8,0.8-1.9,1.9-3.5,1.9c-1.1,0-2.1-0.9-2.1-2.3c0-1.9,1.8-2.4,2.8-2.7l2.2-0.7c0.6-0.2,0.6-0.6,0.6-1.7c0-1.2-0.4-1.6-1.4-1.6
			c-1.1,0-2.2,0.4-2.2,1c0,0.2,0.2,0.5,0.4,0.5c0.1,0,0.2,0,0.3,0c0,0.5-0.3,1.3-1.1,1.3c-0.5,0-1-0.4-1-1c0-1.9,3-2.7,4.5-2.7
			c1.7,0,2,1.1,2,2.3v5.4c0,1.4,0.8,1.3,1.7,1.4V386.4z M279.1,381.8c-1.4,0.4-2.5,0.8-2.5,2.2c0,0.9,0.7,1.5,1.3,1.5
			c1,0,2.8-1,2.8-2.2v-1.9L279.1,381.8z"/>
		<path fill="#4C3D2A" d="M290.1,386.4c-0.9,0-2-0.1-2.7-0.1c-0.8,0-1.8,0.1-2.6,0.1v-0.5c1.8-0.2,1.8-0.5,1.8-2.7v-2.8
			c0-1.9-0.3-2-2.2-2V378c1.6-0.1,2.9-0.5,3.8-1.4c0,0.5-0.1,1.2-0.1,2.2c1-1,1.8-1.9,2.9-1.9c0.6,0,1.1,0.4,1.1,1
			c0,0.7-0.6,1.1-1.1,1.1c-0.1,0-0.4,0-0.4-0.1c0-0.1,0.1-0.2,0.1-0.3c0-0.4-0.3-0.5-0.6-0.5c-0.5,0-2,0.8-2,2.4v2.8
			c0,2.2,0,2.5,2.1,2.7V386.4z"/>
		<path fill="#4C3D2A" d="M300.7,383c-0.4,1.4-1.2,3.6-4.1,3.6c-2.4,0-3.9-1.9-3.9-4.7c0-3.1,2-5.1,4.4-5.1c1.3,0,2.8,0.6,2.8,1.9
			c0,0.8-0.5,1.2-1.2,1.2c-0.4,0-1-0.3-1-1c0.5,0,0.6-0.3,0.6-0.5c0-0.6-0.6-0.9-1.3-0.9c-1.7,0-2.9,1.4-2.9,3.8
			c0,2.1,0.8,4.2,2.8,4.2c2,0,2.6-1.5,3-2.7L300.7,383z"/>
		<path fill="#4C3D2A" d="M312.5,386.4c-0.8,0-1.8-0.1-2.4-0.1c-0.8,0-1.8,0.1-2.6,0.1v-0.5c1.8-0.2,1.8-0.5,1.8-2.7v-3.4
			c0-0.9,0-1.9-1.4-1.9c-2,0-3.1,1.4-3.1,2.6v2.6c0,2.2,0,2.5,1.8,2.7v0.5c-0.8,0-1.8-0.1-2.4-0.1c-0.8,0-1.8,0.1-2.6,0.1v-0.5
			c1.8-0.2,1.8-0.5,1.8-2.7v-7.5c0-2.4,0-2.8-2.3-2.8v-0.5c1.5,0,2.9-0.3,4-1.1c0,0.7-0.1,2.9-0.1,4.3v3.1c1-0.9,2.4-2,4.4-2
			c1.5,0,1.6,1.2,1.6,2.3v4c0,2.2,0,2.5,1.8,2.7V386.4z"/>
		<path fill="#4C3D2A" d="M318.4,386.4c-0.8,0-1.8-0.1-2.4-0.1c-0.8,0-1.8,0.1-2.6,0.1v-0.5c1.8-0.2,1.8-0.5,1.8-2.7v-2.8
			c0-1.9-0.3-2-2.2-2V378c1.6-0.1,2.9-0.5,3.8-1.4c0,1.1-0.1,1.9-0.1,3.8v2.8c0,2.2,0,2.5,1.8,2.7V386.4z M315.6,374.4
			c-0.7,0-1.2-0.5-1.2-1.2c0-0.7,0.5-1.2,1.2-1.2c0.6,0,1.2,0.5,1.2,1.2C316.7,373.8,316.2,374.4,315.6,374.4z"/>
		<path fill="#4C3D2A" d="M330.6,386.4c-0.8,0-1.8-0.1-2.4-0.1c-0.8,0-1.8,0.1-2.6,0.1v-0.5c1.8-0.2,1.8-0.5,1.8-2.7v-3.4
			c0-0.9,0-1.9-1.4-1.9c-2,0-3.1,1.4-3.1,2.6v2.6c0,2.2,0,2.5,1.8,2.7v0.5c-0.8,0-1.8-0.1-2.4-0.1c-0.8,0-1.8,0.1-2.6,0.1v-0.5
			c1.8-0.2,1.8-0.5,1.8-2.7v-2.8c0-1.9-0.3-2-2.2-2V378c1.6-0.1,2.9-0.5,3.8-1.4c0,0.6-0.1,1.1-0.1,2.2c1-0.9,2.4-2,4.4-2
			c1.5,0,1.6,1.2,1.6,2.3v4c0,2.2,0,2.5,1.8,2.7V386.4z"/>
		<path fill="#4C3D2A" d="M338,385c0.4,0,1.8,0.5,1.8,1.9c0,2.3-2.6,3.6-5.3,3.6c-2.4,0-3.2-1.1-3.2-2.1c0-1.4,1.2-1.9,2.3-2.5
			c-0.6-0.2-1.6-0.5-1.6-1.2c0-1.1,0.8-1.2,1.8-1.7c-0.7-0.3-1.9-0.9-1.9-2.8c0-2,1.2-3.3,3.5-3.3c0.2,0,0.5,0,0.7,0
			c0.4-0.8,1.3-2.2,2.7-2.2c0.6,0,1.1,0.3,1.1,1c0,0.6-0.4,0.9-0.9,0.9c-0.2,0-0.4,0-0.5-0.1c0.1-0.1,0.2-0.2,0.2-0.4
			c0-0.2-0.1-0.4-0.5-0.4c-0.8,0-1.3,0.9-1.5,1.2c0.5,0.1,2.1,0.8,2.1,3c0,2.2-1.6,3.3-3.3,3.3h-0.8c-0.7,0-1.5,0.4-1.5,0.9
			c0,0.5,0.9,0.6,1.9,0.6L338,385z M335.1,386.1c-0.3,0-0.6-0.1-0.9-0.2c-0.7,0.5-1.6,1.1-1.6,2.1c0,1,1,1.5,2.6,1.5
			c1.8,0,3.6-0.9,3.6-2.1c0-0.8-1-1.1-2-1.1L335.1,386.1z M337.2,379.9c0-1.2-0.5-2.5-1.8-2.5s-1.9,1.3-1.9,2.7
			c0,1.4,0.5,2.5,1.8,2.5C336.7,382.6,337.2,381.4,337.2,379.9z"/>
		<path fill="#4C3D2A" d="M351.5,386.4c-0.9,0-2.1-0.1-2.9-0.1c-0.8,0-1.8,0.1-2.6,0.1v-0.5c1.8-0.2,1.8-0.5,1.8-2.7v-5.1H346v-0.5
			c1.4-0.2,1.8-0.7,1.8-1.7c0-1.6,0.5-4.2,3.8-4.2c1,0,2.1,0.6,2.1,1.5c0,0.9-0.4,1.2-1,1.2c-0.6,0-0.8-0.3-1-0.9
			c0.3,0,0.5-0.2,0.5-0.6c0-0.4-0.5-0.7-1-0.7c-1.5,0-1.9,1.3-1.9,2.8v2.1l2.7-0.2v1h-2.7v5.1c0,2.2,0,2.5,2.3,2.7V386.4z"/>
		<path fill="#4C3D2A" d="M357.6,386.6c-2.8,0-4.5-2.2-4.5-4.9s1.7-4.9,4.5-4.9s4.5,2.2,4.5,4.9S360.3,386.6,357.6,386.6z
			 M360.2,381.7c0-2.4-0.7-4.3-2.7-4.3s-2.7,1.8-2.7,4.3s0.7,4.2,2.7,4.2S360.2,384.2,360.2,381.7z"/>
		<path fill="#4C3D2A" d="M368.9,386.4c-0.9,0-2-0.1-2.7-0.1c-0.8,0-1.8,0.1-2.6,0.1v-0.5c1.8-0.2,1.8-0.5,1.8-2.7v-2.8
			c0-1.9-0.3-2-2.2-2V378c1.6-0.1,2.9-0.5,3.8-1.4c0,0.5-0.1,1.2-0.1,2.2c1-1,1.8-1.9,2.9-1.9c0.6,0,1.1,0.4,1.1,1
			c0,0.7-0.6,1.1-1.1,1.1c-0.1,0-0.4,0-0.4-0.1c0-0.1,0.1-0.2,0.1-0.3c0-0.4-0.3-0.5-0.6-0.5c-0.5,0-2,0.8-2,2.4v2.8
			c0,2.2,0,2.5,2.1,2.7V386.4z"/>
		<path fill="#4C3D2A" d="M9.6,410.8c-0.3,0-0.6,0-0.9-0.1c-0.3,0-0.6,0-0.9,0c-0.6,0-1,0-1.5,0.4c0.1-0.7,0.2-1.4,0.2-1.9
			c-0.8,0.8-1.9,1.9-3.5,1.9c-1.1,0-2.1-0.9-2.1-2.3c0-1.9,1.8-2.4,2.8-2.7l2.2-0.7c0.6-0.2,0.6-0.6,0.6-1.7c0-1.2-0.4-1.6-1.4-1.6
			c-1.1,0-2.2,0.4-2.2,1c0,0.2,0.2,0.5,0.4,0.5c0.1,0,0.2,0,0.3,0c0,0.5-0.3,1.3-1.1,1.3c-0.5,0-1-0.4-1-1c0-1.9,3-2.7,4.5-2.7
			c1.7,0,2,1.1,2,2.3v5.4c0,1.4,0.8,1.3,1.7,1.4V410.8z M4.9,406.3c-1.4,0.4-2.5,0.8-2.5,2.2c0,0.9,0.7,1.5,1.3,1.5
			c1,0,2.8-1,2.8-2.2v-1.9L4.9,406.3z"/>
		<path fill="#4C3D2A" d="M21.7,410.8c-0.8,0-1.8-0.1-2.4-0.1c-0.8,0-1.8,0.1-2.6,0.1v-0.5c1.8-0.2,1.8-0.5,1.8-2.7v-3.4
			c0-0.9,0-1.9-1.4-1.9c-2,0-3.1,1.4-3.1,2.6v2.6c0,2.2,0,2.5,1.8,2.7v0.5c-0.8,0-1.8-0.1-2.4-0.1c-0.8,0-1.8,0.1-2.6,0.1v-0.5
			c1.8-0.2,1.8-0.5,1.8-2.7v-2.8c0-1.9-0.3-2-2.2-2v-0.5c1.6-0.1,2.9-0.5,3.8-1.4c0,0.6-0.1,1.1-0.1,2.2c1-0.9,2.4-2,4.4-2
			c1.5,0,1.7,1.2,1.7,2.3v4c0,2.2,0,2.5,1.8,2.7V410.8z"/>
		<path fill="#4C3D2A" d="M32.9,410.8c-0.8,0-1.8-0.1-2.4-0.1c-0.8,0-1.8,0.1-2.6,0.1v-0.5c1.8-0.2,1.8-0.5,1.8-2.7v-2.8
			c0-1.9-0.3-2-2.2-2v-0.5c1.6-0.1,2.9-0.5,3.8-1.4c0,1.1-0.1,1.9-0.1,3.8v2.8c0,2.2,0,2.5,1.8,2.7V410.8z M30,398.8
			c-0.7,0-1.2-0.5-1.2-1.2c0-0.7,0.5-1.2,1.2-1.2c0.6,0,1.2,0.5,1.2,1.2C31.2,398.3,30.7,398.8,30,398.8z"/>
		<path fill="#4C3D2A" d="M45,410.8c-0.8,0-1.8-0.1-2.4-0.1c-0.8,0-1.8,0.1-2.6,0.1v-0.5c1.8-0.2,1.8-0.5,1.8-2.7v-3.4
			c0-0.9,0-1.9-1.4-1.9c-2,0-3.1,1.4-3.1,2.6v2.6c0,2.2,0,2.5,1.8,2.7v0.5c-0.8,0-1.8-0.1-2.4-0.1c-0.8,0-1.8,0.1-2.6,0.1v-0.5
			c1.8-0.2,1.8-0.5,1.8-2.7v-2.8c0-1.9-0.3-2-2.2-2v-0.5c1.6-0.1,2.9-0.5,3.8-1.4c0,0.6-0.1,1.1-0.1,2.2c1-0.9,2.4-2,4.4-2
			c1.5,0,1.7,1.2,1.7,2.3v4c0,2.2,0,2.5,1.8,2.7V410.8z"/>
		<path fill="#4C3D2A" d="M51,410.8c-0.8,0-1.8-0.1-2.4-0.1c-0.8,0-1.8,0.1-2.6,0.1v-0.5c1.8-0.2,1.8-0.5,1.8-2.7v-2.8
			c0-1.9-0.3-2-2.2-2v-0.5c1.6-0.1,2.9-0.5,3.8-1.4c0,1.1-0.1,1.9-0.1,3.8v2.8c0,2.2,0,2.5,1.8,2.7V410.8z M48.1,398.8
			c-0.7,0-1.2-0.5-1.2-1.2c0-0.7,0.5-1.2,1.2-1.2c0.6,0,1.2,0.5,1.2,1.2C49.3,398.3,48.8,398.8,48.1,398.8z"/>
		<path fill="#4C3D2A" d="M58.2,409.8c-0.9,0.6-2,1.3-3.3,1.3c-1.2,0-1.3-1.2-1.3-2.6v-5.9h-1.7v-0.5c1.8-0.2,2.1-1.2,2.6-3.4h0.6
			c0,0.7-0.1,2.3-0.1,3.1l2.9-0.2v1H55v4.9c0,2.3,0.2,2.6,1.1,2.6c0.7,0,1.3-0.3,1.9-0.7L58.2,409.8z"/>
		<path fill="#4C3D2A" d="M63.8,410.8c-0.8,0-1.8-0.1-2.4-0.1c-0.8,0-1.8,0.1-2.6,0.1v-0.5c1.8-0.2,1.8-0.5,1.8-2.7v-2.8
			c0-1.9-0.3-2-2.2-2v-0.5c1.6-0.1,2.9-0.5,3.8-1.4c0,1.1-0.1,1.9-0.1,3.8v2.8c0,2.2,0,2.5,1.8,2.7V410.8z M61,398.8
			c-0.7,0-1.2-0.5-1.2-1.2c0-0.7,0.5-1.2,1.2-1.2c0.6,0,1.2,0.5,1.2,1.2C62.1,398.3,61.6,398.8,61,398.8z"/>
		<path fill="#4C3D2A" d="M73.7,410.8c-0.3,0-0.6,0-0.9-0.1c-0.3,0-0.6,0-0.9,0c-0.6,0-1,0-1.5,0.4c0.1-0.7,0.2-1.4,0.2-1.9
			c-0.8,0.8-1.9,1.9-3.5,1.9c-1.1,0-2.1-0.9-2.1-2.3c0-1.9,1.8-2.4,2.8-2.7l2.2-0.7c0.6-0.2,0.6-0.6,0.6-1.7c0-1.2-0.4-1.6-1.4-1.6
			c-1.1,0-2.2,0.4-2.2,1c0,0.2,0.2,0.5,0.4,0.5c0.1,0,0.2,0,0.3,0c0,0.5-0.3,1.3-1.1,1.3c-0.5,0-1-0.4-1-1c0-1.9,3-2.7,4.5-2.7
			c1.7,0,2,1.1,2,2.3v5.4c0,1.4,0.8,1.3,1.7,1.4V410.8z M69,406.3c-1.4,0.4-2.5,0.8-2.5,2.2c0,0.9,0.7,1.5,1.3,1.5
			c1,0,2.8-1,2.8-2.2v-1.9L69,406.3z"/>
		<path fill="#4C3D2A" d="M79.3,410.8c-0.8,0-1.8-0.1-2.4-0.1c-0.8,0-1.8,0.1-2.6,0.1v-0.5c1.8-0.2,1.8-0.5,1.8-2.7v-7.5
			c0-2.4,0-2.8-2.3-2.8v-0.5c1.5,0,2.9-0.3,4-1.1c0,0.7-0.1,2.9-0.1,4.3v7.5c0,2.2,0,2.5,1.8,2.7V410.8z"/>
		<path fill="#4C3D2A" d="M90.6,410.8c-0.8,0-1.8-0.1-2.4-0.1c-0.8,0-1.8,0.1-2.6,0.1v-0.5c1.8-0.2,1.8-0.5,1.8-2.7v-2.8
			c0-1.9-0.3-2-2.2-2v-0.5c1.6-0.1,2.9-0.5,3.8-1.4c0,1.1-0.1,1.9-0.1,3.8v2.8c0,2.2,0,2.5,1.8,2.7V410.8z M87.7,398.8
			c-0.7,0-1.2-0.5-1.2-1.2c0-0.7,0.5-1.2,1.2-1.2c0.6,0,1.2,0.5,1.2,1.2C88.9,398.3,88.4,398.8,87.7,398.8z"/>
		<path fill="#4C3D2A" d="M101.6,410.8c-0.3,0-0.6,0-0.9-0.1c-0.3,0-0.6,0-0.9,0c-0.5,0-1.2,0.1-1.6,0.4c0-0.5,0.1-1.3,0.1-2
			c-1.2,1-2.1,2-3.7,2c-1.8,0-2.9-1.8-2.9-4.1c0-3.6,1.7-5.7,4.2-5.7c1.3,0,1.8,0.4,2.4,0.7v-1.9c0-2.4,0-2.8-2.3-2.8v-0.5
			c1.5,0,2.9-0.3,4-1.1c0,0.7-0.1,2.9-0.1,4.3v7.5c0,2.2,0,2.5,1.8,2.7V410.8z M98.3,404.9c0-1.7-0.4-3-2.1-3
			c-2.1,0-2.8,2.1-2.8,4.6c0,2.1,0.7,3.4,2.2,3.4c1.8,0,2.7-1.8,2.7-2.7V404.9z"/>
		<path fill="#4C3D2A" d="M110.5,407.5c-0.3,1.3-1.3,3.6-4.1,3.6c-2.2,0-3.9-1.2-3.9-4.7c0-3.1,1.8-5.1,4.3-5.1c3,0,3.4,2.5,3.4,3.8
			l-6.2,0.4c0,0.2,0,0.5,0,0.8c0,1.6,0.8,3.7,2.9,3.7c2,0,2.5-1.7,2.9-2.7L110.5,407.5z M107.8,404.5c0.3,0,1-0.2,1-0.7
			c0-0.8-0.8-1.8-1.8-1.8c-2.4,0-2.7,2.2-2.8,3L107.8,404.5z"/>
		<path fill="#4C3D2A" d="M120.9,410.8c-0.3,0-0.6,0-0.9-0.1c-0.3,0-0.6,0-0.9,0c-0.6,0-1,0-1.5,0.4c0.1-0.7,0.2-1.4,0.2-1.9
			c-0.8,0.8-1.9,1.9-3.5,1.9c-1.1,0-2.1-0.9-2.1-2.3c0-1.9,1.8-2.4,2.8-2.7l2.2-0.7c0.6-0.2,0.6-0.6,0.6-1.7c0-1.2-0.4-1.6-1.4-1.6
			c-1.1,0-2.2,0.4-2.2,1c0,0.2,0.2,0.5,0.4,0.5c0.1,0,0.2,0,0.3,0c0,0.5-0.3,1.3-1.1,1.3c-0.5,0-1-0.4-1-1c0-1.9,3-2.7,4.5-2.7
			c1.7,0,2,1.1,2,2.3v5.4c0,1.4,0.8,1.3,1.7,1.4V410.8z M116.1,406.3c-1.4,0.4-2.5,0.8-2.5,2.2c0,0.9,0.7,1.5,1.3,1.5
			c1,0,2.8-1,2.8-2.2v-1.9L116.1,406.3z"/>
		<path fill="#4C3D2A" d="M123.7,411.1c-0.7,0-1.2-0.5-1.2-1.2c0-0.7,0.5-1.2,1.2-1.2s1.2,0.5,1.2,1.2
			C124.9,410.5,124.3,411.1,123.7,411.1z"/>
		<path fill="#4C3D2A" d="M142.1,410.8c-0.8,0-2.1-0.1-3.4-0.1s-2.7,0.1-3.5,0.1v-0.5c2.4-0.3,2.6-0.5,2.6-3v-1.2
			c0-0.9-0.2-1.1-0.7-1.9l-2.9-5c-0.9-1.4-1.2-1.7-2.3-1.7v-0.5c0.9,0,1.9,0.1,2.8,0.1c0.8,0,2.2-0.1,2.8-0.1v0.5
			c-1.1,0-1.9,0-1.9,0.7c0,0.5,0.3,0.9,0.6,1.3l2.9,4.8l2.4-4.4c0.2-0.5,0.7-1,0.7-1.6c0-0.8-1.1-0.8-2.2-0.8v-0.5
			c0.7,0,1.8,0.1,3.1,0.1c0.9,0,1.8-0.1,2.2-0.1v0.5c-1,0-1.5,0.3-2.5,1.9l-2.6,4.4c-0.6,1.1-0.8,1.1-0.8,2.2v1.2
			c0,2.5,0.2,2.7,2.6,3V410.8z"/>
		<path fill="#4C3D2A" d="M148.2,411.1c-2.8,0-4.5-2.2-4.5-4.9s1.7-4.9,4.5-4.9s4.5,2.2,4.5,4.9S151,411.1,148.2,411.1z
			 M150.9,406.2c0-2.4-0.7-4.3-2.7-4.3s-2.7,1.8-2.7,4.3s0.7,4.2,2.7,4.2S150.9,408.6,150.9,406.2z"/>
		<path fill="#4C3D2A" d="M164.8,410.8c-0.3,0-0.6,0-0.9-0.1c-0.3,0-0.6,0-0.9,0c-0.6,0-1,0-1.5,0.4c0.1-0.7,0.2-1.4,0.2-1.9
			c-1,0.9-2.4,1.9-4.4,1.9c-1.5,0-1.6-1.2-1.6-2.3v-3.9c0-1.9-0.3-2-2-2v-0.5c1.5-0.1,2.7-0.5,3.6-1.4c0,1.1-0.1,1.9-0.1,3.8v3.2
			c0,0.9,0,1.9,1.4,1.9c1.6,0,3.1-1,3.1-2v-3.1c0-1.9-0.3-2-2-2v-0.5c1.5-0.1,2.7-0.5,3.6-1.4c0,1.1-0.1,1.9-0.1,3.8v4.1
			c0,1.4,0.8,1.3,1.7,1.4V410.8z"/>
		<path fill="#4C3D2A" d="M173.5,403.1c1.1-0.9,2.2-1.9,3.7-1.9c2.1,0,2.9,1.9,2.9,4.2c0,3.4-1.5,5.6-4.1,5.6
			c-1.6,0-2.2-0.7-2.9-1.3c-0.3,0.8-0.9,1.1-1.9,1.7l-0.2-0.4c0.6-0.9,0.9-0.9,0.9-3.5v-7.5c0-2.4,0-2.8-2.3-2.8v-0.5
			c1.5,0,2.9-0.3,4-1.1c0,0.7-0.1,2.9-0.1,4.3V403.1z M173.5,407c0,1.4,0.1,3.4,2.5,3.4c1.6,0,2.5-1.8,2.5-4.2
			c0-2.3-0.6-3.9-2.3-3.9c-2.2,0-2.7,1.7-2.7,3.4V407z"/>
		<path fill="#4C3D2A" d="M187.1,410.8c-0.9,0-2-0.1-2.7-0.1c-0.8,0-1.8,0.1-2.6,0.1v-0.5c1.8-0.2,1.8-0.5,1.8-2.7v-2.8
			c0-1.9-0.3-2-2.2-2v-0.5c1.6-0.1,2.9-0.5,3.8-1.4c0,0.5-0.1,1.2-0.1,2.2c1-1,1.8-1.9,2.9-1.9c0.6,0,1.1,0.4,1.1,1
			c0,0.7-0.6,1.1-1.1,1.1c-0.1,0-0.4,0-0.4-0.1c0-0.1,0.1-0.2,0.1-0.3c0-0.4-0.3-0.5-0.6-0.5c-0.5,0-2,0.8-2,2.4v2.8
			c0,2.2,0,2.5,2.1,2.7V410.8z"/>
		<path fill="#4C3D2A" d="M198.6,410.8c-0.3,0-0.6,0-0.9-0.1c-0.3,0-0.6,0-0.9,0c-0.6,0-1,0-1.5,0.4c0.1-0.7,0.2-1.4,0.2-1.9
			c-0.8,0.8-1.9,1.9-3.5,1.9c-1.1,0-2.1-0.9-2.1-2.3c0-1.9,1.8-2.4,2.8-2.7l2.2-0.7c0.6-0.2,0.6-0.6,0.6-1.7c0-1.2-0.4-1.6-1.4-1.6
			c-1.1,0-2.2,0.4-2.2,1c0,0.2,0.2,0.5,0.4,0.5c0.1,0,0.2,0,0.3,0c0,0.5-0.3,1.3-1.1,1.3c-0.5,0-1-0.4-1-1c0-1.9,3-2.7,4.5-2.7
			c1.7,0,2,1.1,2,2.3v5.4c0,1.4,0.8,1.3,1.7,1.4V410.8z M193.9,406.3c-1.4,0.4-2.5,0.8-2.5,2.2c0,0.9,0.7,1.5,1.3,1.5
			c1,0,2.8-1,2.8-2.2v-1.9L193.9,406.3z"/>
		<path fill="#4C3D2A" d="M204.5,410.8c-0.8,0-1.8-0.1-2.4-0.1c-0.8,0-1.8,0.1-2.6,0.1v-0.5c1.8-0.2,1.8-0.5,1.8-2.7v-2.8
			c0-1.9-0.3-2-2.2-2v-0.5c1.6-0.1,2.9-0.5,3.8-1.4c0,1.1-0.1,1.9-0.1,3.8v2.8c0,2.2,0,2.5,1.8,2.7V410.8z M201.7,398.8
			c-0.7,0-1.2-0.5-1.2-1.2c0-0.7,0.5-1.2,1.2-1.2c0.6,0,1.2,0.5,1.2,1.2C202.8,398.3,202.3,398.8,201.7,398.8z"/>
		<path fill="#4C3D2A" d="M216.7,410.8c-0.8,0-1.8-0.1-2.4-0.1c-0.8,0-1.8,0.1-2.6,0.1v-0.5c1.8-0.2,1.8-0.5,1.8-2.7v-3.4
			c0-0.9,0-1.9-1.4-1.9c-2,0-3.1,1.4-3.1,2.6v2.6c0,2.2,0,2.5,1.8,2.7v0.5c-0.8,0-1.8-0.1-2.4-0.1c-0.8,0-1.8,0.1-2.6,0.1v-0.5
			c1.8-0.2,1.8-0.5,1.8-2.7v-2.8c0-1.9-0.3-2-2.2-2v-0.5c1.6-0.1,2.9-0.5,3.8-1.4c0,0.6-0.1,1.1-0.1,2.2c1-0.9,2.4-2,4.4-2
			c1.5,0,1.6,1.2,1.6,2.3v4c0,2.2,0,2.5,1.8,2.7V410.8z"/>
		<path fill="#4C3D2A" d="M238.9,410.8c-0.8,0-1.7-0.1-2.4-0.1c-0.9,0-1.8,0.1-2.6,0.1v-0.5c1.8-0.2,1.8-0.5,1.8-2.7v-3.4
			c0-0.9,0-1.9-1-1.9c-1.9,0-3,1.3-3,2.5v2.8c0,2.2,0,2.5,1.5,2.7v0.5c-0.8,0-1.5-0.1-2.2-0.1c-0.8,0-1.6,0.1-2.4,0.1v-0.5
			c1.5-0.2,1.5-0.5,1.5-2.7v-3.4c0-0.9,0-1.9-1-1.9c-1.9,0-3,1.3-3,2.5v2.8c0,2.2,0,2.5,1.8,2.7v0.5c-0.8,0-1.8-0.1-2.4-0.1
			c-0.8,0-1.8,0.1-2.6,0.1v-0.5c1.8-0.2,1.8-0.5,1.8-2.7v-2.8c0-1.9-0.3-2-2.2-2v-0.5c1.6-0.1,2.9-0.5,3.8-1.4
			c0,0.7-0.1,1.3-0.1,2.1c0.9-0.9,2.5-1.8,4-1.8c1.1,0,1.4,0.9,1.5,1.8c0.9-0.9,2.5-1.8,4-1.8c1.3,0,1.4,1.2,1.4,2.3v4
			c0,2.2,0,2.5,1.8,2.7V410.8z"/>
		<path fill="#4C3D2A" d="M248.7,410.8c-0.3,0-0.6,0-0.9-0.1c-0.3,0-0.6,0-0.9,0c-0.6,0-1,0-1.5,0.4c0.1-0.7,0.2-1.4,0.2-1.9
			c-0.8,0.8-1.9,1.9-3.5,1.9c-1.1,0-2.1-0.9-2.1-2.3c0-1.9,1.8-2.4,2.8-2.7l2.2-0.7c0.6-0.2,0.6-0.6,0.6-1.7c0-1.2-0.4-1.6-1.4-1.6
			c-1.1,0-2.2,0.4-2.2,1c0,0.2,0.2,0.5,0.4,0.5c0.1,0,0.2,0,0.3,0c0,0.5-0.3,1.3-1.1,1.3c-0.5,0-1-0.4-1-1c0-1.9,3-2.7,4.5-2.7
			c1.7,0,2,1.1,2,2.3v5.4c0,1.4,0.8,1.3,1.7,1.4V410.8z M244,406.3c-1.4,0.4-2.5,0.8-2.5,2.2c0,0.9,0.7,1.5,1.3,1.5
			c1,0,2.8-1,2.8-2.2v-1.9L244,406.3z"/>
		<path fill="#4C3D2A" d="M260,410.8c-0.2,0-0.5,0-0.9-0.1c-0.3,0-0.6,0-0.8,0c-0.4,0-0.8,0.1-1.2,0.3c0-0.1,0-0.3,0-0.4
			c0-0.1-0.1-0.2-0.6-1l-2.5-3.5l-1.3,1.3c0,2.5,0,2.8,1.8,3v0.5c-0.8,0-1.8-0.1-2.4-0.1c-0.8,0-1.8,0.1-2.6,0.1v-0.5
			c1.8-0.2,1.8-0.5,1.8-2.7v-7.5c0-2.4,0-2.8-2.3-2.8v-0.5c1.5,0,2.9-0.3,4-1.1c0,0.7-0.1,2.9-0.1,4.3v6.4l2.4-2.4
			c0.7-0.7,0.9-1.2,0.9-1.4c0-0.5-0.7-0.6-1.4-0.6v-0.5c0.4,0,1.8,0.1,2.4,0.1c0.8,0,1.7-0.1,2.3-0.1v0.5c-1.4,0.1-1.7,0.3-2.9,1.6
			l-1.4,1.4l2.8,3.8c0.7,1,1.1,1.3,2.1,1.5V410.8z"/>
		<path fill="#4C3D2A" d="M268.6,407.5c-0.3,1.3-1.3,3.6-4.1,3.6c-2.2,0-3.9-1.2-3.9-4.7c0-3.1,1.8-5.1,4.3-5.1c3,0,3.4,2.5,3.4,3.8
			l-6.2,0.4c0,0.2,0,0.5,0,0.8c0,1.6,0.8,3.7,2.9,3.7c2,0,2.5-1.7,2.9-2.7L268.6,407.5z M265.9,404.5c0.3,0,1-0.2,1-0.7
			c0-0.8-0.8-1.8-1.8-1.8c-2.4,0-2.7,2.2-2.8,3L265.9,404.5z"/>
		<path fill="#4C3D2A" d="M275.8,404.5c-0.3-0.9-0.8-2.5-2.6-2.5c-1.1,0-1.8,0.5-1.8,1.4c0,2.3,5.5,1.4,5.5,5c0,1.4-1.2,2.8-3.1,2.8
			c-1.3,0-1.9-0.5-2.9-0.5c-0.3,0-0.5,0.1-0.7,0.3c0-0.3,0.1-0.7,0.1-1.3c0-0.8,0-1.4-0.1-2.2h0.5c0.2,1.2,0.7,3.1,3,3.1
			c1.1,0,2-0.6,2-1.6c0-2.3-5.4-1.5-5.4-4.8c0-1.4,1-2.6,3-2.6c1,0,1.8,0.4,2.3,0.4c0.2,0,0.4-0.2,0.7-0.3c0,0.3,0,0.6,0,0.9
			c0,0.4,0,1.2,0.1,2.1H275.8z"/>
		<path fill="#4C3D2A" d="M293.6,410.8c-0.3,0-0.6,0-0.9-0.1c-0.3,0-0.6,0-0.9,0c-0.5,0-1.2,0.1-1.6,0.4c0-0.5,0.1-1.3,0.1-2
			c-1.2,1-2.1,2-3.7,2c-1.8,0-2.9-1.8-2.9-4.1c0-3.6,1.7-5.7,4.2-5.7c1.3,0,1.8,0.4,2.4,0.7v-1.9c0-2.4,0-2.8-2.3-2.8v-0.5
			c1.5,0,2.9-0.3,4-1.1c0,0.7-0.1,2.9-0.1,4.3v7.5c0,2.2,0,2.5,1.8,2.7V410.8z M290.3,404.9c0-1.7-0.4-3-2.1-3
			c-2.1,0-2.8,2.1-2.8,4.6c0,2.1,0.7,3.4,2.2,3.4c1.8,0,2.7-1.8,2.7-2.7V404.9z"/>
		<path fill="#4C3D2A" d="M302.5,407.5c-0.3,1.3-1.3,3.6-4.1,3.6c-2.2,0-3.9-1.2-3.9-4.7c0-3.1,1.8-5.1,4.3-5.1c3,0,3.4,2.5,3.4,3.8
			l-6.2,0.4c0,0.2,0,0.5,0,0.8c0,1.6,0.8,3.7,2.9,3.7c2,0,2.5-1.7,2.9-2.7L302.5,407.5z M299.8,404.5c0.3,0,1-0.2,1-0.7
			c0-0.8-0.8-1.8-1.8-1.8c-2.4,0-2.7,2.2-2.8,3L299.8,404.5z"/>
		<path fill="#4C3D2A" d="M312,407.5c-0.3,1.3-1.3,3.6-4.1,3.6c-2.2,0-3.9-1.2-3.9-4.7c0-3.1,1.8-5.1,4.3-5.1c3,0,3.4,2.5,3.4,3.8
			l-6.2,0.4c0,0.2,0,0.5,0,0.8c0,1.6,0.8,3.7,2.9,3.7c2,0,2.5-1.7,2.9-2.7L312,407.5z M309.3,404.5c0.3,0,1-0.2,1-0.7
			c0-0.8-0.8-1.8-1.8-1.8c-2.4,0-2.7,2.2-2.8,3L309.3,404.5z"/>
		<path fill="#4C3D2A" d="M318.6,415.1c-1,0-2.2-0.1-3-0.1c-0.8,0-1.8,0.1-2.6,0.1v-0.5c1.8-0.2,1.8-0.5,1.8-2.7v-7c0-1.9-0.3-2-2-2
			v-0.5c1.5-0.1,2.7-0.5,3.6-1.4c0,0.7-0.1,1.3-0.1,2.2c1.2-1,2.1-2,3.7-2c1.8,0,2.9,1.8,2.9,4.1c0,3.6-1.7,5.7-4.2,5.7
			c-1.3,0-1.8-0.4-2.4-0.7v1.6c0,2.2,0,2.5,2.4,2.7V415.1z M316.3,407.4c0,1.6,0.4,3,2.1,3c2.1,0,2.8-2.1,2.8-4.6
			c0-2.1-0.7-3.4-2.2-3.4c-1.8,0-2.7,1.8-2.7,2.7V407.4z"/>
		<path fill="#4C3D2A" d="M332.4,407.5c-0.3,1.3-1.3,3.6-4.1,3.6c-2.2,0-3.9-1.2-3.9-4.7c0-3.1,1.8-5.1,4.3-5.1c3,0,3.4,2.5,3.4,3.8
			l-6.2,0.4c0,0.2,0,0.5,0,0.8c0,1.6,0.8,3.7,2.9,3.7c2,0,2.5-1.7,2.9-2.7L332.4,407.5z M329.6,404.5c0.3,0,1-0.2,1-0.7
			c0-0.8-0.8-1.8-1.8-1.8c-2.4,0-2.7,2.2-2.8,3L329.6,404.5z"/>
		<path fill="#4C3D2A" d="M339.2,410.8c-0.9,0-2-0.1-2.7-0.1c-0.8,0-1.8,0.1-2.6,0.1v-0.5c1.8-0.2,1.8-0.5,1.8-2.7v-2.8
			c0-1.9-0.3-2-2.2-2v-0.5c1.6-0.1,2.9-0.5,3.8-1.4c0,0.5-0.1,1.2-0.1,2.2c1-1,1.8-1.9,2.9-1.9c0.6,0,1.1,0.4,1.1,1
			c0,0.7-0.6,1.1-1.1,1.1c-0.1,0-0.4,0-0.4-0.1c0-0.1,0.1-0.2,0.1-0.3c0-0.4-0.3-0.5-0.6-0.5c-0.5,0-2,0.8-2,2.4v2.8
			c0,2.2,0,2.5,2.1,2.7V410.8z"/>
		<path fill="#4C3D2A" d="M8.8,431.9c-0.4,1.4-1.2,3.6-4.1,3.6c-2.4,0-3.9-1.9-3.9-4.7c0-3.1,2-5.1,4.4-5.1c1.3,0,2.8,0.6,2.8,1.9
			c0,0.8-0.5,1.2-1.2,1.2c-0.4,0-1-0.3-1-1c0.5,0,0.6-0.3,0.6-0.5c0-0.6-0.6-0.9-1.3-0.9c-1.7,0-2.9,1.4-2.9,3.8
			c0,2.1,0.8,4.2,2.8,4.2c2,0,2.6-1.5,3-2.7L8.8,431.9z"/>
		<path fill="#4C3D2A" d="M14.3,435.5c-2.8,0-4.5-2.2-4.5-4.9s1.7-4.9,4.5-4.9s4.5,2.2,4.5,4.9S17.1,435.5,14.3,435.5z M17,430.6
			c0-2.4-0.7-4.3-2.7-4.3s-2.7,1.8-2.7,4.3s0.7,4.2,2.7,4.2S17,433.1,17,430.6z"/>
		<path fill="#4C3D2A" d="M31.5,435.3c-0.8,0-1.8-0.1-2.4-0.1c-0.8,0-1.8,0.1-2.6,0.1v-0.5c1.8-0.2,1.8-0.5,1.8-2.7v-3.4
			c0-0.9,0-1.9-1.4-1.9c-2,0-3.1,1.4-3.1,2.6v2.6c0,2.2,0,2.5,1.8,2.7v0.5c-0.8,0-1.8-0.1-2.4-0.1c-0.8,0-1.8,0.1-2.6,0.1v-0.5
			c1.8-0.2,1.8-0.5,1.8-2.7v-2.8c0-1.9-0.3-2-2.2-2v-0.5c1.6-0.1,2.9-0.5,3.8-1.4c0,0.6-0.1,1.1-0.1,2.2c1-0.9,2.4-2,4.4-2
			c1.5,0,1.6,1.2,1.6,2.3v4c0,2.2,0,2.5,1.8,2.7V435.3z"/>
		<path fill="#4C3D2A" d="M43.6,435.3c-0.8,0-1.8-0.1-2.4-0.1c-0.8,0-1.8,0.1-2.6,0.1v-0.5c1.8-0.2,1.8-0.5,1.8-2.7v-3.4
			c0-0.9,0-1.9-1.4-1.9c-2,0-3.1,1.4-3.1,2.6v2.6c0,2.2,0,2.5,1.8,2.7v0.5c-0.8,0-1.8-0.1-2.4-0.1c-0.8,0-1.8,0.1-2.6,0.1v-0.5
			c1.8-0.2,1.8-0.5,1.8-2.7v-2.8c0-1.9-0.3-2-2.2-2v-0.5c1.6-0.1,2.9-0.5,3.8-1.4c0,0.6-0.1,1.1-0.1,2.2c1-0.9,2.4-2,4.4-2
			c1.5,0,1.6,1.2,1.6,2.3v4c0,2.2,0,2.5,1.8,2.7V435.3z"/>
		<path fill="#4C3D2A" d="M52.5,431.9c-0.3,1.3-1.3,3.6-4.1,3.6c-2.2,0-3.9-1.2-3.9-4.7c0-3.1,1.8-5.1,4.3-5.1c3,0,3.4,2.5,3.4,3.8
			l-6.2,0.4c0,0.2,0,0.5,0,0.8c0,1.6,0.8,3.7,2.9,3.7c2,0,2.5-1.7,2.9-2.7L52.5,431.9z M49.8,428.9c0.3,0,1-0.2,1-0.7
			c0-0.8-0.8-1.8-1.8-1.8c-2.4,0-2.7,2.2-2.8,3L49.8,428.9z"/>
		<path fill="#4C3D2A" d="M62,431.9c-0.4,1.4-1.2,3.6-4.1,3.6c-2.4,0-3.9-1.9-3.9-4.7c0-3.1,2-5.1,4.4-5.1c1.3,0,2.8,0.6,2.8,1.9
			c0,0.8-0.5,1.2-1.2,1.2c-0.4,0-1-0.3-1-1c0.5,0,0.6-0.3,0.6-0.5c0-0.6-0.6-0.9-1.3-0.9c-1.7,0-2.9,1.4-2.9,3.8
			c0,2.1,0.8,4.2,2.8,4.2c2,0,2.6-1.5,3-2.7L62,431.9z"/>
		<path fill="#4C3D2A" d="M69.1,434.2c-0.9,0.6-2,1.3-3.3,1.3c-1.2,0-1.3-1.2-1.3-2.6v-5.9h-1.7v-0.5c1.8-0.2,2.1-1.2,2.6-3.4H66
			c0,0.7-0.1,2.3-0.1,3.1l2.9-0.2v1H66v4.9c0,2.3,0.2,2.6,1.1,2.6c0.7,0,1.3-0.3,1.9-0.7L69.1,434.2z"/>
		<path fill="#4C3D2A" d="M74.8,435.3c-0.8,0-1.8-0.1-2.4-0.1c-0.8,0-1.8,0.1-2.6,0.1v-0.5c1.8-0.2,1.8-0.5,1.8-2.7v-2.8
			c0-1.9-0.3-2-2.2-2v-0.5c1.6-0.1,2.9-0.5,3.8-1.4c0,1.1-0.1,1.9-0.1,3.8v2.8c0,2.2,0,2.5,1.8,2.7V435.3z M71.9,423.3
			c-0.7,0-1.2-0.5-1.2-1.2c0-0.7,0.5-1.2,1.2-1.2c0.6,0,1.2,0.5,1.2,1.2C73.1,422.7,72.5,423.3,71.9,423.3z"/>
		<path fill="#4C3D2A" d="M80.4,435.5c-2.8,0-4.5-2.2-4.5-4.9s1.7-4.9,4.5-4.9s4.5,2.2,4.5,4.9S83.1,435.5,80.4,435.5z M83,430.6
			c0-2.4-0.7-4.3-2.7-4.3s-2.7,1.8-2.7,4.3s0.7,4.2,2.7,4.2S83,433.1,83,430.6z"/>
		<path fill="#4C3D2A" d="M97.5,435.3c-0.8,0-1.8-0.1-2.4-0.1c-0.8,0-1.8,0.1-2.6,0.1v-0.5c1.8-0.2,1.8-0.5,1.8-2.7v-3.4
			c0-0.9,0-1.9-1.4-1.9c-2,0-3.1,1.4-3.1,2.6v2.6c0,2.2,0,2.5,1.8,2.7v0.5c-0.8,0-1.8-0.1-2.4-0.1c-0.8,0-1.8,0.1-2.6,0.1v-0.5
			c1.8-0.2,1.8-0.5,1.8-2.7v-2.8c0-1.9-0.3-2-2.2-2v-0.5c1.6-0.1,2.9-0.5,3.8-1.4c0,0.6-0.1,1.1-0.1,2.2c1-0.9,2.4-2,4.4-2
			c1.5,0,1.7,1.2,1.7,2.3v4c0,2.2,0,2.5,1.8,2.7V435.3z"/>
		<path fill="#4C3D2A" d="M104.2,428.9c-0.3-0.9-0.8-2.5-2.6-2.5c-1.1,0-1.8,0.5-1.8,1.4c0,2.3,5.5,1.4,5.5,5c0,1.4-1.2,2.8-3.1,2.8
			c-1.3,0-1.9-0.5-2.9-0.5c-0.3,0-0.5,0.1-0.7,0.3c0-0.3,0.1-0.7,0.1-1.3c0-0.8,0-1.4-0.1-2.2h0.5c0.2,1.2,0.7,3.1,3,3.1
			c1.1,0,2-0.6,2-1.6c0-2.3-5.4-1.5-5.4-4.8c0-1.4,1-2.6,3-2.6c1,0,1.8,0.4,2.3,0.4c0.2,0,0.4-0.2,0.7-0.3c0,0.3,0,0.6,0,0.9
			c0,0.4,0,1.2,0.1,2.1H104.2z"/>
		<path fill="#4C3D2A" d="M120.9,435.3c-0.3,0-0.6,0-0.9-0.1c-0.3,0-0.6,0-0.9,0c-0.6,0-1,0-1.5,0.4c0.1-0.7,0.2-1.4,0.2-1.9
			c-0.8,0.8-1.9,1.9-3.5,1.9c-1.1,0-2.1-0.9-2.1-2.3c0-1.9,1.8-2.4,2.8-2.7l2.2-0.7c0.6-0.2,0.6-0.6,0.6-1.7c0-1.2-0.4-1.6-1.4-1.6
			c-1.1,0-2.2,0.4-2.2,1c0,0.2,0.2,0.5,0.4,0.5c0.1,0,0.2,0,0.3,0c0,0.5-0.3,1.3-1.1,1.3c-0.5,0-1-0.4-1-1c0-1.9,3-2.7,4.5-2.7
			c1.7,0,2,1.1,2,2.3v5.4c0,1.4,0.8,1.3,1.7,1.4V435.3z M116.2,430.7c-1.4,0.4-2.5,0.8-2.5,2.2c0,0.9,0.7,1.5,1.3,1.5
			c1,0,2.8-1,2.8-2.2v-1.9L116.2,430.7z"/>
		<path fill="#4C3D2A" d="M133,435.3c-0.8,0-1.8-0.1-2.4-0.1c-0.8,0-1.8,0.1-2.6,0.1v-0.5c1.8-0.2,1.8-0.5,1.8-2.7v-3.4
			c0-0.9,0-1.9-1.4-1.9c-2,0-3.1,1.4-3.1,2.6v2.6c0,2.2,0,2.5,1.8,2.7v0.5c-0.8,0-1.8-0.1-2.4-0.1c-0.8,0-1.8,0.1-2.6,0.1v-0.5
			c1.8-0.2,1.8-0.5,1.8-2.7v-2.8c0-1.9-0.3-2-2.2-2v-0.5c1.6-0.1,2.9-0.5,3.8-1.4c0,0.6-0.1,1.1-0.1,2.2c1-0.9,2.4-2,4.4-2
			c1.5,0,1.6,1.2,1.6,2.3v4c0,2.2,0,2.5,1.8,2.7V435.3z"/>
		<path fill="#4C3D2A" d="M143.9,435.3c-0.3,0-0.6,0-0.9-0.1c-0.3,0-0.6,0-0.9,0c-0.5,0-1.2,0.1-1.6,0.4c0-0.5,0.1-1.3,0.1-2
			c-1.2,1-2.1,2-3.7,2c-1.8,0-2.9-1.8-2.9-4.1c0-3.6,1.7-5.7,4.2-5.7c1.3,0,1.8,0.4,2.4,0.7v-1.9c0-2.4,0-2.8-2.3-2.8v-0.5
			c1.5,0,2.9-0.3,4-1.1c0,0.7-0.1,2.9-0.1,4.3v7.5c0,2.2,0,2.5,1.8,2.7V435.3z M140.6,429.4c0-1.7-0.4-3-2.1-3
			c-2.1,0-2.8,2.1-2.8,4.6c0,2.1,0.7,3.4,2.2,3.4c1.8,0,2.7-1.8,2.7-2.7V429.4z"/>
		<path fill="#4C3D2A" d="M156.6,433.9c0.4,0,1.8,0.5,1.8,1.9c0,2.3-2.6,3.6-5.3,3.6c-2.4,0-3.2-1.1-3.2-2.1c0-1.4,1.2-1.9,2.3-2.5
			c-0.6-0.2-1.6-0.5-1.6-1.2c0-1.1,0.8-1.2,1.8-1.7c-0.7-0.3-1.9-0.9-1.9-2.8c0-2,1.2-3.3,3.5-3.3c0.2,0,0.5,0,0.7,0
			c0.4-0.8,1.3-2.2,2.7-2.2c0.6,0,1.1,0.3,1.1,1c0,0.6-0.4,0.9-0.9,0.9c-0.2,0-0.4,0-0.5-0.1c0.1-0.1,0.2-0.2,0.2-0.4
			c0-0.2-0.1-0.4-0.5-0.4c-0.8,0-1.3,0.9-1.5,1.2c0.5,0.1,2.1,0.8,2.1,3c0,2.2-1.6,3.3-3.3,3.3h-0.8c-0.7,0-1.5,0.4-1.5,0.9
			c0,0.5,0.9,0.6,1.9,0.6L156.6,433.9z M153.7,435c-0.3,0-0.6-0.1-0.9-0.2c-0.7,0.5-1.6,1.1-1.6,2.1c0,1,1,1.5,2.6,1.5
			c1.8,0,3.6-0.9,3.6-2.1c0-0.8-1-1.1-2-1.1L153.7,435z M155.8,428.8c0-1.2-0.5-2.5-1.8-2.5s-1.9,1.3-1.9,2.7c0,1.4,0.5,2.5,1.8,2.5
			C155.3,431.5,155.8,430.3,155.8,428.8z"/>
		<path fill="#4C3D2A" d="M167.5,431.9c-0.3,1.3-1.3,3.6-4.1,3.6c-2.2,0-3.9-1.2-3.9-4.7c0-3.1,1.8-5.1,4.3-5.1c3,0,3.4,2.5,3.4,3.8
			l-6.2,0.4c0,0.2,0,0.5,0,0.8c0,1.6,0.8,3.7,2.9,3.7c2,0,2.5-1.7,2.9-2.7L167.5,431.9z M164.8,428.9c0.3,0,1-0.2,1-0.7
			c0-0.8-0.8-1.8-1.8-1.8c-2.4,0-2.7,2.2-2.8,3L164.8,428.9z"/>
		<path fill="#4C3D2A" d="M175.1,434.2c-0.9,0.6-2,1.3-3.3,1.3c-1.2,0-1.3-1.2-1.3-2.6v-5.9h-1.7v-0.5c1.8-0.2,2.1-1.2,2.6-3.4h0.6
			c0,0.7-0.1,2.3-0.1,3.1l2.9-0.2v1H172v4.9c0,2.3,0.2,2.6,1.1,2.6c0.7,0,1.3-0.3,1.9-0.7L175.1,434.2z"/>
		<path fill="#4C3D2A" d="M181.5,428.9c-0.3-0.9-0.8-2.5-2.6-2.5c-1.1,0-1.8,0.5-1.8,1.4c0,2.3,5.5,1.4,5.5,5c0,1.4-1.2,2.8-3.1,2.8
			c-1.3,0-1.9-0.5-2.9-0.5c-0.3,0-0.5,0.1-0.7,0.3c0-0.3,0.1-0.7,0.1-1.3c0-0.8,0-1.4-0.1-2.2h0.5c0.2,1.2,0.7,3.1,3,3.1
			c1.1,0,2-0.6,2-1.6c0-2.3-5.4-1.5-5.4-4.8c0-1.4,1-2.6,3-2.6c1,0,1.8,0.4,2.3,0.4c0.2,0,0.4-0.2,0.7-0.3c0,0.3,0,0.6,0,0.9
			c0,0.4,0,1.2,0.1,2.1H181.5z"/>
		<path fill="#4C3D2A" d="M191.7,427.6c1.1-0.9,2.2-1.9,3.7-1.9c2.1,0,2.9,1.9,2.9,4.2c0,3.4-1.5,5.6-4.1,5.6
			c-1.6,0-2.2-0.7-2.9-1.3c-0.3,0.8-0.9,1.1-1.9,1.7l-0.2-0.4c0.6-0.9,0.9-0.9,0.9-3.5v-7.5c0-2.4,0-2.8-2.3-2.8v-0.5
			c1.5,0,2.9-0.3,4-1.1c0,0.7-0.1,2.9-0.1,4.3V427.6z M191.7,431.4c0,1.4,0.1,3.4,2.5,3.4c1.6,0,2.5-1.8,2.5-4.2
			c0-2.3-0.6-3.9-2.3-3.9c-2.2,0-2.7,1.7-2.7,3.4V431.4z"/>
		<path fill="#4C3D2A" d="M207.9,431.9c-0.3,1.3-1.3,3.6-4.1,3.6c-2.2,0-3.9-1.2-3.9-4.7c0-3.1,1.8-5.1,4.3-5.1c3,0,3.4,2.5,3.4,3.8
			l-6.2,0.4c0,0.2,0,0.5,0,0.8c0,1.6,0.8,3.7,2.9,3.7c2,0,2.5-1.7,2.9-2.7L207.9,431.9z M205.2,428.9c0.3,0,1-0.2,1-0.7
			c0-0.8-0.8-1.8-1.8-1.8c-2.4,0-2.7,2.2-2.8,3L205.2,428.9z"/>
		<path fill="#4C3D2A" d="M215.5,434.2c-0.9,0.6-2,1.3-3.3,1.3c-1.2,0-1.3-1.2-1.3-2.6v-5.9h-1.7v-0.5c1.8-0.2,2.1-1.2,2.6-3.4h0.6
			c0,0.7-0.1,2.3-0.1,3.1l2.9-0.2v1h-2.9v4.9c0,2.3,0.2,2.6,1.1,2.6c0.7,0,1.3-0.3,1.9-0.7L215.5,434.2z"/>
		<path fill="#4C3D2A" d="M222.3,434.2c-0.9,0.6-2,1.3-3.3,1.3c-1.2,0-1.3-1.2-1.3-2.6v-5.9h-1.7v-0.5c1.8-0.2,2.1-1.2,2.6-3.4h0.6
			c0,0.7-0.1,2.3-0.1,3.1l2.9-0.2v1h-2.9v4.9c0,2.3,0.2,2.6,1.1,2.6c0.7,0,1.3-0.3,1.9-0.7L222.3,434.2z"/>
		<path fill="#4C3D2A" d="M230.9,431.9c-0.3,1.3-1.3,3.6-4.1,3.6c-2.2,0-3.9-1.2-3.9-4.7c0-3.1,1.8-5.1,4.3-5.1c3,0,3.4,2.5,3.4,3.8
			l-6.2,0.4c0,0.2,0,0.5,0,0.8c0,1.6,0.8,3.7,2.9,3.7c2,0,2.5-1.7,2.9-2.7L230.9,431.9z M228.2,428.9c0.3,0,1-0.2,1-0.7
			c0-0.8-0.8-1.8-1.8-1.8c-2.4,0-2.7,2.2-2.8,3L228.2,428.9z"/>
		<path fill="#4C3D2A" d="M237.7,435.3c-0.9,0-2-0.1-2.7-0.1c-0.8,0-1.8,0.1-2.6,0.1v-0.5c1.8-0.2,1.8-0.5,1.8-2.7v-2.8
			c0-1.9-0.3-2-2.2-2v-0.5c1.6-0.1,2.9-0.5,3.8-1.4c0,0.5-0.1,1.2-0.1,2.2c1-1,1.8-1.9,2.9-1.9c0.6,0,1.1,0.4,1.1,1
			c0,0.7-0.6,1.1-1.1,1.1c-0.1,0-0.4,0-0.4-0.1c0-0.1,0.1-0.2,0.1-0.3c0-0.4-0.3-0.5-0.6-0.5c-0.5,0-2,0.8-2,2.4v2.8
			c0,2.2,0,2.5,2.1,2.7V435.3z"/>
		<path fill="#4C3D2A" d="M250.9,435.3c-0.8,0-1.8-0.1-2.4-0.1c-0.8,0-1.8,0.1-2.6,0.1v-0.5c1.8-0.2,1.8-0.5,1.8-2.7v-2.8
			c0-1.9-0.3-2-2.2-2v-0.5c1.6-0.1,2.9-0.5,3.8-1.4c0,1.1-0.1,1.9-0.1,3.8v2.8c0,2.2,0,2.5,1.8,2.7V435.3z M248.1,423.3
			c-0.7,0-1.2-0.5-1.2-1.2c0-0.7,0.5-1.2,1.2-1.2c0.6,0,1.2,0.5,1.2,1.2C249.2,422.7,248.7,423.3,248.1,423.3z"/>
		<path fill="#4C3D2A" d="M261.9,435.3c-0.3,0-0.6,0-0.9-0.1c-0.3,0-0.6,0-0.9,0c-0.5,0-1.2,0.1-1.6,0.4c0-0.5,0.1-1.3,0.1-2
			c-1.2,1-2.1,2-3.7,2c-1.8,0-2.9-1.8-2.9-4.1c0-3.6,1.7-5.7,4.2-5.7c1.3,0,1.8,0.4,2.4,0.7v-1.9c0-2.4,0-2.8-2.3-2.8v-0.5
			c1.5,0,2.9-0.3,4-1.1c0,0.7-0.1,2.9-0.1,4.3v7.5c0,2.2,0,2.5,1.8,2.7V435.3z M258.7,429.4c0-1.7-0.4-3-2.1-3
			c-2.1,0-2.8,2.1-2.8,4.6c0,2.1,0.7,3.4,2.2,3.4c1.8,0,2.7-1.8,2.7-2.7V429.4z"/>
		<path fill="#4C3D2A" d="M270.9,431.9c-0.3,1.3-1.3,3.6-4.1,3.6c-2.2,0-3.9-1.2-3.9-4.7c0-3.1,1.8-5.1,4.3-5.1c3,0,3.4,2.5,3.4,3.8
			l-6.2,0.4c0,0.2,0,0.5,0,0.8c0,1.6,0.8,3.7,2.9,3.7c2,0,2.5-1.7,2.9-2.7L270.9,431.9z M268.1,428.9c0.3,0,1-0.2,1-0.7
			c0-0.8-0.8-1.8-1.8-1.8c-2.4,0-2.7,2.2-2.8,3L268.1,428.9z"/>
		<path fill="#4C3D2A" d="M281.2,435.3c-0.3,0-0.6,0-0.9-0.1c-0.3,0-0.6,0-0.9,0c-0.6,0-1,0-1.5,0.4c0.1-0.7,0.2-1.4,0.2-1.9
			c-0.8,0.8-1.9,1.9-3.5,1.9c-1.1,0-2.1-0.9-2.1-2.3c0-1.9,1.8-2.4,2.8-2.7l2.2-0.7c0.6-0.2,0.6-0.6,0.6-1.7c0-1.2-0.4-1.6-1.4-1.6
			c-1.1,0-2.2,0.4-2.2,1c0,0.2,0.2,0.5,0.4,0.5c0.1,0,0.2,0,0.3,0c0,0.5-0.3,1.3-1.1,1.3c-0.5,0-1-0.4-1-1c0-1.9,3-2.7,4.5-2.7
			c1.7,0,2,1.1,2,2.3v5.4c0,1.4,0.8,1.3,1.7,1.4V435.3z M276.5,430.7c-1.4,0.4-2.5,0.8-2.5,2.2c0,0.9,0.7,1.5,1.3,1.5
			c1,0,2.8-1,2.8-2.2v-1.9L276.5,430.7z"/>
		<path fill="#4C3D2A" d="M287.9,428.9c-0.3-0.9-0.8-2.5-2.6-2.5c-1.1,0-1.8,0.5-1.8,1.4c0,2.3,5.5,1.4,5.5,5c0,1.4-1.2,2.8-3.1,2.8
			c-1.3,0-1.9-0.5-2.9-0.5c-0.3,0-0.5,0.1-0.7,0.3c0-0.3,0.1-0.7,0.1-1.3c0-0.8,0-1.4-0.1-2.2h0.5c0.2,1.2,0.7,3.1,3,3.1
			c1.1,0,2-0.6,2-1.6c0-2.3-5.4-1.5-5.4-4.8c0-1.4,1-2.6,3-2.6c1,0,1.8,0.4,2.3,0.4c0.2,0,0.4-0.2,0.7-0.3c0,0.3,0,0.6,0,0.9
			c0,0.4,0,1.2,0.1,2.1H287.9z"/>
	</g>
	
		<line fill="none" stroke="#4C3D2A" stroke-width="4" stroke-linecap="round" stroke-linejoin="round" stroke-miterlimit="10" x1="394.9" y1="224.9" x2="296.2" y2="353.5"/>
	<path fill="none" stroke="#4C3D2A" stroke-width="4" stroke-linecap="round" stroke-linejoin="round" stroke-miterlimit="10" d="
		M392.9,224.9c0-30.2,0-60.5,0-90.7"/>
</g>
<g>
	<path fill="#D6E7F7" d="M281.2,105.1c-2,1.1-4.6,0.9-6.7,0.9h-8.6V82h10c0.5,0,1,0,1.6,0c0.8,0,3.4,0.1,5.1,2.4
		c1,1.4,1.1,3,1.1,3.6c0,0.8-0.1,2.9-2.1,4.3c-1,0.6-1.8,0.8-2.2,0.9c3.3,0.6,5.1,2.8,5.1,6.2C284.5,100.3,284.3,103.5,281.2,105.1z
		 M280.6,85.6c-1.2-1.7-3.5-1.6-5.2-1.6h-7.2v8.1h6.8c1.9,0,4.2,0.1,5.5-1.6c0.6-0.8,0.8-1.7,0.8-2.6
		C281.3,87.5,281.3,86.5,280.6,85.6z M279.8,95c-1.5-0.9-3.2-0.9-4.9-0.9h-6.7v9.8h6.1c2.1,0,3.6,0,4.5-0.2c1.1-0.2,3.4-1.3,3.4-4.4
		C282.2,98.4,282,96.3,279.8,95z"/>
	<path fill="#D6E7F7" d="M300.9,103.8c-0.9,1.1-2.5,2.6-5.8,2.6c-0.6,0-2.2,0-3.7-0.9c-3.9-2-4-6.8-4-7.8c0-0.5,0-1.9,0.5-3.3
		c1.1-3.1,3.7-5.1,7-5.1c1,0,3.3,0.2,5.2,2.3c1.3,1.5,2.1,3.7,2.1,5.7v0.5h-12.6c0,1.3,0.1,2.1,0.3,2.7c0.3,1.3,1.5,4,5.2,4
		c1.4,0,3.7-0.3,5.2-3.4l1.9,0.5C302,102.1,301.6,103,300.9,103.8z M294.8,91.2c-2.8,0-4.2,1.9-4.6,2.8c-0.3,0.7-0.5,1.5-0.6,2.2
		h10.3C299.4,92,296.6,91.2,294.8,91.2z"/>
	<path fill="#D6E7F7" d="M316.9,103.6c-0.6,1.2-2.3,2.8-5.6,2.8c-1,0-3.6-0.1-5.5-2.5c-0.5-0.6-0.8-1.2-1.1-1.9l2-0.7
		c0.3,1.1,1.5,3.2,4.5,3.2c1.5,0,2.5-0.4,3-0.8c0.7-0.5,1.2-1.5,1.2-2.4c0-0.5-0.2-1-0.4-1.4c-0.5-0.7-1.3-1.1-3.1-1.5
		c-1.6-0.4-4.1-0.6-5.3-2c-0.5-0.7-0.9-1.7-0.9-2.6c0-0.5,0.2-2.1,1.4-3.2c1.1-1,3-1.4,4.4-1.4c0.5,0,2.5,0,4,1.1
		c1.3,0.9,1.6,2.1,1.8,2.6l-1.9,0.5c-0.4-1.9-2.3-2.4-4-2.4c-1.3,0-2.2,0.3-2.7,0.6c-0.1,0.1-0.5,0.3-0.7,0.7
		c-0.3,0.6-0.4,1.2-0.4,1.4c0,1.9,2,2.4,3.4,2.6l1.7,0.3c1.5,0.3,2.8,0.9,3.7,2.1c0.7,1,0.8,2,0.8,2.5
		C317.4,101.8,317.4,102.7,316.9,103.6z"/>
	<path fill="#D6E7F7" d="M326.1,106.3c-0.2,0-0.4,0-0.5,0c-0.4,0-1.7-0.1-2.1-1.4c-0.3-0.7-0.2-2.5-0.2-3.2V91.5h-3.4v-1.7h3.4v-6.9
		h1.9v6.9h3.6v1.7h-3.6v9c0,0.6,0,1.2,0,1.7c0,1,0,2.4,1.3,2.4c0.8,0,1.6-0.6,2.2-1v2C328.2,105.9,327.4,106.3,326.1,106.3z"/>
	<path fill="#D6E7F7" d="M348.3,84v22h-2.3V84h-7.6v-2h17.4v2H348.3z"/>
	<path fill="#D6E7F7" d="M359,85.9v-3.1h2v3.1H359z M359,106V89.8h2V106H359z"/>
	<path fill="#D6E7F7" d="M385.2,106v-8.8c0-2.8,0.1-4.4-1.1-5.3c-0.8-0.6-1.7-0.6-2-0.6c-1.8,0-3.1,1-3.8,2.6
		c-0.6,1.3-0.6,2.6-0.6,5.3v6.8h-2v-9c0-2.1,0-3.4-0.5-4.3c-0.5-1-1.6-1.4-2.6-1.4c-0.9,0-2.6,0.2-3.6,2.2c-0.8,1.5-0.8,2.9-0.8,6
		v6.5h-2V89.8h2v3.4c0-0.2,0.2-0.8,0.4-1.3c0.9-1.7,2.6-2.4,4.4-2.4c2.6,0,3.7,1.5,4.1,2.5c0.1,0.3,0.3,0.8,0.3,1.6
		c0.2-0.9,0.4-1.3,0.6-1.6c0.5-1,1.8-2.4,4.4-2.4c1,0,2.1,0.2,2.9,0.8c1.9,1.3,1.8,3.6,1.8,7.8v8H385.2z"/>
	<path fill="#D6E7F7" d="M404.9,103.8c-0.9,1.1-2.5,2.6-5.8,2.6c-0.6,0-2.2,0-3.7-0.9c-3.9-2-4-6.8-4-7.8c0-0.5,0-1.9,0.5-3.3
		c1.1-3.1,3.7-5.1,7-5.1c1,0,3.3,0.2,5.2,2.3c1.3,1.5,2.1,3.7,2.1,5.7v0.5h-12.6c0,1.3,0.1,2.1,0.3,2.7c0.3,1.3,1.5,4,5.2,4
		c1.4,0,3.7-0.3,5.2-3.4l1.9,0.5C406,102.1,405.6,103,404.9,103.8z M398.8,91.2c-2.8,0-4.2,1.9-4.6,2.8c-0.3,0.7-0.5,1.5-0.6,2.2
		h10.3C403.3,92,400.5,91.2,398.8,91.2z"/>
	<path fill="#D6E7F7" d="M423.2,106.3c-0.2,0-0.4,0-0.5,0c-0.4,0-1.7-0.1-2.1-1.4c-0.3-0.7-0.2-2.5-0.2-3.2V91.5h-3.4v-1.7h3.4v-6.9
		h1.9v6.9h3.6v1.7h-3.6v9c0,0.6,0,1.2,0,1.7c0,1,0,2.4,1.3,2.4c0.8,0,1.6-0.6,2.2-1v2C425.4,105.9,424.5,106.3,423.2,106.3z"/>
	<path fill="#D6E7F7" d="M442.1,101.1c-1,3.3-3.6,5.3-7,5.3c-1.1,0-3.7-0.2-5.6-2.7c-0.7-1-1.7-2.7-1.7-5.6c0-0.7,0-2.3,0.8-4.1
		c1.6-4.1,5.1-4.6,6.7-4.6c1.9,0,3.4,0.5,4.8,1.8c1.8,1.7,2.5,4.2,2.6,6.6C442.6,98.3,442.6,99.6,442.1,101.1z M435.2,91.1
		c-0.5,0-1.8,0.1-2.9,0.9c-1.3,1-2.3,2.7-2.3,6.1c0,0.6-0.1,3.9,2.1,5.6c0.5,0.4,1.5,1,3,1c2.4,0,5.2-1.5,5.3-6.6
		C440.5,92.7,437.8,91.1,435.2,91.1z"/>
	<path fill="#D6E7F7" d="M471.4,103.2c-0.4,0.4-1.5,1.6-3.1,2.2s-3.1,0.6-6.4,0.6h-6.3V82h6.4c0.9,0,1.7,0,2.5,0
		c2.8,0.1,4.8,0.5,6.8,2.6c1.4,1.4,3.2,4.4,3.2,9.3C474.6,95.2,474.5,99.8,471.4,103.2z M469.9,86.3c-0.3-0.4-1.2-1.3-2.5-1.8
		c-1.3-0.5-2.6-0.5-5.3-0.5h-4.2V104h3.6c3.2,0,5.1-0.1,6.4-0.7c1.3-0.6,2.2-1.8,2.4-2.2c0.8-1.2,1.9-3.5,1.9-7
		C472.3,93.1,472.2,89.1,469.9,86.3z"/>
	<path fill="#D6E7F7" d="M486.7,91.4c-0.4-0.1-0.8-0.1-1.3-0.1c-2.5,0-4,1.5-4.4,3.9c-0.1,0.9-0.2,1.9-0.2,3.9v7h-2V89.8h2v2.6
		c0.1-0.3,0.3-0.6,0.4-0.8c0.2-0.3,0.9-1.2,1.9-1.6c0.4-0.2,1.2-0.4,2.3-0.4c0.3,0,0.6,0,1.2,0.1L486.7,91.4z"/>
	<path fill="#D6E7F7" d="M489.5,85.9v-3.1h2v3.1H489.5z M489.5,106V89.8h2V106H489.5z"/>
	<path fill="#D6E7F7" d="M507.2,106v-8.5c0-2.2,0-3.5-0.4-4.4c-0.3-0.9-0.9-1.2-1.2-1.4c-0.9-0.5-1.8-0.5-2.2-0.5
		c-0.4,0-1.3,0-2.1,0.4c-1.2,0.6-2.1,1.9-2.5,3.1c-0.2,0.8-0.2,2.2-0.2,4.1v7.1h-2V89.8h2v2.9c0.1-0.4,0.4-1.1,1.2-1.8
		c0.6-0.6,1.8-1.4,4-1.4c3,0,4.4,1.7,4.9,2.8c0.6,1.3,0.6,2.6,0.6,5.3v8.5H507.2z"/>
	<path fill="#D6E7F7" d="M526,106l-6.2-8.4l-3.5,3.3v5.1h-2V82h2v16.4l9.1-8.6h2.5l-6.8,6.5l7.3,9.8H526z"/>
</g>
<g>
</g>
<g>
</g>
<g>
</g>
<g>
</g>
<g>
</g>
<g>
</g>
</svg>
