<?xml version="1.0" encoding="utf-8"?>
<!-- Generator: Adobe Illustrator 19.2.1, SVG Export Plug-In . SVG Version: 6.00 Build 0)  -->
<!DOCTYPE svg PUBLIC "-//W3C//DTD SVG 1.1//EN" "http://www.w3.org/Graphics/SVG/1.1/DTD/svg11.dtd">
<svg version="1.1" id="Layer_1" xmlns="http://www.w3.org/2000/svg" xmlns:xlink="http://www.w3.org/1999/xlink" x="0px" y="0px"
	 width="792px" height="612px" viewBox="0 0 792 612" enable-background="new 0 0 792 612" xml:space="preserve">
<g>
	<circle fill="#FF5959" cx="390.3" cy="305.5" r="230.9"/>
	<circle fill="#5BB1E3" cx="390.3" cy="305.6" r="210.7"/>
	<circle fill="#4C3D2A" cx="394.1" cy="279.7" r="13.2"/>
	<path fill="#D6E7F7" d="M659.6,499.8H107.1c-6.6,0-12-5.4-12-12V385.3c0-6.6,5.4-12,12-12h552.5c6.6,0,12,5.4,12,12v102.5
		C671.6,494.4,666.2,499.8,659.6,499.8z"/>
	<path fill="#FFCA61" d="M291.9,213.8c0,0,11.7,1.3,7.3,4.7l2.5,7.6l-1.9,1.9c0,0,5.1,36.3,3.8,42.3c0,0,8.5,8.5,8.5,12.3v73.6
		c0,0-7.6,10.7-20.2,8.8"/>
	<path fill="#FFCA61" d="M293.5,213.8c0,0-11.7,1.3-7.3,4.7l-2.5,7.6l1.9,1.9c0,0-5.1,36.3-3.8,42.3c0,0-8.5,8.5-8.5,12.3v73.6
		c0,0,7.6,10.7,20.2,8.8"/>
	<path fill="#665237" d="M427.7,282.8c0,0-8.3,63.7,51.6,65.3v-65.3"/>
	<path fill="#665237" d="M527.8,282.8c0,0,8.3,63.7-51.6,65.3v-65.3"/>
	<path fill="none" stroke="#665237" stroke-width="4" stroke-miterlimit="10" d="M527.5,289.7c0,0,61.7-8.4-7.8,32.3"/>
	<g>
		<rect x="427.3" y="408.6" fill="none" width="339" height="85.5"/>
		<path fill="#4C3D2A" d="M439.2,418.2c-0.6,2.8-2.5,4.6-5.4,4.6c-3.6,0-5.7-2.8-5.7-6.7c0-3.7,2.2-6.5,6-6.5c1.5,0,2.9,0.6,3.5,0.6
			c0.4,0,0.7-0.2,1-0.4c0,0.5-0.1,1.4-0.1,2.2c0,0.6,0.1,1.5,0.1,1.9h-0.5c-0.3-1.2-1-3.6-3.7-3.6c-3.2,0-4.4,2.6-4.4,5.8
			c0,2.5,1.3,5.5,4.3,5.5c3.2,0,3.9-2.3,4.4-3.4H439.2z"/>
		<path fill="#4C3D2A" d="M444.5,422.8c-2.6,0-4.2-2-4.2-4.6c0-2.5,1.6-4.6,4.2-4.6c2.6,0,4.2,2,4.2,4.6
			C448.7,420.8,447.1,422.8,444.5,422.8z M447,418.2c0-2.3-0.7-4-2.5-4s-2.5,1.7-2.5,4c0,2.3,0.7,4,2.5,4S447,420.5,447,418.2z"/>
		<path fill="#4C3D2A" d="M455.1,422.6c-0.9,0-2-0.1-2.7-0.1c-0.8,0-1.7,0.1-2.4,0.1v-0.4c1.6-0.2,1.6-0.5,1.6-2.5v-4.7h-1.6v-0.4
			c1.3-0.2,1.6-0.6,1.6-1.6c0-1.5,0.5-3.9,3.5-3.9c0.9,0,2,0.6,2,1.4c0,0.8-0.4,1.1-0.9,1.1c-0.6,0-0.7-0.3-0.9-0.8
			c0.2,0,0.5-0.2,0.5-0.5c0-0.4-0.4-0.7-0.9-0.7c-1.4,0-1.8,1.2-1.8,2.6v2l2.5-0.2v1H453v4.7c0,2.1,0,2.3,2.1,2.5V422.6z"/>
		<path fill="#4C3D2A" d="M461.4,422.6c-0.9,0-2-0.1-2.7-0.1c-0.8,0-1.7,0.1-2.4,0.1v-0.4c1.6-0.2,1.6-0.5,1.6-2.5v-4.7h-1.6v-0.4
			c1.3-0.2,1.6-0.6,1.6-1.6c0-1.5,0.5-3.9,3.5-3.9c0.9,0,2,0.6,2,1.4c0,0.8-0.4,1.1-0.9,1.1c-0.6,0-0.7-0.3-1-0.8
			c0.2,0,0.5-0.2,0.5-0.5c0-0.4-0.4-0.7-0.9-0.7c-1.4,0-1.8,1.2-1.8,2.6v2l2.5-0.2v1h-2.5v4.7c0,2.1,0,2.3,2.1,2.5V422.6z"/>
		<path fill="#4C3D2A" d="M470.2,419.5c-0.3,1.2-1.2,3.3-3.8,3.3c-2,0-3.6-1.2-3.6-4.4c0-2.9,1.7-4.7,4-4.7c2.8,0,3.2,2.4,3.2,3.5
			l-5.8,0.4c0,0.2,0,0.5,0,0.7c0,1.5,0.8,3.4,2.7,3.4c1.8,0,2.4-1.6,2.7-2.5L470.2,419.5z M467.7,416.7c0.3,0,0.9-0.2,0.9-0.7
			c0-0.8-0.7-1.7-1.7-1.7c-2.2,0-2.5,2-2.6,2.8L467.7,416.7z"/>
		<path fill="#4C3D2A" d="M479,419.5c-0.3,1.2-1.2,3.3-3.8,3.3c-2,0-3.6-1.2-3.6-4.4c0-2.9,1.7-4.7,4-4.7c2.8,0,3.2,2.4,3.2,3.5
			l-5.8,0.4c0,0.2,0,0.5,0,0.7c0,1.5,0.8,3.4,2.7,3.4c1.8,0,2.4-1.6,2.7-2.5L479,419.5z M476.5,416.7c0.3,0,0.9-0.2,0.9-0.7
			c0-0.8-0.7-1.7-1.7-1.7c-2.2,0-2.5,2-2.6,2.8L476.5,416.7z"/>
		<path fill="#4C3D2A" d="M490,422.6c-0.8,0-1.6-0.1-2.3-0.1c-0.8,0-1.7,0.1-2.4,0.1v-0.4c1.6-0.2,1.6-0.5,1.6-2.5V417
			c0-1.7-0.3-1.8-2-1.8v-0.4c1.5-0.1,2.7-0.5,3.6-1.3c0,1-0.1,1.7-0.1,3.6v2.6c0,2.1,0,2.3,1.6,2.5V422.6z M487.3,411.4
			c-0.6,0-1.1-0.5-1.1-1.1c0-0.6,0.5-1.1,1.1-1.1c0.6,0,1.1,0.5,1.1,1.1C488.4,410.9,487.9,411.4,487.3,411.4z"/>
		<path fill="#4C3D2A" d="M496.3,416.7c-0.3-0.9-0.8-2.4-2.4-2.4c-1.1,0-1.6,0.5-1.6,1.3c0,2.1,5.1,1.3,5.1,4.6
			c0,1.3-1.1,2.6-2.9,2.6c-1.3,0-1.8-0.5-2.7-0.5c-0.2,0-0.5,0.1-0.7,0.3c0-0.3,0.1-0.7,0.1-1.2c0-0.7,0-1.3-0.1-2.1h0.4
			c0.2,1.1,0.6,2.9,2.8,2.9c1,0,1.9-0.6,1.9-1.5c0-2.2-5-1.4-5-4.5c0-1.3,0.9-2.5,2.8-2.5c0.9,0,1.7,0.4,2.1,0.4
			c0.2,0,0.4-0.2,0.6-0.3c0,0.3,0,0.6,0,0.9c0,0.4,0,1.2,0.1,2H496.3z"/>
		<path fill="#4C3D2A" d="M509.6,421.3c0.4,0,1.7,0.5,1.7,1.7c0,2.1-2.5,3.4-5,3.4c-2.2,0-3-1-3-2c0-1.3,1.1-1.8,2.1-2.3
			c-0.6-0.2-1.5-0.5-1.5-1.2c0-1,0.8-1.2,1.7-1.6c-0.7-0.3-1.8-0.9-1.8-2.6c0-1.9,1.1-3.1,3.3-3.1c0.2,0,0.5,0,0.7,0
			c0.4-0.7,1.2-2.1,2.5-2.1c0.5,0,1,0.3,1,0.9c0,0.6-0.4,0.9-0.8,0.9c-0.2,0-0.4,0-0.5-0.1c0.1-0.1,0.2-0.2,0.2-0.3
			c0-0.2-0.1-0.4-0.4-0.4c-0.8,0-1.2,0.8-1.4,1.1c0.5,0.1,2,0.7,2,2.8c0,2-1.5,3.1-3.1,3.1h-0.7c-0.6,0-1.4,0.4-1.4,0.9
			c0,0.5,0.8,0.5,1.7,0.6L509.6,421.3z M506.9,422.3c-0.3,0-0.6-0.1-0.8-0.2c-0.6,0.4-1.5,1-1.5,1.9c0,1,1,1.4,2.5,1.4
			c1.6,0,3.4-0.8,3.4-2c0-0.7-0.9-1-1.8-1L506.9,422.3z M508.9,416.5c0-1.1-0.5-2.3-1.7-2.3c-1.2,0-1.7,1.2-1.7,2.5
			c0,1.3,0.4,2.4,1.7,2.4C508.4,419,508.9,418,508.9,416.5z"/>
		<path fill="#4C3D2A" d="M516.6,422.8c-2.6,0-4.2-2-4.2-4.6c0-2.5,1.6-4.6,4.2-4.6c2.6,0,4.2,2,4.2,4.6
			C520.8,420.8,519.2,422.8,516.6,422.8z M519.1,418.2c0-2.3-0.7-4-2.5-4s-2.5,1.7-2.5,4c0,2.3,0.7,4,2.5,4S519.1,420.5,519.1,418.2
			z"/>
		<path fill="#4C3D2A" d="M526.5,422.8c-2.6,0-4.2-2-4.2-4.6c0-2.5,1.6-4.6,4.2-4.6c2.6,0,4.2,2,4.2,4.6
			C530.7,420.8,529.1,422.8,526.5,422.8z M529,418.2c0-2.3-0.7-4-2.5-4s-2.5,1.7-2.5,4c0,2.3,0.7,4,2.5,4S529,420.5,529,418.2z"/>
		<path fill="#4C3D2A" d="M541.4,422.6c-0.3,0-0.6,0-0.9-0.1c-0.3,0-0.6,0-0.8,0c-0.5,0-1.1,0.1-1.5,0.3c0-0.5,0.1-1.2,0.1-1.8
			c-1.1,1-2,1.8-3.5,1.8c-1.7,0-2.7-1.7-2.7-3.8c0-3.4,1.6-5.4,3.9-5.4c1.2,0,1.7,0.3,2.2,0.7v-1.8c0-2.2,0-2.6-2.2-2.6v-0.4
			c1.4,0,2.7-0.2,3.7-1c0,0.6-0.1,2.7-0.1,4v7c0,2.1,0,2.3,1.6,2.5V422.6z M538.4,417.1c0-1.5-0.3-2.8-2-2.8c-2,0-2.6,1.9-2.6,4.3
			c0,1.9,0.6,3.2,2.1,3.2c1.7,0,2.5-1.7,2.5-2.5V417.1z"/>
		<path fill="#4C3D2A" d="M551.9,422.6c-0.8,0-1.6-0.1-2.3-0.1c-0.8,0-1.7,0.1-2.4,0.1v-0.4c1.6-0.2,1.6-0.5,1.6-2.5V417
			c0-1.7-0.3-1.8-2-1.8v-0.4c1.5-0.1,2.7-0.5,3.6-1.3c0,1-0.1,1.7-0.1,3.6v2.6c0,2.1,0,2.3,1.6,2.5V422.6z M549.2,411.4
			c-0.6,0-1.1-0.5-1.1-1.1c0-0.6,0.5-1.1,1.1-1.1c0.6,0,1.1,0.5,1.1,1.1C550.3,410.9,549.8,411.4,549.2,411.4z"/>
		<path fill="#4C3D2A" d="M557.8,422.6c-0.9,0-2-0.1-2.7-0.1c-0.8,0-1.7,0.1-2.4,0.1v-0.4c1.6-0.2,1.6-0.5,1.6-2.5v-4.7h-1.6v-0.4
			c1.3-0.2,1.6-0.6,1.6-1.6c0-1.5,0.5-3.9,3.5-3.9c0.9,0,2,0.6,2,1.4c0,0.8-0.4,1.1-0.9,1.1c-0.6,0-0.7-0.3-0.9-0.8
			c0.2,0,0.5-0.2,0.5-0.5c0-0.4-0.4-0.7-0.9-0.7c-1.4,0-1.8,1.2-1.8,2.6v2l2.5-0.2v1h-2.5v4.7c0,2.1,0,2.3,2.1,2.5V422.6z"/>
		<path fill="#4C3D2A" d="M567.8,424.9c-0.1,0.2-1,1.8-2.8,1.8c-0.9,0-1.5-0.6-1.5-1.2c0-0.7,0.4-1,1-1c0.5,0,0.6,0.2,0.8,0.3
			c-0.2,0.2-0.4,0.3-0.4,0.6c0,0.3,0.3,0.5,0.7,0.5c1.1,0,2.4-2.1,2.4-3c0-0.6-0.2-1.2-0.5-1.7l-2-5.1c-0.5-1.2-0.6-1.7-1.9-1.7
			v-0.4c0.3,0,1.7,0.1,2.3,0.1c0.6,0,2-0.1,2.3-0.1v0.4c-0.6,0-1.5,0-1.5,0.6c0,0.4,0.1,0.5,0.2,0.9l1.9,5.1l1.8-4.7
			c0.1-0.2,0.3-0.8,0.3-1.2c0-0.8-0.9-0.8-1.7-0.8v-0.4c0.4,0,1.5,0.1,2.3,0.1c0.5,0,1.6-0.1,1.8-0.1v0.4c-0.9,0.1-1,0-1.7,1.7l-3,7
			L567.8,424.9z"/>
		<path fill="#4C3D2A" d="M577.9,422.8c-2.6,0-4.2-2-4.2-4.6c0-2.5,1.6-4.6,4.2-4.6c2.6,0,4.2,2,4.2,4.6
			C582.1,420.8,580.4,422.8,577.9,422.8z M580.4,418.2c0-2.3-0.7-4-2.5-4s-2.5,1.7-2.5,4c0,2.3,0.7,4,2.5,4S580.4,420.5,580.4,418.2
			z"/>
		<path fill="#4C3D2A" d="M593.4,422.6c-0.3,0-0.6,0-0.9-0.1c-0.3,0-0.6,0-0.9,0c-0.5,0-0.9,0-1.4,0.3c0.1-0.6,0.2-1.3,0.2-1.8
			c-0.9,0.8-2.2,1.8-4.1,1.8c-1.4,0-1.5-1.1-1.5-2.2V417c0-1.7-0.3-1.8-1.8-1.8v-0.4c1.4-0.1,2.5-0.5,3.4-1.3c0,1-0.1,1.7-0.1,3.6v3
			c0,0.8,0,1.7,1.3,1.7c1.5,0,2.9-1,2.9-1.8V417c0-1.8-0.3-1.8-1.8-1.8v-0.4c1.4-0.1,2.5-0.5,3.4-1.3c0,1-0.1,1.7-0.1,3.6v3.8
			c0,1.3,0.8,1.2,1.6,1.3V422.6z"/>
		<path fill="#4C3D2A" d="M595,414.6c0.7-0.6,1.7-1.5,1.7-2.5c0-0.4-0.2-0.8-0.6-0.8c-0.3,0-0.5,0.2-0.6,0.4c-0.3-0.3-0.6-0.6-0.6-1
			c0-0.8,0.5-1.3,1.2-1.3c0.9,0,1.4,0.9,1.4,1.8c0,1.9-1.5,3-2.2,3.6L595,414.6z"/>
		<path fill="#4C3D2A" d="M604.6,420.4c-0.1,0.3-0.7,1.6-0.9,2.4l-0.8-0.2c-0.1-0.8-0.3-1.5-0.8-2.8l-1.3-3.3
			c-0.7-1.8-0.6-2-2.1-2.2v-0.4c0.4,0,1.3,0.1,2.2,0.1c1,0,1.9-0.1,2.3-0.1v0.4c-0.8,0-1.4,0-1.5,0.6c0,0.4,0.2,0.8,0.4,1.3l1.7,4.4
			l1.5-3.7c0.2-0.6,0.6-1.4,0.6-1.9c-0.1-0.7-1-0.7-1.7-0.7v-0.4c0.4,0,1.4,0.1,2.2,0.1c0.6,0,1.6-0.1,1.9-0.1v0.4
			c-0.9,0.2-1.1,0.3-1.7,1.6L604.6,420.4z"/>
		<path fill="#4C3D2A" d="M616.3,419.5c-0.3,1.2-1.2,3.3-3.8,3.3c-2,0-3.6-1.2-3.6-4.4c0-2.9,1.7-4.7,4-4.7c2.8,0,3.2,2.4,3.2,3.5
			l-5.8,0.4c0,0.2,0,0.5,0,0.7c0,1.5,0.8,3.4,2.7,3.4c1.8,0,2.4-1.6,2.7-2.5L616.3,419.5z M613.7,416.7c0.3,0,0.9-0.2,0.9-0.7
			c0-0.8-0.7-1.7-1.7-1.7c-2.2,0-2.5,2-2.6,2.8L613.7,416.7z"/>
		<path fill="#4C3D2A" d="M628.6,421.3c0.4,0,1.7,0.5,1.7,1.7c0,2.1-2.5,3.4-5,3.4c-2.2,0-3-1-3-2c0-1.3,1.1-1.8,2.1-2.3
			c-0.6-0.2-1.5-0.5-1.5-1.2c0-1,0.8-1.2,1.7-1.6c-0.7-0.3-1.8-0.9-1.8-2.6c0-1.9,1.1-3.1,3.3-3.1c0.2,0,0.5,0,0.7,0
			c0.4-0.7,1.2-2.1,2.5-2.1c0.5,0,1,0.3,1,0.9c0,0.6-0.4,0.9-0.8,0.9c-0.2,0-0.4,0-0.5-0.1c0.1-0.1,0.2-0.2,0.2-0.3
			c0-0.2-0.1-0.4-0.4-0.4c-0.8,0-1.2,0.8-1.4,1.1c0.5,0.1,2,0.7,2,2.8c0,2-1.5,3.1-3.1,3.1h-0.7c-0.6,0-1.4,0.4-1.4,0.9
			c0,0.5,0.8,0.5,1.7,0.6L628.6,421.3z M625.9,422.3c-0.3,0-0.6-0.1-0.8-0.2c-0.6,0.4-1.5,1-1.5,1.9c0,1,1,1.4,2.5,1.4
			c1.6,0,3.4-0.8,3.4-2c0-0.7-0.9-1-1.8-1L625.9,422.3z M627.8,416.5c0-1.1-0.5-2.3-1.7-2.3c-1.2,0-1.7,1.2-1.7,2.5
			c0,1.3,0.4,2.4,1.7,2.4C627.4,419,627.8,418,627.8,416.5z"/>
		<path fill="#4C3D2A" d="M635.6,422.8c-2.6,0-4.2-2-4.2-4.6c0-2.5,1.6-4.6,4.2-4.6c2.6,0,4.2,2,4.2,4.6
			C639.8,420.8,638.2,422.8,635.6,422.8z M638.1,418.2c0-2.3-0.7-4-2.5-4s-2.5,1.7-2.5,4c0,2.3,0.7,4,2.5,4S638.1,420.5,638.1,418.2
			z"/>
		<path fill="#4C3D2A" d="M647,421.6c-0.9,0.6-1.9,1.2-3.1,1.2c-1.1,0-1.3-1.1-1.3-2.5v-5.5H641v-0.5c1.7-0.2,1.9-1.1,2.5-3.1h0.6
			c0,0.7-0.1,2.1-0.1,2.9l2.7-0.2v1H644v4.6c0,2.2,0.2,2.4,1,2.4c0.7,0,1.2-0.3,1.7-0.6L647,421.6z"/>
		<path fill="#4C3D2A" d="M660.7,422.6c-0.3,0-0.6,0-0.9-0.1c-0.3,0-0.6,0-0.9,0c-0.5,0-0.9,0-1.4,0.3c0.1-0.6,0.2-1.3,0.2-1.8
			c-0.8,0.7-1.8,1.8-3.3,1.8c-1,0-2-0.8-2-2.1c0-1.7,1.6-2.2,2.6-2.5l2.1-0.6c0.6-0.2,0.6-0.6,0.6-1.6c0-1.1-0.4-1.5-1.3-1.5
			c-1,0-2.1,0.4-2.1,1c0,0.2,0.2,0.5,0.3,0.5c0.1,0,0.2,0,0.3,0c0,0.5-0.3,1.2-1,1.2c-0.5,0-0.9-0.4-0.9-0.9c0-1.8,2.8-2.5,4.2-2.5
			c1.6,0,1.9,1,1.9,2.1v5c0,1.3,0.8,1.2,1.6,1.3V422.6z M656.3,418.3c-1.3,0.4-2.3,0.7-2.3,2c0,0.9,0.6,1.4,1.2,1.4
			c1,0,2.6-0.9,2.6-2v-1.8L656.3,418.3z"/>
		<path fill="#4C3D2A" d="M672,422.6c-0.8,0-1.6-0.1-2.3-0.1c-0.8,0-1.7,0.1-2.4,0.1v-0.4c1.6-0.2,1.6-0.5,1.6-2.5v-3.1
			c0-0.8,0-1.7-1.3-1.7c-1.8,0-2.9,1.3-2.9,2.4v2.5c0,2.1,0,2.3,1.6,2.5v0.4c-0.8,0-1.6-0.1-2.3-0.1c-0.8,0-1.7,0.1-2.4,0.1v-0.4
			c1.6-0.2,1.6-0.5,1.6-2.5V417c0-1.7-0.3-1.8-2-1.8v-0.4c1.5-0.1,2.7-0.5,3.6-1.3c0,0.6-0.1,1-0.1,2.1c0.9-0.9,2.2-1.8,4.1-1.8
			c1.4,0,1.5,1.1,1.5,2.2v3.7c0,2.1,0,2.3,1.6,2.5V422.6z"/>
		<path fill="#4C3D2A" d="M682.5,422.6c-0.8,0-1.6-0.1-2.3-0.1c-0.8,0-1.7,0.1-2.4,0.1v-0.4c1.6-0.2,1.6-0.5,1.6-2.5V417
			c0-1.7-0.3-1.8-2-1.8v-0.4c1.5-0.1,2.7-0.5,3.6-1.3c0,1-0.1,1.7-0.1,3.6v2.6c0,2.1,0,2.3,1.6,2.5V422.6z M679.8,411.4
			c-0.6,0-1.1-0.5-1.1-1.1c0-0.6,0.5-1.1,1.1-1.1c0.6,0,1.1,0.5,1.1,1.1C680.9,410.9,680.4,411.4,679.8,411.4z"/>
		<path fill="#4C3D2A" d="M692.7,422.6c-0.3,0-0.6,0-0.9-0.1c-0.3,0-0.6,0-0.8,0c-0.5,0-1.1,0.1-1.5,0.3c0-0.5,0.1-1.2,0.1-1.8
			c-1.1,1-2,1.8-3.5,1.8c-1.7,0-2.7-1.7-2.7-3.8c0-3.4,1.6-5.4,3.9-5.4c1.2,0,1.7,0.3,2.2,0.7v-1.8c0-2.2,0-2.6-2.2-2.6v-0.4
			c1.4,0,2.7-0.2,3.7-1c0,0.6-0.1,2.7-0.1,4v7c0,2.1,0,2.3,1.6,2.5V422.6z M689.7,417.1c0-1.5-0.3-2.8-2-2.8c-2,0-2.6,1.9-2.6,4.3
			c0,1.9,0.6,3.2,2.1,3.2c1.7,0,2.5-1.7,2.5-2.5V417.1z"/>
		<path fill="#4C3D2A" d="M701.1,419.5c-0.3,1.2-1.2,3.3-3.8,3.3c-2,0-3.6-1.2-3.6-4.4c0-2.9,1.7-4.7,4-4.7c2.8,0,3.2,2.4,3.2,3.5
			l-5.8,0.4c0,0.2,0,0.5,0,0.7c0,1.5,0.8,3.4,2.7,3.4c1.8,0,2.4-1.6,2.7-2.5L701.1,419.5z M698.5,416.7c0.3,0,0.9-0.2,0.9-0.7
			c0-0.8-0.7-1.7-1.7-1.7c-2.2,0-2.5,2-2.6,2.8L698.5,416.7z"/>
		<path fill="#4C3D2A" d="M710.7,422.6c-0.3,0-0.6,0-0.9-0.1c-0.3,0-0.6,0-0.9,0c-0.5,0-0.9,0-1.4,0.3c0.1-0.6,0.2-1.3,0.2-1.8
			c-0.8,0.7-1.8,1.8-3.3,1.8c-1,0-2-0.8-2-2.1c0-1.7,1.6-2.2,2.6-2.5l2.1-0.6c0.6-0.2,0.6-0.6,0.6-1.6c0-1.1-0.4-1.5-1.3-1.5
			c-1,0-2.1,0.4-2.1,1c0,0.2,0.2,0.5,0.3,0.5c0.1,0,0.2,0,0.3,0c0,0.5-0.3,1.2-1,1.2c-0.5,0-0.9-0.4-0.9-0.9c0-1.8,2.8-2.5,4.2-2.5
			c1.6,0,1.9,1,1.9,2.1v5c0,1.3,0.8,1.2,1.6,1.3V422.6z M706.3,418.3c-1.3,0.4-2.3,0.7-2.3,2c0,0.9,0.6,1.4,1.2,1.4
			c1,0,2.6-0.9,2.6-2v-1.8L706.3,418.3z"/>
		<path fill="#4C3D2A" d="M724.7,422.6c-0.3,0-0.6,0-0.9-0.1c-0.3,0-0.6,0-0.9,0c-0.5,0-0.9,0-1.4,0.3c0.1-0.6,0.2-1.3,0.2-1.8
			c-0.8,0.7-1.8,1.8-3.3,1.8c-1,0-2-0.8-2-2.1c0-1.7,1.6-2.2,2.6-2.5l2.1-0.6c0.6-0.2,0.6-0.6,0.6-1.6c0-1.1-0.4-1.5-1.3-1.5
			c-1,0-2.1,0.4-2.1,1c0,0.2,0.2,0.5,0.3,0.5c0.1,0,0.2,0,0.3,0c0,0.5-0.3,1.2-1,1.2c-0.5,0-0.9-0.4-0.9-0.9c0-1.8,2.8-2.5,4.2-2.5
			c1.6,0,1.9,1,1.9,2.1v5c0,1.3,0.8,1.2,1.6,1.3V422.6z M720.4,418.3c-1.3,0.4-2.3,0.7-2.3,2c0,0.9,0.6,1.4,1.2,1.4
			c1,0,2.6-0.9,2.6-2v-1.8L720.4,418.3z"/>
		<path fill="#4C3D2A" d="M736,422.6c-0.8,0-1.6-0.1-2.3-0.1c-0.8,0-1.7,0.1-2.4,0.1v-0.4c1.6-0.2,1.6-0.5,1.6-2.5v-3.1
			c0-0.8,0-1.7-1.3-1.7c-1.8,0-2.9,1.3-2.9,2.4v2.5c0,2.1,0,2.3,1.6,2.5v0.4c-0.8,0-1.6-0.1-2.3-0.1c-0.8,0-1.7,0.1-2.4,0.1v-0.4
			c1.6-0.2,1.6-0.5,1.6-2.5V417c0-1.7-0.3-1.8-2-1.8v-0.4c1.5-0.1,2.7-0.5,3.6-1.3c0,0.6-0.1,1-0.1,2.1c0.9-0.9,2.2-1.8,4.1-1.8
			c1.4,0,1.5,1.1,1.5,2.2v3.7c0,2.1,0,2.3,1.6,2.5V422.6z"/>
		<path fill="#4C3D2A" d="M746.2,422.6c-0.3,0-0.6,0-0.9-0.1c-0.3,0-0.6,0-0.8,0c-0.5,0-1.1,0.1-1.5,0.3c0-0.5,0.1-1.2,0.1-1.8
			c-1.1,1-2,1.8-3.5,1.8c-1.7,0-2.7-1.7-2.7-3.8c0-3.4,1.6-5.4,3.9-5.4c1.2,0,1.7,0.3,2.2,0.7v-1.8c0-2.2,0-2.6-2.2-2.6v-0.4
			c1.4,0,2.7-0.2,3.7-1c0,0.6-0.1,2.7-0.1,4v7c0,2.1,0,2.3,1.6,2.5V422.6z M743.1,417.1c0-1.5-0.3-2.8-2-2.8c-2,0-2.6,1.9-2.6,4.3
			c0,1.9,0.6,3.2,2.1,3.2c1.7,0,2.5-1.7,2.5-2.5V417.1z"/>
		<path fill="#4C3D2A" d="M431.6,447.7c-0.1,0.2-1,1.8-2.8,1.8c-0.9,0-1.5-0.6-1.5-1.2c0-0.7,0.4-1,1-1c0.5,0,0.6,0.2,0.8,0.3
			c-0.2,0.2-0.4,0.3-0.4,0.6c0,0.3,0.3,0.5,0.7,0.5c1.1,0,2.4-2.1,2.4-3c0-0.6-0.2-1.2-0.5-1.7l-2-5.1c-0.5-1.2-0.6-1.7-1.9-1.7
			v-0.4c0.3,0,1.7,0.1,2.3,0.1c0.6,0,2-0.1,2.3-0.1v0.4c-0.6,0-1.5,0-1.5,0.6c0,0.4,0.1,0.5,0.2,0.9l1.9,5.1l1.8-4.7
			c0.1-0.2,0.3-0.8,0.3-1.2c0-0.8-0.9-0.8-1.7-0.8v-0.4c0.4,0,1.5,0.1,2.3,0.1c0.5,0,1.6-0.1,1.8-0.1v0.4c-0.9,0.1-1,0-1.7,1.7l-3,7
			L431.6,447.7z"/>
		<path fill="#4C3D2A" d="M441.7,445.6c-2.6,0-4.2-2-4.2-4.6c0-2.5,1.6-4.6,4.2-4.6c2.6,0,4.2,2,4.2,4.6
			C445.9,443.6,444.3,445.6,441.7,445.6z M444.2,441c0-2.3-0.7-4-2.5-4s-2.5,1.7-2.5,4c0,2.3,0.7,4,2.5,4S444.2,443.3,444.2,441z"/>
		<path fill="#4C3D2A" d="M457.2,445.4c-0.3,0-0.6,0-0.9-0.1c-0.3,0-0.6,0-0.9,0c-0.5,0-0.9,0-1.4,0.3c0.1-0.6,0.2-1.3,0.2-1.8
			c-0.9,0.8-2.2,1.8-4.1,1.8c-1.4,0-1.5-1.1-1.5-2.2v-3.6c0-1.7-0.3-1.8-1.8-1.8v-0.4c1.4-0.1,2.5-0.5,3.4-1.3c0,1-0.1,1.7-0.1,3.6
			v3c0,0.8,0,1.7,1.3,1.7c1.5,0,2.9-1,2.9-1.8v-2.9c0-1.8-0.3-1.8-1.8-1.8v-0.4c1.4-0.1,2.5-0.5,3.4-1.3c0,1-0.1,1.7-0.1,3.6v3.8
			c0,1.3,0.8,1.2,1.6,1.3V445.4z"/>
		<path fill="#4C3D2A" d="M466.6,445.3c0,2.1-1.5,3.7-3.6,3.7c-0.8,0-1.8-0.3-1.8-1.1c0-0.5,0.4-0.9,1-0.9c0.2,0,0.4,0.1,0.6,0.2
			c-0.1,0.1-0.2,0.3-0.2,0.5c0,0.4,0.3,0.6,0.9,0.6c1.7,0,1.7-2.2,1.7-4.4v-4.1c0-1.7-0.3-1.8-2-1.8v-0.4c1.5-0.1,2.7-0.5,3.6-1.3
			c0,1-0.1,1.7-0.1,3.6V445.3z M465.5,434.2c-0.6,0-1.1-0.5-1.1-1.1c0-0.6,0.5-1.1,1.1-1.1c0.6,0,1.1,0.5,1.1,1.1
			C466.6,433.7,466.1,434.2,465.5,434.2z"/>
		<path fill="#4C3D2A" d="M478.7,445.4c-0.3,0-0.6,0-0.9-0.1c-0.3,0-0.6,0-0.9,0c-0.5,0-0.9,0-1.4,0.3c0.1-0.6,0.2-1.3,0.2-1.8
			c-0.9,0.8-2.2,1.8-4.1,1.8c-1.4,0-1.5-1.1-1.5-2.2v-3.6c0-1.7-0.3-1.8-1.8-1.8v-0.4c1.4-0.1,2.5-0.5,3.4-1.3c0,1-0.1,1.7-0.1,3.6
			v3c0,0.8,0,1.7,1.3,1.7c1.5,0,2.9-1,2.9-1.8v-2.9c0-1.8-0.3-1.8-1.8-1.8v-0.4c1.4-0.1,2.5-0.5,3.4-1.3c0,1-0.1,1.7-0.1,3.6v3.8
			c0,1.3,0.8,1.2,1.6,1.3V445.4z"/>
		<path fill="#4C3D2A" d="M485.1,439.5c-0.3-0.9-0.8-2.4-2.4-2.4c-1.1,0-1.6,0.5-1.6,1.3c0,2.1,5.1,1.3,5.1,4.6
			c0,1.3-1.1,2.6-2.9,2.6c-1.3,0-1.8-0.5-2.7-0.5c-0.2,0-0.5,0.1-0.7,0.3c0-0.3,0.1-0.7,0.1-1.2c0-0.7,0-1.3-0.1-2.1h0.4
			c0.2,1.1,0.6,2.9,2.8,2.9c1,0,1.9-0.6,1.9-1.5c0-2.2-5-1.4-5-4.5c0-1.3,0.9-2.5,2.8-2.5c0.9,0,1.7,0.4,2.1,0.4
			c0.2,0,0.4-0.2,0.6-0.3c0,0.3,0,0.6,0,0.9c0,0.4,0,1.2,0.1,2H485.1z"/>
		<path fill="#4C3D2A" d="M493.2,444.4c-0.9,0.6-1.9,1.2-3.1,1.2c-1.1,0-1.3-1.1-1.3-2.5v-5.5h-1.6v-0.5c1.7-0.2,1.9-1.1,2.5-3.1
			h0.6c0,0.7-0.1,2.1-0.1,2.9l2.7-0.2v1h-2.7v4.6c0,2.2,0.2,2.4,1,2.4c0.7,0,1.2-0.3,1.7-0.6L493.2,444.4z"/>
		<path fill="#4C3D2A" d="M509.1,445.4c-0.8,0-1.6-0.1-2.3-0.1c-0.8,0-1.7,0.1-2.4,0.1v-0.4c1.6-0.2,1.6-0.5,1.6-2.5v-3.1
			c0-0.8,0-1.7-1.3-1.7c-1.8,0-2.9,1.3-2.9,2.4v2.5c0,2.1,0,2.3,1.6,2.5v0.4c-0.8,0-1.6-0.1-2.3-0.1c-0.8,0-1.7,0.1-2.4,0.1v-0.4
			c1.6-0.2,1.6-0.5,1.6-2.5v-2.6c0-1.7-0.3-1.8-2-1.8v-0.4c1.5-0.1,2.7-0.5,3.6-1.3c0,0.6-0.1,1-0.1,2.1c0.9-0.9,2.2-1.8,4.1-1.8
			c1.4,0,1.5,1.1,1.5,2.2v3.7c0,2.1,0,2.3,1.6,2.5V445.4z"/>
		<path fill="#4C3D2A" d="M517.4,442.3c-0.3,1.2-1.2,3.3-3.8,3.3c-2,0-3.6-1.2-3.6-4.4c0-2.9,1.7-4.7,4-4.7c2.8,0,3.2,2.4,3.2,3.5
			l-5.8,0.4c0,0.2,0,0.5,0,0.7c0,1.5,0.8,3.4,2.7,3.4c1.8,0,2.4-1.6,2.7-2.5L517.4,442.3z M514.9,439.5c0.3,0,0.9-0.2,0.9-0.7
			c0-0.8-0.7-1.7-1.7-1.7c-2.2,0-2.5,2-2.6,2.8L514.9,439.5z"/>
		<path fill="#4C3D2A" d="M526.2,442.3c-0.3,1.2-1.2,3.3-3.8,3.3c-2,0-3.6-1.2-3.6-4.4c0-2.9,1.7-4.7,4-4.7c2.8,0,3.2,2.4,3.2,3.5
			l-5.8,0.4c0,0.2,0,0.5,0,0.7c0,1.5,0.8,3.4,2.7,3.4c1.8,0,2.4-1.6,2.7-2.5L526.2,442.3z M523.6,439.5c0.3,0,0.9-0.2,0.9-0.7
			c0-0.8-0.7-1.7-1.7-1.7c-2.2,0-2.5,2-2.6,2.8L523.6,439.5z"/>
		<path fill="#4C3D2A" d="M536.9,445.4c-0.3,0-0.6,0-0.9-0.1c-0.3,0-0.6,0-0.8,0c-0.5,0-1.1,0.1-1.5,0.3c0-0.5,0.1-1.2,0.1-1.8
			c-1.1,1-2,1.8-3.5,1.8c-1.7,0-2.7-1.7-2.7-3.8c0-3.4,1.6-5.4,3.9-5.4c1.2,0,1.7,0.3,2.2,0.7v-1.8c0-2.2,0-2.6-2.2-2.6v-0.4
			c1.4,0,2.7-0.2,3.7-1c0,0.6-0.1,2.7-0.1,4v7c0,2.1,0,2.3,1.6,2.5V445.4z M533.8,439.9c0-1.5-0.3-2.8-2-2.8c-2,0-2.6,1.9-2.6,4.3
			c0,1.9,0.6,3.2,2.1,3.2c1.7,0,2.5-1.7,2.5-2.5V439.9z"/>
		<path fill="#4C3D2A" d="M548.4,444.4c-0.9,0.6-1.9,1.2-3.1,1.2c-1.1,0-1.3-1.1-1.3-2.5v-5.5h-1.6v-0.5c1.7-0.2,1.9-1.1,2.5-3.1
			h0.6c0,0.7-0.1,2.1-0.1,2.9l2.7-0.2v1h-2.7v4.6c0,2.2,0.2,2.4,1,2.4c0.7,0,1.2-0.3,1.7-0.6L548.4,444.4z"/>
		<path fill="#4C3D2A" d="M553.2,445.6c-2.6,0-4.2-2-4.2-4.6c0-2.5,1.6-4.6,4.2-4.6c2.6,0,4.2,2,4.2,4.6
			C557.4,443.6,555.8,445.6,553.2,445.6z M555.7,441c0-2.3-0.7-4-2.5-4s-2.5,1.7-2.5,4c0,2.3,0.7,4,2.5,4S555.7,443.3,555.7,441z"/>
		<path fill="#4C3D2A" d="M568.7,445.4c-0.9,0-2-0.1-2.7-0.1c-0.8,0-1.7,0.1-2.4,0.1v-0.4c1.6-0.2,1.6-0.5,1.6-2.5v-4.7h-1.6v-0.4
			c1.3-0.2,1.6-0.6,1.6-1.6c0-1.5,0.5-3.9,3.5-3.9c0.9,0,2,0.6,2,1.4c0,0.8-0.4,1.1-0.9,1.1c-0.6,0-0.7-0.3-1-0.8
			c0.2,0,0.5-0.2,0.5-0.5c0-0.4-0.4-0.7-0.9-0.7c-1.4,0-1.8,1.2-1.8,2.6v2l2.5-0.2v1h-2.5v4.7c0,2.1,0,2.3,2.1,2.5V445.4z"/>
		<path fill="#4C3D2A" d="M574.4,445.6c-2.6,0-4.2-2-4.2-4.6c0-2.5,1.6-4.6,4.2-4.6c2.6,0,4.2,2,4.2,4.6
			C578.5,443.6,576.9,445.6,574.4,445.6z M576.8,441c0-2.3-0.7-4-2.5-4s-2.5,1.7-2.5,4c0,2.3,0.7,4,2.5,4S576.8,443.3,576.8,441z"/>
		<path fill="#4C3D2A" d="M587.5,442.2c-0.4,1.3-1.1,3.4-3.8,3.4c-2.3,0-3.6-1.8-3.6-4.4c0-2.9,1.9-4.7,4.1-4.7
			c1.2,0,2.6,0.6,2.6,1.7c0,0.7-0.5,1.2-1.1,1.2c-0.4,0-0.9-0.3-0.9-1c0.4,0,0.6-0.3,0.6-0.5c0-0.6-0.6-0.8-1.3-0.8
			c-1.6,0-2.7,1.3-2.7,3.5c0,2,0.8,4,2.6,4c1.9,0,2.5-1.4,2.8-2.5L587.5,442.2z"/>
		<path fill="#4C3D2A" d="M598.3,445.4c-0.3,0-0.6,0-0.9-0.1c-0.3,0-0.6,0-0.9,0c-0.5,0-0.9,0-1.4,0.3c0.1-0.6,0.2-1.3,0.2-1.8
			c-0.9,0.8-2.2,1.8-4.1,1.8c-1.4,0-1.5-1.1-1.5-2.2v-3.6c0-1.7-0.3-1.8-1.8-1.8v-0.4c1.4-0.1,2.5-0.5,3.4-1.3c0,1-0.1,1.7-0.1,3.6
			v3c0,0.8,0,1.7,1.3,1.7c1.5,0,2.9-1,2.9-1.8v-2.9c0-1.8-0.3-1.8-1.8-1.8v-0.4c1.4-0.1,2.5-0.5,3.4-1.3c0,1-0.1,1.7-0.1,3.6v3.8
			c0,1.3,0.8,1.2,1.6,1.3V445.4z"/>
		<path fill="#4C3D2A" d="M604.7,439.5c-0.3-0.9-0.8-2.4-2.4-2.4c-1.1,0-1.6,0.5-1.6,1.3c0,2.1,5.1,1.3,5.1,4.6
			c0,1.3-1.1,2.6-2.9,2.6c-1.3,0-1.8-0.5-2.7-0.5c-0.2,0-0.5,0.1-0.7,0.3c0-0.3,0.1-0.7,0.1-1.2c0-0.7,0-1.3-0.1-2.1h0.4
			c0.2,1.1,0.6,2.9,2.8,2.9c1,0,1.9-0.6,1.9-1.5c0-2.2-5-1.4-5-4.5c0-1.3,0.9-2.5,2.8-2.5c0.9,0,1.7,0.4,2.1,0.4
			c0.2,0,0.4-0.2,0.6-0.3c0,0.3,0,0.6,0,0.9c0,0.4,0,1.2,0.1,2H604.7z"/>
		<path fill="#4C3D2A" d="M616.2,445.6c-2.6,0-4.2-2-4.2-4.6c0-2.5,1.6-4.6,4.2-4.6c2.6,0,4.2,2,4.2,4.6
			C620.4,443.6,618.8,445.6,616.2,445.6z M618.7,441c0-2.3-0.7-4-2.5-4s-2.5,1.7-2.5,4c0,2.3,0.7,4,2.5,4S618.7,443.3,618.7,441z"/>
		<path fill="#4C3D2A" d="M632.2,445.4c-0.8,0-1.6-0.1-2.3-0.1c-0.8,0-1.7,0.1-2.4,0.1v-0.4c1.6-0.2,1.6-0.5,1.6-2.5v-3.1
			c0-0.8,0-1.7-1.3-1.7c-1.8,0-2.9,1.3-2.9,2.4v2.5c0,2.1,0,2.3,1.6,2.5v0.4c-0.8,0-1.6-0.1-2.3-0.1c-0.8,0-1.7,0.1-2.4,0.1v-0.4
			c1.6-0.2,1.6-0.5,1.6-2.5v-2.6c0-1.7-0.3-1.8-2-1.8v-0.4c1.5-0.1,2.7-0.5,3.6-1.3c0,0.6-0.1,1-0.1,2.1c0.9-0.9,2.2-1.8,4.1-1.8
			c1.4,0,1.5,1.1,1.5,2.2v3.7c0,2.1,0,2.3,1.6,2.5V445.4z"/>
		<path fill="#4C3D2A" d="M643.8,444.4c-0.9,0.6-1.9,1.2-3.1,1.2c-1.1,0-1.3-1.1-1.3-2.5v-5.5h-1.6v-0.5c1.7-0.2,1.9-1.1,2.5-3.1
			h0.6c0,0.7-0.1,2.1-0.1,2.9l2.7-0.2v1h-2.7v4.6c0,2.2,0.2,2.4,1,2.4c0.7,0,1.2-0.3,1.7-0.6L643.8,444.4z"/>
		<path fill="#4C3D2A" d="M654.3,445.4c-0.8,0-1.6-0.1-2.3-0.1c-0.8,0-1.7,0.1-2.4,0.1v-0.4c1.6-0.2,1.6-0.5,1.6-2.5v-3.1
			c0-0.8,0-1.7-1.3-1.7c-1.8,0-2.9,1.3-2.9,2.4v2.5c0,2.1,0,2.3,1.6,2.5v0.4c-0.8,0-1.6-0.1-2.3-0.1c-0.8,0-1.7,0.1-2.4,0.1v-0.4
			c1.6-0.2,1.6-0.5,1.6-2.5v-7c0-2.2,0-2.6-2.2-2.6v-0.4c1.4,0,2.7-0.2,3.7-1c0,0.6-0.1,2.7-0.1,4v2.9c0.9-0.9,2.2-1.8,4.1-1.8
			c1.4,0,1.5,1.1,1.5,2.2v3.7c0,2.1,0,2.3,1.6,2.5V445.4z"/>
		<path fill="#4C3D2A" d="M662.7,442.3c-0.3,1.2-1.2,3.3-3.8,3.3c-2,0-3.6-1.2-3.6-4.4c0-2.9,1.7-4.7,4-4.7c2.8,0,3.2,2.4,3.2,3.5
			l-5.8,0.4c0,0.2,0,0.5,0,0.7c0,1.5,0.8,3.4,2.7,3.4c1.8,0,2.4-1.6,2.7-2.5L662.7,442.3z M660.1,439.5c0.3,0,0.9-0.2,0.9-0.7
			c0-0.8-0.7-1.7-1.7-1.7c-2.2,0-2.5,2-2.6,2.8L660.1,439.5z"/>
		<path fill="#4C3D2A" d="M671.1,438.2c1-0.8,2-1.7,3.5-1.7c1.9,0,2.7,1.8,2.7,4c0,3.2-1.4,5.2-3.8,5.2c-1.5,0-2-0.6-2.7-1.2
			c-0.3,0.7-0.8,1.1-1.7,1.6l-0.2-0.3c0.6-0.8,0.9-0.8,0.9-3.3v-7c0-2.2,0-2.6-2.2-2.6v-0.4c1.4,0,2.7-0.2,3.7-1
			c0,0.6-0.1,2.7-0.1,4V438.2z M671.1,441.8c0,1.3,0.1,3.2,2.3,3.2c1.5,0,2.3-1.6,2.3-3.9c0-2.1-0.6-3.6-2.1-3.6
			c-2.1,0-2.5,1.6-2.5,3.1V441.8z"/>
		<path fill="#4C3D2A" d="M688.7,445.4c-0.3,0-0.6,0-0.9-0.1c-0.3,0-0.6,0-0.9,0c-0.5,0-0.9,0-1.4,0.3c0.1-0.6,0.2-1.3,0.2-1.8
			c-0.9,0.8-2.2,1.8-4.1,1.8c-1.4,0-1.5-1.1-1.5-2.2v-3.6c0-1.7-0.3-1.8-1.8-1.8v-0.4c1.4-0.1,2.5-0.5,3.4-1.3c0,1-0.1,1.7-0.1,3.6
			v3c0,0.8,0,1.7,1.3,1.7c1.5,0,2.9-1,2.9-1.8v-2.9c0-1.8-0.3-1.8-1.8-1.8v-0.4c1.4-0.1,2.5-0.5,3.4-1.3c0,1-0.1,1.7-0.1,3.6v3.8
			c0,1.3,0.8,1.2,1.6,1.3V445.4z"/>
		<path fill="#4C3D2A" d="M695.1,439.5c-0.3-0.9-0.8-2.4-2.4-2.4c-1.1,0-1.6,0.5-1.6,1.3c0,2.1,5.1,1.3,5.1,4.6
			c0,1.3-1.1,2.6-2.9,2.6c-1.3,0-1.8-0.5-2.7-0.5c-0.2,0-0.5,0.1-0.7,0.3c0-0.3,0.1-0.7,0.1-1.2c0-0.7,0-1.3-0.1-2.1h0.4
			c0.2,1.1,0.6,2.9,2.8,2.9c1,0,1.9-0.6,1.9-1.5c0-2.2-5-1.4-5-4.5c0-1.3,0.9-2.5,2.8-2.5c0.9,0,1.7,0.4,2.1,0.4
			c0.2,0,0.4-0.2,0.6-0.3c0,0.3,0,0.6,0,0.9c0,0.4,0,1.2,0.1,2H695.1z"/>
		<path fill="#4C3D2A" d="M701.1,447.7c-0.1,0.2-1,1.8-2.8,1.8c-0.9,0-1.5-0.6-1.5-1.2c0-0.7,0.4-1,1-1c0.5,0,0.6,0.2,0.8,0.3
			c-0.2,0.2-0.4,0.3-0.4,0.6c0,0.3,0.3,0.5,0.7,0.5c1.1,0,2.4-2.1,2.4-3c0-0.6-0.2-1.2-0.5-1.7l-2-5.1c-0.5-1.2-0.6-1.7-1.9-1.7
			v-0.4c0.3,0,1.7,0.1,2.3,0.1c0.6,0,2-0.1,2.3-0.1v0.4c-0.6,0-1.5,0-1.5,0.6c0,0.4,0.1,0.5,0.2,0.9l1.9,5.1l1.8-4.7
			c0.1-0.2,0.3-0.8,0.3-1.2c0-0.8-0.9-0.8-1.7-0.8v-0.4c0.4,0,1.5,0.1,2.3,0.1c0.5,0,1.6-0.1,1.8-0.1v0.4c-0.9,0.1-1,0-1.7,1.7l-3,7
			L701.1,447.7z"/>
		<path fill="#4C3D2A" d="M722.8,443.3c-0.5,1-0.7,1.5-0.7,2.3l-0.8-0.1c0-0.6-0.3-1.4-0.5-2l-1.6-3.9l-1.9,4.2
			c-0.4,0.8-0.5,1.3-0.6,1.9l-0.8-0.1c0-0.4-0.3-1.4-0.6-2.2l-2-4.8c-0.5-1.2-1.1-1.1-1.7-1.2v-0.4c0.3,0,1.6,0.1,2.1,0.1
			c0.8,0,1.9-0.1,2.3-0.1v0.4c-0.7,0-1.4,0.1-1.4,0.7c0,0.5,0.2,0.8,0.4,1.3l1.7,4.3l2.1-4.6c-0.4-1.1-0.3-1.3-1.8-1.6v-0.4
			c0.4,0,1.4,0.1,2.1,0.1c0.8,0,2-0.1,2.5-0.1v0.4c-0.6,0-1.5,0.1-1.5,0.6c0,0.5,0.3,0.9,0.5,1.4l1.7,4.2l1.6-3.9
			c0.2-0.5,0.5-1.1,0.5-1.7c0-0.7-1-0.7-1.7-0.7v-0.4c0.4,0,1.5,0.1,2.3,0.1c0.5,0,1.4-0.1,1.8-0.1v0.4c-0.6,0-1.2,0.4-1.8,1.8
			L722.8,443.3z"/>
		<path fill="#4C3D2A" d="M731.3,445.6c-2.6,0-4.2-2-4.2-4.6c0-2.5,1.6-4.6,4.2-4.6c2.6,0,4.2,2,4.2,4.6
			C735.5,443.6,733.9,445.6,731.3,445.6z M733.8,441c0-2.3-0.7-4-2.5-4s-2.5,1.7-2.5,4c0,2.3,0.7,4,2.5,4S733.8,443.3,733.8,441z"/>
		<path fill="#4C3D2A" d="M741.9,445.4c-0.8,0-1.9-0.1-2.5-0.1c-0.8,0-1.7,0.1-2.4,0.1v-0.4c1.6-0.2,1.6-0.5,1.6-2.5v-2.6
			c0-1.7-0.3-1.8-2-1.8v-0.4c1.5-0.1,2.7-0.5,3.6-1.3c0,0.5-0.1,1.1-0.1,2c1-0.9,1.7-1.8,2.7-1.8c0.5,0,1,0.4,1,1
			c0,0.7-0.5,1.1-1,1.1c-0.1,0-0.4,0-0.4-0.1c0-0.1,0.1-0.2,0.1-0.3c0-0.3-0.3-0.5-0.6-0.5c-0.5,0-1.8,0.7-1.8,2.2v2.6
			c0,2.1,0,2.3,1.9,2.5V445.4z"/>
		<path fill="#4C3D2A" d="M754.3,445.4c-0.2,0-0.5,0-0.8-0.1c-0.3,0-0.6,0-0.7,0c-0.4,0-0.8,0.1-1.1,0.2c0-0.1,0-0.3,0-0.4
			c0-0.1-0.1-0.2-0.6-0.9l-2.4-3.3l-1.2,1.2c0,2.3,0,2.6,1.6,2.8v0.4c-0.8,0-1.6-0.1-2.3-0.1c-0.8,0-1.7,0.1-2.4,0.1v-0.4
			c1.6-0.2,1.6-0.5,1.6-2.5v-7c0-2.2,0-2.6-2.2-2.6v-0.4c1.4,0,2.7-0.2,3.7-1c0,0.6-0.1,2.7-0.1,4v5.9l2.3-2.3
			c0.6-0.6,0.9-1.1,0.9-1.3c0-0.5-0.6-0.6-1.3-0.6v-0.4c0.4,0,1.7,0.1,2.3,0.1c0.7,0,1.6-0.1,2.1-0.1v0.4c-1.3,0.1-1.6,0.3-2.7,1.5
			l-1.3,1.3l2.6,3.6c0.7,1,1,1.3,2,1.4V445.4z"/>
		<path fill="#4C3D2A" d="M757,445.6c-0.6,0-1.1-0.5-1.1-1.1c0-0.6,0.5-1.1,1.1-1.1c0.6,0,1.1,0.5,1.1,1.1
			C758.1,445.1,757.6,445.6,757,445.6z"/>
		<path fill="#4C3D2A" d="M439.2,463.8c-0.6,2.8-2.5,4.6-5.4,4.6c-3.6,0-5.7-2.8-5.7-6.7c0-3.7,2.2-6.5,6-6.5c1.5,0,2.9,0.6,3.5,0.6
			c0.4,0,0.7-0.2,1-0.4c0,0.5-0.1,1.4-0.1,2.2c0,0.6,0.1,1.5,0.1,1.9h-0.5c-0.3-1.2-1-3.6-3.7-3.6c-3.2,0-4.4,2.6-4.4,5.8
			c0,2.5,1.3,5.5,4.3,5.5c3.2,0,3.9-2.3,4.4-3.4H439.2z"/>
		<path fill="#4C3D2A" d="M444.5,468.4c-2.6,0-4.2-2-4.2-4.6c0-2.5,1.6-4.6,4.2-4.6c2.6,0,4.2,2,4.2,4.6
			C448.7,466.4,447.1,468.4,444.5,468.4z M447,463.8c0-2.3-0.7-4-2.5-4s-2.5,1.7-2.5,4c0,2.3,0.7,4,2.5,4S447,466.1,447,463.8z"/>
		<path fill="#4C3D2A" d="M455.1,468.2c-0.9,0-2-0.1-2.7-0.1c-0.8,0-1.7,0.1-2.4,0.1v-0.4c1.6-0.2,1.6-0.5,1.6-2.5v-4.7h-1.6V460
			c1.3-0.2,1.6-0.6,1.6-1.6c0-1.5,0.5-3.9,3.5-3.9c0.9,0,2,0.6,2,1.4c0,0.8-0.4,1.1-0.9,1.1c-0.6,0-0.7-0.3-0.9-0.8
			c0.2,0,0.5-0.2,0.5-0.5c0-0.4-0.4-0.7-0.9-0.7c-1.4,0-1.8,1.2-1.8,2.6v2l2.5-0.2v1H453v4.7c0,2.1,0,2.3,2.1,2.5V468.2z"/>
		<path fill="#4C3D2A" d="M461.4,468.2c-0.9,0-2-0.1-2.7-0.1c-0.8,0-1.7,0.1-2.4,0.1v-0.4c1.6-0.2,1.6-0.5,1.6-2.5v-4.7h-1.6V460
			c1.3-0.2,1.6-0.6,1.6-1.6c0-1.5,0.5-3.9,3.5-3.9c0.9,0,2,0.6,2,1.4c0,0.8-0.4,1.1-0.9,1.1c-0.6,0-0.7-0.3-1-0.8
			c0.2,0,0.5-0.2,0.5-0.5c0-0.4-0.4-0.7-0.9-0.7c-1.4,0-1.8,1.2-1.8,2.6v2l2.5-0.2v1h-2.5v4.7c0,2.1,0,2.3,2.1,2.5V468.2z"/>
		<path fill="#4C3D2A" d="M470.2,465.1c-0.3,1.2-1.2,3.3-3.8,3.3c-2,0-3.6-1.2-3.6-4.4c0-2.9,1.7-4.7,4-4.7c2.8,0,3.2,2.4,3.2,3.5
			l-5.8,0.4c0,0.2,0,0.5,0,0.7c0,1.5,0.8,3.4,2.7,3.4c1.8,0,2.4-1.6,2.7-2.5L470.2,465.1z M467.7,462.3c0.3,0,0.9-0.2,0.9-0.7
			c0-0.8-0.7-1.7-1.7-1.7c-2.2,0-2.5,2-2.6,2.8L467.7,462.3z"/>
		<path fill="#4C3D2A" d="M479,465.1c-0.3,1.2-1.2,3.3-3.8,3.3c-2,0-3.6-1.2-3.6-4.4c0-2.9,1.7-4.7,4-4.7c2.8,0,3.2,2.4,3.2,3.5
			l-5.8,0.4c0,0.2,0,0.5,0,0.7c0,1.5,0.8,3.4,2.7,3.4c1.8,0,2.4-1.6,2.7-2.5L479,465.1z M476.5,462.3c0.3,0,0.9-0.2,0.9-0.7
			c0-0.8-0.7-1.7-1.7-1.7c-2.2,0-2.5,2-2.6,2.8L476.5,462.3z"/>
		<path fill="#4C3D2A" d="M491.3,466.9c0.4,0,1.7,0.5,1.7,1.7c0,2.1-2.5,3.4-5,3.4c-2.2,0-3-1-3-2c0-1.3,1.1-1.8,2.1-2.3
			c-0.6-0.2-1.5-0.5-1.5-1.2c0-1,0.8-1.2,1.7-1.6c-0.7-0.3-1.8-0.9-1.8-2.6c0-1.9,1.1-3.1,3.3-3.1c0.2,0,0.5,0,0.7,0
			c0.4-0.7,1.2-2.1,2.5-2.1c0.5,0,1,0.3,1,0.9c0,0.6-0.4,0.9-0.8,0.9c-0.2,0-0.4,0-0.5-0.1c0.1-0.1,0.2-0.2,0.2-0.3
			c0-0.2-0.1-0.4-0.4-0.4c-0.8,0-1.2,0.8-1.4,1.1c0.5,0.1,2,0.7,2,2.8c0,2-1.5,3.1-3.1,3.1h-0.7c-0.6,0-1.4,0.4-1.4,0.9
			c0,0.5,0.8,0.5,1.7,0.6L491.3,466.9z M488.7,467.9c-0.3,0-0.6-0.1-0.8-0.2c-0.6,0.4-1.5,1-1.5,1.9c0,1,1,1.4,2.5,1.4
			c1.6,0,3.4-0.8,3.4-2c0-0.7-0.9-1-1.8-1L488.7,467.9z M490.6,462.1c0-1.1-0.5-2.3-1.7-2.3c-1.2,0-1.7,1.2-1.7,2.5
			c0,1.3,0.4,2.4,1.7,2.4C490.1,464.6,490.6,463.6,490.6,462.1z"/>
		<path fill="#4C3D2A" d="M498.8,468.2c-0.8,0-1.6-0.1-2.3-0.1c-0.8,0-1.7,0.1-2.4,0.1v-0.4c1.6-0.2,1.6-0.5,1.6-2.5v-2.6
			c0-1.7-0.3-1.8-2-1.8v-0.4c1.5-0.1,2.7-0.5,3.6-1.3c0,1-0.1,1.7-0.1,3.6v2.6c0,2.1,0,2.3,1.6,2.5V468.2z M496.1,457
			c-0.6,0-1.1-0.5-1.1-1.1c0-0.6,0.5-1.1,1.1-1.1c0.6,0,1.1,0.5,1.1,1.1C497.2,456.5,496.7,457,496.1,457z"/>
		<path fill="#4C3D2A" d="M505,466c-0.1,0.3-0.7,1.6-0.9,2.4l-0.8-0.2c-0.1-0.8-0.3-1.5-0.8-2.8l-1.3-3.3c-0.7-1.8-0.6-2-2.1-2.2
			v-0.4c0.4,0,1.3,0.1,2.2,0.1c1,0,1.9-0.1,2.3-0.1v0.4c-0.8,0-1.4,0-1.5,0.6c0,0.4,0.2,0.8,0.4,1.3l1.7,4.4l1.5-3.7
			c0.2-0.6,0.6-1.4,0.6-1.9c-0.1-0.7-1-0.7-1.7-0.7v-0.4c0.4,0,1.4,0.1,2.2,0.1c0.6,0,1.6-0.1,1.9-0.1v0.4c-0.9,0.2-1.1,0.3-1.7,1.6
			L505,466z"/>
		<path fill="#4C3D2A" d="M516.7,465.1c-0.3,1.2-1.2,3.3-3.8,3.3c-2,0-3.6-1.2-3.6-4.4c0-2.9,1.7-4.7,4-4.7c2.8,0,3.2,2.4,3.2,3.5
			l-5.8,0.4c0,0.2,0,0.5,0,0.7c0,1.5,0.8,3.4,2.7,3.4c1.8,0,2.4-1.6,2.7-2.5L516.7,465.1z M514.1,462.3c0.3,0,0.9-0.2,0.9-0.7
			c0-0.8-0.7-1.7-1.7-1.7c-2.2,0-2.5,2-2.6,2.8L514.1,462.3z"/>
		<path fill="#4C3D2A" d="M523.4,462.2c-0.3-0.9-0.8-2.4-2.4-2.4c-1.1,0-1.6,0.5-1.6,1.3c0,2.1,5.1,1.3,5.1,4.6
			c0,1.3-1.1,2.6-2.9,2.6c-1.3,0-1.8-0.5-2.7-0.5c-0.2,0-0.5,0.1-0.7,0.3c0-0.3,0.1-0.7,0.1-1.2c0-0.7,0-1.3-0.1-2.1h0.4
			c0.2,1.1,0.6,2.9,2.8,2.9c1,0,1.9-0.6,1.9-1.5c0-2.2-5-1.4-5-4.5c0-1.3,0.9-2.5,2.8-2.5c0.9,0,1.7,0.4,2.1,0.4
			c0.2,0,0.4-0.2,0.6-0.3c0,0.3,0,0.6,0,0.9c0,0.4,0,1.2,0.1,2H523.4z"/>
		<path fill="#4C3D2A" d="M534.4,470.5c-0.1,0.2-1,1.8-2.8,1.8c-0.9,0-1.5-0.6-1.5-1.2c0-0.7,0.4-1,1-1c0.5,0,0.6,0.2,0.8,0.3
			c-0.2,0.2-0.4,0.3-0.4,0.6c0,0.3,0.3,0.5,0.7,0.5c1.1,0,2.4-2.1,2.4-3c0-0.6-0.2-1.2-0.5-1.7l-2-5.1c-0.5-1.2-0.6-1.7-1.9-1.7
			v-0.4c0.3,0,1.7,0.1,2.3,0.1c0.6,0,2-0.1,2.3-0.1v0.4c-0.6,0-1.5,0-1.5,0.6c0,0.4,0.1,0.5,0.2,0.9l1.9,5.1l1.8-4.7
			c0.1-0.2,0.3-0.8,0.3-1.2c0-0.8-0.9-0.8-1.7-0.8v-0.4c0.4,0,1.5,0.1,2.3,0.1c0.5,0,1.6-0.1,1.8-0.1v0.4c-0.9,0.1-1,0-1.7,1.7l-3,7
			L534.4,470.5z"/>
		<path fill="#4C3D2A" d="M544.5,468.4c-2.6,0-4.2-2-4.2-4.6c0-2.5,1.6-4.6,4.2-4.6c2.6,0,4.2,2,4.2,4.6
			C548.7,466.4,547,468.4,544.5,468.4z M547,463.8c0-2.3-0.7-4-2.5-4s-2.5,1.7-2.5,4c0,2.3,0.7,4,2.5,4S547,466.1,547,463.8z"/>
		<path fill="#4C3D2A" d="M560,468.2c-0.3,0-0.6,0-0.9-0.1c-0.3,0-0.6,0-0.9,0c-0.5,0-0.9,0-1.4,0.3c0.1-0.6,0.2-1.3,0.2-1.8
			c-0.9,0.8-2.2,1.8-4.1,1.8c-1.4,0-1.5-1.1-1.5-2.2v-3.6c0-1.7-0.3-1.8-1.8-1.8v-0.4c1.4-0.1,2.5-0.5,3.4-1.3c0,1-0.1,1.7-0.1,3.6
			v3c0,0.8,0,1.7,1.3,1.7c1.5,0,2.9-1,2.9-1.8v-2.9c0-1.8-0.3-1.8-1.8-1.8v-0.4c1.4-0.1,2.5-0.5,3.4-1.3c0,1-0.1,1.7-0.1,3.6v3.8
			c0,1.3,0.8,1.2,1.6,1.3V468.2z"/>
		<path fill="#4C3D2A" d="M580.8,468.2c-0.8,0-1.6-0.1-2.3-0.1c-0.9,0-1.7,0.1-2.4,0.1v-0.4c1.6-0.2,1.6-0.5,1.6-2.5V462
			c0-0.8,0-1.7-0.9-1.7c-1.7,0-2.8,1.2-2.8,2.3v2.6c0,2.1,0,2.3,1.4,2.5v0.4c-0.7,0-1.4-0.1-2.1-0.1c-0.8,0-1.5,0.1-2.2,0.1v-0.4
			c1.4-0.2,1.4-0.5,1.4-2.5V462c0-0.8,0-1.7-0.9-1.7c-1.7,0-2.8,1.2-2.8,2.3v2.6c0,2.1,0,2.3,1.6,2.5v0.4c-0.8,0-1.6-0.1-2.3-0.1
			c-0.8,0-1.7,0.1-2.4,0.1v-0.4c1.6-0.2,1.6-0.5,1.6-2.5v-2.6c0-1.7-0.3-1.8-2-1.8v-0.4c1.5-0.1,2.7-0.5,3.6-1.3
			c0,0.6-0.1,1.2-0.1,2c0.9-0.8,2.3-1.7,3.7-1.7c1.1,0,1.3,0.8,1.4,1.7c0.9-0.8,2.3-1.7,3.7-1.7c1.2,0,1.3,1.1,1.3,2.2v3.7
			c0,2.1,0,2.3,1.6,2.5V468.2z"/>
		<path fill="#4C3D2A" d="M586,468.4c-2.6,0-4.2-2-4.2-4.6c0-2.5,1.6-4.6,4.2-4.6c2.6,0,4.2,2,4.2,4.6
			C590.2,466.4,588.6,468.4,586,468.4z M588.5,463.8c0-2.3-0.7-4-2.5-4s-2.5,1.7-2.5,4c0,2.3,0.7,4,2.5,4S588.5,466.1,588.5,463.8z"
			/>
		<path fill="#4C3D2A" d="M596.6,468.2c-0.8,0-1.9-0.1-2.5-0.1c-0.8,0-1.7,0.1-2.4,0.1v-0.4c1.6-0.2,1.6-0.5,1.6-2.5v-2.6
			c0-1.7-0.3-1.8-2-1.8v-0.4c1.5-0.1,2.7-0.5,3.6-1.3c0,0.5-0.1,1.1-0.1,2c1-0.9,1.7-1.8,2.7-1.8c0.5,0,1,0.4,1,1
			c0,0.7-0.5,1.1-1,1.1c-0.1,0-0.4,0-0.4-0.1c0-0.1,0.1-0.2,0.1-0.3c0-0.3-0.3-0.5-0.6-0.5c-0.5,0-1.8,0.7-1.8,2.2v2.6
			c0,2.1,0,2.3,1.9,2.5V468.2z"/>
		<path fill="#4C3D2A" d="M606.4,465.1c-0.3,1.2-1.2,3.3-3.8,3.3c-2,0-3.6-1.2-3.6-4.4c0-2.9,1.7-4.7,4-4.7c2.8,0,3.2,2.4,3.2,3.5
			l-5.8,0.4c0,0.2,0,0.5,0,0.7c0,1.5,0.8,3.4,2.7,3.4c1.8,0,2.4-1.6,2.7-2.5L606.4,465.1z M603.9,462.3c0.3,0,0.9-0.2,0.9-0.7
			c0-0.8-0.7-1.7-1.7-1.7c-2.2,0-2.5,2-2.6,2.8L603.9,462.3z"/>
		<path fill="#4C3D2A" d="M620.2,465.1c-0.3,1.2-1.2,3.3-3.8,3.3c-2,0-3.6-1.2-3.6-4.4c0-2.9,1.7-4.7,4-4.7c2.8,0,3.2,2.4,3.2,3.5
			l-5.8,0.4c0,0.2,0,0.5,0,0.7c0,1.5,0.8,3.4,2.7,3.4c1.8,0,2.4-1.6,2.7-2.5L620.2,465.1z M617.6,462.3c0.3,0,0.9-0.2,0.9-0.7
			c0-0.8-0.7-1.7-1.7-1.7c-2.2,0-2.5,2-2.6,2.8L617.6,462.3z"/>
		<path fill="#4C3D2A" d="M631.9,468.2c-0.8,0-1.6-0.1-2.3-0.1c-0.8,0-1.7,0.1-2.4,0.1v-0.4c1.6-0.2,1.6-0.5,1.6-2.5V462
			c0-0.8,0-1.7-1.3-1.7c-1.8,0-2.9,1.3-2.9,2.4v2.5c0,2.1,0,2.3,1.6,2.5v0.4c-0.8,0-1.6-0.1-2.3-0.1c-0.8,0-1.7,0.1-2.4,0.1v-0.4
			c1.6-0.2,1.6-0.5,1.6-2.5v-2.6c0-1.7-0.3-1.8-2-1.8v-0.4c1.5-0.1,2.7-0.5,3.6-1.3c0,0.6-0.1,1-0.1,2.1c0.9-0.9,2.2-1.8,4.1-1.8
			c1.4,0,1.5,1.1,1.5,2.2v3.7c0,2.1,0,2.3,1.6,2.5V468.2z"/>
		<path fill="#4C3D2A" d="M640.2,465.1c-0.3,1.2-1.2,3.3-3.8,3.3c-2,0-3.6-1.2-3.6-4.4c0-2.9,1.7-4.7,4-4.7c2.8,0,3.2,2.4,3.2,3.5
			l-5.8,0.4c0,0.2,0,0.5,0,0.7c0,1.5,0.8,3.4,2.7,3.4c1.8,0,2.4-1.6,2.7-2.5L640.2,465.1z M637.7,462.3c0.3,0,0.9-0.2,0.9-0.7
			c0-0.8-0.7-1.7-1.7-1.7c-2.2,0-2.5,2-2.6,2.8L637.7,462.3z"/>
		<path fill="#4C3D2A" d="M646.6,468.2c-0.8,0-1.9-0.1-2.5-0.1c-0.8,0-1.7,0.1-2.4,0.1v-0.4c1.6-0.2,1.6-0.5,1.6-2.5v-2.6
			c0-1.7-0.3-1.8-2-1.8v-0.4c1.5-0.1,2.7-0.5,3.6-1.3c0,0.5-0.1,1.1-0.1,2c1-0.9,1.7-1.8,2.7-1.8c0.5,0,1,0.4,1,1
			c0,0.7-0.5,1.1-1,1.1c-0.1,0-0.4,0-0.4-0.1c0-0.1,0.1-0.2,0.1-0.3c0-0.3-0.3-0.5-0.6-0.5c-0.5,0-1.8,0.7-1.8,2.2v2.6
			c0,2.1,0,2.3,1.9,2.5V468.2z"/>
		<path fill="#4C3D2A" d="M655,466.9c0.4,0,1.7,0.5,1.7,1.7c0,2.1-2.5,3.4-5,3.4c-2.2,0-3-1-3-2c0-1.3,1.1-1.8,2.1-2.3
			c-0.6-0.2-1.5-0.5-1.5-1.2c0-1,0.8-1.2,1.7-1.6c-0.7-0.3-1.8-0.9-1.8-2.6c0-1.9,1.1-3.1,3.3-3.1c0.2,0,0.5,0,0.7,0
			c0.4-0.7,1.2-2.1,2.5-2.1c0.5,0,1,0.3,1,0.9c0,0.6-0.4,0.9-0.8,0.9c-0.2,0-0.4,0-0.5-0.1c0.1-0.1,0.2-0.2,0.2-0.3
			c0-0.2-0.1-0.4-0.4-0.4c-0.8,0-1.2,0.8-1.4,1.1c0.5,0.1,2,0.7,2,2.8c0,2-1.5,3.1-3.1,3.1H652c-0.6,0-1.4,0.4-1.4,0.9
			c0,0.5,0.8,0.5,1.7,0.6L655,466.9z M652.3,467.9c-0.3,0-0.6-0.1-0.8-0.2c-0.6,0.4-1.5,1-1.5,1.9c0,1,1,1.4,2.5,1.4
			c1.6,0,3.4-0.8,3.4-2c0-0.7-0.9-1-1.8-1L652.3,467.9z M654.2,462.1c0-1.1-0.5-2.3-1.7-2.3c-1.2,0-1.7,1.2-1.7,2.5
			c0,1.3,0.4,2.4,1.7,2.4C653.8,464.6,654.2,463.6,654.2,462.1z"/>
		<path fill="#4C3D2A" d="M661.4,470.5c-0.1,0.2-1,1.8-2.8,1.8c-0.9,0-1.5-0.6-1.5-1.2c0-0.7,0.4-1,1-1c0.5,0,0.6,0.2,0.8,0.3
			c-0.2,0.2-0.4,0.3-0.4,0.6c0,0.3,0.3,0.5,0.7,0.5c1.1,0,2.4-2.1,2.4-3c0-0.6-0.2-1.2-0.5-1.7l-2-5.1c-0.5-1.2-0.6-1.7-1.9-1.7
			v-0.4c0.3,0,1.7,0.1,2.3,0.1c0.6,0,2-0.1,2.3-0.1v0.4c-0.6,0-1.5,0-1.5,0.6c0,0.4,0.1,0.5,0.2,0.9l1.9,5.1l1.8-4.7
			c0.1-0.2,0.3-0.8,0.3-1.2c0-0.8-0.9-0.8-1.7-0.8v-0.4c0.4,0,1.5,0.1,2.3,0.1c0.5,0,1.6-0.1,1.8-0.1v0.4c-0.9,0.1-1,0-1.7,1.7l-3,7
			L661.4,470.5z"/>
		<path fill="#4C3D2A" d="M680.8,468.2c-0.3,0-0.6,0-0.9-0.1c-0.3,0-0.6,0-0.9,0c-0.5,0-0.9,0-1.4,0.3c0.1-0.6,0.2-1.3,0.2-1.8
			c-0.8,0.7-1.8,1.8-3.3,1.8c-1,0-2-0.8-2-2.1c0-1.7,1.6-2.2,2.6-2.5l2.1-0.6c0.6-0.2,0.6-0.6,0.6-1.6c0-1.1-0.4-1.5-1.3-1.5
			c-1,0-2.1,0.4-2.1,1c0,0.2,0.2,0.5,0.3,0.5c0.1,0,0.2,0,0.3,0c0,0.5-0.3,1.2-1,1.2c-0.5,0-0.9-0.4-0.9-0.9c0-1.8,2.8-2.5,4.2-2.5
			c1.6,0,1.9,1,1.9,2.1v5c0,1.3,0.8,1.2,1.6,1.3V468.2z M676.4,463.9c-1.3,0.4-2.3,0.7-2.3,2c0,0.9,0.6,1.4,1.2,1.4
			c1,0,2.6-0.9,2.6-2v-1.8L676.4,463.9z"/>
		<path fill="#4C3D2A" d="M692.1,468.2c-0.8,0-1.6-0.1-2.3-0.1c-0.8,0-1.7,0.1-2.4,0.1v-0.4c1.6-0.2,1.6-0.5,1.6-2.5V462
			c0-0.8,0-1.7-1.3-1.7c-1.8,0-2.9,1.3-2.9,2.4v2.5c0,2.1,0,2.3,1.6,2.5v0.4c-0.8,0-1.6-0.1-2.3-0.1c-0.8,0-1.7,0.1-2.4,0.1v-0.4
			c1.6-0.2,1.6-0.5,1.6-2.5v-2.6c0-1.7-0.3-1.8-2-1.8v-0.4c1.5-0.1,2.7-0.5,3.6-1.3c0,0.6-0.1,1-0.1,2.1c0.9-0.9,2.2-1.8,4.1-1.8
			c1.4,0,1.5,1.1,1.5,2.2v3.7c0,2.1,0,2.3,1.6,2.5V468.2z"/>
		<path fill="#4C3D2A" d="M702.3,468.2c-0.3,0-0.6,0-0.9-0.1c-0.3,0-0.6,0-0.8,0c-0.5,0-1.1,0.1-1.5,0.3c0-0.5,0.1-1.2,0.1-1.8
			c-1.1,1-2,1.8-3.5,1.8c-1.7,0-2.7-1.7-2.7-3.8c0-3.4,1.6-5.4,3.9-5.4c1.2,0,1.7,0.3,2.2,0.7v-1.8c0-2.2,0-2.6-2.2-2.6v-0.4
			c1.4,0,2.7-0.2,3.7-1c0,0.6-0.1,2.7-0.1,4v7c0,2.1,0,2.3,1.6,2.5V468.2z M699.2,462.7c0-1.5-0.3-2.8-2-2.8c-2,0-2.6,1.9-2.6,4.3
			c0,1.9,0.6,3.2,2.1,3.2c1.7,0,2.5-1.7,2.5-2.5V462.7z"/>
		<path fill="#4C3D2A" d="M713.8,467.2c-0.9,0.6-1.9,1.2-3.1,1.2c-1.1,0-1.3-1.1-1.3-2.5v-5.5h-1.6v-0.5c1.7-0.2,1.9-1.1,2.5-3.1
			h0.6c0,0.7-0.1,2.1-0.1,2.9l2.7-0.2v1h-2.7v4.6c0,2.2,0.2,2.4,1,2.4c0.7,0,1.2-0.3,1.7-0.6L713.8,467.2z"/>
		<path fill="#4C3D2A" d="M724.4,468.2c-0.8,0-1.6-0.1-2.3-0.1c-0.8,0-1.7,0.1-2.4,0.1v-0.4c1.6-0.2,1.6-0.5,1.6-2.5V462
			c0-0.8,0-1.7-1.3-1.7c-1.8,0-2.9,1.3-2.9,2.4v2.5c0,2.1,0,2.3,1.6,2.5v0.4c-0.8,0-1.6-0.1-2.3-0.1c-0.8,0-1.7,0.1-2.4,0.1v-0.4
			c1.6-0.2,1.6-0.5,1.6-2.5v-7c0-2.2,0-2.6-2.2-2.6v-0.4c1.4,0,2.7-0.2,3.7-1c0,0.6-0.1,2.7-0.1,4v2.9c0.9-0.9,2.2-1.8,4.1-1.8
			c1.4,0,1.5,1.1,1.5,2.2v3.7c0,2.1,0,2.3,1.6,2.5V468.2z"/>
		<path fill="#4C3D2A" d="M732.8,465.1c-0.3,1.2-1.2,3.3-3.8,3.3c-2,0-3.6-1.2-3.6-4.4c0-2.9,1.7-4.7,4-4.7c2.8,0,3.2,2.4,3.2,3.5
			l-5.8,0.4c0,0.2,0,0.5,0,0.7c0,1.5,0.8,3.4,2.7,3.4c1.8,0,2.4-1.6,2.7-2.5L732.8,465.1z M730.2,462.3c0.3,0,0.9-0.2,0.9-0.7
			c0-0.8-0.7-1.7-1.7-1.7c-2.2,0-2.5,2-2.6,2.8L730.2,462.3z"/>
		<path fill="#4C3D2A" d="M436.2,491c-0.3,0-0.6,0-0.9-0.1c-0.3,0-0.6,0-0.9,0c-0.5,0-0.9,0-1.4,0.3c0.1-0.6,0.2-1.3,0.2-1.8
			c-0.8,0.7-1.8,1.8-3.3,1.8c-1,0-2-0.8-2-2.1c0-1.7,1.6-2.2,2.6-2.5l2.1-0.6c0.6-0.2,0.6-0.6,0.6-1.6c0-1.1-0.4-1.5-1.3-1.5
			c-1,0-2.1,0.4-2.1,1c0,0.2,0.2,0.5,0.3,0.5c0.1,0,0.2,0,0.3,0c0,0.5-0.3,1.2-1,1.2c-0.5,0-0.9-0.4-0.9-0.9c0-1.8,2.8-2.5,4.2-2.5
			c1.6,0,1.9,1,1.9,2.1v5c0,1.3,0.8,1.2,1.6,1.3V491z M431.9,486.7c-1.3,0.4-2.3,0.7-2.3,2c0,0.9,0.6,1.4,1.2,1.4c1,0,2.6-0.9,2.6-2
			v-1.8L431.9,486.7z"/>
		<path fill="#4C3D2A" d="M439.3,483.8c1-0.8,2-1.7,3.5-1.7c1.9,0,2.7,1.8,2.7,4c0,3.2-1.4,5.2-3.8,5.2c-1.5,0-2-0.6-2.7-1.2
			c-0.3,0.7-0.8,1.1-1.7,1.6l-0.2-0.3c0.6-0.8,0.9-0.8,0.9-3.3v-7c0-2.2,0-2.6-2.2-2.6V478c1.4,0,2.7-0.2,3.7-1c0,0.6-0.1,2.7-0.1,4
			V483.8z M439.3,487.4c0,1.3,0.1,3.2,2.3,3.2c1.5,0,2.3-1.6,2.3-3.9c0-2.1-0.6-3.6-2.1-3.6c-2.1,0-2.5,1.6-2.5,3.1V487.4z"/>
		<path fill="#4C3D2A" d="M451.6,491c-0.8,0-1.6-0.1-2.3-0.1c-0.8,0-1.7,0.1-2.4,0.1v-0.4c1.6-0.2,1.6-0.5,1.6-2.5v-2.6
			c0-1.7-0.3-1.8-2-1.8v-0.4c1.5-0.1,2.7-0.5,3.6-1.3c0,1-0.1,1.7-0.1,3.6v2.6c0,2.1,0,2.3,1.6,2.5V491z M449,479.8
			c-0.6,0-1.1-0.5-1.1-1.1c0-0.6,0.5-1.1,1.1-1.1c0.6,0,1.1,0.5,1.1,1.1C450.1,479.3,449.6,479.8,449,479.8z"/>
		<path fill="#4C3D2A" d="M457,491c-0.8,0-1.6-0.1-2.3-0.1c-0.8,0-1.7,0.1-2.4,0.1v-0.4c1.6-0.2,1.6-0.5,1.6-2.5v-7
			c0-2.2,0-2.6-2.2-2.6V478c1.4,0,2.7-0.2,3.7-1c0,0.6-0.1,2.7-0.1,4v7c0,2.1,0,2.3,1.6,2.5V491z"/>
		<path fill="#4C3D2A" d="M462.5,491c-0.8,0-1.6-0.1-2.3-0.1c-0.8,0-1.7,0.1-2.4,0.1v-0.4c1.6-0.2,1.6-0.5,1.6-2.5v-2.6
			c0-1.7-0.3-1.8-2-1.8v-0.4c1.5-0.1,2.7-0.5,3.6-1.3c0,1-0.1,1.7-0.1,3.6v2.6c0,2.1,0,2.3,1.6,2.5V491z M459.9,479.8
			c-0.6,0-1.1-0.5-1.1-1.1c0-0.6,0.5-1.1,1.1-1.1c0.6,0,1.1,0.5,1.1,1.1C461,479.3,460.5,479.8,459.9,479.8z"/>
		<path fill="#4C3D2A" d="M469.2,490c-0.9,0.6-1.9,1.2-3.1,1.2c-1.1,0-1.3-1.1-1.3-2.5v-5.5h-1.6v-0.5c1.7-0.2,1.9-1.1,2.5-3.1h0.6
			c0,0.7-0.1,2.1-0.1,2.9l2.7-0.2v1h-2.7v4.6c0,2.2,0.2,2.4,1,2.4c0.7,0,1.2-0.3,1.7-0.6L469.2,490z"/>
		<path fill="#4C3D2A" d="M473.5,493.3c-0.1,0.2-1,1.8-2.8,1.8c-0.9,0-1.5-0.6-1.5-1.2c0-0.7,0.4-1,1-1c0.5,0,0.6,0.2,0.8,0.3
			c-0.2,0.2-0.4,0.3-0.4,0.6c0,0.3,0.3,0.5,0.7,0.5c1.1,0,2.4-2.1,2.4-3c0-0.6-0.2-1.2-0.5-1.7l-2-5.1c-0.5-1.2-0.6-1.7-1.9-1.7
			v-0.4c0.3,0,1.7,0.1,2.3,0.1c0.6,0,2-0.1,2.3-0.1v0.4c-0.6,0-1.5,0-1.5,0.6c0,0.4,0.1,0.5,0.2,0.9l1.9,5.1l1.8-4.7
			c0.1-0.2,0.3-0.8,0.3-1.2c0-0.8-0.9-0.8-1.7-0.8v-0.4c0.4,0,1.5,0.1,2.3,0.1c0.5,0,1.6-0.1,1.8-0.1v0.4c-0.9,0.1-1,0-1.7,1.7l-3,7
			L473.5,493.3z"/>
		<path fill="#4C3D2A" d="M490.4,490c-0.9,0.6-1.9,1.2-3.1,1.2c-1.1,0-1.3-1.1-1.3-2.5v-5.5h-1.6v-0.5c1.7-0.2,1.9-1.1,2.5-3.1h0.6
			c0,0.7-0.1,2.1-0.1,2.9l2.7-0.2v1h-2.7v4.6c0,2.2,0.2,2.4,1,2.4c0.7,0,1.2-0.3,1.7-0.6L490.4,490z"/>
		<path fill="#4C3D2A" d="M495.2,491.2c-2.6,0-4.2-2-4.2-4.6c0-2.5,1.6-4.6,4.2-4.6c2.6,0,4.2,2,4.2,4.6
			C499.4,489.2,497.7,491.2,495.2,491.2z M497.7,486.6c0-2.3-0.7-4-2.5-4s-2.5,1.7-2.5,4c0,2.3,0.7,4,2.5,4S497.7,488.9,497.7,486.6
			z"/>
		<path fill="#4C3D2A" d="M510.6,491c-0.9,0-2-0.1-2.7-0.1c-0.8,0-1.7,0.1-2.4,0.1v-0.4c1.6-0.2,1.6-0.5,1.6-2.5v-4.7h-1.6v-0.4
			c1.3-0.2,1.6-0.6,1.6-1.6c0-1.5,0.5-3.9,3.5-3.9c0.9,0,2,0.6,2,1.4c0,0.8-0.4,1.1-0.9,1.1c-0.6,0-0.7-0.3-0.9-0.8
			c0.2,0,0.5-0.2,0.5-0.5c0-0.4-0.4-0.7-0.9-0.7c-1.4,0-1.8,1.2-1.8,2.6v2l2.5-0.2v1h-2.5v4.7c0,2.1,0,2.3,2.1,2.5V491z"/>
		<path fill="#4C3D2A" d="M516.3,491.2c-2.6,0-4.2-2-4.2-4.6c0-2.5,1.6-4.6,4.2-4.6c2.6,0,4.2,2,4.2,4.6
			C520.5,489.2,518.9,491.2,516.3,491.2z M518.8,486.6c0-2.3-0.7-4-2.5-4s-2.5,1.7-2.5,4c0,2.3,0.7,4,2.5,4S518.8,488.9,518.8,486.6
			z"/>
		<path fill="#4C3D2A" d="M529.4,487.8c-0.4,1.3-1.1,3.4-3.8,3.4c-2.3,0-3.6-1.8-3.6-4.4c0-2.9,1.9-4.7,4.1-4.7
			c1.2,0,2.6,0.6,2.6,1.7c0,0.7-0.5,1.2-1.1,1.2c-0.4,0-0.9-0.3-0.9-1c0.4,0,0.6-0.3,0.6-0.5c0-0.6-0.6-0.8-1.3-0.8
			c-1.6,0-2.7,1.3-2.7,3.5c0,2,0.8,4,2.6,4c1.9,0,2.5-1.4,2.8-2.5L529.4,487.8z"/>
		<path fill="#4C3D2A" d="M540.2,491c-0.3,0-0.6,0-0.9-0.1c-0.3,0-0.6,0-0.9,0c-0.5,0-0.9,0-1.4,0.3c0.1-0.6,0.2-1.3,0.2-1.8
			c-0.9,0.8-2.2,1.8-4.1,1.8c-1.4,0-1.5-1.1-1.5-2.2v-3.6c0-1.7-0.3-1.8-1.8-1.8v-0.4c1.4-0.1,2.5-0.5,3.4-1.3c0,1-0.1,1.7-0.1,3.6
			v3c0,0.8,0,1.7,1.3,1.7c1.5,0,2.9-1,2.9-1.8v-2.9c0-1.8-0.3-1.8-1.8-1.8v-0.4c1.4-0.1,2.5-0.5,3.4-1.3c0,1-0.1,1.7-0.1,3.6v3.8
			c0,1.3,0.8,1.2,1.6,1.3V491z"/>
		<path fill="#4C3D2A" d="M546.6,485.1c-0.3-0.9-0.8-2.4-2.4-2.4c-1.1,0-1.6,0.5-1.6,1.3c0,2.1,5.1,1.3,5.1,4.6
			c0,1.3-1.1,2.6-2.9,2.6c-1.3,0-1.8-0.5-2.7-0.5c-0.2,0-0.5,0.1-0.7,0.3c0-0.3,0.1-0.7,0.1-1.2c0-0.7,0-1.3-0.1-2.1h0.4
			c0.2,1.1,0.6,2.9,2.8,2.9c1,0,1.9-0.6,1.9-1.5c0-2.2-5-1.4-5-4.5c0-1.3,0.9-2.5,2.8-2.5c0.9,0,1.7,0.4,2.1,0.4
			c0.2,0,0.4-0.2,0.6-0.3c0,0.3,0,0.6,0,0.9c0,0.4,0,1.2,0.1,2H546.6z"/>
		<path fill="#4C3D2A" d="M550.8,491.2c-0.6,0-1.1-0.5-1.1-1.1c0-0.6,0.5-1.1,1.1-1.1c0.6,0,1.1,0.5,1.1,1.1
			C551.9,490.7,551.4,491.2,550.8,491.2z"/>
	</g>
	<g>
		<rect x="27.7" y="415.5" fill="none" width="349.6" height="91"/>
		<path fill="#4C3D2A" d="M34.8,422.5c2,0.2,4.3,0.6,4.3,3.3c0,2.5-2,3.8-5.1,3.8c-0.7,0-1.8-0.1-2.9-0.1c-1.1,0-2.3,0.1-2.9,0.1
			v-0.4c1.9-0.3,2.1-0.5,2.1-2.8V420c0-2.3-0.2-2.5-2.1-2.8v-0.4c0.7,0,1.8,0.1,2.9,0.1c1.1,0,2.3-0.1,2.9-0.1
			c2.8,0,4.3,0.7,4.3,2.6C38.3,421.9,36,422.1,34.8,422.5L34.8,422.5z M31.9,422.2c1.9,0,4.7,0,4.7-2.6c0-1.6-0.9-2.3-2.7-2.3
			c-2,0-2,0.5-2,2.7V422.2z M31.9,426.3c0,2,0,2.5,2.2,2.6c2.1,0,3.2-1,3.2-3c0-3-2.2-3-5.4-3V426.3z"/>
		<path fill="#4C3D2A" d="M47.8,426.4c-0.3,1.2-1.2,3.3-3.8,3.3c-2,0-3.6-1.2-3.6-4.4c0-2.9,1.7-4.7,4-4.7c2.8,0,3.2,2.4,3.2,3.5
			l-5.8,0.4c0,0.2,0,0.5,0,0.7c0,1.5,0.8,3.4,2.7,3.4c1.8,0,2.4-1.6,2.7-2.5L47.8,426.4z M45.2,423.6c0.3,0,0.9-0.2,0.9-0.7
			c0-0.8-0.7-1.7-1.7-1.7c-2.2,0-2.5,2-2.6,2.8L45.2,423.6z"/>
		<path fill="#4C3D2A" d="M56.6,426.4c-0.3,1.2-1.2,3.3-3.8,3.3c-2,0-3.6-1.2-3.6-4.4c0-2.9,1.7-4.7,4-4.7c2.8,0,3.2,2.4,3.2,3.5
			l-5.8,0.4c0,0.2,0,0.5,0,0.7c0,1.5,0.8,3.4,2.7,3.4c1.8,0,2.4-1.6,2.7-2.5L56.6,426.4z M54,423.6c0.3,0,0.9-0.2,0.9-0.7
			c0-0.8-0.7-1.7-1.7-1.7c-2.2,0-2.5,2-2.6,2.8L54,423.6z"/>
		<path fill="#4C3D2A" d="M62.9,429.5c-0.8,0-1.9-0.1-2.5-0.1c-0.8,0-1.7,0.1-2.4,0.1v-0.4c1.6-0.2,1.6-0.5,1.6-2.5V424
			c0-1.7-0.3-1.8-2-1.8v-0.4c1.5-0.1,2.7-0.5,3.6-1.3c0,0.5-0.1,1.1-0.1,2c1-0.9,1.7-1.8,2.7-1.8c0.5,0,1,0.4,1,1
			c0,0.7-0.5,1.1-1,1.1c-0.1,0-0.4,0-0.4-0.1c0-0.1,0.1-0.2,0.1-0.3c0-0.3-0.3-0.5-0.6-0.5c-0.5,0-1.8,0.7-1.8,2.2v2.6
			c0,2.1,0,2.3,1.9,2.5V429.5z"/>
		<path fill="#4C3D2A" d="M75.3,429.5c-0.8,0-1.6-0.1-2.3-0.1c-0.8,0-1.7,0.1-2.4,0.1v-0.4c1.6-0.2,1.6-0.5,1.6-2.5V424
			c0-1.7-0.3-1.8-2-1.8v-0.4c1.5-0.1,2.7-0.5,3.6-1.3c0,1-0.1,1.7-0.1,3.6v2.6c0,2.1,0,2.3,1.6,2.5V429.5z M72.6,418.3
			c-0.6,0-1.1-0.5-1.1-1.1c0-0.6,0.5-1.1,1.1-1.1c0.6,0,1.1,0.5,1.1,1.1C73.7,417.9,73.2,418.3,72.6,418.3z"/>
		<path fill="#4C3D2A" d="M81.6,423.6c-0.3-0.9-0.8-2.4-2.4-2.4c-1.1,0-1.6,0.5-1.6,1.3c0,2.1,5.1,1.3,5.1,4.6
			c0,1.3-1.1,2.6-2.9,2.6c-1.3,0-1.8-0.5-2.7-0.5c-0.2,0-0.5,0.1-0.7,0.3c0-0.3,0.1-0.7,0.1-1.2c0-0.7,0-1.3-0.1-2.1h0.4
			c0.2,1.1,0.6,2.9,2.8,2.9c1,0,1.9-0.6,1.9-1.5c0-2.2-5-1.4-5-4.5c0-1.3,0.9-2.5,2.8-2.5c0.9,0,1.7,0.4,2.1,0.4
			c0.2,0,0.4-0.2,0.6-0.3c0,0.3,0,0.6,0,0.9c0,0.4,0,1.2,0.1,2H81.6z"/>
		<path fill="#4C3D2A" d="M97.1,429.5c-0.3,0-0.6,0-0.9-0.1c-0.3,0-0.6,0-0.9,0c-0.5,0-0.9,0-1.4,0.3c0.1-0.6,0.2-1.3,0.2-1.8
			c-0.8,0.7-1.8,1.8-3.3,1.8c-1,0-2-0.8-2-2.1c0-1.7,1.6-2.2,2.6-2.5l2.1-0.6c0.6-0.2,0.6-0.6,0.6-1.6c0-1.1-0.4-1.5-1.3-1.5
			c-1,0-2.1,0.4-2.1,1c0,0.2,0.2,0.5,0.3,0.5c0.1,0,0.2,0,0.3,0c0,0.5-0.3,1.2-1,1.2c-0.5,0-0.9-0.4-0.9-0.9c0-1.8,2.8-2.5,4.2-2.5
			c1.6,0,1.9,1,1.9,2.1v5c0,1.3,0.8,1.2,1.6,1.3V429.5z M92.8,425.3c-1.3,0.4-2.3,0.7-2.3,2c0,0.9,0.6,1.4,1.2,1.4
			c1,0,2.6-0.9,2.6-2v-1.8L92.8,425.3z"/>
		<path fill="#4C3D2A" d="M109,428.3c0.4,0,1.7,0.5,1.7,1.7c0,2.1-2.5,3.4-5,3.4c-2.2,0-3-1-3-2c0-1.3,1.1-1.8,2.1-2.3
			c-0.6-0.2-1.5-0.5-1.5-1.2c0-1,0.8-1.2,1.7-1.6c-0.7-0.3-1.8-0.9-1.8-2.6c0-1.9,1.1-3.1,3.3-3.1c0.2,0,0.5,0,0.7,0
			c0.4-0.7,1.2-2.1,2.5-2.1c0.5,0,1,0.3,1,0.9c0,0.6-0.4,0.9-0.8,0.9c-0.2,0-0.4,0-0.5-0.1c0.1-0.1,0.2-0.2,0.2-0.3
			c0-0.2-0.1-0.4-0.4-0.4c-0.8,0-1.2,0.8-1.4,1.1c0.5,0.1,2,0.7,2,2.8c0,2-1.5,3.1-3.1,3.1h-0.7c-0.6,0-1.4,0.4-1.4,0.9
			c0,0.5,0.8,0.5,1.7,0.6L109,428.3z M106.3,429.3c-0.3,0-0.6-0.1-0.8-0.2c-0.6,0.4-1.5,1-1.5,1.9c0,1,1,1.4,2.5,1.4
			c1.6,0,3.4-0.8,3.4-2c0-0.7-0.9-1-1.8-1L106.3,429.3z M108.2,423.5c0-1.1-0.5-2.3-1.7-2.3s-1.7,1.2-1.7,2.5c0,1.3,0.4,2.4,1.7,2.4
			C107.7,426,108.2,424.9,108.2,423.5z"/>
		<path fill="#4C3D2A" d="M116,429.8c-2.6,0-4.2-2-4.2-4.6c0-2.5,1.6-4.6,4.2-4.6c2.6,0,4.2,2,4.2,4.6
			C120.1,427.8,118.5,429.8,116,429.8z M118.5,425.2c0-2.3-0.7-4-2.5-4s-2.5,1.7-2.5,4c0,2.3,0.7,4,2.5,4S118.5,427.5,118.5,425.2z"
			/>
		<path fill="#4C3D2A" d="M125.8,429.8c-2.6,0-4.2-2-4.2-4.6c0-2.5,1.6-4.6,4.2-4.6c2.6,0,4.2,2,4.2,4.6
			C130,427.8,128.4,429.8,125.8,429.8z M128.3,425.2c0-2.3-0.7-4-2.5-4s-2.5,1.7-2.5,4c0,2.3,0.7,4,2.5,4S128.3,427.5,128.3,425.2z"
			/>
		<path fill="#4C3D2A" d="M140.7,429.5c-0.3,0-0.6,0-0.9-0.1c-0.3,0-0.6,0-0.8,0c-0.5,0-1.1,0.1-1.5,0.3c0-0.5,0.1-1.2,0.1-1.8
			c-1.1,1-2,1.8-3.5,1.8c-1.7,0-2.7-1.7-2.7-3.8c0-3.4,1.6-5.4,3.9-5.4c1.2,0,1.7,0.3,2.2,0.7v-1.8c0-2.2,0-2.6-2.2-2.6v-0.4
			c1.4,0,2.7-0.2,3.7-1c0,0.6-0.1,2.7-0.1,4v7c0,2.1,0,2.3,1.6,2.5V429.5z M137.7,424.1c0-1.5-0.3-2.8-2-2.8c-2,0-2.6,1.9-2.6,4.3
			c0,1.9,0.6,3.2,2.1,3.2c1.7,0,2.5-1.7,2.5-2.5V424.1z"/>
		<path fill="#4C3D2A" d="M151.2,429.5c-0.8,0-1.6-0.1-2.3-0.1c-0.8,0-1.7,0.1-2.4,0.1v-0.4c1.6-0.2,1.6-0.5,1.6-2.5V424
			c0-1.7-0.3-1.8-2-1.8v-0.4c1.5-0.1,2.7-0.5,3.6-1.3c0,1-0.1,1.7-0.1,3.6v2.6c0,2.1,0,2.3,1.6,2.5V429.5z M148.6,418.3
			c-0.6,0-1.1-0.5-1.1-1.1c0-0.6,0.5-1.1,1.1-1.1c0.6,0,1.1,0.5,1.1,1.1C149.7,417.9,149.2,418.3,148.6,418.3z"/>
		<path fill="#4C3D2A" d="M161.5,429.5c-0.3,0-0.6,0-0.9-0.1c-0.3,0-0.6,0-0.8,0c-0.5,0-1.1,0.1-1.5,0.3c0-0.5,0.1-1.2,0.1-1.8
			c-1.1,1-2,1.8-3.5,1.8c-1.7,0-2.7-1.7-2.7-3.8c0-3.4,1.6-5.4,3.9-5.4c1.2,0,1.7,0.3,2.2,0.7v-1.8c0-2.2,0-2.6-2.2-2.6v-0.4
			c1.4,0,2.7-0.2,3.7-1c0,0.6-0.1,2.7-0.1,4v7c0,2.1,0,2.3,1.6,2.5V429.5z M158.5,424.1c0-1.5-0.3-2.8-2-2.8c-2,0-2.6,1.9-2.6,4.3
			c0,1.9,0.6,3.2,2.1,3.2c1.7,0,2.5-1.7,2.5-2.5V424.1z"/>
		<path fill="#4C3D2A" d="M169.8,426.4c-0.3,1.2-1.2,3.3-3.8,3.3c-2,0-3.6-1.2-3.6-4.4c0-2.9,1.7-4.7,4-4.7c2.8,0,3.2,2.4,3.2,3.5
			l-5.8,0.4c0,0.2,0,0.5,0,0.7c0,1.5,0.8,3.4,2.7,3.4c1.8,0,2.4-1.6,2.7-2.5L169.8,426.4z M167.3,423.6c0.3,0,0.9-0.2,0.9-0.7
			c0-0.8-0.7-1.7-1.7-1.7c-2.2,0-2.5,2-2.6,2.8L167.3,423.6z"/>
		<path fill="#4C3D2A" d="M179.5,429.5c-0.3,0-0.6,0-0.9-0.1c-0.3,0-0.6,0-0.9,0c-0.5,0-0.9,0-1.4,0.3c0.1-0.6,0.2-1.3,0.2-1.8
			c-0.8,0.7-1.8,1.8-3.3,1.8c-1,0-2-0.8-2-2.1c0-1.7,1.6-2.2,2.6-2.5l2.1-0.6c0.6-0.2,0.6-0.6,0.6-1.6c0-1.1-0.4-1.5-1.3-1.5
			c-1,0-2.1,0.4-2.1,1c0,0.2,0.2,0.5,0.3,0.5c0.1,0,0.2,0,0.3,0c0,0.5-0.3,1.2-1,1.2c-0.5,0-0.9-0.4-0.9-0.9c0-1.8,2.8-2.5,4.2-2.5
			c1.6,0,1.9,1,1.9,2.1v5c0,1.3,0.8,1.2,1.6,1.3V429.5z M175.1,425.3c-1.3,0.4-2.3,0.7-2.3,2c0,0.9,0.6,1.4,1.2,1.4
			c1,0,2.6-0.9,2.6-2v-1.8L175.1,425.3z"/>
		<path fill="#4C3D2A" d="M189.9,429.5c-0.8,0-1.6-0.1-2.3-0.1c-0.8,0-1.7,0.1-2.4,0.1v-0.4c1.6-0.2,1.6-0.5,1.6-2.5V424
			c0-1.7-0.3-1.8-2-1.8v-0.4c1.5-0.1,2.7-0.5,3.6-1.3c0,1-0.1,1.7-0.1,3.6v2.6c0,2.1,0,2.3,1.6,2.5V429.5z M187.3,418.3
			c-0.6,0-1.1-0.5-1.1-1.1c0-0.6,0.5-1.1,1.1-1.1c0.6,0,1.1,0.5,1.1,1.1C188.3,417.9,187.8,418.3,187.3,418.3z"/>
		<path fill="#4C3D2A" d="M195.8,429.5c-0.9,0-2-0.1-2.7-0.1c-0.8,0-1.7,0.1-2.4,0.1v-0.4c1.6-0.2,1.6-0.5,1.6-2.5v-4.7h-1.6v-0.4
			c1.3-0.2,1.6-0.6,1.6-1.6c0-1.5,0.5-3.9,3.5-3.9c0.9,0,2,0.6,2,1.4c0,0.8-0.4,1.1-0.9,1.1c-0.6,0-0.7-0.3-0.9-0.8
			c0.2,0,0.5-0.2,0.5-0.5c0-0.4-0.4-0.7-0.9-0.7c-1.4,0-1.8,1.2-1.8,2.6v2l2.5-0.2v1h-2.5v4.7c0,2.1,0,2.3,2.1,2.5V429.5z"/>
		<path fill="#4C3D2A" d="M205.8,431.8c-0.1,0.2-1,1.8-2.8,1.8c-0.9,0-1.5-0.6-1.5-1.2c0-0.7,0.4-1,1-1c0.5,0,0.6,0.2,0.8,0.3
			c-0.2,0.2-0.4,0.3-0.4,0.6c0,0.3,0.3,0.5,0.7,0.5c1.1,0,2.4-2.1,2.4-3c0-0.6-0.2-1.2-0.5-1.7l-2-5.1c-0.5-1.2-0.6-1.7-1.9-1.7
			v-0.4c0.3,0,1.7,0.1,2.3,0.1c0.6,0,2-0.1,2.3-0.1v0.4c-0.6,0-1.5,0-1.5,0.6c0,0.4,0.1,0.5,0.2,0.9l1.9,5.1l1.8-4.7
			c0.1-0.2,0.3-0.8,0.3-1.2c0-0.8-0.9-0.8-1.7-0.8v-0.4c0.4,0,1.5,0.1,2.3,0.1c0.5,0,1.6-0.1,1.8-0.1v0.4c-0.9,0.1-1,0-1.7,1.7l-3,7
			L205.8,431.8z"/>
		<path fill="#4C3D2A" d="M215.9,429.8c-2.6,0-4.2-2-4.2-4.6c0-2.5,1.6-4.6,4.2-4.6c2.6,0,4.2,2,4.2,4.6
			C220.1,427.8,218.5,429.8,215.9,429.8z M218.4,425.2c0-2.3-0.7-4-2.5-4s-2.5,1.7-2.5,4c0,2.3,0.7,4,2.5,4S218.4,427.5,218.4,425.2
			z"/>
		<path fill="#4C3D2A" d="M231.4,429.5c-0.3,0-0.6,0-0.9-0.1c-0.3,0-0.6,0-0.9,0c-0.5,0-0.9,0-1.4,0.3c0.1-0.6,0.2-1.3,0.2-1.8
			c-0.9,0.8-2.2,1.8-4.1,1.8c-1.4,0-1.5-1.1-1.5-2.2V424c0-1.7-0.3-1.8-1.8-1.8v-0.4c1.4-0.1,2.5-0.5,3.4-1.3c0,1-0.1,1.7-0.1,3.6v3
			c0,0.8,0,1.7,1.3,1.7c1.5,0,2.9-1,2.9-1.8V424c0-1.8-0.3-1.8-1.8-1.8v-0.4c1.4-0.1,2.5-0.5,3.4-1.3c0,1-0.1,1.7-0.1,3.6v3.8
			c0,1.3,0.8,1.2,1.6,1.3V429.5z"/>
		<path fill="#4C3D2A" d="M245.6,429.5c-0.3,0-0.6,0-0.9-0.1c-0.3,0-0.6,0-0.9,0c-0.5,0-0.9,0-1.4,0.3c0.1-0.6,0.2-1.3,0.2-1.8
			c-0.8,0.7-1.8,1.8-3.3,1.8c-1,0-2-0.8-2-2.1c0-1.7,1.6-2.2,2.6-2.5l2.1-0.6c0.6-0.2,0.6-0.6,0.6-1.6c0-1.1-0.4-1.5-1.3-1.5
			c-1,0-2.1,0.4-2.1,1c0,0.2,0.2,0.5,0.3,0.5c0.1,0,0.2,0,0.3,0c0,0.5-0.3,1.2-1,1.2c-0.5,0-0.9-0.4-0.9-0.9c0-1.8,2.8-2.5,4.2-2.5
			c1.6,0,1.9,1,1.9,2.1v5c0,1.3,0.8,1.2,1.6,1.3V429.5z M241.2,425.3c-1.3,0.4-2.3,0.7-2.3,2c0,0.9,0.6,1.4,1.2,1.4
			c1,0,2.6-0.9,2.6-2v-1.8L241.2,425.3z"/>
		<path fill="#4C3D2A" d="M251.5,429.5c-0.8,0-1.9-0.1-2.5-0.1c-0.8,0-1.7,0.1-2.4,0.1v-0.4c1.6-0.2,1.6-0.5,1.6-2.5V424
			c0-1.7-0.3-1.8-2-1.8v-0.4c1.5-0.1,2.7-0.5,3.6-1.3c0,0.5-0.1,1.1-0.1,2c1-0.9,1.7-1.8,2.7-1.8c0.5,0,1,0.4,1,1
			c0,0.7-0.5,1.1-1,1.1c-0.1,0-0.4,0-0.4-0.1c0-0.1,0.1-0.2,0.1-0.3c0-0.3-0.3-0.5-0.6-0.5c-0.5,0-1.8,0.7-1.8,2.2v2.6
			c0,2.1,0,2.3,1.9,2.5V429.5z"/>
		<path fill="#4C3D2A" d="M261.3,426.4c-0.3,1.2-1.2,3.3-3.8,3.3c-2,0-3.6-1.2-3.6-4.4c0-2.9,1.7-4.7,4-4.7c2.8,0,3.2,2.4,3.2,3.5
			l-5.8,0.4c0,0.2,0,0.5,0,0.7c0,1.5,0.8,3.4,2.7,3.4c1.8,0,2.4-1.6,2.7-2.5L261.3,426.4z M258.8,423.6c0.3,0,0.9-0.2,0.9-0.7
			c0-0.8-0.7-1.7-1.7-1.7c-2.2,0-2.5,2-2.6,2.8L258.8,423.6z"/>
		<path fill="#4C3D2A" d="M272.9,423.6c-0.3-0.9-0.8-2.4-2.4-2.4c-1.1,0-1.6,0.5-1.6,1.3c0,2.1,5.1,1.3,5.1,4.6
			c0,1.3-1.1,2.6-2.9,2.6c-1.3,0-1.8-0.5-2.7-0.5c-0.2,0-0.5,0.1-0.7,0.3c0-0.3,0.1-0.7,0.1-1.2c0-0.7,0-1.3-0.1-2.1h0.4
			c0.2,1.1,0.6,2.9,2.8,2.9c1,0,1.9-0.6,1.9-1.5c0-2.2-5-1.4-5-4.5c0-1.3,0.9-2.5,2.8-2.5c0.9,0,1.7,0.4,2.1,0.4
			c0.2,0,0.4-0.2,0.6-0.3c0,0.3,0,0.6,0,0.9c0,0.4,0,1.2,0.1,2H272.9z"/>
		<path fill="#4C3D2A" d="M282.8,426.4c-0.3,1.2-1.2,3.3-3.8,3.3c-2,0-3.6-1.2-3.6-4.4c0-2.9,1.7-4.7,4-4.7c2.8,0,3.2,2.4,3.2,3.5
			l-5.8,0.4c0,0.2,0,0.5,0,0.7c0,1.5,0.8,3.4,2.7,3.4c1.8,0,2.4-1.6,2.7-2.5L282.8,426.4z M280.2,423.6c0.3,0,0.9-0.2,0.9-0.7
			c0-0.8-0.7-1.7-1.7-1.7c-2.2,0-2.5,2-2.6,2.8L280.2,423.6z"/>
		<path fill="#4C3D2A" d="M292.4,429.5c-0.3,0-0.6,0-0.9-0.1c-0.3,0-0.6,0-0.9,0c-0.5,0-0.9,0-1.4,0.3c0.1-0.6,0.2-1.3,0.2-1.8
			c-0.8,0.7-1.8,1.8-3.3,1.8c-1,0-2-0.8-2-2.1c0-1.7,1.6-2.2,2.6-2.5l2.1-0.6c0.6-0.2,0.6-0.6,0.6-1.6c0-1.1-0.4-1.5-1.3-1.5
			c-1,0-2.1,0.4-2.1,1c0,0.2,0.2,0.5,0.3,0.5c0.1,0,0.2,0,0.3,0c0,0.5-0.3,1.2-1,1.2c-0.5,0-0.9-0.4-0.9-0.9c0-1.8,2.8-2.5,4.2-2.5
			c1.6,0,1.9,1,1.9,2.1v5c0,1.3,0.8,1.2,1.6,1.3V429.5z M288,425.3c-1.3,0.4-2.3,0.7-2.3,2c0,0.9,0.6,1.4,1.2,1.4c1,0,2.6-0.9,2.6-2
			v-1.8L288,425.3z"/>
		<path fill="#4C3D2A" d="M298.2,429.5c-0.8,0-1.9-0.1-2.5-0.1c-0.8,0-1.7,0.1-2.4,0.1v-0.4c1.6-0.2,1.6-0.5,1.6-2.5V424
			c0-1.7-0.3-1.8-2-1.8v-0.4c1.5-0.1,2.7-0.5,3.6-1.3c0,0.5-0.1,1.1-0.1,2c1-0.9,1.7-1.8,2.7-1.8c0.5,0,1,0.4,1,1
			c0,0.7-0.5,1.1-1,1.1c-0.1,0-0.4,0-0.4-0.1c0-0.1,0.1-0.2,0.1-0.3c0-0.3-0.3-0.5-0.6-0.5c-0.5,0-1.8,0.7-1.8,2.2v2.6
			c0,2.1,0,2.3,1.9,2.5V429.5z"/>
		<path fill="#4C3D2A" d="M308.2,426.4c-0.4,1.3-1.1,3.4-3.8,3.4c-2.3,0-3.6-1.8-3.6-4.4c0-2.9,1.9-4.7,4.1-4.7
			c1.2,0,2.6,0.6,2.6,1.7c0,0.7-0.5,1.2-1.1,1.2c-0.4,0-0.9-0.3-0.9-1c0.4,0,0.6-0.3,0.6-0.5c0-0.6-0.6-0.8-1.3-0.8
			c-1.6,0-2.7,1.3-2.7,3.5c0,2,0.8,4,2.6,4c1.9,0,2.5-1.4,2.8-2.5L308.2,426.4z"/>
		<path fill="#4C3D2A" d="M319.1,429.5c-0.8,0-1.6-0.1-2.3-0.1c-0.8,0-1.7,0.1-2.4,0.1v-0.4c1.6-0.2,1.6-0.5,1.6-2.5v-3.1
			c0-0.8,0-1.7-1.3-1.7c-1.8,0-2.9,1.3-2.9,2.4v2.5c0,2.1,0,2.3,1.6,2.5v0.4c-0.8,0-1.6-0.1-2.3-0.1c-0.8,0-1.7,0.1-2.4,0.1v-0.4
			c1.6-0.2,1.6-0.5,1.6-2.5v-7c0-2.2,0-2.6-2.2-2.6v-0.4c1.4,0,2.7-0.2,3.7-1c0,0.6-0.1,2.7-0.1,4v2.9c0.9-0.9,2.2-1.8,4.1-1.8
			c1.4,0,1.5,1.1,1.5,2.2v3.7c0,2.1,0,2.3,1.6,2.5V429.5z"/>
		<path fill="#4C3D2A" d="M324.7,429.5c-0.8,0-1.6-0.1-2.3-0.1c-0.8,0-1.7,0.1-2.4,0.1v-0.4c1.6-0.2,1.6-0.5,1.6-2.5V424
			c0-1.7-0.3-1.8-2-1.8v-0.4c1.5-0.1,2.7-0.5,3.6-1.3c0,1-0.1,1.7-0.1,3.6v2.6c0,2.1,0,2.3,1.6,2.5V429.5z M322,418.3
			c-0.6,0-1.1-0.5-1.1-1.1c0-0.6,0.5-1.1,1.1-1.1c0.6,0,1.1,0.5,1.1,1.1C323.1,417.9,322.6,418.3,322,418.3z"/>
		<path fill="#4C3D2A" d="M336,429.5c-0.8,0-1.6-0.1-2.3-0.1c-0.8,0-1.7,0.1-2.4,0.1v-0.4c1.6-0.2,1.6-0.5,1.6-2.5v-3.1
			c0-0.8,0-1.7-1.3-1.7c-1.8,0-2.9,1.3-2.9,2.4v2.5c0,2.1,0,2.3,1.6,2.5v0.4c-0.8,0-1.6-0.1-2.3-0.1c-0.8,0-1.7,0.1-2.4,0.1v-0.4
			c1.6-0.2,1.6-0.5,1.6-2.5V424c0-1.7-0.3-1.8-2-1.8v-0.4c1.5-0.1,2.7-0.5,3.6-1.3c0,0.6-0.1,1-0.1,2.1c0.9-0.9,2.2-1.8,4.1-1.8
			c1.4,0,1.5,1.1,1.5,2.2v3.7c0,2.1,0,2.3,1.6,2.5V429.5z"/>
		<path fill="#4C3D2A" d="M342.9,428.3c0.4,0,1.7,0.5,1.7,1.7c0,2.1-2.5,3.4-5,3.4c-2.2,0-3-1-3-2c0-1.3,1.1-1.8,2.1-2.3
			c-0.6-0.2-1.5-0.5-1.5-1.2c0-1,0.8-1.2,1.7-1.6c-0.7-0.3-1.8-0.9-1.8-2.6c0-1.9,1.1-3.1,3.3-3.1c0.2,0,0.5,0,0.7,0
			c0.4-0.7,1.2-2.1,2.5-2.1c0.5,0,1,0.3,1,0.9c0,0.6-0.4,0.9-0.8,0.9c-0.2,0-0.4,0-0.5-0.1c0.1-0.1,0.2-0.2,0.2-0.3
			c0-0.2-0.1-0.4-0.4-0.4c-0.8,0-1.2,0.8-1.4,1.1c0.5,0.1,2,0.7,2,2.8c0,2-1.5,3.1-3.1,3.1h-0.7c-0.6,0-1.4,0.4-1.4,0.9
			c0,0.5,0.8,0.5,1.7,0.6L342.9,428.3z M340.2,429.3c-0.3,0-0.6-0.1-0.8-0.2c-0.6,0.4-1.5,1-1.5,1.9c0,1,1,1.4,2.5,1.4
			c1.6,0,3.4-0.8,3.4-2c0-0.7-0.9-1-1.8-1L340.2,429.3z M342.1,423.5c0-1.1-0.5-2.3-1.7-2.3s-1.7,1.2-1.7,2.5c0,1.3,0.4,2.4,1.7,2.4
			C341.7,426,342.1,424.9,342.1,423.5z"/>
		<path fill="#4C3D2A" d="M355.5,429.5c-0.9,0-2-0.1-2.7-0.1c-0.8,0-1.7,0.1-2.4,0.1v-0.4c1.6-0.2,1.6-0.5,1.6-2.5v-4.7h-1.6v-0.4
			c1.3-0.2,1.6-0.6,1.6-1.6c0-1.5,0.5-3.9,3.5-3.9c0.9,0,2,0.6,2,1.4c0,0.8-0.4,1.1-0.9,1.1c-0.6,0-0.7-0.3-0.9-0.8
			c0.2,0,0.5-0.2,0.5-0.5c0-0.4-0.4-0.7-0.9-0.7c-1.4,0-1.8,1.2-1.8,2.6v2l2.5-0.2v1h-2.5v4.7c0,2.1,0,2.3,2.1,2.5V429.5z"/>
		<path fill="#4C3D2A" d="M361.2,429.8c-2.6,0-4.2-2-4.2-4.6c0-2.5,1.6-4.6,4.2-4.6c2.6,0,4.2,2,4.2,4.6
			C365.3,427.8,363.7,429.8,361.2,429.8z M363.7,425.2c0-2.3-0.7-4-2.5-4s-2.5,1.7-2.5,4c0,2.3,0.7,4,2.5,4S363.7,427.5,363.7,425.2
			z"/>
		<path fill="#4C3D2A" d="M371.8,429.5c-0.8,0-1.9-0.1-2.5-0.1c-0.8,0-1.7,0.1-2.4,0.1v-0.4c1.6-0.2,1.6-0.5,1.6-2.5V424
			c0-1.7-0.3-1.8-2-1.8v-0.4c1.5-0.1,2.7-0.5,3.6-1.3c0,0.5-0.1,1.1-0.1,2c1-0.9,1.7-1.8,2.7-1.8c0.5,0,1,0.4,1,1
			c0,0.7-0.5,1.1-1,1.1c-0.1,0-0.4,0-0.4-0.1c0-0.1,0.1-0.2,0.1-0.3c0-0.3-0.3-0.5-0.6-0.5c-0.5,0-1.8,0.7-1.8,2.2v2.6
			c0,2.1,0,2.3,1.9,2.5V429.5z"/>
		<path fill="#4C3D2A" d="M36.6,452.3c-0.3,0-0.6,0-0.9-0.1c-0.3,0-0.6,0-0.9,0c-0.5,0-0.9,0-1.4,0.3c0.1-0.6,0.2-1.3,0.2-1.8
			c-0.8,0.7-1.8,1.8-3.3,1.8c-1,0-2-0.8-2-2.1c0-1.7,1.6-2.2,2.6-2.5l2.1-0.6c0.6-0.2,0.6-0.6,0.6-1.6c0-1.1-0.4-1.5-1.3-1.5
			c-1,0-2.1,0.4-2.1,1c0,0.2,0.2,0.5,0.3,0.5c0.1,0,0.2,0,0.3,0c0,0.5-0.3,1.2-1,1.2c-0.5,0-0.9-0.4-0.9-0.9c0-1.8,2.8-2.5,4.2-2.5
			c1.6,0,1.9,1,1.9,2.1v5c0,1.3,0.8,1.2,1.6,1.3V452.3z M32.3,448.1c-1.3,0.4-2.3,0.7-2.3,2c0,0.9,0.6,1.4,1.2,1.4
			c1,0,2.6-0.9,2.6-2v-1.8L32.3,448.1z"/>
		<path fill="#4C3D2A" d="M47.9,452.3c-0.8,0-1.6-0.1-2.3-0.1c-0.8,0-1.7,0.1-2.4,0.1v-0.4c1.6-0.2,1.6-0.5,1.6-2.5v-3.1
			c0-0.8,0-1.7-1.3-1.7c-1.8,0-2.9,1.3-2.9,2.4v2.5c0,2.1,0,2.3,1.6,2.5v0.4c-0.8,0-1.6-0.1-2.3-0.1c-0.8,0-1.7,0.1-2.4,0.1v-0.4
			c1.6-0.2,1.6-0.5,1.6-2.5v-2.6c0-1.7-0.3-1.8-2-1.8v-0.4c1.5-0.1,2.7-0.5,3.6-1.3c0,0.6-0.1,1-0.1,2.1c0.9-0.9,2.2-1.8,4.1-1.8
			c1.4,0,1.5,1.1,1.5,2.2v3.7c0,2.1,0,2.3,1.6,2.5V452.3z"/>
		<path fill="#4C3D2A" d="M58.4,452.3c-0.8,0-1.6-0.1-2.3-0.1c-0.8,0-1.7,0.1-2.4,0.1v-0.4c1.6-0.2,1.6-0.5,1.6-2.5v-2.6
			c0-1.7-0.3-1.8-2-1.8v-0.4c1.5-0.1,2.7-0.5,3.6-1.3c0,1-0.1,1.7-0.1,3.6v2.6c0,2.1,0,2.3,1.6,2.5V452.3z M55.7,441.1
			c-0.6,0-1.1-0.5-1.1-1.1c0-0.6,0.5-1.1,1.1-1.1c0.6,0,1.1,0.5,1.1,1.1C56.8,440.7,56.3,441.1,55.7,441.1z"/>
		<path fill="#4C3D2A" d="M69.7,452.3c-0.8,0-1.6-0.1-2.3-0.1c-0.8,0-1.7,0.1-2.4,0.1v-0.4c1.6-0.2,1.6-0.5,1.6-2.5v-3.1
			c0-0.8,0-1.7-1.3-1.7c-1.8,0-2.9,1.3-2.9,2.4v2.5c0,2.1,0,2.3,1.6,2.5v0.4c-0.8,0-1.6-0.1-2.3-0.1c-0.8,0-1.7,0.1-2.4,0.1v-0.4
			c1.6-0.2,1.6-0.5,1.6-2.5v-2.6c0-1.7-0.3-1.8-2-1.8v-0.4c1.5-0.1,2.7-0.5,3.6-1.3c0,0.6-0.1,1-0.1,2.1c0.9-0.9,2.2-1.8,4.1-1.8
			c1.4,0,1.5,1.1,1.5,2.2v3.7c0,2.1,0,2.3,1.6,2.5V452.3z"/>
		<path fill="#4C3D2A" d="M75.3,452.3c-0.8,0-1.6-0.1-2.3-0.1c-0.8,0-1.7,0.1-2.4,0.1v-0.4c1.6-0.2,1.6-0.5,1.6-2.5v-2.6
			c0-1.7-0.3-1.8-2-1.8v-0.4c1.5-0.1,2.7-0.5,3.6-1.3c0,1-0.1,1.7-0.1,3.6v2.6c0,2.1,0,2.3,1.6,2.5V452.3z M72.6,441.1
			c-0.6,0-1.1-0.5-1.1-1.1c0-0.6,0.5-1.1,1.1-1.1c0.6,0,1.1,0.5,1.1,1.1C73.7,440.7,73.2,441.1,72.6,441.1z"/>
		<path fill="#4C3D2A" d="M82,451.4c-0.9,0.6-1.9,1.2-3.1,1.2c-1.1,0-1.3-1.1-1.3-2.5v-5.5H76V444c1.7-0.2,1.9-1.1,2.5-3.1h0.6
			c0,0.7-0.1,2.1-0.1,2.9l2.7-0.2v1H79v4.6c0,2.2,0.2,2.4,1,2.4c0.7,0,1.2-0.3,1.7-0.6L82,451.4z"/>
		<path fill="#4C3D2A" d="M87.2,452.3c-0.8,0-1.6-0.1-2.3-0.1c-0.8,0-1.7,0.1-2.4,0.1v-0.4c1.6-0.2,1.6-0.5,1.6-2.5v-2.6
			c0-1.7-0.3-1.8-2-1.8v-0.4c1.5-0.1,2.7-0.5,3.6-1.3c0,1-0.1,1.7-0.1,3.6v2.6c0,2.1,0,2.3,1.6,2.5V452.3z M84.5,441.1
			c-0.6,0-1.1-0.5-1.1-1.1c0-0.6,0.5-1.1,1.1-1.1c0.6,0,1.1,0.5,1.1,1.1C85.6,440.7,85.1,441.1,84.5,441.1z"/>
		<path fill="#4C3D2A" d="M96.4,452.3c-0.3,0-0.6,0-0.9-0.1c-0.3,0-0.6,0-0.9,0c-0.5,0-0.9,0-1.4,0.3c0.1-0.6,0.2-1.3,0.2-1.8
			c-0.8,0.7-1.8,1.8-3.3,1.8c-1,0-2-0.8-2-2.1c0-1.7,1.6-2.2,2.6-2.5l2.1-0.6c0.6-0.2,0.6-0.6,0.6-1.6c0-1.1-0.4-1.5-1.3-1.5
			c-1,0-2.1,0.4-2.1,1c0,0.2,0.2,0.5,0.3,0.5c0.1,0,0.2,0,0.3,0c0,0.5-0.3,1.2-1,1.2c-0.5,0-0.9-0.4-0.9-0.9c0-1.8,2.8-2.5,4.2-2.5
			c1.6,0,1.9,1,1.9,2.1v5c0,1.3,0.8,1.2,1.6,1.3V452.3z M92,448.1c-1.3,0.4-2.3,0.7-2.3,2c0,0.9,0.6,1.4,1.2,1.4c1,0,2.6-0.9,2.6-2
			v-1.8L92,448.1z"/>
		<path fill="#4C3D2A" d="M101.7,452.3c-0.8,0-1.6-0.1-2.3-0.1c-0.8,0-1.7,0.1-2.4,0.1v-0.4c1.6-0.2,1.6-0.5,1.6-2.5v-7
			c0-2.2,0-2.6-2.2-2.6v-0.4c1.4,0,2.7-0.2,3.7-1c0,0.6-0.1,2.7-0.1,4v7c0,2.1,0,2.3,1.6,2.5V452.3z"/>
		<path fill="#4C3D2A" d="M112.2,452.3c-0.8,0-1.6-0.1-2.3-0.1c-0.8,0-1.7,0.1-2.4,0.1v-0.4c1.6-0.2,1.6-0.5,1.6-2.5v-2.6
			c0-1.7-0.3-1.8-2-1.8v-0.4c1.5-0.1,2.7-0.5,3.6-1.3c0,1-0.1,1.7-0.1,3.6v2.6c0,2.1,0,2.3,1.6,2.5V452.3z M109.5,441.1
			c-0.6,0-1.1-0.5-1.1-1.1c0-0.6,0.5-1.1,1.1-1.1c0.6,0,1.1,0.5,1.1,1.1C110.6,440.7,110.1,441.1,109.5,441.1z"/>
		<path fill="#4C3D2A" d="M122.4,452.3c-0.3,0-0.6,0-0.9-0.1c-0.3,0-0.6,0-0.8,0c-0.5,0-1.1,0.1-1.5,0.3c0-0.5,0.1-1.2,0.1-1.8
			c-1.1,1-2,1.8-3.5,1.8c-1.7,0-2.7-1.7-2.7-3.8c0-3.4,1.6-5.4,3.9-5.4c1.2,0,1.7,0.3,2.2,0.7v-1.8c0-2.2,0-2.6-2.2-2.6v-0.4
			c1.4,0,2.7-0.2,3.7-1c0,0.6-0.1,2.7-0.1,4v7c0,2.1,0,2.3,1.6,2.5V452.3z M119.4,446.9c0-1.5-0.3-2.8-2-2.8c-2,0-2.6,1.9-2.6,4.3
			c0,1.9,0.6,3.2,2.1,3.2c1.7,0,2.5-1.7,2.5-2.5V446.9z"/>
		<path fill="#4C3D2A" d="M130.8,449.2c-0.3,1.2-1.2,3.3-3.8,3.3c-2,0-3.6-1.2-3.6-4.4c0-2.9,1.7-4.7,4-4.7c2.8,0,3.2,2.4,3.2,3.5
			l-5.8,0.4c0,0.2,0,0.5,0,0.7c0,1.5,0.8,3.4,2.7,3.4c1.8,0,2.4-1.6,2.7-2.5L130.8,449.2z M128.2,446.4c0.3,0,0.9-0.2,0.9-0.7
			c0-0.8-0.7-1.7-1.7-1.7c-2.2,0-2.5,2-2.6,2.8L128.2,446.4z"/>
		<path fill="#4C3D2A" d="M140.4,452.3c-0.3,0-0.6,0-0.9-0.1c-0.3,0-0.6,0-0.9,0c-0.5,0-0.9,0-1.4,0.3c0.1-0.6,0.2-1.3,0.2-1.8
			c-0.8,0.7-1.8,1.8-3.3,1.8c-1,0-2-0.8-2-2.1c0-1.7,1.6-2.2,2.6-2.5l2.1-0.6c0.6-0.2,0.6-0.6,0.6-1.6c0-1.1-0.4-1.5-1.3-1.5
			c-1,0-2.1,0.4-2.1,1c0,0.2,0.2,0.5,0.3,0.5c0.1,0,0.2,0,0.3,0c0,0.5-0.3,1.2-1,1.2c-0.5,0-0.9-0.4-0.9-0.9c0-1.8,2.8-2.5,4.2-2.5
			c1.6,0,1.9,1,1.9,2.1v5c0,1.3,0.8,1.2,1.6,1.3V452.3z M136,448.1c-1.3,0.4-2.3,0.7-2.3,2c0,0.9,0.6,1.4,1.2,1.4c1,0,2.6-0.9,2.6-2
			v-1.8L136,448.1z"/>
		<path fill="#4C3D2A" d="M143,452.6c-0.6,0-1.1-0.5-1.1-1.1c0-0.6,0.5-1.1,1.1-1.1s1.1,0.5,1.1,1.1
			C144.1,452.1,143.7,452.6,143,452.6z"/>
		<path fill="#4C3D2A" d="M160.2,452.3c-0.7,0-2-0.1-3.2-0.1s-2.5,0.1-3.2,0.1v-0.4c2.2-0.3,2.4-0.5,2.4-2.8v-1.2
			c0-0.8-0.2-1-0.6-1.7l-2.7-4.6c-0.8-1.3-1.2-1.5-2.1-1.5v-0.4c0.9,0,1.7,0.1,2.6,0.1c0.8,0,2.1-0.1,2.6-0.1v0.4
			c-1,0-1.7,0-1.7,0.6c0,0.5,0.3,0.8,0.6,1.2l2.7,4.5l2.2-4.1c0.2-0.4,0.6-0.9,0.6-1.5c0-0.7-1-0.7-2.1-0.7v-0.4
			c0.6,0,1.7,0.1,2.9,0.1c0.9,0,1.7-0.1,2.1-0.1v0.4c-0.9,0-1.4,0.3-2.3,1.8l-2.4,4.1c-0.6,1.1-0.7,1-0.7,2.1v1.2
			c0,2.3,0.2,2.5,2.4,2.8V452.3z"/>
		<path fill="#4C3D2A" d="M165.9,452.6c-2.6,0-4.2-2-4.2-4.6c0-2.5,1.6-4.6,4.2-4.6c2.6,0,4.2,2,4.2,4.6
			C170.1,450.6,168.5,452.6,165.9,452.6z M168.4,448c0-2.3-0.7-4-2.5-4s-2.5,1.7-2.5,4c0,2.3,0.7,4,2.5,4S168.4,450.3,168.4,448z"/>
		<path fill="#4C3D2A" d="M181.4,452.3c-0.3,0-0.6,0-0.9-0.1c-0.3,0-0.6,0-0.9,0c-0.5,0-0.9,0-1.4,0.3c0.1-0.6,0.2-1.3,0.2-1.8
			c-0.9,0.8-2.2,1.8-4.1,1.8c-1.4,0-1.5-1.1-1.5-2.2v-3.6c0-1.7-0.3-1.8-1.8-1.8v-0.4c1.4-0.1,2.5-0.5,3.4-1.3c0,1-0.1,1.7-0.1,3.6
			v3c0,0.8,0,1.7,1.3,1.7c1.5,0,2.9-1,2.9-1.8v-2.9c0-1.8-0.3-1.8-1.8-1.8v-0.4c1.4-0.1,2.5-0.5,3.4-1.3c0,1-0.1,1.7-0.1,3.6v3.8
			c0,1.3,0.8,1.2,1.6,1.3V452.3z"/>
		<path fill="#4C3D2A" d="M189.5,445.2c1-0.8,2-1.7,3.5-1.7c1.9,0,2.7,1.8,2.7,4c0,3.2-1.4,5.2-3.8,5.2c-1.5,0-2-0.6-2.7-1.2
			c-0.3,0.7-0.8,1.1-1.7,1.6l-0.2-0.3c0.6-0.8,0.9-0.8,0.9-3.3v-7c0-2.2,0-2.6-2.2-2.6v-0.4c1.4,0,2.7-0.2,3.7-1
			c0,0.6-0.1,2.7-0.1,4V445.2z M189.5,448.8c0,1.3,0.1,3.2,2.3,3.2c1.5,0,2.3-1.6,2.3-3.9c0-2.1-0.6-3.6-2.1-3.6
			c-2.1,0-2.5,1.6-2.5,3.1V448.8z"/>
		<path fill="#4C3D2A" d="M202.2,452.3c-0.8,0-1.9-0.1-2.5-0.1c-0.8,0-1.7,0.1-2.4,0.1v-0.4c1.6-0.2,1.6-0.5,1.6-2.5v-2.6
			c0-1.7-0.3-1.8-2-1.8v-0.4c1.5-0.1,2.7-0.5,3.6-1.3c0,0.5-0.1,1.1-0.1,2c1-0.9,1.7-1.8,2.7-1.8c0.5,0,1,0.4,1,1
			c0,0.7-0.5,1.1-1,1.1c-0.1,0-0.4,0-0.4-0.1c0-0.1,0.1-0.2,0.1-0.3c0-0.3-0.3-0.5-0.6-0.5c-0.5,0-1.8,0.7-1.8,2.2v2.6
			c0,2.1,0,2.3,1.9,2.5V452.3z"/>
		<path fill="#4C3D2A" d="M212.9,452.3c-0.3,0-0.6,0-0.9-0.1c-0.3,0-0.6,0-0.9,0c-0.5,0-0.9,0-1.4,0.3c0.1-0.6,0.2-1.3,0.2-1.8
			c-0.8,0.7-1.8,1.8-3.3,1.8c-1,0-2-0.8-2-2.1c0-1.7,1.6-2.2,2.6-2.5l2.1-0.6c0.6-0.2,0.6-0.6,0.6-1.6c0-1.1-0.4-1.5-1.3-1.5
			c-1,0-2.1,0.4-2.1,1c0,0.2,0.2,0.5,0.3,0.5c0.1,0,0.2,0,0.3,0c0,0.5-0.3,1.2-1,1.2c-0.5,0-0.9-0.4-0.9-0.9c0-1.8,2.8-2.5,4.2-2.5
			c1.6,0,1.9,1,1.9,2.1v5c0,1.3,0.8,1.2,1.6,1.3V452.3z M208.5,448.1c-1.3,0.4-2.3,0.7-2.3,2c0,0.9,0.6,1.4,1.2,1.4
			c1,0,2.6-0.9,2.6-2v-1.8L208.5,448.1z"/>
		<path fill="#4C3D2A" d="M218.4,452.3c-0.8,0-1.6-0.1-2.3-0.1c-0.8,0-1.7,0.1-2.4,0.1v-0.4c1.6-0.2,1.6-0.5,1.6-2.5v-2.6
			c0-1.7-0.3-1.8-2-1.8v-0.4c1.5-0.1,2.7-0.5,3.6-1.3c0,1-0.1,1.7-0.1,3.6v2.6c0,2.1,0,2.3,1.6,2.5V452.3z M215.8,441.1
			c-0.6,0-1.1-0.5-1.1-1.1c0-0.6,0.5-1.1,1.1-1.1c0.6,0,1.1,0.5,1.1,1.1C216.8,440.7,216.3,441.1,215.8,441.1z"/>
		<path fill="#4C3D2A" d="M229.8,452.3c-0.8,0-1.6-0.1-2.3-0.1c-0.8,0-1.7,0.1-2.4,0.1v-0.4c1.6-0.2,1.6-0.5,1.6-2.5v-3.1
			c0-0.8,0-1.7-1.3-1.7c-1.8,0-2.9,1.3-2.9,2.4v2.5c0,2.1,0,2.3,1.6,2.5v0.4c-0.8,0-1.6-0.1-2.3-0.1c-0.8,0-1.7,0.1-2.4,0.1v-0.4
			c1.6-0.2,1.6-0.5,1.6-2.5v-2.6c0-1.7-0.3-1.8-2-1.8v-0.4c1.5-0.1,2.7-0.5,3.6-1.3c0,0.6-0.1,1-0.1,2.1c0.9-0.9,2.2-1.8,4.1-1.8
			c1.4,0,1.5,1.1,1.5,2.2v3.7c0,2.1,0,2.3,1.6,2.5V452.3z"/>
		<path fill="#4C3D2A" d="M250.5,452.3c-0.8,0-1.6-0.1-2.3-0.1c-0.9,0-1.7,0.1-2.4,0.1v-0.4c1.6-0.2,1.6-0.5,1.6-2.5v-3.1
			c0-0.8,0-1.7-0.9-1.7c-1.7,0-2.8,1.2-2.8,2.3v2.6c0,2.1,0,2.3,1.4,2.5v0.4c-0.7,0-1.4-0.1-2.1-0.1c-0.8,0-1.5,0.1-2.2,0.1v-0.4
			c1.4-0.2,1.4-0.5,1.4-2.5v-3.1c0-0.8,0-1.7-0.9-1.7c-1.7,0-2.8,1.2-2.8,2.3v2.6c0,2.1,0,2.3,1.6,2.5v0.4c-0.8,0-1.6-0.1-2.3-0.1
			c-0.8,0-1.7,0.1-2.4,0.1v-0.4c1.6-0.2,1.6-0.5,1.6-2.5v-2.6c0-1.7-0.3-1.8-2-1.8v-0.4c1.5-0.1,2.7-0.5,3.6-1.3
			c0,0.6-0.1,1.2-0.1,2c0.9-0.8,2.3-1.7,3.7-1.7c1.1,0,1.3,0.8,1.4,1.7c0.9-0.8,2.3-1.7,3.7-1.7c1.2,0,1.3,1.1,1.3,2.2v3.7
			c0,2.1,0,2.3,1.6,2.5V452.3z"/>
		<path fill="#4C3D2A" d="M259.7,452.3c-0.3,0-0.6,0-0.9-0.1c-0.3,0-0.6,0-0.9,0c-0.5,0-0.9,0-1.4,0.3c0.1-0.6,0.2-1.3,0.2-1.8
			c-0.8,0.7-1.8,1.8-3.3,1.8c-1,0-2-0.8-2-2.1c0-1.7,1.6-2.2,2.6-2.5l2.1-0.6c0.6-0.2,0.6-0.6,0.6-1.6c0-1.1-0.4-1.5-1.3-1.5
			c-1,0-2.1,0.4-2.1,1c0,0.2,0.2,0.5,0.3,0.5c0.1,0,0.2,0,0.3,0c0,0.5-0.3,1.2-1,1.2c-0.5,0-0.9-0.4-0.9-0.9c0-1.8,2.8-2.5,4.2-2.5
			c1.6,0,1.9,1,1.9,2.1v5c0,1.3,0.8,1.2,1.6,1.3V452.3z M255.3,448.1c-1.3,0.4-2.3,0.7-2.3,2c0,0.9,0.6,1.4,1.2,1.4
			c1,0,2.6-0.9,2.6-2v-1.8L255.3,448.1z"/>
		<path fill="#4C3D2A" d="M270.2,452.3c-0.2,0-0.5,0-0.8-0.1c-0.3,0-0.6,0-0.7,0c-0.4,0-0.8,0.1-1.1,0.2c0-0.1,0-0.3,0-0.4
			c0-0.1-0.1-0.2-0.6-0.9l-2.4-3.3l-1.2,1.2c0,2.3,0,2.6,1.6,2.8v0.4c-0.8,0-1.6-0.1-2.3-0.1c-0.8,0-1.7,0.1-2.4,0.1v-0.4
			c1.6-0.2,1.6-0.5,1.6-2.5v-7c0-2.2,0-2.6-2.2-2.6v-0.4c1.4,0,2.7-0.2,3.7-1c0,0.6-0.1,2.7-0.1,4v5.9l2.3-2.3
			c0.6-0.6,0.9-1.1,0.9-1.3c0-0.5-0.6-0.6-1.3-0.6v-0.4c0.4,0,1.7,0.1,2.3,0.1c0.7,0,1.6-0.1,2.1-0.1v0.4c-1.3,0.1-1.6,0.3-2.7,1.5
			l-1.3,1.3l2.6,3.6c0.7,1,1,1.3,2,1.4V452.3z"/>
		<path fill="#4C3D2A" d="M278.2,449.2c-0.3,1.2-1.2,3.3-3.8,3.3c-2,0-3.6-1.2-3.6-4.4c0-2.9,1.7-4.7,4-4.7c2.8,0,3.2,2.4,3.2,3.5
			l-5.8,0.4c0,0.2,0,0.5,0,0.7c0,1.5,0.8,3.4,2.7,3.4c1.8,0,2.4-1.6,2.7-2.5L278.2,449.2z M275.6,446.4c0.3,0,0.9-0.2,0.9-0.7
			c0-0.8-0.7-1.7-1.7-1.7c-2.2,0-2.5,2-2.6,2.8L275.6,446.4z"/>
		<path fill="#4C3D2A" d="M284.9,446.4c-0.3-0.9-0.8-2.4-2.4-2.4c-1.1,0-1.6,0.5-1.6,1.3c0,2.1,5.1,1.3,5.1,4.6
			c0,1.3-1.1,2.6-2.9,2.6c-1.3,0-1.8-0.5-2.7-0.5c-0.2,0-0.5,0.1-0.7,0.3c0-0.3,0.1-0.7,0.1-1.2c0-0.7,0-1.3-0.1-2.1h0.4
			c0.2,1.1,0.6,2.9,2.8,2.9c1,0,1.9-0.6,1.9-1.5c0-2.2-5-1.4-5-4.5c0-1.3,0.9-2.5,2.8-2.5c0.9,0,1.7,0.4,2.1,0.4
			c0.2,0,0.4-0.2,0.6-0.3c0,0.3,0,0.6,0,0.9c0,0.4,0,1.2,0.1,2H284.9z"/>
		<path fill="#4C3D2A" d="M301.5,452.3c-0.3,0-0.6,0-0.9-0.1c-0.3,0-0.6,0-0.8,0c-0.5,0-1.1,0.1-1.5,0.3c0-0.5,0.1-1.2,0.1-1.8
			c-1.1,1-2,1.8-3.5,1.8c-1.7,0-2.7-1.7-2.7-3.8c0-3.4,1.6-5.4,3.9-5.4c1.2,0,1.7,0.3,2.2,0.7v-1.8c0-2.2,0-2.6-2.2-2.6v-0.4
			c1.4,0,2.7-0.2,3.7-1c0,0.6-0.1,2.7-0.1,4v7c0,2.1,0,2.3,1.6,2.5V452.3z M298.5,446.9c0-1.5-0.3-2.8-2-2.8c-2,0-2.6,1.9-2.6,4.3
			c0,1.9,0.6,3.2,2.1,3.2c1.7,0,2.5-1.7,2.5-2.5V446.9z"/>
		<path fill="#4C3D2A" d="M309.8,449.2c-0.3,1.2-1.2,3.3-3.8,3.3c-2,0-3.6-1.2-3.6-4.4c0-2.9,1.7-4.7,4-4.7c2.8,0,3.2,2.4,3.2,3.5
			l-5.8,0.4c0,0.2,0,0.5,0,0.7c0,1.5,0.8,3.4,2.7,3.4c1.8,0,2.4-1.6,2.7-2.5L309.8,449.2z M307.3,446.4c0.3,0,0.9-0.2,0.9-0.7
			c0-0.8-0.7-1.7-1.7-1.7c-2.2,0-2.5,2-2.6,2.8L307.3,446.4z"/>
		<path fill="#4C3D2A" d="M318.6,449.2c-0.3,1.2-1.2,3.3-3.8,3.3c-2,0-3.6-1.2-3.6-4.4c0-2.9,1.7-4.7,4-4.7c2.8,0,3.2,2.4,3.2,3.5
			l-5.8,0.4c0,0.2,0,0.5,0,0.7c0,1.5,0.8,3.4,2.7,3.4c1.8,0,2.4-1.6,2.7-2.5L318.6,449.2z M316.1,446.4c0.3,0,0.9-0.2,0.9-0.7
			c0-0.8-0.7-1.7-1.7-1.7c-2.2,0-2.5,2-2.6,2.8L316.1,446.4z"/>
		<path fill="#4C3D2A" d="M324.8,456.3c-0.9,0-2-0.1-2.8-0.1c-0.8,0-1.7,0.1-2.4,0.1v-0.4c1.6-0.2,1.6-0.5,1.6-2.5v-6.6
			c0-1.7-0.3-1.8-1.8-1.8v-0.4c1.4-0.1,2.5-0.5,3.4-1.3c0,0.7-0.1,1.2-0.1,2.1c1.1-1,1.9-1.8,3.4-1.8c1.7,0,2.7,1.7,2.7,3.8
			c0,3.4-1.6,5.4-3.9,5.4c-1.2,0-1.7-0.3-2.2-0.7v1.5c0,2.1,0,2.3,2.2,2.5V456.3z M322.6,449.2c0,1.5,0.3,2.8,2,2.8
			c2,0,2.6-1.9,2.6-4.3c0-1.9-0.6-3.2-2.1-3.2c-1.7,0-2.5,1.7-2.5,2.5V449.2z"/>
		<path fill="#4C3D2A" d="M337.6,449.2c-0.3,1.2-1.2,3.3-3.8,3.3c-2,0-3.6-1.2-3.6-4.4c0-2.9,1.7-4.7,4-4.7c2.8,0,3.2,2.4,3.2,3.5
			l-5.8,0.4c0,0.2,0,0.5,0,0.7c0,1.5,0.8,3.4,2.7,3.4c1.8,0,2.4-1.6,2.7-2.5L337.6,449.2z M335.1,446.4c0.3,0,0.9-0.2,0.9-0.7
			c0-0.8-0.7-1.7-1.7-1.7c-2.2,0-2.5,2-2.6,2.8L335.1,446.4z"/>
		<path fill="#4C3D2A" d="M344,452.3c-0.8,0-1.9-0.1-2.5-0.1c-0.8,0-1.7,0.1-2.4,0.1v-0.4c1.6-0.2,1.6-0.5,1.6-2.5v-2.6
			c0-1.7-0.3-1.8-2-1.8v-0.4c1.5-0.1,2.7-0.5,3.6-1.3c0,0.5-0.1,1.1-0.1,2c1-0.9,1.7-1.8,2.7-1.8c0.5,0,1,0.4,1,1
			c0,0.7-0.5,1.1-1,1.1c-0.1,0-0.4,0-0.4-0.1c0-0.1,0.1-0.2,0.1-0.3c0-0.3-0.3-0.5-0.6-0.5c-0.5,0-1.8,0.7-1.8,2.2v2.6
			c0,2.1,0,2.3,1.9,2.5V452.3z"/>
		<path fill="#4C3D2A" d="M35.9,472c-0.4,1.3-1.1,3.4-3.8,3.4c-2.3,0-3.6-1.8-3.6-4.4c0-2.9,1.9-4.7,4.1-4.7c1.2,0,2.6,0.6,2.6,1.7
			c0,0.7-0.5,1.2-1.1,1.2c-0.4,0-0.9-0.3-0.9-1c0.4,0,0.6-0.3,0.6-0.5c0-0.6-0.6-0.8-1.3-0.8c-1.6,0-2.7,1.3-2.7,3.5
			c0,2,0.8,4,2.6,4c1.9,0,2.5-1.4,2.8-2.5L35.9,472z"/>
		<path fill="#4C3D2A" d="M41.1,475.4c-2.6,0-4.2-2-4.2-4.6c0-2.5,1.6-4.6,4.2-4.6c2.6,0,4.2,2,4.2,4.6
			C45.2,473.4,43.6,475.4,41.1,475.4z M43.5,470.8c0-2.3-0.7-4-2.5-4s-2.5,1.7-2.5,4c0,2.3,0.7,4,2.5,4S43.5,473.1,43.5,470.8z"/>
		<path fill="#4C3D2A" d="M57,475.1c-0.8,0-1.6-0.1-2.3-0.1c-0.8,0-1.7,0.1-2.4,0.1v-0.4c1.6-0.2,1.6-0.5,1.6-2.5V469
			c0-0.8,0-1.7-1.3-1.7c-1.8,0-2.9,1.3-2.9,2.4v2.5c0,2.1,0,2.3,1.6,2.5v0.4c-0.8,0-1.6-0.1-2.3-0.1c-0.8,0-1.7,0.1-2.4,0.1v-0.4
			c1.6-0.2,1.6-0.5,1.6-2.5v-2.6c0-1.7-0.3-1.8-2-1.8v-0.4c1.5-0.1,2.7-0.5,3.6-1.3c0,0.6-0.1,1-0.1,2.1c0.9-0.9,2.2-1.8,4.1-1.8
			c1.4,0,1.5,1.1,1.5,2.2v3.7c0,2.1,0,2.3,1.6,2.5V475.1z"/>
		<path fill="#4C3D2A" d="M68.3,475.1c-0.8,0-1.6-0.1-2.3-0.1c-0.8,0-1.7,0.1-2.4,0.1v-0.4c1.6-0.2,1.6-0.5,1.6-2.5V469
			c0-0.8,0-1.7-1.3-1.7c-1.8,0-2.9,1.3-2.9,2.4v2.5c0,2.1,0,2.3,1.6,2.5v0.4c-0.8,0-1.6-0.1-2.3-0.1c-0.8,0-1.7,0.1-2.4,0.1v-0.4
			c1.6-0.2,1.6-0.5,1.6-2.5v-2.6c0-1.7-0.3-1.8-2-1.8v-0.4c1.5-0.1,2.7-0.5,3.6-1.3c0,0.6-0.1,1-0.1,2.1c0.9-0.9,2.2-1.8,4.1-1.8
			c1.4,0,1.5,1.1,1.5,2.2v3.7c0,2.1,0,2.3,1.6,2.5V475.1z"/>
		<path fill="#4C3D2A" d="M76.6,472c-0.3,1.2-1.2,3.3-3.8,3.3c-2,0-3.6-1.2-3.6-4.4c0-2.9,1.7-4.7,4-4.7c2.8,0,3.2,2.4,3.2,3.5
			l-5.8,0.4c0,0.2,0,0.5,0,0.7c0,1.5,0.8,3.4,2.7,3.4c1.8,0,2.4-1.6,2.7-2.5L76.6,472z M74.1,469.2c0.3,0,0.9-0.2,0.9-0.7
			c0-0.8-0.7-1.7-1.7-1.7c-2.2,0-2.5,2-2.6,2.8L74.1,469.2z"/>
		<path fill="#4C3D2A" d="M85.5,472c-0.4,1.3-1.1,3.4-3.8,3.4c-2.3,0-3.6-1.8-3.6-4.4c0-2.9,1.9-4.7,4.1-4.7c1.2,0,2.6,0.6,2.6,1.7
			c0,0.7-0.5,1.2-1.1,1.2c-0.4,0-0.9-0.3-0.9-1c0.4,0,0.6-0.3,0.6-0.5c0-0.6-0.6-0.8-1.3-0.8c-1.6,0-2.7,1.3-2.7,3.5
			c0,2,0.8,4,2.6,4c1.9,0,2.5-1.4,2.8-2.5L85.5,472z"/>
		<path fill="#4C3D2A" d="M92.2,474.2c-0.9,0.6-1.9,1.2-3.1,1.2c-1.1,0-1.3-1.1-1.3-2.5v-5.5h-1.6v-0.5c1.7-0.2,1.9-1.1,2.5-3.1h0.6
			c0,0.7-0.1,2.1-0.1,2.9l2.7-0.2v1h-2.7v4.6c0,2.2,0.2,2.4,1,2.4c0.7,0,1.2-0.3,1.7-0.6L92.2,474.2z"/>
		<path fill="#4C3D2A" d="M97.4,475.1c-0.8,0-1.6-0.1-2.3-0.1c-0.8,0-1.7,0.1-2.4,0.1v-0.4c1.6-0.2,1.6-0.5,1.6-2.5v-2.6
			c0-1.7-0.3-1.8-2-1.8v-0.4c1.5-0.1,2.7-0.5,3.6-1.3c0,1-0.1,1.7-0.1,3.6v2.6c0,2.1,0,2.3,1.6,2.5V475.1z M94.8,463.9
			c-0.6,0-1.1-0.5-1.1-1.1c0-0.6,0.5-1.1,1.1-1.1c0.6,0,1.1,0.5,1.1,1.1C95.8,463.5,95.4,463.9,94.8,463.9z"/>
		<path fill="#4C3D2A" d="M102.6,475.4c-2.6,0-4.2-2-4.2-4.6c0-2.5,1.6-4.6,4.2-4.6c2.6,0,4.2,2,4.2,4.6
			C106.8,473.4,105.2,475.4,102.6,475.4z M105.1,470.8c0-2.3-0.7-4-2.5-4s-2.5,1.7-2.5,4c0,2.3,0.7,4,2.5,4S105.1,473.1,105.1,470.8
			z"/>
		<path fill="#4C3D2A" d="M118.6,475.1c-0.8,0-1.6-0.1-2.3-0.1c-0.8,0-1.7,0.1-2.4,0.1v-0.4c1.6-0.2,1.6-0.5,1.6-2.5V469
			c0-0.8,0-1.7-1.3-1.7c-1.8,0-2.9,1.3-2.9,2.4v2.5c0,2.1,0,2.3,1.6,2.5v0.4c-0.8,0-1.6-0.1-2.3-0.1c-0.8,0-1.7,0.1-2.4,0.1v-0.4
			c1.6-0.2,1.6-0.5,1.6-2.5v-2.6c0-1.7-0.3-1.8-2-1.8v-0.4c1.5-0.1,2.7-0.5,3.6-1.3c0,0.6-0.1,1-0.1,2.1c0.9-0.9,2.2-1.8,4.1-1.8
			c1.4,0,1.5,1.1,1.5,2.2v3.7c0,2.1,0,2.3,1.6,2.5V475.1z"/>
		<path fill="#4C3D2A" d="M124.9,469.2c-0.3-0.9-0.8-2.4-2.4-2.4c-1.1,0-1.6,0.5-1.6,1.3c0,2.1,5.1,1.3,5.1,4.6
			c0,1.3-1.1,2.6-2.9,2.6c-1.3,0-1.8-0.5-2.7-0.5c-0.2,0-0.5,0.1-0.7,0.3c0-0.3,0.1-0.7,0.1-1.2c0-0.7,0-1.3-0.1-2.1h0.4
			c0.2,1.1,0.6,2.9,2.8,2.9c1,0,1.9-0.6,1.9-1.5c0-2.2-5-1.4-5-4.5c0-1.3,0.9-2.5,2.8-2.5c0.9,0,1.7,0.4,2.1,0.4
			c0.2,0,0.4-0.2,0.6-0.3c0,0.3,0,0.6,0,0.9c0,0.4,0,1.2,0.1,2H124.9z"/>
		<path fill="#4C3D2A" d="M140.4,475.1c-0.3,0-0.6,0-0.9-0.1c-0.3,0-0.6,0-0.9,0c-0.5,0-0.9,0-1.4,0.3c0.1-0.6,0.2-1.3,0.2-1.8
			c-0.8,0.7-1.8,1.8-3.3,1.8c-1,0-2-0.8-2-2.1c0-1.7,1.6-2.2,2.6-2.5l2.1-0.6c0.6-0.2,0.6-0.6,0.6-1.6c0-1.1-0.4-1.5-1.3-1.5
			c-1,0-2.1,0.4-2.1,1c0,0.2,0.2,0.5,0.3,0.5c0.1,0,0.2,0,0.3,0c0,0.5-0.3,1.2-1,1.2c-0.5,0-0.9-0.4-0.9-0.9c0-1.8,2.8-2.5,4.2-2.5
			c1.6,0,1.9,1,1.9,2.1v5c0,1.3,0.8,1.2,1.6,1.3V475.1z M136.1,470.9c-1.3,0.4-2.3,0.7-2.3,2c0,0.9,0.6,1.4,1.2,1.4
			c1,0,2.6-0.9,2.6-2v-1.8L136.1,470.9z"/>
		<path fill="#4C3D2A" d="M151.7,475.1c-0.8,0-1.6-0.1-2.3-0.1c-0.8,0-1.7,0.1-2.4,0.1v-0.4c1.6-0.2,1.6-0.5,1.6-2.5V469
			c0-0.8,0-1.7-1.3-1.7c-1.8,0-2.9,1.3-2.9,2.4v2.5c0,2.1,0,2.3,1.6,2.5v0.4c-0.8,0-1.6-0.1-2.3-0.1c-0.8,0-1.7,0.1-2.4,0.1v-0.4
			c1.6-0.2,1.6-0.5,1.6-2.5v-2.6c0-1.7-0.3-1.8-2-1.8v-0.4c1.5-0.1,2.7-0.5,3.6-1.3c0,0.6-0.1,1-0.1,2.1c0.9-0.9,2.2-1.8,4.1-1.8
			c1.4,0,1.5,1.1,1.5,2.2v3.7c0,2.1,0,2.3,1.6,2.5V475.1z"/>
		<path fill="#4C3D2A" d="M161.9,475.1c-0.3,0-0.6,0-0.9-0.1c-0.3,0-0.6,0-0.8,0c-0.5,0-1.1,0.1-1.5,0.3c0-0.5,0.1-1.2,0.1-1.8
			c-1.1,1-2,1.8-3.5,1.8c-1.7,0-2.7-1.7-2.7-3.8c0-3.4,1.6-5.4,3.9-5.4c1.2,0,1.7,0.3,2.2,0.7v-1.8c0-2.2,0-2.6-2.2-2.6v-0.4
			c1.4,0,2.7-0.2,3.7-1c0,0.6-0.1,2.7-0.1,4v7c0,2.1,0,2.3,1.6,2.5V475.1z M158.8,469.7c0-1.5-0.3-2.8-2-2.8c-2,0-2.6,1.9-2.6,4.3
			c0,1.9,0.6,3.2,2.1,3.2c1.7,0,2.5-1.7,2.5-2.5V469.7z"/>
		<path fill="#4C3D2A" d="M173.7,473.9c0.4,0,1.7,0.5,1.7,1.7c0,2.1-2.5,3.4-5,3.4c-2.2,0-3-1-3-2c0-1.3,1.1-1.8,2.1-2.3
			c-0.6-0.2-1.5-0.5-1.5-1.2c0-1,0.8-1.2,1.7-1.6c-0.7-0.3-1.8-0.9-1.8-2.6c0-1.9,1.1-3.1,3.3-3.1c0.2,0,0.5,0,0.7,0
			c0.4-0.7,1.2-2.1,2.5-2.1c0.5,0,1,0.3,1,0.9c0,0.6-0.4,0.9-0.8,0.9c-0.2,0-0.4,0-0.5-0.1c0.1-0.1,0.2-0.2,0.2-0.3
			c0-0.2-0.1-0.4-0.4-0.4c-0.8,0-1.2,0.8-1.4,1.1c0.5,0.1,2,0.7,2,2.8c0,2-1.5,3.1-3.1,3.1h-0.7c-0.6,0-1.4,0.4-1.4,0.9
			c0,0.5,0.8,0.5,1.7,0.6L173.7,473.9z M171,474.9c-0.3,0-0.6-0.1-0.8-0.2c-0.6,0.4-1.5,1-1.5,1.9c0,1,1,1.4,2.5,1.4
			c1.6,0,3.4-0.8,3.4-2c0-0.7-0.9-1-1.8-1L171,474.9z M173,469.1c0-1.1-0.5-2.3-1.7-2.3s-1.7,1.2-1.7,2.5c0,1.3,0.4,2.4,1.7,2.4
			C172.5,471.6,173,470.5,173,469.1z"/>
		<path fill="#4C3D2A" d="M183.9,472c-0.3,1.2-1.2,3.3-3.8,3.3c-2,0-3.6-1.2-3.6-4.4c0-2.9,1.7-4.7,4-4.7c2.8,0,3.2,2.4,3.2,3.5
			l-5.8,0.4c0,0.2,0,0.5,0,0.7c0,1.5,0.8,3.4,2.7,3.4c1.8,0,2.4-1.6,2.7-2.5L183.9,472z M181.4,469.2c0.3,0,0.9-0.2,0.9-0.7
			c0-0.8-0.7-1.7-1.7-1.7c-2.2,0-2.5,2-2.6,2.8L181.4,469.2z"/>
		<path fill="#4C3D2A" d="M191,474.2c-0.9,0.6-1.9,1.2-3.1,1.2c-1.1,0-1.3-1.1-1.3-2.5v-5.5h-1.6v-0.5c1.7-0.2,1.9-1.1,2.5-3.1h0.6
			c0,0.7-0.1,2.1-0.1,2.9l2.7-0.2v1h-2.7v4.6c0,2.2,0.2,2.4,1,2.4c0.7,0,1.2-0.3,1.7-0.6L191,474.2z"/>
		<path fill="#4C3D2A" d="M197,469.2c-0.3-0.9-0.8-2.4-2.4-2.4c-1.1,0-1.6,0.5-1.6,1.3c0,2.1,5.1,1.3,5.1,4.6c0,1.3-1.1,2.6-2.9,2.6
			c-1.3,0-1.8-0.5-2.7-0.5c-0.2,0-0.5,0.1-0.7,0.3c0-0.3,0.1-0.7,0.1-1.2c0-0.7,0-1.3-0.1-2.1h0.4c0.2,1.1,0.6,2.9,2.8,2.9
			c1,0,1.9-0.6,1.9-1.5c0-2.2-5-1.4-5-4.5c0-1.3,0.9-2.5,2.8-2.5c0.9,0,1.7,0.4,2.1,0.4c0.2,0,0.4-0.2,0.6-0.3c0,0.3,0,0.6,0,0.9
			c0,0.4,0,1.2,0.1,2H197z"/>
		<path fill="#4C3D2A" d="M206.4,468c1-0.8,2-1.7,3.5-1.7c1.9,0,2.7,1.8,2.7,4c0,3.2-1.4,5.2-3.8,5.2c-1.5,0-2-0.6-2.7-1.2
			c-0.3,0.7-0.8,1.1-1.7,1.6l-0.2-0.3c0.6-0.8,0.9-0.8,0.9-3.3v-7c0-2.2,0-2.6-2.2-2.6v-0.4c1.4,0,2.7-0.2,3.7-1
			c0,0.6-0.1,2.7-0.1,4V468z M206.4,471.6c0,1.3,0.1,3.2,2.3,3.2c1.5,0,2.3-1.6,2.3-3.9c0-2.1-0.6-3.6-2.1-3.6
			c-2.1,0-2.5,1.6-2.5,3.1V471.6z"/>
		<path fill="#4C3D2A" d="M221.6,472c-0.3,1.2-1.2,3.3-3.8,3.3c-2,0-3.6-1.2-3.6-4.4c0-2.9,1.7-4.7,4-4.7c2.8,0,3.2,2.4,3.2,3.5
			l-5.8,0.4c0,0.2,0,0.5,0,0.7c0,1.5,0.8,3.4,2.7,3.4c1.8,0,2.4-1.6,2.7-2.5L221.6,472z M219,469.2c0.3,0,0.9-0.2,0.9-0.7
			c0-0.8-0.7-1.7-1.7-1.7c-2.2,0-2.5,2-2.6,2.8L219,469.2z"/>
		<path fill="#4C3D2A" d="M228.7,474.2c-0.9,0.6-1.9,1.2-3.1,1.2c-1.1,0-1.3-1.1-1.3-2.5v-5.5h-1.6v-0.5c1.7-0.2,1.9-1.1,2.5-3.1
			h0.6c0,0.7-0.1,2.1-0.1,2.9l2.7-0.2v1h-2.7v4.6c0,2.2,0.2,2.4,1,2.4c0.7,0,1.2-0.3,1.7-0.6L228.7,474.2z"/>
		<path fill="#4C3D2A" d="M235,474.2c-0.9,0.6-1.9,1.2-3.1,1.2c-1.1,0-1.3-1.1-1.3-2.5v-5.5h-1.6v-0.5c1.7-0.2,1.9-1.1,2.5-3.1h0.6
			c0,0.7-0.1,2.1-0.1,2.9l2.7-0.2v1H232v4.6c0,2.2,0.2,2.4,1,2.4c0.7,0,1.2-0.3,1.7-0.6L235,474.2z"/>
		<path fill="#4C3D2A" d="M243,472c-0.3,1.2-1.2,3.3-3.8,3.3c-2,0-3.6-1.2-3.6-4.4c0-2.9,1.7-4.7,4-4.7c2.8,0,3.2,2.4,3.2,3.5
			l-5.8,0.4c0,0.2,0,0.5,0,0.7c0,1.5,0.8,3.4,2.7,3.4c1.8,0,2.4-1.6,2.7-2.5L243,472z M240.5,469.2c0.3,0,0.9-0.2,0.9-0.7
			c0-0.8-0.7-1.7-1.7-1.7c-2.2,0-2.5,2-2.6,2.8L240.5,469.2z"/>
		<path fill="#4C3D2A" d="M249.4,475.1c-0.8,0-1.9-0.1-2.5-0.1c-0.8,0-1.7,0.1-2.4,0.1v-0.4c1.6-0.2,1.6-0.5,1.6-2.5v-2.6
			c0-1.7-0.3-1.8-2-1.8v-0.4c1.5-0.1,2.7-0.5,3.6-1.3c0,0.5-0.1,1.1-0.1,2c1-0.9,1.7-1.8,2.7-1.8c0.5,0,1,0.4,1,1
			c0,0.7-0.5,1.1-1,1.1c-0.1,0-0.4,0-0.4-0.1c0-0.1,0.1-0.2,0.1-0.3c0-0.3-0.3-0.5-0.6-0.5c-0.5,0-1.8,0.7-1.8,2.2v2.6
			c0,2.1,0,2.3,1.9,2.5V475.1z"/>
		<path fill="#4C3D2A" d="M261.7,475.1c-0.8,0-1.6-0.1-2.3-0.1c-0.8,0-1.7,0.1-2.4,0.1v-0.4c1.6-0.2,1.6-0.5,1.6-2.5v-2.6
			c0-1.7-0.3-1.8-2-1.8v-0.4c1.5-0.1,2.7-0.5,3.6-1.3c0,1-0.1,1.7-0.1,3.6v2.6c0,2.1,0,2.3,1.6,2.5V475.1z M259,463.9
			c-0.6,0-1.1-0.5-1.1-1.1c0-0.6,0.5-1.1,1.1-1.1c0.6,0,1.1,0.5,1.1,1.1C260.1,463.5,259.6,463.9,259,463.9z"/>
		<path fill="#4C3D2A" d="M272,475.1c-0.3,0-0.6,0-0.9-0.1c-0.3,0-0.6,0-0.8,0c-0.5,0-1.1,0.1-1.5,0.3c0-0.5,0.1-1.2,0.1-1.8
			c-1.1,1-2,1.8-3.5,1.8c-1.7,0-2.7-1.7-2.7-3.8c0-3.4,1.6-5.4,3.9-5.4c1.2,0,1.7,0.3,2.2,0.7v-1.8c0-2.2,0-2.6-2.2-2.6v-0.4
			c1.4,0,2.7-0.2,3.7-1c0,0.6-0.1,2.7-0.1,4v7c0,2.1,0,2.3,1.6,2.5V475.1z M268.9,469.7c0-1.5-0.3-2.8-2-2.8c-2,0-2.6,1.9-2.6,4.3
			c0,1.9,0.6,3.2,2.1,3.2c1.7,0,2.5-1.7,2.5-2.5V469.7z"/>
		<path fill="#4C3D2A" d="M280.3,472c-0.3,1.2-1.2,3.3-3.8,3.3c-2,0-3.6-1.2-3.6-4.4c0-2.9,1.7-4.7,4-4.7c2.8,0,3.2,2.4,3.2,3.5
			l-5.8,0.4c0,0.2,0,0.5,0,0.7c0,1.5,0.8,3.4,2.7,3.4c1.8,0,2.4-1.6,2.7-2.5L280.3,472z M277.7,469.2c0.3,0,0.9-0.2,0.9-0.7
			c0-0.8-0.7-1.7-1.7-1.7c-2.2,0-2.5,2-2.6,2.8L277.7,469.2z"/>
		<path fill="#4C3D2A" d="M289.9,475.1c-0.3,0-0.6,0-0.9-0.1c-0.3,0-0.6,0-0.9,0c-0.5,0-0.9,0-1.4,0.3c0.1-0.6,0.2-1.3,0.2-1.8
			c-0.8,0.7-1.8,1.8-3.3,1.8c-1,0-2-0.8-2-2.1c0-1.7,1.6-2.2,2.6-2.5l2.1-0.6c0.6-0.2,0.6-0.6,0.6-1.6c0-1.1-0.4-1.5-1.3-1.5
			c-1,0-2.1,0.4-2.1,1c0,0.2,0.2,0.5,0.3,0.5c0.1,0,0.2,0,0.3,0c0,0.5-0.3,1.2-1,1.2c-0.5,0-0.9-0.4-0.9-0.9c0-1.8,2.8-2.5,4.2-2.5
			c1.6,0,1.9,1,1.9,2.1v5c0,1.3,0.8,1.2,1.6,1.3V475.1z M285.5,470.9c-1.3,0.4-2.3,0.7-2.3,2c0,0.9,0.6,1.4,1.2,1.4
			c1,0,2.6-0.9,2.6-2v-1.8L285.5,470.9z"/>
		<path fill="#4C3D2A" d="M296.2,469.2c-0.3-0.9-0.8-2.4-2.4-2.4c-1.1,0-1.6,0.5-1.6,1.3c0,2.1,5.1,1.3,5.1,4.6
			c0,1.3-1.1,2.6-2.9,2.6c-1.3,0-1.8-0.5-2.7-0.5c-0.2,0-0.5,0.1-0.7,0.3c0-0.3,0.1-0.7,0.1-1.2c0-0.7,0-1.3-0.1-2.1h0.4
			c0.2,1.1,0.6,2.9,2.8,2.9c1,0,1.9-0.6,1.9-1.5c0-2.2-5-1.4-5-4.5c0-1.3,0.9-2.5,2.8-2.5c0.9,0,1.7,0.4,2.1,0.4
			c0.2,0,0.4-0.2,0.6-0.3c0,0.3,0,0.6,0,0.9c0,0.4,0,1.2,0.1,2H296.2z"/>
	</g>
	
		<line fill="none" stroke="#4C3D2A" stroke-width="4" stroke-linecap="round" stroke-linejoin="round" stroke-miterlimit="10" x1="396" y1="278.9" x2="304" y2="398.9"/>
	<path fill="none" stroke="#4C3D2A" stroke-width="4" stroke-linecap="round" stroke-linejoin="round" stroke-miterlimit="10" d="
		M394.1,278.9c0-28.2,0-56.4,0-84.6"/>
</g>
<g>
</g>
<g>
</g>
<g>
</g>
<g>
</g>
<g>
</g>
<g>
</g>
</svg>
