<?xml version="1.0" encoding="utf-8"?>
<!-- Generator: Adobe Illustrator 19.2.1, SVG Export Plug-In . SVG Version: 6.00 Build 0)  -->
<!DOCTYPE svg PUBLIC "-//W3C//DTD SVG 1.1//EN" "http://www.w3.org/Graphics/SVG/1.1/DTD/svg11.dtd">
<svg version="1.1" id="Layer_1" xmlns="http://www.w3.org/2000/svg" xmlns:xlink="http://www.w3.org/1999/xlink" x="0px" y="0px"
	 width="792px" height="612px" viewBox="0 0 792 612" enable-background="new 0 0 792 612" xml:space="preserve">
<g>
	<g>
		<path fill="#D6E7F7" d="M312.8,122.3c-0.4,1.1-0.7,1.8-0.9,3l-1.1-0.3c0-1.1-0.3-2-0.6-3l-1.7-5.7h0l-2.4,6.1
			c-0.4,0.9-0.6,1.9-0.8,2.9l-1.2-0.2c-0.1-0.9-0.4-1.8-0.6-2.5l-2.5-8.4c-0.7-2.2-0.8-2.6-2.6-2.9l0-0.5c0.9,0,1.8,0.1,2.8,0.1
			c1.4,0,2.4-0.1,3.1-0.1l0,0.5c-0.7,0-2,0-2,0.8c0,0.4,0.4,1.4,0.7,2.2l2.3,8h0l2.8-7.3l-0.4-1.2c-0.6-2-0.7-2.3-2.3-2.5v-0.5
			c0.4,0,1.6,0.1,3,0.1c1.2,0,2.2-0.1,3-0.1v0.5c-0.9,0-2.1,0-2.1,1c0,1,0.4,1.8,0.7,2.8l2.1,7.1h0l2.9-7.7c0.2-0.5,0.5-1.3,0.5-2
			c0-1.1-1.1-1.1-2.3-1.2v-0.5c0.9,0,2,0.1,3.2,0.1c0.8,0,1.7-0.1,2.4-0.1l0,0.5c-1,0.1-1.5,0.2-2.7,3.2L312.8,122.3z"/>
		<path fill="#D6E7F7" d="M331,125c-0.8,0-1.8-0.1-2.5-0.1c-0.9,0-1.8,0.1-2.7,0.1v-0.5c1.8-0.2,1.8-0.5,1.8-2.8v-3.5
			c0-0.9,0-1.9-1.4-1.9c-2,0-3.2,1.4-3.2,2.7v2.7c0,2.3,0,2.6,1.8,2.8v0.5c-0.8,0-1.8-0.1-2.5-0.1c-0.9,0-1.8,0.1-2.7,0.1v-0.5
			c1.8-0.2,1.8-0.5,1.8-2.8v-7.8c0-2.5,0-2.8-2.4-2.8v-0.5c1.6,0,3-0.3,4.1-1.1c0,0.7-0.1,3-0.1,4.4v3.2c1-0.9,2.4-2,4.5-2
			c1.5,0,1.7,1.2,1.7,2.4v4.1c0,2.3,0,2.6,1.8,2.8V125z"/>
		<path fill="#D6E7F7" d="M340.2,121.6c-0.4,1.3-1.3,3.7-4.2,3.7c-2.3,0-4-1.3-4-4.9c0-3.2,1.9-5.3,4.5-5.3c3.1,0,3.5,2.6,3.5,3.9
			l-6.4,0.5c0,0.2,0,0.5,0,0.8c0,1.7,0.9,3.8,3,3.8c2,0,2.6-1.7,3-2.8L340.2,121.6z M337.4,118.5c0.4,0,1.1-0.2,1.1-0.8
			c0-0.9-0.8-1.9-1.9-1.9c-2.5,0-2.8,2.2-2.9,3.1L337.4,118.5z"/>
		<path fill="#D6E7F7" d="M353.3,125c-0.8,0-1.8-0.1-2.5-0.1c-0.9,0-1.8,0.1-2.7,0.1v-0.5c1.8-0.2,1.8-0.5,1.8-2.8v-3.5
			c0-0.9,0-1.9-1.4-1.9c-2,0-3.2,1.4-3.2,2.7v2.7c0,2.3,0,2.6,1.8,2.8v0.5c-0.8,0-1.8-0.1-2.5-0.1c-0.9,0-1.8,0.1-2.7,0.1v-0.5
			c1.8-0.2,1.8-0.5,1.8-2.8v-2.8c0-1.9-0.4-2-2.3-2v-0.5c1.7-0.1,3-0.5,3.9-1.5c0,0.7-0.1,1.1-0.1,2.3c1-0.9,2.4-2,4.5-2
			c1.5,0,1.7,1.2,1.7,2.4v4.1c0,2.3,0,2.6,1.8,2.8V125z"/>
		<path fill="#D6E7F7" d="M363.8,127.6c-0.1,0.3-1.1,2-3.1,2c-1,0-1.7-0.6-1.7-1.4c0-0.8,0.5-1.1,1.1-1.1c0.5,0,0.7,0.2,0.9,0.4
			c-0.2,0.2-0.4,0.3-0.4,0.7c0,0.4,0.4,0.6,0.7,0.6c1.2,0,2.6-2.3,2.6-3.4c0-0.7-0.3-1.3-0.5-1.9l-2.2-5.6c-0.5-1.3-0.7-1.9-2.1-1.9
			v-0.5c0.3,0,1.9,0.1,2.5,0.1c0.7,0,2.2-0.1,2.6-0.1v0.5c-0.7,0-1.6,0-1.6,0.7c0,0.4,0.1,0.6,0.3,1l2.2,5.7l2-5.2
			c0.1-0.3,0.3-0.9,0.3-1.3c0-0.9-1-0.9-1.9-0.9v-0.5c0.4,0,1.7,0.1,2.6,0.1c0.6,0,1.7-0.1,2-0.1v0.5c-1,0.1-1.1,0-1.9,1.9l-3.3,7.8
			L363.8,127.6z"/>
		<path fill="#D6E7F7" d="M375,125.3c-2.8,0-4.6-2.2-4.6-5.1c0-2.8,1.8-5.1,4.6-5.1c2.8,0,4.6,2.3,4.6,5.1
			C379.6,123.1,377.8,125.3,375,125.3z M377.8,120.2c0-2.5-0.8-4.4-2.8-4.4c-2,0-2.8,1.9-2.8,4.4c0,2.5,0.8,4.4,2.8,4.4
			C377,124.6,377.8,122.8,377.8,120.2z"/>
		<path fill="#D6E7F7" d="M392.2,125c-0.3,0-0.6,0-0.9-0.1c-0.3,0-0.6,0-0.9,0c-0.6,0-1,0-1.6,0.4c0.1-0.7,0.2-1.4,0.2-2
			c-1,0.9-2.4,2-4.5,2c-1.5,0-1.7-1.2-1.7-2.4v-4c0-1.9-0.3-2-2-2v-0.5c1.6-0.1,2.8-0.5,3.7-1.5c0,1.1-0.1,1.9-0.1,4v3.4
			c0,0.9,0,1.9,1.4,1.9c1.6,0,3.2-1.1,3.2-2v-3.2c0-2-0.3-2-2-2v-0.5c1.6-0.1,2.8-0.5,3.7-1.5c0,1.1-0.1,1.9-0.1,4v4.2
			c0,1.5,0.9,1.4,1.7,1.5V125z"/>
		<path fill="#D6E7F7" d="M398.9,125c-0.9,0-2.1-0.1-2.8-0.1c-0.9,0-1.8,0.1-2.7,0.1v-0.5c1.8-0.2,1.8-0.5,1.8-2.8v-2.8
			c0-1.9-0.4-2-2.3-2v-0.5c1.7-0.1,3-0.5,3.9-1.5c0,0.6-0.1,1.2-0.1,2.2c1.1-1.1,1.9-2,3-2c0.6,0,1.1,0.4,1.1,1.1
			c0,0.8-0.6,1.2-1.2,1.2c-0.1,0-0.4,0-0.4-0.1c0-0.1,0.1-0.2,0.1-0.4c0-0.4-0.3-0.5-0.6-0.5c-0.5,0-2,0.8-2,2.4v2.8
			c0,2.3,0,2.6,2.1,2.8V125z"/>
		<path fill="#D6E7F7" d="M409.8,117.1c1.1-0.9,2.2-1.9,3.9-1.9c2.1,0,3,2,3,4.4c0,3.5-1.6,5.8-4.2,5.8c-1.6,0-2.2-0.7-3-1.3
			c-0.4,0.8-0.9,1.2-1.9,1.8l-0.2-0.4c0.7-0.9,0.9-0.9,0.9-3.6v-7.8c0-2.5,0-2.8-2.4-2.8v-0.5c1.6,0,3-0.3,4.1-1.1
			c0,0.7-0.1,3-0.1,4.4V117.1z M409.8,121.1c0,1.4,0.1,3.5,2.6,3.5c1.6,0,2.6-1.8,2.6-4.3c0-2.3-0.6-4-2.4-4c-2.3,0-2.8,1.8-2.8,3.5
			V121.1z"/>
		<path fill="#D6E7F7" d="M423.2,125c-0.8,0-1.8-0.1-2.5-0.1c-0.9,0-1.8,0.1-2.7,0.1v-0.5c1.8-0.2,1.8-0.5,1.8-2.8v-7.8
			c0-2.5,0-2.8-2.4-2.8v-0.5c1.6,0,3-0.3,4.1-1.1c0,0.7-0.1,3-0.1,4.4v7.8c0,2.3,0,2.6,1.8,2.8V125z"/>
		<path fill="#D6E7F7" d="M428.9,125.3c-2.8,0-4.6-2.2-4.6-5.1c0-2.8,1.8-5.1,4.6-5.1s4.6,2.3,4.6,5.1
			C433.5,123.1,431.8,125.3,428.9,125.3z M431.7,120.2c0-2.5-0.8-4.4-2.8-4.4c-2,0-2.8,1.9-2.8,4.4c0,2.5,0.8,4.4,2.8,4.4
			C430.9,124.6,431.7,122.8,431.7,120.2z"/>
		<path fill="#D6E7F7" d="M439.9,125.3c-2.8,0-4.6-2.2-4.6-5.1c0-2.8,1.8-5.1,4.6-5.1s4.6,2.3,4.6,5.1
			C444.5,123.1,442.7,125.3,439.9,125.3z M442.6,120.2c0-2.5-0.8-4.4-2.8-4.4c-2,0-2.8,1.9-2.8,4.4c0,2.5,0.8,4.4,2.8,4.4
			C441.9,124.6,442.6,122.8,442.6,120.2z"/>
		<path fill="#D6E7F7" d="M456.4,125c-0.3,0-0.7,0-1-0.1c-0.3,0-0.6,0-0.9,0c-0.6,0-1.2,0.1-1.7,0.4c0-0.5,0.1-1.3,0.1-2
			c-1.2,1.1-2.2,2-3.8,2c-1.9,0-3-1.9-3-4.2c0-3.7,1.8-5.9,4.3-5.9c1.3,0,1.8,0.4,2.5,0.8v-2c0-2.5,0-2.8-2.4-2.8v-0.5
			c1.6,0,3-0.3,4.1-1.1c0,0.7-0.1,3-0.1,4.4v7.8c0,2.3,0,2.6,1.8,2.8V125z M453,119c0-1.7-0.4-3.1-2.2-3.1c-2.2,0-2.9,2.2-2.9,4.8
			c0,2.1,0.7,3.6,2.3,3.6c1.9,0,2.8-1.9,2.8-2.8V119z"/>
		<path fill="#D6E7F7" d="M472.1,125c-0.3,0-0.6,0-0.9-0.1c-0.3,0-0.6,0-0.9,0c-0.6,0-1,0-1.6,0.4c0.1-0.7,0.2-1.4,0.2-2
			c-0.9,0.8-2,2-3.7,2c-1.1,0-2.2-0.9-2.2-2.4c0-1.9,1.8-2.4,2.9-2.8l2.3-0.7c0.7-0.2,0.7-0.7,0.7-1.7c0-1.2-0.4-1.7-1.4-1.7
			c-1.1,0-2.3,0.4-2.3,1.1c0,0.2,0.2,0.5,0.4,0.5c0.1,0,0.2,0,0.3,0c0,0.6-0.4,1.3-1.2,1.3c-0.5,0-1-0.5-1-1c0-2,3.1-2.8,4.7-2.8
			c1.8,0,2.1,1.2,2.1,2.3v5.6c0,1.5,0.9,1.4,1.7,1.5V125z M467.2,120.4c-1.4,0.4-2.6,0.8-2.6,2.2c0,0.9,0.7,1.6,1.3,1.6
			c1.1,0,2.8-1,2.8-2.3v-2L467.2,120.4z"/>
		<path fill="#D6E7F7" d="M477.9,125c-0.8,0-1.8-0.1-2.5-0.1c-0.9,0-1.8,0.1-2.7,0.1v-0.5c1.8-0.2,1.8-0.5,1.8-2.8v-7.8
			c0-2.5,0-2.8-2.4-2.8v-0.5c1.6,0,3-0.3,4.1-1.1c0,0.7-0.1,3-0.1,4.4v7.8c0,2.3,0,2.6,1.8,2.8V125z"/>
		<path fill="#D6E7F7" d="M487.2,121.6c-0.4,1.4-1.3,3.8-4.2,3.8c-2.5,0-4-2-4-4.9c0-3.2,2.1-5.3,4.6-5.3c1.3,0,2.9,0.6,2.9,1.9
			c0,0.8-0.5,1.3-1.2,1.3c-0.5,0-1-0.3-1-1.1c0.5,0,0.6-0.3,0.6-0.6c0-0.6-0.6-0.9-1.4-0.9c-1.8,0-3,1.4-3,3.9
			c0,2.2,0.9,4.4,2.9,4.4c2.1,0,2.7-1.6,3.1-2.8L487.2,121.6z"/>
		<path fill="#D6E7F7" d="M493,125.3c-2.8,0-4.6-2.2-4.6-5.1c0-2.8,1.8-5.1,4.6-5.1s4.6,2.3,4.6,5.1
			C497.6,123.1,495.8,125.3,493,125.3z M495.7,120.2c0-2.5-0.8-4.4-2.8-4.4c-2,0-2.8,1.9-2.8,4.4c0,2.5,0.8,4.4,2.8,4.4
			C495,124.6,495.7,122.8,495.7,120.2z"/>
		<path fill="#D6E7F7" d="M510.3,125c-0.8,0-1.8-0.1-2.5-0.1c-0.9,0-1.8,0.1-2.7,0.1v-0.5c1.8-0.2,1.8-0.5,1.8-2.8v-3.5
			c0-0.9,0-1.9-1.4-1.9c-2,0-3.2,1.4-3.2,2.7v2.7c0,2.3,0,2.6,1.8,2.8v0.5c-0.8,0-1.8-0.1-2.5-0.1c-0.9,0-1.8,0.1-2.7,0.1v-0.5
			c1.8-0.2,1.8-0.5,1.8-2.8v-7.8c0-2.5,0-2.8-2.4-2.8v-0.5c1.6,0,3-0.3,4.1-1.1c0,0.7-0.1,3-0.1,4.4v3.2c1-0.9,2.4-2,4.5-2
			c1.5,0,1.7,1.2,1.7,2.4v4.1c0,2.3,0,2.6,1.8,2.8V125z"/>
		<path fill="#D6E7F7" d="M516,125.3c-2.8,0-4.6-2.2-4.6-5.1c0-2.8,1.8-5.1,4.6-5.1s4.6,2.3,4.6,5.1
			C520.7,123.1,518.9,125.3,516,125.3z M518.8,120.2c0-2.5-0.8-4.4-2.8-4.4c-2,0-2.8,1.9-2.8,4.4c0,2.5,0.8,4.4,2.8,4.4
			C518,124.6,518.8,122.8,518.8,120.2z"/>
		<path fill="#D6E7F7" d="M527.1,125c-0.8,0-1.8-0.1-2.5-0.1c-0.9,0-1.8,0.1-2.7,0.1v-0.5c1.8-0.2,1.8-0.5,1.8-2.8v-7.8
			c0-2.5,0-2.8-2.4-2.8v-0.5c1.6,0,3-0.3,4.1-1.1c0,0.7-0.1,3-0.1,4.4v7.8c0,2.3,0,2.6,1.8,2.8V125z"/>
		<path fill="#D6E7F7" d="M304.3,150.3c-0.9,0-2.1-0.1-2.8-0.1c-0.9,0-1.8,0.1-2.7,0.1v-0.5c1.8-0.2,1.8-0.5,1.8-2.8v-2.8
			c0-1.9-0.4-2-2.3-2v-0.5c1.7-0.1,3-0.5,3.9-1.5c0,0.6-0.1,1.2-0.1,2.2c1.1-1.1,1.9-2,3-2c0.6,0,1.1,0.4,1.1,1.1
			c0,0.8-0.6,1.2-1.2,1.2c-0.1,0-0.4,0-0.4-0.1c0-0.1,0.1-0.2,0.1-0.4c0-0.4-0.3-0.5-0.6-0.5c-0.5,0-2,0.8-2,2.4v2.8
			c0,2.3,0,2.6,2.1,2.8V150.3z"/>
		<path fill="#D6E7F7" d="M315.2,146.9c-0.4,1.3-1.3,3.7-4.2,3.7c-2.3,0-4-1.3-4-4.9c0-3.2,1.9-5.3,4.5-5.3c3.1,0,3.5,2.6,3.5,3.9
			l-6.4,0.5c0,0.2,0,0.5,0,0.8c0,1.7,0.9,3.8,3,3.8c2,0,2.6-1.7,3-2.8L315.2,146.9z M312.4,143.8c0.4,0,1.1-0.2,1.1-0.8
			c0-0.9-0.8-1.9-1.9-1.9c-2.5,0-2.8,2.2-2.9,3.1L312.4,143.8z"/>
		<path fill="#D6E7F7" d="M325.9,150.3c-0.3,0-0.6,0-0.9-0.1c-0.3,0-0.6,0-0.9,0c-0.6,0-1,0-1.6,0.4c0.1-0.7,0.2-1.4,0.2-2
			c-0.9,0.8-2,2-3.7,2c-1.1,0-2.2-0.9-2.2-2.4c0-1.9,1.8-2.4,2.9-2.8l2.3-0.7c0.7-0.2,0.7-0.7,0.7-1.7c0-1.2-0.4-1.7-1.4-1.7
			c-1.1,0-2.3,0.4-2.3,1.1c0,0.2,0.2,0.5,0.4,0.5c0.1,0,0.2,0,0.3,0c0,0.6-0.4,1.3-1.2,1.3c-0.5,0-1-0.5-1-1c0-2,3.1-2.8,4.7-2.8
			c1.8,0,2.1,1.2,2.1,2.3v5.6c0,1.5,0.9,1.4,1.7,1.5V150.3z M321.1,145.7c-1.4,0.4-2.6,0.8-2.6,2.2c0,0.9,0.7,1.6,1.3,1.6
			c1.1,0,2.8-1,2.8-2.3v-2L321.1,145.7z"/>
		<path fill="#D6E7F7" d="M335.2,146.9c-0.4,1.4-1.3,3.8-4.2,3.8c-2.5,0-4-2-4-4.9c0-3.2,2.1-5.3,4.6-5.3c1.3,0,2.9,0.6,2.9,1.9
			c0,0.8-0.5,1.3-1.2,1.3c-0.5,0-1-0.3-1-1.1c0.5,0,0.6-0.3,0.6-0.6c0-0.6-0.6-0.9-1.4-0.9c-1.8,0-3,1.4-3,3.9
			c0,2.2,0.9,4.4,2.9,4.4c2.1,0,2.7-1.6,3.1-2.8L335.2,146.9z"/>
		<path fill="#D6E7F7" d="M347.4,150.3c-0.8,0-1.8-0.1-2.5-0.1c-0.9,0-1.8,0.1-2.7,0.1v-0.5c1.8-0.2,1.8-0.5,1.8-2.8v-3.5
			c0-0.9,0-1.9-1.4-1.9c-2,0-3.2,1.4-3.2,2.7v2.7c0,2.3,0,2.6,1.8,2.8v0.5c-0.8,0-1.8-0.1-2.5-0.1c-0.9,0-1.8,0.1-2.7,0.1v-0.5
			c1.8-0.2,1.8-0.5,1.8-2.8v-7.8c0-2.5,0-2.8-2.4-2.8v-0.5c1.6,0,3-0.3,4.1-1.1c0,0.7-0.1,3-0.1,4.4v3.2c1-0.9,2.4-2,4.5-2
			c1.5,0,1.7,1.2,1.7,2.4v4.1c0,2.3,0,2.6,1.8,2.8V150.3z"/>
		<path fill="#D6E7F7" d="M356.6,146.9c-0.4,1.3-1.3,3.7-4.2,3.7c-2.3,0-4-1.3-4-4.9c0-3.2,1.9-5.3,4.5-5.3c3.1,0,3.5,2.6,3.5,3.9
			l-6.4,0.5c0,0.2,0,0.5,0,0.8c0,1.7,0.9,3.8,3,3.8c2,0,2.6-1.7,3-2.8L356.6,146.9z M353.8,143.8c0.4,0,1.1-0.2,1.1-0.8
			c0-0.9-0.8-1.9-1.9-1.9c-2.5,0-2.8,2.2-2.9,3.1L353.8,143.8z"/>
		<path fill="#D6E7F7" d="M364.1,143.8c-0.3-0.9-0.8-2.6-2.7-2.6c-1.2,0-1.8,0.6-1.8,1.5c0,2.4,5.7,1.5,5.7,5.1
			c0,1.5-1.2,2.9-3.2,2.9c-1.4,0-2-0.6-3-0.6c-0.3,0-0.5,0.1-0.8,0.3c0-0.3,0.1-0.8,0.1-1.3c0-0.8,0-1.5-0.1-2.3h0.5
			c0.3,1.2,0.7,3.2,3.1,3.2c1.1,0,2.1-0.6,2.1-1.7c0-2.4-5.5-1.5-5.5-5c0-1.5,1-2.7,3.1-2.7c1,0,1.9,0.5,2.3,0.5
			c0.3,0,0.5-0.2,0.7-0.3c0,0.3,0,0.6,0,0.9c0,0.4,0,1.3,0.1,2.2H364.1z"/>
		<path fill="#D6E7F7" d="M378.1,153.7c-0.2-0.2-0.4-0.3-0.5-0.4c-0.9-0.8-1.8-1.6-2.4-2.4c-1.6-2.1-2.4-4.6-2.4-7.3
			c0-2.6,0.8-5.1,2.2-7.1c0.4-0.5,0.8-1.1,1.3-1.6c0.6-0.6,0.9-0.9,1.7-1.5l1,1.1c-0.9,0.9-1.1,1.2-1.6,1.8c-1.3,1.9-2,4.4-2,7.1
			c0,3.8,1.4,7.2,3.7,9.1L378.1,153.7z"/>
		<path fill="#D6E7F7" d="M388.9,150.3c-0.3,0-0.6,0-0.9-0.1c-0.3,0-0.6,0-0.9,0c-0.6,0-1,0-1.6,0.4c0.1-0.7,0.2-1.4,0.2-2
			c-0.9,0.8-2,2-3.7,2c-1.1,0-2.2-0.9-2.2-2.4c0-1.9,1.8-2.4,2.9-2.8l2.3-0.7c0.7-0.2,0.7-0.7,0.7-1.7c0-1.2-0.4-1.7-1.4-1.7
			c-1.1,0-2.3,0.4-2.3,1.1c0,0.2,0.2,0.5,0.4,0.5c0.1,0,0.2,0,0.3,0c0,0.6-0.4,1.3-1.2,1.3c-0.5,0-1-0.5-1-1c0-2,3.1-2.8,4.7-2.8
			c1.8,0,2.1,1.2,2.1,2.3v5.6c0,1.5,0.9,1.4,1.7,1.5V150.3z M384,145.7c-1.4,0.4-2.6,0.8-2.6,2.2c0,0.9,0.7,1.6,1.3,1.6
			c1.1,0,2.8-1,2.8-2.3v-2L384,145.7z"/>
		<path fill="#D6E7F7" d="M392.2,142.4c1.1-0.9,2.2-1.9,3.9-1.9c2.1,0,3,2,3,4.4c0,3.5-1.6,5.8-4.2,5.8c-1.6,0-2.2-0.7-3-1.3
			c-0.4,0.8-0.9,1.2-1.9,1.8l-0.2-0.4c0.7-0.9,0.9-0.9,0.9-3.6v-7.8c0-2.5,0-2.8-2.4-2.8v-0.5c1.6,0,3-0.3,4.1-1.1
			c0,0.7-0.1,3-0.1,4.4V142.4z M392.2,146.4c0,1.4,0.1,3.5,2.6,3.5c1.6,0,2.6-1.8,2.6-4.3c0-2.3-0.6-4-2.4-4c-2.3,0-2.8,1.8-2.8,3.5
			V146.4z"/>
		<path fill="#D6E7F7" d="M405.5,150.6c-2.8,0-4.6-2.2-4.6-5.1c0-2.8,1.8-5.1,4.6-5.1s4.6,2.3,4.6,5.1
			C410.1,148.4,408.3,150.6,405.5,150.6z M408.2,145.6c0-2.5-0.8-4.4-2.8-4.4c-2,0-2.8,1.9-2.8,4.4c0,2.5,0.8,4.4,2.8,4.4
			C407.5,149.9,408.2,148.1,408.2,145.6z"/>
		<path fill="#D6E7F7" d="M422.7,150.3c-0.3,0-0.6,0-0.9-0.1c-0.3,0-0.6,0-0.9,0c-0.6,0-1,0-1.6,0.4c0.1-0.7,0.2-1.4,0.2-2
			c-1,0.9-2.4,2-4.5,2c-1.5,0-1.7-1.2-1.7-2.4v-4c0-1.9-0.3-2-2-2v-0.5c1.6-0.1,2.8-0.5,3.7-1.5c0,1.1-0.1,1.9-0.1,4v3.4
			c0,0.9,0,1.9,1.4,1.9c1.6,0,3.2-1.1,3.2-2v-3.2c0-2-0.3-2-2-2v-0.5c1.6-0.1,2.8-0.5,3.7-1.5c0,1.1-0.1,1.9-0.1,4v4.2
			c0,1.5,0.9,1.4,1.7,1.5V150.3z"/>
		<path fill="#D6E7F7" d="M430.2,149.3c-1,0.6-2.1,1.3-3.5,1.3c-1.2,0-1.4-1.3-1.4-2.7v-6.2h-1.7v-0.6c1.9-0.2,2.2-1.3,2.7-3.5h0.6
			c0,0.8-0.1,2.4-0.1,3.2l3-0.2v1.1h-3v5.1c0,2.4,0.2,2.7,1.1,2.7c0.7,0,1.3-0.4,1.9-0.7L430.2,149.3z"/>
		<path fill="#D6E7F7" d="M437.4,150.2v-2.1c2.4-1.8,4.2-3.5,5-4.4c0.3-0.4,1.5-1.7,1.5-3.5c0-1.2-0.6-2.1-1.9-2.1
			c-0.7,0-1.1,0.3-1.2,0.4c-0.8,0.7-0.8,1.9-0.8,2.9l-2.6-0.3c0-1.9,0.5-3.1,1-3.7c0.5-0.7,1.7-1.8,3.9-1.8c1.7,0,2.7,0.7,3.2,1.2
			c0.9,0.8,1.3,2.1,1.3,3.3c0,0.4,0,1.3-0.5,2.4c-0.8,1.8-2.5,3-3.9,4.2c-0.5,0.4-1,0.8-1.5,1.2h6.2v2.2H437.4z"/>
		<path fill="#D6E7F7" d="M462.5,150.2v-1c-0.1,0.1-0.2,0.2-0.3,0.3c-0.4,0.4-1.3,1-2.6,1c-0.4,0-1.1,0-2-0.4
			c-1.1-0.5-2.7-1.9-2.7-4.9c0-3.2,1.8-4.9,3-5.4c0.3-0.1,0.9-0.4,1.8-0.4c0.4,0,1.1,0,1.9,0.5c0.1,0.1,0.3,0.1,0.5,0.3
			c0.2,0.1,0.3,0.3,0.4,0.4v-5.2h2.5v14.9H462.5z M462,142.8c-0.1-0.2-0.4-0.5-0.5-0.7c-0.4-0.3-0.9-0.5-1.4-0.5
			c-0.2,0-0.8,0-1.3,0.4c-1.2,0.8-1.2,2.5-1.2,2.8c0,1.6,0.7,3.4,2.5,3.4c0.7,0,1.2-0.2,1.6-0.7c0.7-0.7,0.8-1.6,0.8-2.5
			C462.4,144.3,462.3,143.5,462,142.8z"/>
		<path fill="#D6E7F7" d="M470.4,144c-0.2,0.6-0.2,1.1-0.2,1.7v4.5h-2.4v-10.5h2.4v1.5c0.2-0.3,0.4-0.6,0.6-0.9
			c0.8-0.8,2.2-0.9,2.5-0.9h0.2v2.6C473,142.1,471,142.1,470.4,144z"/>
		<path fill="#D6E7F7" d="M475.2,138.1v-2.6h2.5v2.6H475.2z M475.2,150.2v-10.5h2.5v10.5H475.2z"/>
		<path fill="#D6E7F7" d="M487.2,150.2v-5.4c0-0.8,0-1.2-0.1-1.6c-0.3-1.2-1.2-1.4-1.8-1.4c-0.3,0-0.8,0-1.3,0.5
			c-0.8,0.6-1,1.5-1,3.3v4.6h-2.6v-10.5h2.6v1.2c0-0.1,0.3-0.3,0.5-0.5c1-0.9,2.4-1,2.8-1c1.6,0,2.5,0.8,2.8,1.3
			c0.7,1,0.6,2.3,0.6,3.4v6.2H487.2z"/>
		<path fill="#D6E7F7" d="M499.5,150.2l-3.2-4.7l-1.5,1.5v3.3h-2.5v-14.9h2.5v8.4l4.1-4h3.2l-4,4l4.4,6.5H499.5z"/>
		<path fill="#D6E7F7" d="M512.3,148.4c-0.5,1-1.8,2.2-4.4,2.2c-2,0-3.4-0.7-4-1.1c-0.4-0.2-0.7-0.5-1-0.8l1.9-1.5
			c0.1,0.1,0.2,0.3,0.5,0.5c0.9,0.8,2.3,0.8,2.6,0.8c0.6,0,1.4-0.1,1.8-0.6c0.2-0.2,0.3-0.4,0.3-0.6c0-0.1,0-0.3-0.2-0.4
			c-0.3-0.4-0.6-0.4-1.4-0.6c-0.7-0.1-1.4-0.2-2.1-0.4c-0.5-0.1-2.9-0.7-2.9-3c0-0.8,0.3-1.4,0.5-1.6c0.5-0.8,1.8-1.8,4-1.8
			c0.8,0,3,0.1,4.5,2l-1.8,1.7c-0.2-0.4-0.5-0.7-0.7-0.8c-0.7-0.6-1.3-0.8-2.2-0.8c-0.1,0-0.8,0-1.3,0.3c-0.4,0.3-0.5,0.6-0.5,0.8
			c0,0.4,0.3,0.6,0.3,0.7c0.3,0.2,1,0.4,1.8,0.5c0.6,0.1,1.1,0.2,1.7,0.3c0.6,0.1,1.2,0.3,1.7,0.7c0.4,0.3,1.2,1,1.2,2.3
			C512.7,147.5,512.6,147.9,512.3,148.4z"/>
		<path fill="#D6E7F7" d="M310.4,175.6h-2.5l-1.9-6.7l-2,6.7h-2.5l-3.1-10.5h2.6l1.8,7.2l2-7.2h2.3l1.9,7.2l1.9-7.2h2.6L310.4,175.6
			z"/>
		<path fill="#D6E7F7" d="M325,172.6c-0.4,1.1-1.8,3.3-4.9,3.3c-0.4,0-1.3,0-2.4-0.5c-1.1-0.5-3.1-2-3.1-5.1c0-1.1,0.3-2,0.5-2.4
			c0.4-1.1,1.8-3.2,4.9-3.2c0.4,0,1.3,0,2.3,0.5c1.1,0.5,3.1,1.9,3.1,5.1C325.4,170.6,325.4,171.6,325,172.6z M319.9,167
			c-0.2,0-0.9,0-1.4,0.4c-0.5,0.4-1.3,1.2-1.3,2.8c0,0.5,0,0.9,0.2,1.4c0.2,0.5,0.9,1.9,2.6,1.9c1.9,0,2.8-1.7,2.7-3.4
			C322.8,168.5,321.8,167,319.9,167z"/>
		<path fill="#D6E7F7" d="M330.1,169.3c-0.2,0.6-0.2,1.1-0.2,1.7v4.5h-2.4V165h2.4v1.5c0.2-0.3,0.4-0.6,0.6-0.9
			c0.8-0.8,2.2-0.9,2.5-0.9h0.2v2.6C332.8,167.4,330.7,167.4,330.1,169.3z"/>
		<path fill="#D6E7F7" d="M338.2,175.6c-1.4,0-2.1-0.3-2.5-0.8c-0.2-0.3-0.3-0.5-0.3-0.6c-0.1-0.3-0.1-1.1-0.1-2v-5.4h-1.5V165h1.5
			v-3.8h2.5v3.8h2.3v1.8h-2.3v4.8c0,0.4-0.1,1.2,0.3,1.6c0.3,0.3,0.9,0.3,1,0.3c0.4,0,0.7,0,1-0.1v2.1
			C339.7,175.5,339.1,175.6,338.2,175.6z"/>
		<path fill="#D6E7F7" d="M348.7,175.6v-5.8c0-0.8,0-1.6-0.7-2.2c-0.2-0.2-0.6-0.4-1.3-0.4c-0.9,0-1.6,0.4-2.1,1
			c-0.2,0.3-0.4,0.6-0.5,0.9c-0.1,0.3-0.1,0.6-0.1,0.9v5.7h-2.5v-14.9h2.5v5.4c0.2-0.2,0.5-0.5,1-0.8c0.4-0.2,1.2-0.6,2.3-0.6
			s2.4,0.4,3.1,1.4c0.7,0.9,0.7,1.9,0.7,3v6.5H348.7z"/>
		<path fill="#D6E7F7" d="M356.5,176c-0.8,1.1-1.7,2-3,3.1l-1-1.1c0.9-0.9,1.1-1.2,1.6-1.8c1.3-1.9,2.1-4.4,2.1-7.1
			c0-3.8-1.4-7.2-3.7-9.1l0.9-1.2c0.2,0.2,0.4,0.3,0.5,0.4c1,0.8,1.7,1.6,2.4,2.4c1.6,2.1,2.4,4.6,2.4,7.3
			C358.8,171.4,358,173.9,356.5,176z"/>
		<path fill="#D6E7F7" d="M371.1,178.2c-0.1,0.3-1.1,2-3.1,2c-1,0-1.7-0.6-1.7-1.4c0-0.8,0.5-1.1,1.1-1.1c0.5,0,0.7,0.2,0.9,0.4
			c-0.2,0.2-0.4,0.3-0.4,0.7c0,0.4,0.4,0.6,0.7,0.6c1.2,0,2.6-2.3,2.6-3.4c0-0.7-0.3-1.3-0.5-1.9l-2.2-5.6c-0.5-1.3-0.7-1.9-2.1-1.9
			v-0.5c0.3,0,1.9,0.1,2.5,0.1c0.7,0,2.2-0.1,2.6-0.1v0.5c-0.7,0-1.6,0-1.6,0.7c0,0.4,0.1,0.6,0.3,1l2.2,5.7l2-5.2
			c0.1-0.3,0.3-0.9,0.3-1.3c0-0.9-1-0.9-1.9-0.9v-0.5c0.4,0,1.7,0.1,2.6,0.1c0.6,0,1.7-0.1,2-0.1v0.5c-1,0.1-1.1,0-1.9,1.9l-3.3,7.8
			L371.1,178.2z"/>
		<path fill="#D6E7F7" d="M382.3,175.9c-2.8,0-4.6-2.2-4.6-5.1c0-2.8,1.8-5.1,4.6-5.1c2.8,0,4.6,2.3,4.6,5.1
			C387,173.7,385.2,175.9,382.3,175.9z M385.1,170.9c0-2.5-0.8-4.4-2.8-4.4c-2,0-2.8,1.9-2.8,4.4c0,2.5,0.8,4.4,2.8,4.4
			C384.3,175.3,385.1,173.4,385.1,170.9z"/>
		<path fill="#D6E7F7" d="M399.5,175.7c-0.3,0-0.6,0-0.9-0.1c-0.3,0-0.6,0-0.9,0c-0.6,0-1,0-1.6,0.4c0.1-0.7,0.2-1.4,0.2-2
			c-1,0.9-2.4,2-4.5,2c-1.5,0-1.7-1.2-1.7-2.4v-4c0-1.9-0.3-2-2-2V167c1.6-0.1,2.8-0.5,3.7-1.5c0,1.1-0.1,1.9-0.1,4v3.4
			c0,0.9,0,1.9,1.4,1.9c1.6,0,3.2-1.1,3.2-2v-3.2c0-2-0.3-2-2-2V167c1.6-0.1,2.8-0.5,3.7-1.5c0,1.1-0.1,1.9-0.1,4v4.2
			c0,1.5,0.9,1.4,1.7,1.5V175.7z"/>
		<path fill="#D6E7F7" d="M408.5,167.7c1.1-0.9,2.2-1.9,3.9-1.9c2.1,0,3,2,3,4.4c0,3.5-1.6,5.8-4.2,5.8c-1.6,0-2.2-0.7-3-1.3
			c-0.4,0.8-0.9,1.2-1.9,1.8L406,176c0.7-0.9,0.9-0.9,0.9-3.6v-7.8c0-2.5,0-2.8-2.4-2.8v-0.5c1.6,0,3-0.3,4.1-1.1
			c0,0.7-0.1,3-0.1,4.4V167.7z M408.5,171.7c0,1.4,0.1,3.5,2.6,3.5c1.6,0,2.6-1.8,2.6-4.3c0-2.3-0.6-4-2.4-4c-2.3,0-2.8,1.8-2.8,3.5
			V171.7z"/>
		<path fill="#D6E7F7" d="M425.3,172.2c-0.4,1.3-1.3,3.7-4.2,3.7c-2.3,0-4-1.3-4-4.9c0-3.2,1.9-5.3,4.5-5.3c3.1,0,3.5,2.6,3.5,3.9
			l-6.4,0.5c0,0.2,0,0.5,0,0.8c0,1.7,0.9,3.8,3,3.8c2,0,2.6-1.7,3-2.8L425.3,172.2z M422.5,169.1c0.4,0,1.1-0.2,1.1-0.8
			c0-0.9-0.8-1.9-1.9-1.9c-2.5,0-2.8,2.2-2.9,3.1L422.5,169.1z"/>
		<path fill="#D6E7F7" d="M435.2,172.2c-0.4,1.4-1.3,3.8-4.2,3.8c-2.5,0-4-2-4-4.9c0-3.2,2.1-5.3,4.6-5.3c1.3,0,2.9,0.6,2.9,1.9
			c0,0.8-0.5,1.3-1.2,1.3c-0.5,0-1-0.3-1-1.1c0.5,0,0.6-0.3,0.6-0.6c0-0.6-0.6-0.9-1.4-0.9c-1.8,0-3,1.4-3,3.9
			c0,2.2,0.9,4.4,2.9,4.4c2.1,0,2.7-1.6,3.1-2.8L435.2,172.2z"/>
		<path fill="#D6E7F7" d="M440.9,175.9c-2.8,0-4.6-2.2-4.6-5.1c0-2.8,1.8-5.1,4.6-5.1s4.6,2.3,4.6,5.1
			C445.5,173.7,443.8,175.9,440.9,175.9z M443.7,170.9c0-2.5-0.8-4.4-2.8-4.4c-2,0-2.8,1.9-2.8,4.4c0,2.5,0.8,4.4,2.8,4.4
			C442.9,175.3,443.7,173.4,443.7,170.9z"/>
		<path fill="#D6E7F7" d="M463.7,175.7c-0.8,0-1.8-0.1-2.5-0.1c-0.9,0-1.8,0.1-2.7,0.1v-0.5c1.8-0.2,1.8-0.5,1.8-2.8v-3.5
			c0-0.9,0-1.9-1-1.9c-1.9,0-3.1,1.3-3.1,2.6v2.8c0,2.3,0,2.6,1.6,2.8v0.5c-0.8,0-1.6-0.1-2.3-0.1c-0.9,0-1.7,0.1-2.5,0.1v-0.5
			c1.6-0.2,1.6-0.5,1.6-2.8v-3.5c0-0.9,0-1.9-1-1.9c-1.9,0-3.1,1.3-3.1,2.6v2.8c0,2.3,0,2.6,1.8,2.8v0.5c-0.8,0-1.8-0.1-2.5-0.1
			c-0.9,0-1.8,0.1-2.7,0.1v-0.5c1.8-0.2,1.8-0.5,1.8-2.8v-2.8c0-1.9-0.4-2-2.3-2V167c1.7-0.1,3-0.5,3.9-1.5c0,0.7-0.1,1.3-0.1,2.2
			c0.9-0.9,2.6-1.9,4.1-1.9c1.2,0,1.5,0.9,1.5,1.9c0.9-0.9,2.6-1.9,4.1-1.9c1.3,0,1.5,1.2,1.5,2.4v4.1c0,2.3,0,2.6,1.8,2.8V175.7z"
			/>
		<path fill="#D6E7F7" d="M473,172.2c-0.4,1.3-1.3,3.7-4.2,3.7c-2.3,0-4-1.3-4-4.9c0-3.2,1.9-5.3,4.5-5.3c3.1,0,3.5,2.6,3.5,3.9
			l-6.4,0.5c0,0.2,0,0.5,0,0.8c0,1.7,0.9,3.8,3,3.8c2,0,2.6-1.7,3-2.8L473,172.2z M470.1,169.1c0.4,0,1.1-0.2,1.1-0.8
			c0-0.9-0.8-1.9-1.9-1.9c-2.5,0-2.8,2.2-2.9,3.1L470.1,169.1z"/>
		<path fill="#D6E7F7" d="M315.3,201c-0.8,0-1.8-0.1-2.5-0.1c-0.9,0-1.8,0.1-2.7,0.1v-0.5c1.8-0.2,1.8-0.5,1.8-2.8v-3.5
			c0-0.9,0-1.9-1-1.9c-1.9,0-3.1,1.3-3.1,2.6v2.8c0,2.3,0,2.6,1.6,2.8v0.5c-0.8,0-1.6-0.1-2.3-0.1c-0.9,0-1.7,0.1-2.5,0.1v-0.5
			c1.6-0.2,1.6-0.5,1.6-2.8v-3.5c0-0.9,0-1.9-1-1.9c-1.9,0-3.1,1.3-3.1,2.6v2.8c0,2.3,0,2.6,1.8,2.8v0.5c-0.8,0-1.8-0.1-2.5-0.1
			c-0.9,0-1.8,0.1-2.7,0.1v-0.5c1.8-0.2,1.8-0.5,1.8-2.8v-2.8c0-1.9-0.4-2-2.3-2v-0.5c1.7-0.1,3-0.5,3.9-1.5c0,0.7-0.1,1.3-0.1,2.2
			c0.9-0.9,2.6-1.9,4.1-1.9c1.2,0,1.5,0.9,1.5,1.9c0.9-0.9,2.6-1.9,4.1-1.9c1.3,0,1.5,1.2,1.5,2.4v4.1c0,2.3,0,2.6,1.8,2.8V201z"/>
		<path fill="#D6E7F7" d="M321.1,201.2c-2.8,0-4.6-2.2-4.6-5.1s1.8-5.1,4.6-5.1c2.8,0,4.6,2.3,4.6,5.1S323.9,201.2,321.1,201.2z
			 M323.8,196.2c0-2.5-0.8-4.4-2.8-4.4c-2,0-2.8,1.9-2.8,4.4c0,2.5,0.8,4.4,2.8,4.4C323.1,200.6,323.8,198.7,323.8,196.2z"/>
		<path fill="#D6E7F7" d="M332.8,201c-0.9,0-2.1-0.1-2.8-0.1c-0.9,0-1.8,0.1-2.7,0.1v-0.5c1.8-0.2,1.8-0.5,1.8-2.8v-2.8
			c0-1.9-0.4-2-2.3-2v-0.5c1.7-0.1,3-0.5,3.9-1.5c0,0.6-0.1,1.2-0.1,2.2c1.1-1.1,1.9-2,3-2c0.6,0,1.1,0.4,1.1,1.1
			c0,0.8-0.6,1.2-1.2,1.2c-0.1,0-0.4,0-0.4-0.1c0-0.1,0.1-0.2,0.1-0.4c0-0.4-0.3-0.5-0.6-0.5c-0.5,0-2,0.8-2,2.4v2.8
			c0,2.3,0,2.6,2.1,2.8V201z"/>
		<path fill="#D6E7F7" d="M343.8,197.5c-0.4,1.3-1.3,3.7-4.2,3.7c-2.3,0-4-1.3-4-4.9c0-3.2,1.9-5.3,4.5-5.3c3.1,0,3.5,2.6,3.5,3.9
			l-6.4,0.5c0,0.2,0,0.5,0,0.8c0,1.7,0.9,3.8,3,3.8c2,0,2.6-1.7,3-2.8L343.8,197.5z M340.9,194.4c0.4,0,1.1-0.2,1.1-0.8
			c0-0.9-0.8-1.9-1.9-1.9c-2.5,0-2.8,2.2-2.9,3.1L340.9,194.4z"/>
	</g>
	<g>
		<path fill="#D6E7F7" d="M379.6,197.9c-0.2-1.1-0.6-2.1-1.2-3.1c-1.1-1.7-3-3.7-7.4-3.7c-0.6,0-2.8,0-4.7,1
			c-1.5,0.8-2.7,2.2-3.5,3.6c-1,1.8-1.9,4.2-1.9,8.6c0,0.9,0,3,0.6,5.4c0.6,2.8,2.4,8.1,10,8.1c2.7,0,4.8-0.9,6.6-3.1
			c1.1-1.5,1.5-2.6,1.6-3.3l2.7,1.6c-1.5,3.3-3.5,5-4.8,5.8c-1.2,0.7-3.2,1.6-6.5,1.6c-1.7,0-6.6-0.2-9.9-4.3
			c-3.3-4.1-3.3-10.2-3.3-11.4c0-1.5,0-7.8,3.7-12.2c1.5-1.7,3.2-2.6,3.9-3c1-0.4,2.7-0.9,5.2-0.9c1.7,0,3.4,0.2,5,0.8
			c3.5,1.2,5.4,3.8,6.8,7.1L379.6,197.9z"/>
		<path fill="#D6E7F7" d="M407.4,219.6l-9.6-13.4h-7.1v13.4h-2.9v-30.3h8.5c1.7,0,3.4,0,5.1,0c1.2,0.1,5.4,0.3,7.5,4
			c0.4,0.8,1.2,2.3,1.2,4.6c0,3.6-1.9,6.4-5.3,7.5c-0.9,0.3-1.8,0.5-3.7,0.6l9.8,13.4H407.4z M406.4,194.5c-1.4-2.4-3.9-2.6-6.3-2.6
			h-9.3v11.8h7.1c0.8,0,1.6,0,2.4,0c2.2-0.1,4.5-0.2,6-2.2c0.5-0.6,1.1-1.7,1.1-3.6C407.3,197.3,407.2,195.9,406.4,194.5z"/>
		<path fill="#D6E7F7" d="M415.5,219.6v-30.3h19.8v2.6h-16.9v10.8h15.3v2.7h-15.3V217h18v2.7H415.5z"/>
		<path fill="#D6E7F7" d="M462,219.6l-3.5-9.1H445l-3.5,9.1h-3.2l12.3-30.3h2.4l12,30.3H462z M451.9,192.7l-5.9,15.5h11.7
			L451.9,192.7z"/>
		<path fill="#D6E7F7" d="M474.9,191.9v27.7H472v-27.7h-9.5v-2.5h21.9v2.5H474.9z"/>
		<path fill="#D6E7F7" d="M488.6,219.6v-30.3h2.9v30.3H488.6z"/>
		<path fill="#D6E7F7" d="M509,219.6h-2.6l-11.1-30.3h3.2l9.3,26.3l9.5-26.3h3L509,219.6z"/>
		<path fill="#D6E7F7" d="M524.3,219.6v-30.3H544v2.6h-16.9v10.8h15.3v2.7h-15.3V217h18v2.7H524.3z"/>
	</g>
	<path fill="#FFCA61" d="M193.5,111.8c0,0,14.7,1.6,9.2,6l3.2,9.5l-2.4,2.4c0,0,6.4,45.8,4.8,53.3c0,0,10.7,10.7,10.7,15.5v92.7
		c0,0-9.5,13.5-25.5,11.1"/>
	<path fill="#FFCA61" d="M197.3,111.8c0,0-14.7,1.6-9.2,6l-3.2,9.5l2.4,2.4c0,0-6.4,45.8-4.8,53.3c0,0-10.7,10.7-10.7,15.5v92.7
		c0,0,9.5,13.5,25.5,11.1"/>
	<path fill="#FFCA61" d="M262,111.8c0,0,14.7,1.6,9.2,6l3.2,9.5l-2.4,2.4c0,0,6.4,45.8,4.8,53.3c0,0,10.7,10.7,10.7,15.5v92.7
		c0,0-9.5,13.5-25.5,11.1"/>
	<path fill="#FFCA61" d="M263.8,111.8c0,0-14.7,1.6-9.2,6l-3.2,9.5l2.4,2.4c0,0-6.4,45.8-4.8,53.3c0,0-10.7,10.7-10.7,15.5v92.7
		c0,0,9.5,13.5,25.5,11.1"/>
	<polyline fill="none" stroke="#5BB1E3" stroke-miterlimit="10" points="187.8,96.3 150.9,96.3 150.9,325.3 165.9,325.3 	"/>
	<polyline fill="none" stroke="#5BB1E3" stroke-miterlimit="10" points="554.8,102.4 591.8,102.4 591.8,245.1 576.7,245.1 	"/>
</g>
<g>
</g>
<g>
</g>
<g>
</g>
<g>
</g>
<g>
</g>
<g>
</g>
</svg>
