<?xml version="1.0" encoding="utf-8"?>
<!-- Generator: Adobe Illustrator 19.2.1, SVG Export Plug-In . SVG Version: 6.00 Build 0)  -->
<!DOCTYPE svg PUBLIC "-//W3C//DTD SVG 1.1//EN" "http://www.w3.org/Graphics/SVG/1.1/DTD/svg11.dtd">
<svg version="1.1" id="Layer_1" xmlns="http://www.w3.org/2000/svg" xmlns:xlink="http://www.w3.org/1999/xlink" x="0px" y="0px"
	 width="792px" height="612px" viewBox="0 0 792 612" style="enable-background:new 0 0 792 612;" xml:space="preserve">
<style type="text/css">
	.st0{fill:#FF5959;}
	.st1{fill:#5BB1E3;}
	.st2{fill:#FFCA61;}
	.st3{fill:#FFA400;}
	.st4{fill:#FFFFFF;}
	.st5{fill:#F9BE00;}
	.st6{fill:#AC162C;}
	.st7{fill:#DBD9D6;}
	.st8{fill:#AC162C;stroke:#000000;stroke-width:4;stroke-linecap:round;stroke-linejoin:round;stroke-miterlimit:10;}
	.st9{fill:#4C3D2A;stroke:#4C3D2A;stroke-width:4;stroke-linecap:round;stroke-linejoin:round;stroke-miterlimit:10;}
	.st10{fill:#FF3A1E;}
</style>
<g>
	<g>
		<path class="st0" d="M329.2,150.3c-4.2,2.2-9.7,1.9-14.3,1.9h-18.1v-50.8H318c1.1,0,2.2,0,3.3,0.1c1.7,0.1,7.3,0.3,10.8,5
			c2.2,3,2.4,6.3,2.4,7.6c-0.1,1.7-0.3,6.2-4.5,9c-2,1.4-3.7,1.7-4.6,1.8c6.9,1.4,10.8,6,10.8,13
			C336.1,140.1,335.7,146.9,329.2,150.3z M327.9,109c-2.6-3.5-7.3-3.3-11.1-3.3h-15.1v17.2h14.3c4,0,8.9,0.1,11.7-3.5
			c1.2-1.6,1.7-3.5,1.7-5.5C329.4,113.1,329.4,111,327.9,109z M326.2,129c-3.2-1.9-6.8-1.9-10.4-1.9h-14.1v20.7h13
			c4.4,0,7.6,0,9.4-0.4c2.3-0.5,7.2-2.7,7.2-9.4C331.3,136.2,330.9,131.7,326.2,129z"/>
		<path class="st0" d="M377.8,152.2l-16.1-22.5h-11.9v22.5h-4.9v-50.8h14.3c2.8,0,5.7-0.1,8.6,0.1c2,0.1,9,0.5,12.6,6.8
			c0.7,1.3,1.9,3.9,1.9,7.7c0,6-3.2,10.8-8.9,12.7c-1.4,0.5-3,0.9-6.2,1.1l16.5,22.5H377.8z M376.1,110c-2.4-4-6.5-4.3-10.6-4.3
			h-15.7v19.8h12c1.3,0,2.7,0,4-0.1c3.7-0.1,7.6-0.4,10-3.7c0.8-1.1,1.8-2.9,1.8-6C377.6,114.8,377.5,112.3,376.1,110z"/>
		<path class="st0" d="M426.1,152.2l-5.8-15.3h-22.8l-5.8,15.3h-5.3l20.7-50.8h4l20.2,50.8H426.1z M409,107l-9.9,26h19.7L409,107z"
			/>
		<path class="st0" d="M437.9,152.2v-50.8h4.8v50.8H437.9z"/>
		<path class="st0" d="M489,152.2l-29.8-43.9v43.9h-4.8v-50.8h4.8l30.2,43.5l-0.4-43.5h4.8v50.8H489z"/>
	</g>
	<g>
		<g>
			<path class="st0" d="M76.4,217.7c-5.5,2.9-12.6,2.5-18.4,2.5H34.7v-65.6h27.2c1.4,0,2.8,0,4.3,0.1c2.2,0.1,9.4,0.4,13.9,6.5
				c2.8,3.9,3.1,8.1,3.1,9.8c-0.1,2.1-0.4,8-5.9,11.6c-2.6,1.8-4.8,2.2-6,2.3c8.9,1.8,13.9,7.7,13.9,16.8
				C85.4,204.6,84.8,213.3,76.4,217.7z M74.8,164.4c-3.3-4.6-9.5-4.3-14.3-4.3H40.9v22.2h18.5c5.1,0,11.4,0.2,15.1-4.5
				c1.6-2,2.2-4.6,2.2-7.1C76.7,169.7,76.6,166.9,74.8,164.4z M72.5,190.2c-4.1-2.4-8.8-2.4-13.4-2.4H40.9v26.8h16.7
				c5.7,0,9.9,0,12.2-0.6c3-0.7,9.3-3.4,9.3-12.1C79.1,199.5,78.6,193.7,72.5,190.2z"/>
			<path class="st0" d="M130.3,214.2c-2.4,2.9-6.8,7.1-15.8,7.1c-1.6,0-6-0.1-10.2-2.3c-10.6-5.5-11-18.5-11-21.4c0-1.5,0-5.1,1.4-9
				c2.9-8.4,10.1-13.9,19.1-13.9c2.7,0,9.1,0.6,14.2,6.3c3.5,4,5.8,10.2,5.8,15.6v1.4H99.3c-0.1,3.6,0.4,5.9,0.8,7.4
				c0.9,3.5,4.1,10.9,14.2,10.8c3.9,0,10-0.9,14.2-9.3l5.1,1.5C133.3,209.4,132.2,211.9,130.3,214.2z M113.6,179.7
				c-7.7,0-11.3,5.3-12.6,7.7c-0.8,1.9-1.4,4.2-1.7,6.1h28C126.1,182.1,118.5,179.7,113.6,179.7z"/>
			<path class="st0" d="M178.7,214.2c-2.4,2.9-6.8,7.1-15.8,7.1c-1.6,0-6-0.1-10.2-2.3c-10.6-5.5-11-18.5-11-21.4c0-1.5,0-5.1,1.4-9
				c2.9-8.4,10.1-13.9,19.1-13.9c2.7,0,9.1,0.6,14.2,6.3c3.5,4,5.8,10.2,5.8,15.6v1.4h-34.4c-0.1,3.6,0.4,5.9,0.8,7.4
				c0.9,3.5,4.1,10.9,14.2,10.8c3.9,0,10-0.9,14.2-9.3l5.1,1.5C181.7,209.4,180.6,211.9,178.7,214.2z M162.1,179.7
				c-7.7,0-11.3,5.3-12.6,7.7c-0.8,1.9-1.4,4.2-1.7,6.1h28C174.6,182.1,166.9,179.7,162.1,179.7z"/>
			<path class="st0" d="M214.5,180.3c-1.1-0.2-2.1-0.3-3.4-0.3c-6.8,0-11,4-12,10.5c-0.4,2.3-0.5,5.3-0.5,10.5v19.2h-5.5v-44.4h5.5
				v7.1c0.3-0.7,0.7-1.6,1.2-2.2c0.6-0.8,2.4-3.2,5.2-4.4c1.2-0.6,3.2-1.1,6.3-1.1c0.7,0,1.7,0,3.3,0.2L214.5,180.3z"/>
		</g>
		<g>
			<path class="st0" d="M549.7,174.5c-0.5-2.4-1.4-4.6-2.7-6.7c-2.3-3.6-6.4-8-16.1-8c-1.4,0-6.1-0.1-10.1,2.1
				c-3.3,1.8-5.8,4.7-7.5,7.9c-2.1,3.8-4.2,9.1-4.2,18.6c0,2,0,6.4,1.2,11.7c1.3,6,5.2,17.6,21.7,17.6c6,0,10.5-1.9,14.2-6.7
				c2.4-3.2,3.2-5.7,3.5-7.3l5.9,3.5c-3.3,7.1-7.5,10.8-10.3,12.6c-2.5,1.6-7,3.4-14,3.4c-3.6,0-14.4-0.4-21.5-9.4
				c-7.1-8.8-7.2-22.2-7.2-24.7c0-3.2,0-17,8.1-26.4c3.2-3.7,7-5.7,8.6-6.4c2.1-0.9,5.8-2,11.3-2c3.6,0,7.3,0.5,10.8,1.7
				c7.6,2.6,11.6,8.2,14.7,15.3L549.7,174.5z"/>
			<path class="st0" d="M603.1,208.2c-2.8,8.9-9.8,14.6-19.2,14.6c-3.1,0-10.1-0.6-15.3-7.4c-2-2.7-4.6-7.4-4.6-15.3
				c0-2,0.1-6.3,2-11.3c4.4-11.3,13.9-12.6,18.2-12.6c5.1,0,9.3,1.5,13,4.9c4.9,4.7,6.9,11.5,7,18.1
				C604.3,200.8,604.3,204.3,603.1,208.2z M584.2,180.9c-1.4,0-4.8,0.2-8,2.5c-3.4,2.6-6.3,7.4-6.3,16.6c0,1.7-0.2,10.6,5.9,15.3
				c1.4,1.1,4,2.6,8.3,2.6c6.5,0,14.3-4.1,14.4-18.1C598.6,185.4,591.3,180.9,584.2,180.9z"/>
			<path class="st0" d="M625.8,182v39.7h-5.5V182h-9.8v-4.6h9.8v-8.5c0-4.7-0.2-6,0.6-8.6c0.9-2.8,3.1-5.6,9.3-5.6
				c2.1,0,3.6,0.3,5.7,0.7v5.4c-0.9-0.4-2.7-1.2-5.3-1.2c-1.9,0-2.7,0.6-3.3,1.2c-1.8,1.8-1.5,3.5-1.5,7.6v8.9h10v4.6H625.8z"/>
			<path class="st0" d="M654.9,182v39.7h-5.5V182h-9.8v-4.6h9.8v-8.5c0-4.7-0.2-6,0.6-8.6c0.9-2.8,3.1-5.6,9.3-5.6
				c2.1,0,3.6,0.3,5.7,0.7v5.4c-0.9-0.4-2.7-1.2-5.3-1.2c-1.9,0-2.7,0.6-3.3,1.2c-1.8,1.8-1.5,3.5-1.5,7.6v8.9h10v4.6H654.9z"/>
			<path class="st0" d="M707.7,215.7c-2.4,2.9-6.8,7.1-15.8,7.1c-1.6,0-6-0.1-10.2-2.3c-10.6-5.5-11-18.5-11-21.4c0-1.5,0-5.1,1.4-9
				c2.9-8.4,10.1-13.9,19.1-13.9c2.7,0,9.1,0.6,14.2,6.3c3.5,4,5.8,10.2,5.8,15.6v1.4h-34.4c-0.1,3.6,0.4,5.9,0.8,7.4
				c0.9,3.5,4.1,10.9,14.2,10.8c3.9,0,10-0.9,14.2-9.3l5.1,1.5C710.7,210.9,709.5,213.4,707.7,215.7z M691,181.1
				c-7.7,0-11.3,5.3-12.6,7.7c-0.8,1.9-1.4,4.2-1.7,6.1h28C703.5,183.6,695.9,181.1,691,181.1z"/>
			<path class="st0" d="M756.1,215.7c-2.4,2.9-6.8,7.1-15.8,7.1c-1.6,0-6-0.1-10.2-2.3c-10.6-5.5-11-18.5-11-21.4c0-1.5,0-5.1,1.4-9
				c2.9-8.4,10.1-13.9,19.1-13.9c2.7,0,9.1,0.6,14.2,6.3c3.5,4,5.8,10.2,5.8,15.6v1.4h-34.4c-0.1,3.6,0.4,5.9,0.8,7.4
				c0.9,3.5,4.1,10.9,14.2,10.8c3.9,0,10-0.9,14.2-9.3l5.1,1.5C759.1,210.9,758,213.4,756.1,215.7z M739.5,181.1
				c-7.7,0-11.3,5.3-12.6,7.7c-0.8,1.9-1.4,4.2-1.7,6.1h28C751.9,183.6,744.3,181.1,739.5,181.1z"/>
		</g>
		<ellipse class="st1" cx="572.8" cy="422.3" rx="86.1" ry="9.9"/>
		<ellipse class="st1" cx="215.8" cy="429.1" rx="86.1" ry="9.9"/>
		
			<rect x="176.8" y="215.2" transform="matrix(0.9207 0.3902 -0.3902 0.9207 140.0581 -77.7655)" class="st2" width="169.3" height="181.3"/>
		
			<ellipse transform="matrix(0.3902 -0.9207 0.9207 0.3902 -24.8163 409.059)" class="st3" cx="296.4" cy="223.3" rx="16.3" ry="84.7"/>
		
			<ellipse transform="matrix(0.3902 -0.9207 0.9207 0.3902 -222.6367 445.8976)" class="st3" cx="225.3" cy="391" rx="20.5" ry="84.7"/>
		<path class="st4" d="M202.8,220.4l0.8,6.2c1.5-13.8-24-35.5-24-35.5l-41.1,97c6.6,18.7,35,9.8,35,9.8l-1.4,3.4l-6.4,15.1
			c-32.7,12.2-49.1-20.8-49.1-20.8l52-122.8c23.8-6.6,42.3,36.8,42.3,36.8"/>
		<path class="st2" d="M181.7,372l-11.3-4.6c-6.1-2.5-9.1-9.5-6.6-15.6l57.1-140.5c2.5-6.1,9.5-9.1,15.6-6.6l11.3,4.6
			c6.1,2.5,9.1,9.5,6.6,15.6l-57.1,140.5C194.9,371.5,187.8,374.5,181.7,372z"/>
		<path class="st2" d="M226,400.2l-13.4-5.4c-6.1-2.5-9.1-9.5-6.6-15.6l57.1-140.5c2.5-6.1,9.5-9.1,15.6-6.6l13.4,5.4
			c6.1,2.5,9.1,9.5,6.6,15.6l-57.1,140.5C239.2,399.7,232.1,402.7,226,400.2z"/>
		<path class="st2" d="M275,414.4l-12.9-5.3c-6.1-2.5-9.1-9.5-6.6-15.6l57.1-140.5c2.5-6.1,9.5-9.1,15.6-6.6l12.9,5.3
			c6.1,2.5,9.1,9.5,6.6,15.6l-57.1,140.5C288.1,413.9,281.1,416.8,275,414.4z"/>
		<path class="st3" d="M248.8,318.9c0,0,13.5,2.7,20-6.9c0,0,9-2.7,9,7.3c0,0-13,18-33,8"/>
		<path class="st5" d="M380.8,296c0,0,9.4-4.3,16.2,0v9.8c0,0-19.1-4.5-20.3,1.8C375.6,314,375.7,297.5,380.8,296"/>
		<path class="st6" d="M290.7,279.9c0,0,29.4-21.8,31.2,18.4c0,0,14.4,26.2-31.2,22.8l-14.8-17.3
			C275.9,303.8,275.9,278.2,290.7,279.9l16.7,4.1c0,0,1.8,11.4-16.7,9.3c0,0,3.9,2.3,0,6.8"/>
		<path class="st6" d="M395.8,309.4c0,0,9.7,26.3,28.9,18.2c0,0,29.9-5.5,12.1-39.1c0,0-33-12.2-29.5,34.6"/>
		<path class="st6" d="M398.1,295.2c0,0,1.3-18,18.6-12.9c0,0,15.5-0.1,21.9,3.9c0,0,5.2,20.4-16.8,6.7l-3.1-4.8
			c0,0-14.9,28.3-6.5,40.4c0,0-15.2-10.3-14-18.2"/>
		<path class="st6" d="M390.3,288.1l-0.9,22.2h10v-15.2C399.3,295.2,390.4,295.3,390.3,288.1z"/>
		<polygon class="st6" points="265,312.7 275.9,303.8 290.7,321.1 277.9,328.3 		"/>
		<path class="st4" d="M268.8,241.2l30.5-1.9c-2.5,13.5,33,27.5,33,27.5c28-3.5,7,33.3,7,33.3c-14,9.8-13,57.7-13,57.7
			c6,50.5,28,17.5,28,17.5c6-28.5,9-9.5,9-9.5c-2.5,18,11.3,14.6,11.3,14.6c14.8-5.9,3.7-27.1,3.7-27.1c-12-1.5,0-53.2,0-53.2
			c32.5-50.7-3.7-77.3-3.7-77.3c-4.7-12.5-16.3-2.6-16.3-2.6c-2-11.6-25-7.2-25-7.2c-7,5.7-19.6,0-19.6,0
			c-18.6-17.3-38.4-6.2-38.4-6.2c-7.4,6.5-54-12.8-54-12.8l-5.5,2.5"/>
		<path class="st4" d="M292.8,239.5c0,0-21.4,1.3-20.9-6.7c0,0-22.7,1-23.1-5"/>
		<path class="st4" d="M339.3,300.1c0,0,1.6-29.4-7-33.3c-8.6-3.9,3.6,0,3.6,0s7.9-9.5,14.9,6.5s-5.5,32.5-5.5,32.5"/>
		<path class="st4" d="M192.4,251.6l97.6-13.3c0,0-70.1-36.1-73.2-44.3L192.4,251.6z"/>
		<path class="st7" d="M336.9,268.6c0,0,6.5-8.4,11.7,5.1c0,0,8,11.2-5.3,31.8C343.3,305.4,350,270.3,336.9,268.6z"/>
		<path class="st7" d="M352.9,216.4c0,0,4.9,11.8,16.4,14.7l8.4-2.7c0,0,8.8,9.6,10,17c0,0,4.2,16.1,1,25.9c0,0-7.7,24.4-12.7,28.3
			c0,0-12.4,49.2,0.7,55.2c0,0,9.4,20-3.2,23.8c0,0-10.5,2.3-8.5-13.1c0,0-0.9-10.8-6.9-7.4c0,0-9.4-7.9-1.8-21.9
			c0,0-3.6-6.5-1.4-7.8c0,0-4.6-19,8.3-22.5c0,0-13.7-19.1-3.7-27.8s10,7.6,10,7.6s-13.5-8.2-8.9-21.7c4.6-13.5,0-18.6,0-18.6
			S341.2,223.2,352.9,216.4z"/>
		<path class="st7" d="M221.5,195.8c0,0,35.2,17.7,53.5,13.2c0,0,37.4,5.9,24.6,19.4c0,0,4.7-9.5,6.9,2.7c0,0,4.7,9.5-2.7,8.9
			c0,0-2,6.8,1.7,8.8c0,0-10-8-9.1-11l-4.3-0.4C292.1,237.4,224.6,201.4,221.5,195.8z"/>
		<path class="st7" d="M319.5,233.7c0,0,7.9-3,9.8,2.4c0,0-2.2,2.2,0,3.5c0,0-2.1,5.6-9.8-1.8C319.5,237.8,315.1,234.5,319.5,233.7z
			"/>
		<path class="st7" d="M339.1,351.6c0,0,3.1,0.2,3.1,5.9c0,0,2.3,2.7-3.1,1.7C339.1,359.1,335.5,354.6,339.1,351.6z"/>
		<path class="st7" d="M218.2,207.4c1.5,2.7,2.4,3,2.9,2.4c0.8-1,0.5-4.6,0.5-4.6s-4.5-6.4-5.8,0.8"/>
		<path class="st7" d="M235.5,222.3c0,0,5.9-3.2,5.7,2.8c0,0,0.8,1.8-2.8,1.5C238.4,226.6,231.8,225.3,235.5,222.3z"/>
		<path class="st7" d="M210.9,235.9c0,0-0.8,0.5,2.2,1.3"/>
		<path class="st7" d="M218.7,231.1c0,0-5.1,5.3,0,6.1c5.1,0.8,1.4,0,1.4,0S224.8,233.5,218.7,231.1z"/>
		<path class="st7" d="M237.8,231.1c-0.7,5.3,7-3.3,7-3.3S239.1,221,237.8,231.1z"/>
		<path class="st7" d="M250.8,229.1c0,0,2.3-2.2,3.8,2c1.5,4.2-3,5.4-6.8,2.5S249,227.7,250.8,229.1z"/>
		<path class="st7" d="M174.3,180.3c0,0,12.2-6.8,32.8,28.7s0,1.1,0,1.1l-1.9,6.3c0,0-12.1-34.9-30.9-31.4l-44.5,103.2"/>
		<path class="st7" d="M126,293.1c0,0,14.2,20.8,40,12.8l-3.1,5.8C162.9,311.6,141,319.1,126,293.1z"/>
		<path class="st8" d="M295.8,284.1"/>
		<path class="st3" d="M206.7,251.2L165.3,353c0,0-2.4,9.9,7.6,13.9l49.4-117.2"/>
		<path class="st3" d="M263.2,243.5l-52.3,129.4c-8.6,14.6,1.3,19.2,1.3,19.2"/>
		<path class="st3" d="M264.8,331.2c0,0-10.6,3.8-21.9-3c0,0,8.3,10.5,18.5,10.5"/>
		<path class="st3" d="M270.2,328.2c0,0,5.1-2.6,5.8-4.1l2.6,2.6c0,0,1.5,0.4,2-0.6l-3.9,8.9c0,0-5.1,3.6-10.5,3.6"/>
		<path class="st3" d="M287,325l-4.6,7.9c0,0,23.2-6.5,25.9-10.1c0,0-10.7,1.2-16.6,0.3l-3.8,2.5"/>
		<path class="st3" d="M294.5,241.6c0,0,5,4.1,2.7,9.6c0,0-10.1-8.2-9.5-9"/>
		<path class="st3" d="M301.9,251.2l6.7,5.2l-1.2,3.8l-7.4-5.7c0,0,1.5-1.1,1.6-4.2"/>
		<path class="st3" d="M310.8,262.9l1.2-3.8l19.9,10c0,0,5.2,2.3,5,19.2l-15.5,37.8C321.3,326.1,339.1,273.6,310.8,262.9z"/>
		<path class="st3" d="M326.5,324.4c0,0-5.5,34.8-0.8,41l-5,11.4c0,0-1.8-34.4,2-43.4"/>
		
			<rect x="442.4" y="209.4" transform="matrix(0.906 -0.4232 0.4232 0.906 -77.4792 251.3014)" class="st4" width="169.3" height="181.3"/>
		<path class="st4" d="M572.5,220.4c0,0,20.5-48.6,53-24.7c0,0,41.1,48.5,46,98.5c0,0-2.1,37-55.2,19.9l-6.5-13.9
			c0,0,48,15.1,49.3-9c0,0-19.5-62.3-46.3-86.5c0,0-19.9,2-33.7,29.7L572.5,220.4z"/>
		
			<ellipse transform="matrix(0.9055 -0.4243 0.4243 0.9055 -47.1568 228.5964)" class="st7" cx="489.8" cy="220.2" rx="84.7" ry="16.3"/>
		
			<ellipse transform="matrix(0.9055 -0.4243 0.4243 0.9055 -108.0711 275.4928)" class="st7" cx="564.6" cy="380.4" rx="84.7" ry="16.3"/>
		<path class="st4" d="M349.3,229.8c0,0,4.5-3,9.5,0"/>
		<path class="st4" d="M377.3,248.8c0,0,4.4,10.9-2.5,15.2"/>
		<path class="st4" d="M360.8,253.8c0,0,1.8-3.8,5.1-2.1"/>
		<path class="st4" d="M341.1,311.3c0,0-0.3,1.5,2.2,0"/>
		<path class="st4" d="M363.4,343.8c0,0-4.6,1.5-4.6,0"/>
		<path class="st4" d="M334.8,348.3c0,0-3,6.5,0,6.5"/>
		<path class="st9" d="M413.1,256.1c0,0-1.9-27.4,59.4-10.7c0,0-56.1,12.7-59.4,28.7c0,0-3.5,9-1.1,14.2c0,0-7.4,16.2-14.9,1.7
			C397.1,290,394.4,258.8,413.1,256.1z"/>
		<path class="st9" d="M397,312c0,0-20.8,36.5,0,36.3C397,348.3,414.9,348.5,397,312z"/>
		<path class="st9" d="M412.8,365.5c0,0-18.3,29.3,0,32.7C412.8,398.1,431.1,392.8,412.8,365.5z"/>
		<path class="st7" d="M519.3,284.9c0,0,30.5,47-63,31.2c0,0-15.5,4.9-4.5,14c0,0,113,14.4,82-45.2"/>
		<path class="st7" d="M472.5,209.4c0,0,44.8-65.3-49.2-23.5l-23,16.8c0,0-15.4,3.1-8.4-6.9c0,0,32.7-40,91.3-35
			c0,0,25.1,9.9,6.6,40.4"/>
		<path class="st7" d="M517.5,284.9c0,0,15,22.4-8.8,30.1c0,0-17.4,5.8-51-0.9c0,0-5.8-21.4-14.7-22c0,0-5.5,0.5-7.8,5.8l-6.7-13
			c0,0,22.9-7.3,32.8,23.4C461.3,308.3,512.7,328.4,517.5,284.9z"/>
		
			<ellipse transform="matrix(0.518 -0.8554 0.8554 0.518 -59.7871 523.6919)" class="st6" cx="434.8" cy="314.9" rx="24.2" ry="22.3"/>
		<polygon class="st6" points="455.8,306.7 466.1,312 461.5,337.2 449.5,331.5 		"/>
		<polyline class="st6" points="375.4,222.1 352.6,205.2 364.6,191.7 387.1,187.5 399.1,202.3 390.1,220 		"/>
		<path class="st6" d="M441.5,291.8c0,0,17.1,6.9,16.2,17.5l8.5,2.7C466.1,312,453.3,267.6,441.5,291.8z"/>
		<polygon class="st6" points="396.4,181.1 412.8,199 401.6,207.6 383.4,190.3 		"/>
		<path class="st6" d="M383.4,190.3c0,0-34.9-5.5-30.4,12.6c0,0,1.3,11.4,12.3,4.8c0,0,5.6-4.2-3-8"/>
		<path class="st6" d="M369.3,203.7c0,0,5.8,4.7,9.4-2.5"/>
		<path class="st6" d="M353,202.8c0,0-17.5,20.4,13.6,32.9c0,0,39.5-7.9-1.3-28.1"/>
		<path class="st6" d="M396.3,205.3c0,0-0.5,15.9-14,14.8"/>
		<path class="st7" d="M539.2,214.1c0,0,22.2-13.7,27.6-23.7l9,18.6c0,0-4.3,9.7-6,11.2l8,15.6c0,0,2.1,2.8,7-7.3l33.3,71.1
			l-8.3-1.7c0,0-7.7-3.7,5.7,18.3c0,0,9.4,3.4,12,2.4l9,21.3c0,0-20.7-2-60,15.7C576.5,355.5,631.6,310.5,539.2,214.1z"/>
		<path class="st7" d="M455.4,332.3c0,0-0.3,5.2-1.8,5.6l9.8,21.2c0,0-8.7-26.3,18.6-25.5C482,333.6,459.5,333.6,455.4,332.3z"/>
		<path class="st10" d="M455.8,310.8l4.1,1.2l-1.8,12.8C458,324.8,459.6,311.1,455.8,310.8z"/>
		
			<ellipse transform="matrix(8.676407e-02 -0.9962 0.9962 8.676407e-02 67.3916 708.2531)" class="st10" cx="420" cy="317.4" rx="6.7" ry="1.7"/>
		<path class="st10" d="M420,311c0,0,2.2-3.4,4.5-3c2.4,0.4-2.7,1.5-2.8,8.1"/>
		
			<ellipse transform="matrix(0.254 -0.9672 0.9672 0.254 14.1285 645.0063)" class="st10" cx="425.2" cy="313.3" rx="2.4" ry="1.2"/>
		<ellipse transform="matrix(0.9939 -0.1106 0.1106 0.9939 -34.071 49.4293)" class="st10" cx="428.7" cy="332" rx="4.7" ry="1.2"/>
		<path class="st10" d="M424.3,332.8c0,0-2.7-1-2.7-2.7c-0.1-1.7,1.4,1.7,6,0.8"/>
		
			<ellipse transform="matrix(0.7231 -0.6908 0.6908 0.7231 -86.1038 389.5555)" class="st10" cx="442.8" cy="302.2" rx="2" ry="3.3"/>
		<path class="st0" d="M424,308c0,0-7.8,0.4-4.9,16c0,0-0.8,1.3-1.8-0.9C417.2,323.1,415.1,308.9,424,308z"/>
		<path class="st0" d="M442.8,299.8c0,0-1,6.6,6.9,6.9"/>
		<path class="st0" d="M457.6,311c0,0,3.6,3.7,1.6,13.8c0,0-0.2-12.1-3.4-11.7l0.8-2.3"/>
		
			<ellipse transform="matrix(0.9742 -0.2259 0.2259 0.9742 -60.7233 77.8253)" class="st10" cx="309.7" cy="304.3" rx="1.7" ry="6.7"/>
		<path class="st10" d="M311.7,310.3c0,0-1,3.9-3.4,4.3c-2.4,0.4,2.1-2.3,0.2-8.6"/>
		
			<ellipse transform="matrix(0.992 -0.1264 0.1264 0.992 -36.6794 41.1551)" class="st10" cx="306.1" cy="309.7" rx="1.2" ry="2.4"/>
		<path class="st0" d="M308.8,314.4c0,0,7.3-2.8-0.2-16.8c0,0,0.4-1.5,2,0.3C310.6,297.9,317,310.8,308.8,314.4z"/>
		
			<ellipse transform="matrix(0.868 -0.4966 0.4966 0.868 -105.9839 181.16)" class="st10" cx="287.7" cy="289.9" rx="2.4" ry="1.2"/>
		<path class="st10" d="M286.9,318.3c0,0-6.4-2.9-6.8-4.8c0,0,2.7,5.3,3.9,5.6c0,0-6.7-3.5-6.2-5.3c0,0,1.7,4.6,4.2,6.3l1,0.4
			L286.9,318.3z"/>
		<path class="st10" d="M294.5,298.2c0,0,4.7-1.5,5.4,1.4C300,299.6,297.7,297.4,294.5,298.2z"/>
		<path class="st10" d="M293.5,299.1c0,0,3.9-1,5.4,2.1C299,301.1,295.9,298.3,293.5,299.1z"/>
		<path class="st10" d="M407.1,308.8c-0.2,2.9-0.9,5.2-1.5,5.1s-1-2.5-0.7-5.4c0.2-2.9,0.9-5.2,1.5-5.1
			C407,303.5,407.3,305.9,407.1,308.8z"/>
		<path class="st10" d="M405.9,303.7c0,0,1.5-2.7,3.2-2.4c1.7,0.3-1.9,1.2-1.9,6.4"/>
		<path class="st0" d="M408.7,301.3c0,0-5.4,0.3-3.4,12.6c0,0-0.6,1-1.3-0.7C404,313.2,402.5,302,408.7,301.3z"/>
		
			<ellipse transform="matrix(0.5135 -0.8581 0.8581 0.5135 -11.293 421.4295)" class="st10" cx="366" cy="220.7" rx="1.7" ry="6.7"/>
		<path class="st10" d="M360.3,217.9c0,0-2.1-3.4-0.7-5.4c1.4-2,0.2,3.1,6.1,6"/>
		<path class="st0" d="M359.4,213c0,0-3,7.2,12.2,11.4c0,0,0.8,1.3-1.6,1.3C370,225.7,356.3,221.4,359.4,213z"/>
		
			<ellipse transform="matrix(3.011361e-02 -0.9995 0.9995 3.011361e-02 165.7163 593.2939)" class="st10" cx="388.6" cy="211.3" rx="4.5" ry="1.1"/>
		<path class="st10" d="M388.8,215.5c0,0-1.3,2.4-2.9,2.2c-1.6-0.2,1.8-1.1,1.6-5.6"/>
		<path class="st0" d="M386.2,217.7c0,0,5.2-0.6,2.7-11c0,0,0.5-0.9,1.3,0.5C390.2,207.3,392.2,216.8,386.2,217.7z"/>
		<ellipse transform="matrix(0.868 -0.4966 0.4966 0.868 -49.3952 211.1423)" class="st10" cx="372.4" cy="198.5" rx="2.4" ry="2"/>
		<ellipse transform="matrix(0.1994 -0.9799 0.9799 0.1994 99.2868 547.528)" class="st10" cx="384.7" cy="213" rx="2.4" ry="1.2"/>
		<path class="st10" d="M395.8,184.2l11.4,12.4c0,0-10.9-6.9-11.4-9.1c0,0,5.8,12.4,10.9,11.5c0,0-13.7-3.3-13.7-10.5v-1.7"/>
		<g>
			<path class="st1" d="M377.4,439h-3.3l-11.4-33h4.1l9.1,26.8L386,406h4L377.4,439z"/>
			<path class="st1" d="M417.7,434.1c-1.3,2.5-4.6,5.7-11.3,5.7c-2,0-7.4-0.3-11.1-5c-1-1.3-1.6-2.5-2.2-3.9l4-1.4
				c0.6,2.3,3,6.5,9.2,6.5c3.1,0,5.1-0.9,6.1-1.7c1.5-1.1,2.3-3,2.3-4.8c0-1-0.3-2.1-0.9-2.9c-1-1.5-2.7-2.3-6.2-3
				c-3.2-0.8-8.4-1.3-10.7-4.1c-1.1-1.4-1.8-3.4-1.7-5.2c0-1,0.3-4.2,2.8-6.4c2.2-2.1,6.1-2.8,9-2.8c1,0,5,0,8.1,2.1
				c2.6,1.8,3.3,4.2,3.6,5.3l-3.9,1c-0.8-3.8-4.7-4.9-8-4.9c-2.7,0-4.5,0.6-5.4,1.2c-0.3,0.1-1,0.7-1.5,1.5
				c-0.7,1.2-0.8,2.3-0.8,2.8c0,3.9,4.1,4.8,6.9,5.3l3.5,0.7c3,0.6,5.7,1.7,7.5,4.3c1.5,2.1,1.6,4.1,1.6,5
				C418.7,430.3,418.6,432.2,417.7,434.1z"/>
		</g>
	</g>
	<g>
		<path class="st1" d="M169,133.3v19h-4.3v-19l-17.1-26.9h5.1l14.2,22.8l14.8-22.8h5.3L169,133.3z"/>
		<path class="st1" d="M211.8,142.8c-2,6.2-6.8,10.2-13.4,10.2c-2.1,0-7.1-0.4-10.7-5.2c-1.4-1.9-3.2-5.2-3.2-10.7
			c0-1.4,0.1-4.4,1.4-7.9c3.1-7.9,9.7-8.8,12.7-8.8c3.6,0,6.5,1,9.1,3.4c3.4,3.3,4.8,8.1,4.9,12.7
			C212.7,137.6,212.7,140.1,211.8,142.8z M198.6,123.7c-1,0-3.4,0.1-5.6,1.8c-2.4,1.8-4.4,5.2-4.4,11.6c0,1.2-0.1,7.4,4.1,10.7
			c1,0.8,2.8,1.8,5.8,1.8c4.6,0,10-2.9,10.1-12.7C208.7,126.9,203.6,123.7,198.6,123.7z"/>
		<path class="st1" d="M240.7,152.2v-5.6c-0.5,1.2-0.9,1.8-1.2,2.3c-2.9,4-7,4-8.6,4c-0.5,0-2.1-0.1-3.6-0.6c-2.8-0.9-5-3.2-5.9-6
			c-0.6-2.1-0.8-5.1-0.8-9.9v-15.2h3.9v16.1c0,3.8,0.1,5.8,0.5,7.5c0.5,1.9,1.9,4.5,6.4,4.5c1.6,0,4.9-0.1,7.3-3.4
			c2.3-3.2,2.1-7.3,2.1-11.1v-13.6h3.8v31H240.7z"/>
		<path class="st1" d="M269.2,124.3c-0.8-0.1-1.5-0.2-2.4-0.2c-4.7,0-7.7,2.8-8.4,7.3c-0.3,1.6-0.3,3.7-0.3,7.3v13.4h-3.8v-31h3.8
			v4.9c0.2-0.5,0.5-1.1,0.8-1.6c0.4-0.6,1.7-2.2,3.6-3.1c0.8-0.4,2.2-0.8,4.4-0.8c0.5,0,1.2,0,2.3,0.1L269.2,124.3z"/>
	</g>
	<g>
		<path class="st1" d="M551.5,142.8c-2,6.2-6.8,10.2-13.4,10.2c-2.1,0-7.1-0.4-10.7-5.2c-1.4-1.9-3.2-5.2-3.2-10.7
			c0-1.4,0.1-4.4,1.4-7.9c3.1-7.9,9.7-8.8,12.7-8.8c3.6,0,6.5,1,9.1,3.4c3.4,3.3,4.8,8.1,4.9,12.7
			C552.3,137.6,552.3,140.1,551.5,142.8z M538.3,123.7c-1,0-3.4,0.1-5.6,1.8c-2.4,1.8-4.4,5.2-4.4,11.6c0,1.2-0.1,7.4,4.1,10.7
			c1,0.8,2.8,1.8,5.8,1.8c4.6,0,10-2.9,10.1-12.7C548.3,126.9,543.2,123.7,538.3,123.7z"/>
		<path class="st1" d="M580.3,152.2v-16.1c0-4.2,0-6.6-0.7-8.5c-0.7-1.6-1.8-2.3-2.3-2.7c-1.8-1-3.5-1-4.2-1s-2.4,0.1-4.1,0.8
			c-2.3,1.1-4.1,3.6-4.7,5.9c-0.3,1.5-0.4,4.2-0.4,7.9v13.6H560v-31h3.8v5.5c0.3-0.8,0.7-2,2.2-3.4c1.2-1.2,3.4-2.7,7.5-2.7
			c5.8,0,8.5,3.2,9.4,5.3c1.2,2.5,1.1,4.9,1.1,10.2v16.1H580.3z"/>
	</g>
</g>
<g>
</g>
<g>
</g>
<g>
</g>
<g>
</g>
<g>
</g>
<g>
</g>
</svg>
