<?xml version="1.0" encoding="utf-8"?>
<!-- Generator: Adobe Illustrator 19.2.1, SVG Export Plug-In . SVG Version: 6.00 Build 0)  -->
<!DOCTYPE svg PUBLIC "-//W3C//DTD SVG 1.1//EN" "http://www.w3.org/Graphics/SVG/1.1/DTD/svg11.dtd">
<svg version="1.1" id="Layer_1" xmlns="http://www.w3.org/2000/svg" xmlns:xlink="http://www.w3.org/1999/xlink" x="0px" y="0px"
	 width="792px" height="612px" viewBox="0 0 792 612" enable-background="new 0 0 792 612" xml:space="preserve">
<g>
	<g>
		<path fill="#D6E7F7" d="M224.6,307.1c0.6,0,1.5,0.1,2.5,0.1c1.2,0,2.4-0.1,3-0.1c3.4,0,5.7,2,5.7,5.3c0,4.1-2.6,5.5-5.7,5.5
			c-0.7,0-1.8-0.1-3-0.1c-1,0-1.9,0.1-2.5,0.1v-0.4c1.6-0.2,1.8-0.4,1.8-2.4v-5.3c0-2-0.2-2.1-1.8-2.4V307.1z M227.8,315.1
			c0,1.4,0,2.2,1.8,2.2c3.2,0,4.6-1.8,4.6-4.9c0-3-1.4-4.7-4.4-4.7c-2.1,0-2.1,0.2-2.1,2.2V315.1z"/>
		<path fill="#D6E7F7" d="M241.4,317.8c-0.7,0-1.6-0.1-2.1-0.1c-0.7,0-1.4,0.1-2,0.1v-0.4c1.4-0.2,1.4-0.4,1.4-2.1v-2.2
			c0-1.5-0.3-1.6-1.7-1.6v-0.4c1.3-0.1,2.3-0.4,3-1.1c0,0.4-0.1,0.9-0.1,1.7c0.8-0.8,1.4-1.5,2.3-1.5c0.4,0,0.9,0.3,0.9,0.8
			c0,0.6-0.4,0.9-0.9,0.9c-0.1,0-0.3,0-0.3-0.1c0-0.1,0.1-0.1,0.1-0.3c0-0.3-0.2-0.4-0.5-0.4c-0.4,0-1.6,0.6-1.6,1.9v2.2
			c0,1.7,0,2,1.6,2.1V317.8z"/>
		<path fill="#D6E7F7" d="M247.6,317.8c-0.6,0-1.4-0.1-1.9-0.1c-0.7,0-1.4,0.1-2,0.1v-0.4c1.4-0.2,1.4-0.4,1.4-2.1v-2.2
			c0-1.5-0.3-1.6-1.7-1.6v-0.4c1.3-0.1,2.3-0.4,3-1.1c0,0.8-0.1,1.5-0.1,3v2.2c0,1.7,0,2,1.4,2.1V317.8z M245.4,308.4
			c-0.5,0-0.9-0.4-0.9-0.9c0-0.5,0.4-0.9,0.9-0.9c0.5,0,0.9,0.4,0.9,0.9C246.3,308,245.9,308.4,245.4,308.4z"/>
		<path fill="#D6E7F7" d="M257.2,317.8c-0.6,0-1.4-0.1-1.9-0.1c-0.7,0-1.4,0.1-2,0.1v-0.4c1.4-0.2,1.4-0.4,1.4-2.1v-2.6
			c0-0.7,0-1.5-1.1-1.5c-1.5,0-2.5,1.1-2.5,2v2.1c0,1.7,0,2,1.4,2.1v0.4c-0.6,0-1.4-0.1-1.9-0.1c-0.7,0-1.4,0.1-2,0.1v-0.4
			c1.4-0.2,1.4-0.4,1.4-2.1v-2.2c0-1.5-0.3-1.6-1.7-1.6v-0.4c1.3-0.1,2.3-0.4,3-1.1c0,0.5-0.1,0.8-0.1,1.7c0.8-0.7,1.9-1.5,3.4-1.5
			c1.2,0,1.3,0.9,1.3,1.8v3.1c0,1.7,0,2,1.4,2.1V317.8z"/>
		<path fill="#D6E7F7" d="M266,317.8c-0.1,0-0.4,0-0.7,0c-0.2,0-0.5,0-0.6,0c-0.3,0-0.7,0.1-0.9,0.2c0-0.1,0-0.3,0-0.3
			c0-0.1-0.1-0.2-0.5-0.8l-2-2.8l-1,1c0,2,0,2.2,1.4,2.4v0.4c-0.6,0-1.4-0.1-1.9-0.1c-0.7,0-1.4,0.1-2,0.1v-0.4
			c1.4-0.2,1.4-0.4,1.4-2.1v-5.9c0-1.9,0-2.2-1.8-2.2v-0.4c1.2,0,2.2-0.2,3.1-0.8c0,0.5-0.1,2.3-0.1,3.4v5l1.9-1.9
			c0.5-0.5,0.7-0.9,0.7-1.1c0-0.4-0.5-0.5-1.1-0.5v-0.4c0.4,0,1.4,0.1,1.9,0.1c0.6,0,1.3-0.1,1.8-0.1v0.4c-1.1,0.1-1.3,0.3-2.3,1.2
			l-1.1,1.1l2.2,3c0.6,0.8,0.9,1.1,1.7,1.2V317.8z"/>
		<path fill="#D6E7F7" d="M270.8,317.8c-0.6,0-1.4-0.1-1.9-0.1c-0.7,0-1.4,0.1-2,0.1v-0.4c1.4-0.2,1.4-0.4,1.4-2.1v-2.2
			c0-1.5-0.3-1.6-1.7-1.6v-0.4c1.3-0.1,2.3-0.4,3-1.1c0,0.8-0.1,1.5-0.1,3v2.2c0,1.7,0,2,1.4,2.1V317.8z M268.5,308.4
			c-0.5,0-0.9-0.4-0.9-0.9c0-0.5,0.4-0.9,0.9-0.9c0.5,0,0.9,0.4,0.9,0.9C269.4,308,269,308.4,268.5,308.4z"/>
		<path fill="#D6E7F7" d="M280.3,317.8c-0.6,0-1.4-0.1-1.9-0.1c-0.7,0-1.4,0.1-2,0.1v-0.4c1.4-0.2,1.4-0.4,1.4-2.1v-2.6
			c0-0.7,0-1.5-1.1-1.5c-1.5,0-2.5,1.1-2.5,2v2.1c0,1.7,0,2,1.4,2.1v0.4c-0.6,0-1.4-0.1-1.9-0.1c-0.7,0-1.4,0.1-2,0.1v-0.4
			c1.4-0.2,1.4-0.4,1.4-2.1v-2.2c0-1.5-0.3-1.6-1.7-1.6v-0.4c1.3-0.1,2.3-0.4,3-1.1c0,0.5-0.1,0.8-0.1,1.7c0.8-0.7,1.9-1.5,3.4-1.5
			c1.2,0,1.3,0.9,1.3,1.8v3.1c0,1.7,0,2,1.4,2.1V317.8z"/>
		<path fill="#D6E7F7" d="M286.1,316.8c0.3,0,1.4,0.4,1.4,1.5c0,1.8-2.1,2.9-4.2,2.9c-1.9,0-2.5-0.9-2.5-1.7c0-1.1,0.9-1.5,1.8-2
			c-0.5-0.2-1.2-0.4-1.2-1c0-0.9,0.6-1,1.4-1.3c-0.6-0.2-1.5-0.7-1.5-2.2c0-1.6,0.9-2.6,2.8-2.6c0.2,0,0.4,0,0.6,0
			c0.3-0.6,1-1.7,2.1-1.7c0.4,0,0.9,0.3,0.9,0.8c0,0.5-0.3,0.7-0.7,0.7c-0.2,0-0.3,0-0.4-0.1c0.1-0.1,0.1-0.2,0.1-0.3
			c0-0.2-0.1-0.3-0.4-0.3c-0.7,0-1,0.7-1.2,1c0.4,0.1,1.6,0.6,1.6,2.3c0,1.7-1.2,2.6-2.6,2.6h-0.6c-0.5,0-1.2,0.3-1.2,0.7
			c0,0.4,0.7,0.4,1.5,0.5L286.1,316.8z M283.9,317.7c-0.2,0-0.5-0.1-0.7-0.1c-0.5,0.4-1.2,0.8-1.2,1.6c0,0.8,0.8,1.2,2.1,1.2
			c1.4,0,2.8-0.7,2.8-1.6c0-0.6-0.8-0.8-1.6-0.9L283.9,317.7z M285.5,312.7c0-0.9-0.4-2-1.4-2c-1,0-1.5,1-1.5,2.1c0,1.1,0.4,2,1.4,2
			C285.1,314.9,285.5,314,285.5,312.7z"/>
		<path fill="#D6E7F7" d="M298.9,315.2c-0.3,1-1,2.8-3.2,2.8c-1.7,0-3-1-3-3.7c0-2.4,1.4-4,3.4-4c2.3,0,2.7,2,2.7,3l-4.8,0.4
			c0,0.1,0,0.4,0,0.6c0,1.3,0.7,2.9,2.3,2.9c1.5,0,2-1.3,2.3-2.1L298.9,315.2z M296.7,312.9c0.3,0,0.8-0.1,0.8-0.6
			c0-0.7-0.6-1.4-1.4-1.4c-1.9,0-2.1,1.7-2.2,2.3L296.7,312.9z"/>
		<path fill="#D6E7F7" d="M304.2,316c-0.1,0.2-0.6,1.3-0.7,2l-0.7-0.1c-0.1-0.6-0.3-1.3-0.7-2.4l-1.1-2.8c-0.6-1.5-0.5-1.7-1.8-1.8
			v-0.4c0.3,0,1.1,0.1,1.9,0.1c0.8,0,1.6-0.1,2-0.1v0.4c-0.7,0-1.2,0-1.2,0.5c0,0.4,0.2,0.7,0.3,1.1l1.5,3.7l1.3-3.1
			c0.2-0.5,0.5-1.2,0.5-1.6c0-0.6-0.8-0.6-1.4-0.6v-0.4c0.4,0,1.2,0.1,1.8,0.1c0.5,0,1.3-0.1,1.6-0.1v0.4c-0.8,0.1-0.9,0.3-1.4,1.3
			L304.2,316z"/>
		<path fill="#D6E7F7" d="M314,315.2c-0.3,1-1,2.8-3.2,2.8c-1.7,0-3-1-3-3.7c0-2.4,1.4-4,3.4-4c2.3,0,2.7,2,2.7,3l-4.8,0.4
			c0,0.1,0,0.4,0,0.6c0,1.3,0.7,2.9,2.3,2.9c1.5,0,2-1.3,2.3-2.1L314,315.2z M311.9,312.9c0.3,0,0.8-0.1,0.8-0.6
			c0-0.7-0.6-1.4-1.4-1.4c-1.9,0-2.1,1.7-2.2,2.3L311.9,312.9z"/>
		<path fill="#D6E7F7" d="M323.9,317.8c-0.6,0-1.4-0.1-1.9-0.1c-0.7,0-1.4,0.1-2,0.1v-0.4c1.4-0.2,1.4-0.4,1.4-2.1v-2.6
			c0-0.7,0-1.5-1.1-1.5c-1.5,0-2.5,1.1-2.5,2v2.1c0,1.7,0,2,1.4,2.1v0.4c-0.6,0-1.4-0.1-1.9-0.1c-0.7,0-1.4,0.1-2,0.1v-0.4
			c1.4-0.2,1.4-0.4,1.4-2.1v-2.2c0-1.5-0.3-1.6-1.7-1.6v-0.4c1.3-0.1,2.3-0.4,3-1.1c0,0.5-0.1,0.8-0.1,1.7c0.8-0.7,1.9-1.5,3.4-1.5
			c1.2,0,1.3,0.9,1.3,1.8v3.1c0,1.7,0,2,1.4,2.1V317.8z"/>
		<path fill="#D6E7F7" d="M333.6,317c-0.7,0.5-1.6,1-2.6,1c-0.9,0-1.1-1-1.1-2.1v-4.7h-1.3v-0.4c1.4-0.2,1.6-1,2.1-2.6h0.5
			c0,0.6-0.1,1.8-0.1,2.4l2.2-0.2v0.8h-2.2v3.9c0,1.8,0.2,2,0.8,2c0.6,0,1-0.3,1.5-0.5L333.6,317z"/>
		<path fill="#D6E7F7" d="M342.6,317.8c-0.6,0-1.4-0.1-1.9-0.1c-0.7,0-1.4,0.1-2,0.1v-0.4c1.4-0.2,1.4-0.4,1.4-2.1v-2.6
			c0-0.7,0-1.5-1.1-1.5c-1.5,0-2.5,1.1-2.5,2v2.1c0,1.7,0,2,1.4,2.1v0.4c-0.6,0-1.4-0.1-1.9-0.1c-0.7,0-1.4,0.1-2,0.1v-0.4
			c1.4-0.2,1.4-0.4,1.4-2.1v-5.9c0-1.9,0-2.2-1.8-2.2v-0.4c1.2,0,2.2-0.2,3.1-0.8c0,0.5-0.1,2.3-0.1,3.4v2.5
			c0.8-0.7,1.9-1.5,3.4-1.5c1.2,0,1.3,0.9,1.3,1.8v3.1c0,1.7,0,2,1.4,2.1V317.8z"/>
		<path fill="#D6E7F7" d="M349.6,315.2c-0.3,1-1,2.8-3.2,2.8c-1.7,0-3-1-3-3.7c0-2.4,1.4-4,3.4-4c2.3,0,2.7,2,2.7,3l-4.8,0.4
			c0,0.1,0,0.4,0,0.6c0,1.3,0.7,2.9,2.3,2.9c1.5,0,2-1.3,2.3-2.1L349.6,315.2z M347.4,312.9c0.3,0,0.8-0.1,0.8-0.6
			c0-0.7-0.6-1.4-1.4-1.4c-1.9,0-2.1,1.7-2.2,2.3L347.4,312.9z"/>
		<path fill="#D6E7F7" d="M359.4,312.9c-0.2-0.7-0.6-2-2-2c-0.9,0-1.4,0.4-1.4,1.1c0,1.8,4.3,1.1,4.3,3.9c0,1.1-0.9,2.2-2.4,2.2
			c-1.1,0-1.5-0.4-2.3-0.4c-0.2,0-0.4,0.1-0.6,0.2c0-0.2,0.1-0.6,0.1-1c0-0.6,0-1.1-0.1-1.8h0.4c0.2,0.9,0.5,2.4,2.3,2.4
			c0.8,0,1.6-0.5,1.6-1.3c0-1.8-4.2-1.2-4.2-3.8c0-1.1,0.8-2.1,2.3-2.1c0.8,0,1.4,0.4,1.8,0.4c0.2,0,0.4-0.1,0.5-0.2
			c0,0.2,0,0.5,0,0.7c0,0.3,0,1,0.1,1.7H359.4z"/>
		<path fill="#D6E7F7" d="M373.9,317.8c-0.6,0-1.3-0.1-1.9-0.1c-0.7,0-1.4,0.1-2,0.1v-0.4c1.4-0.2,1.4-0.4,1.4-2.1v-2.6
			c0-0.7,0-1.5-0.8-1.5c-1.5,0-2.4,1-2.4,1.9v2.2c0,1.7,0,2,1.2,2.1v0.4c-0.6,0-1.2-0.1-1.7-0.1c-0.7,0-1.3,0.1-1.9,0.1v-0.4
			c1.2-0.2,1.2-0.4,1.2-2.1v-2.6c0-0.7,0-1.5-0.8-1.5c-1.5,0-2.4,1-2.4,1.9v2.2c0,1.7,0,2,1.4,2.1v0.4c-0.6,0-1.4-0.1-1.9-0.1
			c-0.7,0-1.4,0.1-2,0.1v-0.4c1.4-0.2,1.4-0.4,1.4-2.1v-2.2c0-1.5-0.3-1.6-1.7-1.6v-0.4c1.3-0.1,2.3-0.4,3-1.1c0,0.5-0.1,1-0.1,1.6
			c0.7-0.7,2-1.4,3.1-1.4c0.9,0,1.1,0.7,1.2,1.4c0.7-0.7,2-1.4,3.1-1.4c1,0,1.1,0.9,1.1,1.8v3.1c0,1.7,0,2,1.4,2.1V317.8z"/>
		<path fill="#D6E7F7" d="M381.7,317.8c-0.2,0-0.5,0-0.7,0c-0.2,0-0.5,0-0.7,0c-0.4,0-0.8,0-1.2,0.3c0.1-0.5,0.1-1.1,0.1-1.5
			c-0.7,0.6-1.5,1.5-2.8,1.5c-0.8,0-1.6-0.7-1.6-1.8c0-1.5,1.4-1.9,2.2-2.1l1.8-0.5c0.5-0.1,0.5-0.5,0.5-1.3c0-0.9-0.3-1.3-1.1-1.3
			c-0.9,0-1.8,0.3-1.8,0.8c0,0.2,0.1,0.4,0.3,0.4c0.1,0,0.2,0,0.2,0c0,0.4-0.3,1-0.9,1c-0.4,0-0.8-0.4-0.8-0.8
			c0-1.5,2.4-2.1,3.6-2.1c1.3,0,1.6,0.9,1.6,1.8v4.2c0,1.1,0.7,1,1.3,1.1V317.8z M378,314.3c-1.1,0.3-2,0.6-2,1.7
			c0,0.7,0.5,1.2,1,1.2c0.8,0,2.2-0.8,2.2-1.7V314L378,314.3z"/>
		<path fill="#D6E7F7" d="M386.1,317.8c-0.6,0-1.4-0.1-1.9-0.1c-0.7,0-1.4,0.1-2,0.1v-0.4c1.4-0.2,1.4-0.4,1.4-2.1v-5.9
			c0-1.9,0-2.2-1.8-2.2v-0.4c1.2,0,2.2-0.2,3.1-0.8c0,0.5-0.1,2.3-0.1,3.4v5.9c0,1.7,0,2,1.4,2.1V317.8z"/>
		<path fill="#D6E7F7" d="M390.5,317.8c-0.6,0-1.4-0.1-1.9-0.1c-0.7,0-1.4,0.1-2,0.1v-0.4c1.4-0.2,1.4-0.4,1.4-2.1v-5.9
			c0-1.9,0-2.2-1.8-2.2v-0.4c1.2,0,2.2-0.2,3.1-0.8c0,0.5-0.1,2.3-0.1,3.4v5.9c0,1.7,0,2,1.4,2.1V317.8z"/>
		<path fill="#D6E7F7" d="M402.4,317.8c-0.2,0-0.5,0-0.7,0c-0.2,0-0.5,0-0.7,0c-0.4,0-0.8,0-1.2,0.3c0.1-0.5,0.1-1.1,0.1-1.5
			c-0.7,0.6-1.5,1.5-2.8,1.5c-0.8,0-1.6-0.7-1.6-1.8c0-1.5,1.4-1.9,2.2-2.1l1.8-0.5c0.5-0.1,0.5-0.5,0.5-1.3c0-0.9-0.3-1.3-1.1-1.3
			c-0.9,0-1.8,0.3-1.8,0.8c0,0.2,0.1,0.4,0.3,0.4c0.1,0,0.2,0,0.2,0c0,0.4-0.3,1-0.9,1c-0.4,0-0.8-0.4-0.8-0.8
			c0-1.5,2.4-2.1,3.6-2.1c1.3,0,1.6,0.9,1.6,1.8v4.2c0,1.1,0.7,1,1.3,1.1V317.8z M398.7,314.3c-1.1,0.3-2,0.6-2,1.7
			c0,0.7,0.5,1.2,1,1.2c0.8,0,2.2-0.8,2.2-1.7V314L398.7,314.3z"/>
		<path fill="#D6E7F7" d="M415.7,317.8c-0.6,0-1.3-0.1-1.9-0.1c-0.7,0-1.4,0.1-2,0.1v-0.4c1.4-0.2,1.4-0.4,1.4-2.1v-2.6
			c0-0.7,0-1.5-0.8-1.5c-1.5,0-2.4,1-2.4,1.9v2.2c0,1.7,0,2,1.2,2.1v0.4c-0.6,0-1.2-0.1-1.7-0.1c-0.7,0-1.3,0.1-1.9,0.1v-0.4
			c1.2-0.2,1.2-0.4,1.2-2.1v-2.6c0-0.7,0-1.5-0.8-1.5c-1.5,0-2.4,1-2.4,1.9v2.2c0,1.7,0,2,1.4,2.1v0.4c-0.6,0-1.4-0.1-1.9-0.1
			c-0.7,0-1.4,0.1-2,0.1v-0.4c1.4-0.2,1.4-0.4,1.4-2.1v-2.2c0-1.5-0.3-1.6-1.7-1.6v-0.4c1.3-0.1,2.3-0.4,3-1.1c0,0.5-0.1,1-0.1,1.6
			c0.7-0.7,2-1.4,3.1-1.4c0.9,0,1.1,0.7,1.2,1.4c0.7-0.7,2-1.4,3.1-1.4c1,0,1.1,0.9,1.1,1.8v3.1c0,1.7,0,2,1.4,2.1V317.8z"/>
		<path fill="#D6E7F7" d="M420,318.1c-2.2,0-3.5-1.7-3.5-3.8s1.4-3.9,3.5-3.9s3.5,1.7,3.5,3.9S422.2,318.1,420,318.1z M422.1,314.2
			c0-1.9-0.6-3.3-2.1-3.3s-2.1,1.4-2.1,3.3s0.6,3.3,2.1,3.3S422.1,316.1,422.1,314.2z"/>
		<path fill="#D6E7F7" d="M433.1,317.8c-0.2,0-0.5,0-0.7,0c-0.2,0-0.5,0-0.7,0c-0.4,0-0.8,0-1.2,0.3c0.1-0.5,0.1-1.1,0.1-1.5
			c-0.8,0.7-1.9,1.5-3.4,1.5c-1.2,0-1.3-0.9-1.3-1.8v-3c0-1.5-0.2-1.6-1.6-1.6v-0.4c1.2-0.1,2.1-0.4,2.8-1.1c0,0.8-0.1,1.5-0.1,3
			v2.5c0,0.7,0,1.5,1.1,1.5c1.2,0,2.5-0.8,2.5-1.6v-2.4c0-1.5-0.2-1.6-1.6-1.6v-0.4c1.2-0.1,2.1-0.4,2.8-1.1c0,0.8-0.1,1.5-0.1,3
			v3.2c0,1.1,0.7,1,1.3,1.1V317.8z"/>
		<path fill="#D6E7F7" d="M442.7,317.8c-0.6,0-1.4-0.1-1.9-0.1c-0.7,0-1.4,0.1-2,0.1v-0.4c1.4-0.2,1.4-0.4,1.4-2.1v-2.6
			c0-0.7,0-1.5-1.1-1.5c-1.5,0-2.5,1.1-2.5,2v2.1c0,1.7,0,2,1.4,2.1v0.4c-0.6,0-1.4-0.1-1.9-0.1c-0.7,0-1.4,0.1-2,0.1v-0.4
			c1.4-0.2,1.4-0.4,1.4-2.1v-2.2c0-1.5-0.3-1.6-1.7-1.6v-0.4c1.3-0.1,2.3-0.4,3-1.1c0,0.5-0.1,0.8-0.1,1.7c0.8-0.7,1.9-1.5,3.4-1.5
			c1.2,0,1.3,0.9,1.3,1.8v3.1c0,1.7,0,2,1.4,2.1V317.8z"/>
		<path fill="#D6E7F7" d="M448.3,317c-0.7,0.5-1.6,1-2.6,1c-0.9,0-1.1-1-1.1-2.1v-4.7h-1.3v-0.4c1.4-0.2,1.6-1,2.1-2.6h0.5
			c0,0.6-0.1,1.8-0.1,2.4l2.2-0.2v0.8h-2.2v3.9c0,1.8,0.2,2,0.8,2c0.6,0,1-0.3,1.5-0.5L448.3,317z"/>
		<path fill="#D6E7F7" d="M453.3,312.9c-0.2-0.7-0.6-2-2-2c-0.9,0-1.4,0.4-1.4,1.1c0,1.8,4.3,1.1,4.3,3.9c0,1.1-0.9,2.2-2.4,2.2
			c-1.1,0-1.5-0.4-2.3-0.4c-0.2,0-0.4,0.1-0.6,0.2c0-0.2,0.1-0.6,0.1-1c0-0.6,0-1.1-0.1-1.8h0.4c0.2,0.9,0.5,2.4,2.3,2.4
			c0.8,0,1.6-0.5,1.6-1.3c0-1.8-4.2-1.2-4.2-3.8c0-1.1,0.8-2.1,2.3-2.1c0.8,0,1.4,0.4,1.8,0.4c0.2,0,0.4-0.1,0.5-0.2
			c0,0.2,0,0.5,0,0.7c0,0.3,0,1,0.1,1.7H453.3z"/>
		<path fill="#D6E7F7" d="M463,318.1c-2.2,0-3.5-1.7-3.5-3.8s1.4-3.9,3.5-3.9s3.5,1.7,3.5,3.9S465.2,318.1,463,318.1z M465.1,314.2
			c0-1.9-0.6-3.3-2.1-3.3s-2.1,1.4-2.1,3.3s0.6,3.3,2.1,3.3S465.1,316.1,465.1,314.2z"/>
		<path fill="#D6E7F7" d="M471.9,317.8c-0.7,0-1.7-0.1-2.3-0.1c-0.7,0-1.4,0.1-2,0.1v-0.4c1.4-0.2,1.4-0.4,1.4-2.1v-4h-1.4V311
			c1.1-0.2,1.4-0.5,1.4-1.3c0-1.3,0.4-3.3,3-3.3c0.8,0,1.7,0.5,1.7,1.2c0,0.7-0.3,0.9-0.8,0.9c-0.5,0-0.6-0.2-0.8-0.7
			c0.2,0,0.4-0.2,0.4-0.4c0-0.3-0.4-0.6-0.8-0.6c-1.2,0-1.5,1-1.5,2.2v1.6l2.1-0.1v0.8h-2.1v4c0,1.7,0,2,1.8,2.1V317.8z"/>
		<path fill="#D6E7F7" d="M483.5,315.2c-0.3,1.1-1,2.8-3.2,2.8c-1.9,0-3.1-1.5-3.1-3.7c0-2.5,1.6-4,3.5-4c1,0,2.2,0.5,2.2,1.5
			c0,0.6-0.4,1-0.9,1c-0.4,0-0.8-0.2-0.8-0.8c0.4,0,0.5-0.2,0.5-0.4c0-0.5-0.5-0.7-1.1-0.7c-1.3,0-2.2,1.1-2.2,3
			c0,1.6,0.7,3.3,2.2,3.3c1.6,0,2.1-1.2,2.4-2.1L483.5,315.2z"/>
		<path fill="#D6E7F7" d="M487.9,318.1c-2.2,0-3.5-1.7-3.5-3.8s1.4-3.9,3.5-3.9s3.5,1.7,3.5,3.9S490,318.1,487.9,318.1z M490,314.2
			c0-1.9-0.6-3.3-2.1-3.3s-2.1,1.4-2.1,3.3s0.6,3.3,2.1,3.3S490,316.1,490,314.2z"/>
		<path fill="#D6E7F7" d="M496.8,317.8c-0.7,0-1.7-0.1-2.3-0.1c-0.7,0-1.4,0.1-2,0.1v-0.4c1.4-0.2,1.4-0.4,1.4-2.1v-4h-1.4V311
			c1.1-0.2,1.4-0.5,1.4-1.3c0-1.3,0.4-3.3,3-3.3c0.8,0,1.7,0.5,1.7,1.2c0,0.7-0.3,0.9-0.8,0.9c-0.5,0-0.6-0.2-0.8-0.7
			c0.2,0,0.4-0.2,0.4-0.4c0-0.3-0.4-0.6-0.8-0.6c-1.2,0-1.5,1-1.5,2.2v1.6l2.1-0.1v0.8H495v4c0,1.7,0,2,1.8,2.1V317.8z"/>
		<path fill="#D6E7F7" d="M502.1,317.8c-0.7,0-1.7-0.1-2.3-0.1c-0.7,0-1.4,0.1-2,0.1v-0.4c1.4-0.2,1.4-0.4,1.4-2.1v-4h-1.4V311
			c1.1-0.2,1.4-0.5,1.4-1.3c0-1.3,0.4-3.3,3-3.3c0.8,0,1.7,0.5,1.7,1.2c0,0.7-0.3,0.9-0.8,0.9c-0.5,0-0.6-0.2-0.8-0.7
			c0.2,0,0.4-0.2,0.4-0.4c0-0.3-0.4-0.6-0.8-0.6c-1.2,0-1.5,1-1.5,2.2v1.6l2.1-0.1v0.8h-2.1v4c0,1.7,0,2,1.8,2.1V317.8z"/>
		<path fill="#D6E7F7" d="M509.5,315.2c-0.3,1-1,2.8-3.2,2.8c-1.7,0-3-1-3-3.7c0-2.4,1.4-4,3.4-4c2.3,0,2.7,2,2.7,3l-4.8,0.4
			c0,0.1,0,0.4,0,0.6c0,1.3,0.7,2.9,2.3,2.9c1.5,0,2-1.3,2.3-2.1L509.5,315.2z M507.4,312.9c0.3,0,0.8-0.1,0.8-0.6
			c0-0.7-0.6-1.4-1.4-1.4c-1.9,0-2.1,1.7-2.2,2.3L507.4,312.9z"/>
		<path fill="#D6E7F7" d="M516.9,315.2c-0.3,1-1,2.8-3.2,2.8c-1.7,0-3-1-3-3.7c0-2.4,1.4-4,3.4-4c2.3,0,2.7,2,2.7,3l-4.8,0.4
			c0,0.1,0,0.4,0,0.6c0,1.3,0.7,2.9,2.3,2.9c1.5,0,2-1.3,2.3-2.1L516.9,315.2z M514.8,312.9c0.3,0,0.8-0.1,0.8-0.6
			c0-0.7-0.6-1.4-1.4-1.4c-1.9,0-2.1,1.7-2.2,2.3L514.8,312.9z"/>
		<path fill="#D6E7F7" d="M531.1,316.1c-0.4,0.8-0.6,1.3-0.6,1.9l-0.7-0.1c0-0.5-0.2-1.2-0.4-1.7l-1.4-3.3l-1.6,3.5
			c-0.3,0.7-0.4,1.1-0.5,1.6l-0.7-0.1c0-0.3-0.2-1.2-0.5-1.9l-1.6-4.1c-0.4-1-0.9-1-1.4-1v-0.4c0.3,0,1.3,0.1,1.8,0.1
			c0.7,0,1.6-0.1,2-0.1v0.4c-0.6,0-1.2,0.1-1.2,0.6c0,0.4,0.2,0.7,0.3,1.1l1.5,3.6l1.8-3.9c-0.4-0.9-0.3-1.1-1.6-1.4v-0.4
			c0.3,0,1.2,0.1,1.7,0.1c0.7,0,1.7-0.1,2.1-0.1v0.4c-0.5,0-1.2,0-1.2,0.5c0,0.4,0.2,0.8,0.4,1.2l1.4,3.6l1.4-3.3
			c0.2-0.4,0.4-0.9,0.4-1.4c0-0.6-0.8-0.6-1.4-0.6v-0.4c0.3,0,1.3,0.1,1.9,0.1c0.4,0,1.2-0.1,1.5-0.1v0.4c-0.5,0-1,0.3-1.6,1.5
			L531.1,316.1z"/>
		<path fill="#D6E7F7" d="M538.9,317.8c-0.6,0-1.4-0.1-1.9-0.1c-0.7,0-1.4,0.1-2,0.1v-0.4c1.4-0.2,1.4-0.4,1.4-2.1v-2.2
			c0-1.5-0.3-1.6-1.7-1.6v-0.4c1.3-0.1,2.3-0.4,3-1.1c0,0.8-0.1,1.5-0.1,3v2.2c0,1.7,0,2,1.4,2.1V317.8z M536.6,308.4
			c-0.5,0-0.9-0.4-0.9-0.9c0-0.5,0.4-0.9,0.9-0.9c0.5,0,0.9,0.4,0.9,0.9C537.6,308,537.1,308.4,536.6,308.4z"/>
		<path fill="#D6E7F7" d="M543.4,317.8c-0.6,0-1.4-0.1-1.9-0.1c-0.7,0-1.4,0.1-2,0.1v-0.4c1.4-0.2,1.4-0.4,1.4-2.1v-5.9
			c0-1.9,0-2.2-1.8-2.2v-0.4c1.2,0,2.2-0.2,3.1-0.8c0,0.5-0.1,2.3-0.1,3.4v5.9c0,1.7,0,2,1.4,2.1V317.8z"/>
		<path fill="#D6E7F7" d="M547.8,317.8c-0.6,0-1.4-0.1-1.9-0.1c-0.7,0-1.4,0.1-2,0.1v-0.4c1.4-0.2,1.4-0.4,1.4-2.1v-5.9
			c0-1.9,0-2.2-1.8-2.2v-0.4c1.2,0,2.2-0.2,3.1-0.8c0,0.5-0.1,2.3-0.1,3.4v5.9c0,1.7,0,2,1.4,2.1V317.8z"/>
		<path fill="#D6E7F7" d="M229,337c-0.7,0-1.6-0.1-2.1-0.1c-0.7,0-1.4,0.1-2,0.1v-0.4c1.4-0.2,1.4-0.4,1.4-2.1v-2.2
			c0-1.5-0.3-1.6-1.7-1.6v-0.4c1.3-0.1,2.3-0.4,3-1.1c0,0.4-0.1,0.9-0.1,1.7c0.8-0.8,1.4-1.5,2.3-1.5c0.4,0,0.9,0.3,0.9,0.8
			c0,0.6-0.4,0.9-0.9,0.9c-0.1,0-0.3,0-0.3-0.1c0-0.1,0.1-0.1,0.1-0.3c0-0.3-0.2-0.4-0.5-0.4c-0.4,0-1.6,0.6-1.6,1.9v2.2
			c0,1.7,0,2,1.6,2.1V337z"/>
		<path fill="#D6E7F7" d="M237.3,334.4c-0.3,1-1,2.8-3.2,2.8c-1.7,0-3-1-3-3.7c0-2.4,1.4-4,3.4-4c2.3,0,2.7,2,2.7,3l-4.8,0.4
			c0,0.1,0,0.4,0,0.6c0,1.3,0.7,2.9,2.3,2.9c1.5,0,2-1.3,2.3-2.1L237.3,334.4z M235.1,332.1c0.3,0,0.8-0.1,0.8-0.6
			c0-0.7-0.6-1.4-1.4-1.4c-1.9,0-2.1,1.7-2.2,2.3L235.1,332.1z"/>
		<path fill="#D6E7F7" d="M246.7,337c-0.2,0-0.5,0-0.7,0c-0.2,0-0.5,0-0.7,0c-0.4,0-0.8,0-1.2,0.3c0.1-0.5,0.1-1.1,0.1-1.5
			c-0.8,0.7-1.9,1.5-3.4,1.5c-1.2,0-1.3-0.9-1.3-1.8v-3c0-1.5-0.2-1.6-1.6-1.6v-0.4c1.2-0.1,2.1-0.4,2.8-1.1c0,0.8-0.1,1.5-0.1,3
			v2.5c0,0.7,0,1.5,1.1,1.5c1.2,0,2.5-0.8,2.5-1.6v-2.4c0-1.5-0.2-1.6-1.6-1.6v-0.4c1.2-0.1,2.1-0.4,2.8-1.1c0,0.8-0.1,1.5-0.1,3
			v3.2c0,1.1,0.7,1,1.3,1.1V337z"/>
		<path fill="#D6E7F7" d="M251.3,337c-0.6,0-1.4-0.1-1.9-0.1c-0.7,0-1.4,0.1-2,0.1v-0.4c1.4-0.2,1.4-0.4,1.4-2.1v-5.9
			c0-1.9,0-2.2-1.8-2.2v-0.4c1.2,0,2.2-0.2,3.1-0.8c0,0.5-0.1,2.3-0.1,3.4v5.9c0,1.7,0,2,1.4,2.1V337z"/>
		<path fill="#D6E7F7" d="M256.9,336.2c-0.7,0.5-1.6,1-2.6,1c-0.9,0-1.1-1-1.1-2.1v-4.7h-1.3v-0.4c1.4-0.2,1.6-1,2.1-2.6h0.5
			c0,0.6-0.1,1.8-0.1,2.4l2.2-0.2v0.8h-2.2v3.9c0,1.8,0.2,2,0.8,2c0.6,0,1-0.3,1.5-0.5L256.9,336.2z"/>
		<path fill="#D6E7F7" d="M265.4,337c-0.6,0-1.4-0.1-1.9-0.1c-0.7,0-1.4,0.1-2,0.1v-0.4c1.4-0.2,1.4-0.4,1.4-2.1v-2.2
			c0-1.5-0.3-1.6-1.7-1.6v-0.4c1.3-0.1,2.3-0.4,3-1.1c0,0.8-0.1,1.5-0.1,3v2.2c0,1.7,0,2,1.4,2.1V337z M263.2,327.6
			c-0.5,0-0.9-0.4-0.9-0.9c0-0.5,0.4-0.9,0.9-0.9c0.5,0,0.9,0.4,0.9,0.9C264.1,327.2,263.7,327.6,263.2,327.6z"/>
		<path fill="#D6E7F7" d="M275,337c-0.6,0-1.4-0.1-1.9-0.1c-0.7,0-1.4,0.1-2,0.1v-0.4c1.4-0.2,1.4-0.4,1.4-2.1v-2.6
			c0-0.7,0-1.5-1.1-1.5c-1.5,0-2.5,1.1-2.5,2v2.1c0,1.7,0,2,1.4,2.1v0.4c-0.6,0-1.4-0.1-1.9-0.1c-0.7,0-1.4,0.1-2,0.1v-0.4
			c1.4-0.2,1.4-0.4,1.4-2.1v-2.2c0-1.5-0.3-1.6-1.7-1.6v-0.4c1.3-0.1,2.3-0.4,3-1.1c0,0.5-0.1,0.8-0.1,1.7c0.8-0.7,1.9-1.5,3.4-1.5
			c1.2,0,1.3,0.9,1.3,1.8v3.1c0,1.7,0,2,1.4,2.1V337z"/>
		<path fill="#D6E7F7" d="M286.8,337c-0.2,0-0.5,0-0.7,0c-0.2,0-0.5,0-0.7,0c-0.4,0-0.8,0-1.2,0.3c0.1-0.5,0.1-1.1,0.1-1.5
			c-0.7,0.6-1.5,1.5-2.8,1.5c-0.8,0-1.6-0.7-1.6-1.8c0-1.5,1.4-1.9,2.2-2.1l1.8-0.5c0.5-0.1,0.5-0.5,0.5-1.3c0-0.9-0.3-1.3-1.1-1.3
			c-0.9,0-1.8,0.3-1.8,0.8c0,0.2,0.1,0.4,0.3,0.4c0.1,0,0.2,0,0.2,0c0,0.4-0.3,1-0.9,1c-0.4,0-0.8-0.4-0.8-0.8
			c0-1.5,2.4-2.1,3.6-2.1c1.3,0,1.6,0.9,1.6,1.8v4.2c0,1.1,0.7,1,1.3,1.1V337z M283.1,333.5c-1.1,0.3-2,0.6-2,1.7
			c0,0.7,0.5,1.2,1,1.2c0.8,0,2.2-0.8,2.2-1.7v-1.5L283.1,333.5z"/>
		<path fill="#D6E7F7" d="M296.5,336.2c-0.7,0.5-1.6,1-2.6,1c-0.9,0-1.1-1-1.1-2.1v-4.7h-1.3v-0.4c1.4-0.2,1.6-1,2.1-2.6h0.5
			c0,0.6-0.1,1.8-0.1,2.4l2.2-0.2v0.8H294v3.9c0,1.8,0.2,2,0.8,2c0.6,0,1-0.3,1.5-0.5L296.5,336.2z"/>
		<path fill="#D6E7F7" d="M300.6,337.3c-2.2,0-3.5-1.7-3.5-3.8s1.4-3.9,3.5-3.9s3.5,1.7,3.5,3.9S302.8,337.3,300.6,337.3z
			 M302.7,333.4c0-1.9-0.6-3.3-2.1-3.3s-2.1,1.4-2.1,3.3s0.6,3.3,2.1,3.3S302.7,335.3,302.7,333.4z"/>
		<path fill="#D6E7F7" d="M309,337c-0.6,0-1.4-0.1-1.9-0.1c-0.7,0-1.4,0.1-2,0.1v-0.4c1.4-0.2,1.4-0.4,1.4-2.1v-5.9
			c0-1.9,0-2.2-1.8-2.2v-0.4c1.2,0,2.2-0.2,3.1-0.8c0,0.5-0.1,2.3-0.1,3.4v5.9c0,1.7,0,2,1.4,2.1V337z"/>
		<path fill="#D6E7F7" d="M316.1,334.4c-0.3,1-1,2.8-3.2,2.8c-1.7,0-3-1-3-3.7c0-2.4,1.4-4,3.4-4c2.3,0,2.7,2,2.7,3l-4.8,0.4
			c0,0.1,0,0.4,0,0.6c0,1.3,0.7,2.9,2.3,2.9c1.5,0,2-1.3,2.3-2.1L316.1,334.4z M313.9,332.1c0.3,0,0.8-0.1,0.8-0.6
			c0-0.7-0.6-1.4-1.4-1.4c-1.9,0-2.1,1.7-2.2,2.3L313.9,332.1z"/>
		<path fill="#D6E7F7" d="M321.4,337c-0.7,0-1.6-0.1-2.1-0.1c-0.7,0-1.4,0.1-2,0.1v-0.4c1.4-0.2,1.4-0.4,1.4-2.1v-2.2
			c0-1.5-0.3-1.6-1.7-1.6v-0.4c1.3-0.1,2.3-0.4,3-1.1c0,0.4-0.1,0.9-0.1,1.7c0.8-0.8,1.4-1.5,2.3-1.5c0.4,0,0.9,0.3,0.9,0.8
			c0,0.6-0.4,0.9-0.9,0.9c-0.1,0-0.3,0-0.3-0.1c0-0.1,0.1-0.1,0.1-0.3c0-0.3-0.2-0.4-0.5-0.4c-0.4,0-1.6,0.6-1.6,1.9v2.2
			c0,1.7,0,2,1.6,2.1V337z"/>
		<path fill="#D6E7F7" d="M330.4,337c-0.2,0-0.5,0-0.7,0c-0.2,0-0.5,0-0.7,0c-0.4,0-0.8,0-1.2,0.3c0.1-0.5,0.1-1.1,0.1-1.5
			c-0.7,0.6-1.5,1.5-2.8,1.5c-0.8,0-1.6-0.7-1.6-1.8c0-1.5,1.4-1.9,2.2-2.1l1.8-0.5c0.5-0.1,0.5-0.5,0.5-1.3c0-0.9-0.3-1.3-1.1-1.3
			c-0.9,0-1.8,0.3-1.8,0.8c0,0.2,0.1,0.4,0.3,0.4c0.1,0,0.2,0,0.2,0c0,0.4-0.3,1-0.9,1c-0.4,0-0.8-0.4-0.8-0.8
			c0-1.5,2.4-2.1,3.6-2.1c1.3,0,1.6,0.9,1.6,1.8v4.2c0,1.1,0.7,1,1.3,1.1V337z M326.7,333.5c-1.1,0.3-2,0.6-2,1.7
			c0,0.7,0.5,1.2,1,1.2c0.8,0,2.2-0.8,2.2-1.7v-1.5L326.7,333.5z"/>
		<path fill="#D6E7F7" d="M339.9,337c-0.6,0-1.4-0.1-1.9-0.1c-0.7,0-1.4,0.1-2,0.1v-0.4c1.4-0.2,1.4-0.4,1.4-2.1v-2.6
			c0-0.7,0-1.5-1.1-1.5c-1.5,0-2.5,1.1-2.5,2v2.1c0,1.7,0,2,1.4,2.1v0.4c-0.6,0-1.4-0.1-1.9-0.1c-0.7,0-1.4,0.1-2,0.1v-0.4
			c1.4-0.2,1.4-0.4,1.4-2.1v-2.2c0-1.5-0.3-1.6-1.7-1.6v-0.4c1.3-0.1,2.3-0.4,3-1.1c0,0.5-0.1,0.8-0.1,1.7c0.8-0.7,1.9-1.5,3.4-1.5
			c1.2,0,1.3,0.9,1.3,1.8v3.1c0,1.7,0,2,1.4,2.1V337z"/>
		<path fill="#D6E7F7" d="M346.9,334.4c-0.3,1.1-1,2.8-3.2,2.8c-1.9,0-3.1-1.5-3.1-3.7c0-2.5,1.6-4,3.5-4c1,0,2.2,0.5,2.2,1.5
			c0,0.6-0.4,1-0.9,1c-0.4,0-0.8-0.2-0.8-0.8c0.4,0,0.5-0.2,0.5-0.4c0-0.5-0.5-0.7-1.1-0.7c-1.3,0-2.2,1.1-2.2,3
			c0,1.6,0.7,3.3,2.2,3.3c1.6,0,2.1-1.2,2.4-2.1L346.9,334.4z"/>
		<path fill="#D6E7F7" d="M354,334.4c-0.3,1-1,2.8-3.2,2.8c-1.7,0-3-1-3-3.7c0-2.4,1.4-4,3.4-4c2.3,0,2.7,2,2.7,3l-4.8,0.4
			c0,0.1,0,0.4,0,0.6c0,1.3,0.7,2.9,2.3,2.9c1.5,0,2-1.3,2.3-2.1L354,334.4z M351.8,332.1c0.3,0,0.8-0.1,0.8-0.6
			c0-0.7-0.6-1.4-1.4-1.4c-1.9,0-2.1,1.7-2.2,2.3L351.8,332.1z"/>
		<path fill="#D6E7F7" d="M366.2,337c-0.2,0-0.5,0-0.7,0c-0.2,0-0.5,0-0.7,0c-0.4,0-0.8,0-1.2,0.3c0.1-0.5,0.1-1.1,0.1-1.5
			c-0.7,0.6-1.5,1.5-2.8,1.5c-0.8,0-1.6-0.7-1.6-1.8c0-1.5,1.4-1.9,2.2-2.1l1.8-0.5c0.5-0.1,0.5-0.5,0.5-1.3c0-0.9-0.3-1.3-1.1-1.3
			c-0.9,0-1.8,0.3-1.8,0.8c0,0.2,0.1,0.4,0.3,0.4c0.1,0,0.2,0,0.2,0c0,0.4-0.3,1-0.9,1c-0.4,0-0.8-0.4-0.8-0.8
			c0-1.5,2.4-2.1,3.6-2.1c1.3,0,1.6,0.9,1.6,1.8v4.2c0,1.1,0.7,1,1.3,1.1V337z M362.5,333.5c-1.1,0.3-2,0.6-2,1.7
			c0,0.7,0.5,1.2,1,1.2c0.8,0,2.2-0.8,2.2-1.7v-1.5L362.5,333.5z"/>
		<path fill="#D6E7F7" d="M375.7,337c-0.6,0-1.4-0.1-1.9-0.1c-0.7,0-1.4,0.1-2,0.1v-0.4c1.4-0.2,1.4-0.4,1.4-2.1v-2.6
			c0-0.7,0-1.5-1.1-1.5c-1.5,0-2.5,1.1-2.5,2v2.1c0,1.7,0,2,1.4,2.1v0.4c-0.6,0-1.4-0.1-1.9-0.1c-0.7,0-1.4,0.1-2,0.1v-0.4
			c1.4-0.2,1.4-0.4,1.4-2.1v-2.2c0-1.5-0.3-1.6-1.7-1.6v-0.4c1.3-0.1,2.3-0.4,3-1.1c0,0.5-0.1,0.8-0.1,1.7c0.8-0.7,1.9-1.5,3.4-1.5
			c1.2,0,1.3,0.9,1.3,1.8v3.1c0,1.7,0,2,1.4,2.1V337z"/>
		<path fill="#D6E7F7" d="M384.3,337c-0.2,0-0.5,0-0.7,0c-0.2,0-0.5,0-0.7,0c-0.4,0-0.9,0.1-1.3,0.3c0-0.4,0.1-1,0.1-1.6
			c-0.9,0.8-1.6,1.6-2.9,1.6c-1.4,0-2.3-1.4-2.3-3.2c0-2.8,1.3-4.5,3.3-4.5c1,0,1.4,0.3,1.9,0.6v-1.5c0-1.9,0-2.2-1.8-2.2v-0.4
			c1.2,0,2.2-0.2,3.1-0.8c0,0.5-0.1,2.3-0.1,3.4v5.9c0,1.7,0,2,1.4,2.1V337z M381.7,332.4c0-1.3-0.3-2.4-1.7-2.4
			c-1.7,0-2.2,1.6-2.2,3.6c0,1.6,0.5,2.7,1.7,2.7c1.4,0,2.1-1.4,2.1-2.1V332.4z"/>
		<path fill="#D6E7F7" d="M392.3,339c-0.1,0.2-0.8,1.5-2.3,1.5c-0.7,0-1.3-0.5-1.3-1c0-0.6,0.4-0.9,0.8-0.9c0.4,0,0.5,0.1,0.7,0.3
			c-0.2,0.1-0.3,0.2-0.3,0.5c0,0.3,0.3,0.4,0.6,0.4c0.9,0,2-1.8,2-2.5c0-0.5-0.2-1-0.4-1.5l-1.7-4.3c-0.4-1-0.5-1.4-1.6-1.4v-0.4
			c0.3,0,1.5,0.1,1.9,0.1c0.5,0,1.6-0.1,2-0.1v0.4c-0.5,0-1.2,0-1.2,0.5c0,0.3,0.1,0.4,0.2,0.8l1.6,4.3l1.5-3.9
			c0.1-0.2,0.2-0.7,0.2-1c0-0.7-0.8-0.7-1.4-0.7v-0.4c0.3,0,1.3,0.1,2,0.1c0.4,0,1.3-0.1,1.5-0.1v0.4c-0.8,0.1-0.9,0-1.5,1.4
			l-2.5,5.9L392.3,339z"/>
		<path fill="#D6E7F7" d="M400.8,337.3c-2.2,0-3.5-1.7-3.5-3.8s1.4-3.9,3.5-3.9s3.5,1.7,3.5,3.9S402.9,337.3,400.8,337.3z
			 M402.9,333.4c0-1.9-0.6-3.3-2.1-3.3s-2.1,1.4-2.1,3.3s0.6,3.3,2.1,3.3S402.9,335.3,402.9,333.4z"/>
		<path fill="#D6E7F7" d="M413.8,337c-0.2,0-0.5,0-0.7,0c-0.2,0-0.5,0-0.7,0c-0.4,0-0.8,0-1.2,0.3c0.1-0.5,0.1-1.1,0.1-1.5
			c-0.8,0.7-1.9,1.5-3.4,1.5c-1.2,0-1.3-0.9-1.3-1.8v-3c0-1.5-0.2-1.6-1.6-1.6v-0.4c1.2-0.1,2.1-0.4,2.8-1.1c0,0.8-0.1,1.5-0.1,3
			v2.5c0,0.7,0,1.5,1.1,1.5c1.2,0,2.5-0.8,2.5-1.6v-2.4c0-1.5-0.2-1.6-1.6-1.6v-0.4c1.2-0.1,2.1-0.4,2.8-1.1c0,0.8-0.1,1.5-0.1,3
			v3.2c0,1.1,0.7,1,1.3,1.1V337z"/>
		<path fill="#D6E7F7" d="M418.9,337c-0.7,0-1.6-0.1-2.1-0.1c-0.7,0-1.4,0.1-2,0.1v-0.4c1.4-0.2,1.4-0.4,1.4-2.1v-2.2
			c0-1.5-0.3-1.6-1.7-1.6v-0.4c1.3-0.1,2.3-0.4,3-1.1c0,0.4-0.1,0.9-0.1,1.7c0.8-0.8,1.4-1.5,2.3-1.5c0.4,0,0.9,0.3,0.9,0.8
			c0,0.6-0.4,0.9-0.9,0.9c-0.1,0-0.3,0-0.3-0.1c0-0.1,0.1-0.1,0.1-0.3c0-0.3-0.2-0.4-0.5-0.4c-0.4,0-1.6,0.6-1.6,1.9v2.2
			c0,1.7,0,2,1.6,2.1V337z"/>
		<path fill="#D6E7F7" d="M427.2,331c0.8-0.7,1.7-1.5,2.9-1.5c1.6,0,2.3,1.5,2.3,3.3c0,2.7-1.2,4.4-3.2,4.4c-1.2,0-1.7-0.5-2.3-1
			c-0.3,0.6-0.7,0.9-1.5,1.4l-0.2-0.3c0.5-0.7,0.7-0.7,0.7-2.8v-5.9c0-1.9,0-2.2-1.8-2.2v-0.4c1.2,0,2.2-0.2,3.1-0.8
			c0,0.5-0.1,2.3-0.1,3.4V331z M427.2,334c0,1.1,0.1,2.7,2,2.7c1.2,0,2-1.4,2-3.3c0-1.8-0.5-3-1.8-3c-1.7,0-2.1,1.3-2.1,2.6V334z"/>
		<path fill="#D6E7F7" d="M437.2,337.3c-2.2,0-3.5-1.7-3.5-3.8s1.4-3.9,3.5-3.9s3.5,1.7,3.5,3.9S439.4,337.3,437.2,337.3z
			 M439.3,333.4c0-1.9-0.6-3.3-2.1-3.3s-2.1,1.4-2.1,3.3s0.6,3.3,2.1,3.3S439.3,335.3,439.3,333.4z"/>
		<path fill="#D6E7F7" d="M449.8,337c-0.2,0-0.5,0-0.7,0c-0.2,0-0.5,0-0.7,0c-0.4,0-0.9,0.1-1.3,0.3c0-0.4,0.1-1,0.1-1.6
			c-0.9,0.8-1.6,1.6-2.9,1.6c-1.4,0-2.3-1.4-2.3-3.2c0-2.8,1.3-4.5,3.3-4.5c1,0,1.4,0.3,1.9,0.6v-1.5c0-1.9,0-2.2-1.8-2.2v-0.4
			c1.2,0,2.2-0.2,3.1-0.8c0,0.5-0.1,2.3-0.1,3.4v5.9c0,1.7,0,2,1.4,2.1V337z M447.2,332.4c0-1.3-0.3-2.4-1.7-2.4
			c-1.7,0-2.2,1.6-2.2,3.6c0,1.6,0.5,2.7,1.7,2.7c1.4,0,2.1-1.4,2.1-2.1V332.4z"/>
		<path fill="#D6E7F7" d="M453.6,339c-0.1,0.2-0.8,1.5-2.3,1.5c-0.7,0-1.3-0.5-1.3-1c0-0.6,0.4-0.9,0.8-0.9c0.4,0,0.5,0.1,0.7,0.3
			c-0.2,0.1-0.3,0.2-0.3,0.5c0,0.3,0.3,0.4,0.6,0.4c0.9,0,2-1.8,2-2.5c0-0.5-0.2-1-0.4-1.5l-1.7-4.3c-0.4-1-0.5-1.4-1.6-1.4v-0.4
			c0.3,0,1.5,0.1,1.9,0.1c0.5,0,1.6-0.1,2-0.1v0.4c-0.5,0-1.2,0-1.2,0.5c0,0.3,0.1,0.4,0.2,0.8l1.6,4.3l1.5-3.9
			c0.1-0.2,0.2-0.7,0.2-1c0-0.7-0.8-0.7-1.4-0.7v-0.4c0.3,0,1.3,0.1,2,0.1c0.4,0,1.3-0.1,1.5-0.1v0.4c-0.8,0.1-0.9,0-1.5,1.4
			l-2.5,5.9L453.6,339z"/>
		<path fill="#D6E7F7" d="M471.9,335.3c-0.4,0.8-0.6,1.3-0.6,1.9l-0.7-0.1c0-0.5-0.2-1.2-0.4-1.7l-1.4-3.3l-1.6,3.5
			c-0.3,0.7-0.4,1.1-0.5,1.6l-0.7-0.1c0-0.3-0.2-1.2-0.5-1.9l-1.6-4.1c-0.4-1-0.9-1-1.4-1v-0.4c0.3,0,1.3,0.1,1.8,0.1
			c0.7,0,1.6-0.1,2-0.1v0.4c-0.6,0-1.2,0.1-1.2,0.6c0,0.4,0.2,0.7,0.3,1.1l1.5,3.6l1.8-3.9c-0.4-0.9-0.3-1.1-1.6-1.4v-0.4
			c0.3,0,1.2,0.1,1.7,0.1c0.7,0,1.7-0.1,2.1-0.1v0.4c-0.5,0-1.2,0-1.2,0.5c0,0.4,0.2,0.8,0.4,1.2l1.4,3.6l1.4-3.3
			c0.2-0.4,0.4-0.9,0.4-1.4c0-0.6-0.8-0.6-1.4-0.6v-0.4c0.3,0,1.3,0.1,1.9,0.1c0.4,0,1.2-0.1,1.5-0.1v0.4c-0.5,0-1,0.3-1.6,1.5
			L471.9,335.3z"/>
		<path fill="#D6E7F7" d="M479.7,337c-0.6,0-1.4-0.1-1.9-0.1c-0.7,0-1.4,0.1-2,0.1v-0.4c1.4-0.2,1.4-0.4,1.4-2.1v-2.2
			c0-1.5-0.3-1.6-1.7-1.6v-0.4c1.3-0.1,2.3-0.4,3-1.1c0,0.8-0.1,1.5-0.1,3v2.2c0,1.7,0,2,1.4,2.1V337z M477.4,327.6
			c-0.5,0-0.9-0.4-0.9-0.9c0-0.5,0.4-0.9,0.9-0.9c0.5,0,0.9,0.4,0.9,0.9C478.3,327.2,477.9,327.6,477.4,327.6z"/>
		<path fill="#D6E7F7" d="M484.1,337c-0.6,0-1.4-0.1-1.9-0.1c-0.7,0-1.4,0.1-2,0.1v-0.4c1.4-0.2,1.4-0.4,1.4-2.1v-5.9
			c0-1.9,0-2.2-1.8-2.2v-0.4c1.2,0,2.2-0.2,3.1-0.8c0,0.5-0.1,2.3-0.1,3.4v5.9c0,1.7,0,2,1.4,2.1V337z"/>
		<path fill="#D6E7F7" d="M488.6,337c-0.6,0-1.4-0.1-1.9-0.1c-0.7,0-1.4,0.1-2,0.1v-0.4c1.4-0.2,1.4-0.4,1.4-2.1v-5.9
			c0-1.9,0-2.2-1.8-2.2v-0.4c1.2,0,2.2-0.2,3.1-0.8c0,0.5-0.1,2.3-0.1,3.4v5.9c0,1.7,0,2,1.4,2.1V337z"/>
		<path fill="#D6E7F7" d="M502.2,337c-0.6,0-1.4-0.1-1.9-0.1c-0.7,0-1.4,0.1-2,0.1v-0.4c1.4-0.2,1.4-0.4,1.4-2.1v-2.6
			c0-0.7,0-1.5-1.1-1.5c-1.5,0-2.5,1.1-2.5,2v2.1c0,1.7,0,2,1.4,2.1v0.4c-0.6,0-1.4-0.1-1.9-0.1c-0.7,0-1.4,0.1-2,0.1v-0.4
			c1.4-0.2,1.4-0.4,1.4-2.1v-2.2c0-1.5-0.3-1.6-1.7-1.6v-0.4c1.3-0.1,2.3-0.4,3-1.1c0,0.5-0.1,0.8-0.1,1.7c0.8-0.7,1.9-1.5,3.4-1.5
			c1.2,0,1.3,0.9,1.3,1.8v3.1c0,1.7,0,2,1.4,2.1V337z"/>
		<path fill="#D6E7F7" d="M509.3,334.4c-0.3,1-1,2.8-3.2,2.8c-1.7,0-3-1-3-3.7c0-2.4,1.4-4,3.4-4c2.3,0,2.7,2,2.7,3l-4.8,0.4
			c0,0.1,0,0.4,0,0.6c0,1.3,0.7,2.9,2.3,2.9c1.5,0,2-1.3,2.3-2.1L509.3,334.4z M507.1,332.1c0.3,0,0.8-0.1,0.8-0.6
			c0-0.7-0.6-1.4-1.4-1.4c-1.9,0-2.1,1.7-2.2,2.3L507.1,332.1z"/>
		<path fill="#D6E7F7" d="M516.7,334.4c-0.3,1-1,2.8-3.2,2.8c-1.7,0-3-1-3-3.7c0-2.4,1.4-4,3.4-4c2.3,0,2.7,2,2.7,3l-4.8,0.4
			c0,0.1,0,0.4,0,0.6c0,1.3,0.7,2.9,2.3,2.9c1.5,0,2-1.3,2.3-2.1L516.7,334.4z M514.5,332.1c0.3,0,0.8-0.1,0.8-0.6
			c0-0.7-0.6-1.4-1.4-1.4c-1.9,0-2.1,1.7-2.2,2.3L514.5,332.1z"/>
		<path fill="#D6E7F7" d="M525.6,337c-0.2,0-0.5,0-0.7,0c-0.2,0-0.5,0-0.7,0c-0.4,0-0.9,0.1-1.3,0.3c0-0.4,0.1-1,0.1-1.6
			c-0.9,0.8-1.6,1.6-2.9,1.6c-1.4,0-2.3-1.4-2.3-3.2c0-2.8,1.3-4.5,3.3-4.5c1,0,1.4,0.3,1.9,0.6v-1.5c0-1.9,0-2.2-1.8-2.2v-0.4
			c1.2,0,2.2-0.2,3.1-0.8c0,0.5-0.1,2.3-0.1,3.4v5.9c0,1.7,0,2,1.4,2.1V337z M523.1,332.4c0-1.3-0.3-2.4-1.7-2.4
			c-1.7,0-2.2,1.6-2.2,3.6c0,1.6,0.5,2.7,1.7,2.7c1.4,0,2.1-1.4,2.1-2.1V332.4z"/>
		<path fill="#D6E7F7" d="M543.1,337c-0.6,0-1.3-0.1-1.9-0.1c-0.7,0-1.4,0.1-2,0.1v-0.4c1.4-0.2,1.4-0.4,1.4-2.1v-2.6
			c0-0.7,0-1.5-0.8-1.5c-1.5,0-2.4,1-2.4,1.9v2.2c0,1.7,0,2,1.2,2.1v0.4c-0.6,0-1.2-0.1-1.7-0.1c-0.7,0-1.3,0.1-1.9,0.1v-0.4
			c1.2-0.2,1.2-0.4,1.2-2.1v-2.6c0-0.7,0-1.5-0.8-1.5c-1.5,0-2.4,1-2.4,1.9v2.2c0,1.7,0,2,1.4,2.1v0.4c-0.6,0-1.4-0.1-1.9-0.1
			c-0.7,0-1.4,0.1-2,0.1v-0.4c1.4-0.2,1.4-0.4,1.4-2.1v-2.2c0-1.5-0.3-1.6-1.7-1.6v-0.4c1.3-0.1,2.3-0.4,3-1.1c0,0.5-0.1,1-0.1,1.6
			c0.7-0.7,2-1.4,3.1-1.4c0.9,0,1.1,0.7,1.2,1.4c0.7-0.7,2-1.4,3.1-1.4c1,0,1.1,0.9,1.1,1.8v3.1c0,1.7,0,2,1.4,2.1V337z"/>
		<path fill="#D6E7F7" d="M547.4,337.3c-2.2,0-3.5-1.7-3.5-3.8s1.4-3.9,3.5-3.9s3.5,1.7,3.5,3.9S549.6,337.3,547.4,337.3z
			 M549.5,333.4c0-1.9-0.6-3.3-2.1-3.3s-2.1,1.4-2.1,3.3s0.6,3.3,2.1,3.3S549.5,335.3,549.5,333.4z"/>
		<path fill="#D6E7F7" d="M556.4,337c-0.7,0-1.6-0.1-2.1-0.1c-0.7,0-1.4,0.1-2,0.1v-0.4c1.4-0.2,1.4-0.4,1.4-2.1v-2.2
			c0-1.5-0.3-1.6-1.7-1.6v-0.4c1.3-0.1,2.3-0.4,3-1.1c0,0.4-0.1,0.9-0.1,1.7c0.8-0.8,1.4-1.5,2.3-1.5c0.4,0,0.9,0.3,0.9,0.8
			c0,0.6-0.4,0.9-0.9,0.9c-0.1,0-0.3,0-0.3-0.1c0-0.1,0.1-0.1,0.1-0.3c0-0.3-0.2-0.4-0.5-0.4c-0.4,0-1.6,0.6-1.6,1.9v2.2
			c0,1.7,0,2,1.6,2.1V337z"/>
		<path fill="#D6E7F7" d="M564.7,334.4c-0.3,1-1,2.8-3.2,2.8c-1.7,0-3-1-3-3.7c0-2.4,1.4-4,3.4-4c2.3,0,2.7,2,2.7,3l-4.8,0.4
			c0,0.1,0,0.4,0,0.6c0,1.3,0.7,2.9,2.3,2.9c1.5,0,2-1.3,2.3-2.1L564.7,334.4z M562.5,332.1c0.3,0,0.8-0.1,0.8-0.6
			c0-0.7-0.6-1.4-1.4-1.4c-1.9,0-2.1,1.7-2.2,2.3L562.5,332.1z"/>
		<path fill="#D6E7F7" d="M229.6,355.4c-0.7,0.5-1.6,1-2.6,1c-0.9,0-1.1-1-1.1-2.1v-4.7h-1.3v-0.4c1.4-0.2,1.6-1,2.1-2.6h0.5
			c0,0.6-0.1,1.8-0.1,2.4l2.2-0.2v0.8h-2.2v3.9c0,1.8,0.2,2,0.8,2c0.6,0,1-0.3,1.5-0.5L229.6,355.4z"/>
		<path fill="#D6E7F7" d="M233.7,356.5c-2.2,0-3.5-1.7-3.5-3.8c0-2.1,1.4-3.9,3.5-3.9s3.5,1.7,3.5,3.9
			C237.2,354.8,235.8,356.5,233.7,356.5z M235.8,352.6c0-1.9-0.6-3.3-2.1-3.3s-2.1,1.4-2.1,3.3c0,1.9,0.6,3.3,2.1,3.3
			S235.8,354.5,235.8,352.6z"/>
		<path fill="#D6E7F7" d="M247.6,355.2c0.3,0,1.4,0.4,1.4,1.5c0,1.8-2.1,2.9-4.2,2.9c-1.9,0-2.5-0.9-2.5-1.7c0-1.1,0.9-1.5,1.8-2
			c-0.5-0.2-1.2-0.4-1.2-1c0-0.9,0.6-1,1.4-1.3c-0.6-0.2-1.5-0.7-1.5-2.2c0-1.6,0.9-2.6,2.8-2.6c0.2,0,0.4,0,0.6,0
			c0.3-0.6,1-1.7,2.1-1.7c0.4,0,0.9,0.3,0.9,0.8c0,0.5-0.3,0.7-0.7,0.7c-0.2,0-0.3,0-0.4-0.1c0.1-0.1,0.1-0.2,0.1-0.3
			c0-0.2-0.1-0.3-0.4-0.3c-0.7,0-1,0.7-1.2,1c0.4,0.1,1.6,0.6,1.6,2.3c0,1.7-1.2,2.6-2.6,2.6h-0.6c-0.5,0-1.2,0.3-1.2,0.7
			c0,0.4,0.7,0.4,1.5,0.5L247.6,355.2z M245.4,356.1c-0.2,0-0.5-0.1-0.7-0.1c-0.5,0.4-1.2,0.8-1.2,1.6c0,0.8,0.8,1.2,2.1,1.2
			c1.4,0,2.8-0.7,2.8-1.6c0-0.6-0.8-0.8-1.6-0.9L245.4,356.1z M247,351.1c0-0.9-0.4-2-1.4-2c-1,0-1.5,1-1.5,2.1c0,1.1,0.4,2,1.4,2
			C246.6,353.3,247,352.4,247,351.1z"/>
		<path fill="#D6E7F7" d="M256.2,353.6c-0.3,1-1,2.8-3.2,2.8c-1.7,0-3-1-3-3.7c0-2.4,1.4-4,3.4-4c2.3,0,2.7,2,2.7,3l-4.8,0.4
			c0,0.1,0,0.4,0,0.6c0,1.3,0.7,2.9,2.3,2.9c1.5,0,2-1.3,2.3-2.1L256.2,353.6z M254.1,351.3c0.3,0,0.8-0.1,0.8-0.6
			c0-0.7-0.6-1.4-1.4-1.4c-1.9,0-2.1,1.7-2.2,2.3L254.1,351.3z"/>
		<path fill="#D6E7F7" d="M262.2,355.4c-0.7,0.5-1.6,1-2.6,1c-0.9,0-1.1-1-1.1-2.1v-4.7h-1.3v-0.4c1.4-0.2,1.6-1,2.1-2.6h0.5
			c0,0.6-0.1,1.8-0.1,2.4l2.2-0.2v0.8h-2.2v3.9c0,1.8,0.2,2,0.8,2c0.6,0,1-0.3,1.5-0.5L262.2,355.4z"/>
		<path fill="#D6E7F7" d="M271.7,355.4c-0.7,0.5-1.6,1-2.6,1c-0.9,0-1.1-1-1.1-2.1v-4.7h-1.3v-0.4c1.4-0.2,1.6-1,2.1-2.6h0.5
			c0,0.6-0.1,1.8-0.1,2.4l2.2-0.2v0.8h-2.2v3.9c0,1.8,0.2,2,0.8,2c0.6,0,1-0.3,1.5-0.5L271.7,355.4z"/>
		<path fill="#D6E7F7" d="M280.6,356.2c-0.6,0-1.4-0.1-1.9-0.1c-0.7,0-1.4,0.1-2,0.1v-0.4c1.4-0.2,1.4-0.4,1.4-2.1v-2.6
			c0-0.7,0-1.5-1.1-1.5c-1.5,0-2.5,1.1-2.5,2v2.1c0,1.7,0,2,1.4,2.1v0.4c-0.6,0-1.4-0.1-1.9-0.1c-0.7,0-1.4,0.1-2,0.1v-0.4
			c1.4-0.2,1.4-0.4,1.4-2.1v-5.9c0-1.9,0-2.2-1.8-2.2v-0.4c1.2,0,2.2-0.2,3.1-0.8c0,0.5-0.1,2.3-0.1,3.4v2.5
			c0.8-0.7,1.9-1.5,3.4-1.5c1.2,0,1.3,0.9,1.3,1.8v3.1c0,1.7,0,2,1.4,2.1V356.2z"/>
		<path fill="#D6E7F7" d="M287.6,353.6c-0.3,1-1,2.8-3.2,2.8c-1.7,0-3-1-3-3.7c0-2.4,1.4-4,3.4-4c2.3,0,2.7,2,2.7,3l-4.8,0.4
			c0,0.1,0,0.4,0,0.6c0,1.3,0.7,2.9,2.3,2.9c1.5,0,2-1.3,2.3-2.1L287.6,353.6z M285.5,351.3c0.3,0,0.8-0.1,0.8-0.6
			c0-0.7-0.6-1.4-1.4-1.4c-1.9,0-2.1,1.7-2.2,2.3L285.5,351.3z"/>
		<path fill="#D6E7F7" d="M297.4,351.3c-0.2-0.7-0.6-2-2-2c-0.9,0-1.4,0.4-1.4,1.1c0,1.8,4.3,1.1,4.3,3.9c0,1.1-0.9,2.2-2.4,2.2
			c-1.1,0-1.5-0.4-2.3-0.4c-0.2,0-0.4,0.1-0.6,0.2c0-0.2,0.1-0.6,0.1-1c0-0.6,0-1.1-0.1-1.8h0.4c0.2,0.9,0.5,2.4,2.3,2.4
			c0.8,0,1.6-0.5,1.6-1.3c0-1.8-4.2-1.2-4.2-3.8c0-1.1,0.8-2.1,2.3-2.1c0.8,0,1.4,0.4,1.8,0.4c0.2,0,0.4-0.1,0.5-0.2
			c0,0.2,0,0.5,0,0.7c0,0.3,0,1,0.1,1.7H297.4z"/>
		<path fill="#D6E7F7" d="M306.4,356.2c-0.2,0-0.5,0-0.7,0c-0.2,0-0.5,0-0.7,0c-0.4,0-0.8,0-1.2,0.3c0.1-0.5,0.1-1.1,0.1-1.5
			c-0.7,0.6-1.5,1.5-2.8,1.5c-0.8,0-1.6-0.7-1.6-1.8c0-1.5,1.4-1.9,2.2-2.1l1.8-0.5c0.5-0.1,0.5-0.5,0.5-1.3c0-0.9-0.3-1.3-1.1-1.3
			c-0.9,0-1.8,0.3-1.8,0.8c0,0.2,0.1,0.4,0.3,0.4c0.1,0,0.2,0,0.2,0c0,0.4-0.3,1-0.9,1c-0.4,0-0.8-0.4-0.8-0.8
			c0-1.5,2.4-2.1,3.6-2.1c1.3,0,1.6,0.9,1.6,1.8v4.2c0,1.1,0.7,1,1.3,1.1V356.2z M302.7,352.7c-1.1,0.3-2,0.6-2,1.7
			c0,0.7,0.5,1.2,1,1.2c0.8,0,2.2-0.8,2.2-1.7v-1.5L302.7,352.7z"/>
		<path fill="#D6E7F7" d="M319.6,356.2c-0.6,0-1.3-0.1-1.9-0.1c-0.7,0-1.4,0.1-2,0.1v-0.4c1.4-0.2,1.4-0.4,1.4-2.1v-2.6
			c0-0.7,0-1.5-0.8-1.5c-1.5,0-2.4,1-2.4,1.9v2.2c0,1.7,0,2,1.2,2.1v0.4c-0.6,0-1.2-0.1-1.7-0.1c-0.7,0-1.3,0.1-1.9,0.1v-0.4
			c1.2-0.2,1.2-0.4,1.2-2.1v-2.6c0-0.7,0-1.5-0.8-1.5c-1.5,0-2.4,1-2.4,1.9v2.2c0,1.7,0,2,1.4,2.1v0.4c-0.6,0-1.4-0.1-1.9-0.1
			c-0.7,0-1.4,0.1-2,0.1v-0.4c1.4-0.2,1.4-0.4,1.4-2.1v-2.2c0-1.5-0.3-1.6-1.7-1.6v-0.4c1.3-0.1,2.3-0.4,3-1.1c0,0.5-0.1,1-0.1,1.6
			c0.7-0.7,2-1.4,3.1-1.4c0.9,0,1.1,0.7,1.2,1.4c0.7-0.7,2-1.4,3.1-1.4c1,0,1.1,0.9,1.1,1.8v3.1c0,1.7,0,2,1.4,2.1V356.2z"/>
		<path fill="#D6E7F7" d="M326.7,353.6c-0.3,1-1,2.8-3.2,2.8c-1.7,0-3-1-3-3.7c0-2.4,1.4-4,3.4-4c2.3,0,2.7,2,2.7,3l-4.8,0.4
			c0,0.1,0,0.4,0,0.6c0,1.3,0.7,2.9,2.3,2.9c1.5,0,2-1.3,2.3-2.1L326.7,353.6z M324.5,351.3c0.3,0,0.8-0.1,0.8-0.6
			c0-0.7-0.6-1.4-1.4-1.4c-1.9,0-2.1,1.7-2.2,2.3L324.5,351.3z"/>
		<path fill="#D6E7F7" d="M336.5,351.3c-0.2-0.7-0.6-2-2-2c-0.9,0-1.4,0.4-1.4,1.1c0,1.8,4.3,1.1,4.3,3.9c0,1.1-0.9,2.2-2.4,2.2
			c-1.1,0-1.5-0.4-2.3-0.4c-0.2,0-0.4,0.1-0.6,0.2c0-0.2,0.1-0.6,0.1-1c0-0.6,0-1.1-0.1-1.8h0.4c0.2,0.9,0.5,2.4,2.3,2.4
			c0.8,0,1.6-0.5,1.6-1.3c0-1.8-4.2-1.2-4.2-3.8c0-1.1,0.8-2.1,2.3-2.1c0.8,0,1.4,0.4,1.8,0.4c0.2,0,0.4-0.1,0.5-0.2
			c0,0.2,0,0.5,0,0.7c0,0.3,0,1,0.1,1.7H336.5z"/>
		<path fill="#D6E7F7" d="M343.3,355.4c-0.7,0.5-1.6,1-2.6,1c-0.9,0-1.1-1-1.1-2.1v-4.7h-1.3v-0.4c1.4-0.2,1.6-1,2.1-2.6h0.5
			c0,0.6-0.1,1.8-0.1,2.4l2.2-0.2v0.8h-2.2v3.9c0,1.8,0.2,2,0.8,2c0.6,0,1-0.3,1.5-0.5L343.3,355.4z"/>
		<path fill="#D6E7F7" d="M347.7,356.2c-0.6,0-1.4-0.1-1.9-0.1c-0.7,0-1.4,0.1-2,0.1v-0.4c1.4-0.2,1.4-0.4,1.4-2.1v-2.2
			c0-1.5-0.3-1.6-1.7-1.6v-0.4c1.3-0.1,2.3-0.4,3-1.1c0,0.8-0.1,1.5-0.1,3v2.2c0,1.7,0,2,1.4,2.1V356.2z M345.5,346.8
			c-0.5,0-0.9-0.4-0.9-0.9c0-0.5,0.4-0.9,0.9-0.9c0.5,0,0.9,0.4,0.9,0.9C346.4,346.4,346,346.8,345.5,346.8z"/>
		<path fill="#D6E7F7" d="M361.1,356.2c-0.6,0-1.3-0.1-1.9-0.1c-0.7,0-1.4,0.1-2,0.1v-0.4c1.4-0.2,1.4-0.4,1.4-2.1v-2.6
			c0-0.7,0-1.5-0.8-1.5c-1.5,0-2.4,1-2.4,1.9v2.2c0,1.7,0,2,1.2,2.1v0.4c-0.6,0-1.2-0.1-1.7-0.1c-0.7,0-1.3,0.1-1.9,0.1v-0.4
			c1.2-0.2,1.2-0.4,1.2-2.1v-2.6c0-0.7,0-1.5-0.8-1.5c-1.5,0-2.4,1-2.4,1.9v2.2c0,1.7,0,2,1.4,2.1v0.4c-0.6,0-1.4-0.1-1.9-0.1
			c-0.7,0-1.4,0.1-2,0.1v-0.4c1.4-0.2,1.4-0.4,1.4-2.1v-2.2c0-1.5-0.3-1.6-1.7-1.6v-0.4c1.3-0.1,2.3-0.4,3-1.1c0,0.5-0.1,1-0.1,1.6
			c0.7-0.7,2-1.4,3.1-1.4c0.9,0,1.1,0.7,1.2,1.4c0.7-0.7,2-1.4,3.1-1.4c1,0,1.1,0.9,1.1,1.8v3.1c0,1.7,0,2,1.4,2.1V356.2z"/>
		<path fill="#D6E7F7" d="M370.2,356.2c-0.2,0-0.5,0-0.7,0c-0.2,0-0.5,0-0.7,0c-0.4,0-0.8,0-1.2,0.3c0.1-0.5,0.1-1.1,0.1-1.5
			c-0.8,0.7-1.9,1.5-3.4,1.5c-1.2,0-1.3-0.9-1.3-1.8v-3c0-1.5-0.2-1.6-1.6-1.6v-0.4c1.2-0.1,2.1-0.4,2.8-1.1c0,0.8-0.1,1.5-0.1,3
			v2.5c0,0.7,0,1.5,1.1,1.5c1.2,0,2.5-0.8,2.5-1.6v-2.4c0-1.5-0.2-1.6-1.6-1.6v-0.4c1.2-0.1,2.1-0.4,2.8-1.1c0,0.8-0.1,1.5-0.1,3
			v3.2c0,1.1,0.7,1,1.3,1.1V356.2z"/>
		<path fill="#D6E7F7" d="M374.7,356.2c-0.6,0-1.4-0.1-1.9-0.1c-0.7,0-1.4,0.1-2,0.1v-0.4c1.4-0.2,1.4-0.4,1.4-2.1v-5.9
			c0-1.9,0-2.2-1.8-2.2v-0.4c1.2,0,2.2-0.2,3.1-0.8c0,0.5-0.1,2.3-0.1,3.4v5.9c0,1.7,0,2,1.4,2.1V356.2z"/>
		<path fill="#D6E7F7" d="M382.5,356.2c-0.2,0-0.5,0-0.7,0c-0.2,0-0.5,0-0.7,0c-0.4,0-0.8,0-1.2,0.3c0.1-0.5,0.1-1.1,0.1-1.5
			c-0.7,0.6-1.5,1.5-2.8,1.5c-0.8,0-1.6-0.7-1.6-1.8c0-1.5,1.4-1.9,2.2-2.1l1.8-0.5c0.5-0.1,0.5-0.5,0.5-1.3c0-0.9-0.3-1.3-1.1-1.3
			c-0.9,0-1.8,0.3-1.8,0.8c0,0.2,0.1,0.4,0.3,0.4c0.1,0,0.2,0,0.2,0c0,0.4-0.3,1-0.9,1c-0.4,0-0.8-0.4-0.8-0.8
			c0-1.5,2.4-2.1,3.6-2.1c1.3,0,1.6,0.9,1.6,1.8v4.2c0,1.1,0.7,1,1.3,1.1V356.2z M378.8,352.7c-1.1,0.3-2,0.6-2,1.7
			c0,0.7,0.5,1.2,1,1.2c0.8,0,2.2-0.8,2.2-1.7v-1.5L378.8,352.7z"/>
		<path fill="#D6E7F7" d="M388,355.4c-0.7,0.5-1.6,1-2.6,1c-0.9,0-1.1-1-1.1-2.1v-4.7h-1.3v-0.4c1.4-0.2,1.6-1,2.1-2.6h0.5
			c0,0.6-0.1,1.8-0.1,2.4l2.2-0.2v0.8h-2.2v3.9c0,1.8,0.2,2,0.8,2c0.6,0,1-0.3,1.5-0.5L388,355.4z"/>
		<path fill="#D6E7F7" d="M392.5,356.2c-0.6,0-1.4-0.1-1.9-0.1c-0.7,0-1.4,0.1-2,0.1v-0.4c1.4-0.2,1.4-0.4,1.4-2.1v-2.2
			c0-1.5-0.3-1.6-1.7-1.6v-0.4c1.3-0.1,2.3-0.4,3-1.1c0,0.8-0.1,1.5-0.1,3v2.2c0,1.7,0,2,1.4,2.1V356.2z M390.2,346.8
			c-0.5,0-0.9-0.4-0.9-0.9c0-0.5,0.4-0.9,0.9-0.9c0.5,0,0.9,0.4,0.9,0.9C391.1,346.4,390.7,346.8,390.2,346.8z"/>
		<path fill="#D6E7F7" d="M396.8,356.5c-2.2,0-3.5-1.7-3.5-3.8c0-2.1,1.4-3.9,3.5-3.9s3.5,1.7,3.5,3.9
			C400.4,354.8,399,356.5,396.8,356.5z M398.9,352.6c0-1.9-0.6-3.3-2.1-3.3s-2.1,1.4-2.1,3.3c0,1.9,0.6,3.3,2.1,3.3
			S398.9,354.5,398.9,352.6z"/>
		<path fill="#D6E7F7" d="M410.3,356.2c-0.6,0-1.4-0.1-1.9-0.1c-0.7,0-1.4,0.1-2,0.1v-0.4c1.4-0.2,1.4-0.4,1.4-2.1v-2.6
			c0-0.7,0-1.5-1.1-1.5c-1.5,0-2.5,1.1-2.5,2v2.1c0,1.7,0,2,1.4,2.1v0.4c-0.6,0-1.4-0.1-1.9-0.1c-0.7,0-1.4,0.1-2,0.1v-0.4
			c1.4-0.2,1.4-0.4,1.4-2.1v-2.2c0-1.5-0.3-1.6-1.7-1.6v-0.4c1.3-0.1,2.3-0.4,3-1.1c0,0.5-0.1,0.8-0.1,1.7c0.8-0.7,1.9-1.5,3.4-1.5
			c1.2,0,1.3,0.9,1.3,1.8v3.1c0,1.7,0,2,1.4,2.1V356.2z"/>
		<path fill="#D6E7F7" d="M412.6,356.5c-0.5,0-0.9-0.4-0.9-0.9c0-0.5,0.4-0.9,0.9-0.9c0.5,0,0.9,0.4,0.9,0.9
			C413.5,356,413.1,356.5,412.6,356.5z"/>
	</g>
	<path fill="#FFCA61" d="M248.4,277.2c0,0-2.8,21.3,17.2,21.8v-21.8"/>
	<path fill="#FFCA61" d="M281.9,277.2c0,0,2.8,21.3-17.2,21.8v-21.8"/>
	<path fill="#FFCA61" d="M282.8,279.5c0,0,20.6-2.8-2.6,10.8"/>
	<path fill="#FFCA61" d="M297.8,277.2c0,0-2.8,21.3,17.2,21.8v-21.8"/>
	<path fill="#FFCA61" d="M331.2,277.2c0,0,2.8,21.3-17.2,21.8v-21.8"/>
	<path fill="#FFCA61" d="M332.2,279.5c0,0,20.6-2.8-2.6,10.8"/>
	<path fill="#FFCA61" d="M349.4,277.2c0,0-2.8,21.3,17.2,21.8v-21.8"/>
	<path fill="#FFCA61" d="M382.8,277.2c0,0,2.8,21.3-17.2,21.8v-21.8"/>
	<path fill="#FFCA61" d="M383.7,279.5c0,0,20.6-2.8-2.6,10.8"/>
	<path fill="#FFCA61" d="M399,277.2c0,0-2.8,21.3,17.2,21.8v-21.8"/>
	<path fill="#FFCA61" d="M432.4,277.2c0,0,2.8,21.3-17.2,21.8v-21.8"/>
	<path fill="#FFCA61" d="M433.3,279.5c0,0,20.6-2.8-2.6,10.8"/>
	<path fill="#FFCA61" d="M449.5,277.2c0,0-2.8,21.3,17.2,21.8v-21.8"/>
	<path fill="#FFCA61" d="M482.9,277.2c0,0,2.8,21.3-17.2,21.8v-21.8"/>
	<path fill="#FFCA61" d="M483.8,279.5c0,0,20.6-2.8-2.6,10.8"/>
	<path fill="#FFCA61" d="M500.9,277.2c0,0-2.8,21.3,17.2,21.8v-21.8"/>
	<path fill="#FFCA61" d="M534.4,277.2c0,0,2.8,21.3-17.2,21.8v-21.8"/>
	<path fill="#FFCA61" d="M535.3,279.5c0,0,20.6-2.8-2.6,10.8"/>
	<path fill="#665237" d="M254.3,292.8c0,0,5.6,5,12.1,5.1c0,0,8.2-0.9,11.2-5.1"/>
	<path fill="#665237" d="M301.1,289.7c0,0,4.2,8.2,12.9,7.8c0,0,8.8,0.3,14.2-7.8"/>
	<path fill="#665237" d="M351.1,286.9c0,0,2.6,10.9,14.9,11.1c0,0,10.7,0.9,15.1-11.1"/>
	<path fill="#665237" d="M400.4,284.8c0,0,2.6,13.7,15.8,13.2c0,0,11.7-0.2,14.5-13.2"/>
	<path fill="#665237" d="M450.6,279.3c0,0-0.8,18.4,16.1,18.7c0,0,14.3,0.9,15.4-18.7"/>
	<path fill="#665237" d="M501.4,277.7c0,0-1.9,20.9,16.5,20.8c0,0,14.2,1.6,15.1-20.8"/>
	<polyline fill="none" stroke="#5BB1E3" stroke-miterlimit="10" points="222.6,243 208.5,243 208.5,368.3 214.2,368.3 	"/>
	<polyline fill="none" stroke="#5BB1E3" stroke-miterlimit="10" points="569.5,244.8 583.5,244.8 583.5,352.2 577.8,352.2 	"/>
</g>
<g>
</g>
<g>
</g>
<g>
</g>
<g>
</g>
<g>
</g>
<g>
</g>
</svg>
