<?xml version="1.0" encoding="utf-8"?>
<!-- Generator: Adobe Illustrator 19.2.1, SVG Export Plug-In . SVG Version: 6.00 Build 0)  -->
<!DOCTYPE svg PUBLIC "-//W3C//DTD SVG 1.1//EN" "http://www.w3.org/Graphics/SVG/1.1/DTD/svg11.dtd">
<svg version="1.1" id="Layer_1" xmlns="http://www.w3.org/2000/svg" xmlns:xlink="http://www.w3.org/1999/xlink" x="0px" y="0px"
	 width="792px" height="612px" viewBox="0 0 792 612" enable-background="new 0 0 792 612" xml:space="preserve">
<g>
	<g>
		<path fill="#D6E7F7" d="M41.5,306.7c1.1,0,3.1,0.2,5,0.2c2.4,0,4.8-0.2,6.2-0.2c7,0,11.6,4,11.6,10.7c0,8.3-5.3,11.1-11.6,11.1
			c-1.4,0-3.7-0.2-6.2-0.2c-2,0-3.9,0.2-5,0.2v-0.7c3.3-0.5,3.6-0.8,3.6-4.8v-10.8c0-4-0.3-4.3-3.6-4.8V306.7z M47.9,323.1
			c0,2.9,0,4.4,3.7,4.4c6.6,0,9.4-3.7,9.4-10c0-6.1-2.8-9.6-8.9-9.6c-4.2,0-4.2,0.5-4.2,4.4V323.1z"/>
		<path fill="#D6E7F7" d="M75.7,328.6c-1.4,0-3.2-0.2-4.4-0.2c-1.3,0-2.8,0.2-4.1,0.2v-0.7c2.8-0.4,2.8-0.8,2.8-4.4v-4.4
			c0-3-0.6-3.2-3.5-3.2v-0.7c2.6-0.2,4.6-0.8,6.1-2.2c0,0.9-0.1,1.9-0.2,3.5c1.7-1.6,2.9-3,4.6-3c0.9,0,1.8,0.7,1.8,1.6
			c0,1.2-0.9,1.8-1.8,1.8c-0.1,0-0.7,0-0.7-0.1c0-0.1,0.2-0.3,0.2-0.6c0-0.6-0.5-0.8-0.9-0.8c-0.8,0-3.2,1.3-3.2,3.8v4.4
			c0,3.5,0,4,3.3,4.4V328.6z"/>
		<path fill="#D6E7F7" d="M88.4,328.6c-1.3,0-2.8-0.2-3.9-0.2c-1.3,0-2.8,0.2-4.1,0.2v-0.7c2.8-0.4,2.8-0.8,2.8-4.4v-4.4
			c0-3-0.6-3.2-3.5-3.2v-0.7c2.6-0.2,4.6-0.8,6.1-2.2c-0.1,1.7-0.2,3-0.2,6.2v4.4c0,3.5,0,4,2.8,4.4V328.6z M83.8,309.4
			c-1,0-1.9-0.8-1.9-1.9c0-1,0.8-1.9,1.9-1.9c1,0,1.9,0.8,1.9,1.9C85.7,308.6,84.9,309.4,83.8,309.4z"/>
		<path fill="#D6E7F7" d="M107.8,328.6c-1.3,0-2.8-0.2-3.9-0.2c-1.3,0-2.8,0.2-4.1,0.2v-0.7c2.8-0.4,2.8-0.8,2.8-4.4v-5.4
			c0-1.4,0-3-2.2-3c-3.1,0-5,2.2-5,4.1v4.2c0,3.5,0,4,2.8,4.4v0.7c-1.3,0-2.8-0.2-3.9-0.2c-1.3,0-2.8,0.2-4.1,0.2v-0.7
			c2.8-0.4,2.8-0.8,2.8-4.4v-4.4c0-3-0.6-3.2-3.5-3.2v-0.7c2.6-0.2,4.6-0.8,6.1-2.2c-0.1,1-0.2,1.7-0.2,3.5c1.5-1.5,3.8-3.1,7-3.1
			c2.4,0,2.6,1.9,2.6,3.7v6.4c0,3.5,0,4,2.8,4.4V328.6z"/>
		<path fill="#D6E7F7" d="M125.9,328.6c-0.3,0-0.8,0-1.4-0.1c-0.5,0-1-0.1-1.2-0.1c-0.7,0-1.3,0.1-1.9,0.4c0-0.2,0.1-0.5,0.1-0.7
			c0-0.1-0.1-0.4-1-1.6l-4-5.6l-2.1,2.1c0,4,0,4.5,2.8,4.8v0.7c-1.3,0-2.8-0.2-3.9-0.2c-1.3,0-2.8,0.2-4.1,0.2v-0.7
			c2.8-0.4,2.8-0.8,2.8-4.4v-12c0-3.8,0-4.4-3.7-4.4v-0.7c2.4,0,4.6-0.4,6.3-1.7c0,1.1-0.2,4.7-0.2,6.8v10.2l3.9-3.9
			c1-1,1.5-1.9,1.5-2.3c0-0.8-1-0.9-2.2-0.9v-0.7c0.7,0,2.9,0.2,3.9,0.2c1.2,0,2.7-0.2,3.6-0.2v0.7c-2.3,0.2-2.7,0.6-4.7,2.5
			l-2.3,2.3l4.4,6.1c1.1,1.7,1.8,2.1,3.4,2.4V328.6z"/>
		<path fill="#D6E7F7" d="M135.5,328.6c-1.3,0-2.8-0.2-3.9-0.2c-1.3,0-2.8,0.2-4.1,0.2v-0.7c2.8-0.4,2.8-0.8,2.8-4.4v-4.4
			c0-3-0.6-3.2-3.5-3.2v-0.7c2.6-0.2,4.6-0.8,6.1-2.2c-0.1,1.7-0.2,3-0.2,6.2v4.4c0,3.5,0,4,2.8,4.4V328.6z M130.9,309.4
			c-1,0-1.9-0.8-1.9-1.9c0-1,0.8-1.9,1.9-1.9c1,0,1.9,0.8,1.9,1.9C132.8,308.6,131.9,309.4,130.9,309.4z"/>
		<path fill="#D6E7F7" d="M154.9,328.6c-1.3,0-2.8-0.2-3.9-0.2c-1.3,0-2.8,0.2-4.1,0.2v-0.7c2.8-0.4,2.8-0.8,2.8-4.4v-5.4
			c0-1.4,0-3-2.2-3c-3.1,0-5,2.2-5,4.1v4.2c0,3.5,0,4,2.8,4.4v0.7c-1.3,0-2.8-0.2-3.9-0.2c-1.3,0-2.8,0.2-4.1,0.2v-0.7
			c2.8-0.4,2.8-0.8,2.8-4.4v-4.4c0-3-0.6-3.2-3.5-3.2v-0.7c2.6-0.2,4.6-0.8,6.1-2.2c-0.1,1-0.2,1.7-0.2,3.5c1.5-1.5,3.8-3.1,7-3.1
			c2.4,0,2.6,1.9,2.6,3.7v6.4c0,3.5,0,4,2.8,4.4V328.6z"/>
		<path fill="#D6E7F7" d="M166.8,326.5c0.7,0.1,2.9,0.8,2.9,3c0,3.6-4.2,5.8-8.5,5.8c-3.8,0-5.1-1.8-5.1-3.4c0-2.2,1.9-3.1,3.6-4
			c-0.9-0.3-2.5-0.8-2.5-2c0-1.8,1.3-2,2.9-2.7c-1.2-0.5-3.1-1.5-3.1-4.5c0-3.2,1.9-5.2,5.6-5.2c0.4,0,0.8,0,1.1,0
			c0.6-1.2,2.1-3.5,4.3-3.5c0.9,0,1.8,0.6,1.8,1.6c0,0.9-0.6,1.5-1.4,1.5c-0.4,0-0.6-0.1-0.9-0.1c0.2-0.1,0.3-0.4,0.3-0.6
			c0-0.4-0.2-0.7-0.7-0.7c-1.3,0-2.1,1.4-2.4,2c0.8,0.2,3.4,1.2,3.4,4.7c0,3.5-2.5,5.3-5.2,5.3h-1.2c-1.1,0-2.4,0.6-2.4,1.5
			c0,0.8,1.4,0.9,3,1L166.8,326.5z M162.2,328.2c-0.5,0-1-0.2-1.4-0.3c-1.1,0.7-2.5,1.7-2.5,3.3c0,1.6,1.7,2.4,4.2,2.4
			c2.8,0,5.8-1.4,5.8-3.4c0-1.2-1.6-1.7-3.2-1.8L162.2,328.2z M165.4,318.2c0-1.9-0.8-4-2.9-4s-3,2-3,4.3c0,2.2,0.7,4.1,2.9,4.1
			C164.7,322.6,165.4,320.7,165.4,318.2z"/>
		<path fill="#D6E7F7" d="M192.7,323.3c-0.6,2-2,5.7-6.5,5.7c-3.5,0-6.2-2-6.2-7.5c0-4.9,2.9-8.1,6.9-8.1c4.7,0,5.4,4.1,5.4,6.1
			l-9.9,0.7c0,0.3,0,0.8,0,1.2c0,2.6,1.3,5.9,4.7,5.9c3.1,0,4.1-2.7,4.6-4.3L192.7,323.3z M188.3,318.5c0.6-0.1,1.6-0.3,1.6-1.2
			c0-1.3-1.2-2.9-2.9-2.9c-3.8,0-4.3,3.5-4.4,4.8L188.3,318.5z"/>
		<path fill="#D6E7F7" d="M203.5,324.9c-0.2,0.5-1.3,2.7-1.5,4.1l-1.4-0.3c-0.1-1.3-0.6-2.6-1.4-4.8l-2.3-5.7
			c-1.2-3.1-0.9-3.4-3.6-3.7v-0.7c0.7,0,2.2,0.2,3.8,0.2c1.7,0,3.3-0.2,4-0.2v0.7c-1.3,0-2.5,0.1-2.5,1c0,0.7,0.4,1.3,0.7,2.2l3,7.6
			l2.6-6.3c0.4-1,1.1-2.5,1.1-3.2c-0.1-1.3-1.7-1.3-2.9-1.3v-0.7c0.7,0,2.5,0.2,3.7,0.2c1,0,2.7-0.2,3.2-0.2v0.7
			c-1.6,0.3-1.8,0.6-2.8,2.7L203.5,324.9z"/>
		<path fill="#D6E7F7" d="M223.5,323.3c-0.6,2-2,5.7-6.5,5.7c-3.5,0-6.2-2-6.2-7.5c0-4.9,2.9-8.1,6.9-8.1c4.7,0,5.4,4.1,5.4,6.1
			l-9.9,0.7c0,0.3,0,0.8,0,1.2c0,2.6,1.3,5.9,4.7,5.9c3.1,0,4.1-2.7,4.6-4.3L223.5,323.3z M219.1,318.5c0.6-0.1,1.6-0.3,1.6-1.2
			c0-1.3-1.2-2.9-2.9-2.9c-3.8,0-4.3,3.5-4.4,4.8L219.1,318.5z"/>
		<path fill="#D6E7F7" d="M243.6,328.6c-1.3,0-2.8-0.2-3.9-0.2c-1.3,0-2.8,0.2-4.1,0.2v-0.7c2.8-0.4,2.8-0.8,2.8-4.4v-5.4
			c0-1.4,0-3-2.2-3c-3.1,0-5,2.2-5,4.1v4.2c0,3.5,0,4,2.8,4.4v0.7c-1.3,0-2.8-0.2-3.9-0.2c-1.3,0-2.8,0.2-4.1,0.2v-0.7
			c2.8-0.4,2.8-0.8,2.8-4.4v-4.4c0-3-0.6-3.2-3.5-3.2v-0.7c2.6-0.2,4.6-0.8,6.1-2.2c-0.1,1-0.2,1.7-0.2,3.5c1.5-1.5,3.8-3.1,7-3.1
			c2.4,0,2.6,1.9,2.6,3.7v6.4c0,3.5,0,4,2.8,4.4V328.6z"/>
		<path fill="#D6E7F7" d="M263.4,326.9c-1.5,0.9-3.2,2.1-5.3,2.1c-1.9,0-2.1-2-2.1-4.2v-9.5h-2.7v-0.9c2.9-0.3,3.3-2,4.2-5.4h1
			c0,1.2-0.1,3.6-0.1,4.9l4.6-0.3v1.7h-4.6v7.9c0,3.7,0.4,4.1,1.7,4.1c1.1,0,2.1-0.6,3-1L263.4,326.9z"/>
		<path fill="#D6E7F7" d="M281.5,328.6c-1.3,0-2.8-0.2-3.9-0.2c-1.3,0-2.8,0.2-4.1,0.2v-0.7c2.8-0.4,2.8-0.8,2.8-4.4v-5.4
			c0-1.4,0-3-2.2-3c-3.1,0-5,2.2-5,4.1v4.2c0,3.5,0,4,2.8,4.4v0.7c-1.3,0-2.8-0.2-3.9-0.2c-1.3,0-2.8,0.2-4.1,0.2v-0.7
			c2.8-0.4,2.8-0.8,2.8-4.4v-12c0-3.8,0-4.4-3.7-4.4v-0.7c2.4,0,4.6-0.4,6.3-1.7c0,1.1-0.2,4.7-0.2,6.8v5c1.5-1.5,3.8-3.1,7-3.1
			c2.4,0,2.6,1.9,2.6,3.7v6.4c0,3.5,0,4,2.8,4.4V328.6z"/>
		<path fill="#D6E7F7" d="M295.8,323.3c-0.6,2-2,5.7-6.5,5.7c-3.5,0-6.2-2-6.2-7.5c0-4.9,2.9-8.1,6.9-8.1c4.7,0,5.4,4.1,5.4,6.1
			l-9.9,0.7c0,0.3,0,0.8,0,1.2c0,2.6,1.3,5.9,4.7,5.9c3.1,0,4.1-2.7,4.6-4.3L295.8,323.3z M291.5,318.5c0.6-0.1,1.6-0.3,1.6-1.2
			c0-1.3-1.2-2.9-2.9-2.9c-3.8,0-4.3,3.5-4.4,4.8L291.5,318.5z"/>
		<path fill="#D6E7F7" d="M315.8,318.5c-0.5-1.5-1.3-4.1-4.1-4.1c-1.8,0-2.8,0.9-2.8,2.3c0,3.7,8.7,2.3,8.7,7.9
			c0,2.3-1.9,4.4-4.9,4.4c-2.1,0-3.1-0.9-4.7-0.9c-0.4,0-0.8,0.2-1.2,0.5c0-0.5,0.1-1.2,0.1-2.1c0-1.2,0-2.2-0.1-3.6h0.7
			c0.4,1.9,1.1,4.9,4.8,4.9c1.7,0,3.2-0.9,3.2-2.6c0-3.7-8.6-2.3-8.6-7.7c0-2.2,1.5-4.2,4.8-4.2c1.5,0,2.9,0.7,3.6,0.7
			c0.4,0,0.7-0.3,1-0.5c0,0.5-0.1,1-0.1,1.5c0,0.7,0.1,2,0.2,3.4H315.8z"/>
		<path fill="#D6E7F7" d="M345.4,328.6c-1.3,0-2.7-0.2-3.9-0.2c-1.5,0-2.8,0.2-4.1,0.2v-0.7c2.8-0.4,2.8-0.8,2.8-4.4v-5.4
			c0-1.4,0-3-1.5-3c-3,0-4.8,2.1-4.8,3.9v4.4c0,3.5,0,4,2.5,4.4v0.7c-1.2,0-2.5-0.2-3.5-0.2c-1.3,0-2.6,0.2-3.8,0.2v-0.7
			c2.5-0.4,2.5-0.8,2.5-4.4v-5.4c0-1.4,0-3-1.5-3c-3,0-4.8,2.1-4.8,3.9v4.4c0,3.5,0,4,2.8,4.4v0.7c-1.3,0-2.8-0.2-3.9-0.2
			c-1.3,0-2.8,0.2-4.1,0.2v-0.7c2.8-0.4,2.8-0.8,2.8-4.4v-4.4c0-3-0.6-3.2-3.5-3.2v-0.7c2.6-0.2,4.6-0.8,6.1-2.2
			c-0.1,1.1-0.1,2-0.2,3.4c1.5-1.4,4-2.9,6.4-2.9c1.8,0,2.2,1.4,2.3,2.9c1.5-1.4,4-2.9,6.4-2.9c2.1,0,2.3,1.9,2.3,3.7v6.4
			c0,3.5,0,4,2.8,4.4V328.6z"/>
		<path fill="#D6E7F7" d="M361.2,328.6c-0.5,0-1,0-1.5-0.1c-0.5,0-1-0.1-1.5-0.1c-0.9,0-1.6,0-2.4,0.6c0.1-1.1,0.3-2.2,0.3-3.1
			c-1.3,1.2-3.1,3.1-5.7,3.1c-1.7,0-3.4-1.4-3.4-3.6c0-3,2.8-3.8,4.4-4.3l3.6-1.1c1-0.3,1-1,1-2.7c0-1.9-0.6-2.6-2.2-2.6
			c-1.8,0-3.6,0.7-3.6,1.7c0,0.4,0.3,0.8,0.6,0.8c0.2,0,0.4,0,0.5-0.1c0,0.9-0.6,2.1-1.8,2.1c-0.8,0-1.6-0.7-1.6-1.6
			c0-3,4.9-4.3,7.2-4.3c2.7,0,3.2,1.8,3.2,3.6v8.6c0,2.3,1.3,2.1,2.7,2.3V328.6z M353.6,321.4c-2.2,0.7-4,1.2-4,3.5
			c0,1.5,1.1,2.4,2.1,2.4c1.7,0,4.4-1.6,4.4-3.5v-3.1L353.6,321.4z"/>
		<path fill="#D6E7F7" d="M370.1,328.6c-1.3,0-2.8-0.2-3.9-0.2c-1.3,0-2.8,0.2-4.1,0.2v-0.7c2.8-0.4,2.8-0.8,2.8-4.4v-12
			c0-3.8,0-4.4-3.7-4.4v-0.7c2.4,0,4.6-0.4,6.3-1.7c0,1.1-0.2,4.7-0.2,6.8v12c0,3.5,0,4,2.8,4.4V328.6z"/>
		<path fill="#D6E7F7" d="M379.2,328.6c-1.3,0-2.8-0.2-3.9-0.2c-1.3,0-2.8,0.2-4.1,0.2v-0.7c2.8-0.4,2.8-0.8,2.8-4.4v-12
			c0-3.8,0-4.4-3.7-4.4v-0.7c2.4,0,4.6-0.4,6.3-1.7c0,1.1-0.2,4.7-0.2,6.8v12c0,3.5,0,4,2.8,4.4V328.6z"/>
		<path fill="#D6E7F7" d="M403.4,328.6c-0.5,0-1,0-1.5-0.1c-0.5,0-1-0.1-1.5-0.1c-0.9,0-1.6,0-2.4,0.6c0.1-1.1,0.3-2.2,0.3-3.1
			c-1.3,1.2-3.1,3.1-5.7,3.1c-1.7,0-3.4-1.4-3.4-3.6c0-3,2.8-3.8,4.4-4.3l3.6-1.1c1-0.3,1-1,1-2.7c0-1.9-0.6-2.6-2.2-2.6
			c-1.8,0-3.6,0.7-3.6,1.7c0,0.4,0.3,0.8,0.6,0.8c0.2,0,0.4,0,0.5-0.1c0,0.9-0.6,2.1-1.8,2.1c-0.8,0-1.6-0.7-1.6-1.6
			c0-3,4.9-4.3,7.2-4.3c2.7,0,3.2,1.8,3.2,3.6v8.6c0,2.3,1.3,2.1,2.7,2.3V328.6z M395.8,321.4c-2.2,0.7-4,1.2-4,3.5
			c0,1.5,1.1,2.4,2.1,2.4c1.7,0,4.4-1.6,4.4-3.5v-3.1L395.8,321.4z"/>
		<path fill="#D6E7F7" d="M430.4,328.6c-1.3,0-2.7-0.2-3.9-0.2c-1.5,0-2.8,0.2-4.1,0.2v-0.7c2.8-0.4,2.8-0.8,2.8-4.4v-5.4
			c0-1.4,0-3-1.5-3c-3,0-4.8,2.1-4.8,3.9v4.4c0,3.5,0,4,2.5,4.4v0.7c-1.2,0-2.5-0.2-3.5-0.2c-1.3,0-2.6,0.2-3.8,0.2v-0.7
			c2.5-0.4,2.5-0.8,2.5-4.4v-5.4c0-1.4,0-3-1.5-3c-3,0-4.8,2.1-4.8,3.9v4.4c0,3.5,0,4,2.8,4.4v0.7c-1.3,0-2.8-0.2-3.9-0.2
			c-1.3,0-2.8,0.2-4.1,0.2v-0.7c2.8-0.4,2.8-0.8,2.8-4.4v-4.4c0-3-0.6-3.2-3.5-3.2v-0.7c2.6-0.2,4.6-0.8,6.1-2.2
			c-0.1,1.1-0.1,2-0.2,3.4c1.5-1.4,4-2.9,6.4-2.9c1.8,0,2.2,1.4,2.3,2.9c1.5-1.4,4-2.9,6.4-2.9c2.1,0,2.3,1.9,2.3,3.7v6.4
			c0,3.5,0,4,2.8,4.4V328.6z"/>
		<path fill="#D6E7F7" d="M439.3,329c-4.4,0-7.2-3.5-7.2-7.8s2.8-7.8,7.2-7.8s7.2,3.5,7.2,7.8S443.6,329,439.3,329z M443.5,321.2
			c0-3.9-1.2-6.8-4.3-6.8s-4.3,2.9-4.3,6.8c0,3.9,1.2,6.8,4.3,6.8S443.5,325.1,443.5,321.2z"/>
		<path fill="#D6E7F7" d="M465.8,328.6c-0.5,0-1,0-1.5-0.1c-0.5,0-1-0.1-1.5-0.1c-0.9,0-1.6,0-2.4,0.6c0.1-1.1,0.3-2.2,0.3-3.1
			c-1.5,1.4-3.8,3.1-7,3.1c-2.4,0-2.6-1.9-2.6-3.7v-6.2c0-3-0.5-3.2-3.2-3.2v-0.7c2.5-0.2,4.4-0.8,5.8-2.2c-0.1,1.7-0.2,3-0.2,6.2
			v5.2c0,1.4,0,3,2.2,3c2.5,0,5-1.7,5-3.2v-5c0-3-0.5-3.2-3.2-3.2v-0.7c2.5-0.2,4.4-0.8,5.8-2.2c-0.1,1.7-0.2,3-0.2,6.2v6.5
			c0,2.3,1.3,2.1,2.7,2.3V328.6z"/>
		<path fill="#D6E7F7" d="M485.4,328.6c-1.3,0-2.8-0.2-3.9-0.2c-1.3,0-2.8,0.2-4.1,0.2v-0.7c2.8-0.4,2.8-0.8,2.8-4.4v-5.4
			c0-1.4,0-3-2.2-3c-3.1,0-5,2.2-5,4.1v4.2c0,3.5,0,4,2.8,4.4v0.7c-1.3,0-2.8-0.2-3.9-0.2c-1.3,0-2.8,0.2-4.1,0.2v-0.7
			c2.8-0.4,2.8-0.8,2.8-4.4v-4.4c0-3-0.6-3.2-3.5-3.2v-0.7c2.6-0.2,4.6-0.8,6.1-2.2c-0.1,1-0.2,1.7-0.2,3.5c1.5-1.5,3.8-3.1,7-3.1
			c2.4,0,2.6,1.9,2.6,3.7v6.4c0,3.5,0,4,2.8,4.4V328.6z"/>
		<path fill="#D6E7F7" d="M496.7,326.9c-1.5,0.9-3.2,2.1-5.3,2.1c-1.9,0-2.1-2-2.1-4.2v-9.5h-2.7v-0.9c2.9-0.3,3.3-2,4.2-5.4h1
			c0,1.2-0.1,3.6-0.1,4.9l4.6-0.3v1.7h-4.6v7.9c0,3.7,0.4,4.1,1.7,4.1c1.1,0,2.1-0.6,3-1L496.7,326.9z"/>
		<path fill="#D6E7F7" d="M506.9,318.5c-0.5-1.5-1.3-4.1-4.1-4.1c-1.8,0-2.8,0.9-2.8,2.3c0,3.7,8.7,2.3,8.7,7.9c0,2.3-1.9,4.4-5,4.4
			c-2.1,0-3.1-0.9-4.7-0.9c-0.4,0-0.8,0.2-1.2,0.5c0-0.5,0.1-1.2,0.1-2.1c0-1.2,0-2.2-0.1-3.6h0.7c0.4,1.9,1.1,4.9,4.8,4.9
			c1.7,0,3.2-0.9,3.2-2.6c0-3.7-8.6-2.3-8.6-7.7c0-2.2,1.5-4.2,4.8-4.2c1.5,0,2.9,0.7,3.6,0.7c0.4,0,0.7-0.3,1-0.5
			c0,0.5-0.1,1-0.1,1.5c0,0.7,0.1,2,0.2,3.4H506.9z"/>
		<path fill="#D6E7F7" d="M526.7,329c-4.4,0-7.2-3.5-7.2-7.8s2.8-7.8,7.2-7.8s7.2,3.5,7.2,7.8S531.1,329,526.7,329z M530.9,321.2
			c0-3.9-1.2-6.8-4.3-6.8s-4.3,2.9-4.3,6.8c0,3.9,1.2,6.8,4.3,6.8S530.9,325.1,530.9,321.2z"/>
		<path fill="#D6E7F7" d="M544.8,328.6c-1.5,0-3.4-0.2-4.7-0.2c-1.3,0-2.8,0.2-4.1,0.2v-0.7c2.8-0.4,2.8-0.8,2.8-4.4v-8.1h-2.8v-0.7
			c2.3-0.4,2.8-1.1,2.8-2.7c0-2.6,0.9-6.7,6.1-6.7c1.6,0,3.4,1,3.4,2.4c0,1.4-0.7,1.9-1.6,1.9c-0.9,0-1.2-0.5-1.6-1.4
			c0.4,0,0.8-0.3,0.8-0.9c0-0.7-0.7-1.1-1.5-1.1c-2.3,0-3.1,2.1-3.1,4.5v3.4l4.4-0.3v1.7h-4.4v8.1c0,3.5,0,4,3.6,4.4V328.6z"/>
		<path fill="#D6E7F7" d="M568.5,323.2c-0.6,2.2-2,5.8-6.5,5.8c-3.9,0-6.2-3-6.2-7.6c0-5,3.2-8.1,7.1-8.1c2.1,0,4.4,0.9,4.4,3
			c0,1.2-0.8,2-1.9,2c-0.7,0-1.5-0.5-1.5-1.6c0.7,0,1-0.5,1-0.9c0-1-1-1.4-2.1-1.4c-2.7,0-4.6,2.2-4.6,6.1c0,3.4,1.3,6.8,4.5,6.8
			c3.3,0,4.2-2.4,4.9-4.3L568.5,323.2z"/>
		<path fill="#D6E7F7" d="M577.3,329c-4.4,0-7.2-3.5-7.2-7.8s2.8-7.8,7.2-7.8s7.2,3.5,7.2,7.8S581.7,329,577.3,329z M581.6,321.2
			c0-3.9-1.2-6.8-4.3-6.8s-4.3,2.9-4.3,6.8c0,3.9,1.2,6.8,4.3,6.8S581.6,325.1,581.6,321.2z"/>
		<path fill="#D6E7F7" d="M595.4,328.6c-1.5,0-3.4-0.2-4.7-0.2c-1.3,0-2.8,0.2-4.1,0.2v-0.7c2.8-0.4,2.8-0.8,2.8-4.4v-8.1h-2.8v-0.7
			c2.3-0.4,2.8-1.1,2.8-2.7c0-2.6,0.9-6.7,6.1-6.7c1.6,0,3.4,1,3.4,2.4c0,1.4-0.7,1.9-1.6,1.9c-0.9,0-1.2-0.5-1.6-1.4
			c0.4,0,0.8-0.3,0.8-0.9c0-0.7-0.7-1.1-1.5-1.1c-2.3,0-3.1,2.1-3.1,4.5v3.4l4.4-0.3v1.7h-4.4v8.1c0,3.5,0,4,3.6,4.4V328.6z"/>
		<path fill="#D6E7F7" d="M606.2,328.6c-1.5,0-3.4-0.2-4.7-0.2c-1.3,0-2.8,0.2-4.1,0.2v-0.7c2.8-0.4,2.8-0.8,2.8-4.4v-8.1h-2.8v-0.7
			c2.3-0.4,2.8-1.1,2.8-2.7c0-2.6,0.9-6.7,6.1-6.7c1.6,0,3.4,1,3.4,2.4c0,1.4-0.7,1.9-1.6,1.9c-0.9,0-1.2-0.5-1.6-1.4
			c0.4,0,0.8-0.3,0.8-0.9c0-0.7-0.7-1.1-1.5-1.1c-2.3,0-3.1,2.1-3.1,4.5v3.4l4.4-0.3v1.7h-4.4v8.1c0,3.5,0,4,3.6,4.4V328.6z"/>
		<path fill="#D6E7F7" d="M621.4,323.3c-0.6,2-2,5.7-6.5,5.7c-3.5,0-6.2-2-6.2-7.5c0-4.9,2.9-8.1,6.9-8.1c4.7,0,5.4,4.1,5.4,6.1
			l-9.9,0.7c0,0.3,0,0.8,0,1.2c0,2.6,1.3,5.9,4.7,5.9c3.1,0,4.1-2.7,4.6-4.3L621.4,323.3z M617,318.5c0.6-0.1,1.6-0.3,1.6-1.2
			c0-1.3-1.2-2.9-2.9-2.9c-3.8,0-4.3,3.5-4.4,4.8L617,318.5z"/>
		<path fill="#D6E7F7" d="M636.5,323.3c-0.6,2-2,5.7-6.5,5.7c-3.5,0-6.2-2-6.2-7.5c0-4.9,2.9-8.1,6.9-8.1c4.7,0,5.4,4.1,5.4,6.1
			l-9.9,0.7c0,0.3,0,0.8,0,1.2c0,2.6,1.3,5.9,4.7,5.9c3.1,0,4.1-2.7,4.6-4.3L636.5,323.3z M632.1,318.5c0.6-0.1,1.6-0.3,1.6-1.2
			c0-1.3-1.2-2.9-2.9-2.9c-3.8,0-4.3,3.5-4.4,4.8L632.1,318.5z"/>
		<path fill="#D6E7F7" d="M665.3,325.1c-0.8,1.7-1.2,2.6-1.3,3.9l-1.4-0.2c0-1-0.5-2.4-0.9-3.5l-2.8-6.7l-3.2,7.1
			c-0.6,1.4-0.9,2.3-1.1,3.3l-1.4-0.2c0-0.7-0.5-2.3-1-3.8l-3.4-8.3c-0.8-2.1-1.8-2-2.9-2.1v-0.7c0.6,0,2.7,0.2,3.6,0.2
			c1.3,0,3.2-0.2,4-0.2v0.7c-1.2,0-2.4,0.2-2.4,1.1c0,0.8,0.4,1.4,0.7,2.2l3,7.4l3.6-7.9c-0.7-1.9-0.6-2.3-3.2-2.8v-0.7
			c0.7,0,2.3,0.2,3.5,0.2c1.4,0,3.5-0.2,4.2-0.2v0.7c-1.1,0-2.5,0.1-2.5,1.1c0,0.8,0.5,1.6,0.8,2.4l2.9,7.2l2.8-6.6
			c0.4-0.8,0.9-1.8,0.9-2.8c0-1.2-1.7-1.2-2.9-1.2v-0.7c0.6,0,2.6,0.2,3.9,0.2c0.9,0,2.5-0.2,3-0.2v0.7c-1.1,0-2.1,0.7-3.2,3.1
			L665.3,325.1z"/>
		<path fill="#D6E7F7" d="M681.1,328.6c-1.3,0-2.8-0.2-3.9-0.2c-1.3,0-2.8,0.2-4.1,0.2v-0.7c2.8-0.4,2.8-0.8,2.8-4.4v-4.4
			c0-3-0.6-3.2-3.5-3.2v-0.7c2.6-0.2,4.6-0.8,6.1-2.2c-0.1,1.7-0.2,3-0.2,6.2v4.4c0,3.5,0,4,2.8,4.4V328.6z M676.6,309.4
			c-1,0-1.9-0.8-1.9-1.9c0-1,0.8-1.9,1.9-1.9c1,0,1.9,0.8,1.9,1.9C678.4,308.6,677.6,309.4,676.6,309.4z"/>
		<path fill="#D6E7F7" d="M690.2,328.6c-1.3,0-2.8-0.2-3.9-0.2c-1.3,0-2.8,0.2-4.1,0.2v-0.7c2.8-0.4,2.8-0.8,2.8-4.4v-12
			c0-3.8,0-4.4-3.7-4.4v-0.7c2.4,0,4.6-0.4,6.3-1.7c0,1.1-0.2,4.7-0.2,6.8v12c0,3.5,0,4,2.8,4.4V328.6z"/>
		<path fill="#D6E7F7" d="M699.3,328.6c-1.3,0-2.8-0.2-3.9-0.2c-1.3,0-2.8,0.2-4.1,0.2v-0.7c2.8-0.4,2.8-0.8,2.8-4.4v-12
			c0-3.8,0-4.4-3.7-4.4v-0.7c2.4,0,4.6-0.4,6.3-1.7c0,1.1-0.2,4.7-0.2,6.8v12c0,3.5,0,4,2.8,4.4V328.6z"/>
		<path fill="#D6E7F7" d="M50.4,367.7c-1.4,0-3.2-0.2-4.4-0.2c-1.3,0-2.8,0.2-4.1,0.2v-0.7c2.8-0.4,2.8-0.8,2.8-4.4v-4.4
			c0-3-0.6-3.2-3.5-3.2v-0.7c2.6-0.2,4.6-0.8,6.1-2.2c0,0.9-0.1,1.9-0.2,3.5c1.7-1.6,2.9-3,4.6-3c0.9,0,1.8,0.7,1.8,1.6
			c0,1.2-0.9,1.8-1.8,1.8c-0.1,0-0.7,0-0.7-0.1c0-0.1,0.2-0.3,0.2-0.6c0-0.6-0.5-0.8-0.9-0.8c-0.8,0-3.2,1.3-3.2,3.8v4.4
			c0,3.5,0,4,3.3,4.4V367.7z"/>
		<path fill="#D6E7F7" d="M67.2,362.4c-0.6,2-2,5.7-6.5,5.7c-3.5,0-6.2-2-6.2-7.5c0-4.9,2.9-8.1,6.9-8.1c4.7,0,5.4,4.1,5.4,6.1
			l-9.9,0.7c0,0.3,0,0.8,0,1.2c0,2.6,1.3,5.9,4.7,5.9c3.1,0,4.1-2.7,4.6-4.3L67.2,362.4z M62.9,357.6c0.6-0.1,1.6-0.3,1.6-1.2
			c0-1.3-1.2-2.9-2.9-2.9c-3.8,0-4.3,3.5-4.4,4.8L62.9,357.6z"/>
		<path fill="#D6E7F7" d="M86.5,367.7c-0.5,0-1,0-1.5-0.1c-0.5,0-1-0.1-1.5-0.1c-0.9,0-1.6,0-2.4,0.6c0.1-1.1,0.3-2.2,0.3-3.1
			c-1.5,1.4-3.8,3.1-7,3.1c-2.4,0-2.6-1.9-2.6-3.7v-6.2c0-3-0.5-3.2-3.2-3.2v-0.7c2.5-0.2,4.4-0.8,5.8-2.2c-0.1,1.7-0.2,3-0.2,6.2
			v5.2c0,1.4,0,3,2.2,3c2.5,0,5-1.7,5-3.2v-5c0-3-0.5-3.2-3.2-3.2v-0.7c2.5-0.2,4.4-0.8,5.8-2.2c-0.1,1.7-0.2,3-0.2,6.2v6.5
			c0,2.3,1.3,2.1,2.7,2.3V367.7z"/>
		<path fill="#D6E7F7" d="M95.7,367.7c-1.3,0-2.8-0.2-3.9-0.2c-1.3,0-2.8,0.2-4.1,0.2v-0.7c2.8-0.4,2.8-0.8,2.8-4.4v-12
			c0-3.8,0-4.4-3.7-4.4v-0.7c2.4,0,4.6-0.4,6.3-1.7c0,1.1-0.2,4.7-0.2,6.8v12c0,3.5,0,4,2.8,4.4V367.7z"/>
		<path fill="#D6E7F7" d="M107.2,366c-1.5,0.9-3.2,2.1-5.3,2.1c-1.9,0-2.1-2-2.1-4.2v-9.5H97v-0.9c2.9-0.3,3.3-2,4.2-5.4h1
			c0,1.2-0.1,3.6-0.1,4.9l4.6-0.3v1.7h-4.6v7.9c0,3.7,0.4,4.1,1.7,4.1c1.1,0,2.1-0.6,3-1L107.2,366z"/>
		<path fill="#D6E7F7" d="M124.6,367.7c-1.3,0-2.8-0.2-3.9-0.2c-1.3,0-2.8,0.2-4.1,0.2v-0.7c2.8-0.4,2.8-0.8,2.8-4.4v-4.4
			c0-3-0.6-3.2-3.5-3.2v-0.7c2.6-0.2,4.6-0.8,6.1-2.2c-0.1,1.7-0.2,3-0.2,6.2v4.4c0,3.5,0,4,2.8,4.4V367.7z M120,348.5
			c-1,0-1.9-0.8-1.9-1.9s0.8-1.9,1.9-1.9c1,0,1.9,0.8,1.9,1.9S121,348.5,120,348.5z"/>
		<path fill="#D6E7F7" d="M144,367.7c-1.3,0-2.8-0.2-3.9-0.2c-1.3,0-2.8,0.2-4.1,0.2v-0.7c2.8-0.4,2.8-0.8,2.8-4.4v-5.4
			c0-1.4,0-3-2.2-3c-3.1,0-5,2.2-5,4.1v4.2c0,3.5,0,4,2.8,4.4v0.7c-1.3,0-2.8-0.2-3.9-0.2c-1.3,0-2.8,0.2-4.1,0.2v-0.7
			c2.8-0.4,2.8-0.8,2.8-4.4v-4.4c0-3-0.6-3.2-3.5-3.2v-0.7c2.6-0.2,4.6-0.8,6.1-2.2c-0.1,1-0.2,1.7-0.2,3.5c1.5-1.5,3.8-3.1,7-3.1
			c2.4,0,2.6,1.9,2.6,3.7v6.4c0,3.5,0,4,2.8,4.4V367.7z"/>
		<path fill="#D6E7F7" d="M168.2,367.7c-0.5,0-1,0-1.5-0.1c-0.5,0-1-0.1-1.5-0.1c-0.9,0-1.6,0-2.4,0.6c0.1-1.1,0.3-2.2,0.3-3.1
			c-1.3,1.2-3.1,3.1-5.7,3.1c-1.7,0-3.4-1.4-3.4-3.6c0-3,2.8-3.8,4.4-4.3l3.6-1.1c1-0.3,1-1,1-2.7c0-1.9-0.6-2.6-2.2-2.6
			c-1.8,0-3.6,0.7-3.6,1.7c0,0.4,0.3,0.8,0.6,0.8c0.2,0,0.4,0,0.5-0.1c0,0.9-0.6,2.1-1.8,2.1c-0.8,0-1.6-0.7-1.6-1.6
			c0-3,4.9-4.3,7.2-4.3c2.7,0,3.2,1.8,3.2,3.6v8.6c0,2.3,1.3,2.1,2.7,2.3V367.7z M160.6,360.4c-2.2,0.7-4,1.2-4,3.5
			c0,1.5,1.1,2.4,2.1,2.4c1.7,0,4.4-1.6,4.4-3.5v-3.1L160.6,360.4z"/>
		<path fill="#D6E7F7" d="M187.9,366c-1.5,0.9-3.2,2.1-5.3,2.1c-1.9,0-2.1-2-2.1-4.2v-9.5h-2.7v-0.9c2.9-0.3,3.3-2,4.2-5.4h1
			c0,1.2-0.1,3.6-0.1,4.9l4.6-0.3v1.7h-4.6v7.9c0,3.7,0.4,4.1,1.7,4.1c1.1,0,2.1-0.6,3-1L187.9,366z"/>
		<path fill="#D6E7F7" d="M196.2,368.1c-4.4,0-7.2-3.5-7.2-7.8s2.8-7.8,7.2-7.8s7.2,3.5,7.2,7.8S200.6,368.1,196.2,368.1z
			 M200.5,360.3c0-3.9-1.2-6.8-4.3-6.8s-4.3,2.9-4.3,6.8c0,3.9,1.2,6.8,4.3,6.8S200.5,364.2,200.5,360.3z"/>
		<path fill="#D6E7F7" d="M213.3,367.7c-1.3,0-2.8-0.2-3.9-0.2c-1.3,0-2.8,0.2-4.1,0.2v-0.7c2.8-0.4,2.8-0.8,2.8-4.4v-12
			c0-3.8,0-4.4-3.7-4.4v-0.7c2.4,0,4.6-0.4,6.3-1.7c0,1.1-0.2,4.7-0.2,6.8v12c0,3.5,0,4,2.8,4.4V367.7z"/>
		<path fill="#D6E7F7" d="M227.6,362.4c-0.6,2-2,5.7-6.5,5.7c-3.5,0-6.2-2-6.2-7.5c0-4.9,2.9-8.1,6.9-8.1c4.7,0,5.4,4.1,5.4,6.1
			l-9.9,0.7c0,0.3,0,0.8,0,1.2c0,2.6,1.3,5.9,4.7,5.9c3.1,0,4.1-2.7,4.6-4.3L227.6,362.4z M223.3,357.6c0.6-0.1,1.6-0.3,1.6-1.2
			c0-1.3-1.2-2.9-2.9-2.9c-3.8,0-4.3,3.5-4.4,4.8L223.3,357.6z"/>
		<path fill="#D6E7F7" d="M238.5,367.7c-1.4,0-3.2-0.2-4.4-0.2c-1.3,0-2.8,0.2-4.1,0.2v-0.7c2.8-0.4,2.8-0.8,2.8-4.4v-4.4
			c0-3-0.6-3.2-3.5-3.2v-0.7c2.6-0.2,4.6-0.8,6.1-2.2c0,0.9-0.1,1.9-0.2,3.5c1.7-1.6,2.9-3,4.6-3c0.9,0,1.8,0.7,1.8,1.6
			c0,1.2-0.9,1.8-1.8,1.8c-0.1,0-0.7,0-0.7-0.1c0-0.1,0.2-0.3,0.2-0.6c0-0.6-0.5-0.8-0.9-0.8c-0.8,0-3.2,1.3-3.2,3.8v4.4
			c0,3.5,0,4,3.3,4.4V367.7z"/>
		<path fill="#D6E7F7" d="M256.8,367.7c-0.5,0-1,0-1.5-0.1c-0.5,0-1-0.1-1.5-0.1c-0.9,0-1.6,0-2.4,0.6c0.1-1.1,0.3-2.2,0.3-3.1
			c-1.3,1.2-3.1,3.1-5.7,3.1c-1.7,0-3.4-1.4-3.4-3.6c0-3,2.8-3.8,4.4-4.3l3.6-1.1c1-0.3,1-1,1-2.7c0-1.9-0.6-2.6-2.2-2.6
			c-1.8,0-3.6,0.7-3.6,1.7c0,0.4,0.3,0.8,0.6,0.8c0.2,0,0.4,0,0.5-0.1c0,0.9-0.6,2.1-1.8,2.1c-0.8,0-1.6-0.7-1.6-1.6
			c0-3,4.9-4.3,7.2-4.3c2.7,0,3.2,1.8,3.2,3.6v8.6c0,2.3,1.3,2.1,2.7,2.3V367.7z M249.3,360.4c-2.2,0.7-4,1.2-4,3.5
			c0,1.5,1.1,2.4,2.1,2.4c1.7,0,4.4-1.6,4.4-3.5v-3.1L249.3,360.4z"/>
		<path fill="#D6E7F7" d="M276.1,367.7c-1.3,0-2.8-0.2-3.9-0.2c-1.3,0-2.8,0.2-4.1,0.2v-0.7c2.8-0.4,2.8-0.8,2.8-4.4v-5.4
			c0-1.4,0-3-2.2-3c-3.1,0-5,2.2-5,4.1v4.2c0,3.5,0,4,2.8,4.4v0.7c-1.3,0-2.8-0.2-3.9-0.2c-1.3,0-2.8,0.2-4.1,0.2v-0.7
			c2.8-0.4,2.8-0.8,2.8-4.4v-4.4c0-3-0.6-3.2-3.5-3.2v-0.7c2.6-0.2,4.6-0.8,6.1-2.2c-0.1,1-0.2,1.7-0.2,3.5c1.5-1.5,3.8-3.1,7-3.1
			c2.4,0,2.6,1.9,2.6,3.7v6.4c0,3.5,0,4,2.8,4.4V367.7z"/>
		<path fill="#D6E7F7" d="M290.5,362.3c-0.6,2.2-2,5.8-6.5,5.8c-3.9,0-6.2-3-6.2-7.6c0-5,3.2-8.1,7.1-8.1c2.1,0,4.4,0.9,4.4,3
			c0,1.2-0.8,2-1.9,2c-0.7,0-1.5-0.5-1.5-1.6c0.7,0,1-0.5,1-0.9c0-1-1-1.4-2.1-1.4c-2.7,0-4.6,2.2-4.6,6.1c0,3.4,1.3,6.8,4.5,6.8
			c3.3,0,4.2-2.4,4.9-4.3L290.5,362.3z"/>
		<path fill="#D6E7F7" d="M304.8,362.4c-0.6,2-2,5.7-6.5,5.7c-3.5,0-6.2-2-6.2-7.5c0-4.9,2.9-8.1,6.9-8.1c4.7,0,5.4,4.1,5.4,6.1
			l-9.9,0.7c0,0.3,0,0.8,0,1.2c0,2.6,1.3,5.9,4.7,5.9c3.1,0,4.1-2.7,4.6-4.3L304.8,362.4z M300.4,357.6c0.6-0.1,1.6-0.3,1.6-1.2
			c0-1.3-1.2-2.9-2.9-2.9c-3.8,0-4.3,3.5-4.4,4.8L300.4,357.6z"/>
		<path fill="#D6E7F7" d="M329.7,367.7c-0.5,0-1,0-1.5-0.1c-0.5,0-1-0.1-1.5-0.1c-0.9,0-1.6,0-2.4,0.6c0.1-1.1,0.3-2.2,0.3-3.1
			c-1.3,1.2-3.1,3.1-5.7,3.1c-1.7,0-3.4-1.4-3.4-3.6c0-3,2.8-3.8,4.4-4.3l3.6-1.1c1-0.3,1-1,1-2.7c0-1.9-0.6-2.6-2.2-2.6
			c-1.8,0-3.6,0.7-3.6,1.7c0,0.4,0.3,0.8,0.6,0.8c0.2,0,0.4,0,0.5-0.1c0,0.9-0.6,2.1-1.8,2.1c-0.8,0-1.6-0.7-1.6-1.6
			c0-3,4.9-4.3,7.2-4.3c2.7,0,3.2,1.8,3.2,3.6v8.6c0,2.3,1.3,2.1,2.7,2.3V367.7z M322.2,360.4c-2.2,0.7-4,1.2-4,3.5
			c0,1.5,1.1,2.4,2.1,2.4c1.7,0,4.4-1.6,4.4-3.5v-3.1L322.2,360.4z"/>
		<path fill="#D6E7F7" d="M349,367.7c-1.3,0-2.8-0.2-3.9-0.2c-1.3,0-2.8,0.2-4.1,0.2v-0.7c2.8-0.4,2.8-0.8,2.8-4.4v-5.4
			c0-1.4,0-3-2.2-3c-3.1,0-5,2.2-5,4.1v4.2c0,3.5,0,4,2.8,4.4v0.7c-1.3,0-2.8-0.2-3.9-0.2c-1.3,0-2.8,0.2-4.1,0.2v-0.7
			c2.8-0.4,2.8-0.8,2.8-4.4v-4.4c0-3-0.6-3.2-3.5-3.2v-0.7c2.6-0.2,4.6-0.8,6.1-2.2c-0.1,1-0.2,1.7-0.2,3.5c1.5-1.5,3.8-3.1,7-3.1
			c2.4,0,2.6,1.9,2.6,3.7v6.4c0,3.5,0,4,2.8,4.4V367.7z"/>
		<path fill="#D6E7F7" d="M366.5,367.7c-0.5,0-1,0-1.5-0.1c-0.5,0-0.9-0.1-1.4-0.1c-0.9,0-1.9,0.1-2.6,0.6c0.1-0.8,0.2-2.1,0.2-3.2
			c-1.9,1.7-3.4,3.2-5.9,3.2c-2.9,0-4.6-2.9-4.6-6.5c0-5.8,2.7-9.2,6.7-9.2c2,0,2.8,0.6,3.8,1.2v-3.1c0-3.8,0-4.4-3.7-4.4v-0.7
			c2.4,0,4.6-0.4,6.3-1.7c0,1.1-0.2,4.7-0.2,6.8v12c0,3.5,0,4,2.8,4.4V367.7z M361.3,358.3c0-2.6-0.6-4.8-3.4-4.8
			c-3.4,0-4.4,3.3-4.4,7.4c0,3.3,1.1,5.5,3.5,5.5c2.9,0,4.3-2.9,4.3-4.3V358.3z"/>
		<path fill="#D6E7F7" d="M382.7,371.6c-0.2,0.4-1.7,3.1-4.7,3.1c-1.5,0-2.6-0.9-2.6-2.1c0-1.2,0.7-1.8,1.7-1.8c0.8,0,1,0.3,1.4,0.6
			c-0.3,0.3-0.7,0.5-0.7,1c0,0.6,0.6,0.9,1.1,0.9c1.9,0,4-3.6,4-5.2c0-1-0.4-2.1-0.8-3l-3.4-8.7c-0.8-2-1-2.9-3.3-2.9v-0.7
			c0.5,0,3,0.2,3.9,0.2c1,0,3.4-0.2,4-0.2v0.7c-1,0-2.5,0-2.5,1.1c0,0.6,0.2,0.9,0.4,1.5l3.3,8.7l3-8c0.2-0.4,0.5-1.3,0.5-2
			c0-1.3-1.6-1.3-2.9-1.3v-0.7c0.6,0,2.6,0.2,4,0.2c0.9,0,2.7-0.2,3.1-0.2v0.7c-1.6,0.2-1.8,0-3,2.9l-5.1,12.1L382.7,371.6z"/>
		<path fill="#D6E7F7" d="M400,368.1c-4.4,0-7.2-3.5-7.2-7.8s2.8-7.8,7.2-7.8c4.4,0,7.2,3.5,7.2,7.8S404.4,368.1,400,368.1z
			 M404.3,360.3c0-3.9-1.2-6.8-4.3-6.8c-3.1,0-4.3,2.9-4.3,6.8c0,3.9,1.2,6.8,4.3,6.8C403.1,367,404.3,364.2,404.3,360.3z"/>
		<path fill="#D6E7F7" d="M426.6,367.7c-0.5,0-1,0-1.5-0.1c-0.5,0-1-0.1-1.5-0.1c-0.9,0-1.6,0-2.4,0.6c0.1-1.1,0.3-2.2,0.3-3.1
			c-1.5,1.4-3.8,3.1-7,3.1c-2.4,0-2.6-1.9-2.6-3.7v-6.2c0-3-0.5-3.2-3.2-3.2v-0.7c2.5-0.2,4.4-0.8,5.8-2.2c-0.1,1.7-0.2,3-0.2,6.2
			v5.2c0,1.4,0,3,2.2,3c2.5,0,5-1.7,5-3.2v-5c0-3-0.5-3.2-3.2-3.2v-0.7c2.5-0.2,4.4-0.8,5.8-2.2c-0.1,1.7-0.2,3-0.2,6.2v6.5
			c0,2.3,1.3,2.1,2.7,2.3V367.7z"/>
		<path fill="#D6E7F7" d="M436.9,367.7c-1.4,0-3.2-0.2-4.4-0.2c-1.3,0-2.8,0.2-4.1,0.2v-0.7c2.8-0.4,2.8-0.8,2.8-4.4v-4.4
			c0-3-0.6-3.2-3.5-3.2v-0.7c2.6-0.2,4.6-0.8,6.1-2.2c0,0.9-0.1,1.9-0.2,3.5c1.7-1.6,2.9-3,4.6-3c0.9,0,1.8,0.7,1.8,1.6
			c0,1.2-0.9,1.8-1.8,1.8c-0.1,0-0.7,0-0.7-0.1c0-0.1,0.2-0.3,0.2-0.6c0-0.6-0.5-0.8-0.9-0.8c-0.8,0-3.2,1.3-3.2,3.8v4.4
			c0,3.5,0,4,3.3,4.4V367.7z"/>
		<path fill="#D6E7F7" d="M453.8,355.4c1.7-1.4,3.5-3,6-3c3.3,0,4.6,3,4.6,6.8c0,5.4-2.5,8.9-6.5,8.9c-2.5,0-3.5-1-4.7-2.1
			c-0.6,1.2-1.4,1.8-3,2.8l-0.3-0.6c1-1.4,1.5-1.4,1.5-5.6v-12c0-3.8,0-4.4-3.7-4.4v-0.7c2.4,0,4.6-0.4,6.3-1.7
			c0,1.1-0.2,4.7-0.2,6.8V355.4z M453.8,361.6c0,2.2,0.2,5.5,4,5.5c2.5,0,4-2.8,4-6.6c0-3.6-0.9-6.2-3.7-6.2c-3.5,0-4.3,2.7-4.3,5.4
			V361.6z"/>
		<path fill="#D6E7F7" d="M474.2,368.1c-4.4,0-7.2-3.5-7.2-7.8s2.8-7.8,7.2-7.8s7.2,3.5,7.2,7.8S478.6,368.1,474.2,368.1z
			 M478.5,360.3c0-3.9-1.2-6.8-4.3-6.8s-4.3,2.9-4.3,6.8c0,3.9,1.2,6.8,4.3,6.8S478.5,364.2,478.5,360.3z"/>
		<path fill="#D6E7F7" d="M499.8,367.7c-0.5,0-1,0-1.5-0.1c-0.5,0-0.9-0.1-1.4-0.1c-0.9,0-1.9,0.1-2.6,0.6c0.1-0.8,0.2-2.1,0.2-3.2
			c-1.9,1.7-3.4,3.2-5.9,3.2c-2.9,0-4.6-2.9-4.6-6.5c0-5.8,2.7-9.2,6.7-9.2c2,0,2.8,0.6,3.8,1.2v-3.1c0-3.8,0-4.4-3.7-4.4v-0.7
			c2.4,0,4.6-0.4,6.3-1.7c0,1.1-0.2,4.7-0.2,6.8v12c0,3.5,0,4,2.8,4.4V367.7z M494.6,358.3c0-2.6-0.6-4.8-3.4-4.8
			c-3.4,0-4.4,3.3-4.4,7.4c0,3.3,1.1,5.5,3.5,5.5c2.9,0,4.3-2.9,4.3-4.3V358.3z"/>
		<path fill="#D6E7F7" d="M507.6,371.6c-0.2,0.4-1.7,3.1-4.7,3.1c-1.5,0-2.6-0.9-2.6-2.1c0-1.2,0.7-1.8,1.7-1.8c0.8,0,1,0.3,1.4,0.6
			c-0.3,0.3-0.7,0.5-0.7,1c0,0.6,0.6,0.9,1.1,0.9c1.9,0,4-3.6,4-5.2c0-1-0.4-2.1-0.8-3l-3.4-8.7c-0.8-2-1-2.9-3.3-2.9v-0.7
			c0.5,0,3,0.2,3.9,0.2c1,0,3.4-0.2,4-0.2v0.7c-1,0-2.5,0-2.5,1.1c0,0.6,0.2,0.9,0.4,1.5l3.3,8.7l3-8c0.2-0.4,0.5-1.3,0.5-2
			c0-1.3-1.6-1.3-2.9-1.3v-0.7c0.6,0,2.6,0.2,4,0.2c0.9,0,2.7-0.2,3.1-0.2v0.7c-1.6,0.2-1.8,0-3,2.9l-5.1,12.1L507.6,371.6z"/>
		<path fill="#D6E7F7" d="M544.8,364.2c-0.8,1.7-1.2,2.6-1.3,3.9l-1.4-0.2c0-1-0.5-2.4-0.9-3.5l-2.8-6.7l-3.2,7.1
			c-0.6,1.4-0.9,2.3-1.1,3.3l-1.4-0.2c0-0.7-0.5-2.3-1-3.8l-3.4-8.3c-0.8-2.1-1.8-2-2.9-2.1v-0.7c0.6,0,2.7,0.2,3.6,0.2
			c1.3,0,3.2-0.2,4-0.2v0.7c-1.2,0-2.4,0.2-2.4,1.1c0,0.8,0.4,1.4,0.7,2.2l3,7.4l3.6-7.9c-0.7-1.9-0.6-2.3-3.2-2.8v-0.7
			c0.7,0,2.3,0.2,3.5,0.2c1.4,0,3.5-0.2,4.2-0.2v0.7c-1.1,0-2.5,0.1-2.5,1.1c0,0.8,0.5,1.6,0.8,2.4l2.9,7.2l2.8-6.6
			c0.4-0.8,0.9-1.8,0.9-2.8c0-1.2-1.7-1.2-2.9-1.2v-0.7c0.6,0,2.6,0.2,3.9,0.2c0.9,0,2.5-0.2,3-0.2v0.7c-1.1,0-2.1,0.7-3.2,3.1
			L544.8,364.2z"/>
		<path fill="#D6E7F7" d="M560.6,367.7c-1.3,0-2.8-0.2-3.9-0.2c-1.3,0-2.8,0.2-4.1,0.2v-0.7c2.8-0.4,2.8-0.8,2.8-4.4v-4.4
			c0-3-0.6-3.2-3.5-3.2v-0.7c2.6-0.2,4.6-0.8,6.1-2.2c-0.1,1.7-0.2,3-0.2,6.2v4.4c0,3.5,0,4,2.8,4.4V367.7z M556,348.5
			c-1,0-1.9-0.8-1.9-1.9s0.8-1.9,1.9-1.9c1,0,1.9,0.8,1.9,1.9S557,348.5,556,348.5z"/>
		<path fill="#D6E7F7" d="M569.7,367.7c-1.3,0-2.8-0.2-3.9-0.2c-1.3,0-2.8,0.2-4.1,0.2v-0.7c2.8-0.4,2.8-0.8,2.8-4.4v-12
			c0-3.8,0-4.4-3.7-4.4v-0.7c2.4,0,4.6-0.4,6.3-1.7c0,1.1-0.2,4.7-0.2,6.8v12c0,3.5,0,4,2.8,4.4V367.7z"/>
		<path fill="#D6E7F7" d="M578.8,367.7c-1.3,0-2.8-0.2-3.9-0.2c-1.3,0-2.8,0.2-4.1,0.2v-0.7c2.8-0.4,2.8-0.8,2.8-4.4v-12
			c0-3.8,0-4.4-3.7-4.4v-0.7c2.4,0,4.6-0.4,6.3-1.7c0,1.1-0.2,4.7-0.2,6.8v12c0,3.5,0,4,2.8,4.4V367.7z"/>
		<path fill="#D6E7F7" d="M606.6,367.7c-1.3,0-2.8-0.2-3.9-0.2c-1.3,0-2.8,0.2-4.1,0.2v-0.7c2.8-0.4,2.8-0.8,2.8-4.4v-5.4
			c0-1.4,0-3-2.2-3c-3.1,0-5,2.2-5,4.1v4.2c0,3.5,0,4,2.8,4.4v0.7c-1.3,0-2.8-0.2-3.9-0.2c-1.3,0-2.8,0.2-4.1,0.2v-0.7
			c2.8-0.4,2.8-0.8,2.8-4.4v-4.4c0-3-0.6-3.2-3.5-3.2v-0.7c2.6-0.2,4.6-0.8,6.1-2.2c-0.1,1-0.2,1.7-0.2,3.5c1.5-1.5,3.8-3.1,7-3.1
			c2.4,0,2.6,1.9,2.6,3.7v6.4c0,3.5,0,4,2.8,4.4V367.7z"/>
		<path fill="#D6E7F7" d="M620.8,362.4c-0.6,2-2,5.7-6.5,5.7c-3.5,0-6.2-2-6.2-7.5c0-4.9,2.9-8.1,6.9-8.1c4.7,0,5.4,4.1,5.4,6.1
			l-9.9,0.7c0,0.3,0,0.8,0,1.2c0,2.6,1.3,5.9,4.7,5.9c3.1,0,4.1-2.7,4.6-4.3L620.8,362.4z M616.5,357.6c0.6-0.1,1.6-0.3,1.6-1.2
			c0-1.3-1.2-2.9-2.9-2.9c-3.8,0-4.3,3.5-4.4,4.8L616.5,357.6z"/>
		<path fill="#D6E7F7" d="M635.9,362.4c-0.6,2-2,5.7-6.5,5.7c-3.5,0-6.2-2-6.2-7.5c0-4.9,2.9-8.1,6.9-8.1c4.7,0,5.4,4.1,5.4,6.1
			l-9.9,0.7c0,0.3,0,0.8,0,1.2c0,2.6,1.3,5.9,4.7,5.9c3.1,0,4.1-2.7,4.6-4.3L635.9,362.4z M631.5,357.6c0.6-0.1,1.6-0.3,1.6-1.2
			c0-1.3-1.2-2.9-2.9-2.9c-3.8,0-4.3,3.5-4.4,4.8L631.5,357.6z"/>
		<path fill="#D6E7F7" d="M654.2,367.7c-0.5,0-1,0-1.5-0.1c-0.5,0-0.9-0.1-1.4-0.1c-0.9,0-1.9,0.1-2.6,0.6c0.1-0.8,0.2-2.1,0.2-3.2
			c-1.9,1.7-3.4,3.2-5.9,3.2c-2.9,0-4.6-2.9-4.6-6.5c0-5.8,2.7-9.2,6.7-9.2c2,0,2.8,0.6,3.8,1.2v-3.1c0-3.8,0-4.4-3.7-4.4v-0.7
			c2.4,0,4.6-0.4,6.3-1.7c0,1.1-0.2,4.7-0.2,6.8v12c0,3.5,0,4,2.8,4.4V367.7z M649,358.3c0-2.6-0.6-4.8-3.4-4.8
			c-3.4,0-4.4,3.3-4.4,7.4c0,3.3,1.1,5.5,3.5,5.5c2.9,0,4.3-2.9,4.3-4.3V358.3z"/>
		<path fill="#D6E7F7" d="M689.7,367.7c-1.3,0-2.7-0.2-3.9-0.2c-1.5,0-2.8,0.2-4.1,0.2v-0.7c2.8-0.4,2.8-0.8,2.8-4.4v-5.4
			c0-1.4,0-3-1.5-3c-3,0-4.8,2.1-4.8,3.9v4.4c0,3.5,0,4,2.5,4.4v0.7c-1.2,0-2.5-0.2-3.5-0.2c-1.3,0-2.6,0.2-3.8,0.2v-0.7
			c2.5-0.4,2.5-0.8,2.5-4.4v-5.4c0-1.4,0-3-1.5-3c-3,0-4.8,2.1-4.8,3.9v4.4c0,3.5,0,4,2.8,4.4v0.7c-1.3,0-2.8-0.2-3.9-0.2
			c-1.3,0-2.8,0.2-4.1,0.2v-0.7c2.8-0.4,2.8-0.8,2.8-4.4v-4.4c0-3-0.6-3.2-3.5-3.2v-0.7c2.6-0.2,4.6-0.8,6.1-2.2
			c-0.1,1.1-0.1,2-0.2,3.4c1.5-1.4,4-2.9,6.4-2.9c1.8,0,2.2,1.4,2.3,2.9c1.5-1.4,4-2.9,6.4-2.9c2.1,0,2.3,1.9,2.3,3.7v6.4
			c0,3.5,0,4,2.8,4.4V367.7z"/>
		<path fill="#D6E7F7" d="M698.6,368.1c-4.4,0-7.2-3.5-7.2-7.8s2.8-7.8,7.2-7.8s7.2,3.5,7.2,7.8S703,368.1,698.6,368.1z
			 M702.8,360.3c0-3.9-1.2-6.8-4.3-6.8s-4.3,2.9-4.3,6.8c0,3.9,1.2,6.8,4.3,6.8S702.8,364.2,702.8,360.3z"/>
		<path fill="#D6E7F7" d="M716.7,367.7c-1.4,0-3.2-0.2-4.4-0.2c-1.3,0-2.8,0.2-4.1,0.2v-0.7c2.8-0.4,2.8-0.8,2.8-4.4v-4.4
			c0-3-0.6-3.2-3.5-3.2v-0.7c2.6-0.2,4.6-0.8,6.1-2.2c0,0.9-0.1,1.9-0.2,3.5c1.7-1.6,2.9-3,4.6-3c0.9,0,1.8,0.7,1.8,1.6
			c0,1.2-0.9,1.8-1.8,1.8c-0.1,0-0.7,0-0.7-0.1c0-0.1,0.2-0.3,0.2-0.6c0-0.6-0.5-0.8-0.9-0.8c-0.8,0-3.2,1.3-3.2,3.8v4.4
			c0,3.5,0,4,3.3,4.4V367.7z"/>
		<path fill="#D6E7F7" d="M733.6,362.4c-0.6,2-2,5.7-6.5,5.7c-3.5,0-6.2-2-6.2-7.5c0-4.9,2.9-8.1,6.9-8.1c4.7,0,5.4,4.1,5.4,6.1
			l-9.9,0.7c0,0.3,0,0.8,0,1.2c0,2.6,1.3,5.9,4.7,5.9c3.1,0,4.1-2.7,4.6-4.3L733.6,362.4z M729.2,357.6c0.6-0.1,1.6-0.3,1.6-1.2
			c0-1.3-1.2-2.9-2.9-2.9c-3.8,0-4.3,3.5-4.4,4.8L729.2,357.6z"/>
		<path fill="#D6E7F7" d="M51.7,405.1c-1.5,0.9-3.2,2.1-5.3,2.1c-1.9,0-2.1-2-2.1-4.2v-9.5h-2.7v-0.9c2.9-0.3,3.3-2,4.2-5.4h1
			c0,1.2-0.1,3.6-0.1,4.9l4.6-0.3v1.7h-4.6v7.9c0,3.7,0.4,4.1,1.7,4.1c1.1,0,2.1-0.6,3-1L51.7,405.1z"/>
		<path fill="#D6E7F7" d="M59.9,407.2c-4.4,0-7.2-3.5-7.2-7.8s2.8-7.8,7.2-7.8s7.2,3.5,7.2,7.8S64.3,407.2,59.9,407.2z M64.2,399.4
			c0-3.9-1.2-6.8-4.3-6.8s-4.3,2.9-4.3,6.8c0,3.9,1.2,6.8,4.3,6.8S64.2,403.3,64.2,399.4z"/>
		<path fill="#D6E7F7" d="M88.3,404.6c0.7,0.1,2.9,0.8,2.9,3c0,3.6-4.2,5.8-8.5,5.8c-3.8,0-5.1-1.8-5.1-3.4c0-2.2,1.9-3.1,3.6-4
			c-0.9-0.3-2.5-0.8-2.5-2c0-1.8,1.3-2,2.9-2.7c-1.2-0.5-3.1-1.5-3.1-4.5c0-3.2,1.9-5.2,5.6-5.2c0.4,0,0.8,0,1.1,0
			c0.6-1.2,2.1-3.5,4.3-3.5c0.9,0,1.8,0.6,1.8,1.6c0,0.9-0.6,1.5-1.4,1.5c-0.4,0-0.6-0.1-0.9-0.1c0.2-0.1,0.3-0.4,0.3-0.6
			c0-0.4-0.2-0.7-0.7-0.7c-1.3,0-2.1,1.4-2.4,2c0.8,0.2,3.4,1.2,3.4,4.7c0,3.5-2.5,5.3-5.2,5.3h-1.2c-1.1,0-2.4,0.6-2.4,1.5
			c0,0.8,1.4,0.9,3,1L88.3,404.6z M83.7,406.4c-0.5,0-1-0.2-1.4-0.3c-1.1,0.7-2.5,1.7-2.5,3.3c0,1.6,1.7,2.4,4.2,2.4
			c2.8,0,5.8-1.4,5.8-3.4c0-1.2-1.6-1.7-3.2-1.8L83.7,406.4z M87,396.4c0-1.9-0.8-4-2.9-4s-3,2-3,4.3c0,2.2,0.7,4.1,2.9,4.1
			C86.3,400.7,87,398.9,87,396.4z"/>
		<path fill="#D6E7F7" d="M105.8,401.4c-0.6,2-2,5.7-6.5,5.7c-3.5,0-6.2-2-6.2-7.5c0-4.9,2.9-8.1,6.9-8.1c4.7,0,5.4,4.1,5.4,6.1
			l-9.9,0.7c0,0.3,0,0.8,0,1.2c0,2.6,1.3,5.9,4.7,5.9c3.1,0,4.1-2.7,4.6-4.3L105.8,401.4z M101.5,396.6c0.6-0.1,1.6-0.3,1.6-1.2
			c0-1.3-1.2-2.9-2.9-2.9c-3.8,0-4.3,3.5-4.4,4.8L101.5,396.6z"/>
		<path fill="#D6E7F7" d="M118,405.1c-1.5,0.9-3.2,2.1-5.3,2.1c-1.9,0-2.1-2-2.1-4.2v-9.5h-2.7v-0.9c2.9-0.3,3.3-2,4.2-5.4h1
			c0,1.2-0.1,3.6-0.1,4.9l4.6-0.3v1.7h-4.6v7.9c0,3.7,0.4,4.1,1.7,4.1c1.1,0,2.1-0.6,3-1L118,405.1z"/>
		<path fill="#D6E7F7" d="M137.3,405.1c-1.5,0.9-3.2,2.1-5.3,2.1c-1.9,0-2.1-2-2.1-4.2v-9.5h-2.7v-0.9c2.9-0.3,3.3-2,4.2-5.4h1
			c0,1.2-0.1,3.6-0.1,4.9l4.6-0.3v1.7h-4.6v7.9c0,3.7,0.4,4.1,1.7,4.1c1.1,0,2.1-0.6,3-1L137.3,405.1z"/>
		<path fill="#D6E7F7" d="M155.4,406.7c-1.3,0-2.8-0.2-3.9-0.2c-1.3,0-2.8,0.2-4.1,0.2V406c2.8-0.4,2.8-0.8,2.8-4.4v-5.4
			c0-1.4,0-3-2.2-3c-3.1,0-5,2.2-5,4.1v4.2c0,3.5,0,4,2.8,4.4v0.7c-1.3,0-2.8-0.2-3.9-0.2c-1.3,0-2.8,0.2-4.1,0.2V406
			c2.8-0.4,2.8-0.8,2.8-4.4v-12c0-3.8,0-4.4-3.7-4.4v-0.7c2.4,0,4.6-0.4,6.3-1.7c0,1.1-0.2,4.7-0.2,6.8v5c1.5-1.5,3.8-3.1,7-3.1
			c2.4,0,2.6,1.9,2.6,3.7v6.4c0,3.5,0,4,2.8,4.4V406.7z"/>
		<path fill="#D6E7F7" d="M169.7,401.4c-0.6,2-2,5.7-6.5,5.7c-3.5,0-6.2-2-6.2-7.5c0-4.9,2.9-8.1,6.9-8.1c4.7,0,5.4,4.1,5.4,6.1
			l-9.9,0.7c0,0.3,0,0.8,0,1.2c0,2.6,1.3,5.9,4.7,5.9c3.1,0,4.1-2.7,4.6-4.3L169.7,401.4z M165.4,396.6c0.6-0.1,1.6-0.3,1.6-1.2
			c0-1.3-1.2-2.9-2.9-2.9c-3.8,0-4.3,3.5-4.4,4.8L165.4,396.6z"/>
		<path fill="#D6E7F7" d="M189.7,396.6c-0.5-1.5-1.3-4.1-4.1-4.1c-1.8,0-2.8,0.9-2.8,2.3c0,3.7,8.7,2.3,8.7,7.9
			c0,2.3-1.9,4.4-4.9,4.4c-2.1,0-3.1-0.9-4.7-0.9c-0.4,0-0.8,0.2-1.2,0.5c0-0.5,0.1-1.2,0.1-2.1c0-1.2,0-2.2-0.1-3.6h0.7
			c0.4,1.9,1.1,4.9,4.8,4.9c1.7,0,3.2-0.9,3.2-2.6c0-3.7-8.6-2.3-8.6-7.7c0-2.2,1.5-4.2,4.8-4.2c1.5,0,2.9,0.7,3.6,0.7
			c0.4,0,0.7-0.3,1-0.5c0,0.5-0.1,1-0.1,1.5c0,0.7,0.1,2,0.2,3.4H189.7z"/>
		<path fill="#D6E7F7" d="M207.9,406.7c-0.5,0-1,0-1.5-0.1c-0.5,0-1-0.1-1.5-0.1c-0.9,0-1.6,0-2.4,0.6c0.1-1.1,0.3-2.2,0.3-3.1
			c-1.3,1.2-3.1,3.1-5.7,3.1c-1.7,0-3.4-1.4-3.4-3.6c0-3,2.8-3.8,4.4-4.3l3.6-1.1c1-0.3,1-1,1-2.7c0-1.9-0.6-2.6-2.2-2.6
			c-1.8,0-3.6,0.7-3.6,1.7c0,0.4,0.3,0.8,0.6,0.8c0.2,0,0.4,0,0.5-0.1c0,0.9-0.6,2.1-1.8,2.1c-0.8,0-1.6-0.7-1.6-1.6
			c0-3,4.9-4.3,7.2-4.3c2.7,0,3.2,1.8,3.2,3.6v8.6c0,2.3,1.3,2.1,2.7,2.3V406.7z M200.4,399.5c-2.2,0.7-4,1.2-4,3.5
			c0,1.5,1.1,2.4,2.1,2.4c1.7,0,4.4-1.6,4.4-3.5v-3.1L200.4,399.5z"/>
		<path fill="#D6E7F7" d="M234.9,406.7c-1.3,0-2.7-0.2-3.9-0.2c-1.5,0-2.8,0.2-4.1,0.2V406c2.8-0.4,2.8-0.8,2.8-4.4v-5.4
			c0-1.4,0-3-1.5-3c-3,0-4.8,2.1-4.8,3.9v4.4c0,3.5,0,4,2.5,4.4v0.7c-1.2,0-2.5-0.2-3.5-0.2c-1.3,0-2.6,0.2-3.8,0.2V406
			c2.5-0.4,2.5-0.8,2.5-4.4v-5.4c0-1.4,0-3-1.5-3c-3,0-4.8,2.1-4.8,3.9v4.4c0,3.5,0,4,2.8,4.4v0.7c-1.3,0-2.8-0.2-3.9-0.2
			c-1.3,0-2.8,0.2-4.1,0.2V406c2.8-0.4,2.8-0.8,2.8-4.4v-4.4c0-3-0.6-3.2-3.5-3.2v-0.7c2.6-0.2,4.6-0.8,6.1-2.2
			c-0.1,1.1-0.1,2-0.2,3.4c1.5-1.4,4-2.9,6.4-2.9c1.8,0,2.2,1.4,2.3,2.9c1.5-1.4,4-2.9,6.4-2.9c2.1,0,2.3,1.9,2.3,3.7v6.4
			c0,3.5,0,4,2.8,4.4V406.7z"/>
		<path fill="#D6E7F7" d="M249.3,401.4c-0.6,2-2,5.7-6.5,5.7c-3.5,0-6.2-2-6.2-7.5c0-4.9,2.9-8.1,6.9-8.1c4.7,0,5.4,4.1,5.4,6.1
			l-9.9,0.7c0,0.3,0,0.8,0,1.2c0,2.6,1.3,5.9,4.7,5.9c3.1,0,4.1-2.7,4.6-4.3L249.3,401.4z M244.9,396.6c0.6-0.1,1.6-0.3,1.6-1.2
			c0-1.3-1.2-2.9-2.9-2.9c-3.8,0-4.3,3.5-4.4,4.8L244.9,396.6z"/>
		<path fill="#D6E7F7" d="M269.2,396.6c-0.5-1.5-1.3-4.1-4.1-4.1c-1.8,0-2.8,0.9-2.8,2.3c0,3.7,8.7,2.3,8.7,7.9
			c0,2.3-1.9,4.4-4.9,4.4c-2.1,0-3.1-0.9-4.7-0.9c-0.4,0-0.8,0.2-1.2,0.5c0-0.5,0.1-1.2,0.1-2.1c0-1.2,0-2.2-0.1-3.6h0.7
			c0.4,1.9,1.1,4.9,4.8,4.9c1.7,0,3.2-0.9,3.2-2.6c0-3.7-8.6-2.3-8.6-7.7c0-2.2,1.5-4.2,4.8-4.2c1.5,0,2.9,0.7,3.6,0.7
			c0.4,0,0.7-0.3,1-0.5c0,0.5-0.1,1-0.1,1.5c0,0.7,0.1,2,0.2,3.4H269.2z"/>
		<path fill="#D6E7F7" d="M283.1,405.1c-1.5,0.9-3.2,2.1-5.3,2.1c-1.9,0-2.1-2-2.1-4.2v-9.5H273v-0.9c2.9-0.3,3.3-2,4.2-5.4h1
			c0,1.2-0.1,3.6-0.1,4.9l4.6-0.3v1.7h-4.6v7.9c0,3.7,0.4,4.1,1.7,4.1c1.1,0,2.1-0.6,3-1L283.1,405.1z"/>
		<path fill="#D6E7F7" d="M292.1,406.7c-1.3,0-2.8-0.2-3.9-0.2c-1.3,0-2.8,0.2-4.1,0.2V406c2.8-0.4,2.8-0.8,2.8-4.4v-4.4
			c0-3-0.6-3.2-3.5-3.2v-0.7c2.6-0.2,4.6-0.8,6.1-2.2c-0.1,1.7-0.2,3-0.2,6.2v4.4c0,3.5,0,4,2.8,4.4V406.7z M287.6,387.6
			c-1,0-1.9-0.8-1.9-1.9s0.8-1.9,1.9-1.9c1,0,1.9,0.8,1.9,1.9S288.6,387.6,287.6,387.6z"/>
		<path fill="#D6E7F7" d="M319.3,406.7c-1.3,0-2.7-0.2-3.9-0.2c-1.5,0-2.8,0.2-4.1,0.2V406c2.8-0.4,2.8-0.8,2.8-4.4v-5.4
			c0-1.4,0-3-1.5-3c-3,0-4.8,2.1-4.8,3.9v4.4c0,3.5,0,4,2.5,4.4v0.7c-1.2,0-2.5-0.2-3.5-0.2c-1.3,0-2.6,0.2-3.8,0.2V406
			c2.5-0.4,2.5-0.8,2.5-4.4v-5.4c0-1.4,0-3-1.5-3c-3,0-4.8,2.1-4.8,3.9v4.4c0,3.5,0,4,2.8,4.4v0.7c-1.3,0-2.8-0.2-3.9-0.2
			c-1.3,0-2.8,0.2-4.1,0.2V406c2.8-0.4,2.8-0.8,2.8-4.4v-4.4c0-3-0.6-3.2-3.5-3.2v-0.7c2.6-0.2,4.6-0.8,6.1-2.2
			c-0.1,1.1-0.1,2-0.2,3.4c1.5-1.4,4-2.9,6.4-2.9c1.8,0,2.2,1.4,2.3,2.9c1.5-1.4,4-2.9,6.4-2.9c2.1,0,2.3,1.9,2.3,3.7v6.4
			c0,3.5,0,4,2.8,4.4V406.7z"/>
		<path fill="#D6E7F7" d="M337.8,406.7c-0.5,0-1,0-1.5-0.1c-0.5,0-1-0.1-1.5-0.1c-0.9,0-1.6,0-2.4,0.6c0.1-1.1,0.3-2.2,0.3-3.1
			c-1.5,1.4-3.8,3.1-7,3.1c-2.4,0-2.6-1.9-2.6-3.7v-6.2c0-3-0.5-3.2-3.2-3.2v-0.7c2.5-0.2,4.4-0.8,5.8-2.2c-0.1,1.7-0.2,3-0.2,6.2
			v5.2c0,1.4,0,3,2.2,3c2.5,0,5-1.7,5-3.2v-5c0-3-0.5-3.2-3.2-3.2v-0.7c2.5-0.2,4.4-0.8,5.8-2.2c-0.1,1.7-0.2,3-0.2,6.2v6.5
			c0,2.3,1.3,2.1,2.7,2.3V406.7z"/>
		<path fill="#D6E7F7" d="M347.1,406.7c-1.3,0-2.8-0.2-3.9-0.2c-1.3,0-2.8,0.2-4.1,0.2V406c2.8-0.4,2.8-0.8,2.8-4.4v-12
			c0-3.8,0-4.4-3.7-4.4v-0.7c2.4,0,4.6-0.4,6.3-1.7c0,1.1-0.2,4.7-0.2,6.8v12c0,3.5,0,4,2.8,4.4V406.7z"/>
		<path fill="#D6E7F7" d="M362.8,406.7c-0.5,0-1,0-1.5-0.1c-0.5,0-1-0.1-1.5-0.1c-0.9,0-1.6,0-2.4,0.6c0.1-1.1,0.3-2.2,0.3-3.1
			c-1.3,1.2-3.1,3.1-5.7,3.1c-1.7,0-3.4-1.4-3.4-3.6c0-3,2.8-3.8,4.4-4.3l3.6-1.1c1-0.3,1-1,1-2.7c0-1.9-0.6-2.6-2.2-2.6
			c-1.8,0-3.6,0.7-3.6,1.7c0,0.4,0.3,0.8,0.6,0.8c0.2,0,0.4,0,0.5-0.1c0,0.9-0.6,2.1-1.8,2.1c-0.8,0-1.6-0.7-1.6-1.6
			c0-3,4.9-4.3,7.2-4.3c2.7,0,3.2,1.8,3.2,3.6v8.6c0,2.3,1.3,2.1,2.7,2.3V406.7z M355.3,399.5c-2.2,0.7-4,1.2-4,3.5
			c0,1.5,1.1,2.4,2.1,2.4c1.7,0,4.4-1.6,4.4-3.5v-3.1L355.3,399.5z"/>
		<path fill="#D6E7F7" d="M374.1,405.1c-1.5,0.9-3.2,2.1-5.3,2.1c-1.9,0-2.1-2-2.1-4.2v-9.5H364v-0.9c2.9-0.3,3.3-2,4.2-5.4h1
			c0,1.2-0.1,3.6-0.1,4.9l4.6-0.3v1.7h-4.6v7.9c0,3.7,0.4,4.1,1.7,4.1c1.1,0,2.1-0.6,3-1L374.1,405.1z"/>
		<path fill="#D6E7F7" d="M383.1,406.7c-1.3,0-2.8-0.2-3.9-0.2c-1.3,0-2.8,0.2-4.1,0.2V406c2.8-0.4,2.8-0.8,2.8-4.4v-4.4
			c0-3-0.6-3.2-3.5-3.2v-0.7c2.6-0.2,4.6-0.8,6.1-2.2c-0.1,1.7-0.2,3-0.2,6.2v4.4c0,3.5,0,4,2.8,4.4V406.7z M378.6,387.6
			c-1,0-1.9-0.8-1.9-1.9s0.8-1.9,1.9-1.9c1,0,1.9,0.8,1.9,1.9S379.6,387.6,378.6,387.6z"/>
		<path fill="#D6E7F7" d="M392.1,407.2c-4.4,0-7.2-3.5-7.2-7.8s2.8-7.8,7.2-7.8s7.2,3.5,7.2,7.8S396.5,407.2,392.1,407.2z
			 M396.3,399.4c0-3.9-1.2-6.8-4.3-6.8s-4.3,2.9-4.3,6.8c0,3.9,1.2,6.8,4.3,6.8S396.3,403.3,396.3,399.4z"/>
		<path fill="#D6E7F7" d="M419.5,406.7c-1.3,0-2.8-0.2-3.9-0.2c-1.3,0-2.8,0.2-4.1,0.2V406c2.8-0.4,2.8-0.8,2.8-4.4v-5.4
			c0-1.4,0-3-2.2-3c-3.1,0-5,2.2-5,4.1v4.2c0,3.5,0,4,2.8,4.4v0.7c-1.3,0-2.8-0.2-3.9-0.2c-1.3,0-2.8,0.2-4.1,0.2V406
			c2.8-0.4,2.8-0.8,2.8-4.4v-4.4c0-3-0.6-3.2-3.5-3.2v-0.7c2.6-0.2,4.6-0.8,6.1-2.2c-0.1,1-0.2,1.7-0.2,3.5c1.5-1.5,3.8-3.1,7-3.1
			c2.4,0,2.6,1.9,2.6,3.7v6.4c0,3.5,0,4,2.8,4.4V406.7z"/>
		<path fill="#D6E7F7" d="M424,407.2c-1,0-1.9-0.8-1.9-1.9s0.8-1.9,1.9-1.9s1.9,0.8,1.9,1.9S425.1,407.2,424,407.2z"/>
	</g>
	<path fill="#FFCA61" d="M90,246c0,0-5.6,43.3,35.1,44.4V246"/>
	<path fill="#FFCA61" d="M158.1,246c0,0,5.6,43.3-35.1,44.4V246"/>
	<path fill="#FFCA61" d="M159.9,250.6c0,0,41.9-5.7-5.3,22"/>
	<path fill="#FFCA61" d="M190.5,246c0,0-5.6,43.3,35.1,44.4V246"/>
	<path fill="#FFCA61" d="M258.6,246c0,0,5.6,43.3-35.1,44.4V246"/>
	<path fill="#FFCA61" d="M260.4,250.6c0,0,41.9-5.7-5.3,22"/>
	<path fill="#FFCA61" d="M295.4,246c0,0-5.6,43.3,35.1,44.4V246"/>
	<path fill="#FFCA61" d="M363.4,246c0,0,5.6,43.3-35.1,44.4V246"/>
	<path fill="#FFCA61" d="M365.3,250.6c0,0,41.9-5.7-5.3,22"/>
	<path fill="#FFCA61" d="M396.5,246c0,0-5.6,43.3,35.1,44.4V246"/>
	<path fill="#FFCA61" d="M464.5,246c0,0,5.6,43.3-35.1,44.4V246"/>
	<path fill="#FFCA61" d="M466.3,250.6c0,0,41.9-5.7-5.3,22"/>
	<path fill="#FFCA61" d="M499.2,246c0,0-5.6,43.3,35.1,44.4V246"/>
	<path fill="#FFCA61" d="M567.2,246c0,0,5.6,43.3-35.1,44.4V246"/>
	<path fill="#FFCA61" d="M569.1,250.6c0,0,41.9-5.7-5.3,22"/>
	<path fill="#FFCA61" d="M603.9,246c0,0-5.6,43.3,35.1,44.4V246"/>
	<path fill="#FFCA61" d="M671.9,246c0,0,5.6,43.3-35.1,44.4V246"/>
	<path fill="#FFCA61" d="M673.8,250.6c0,0,41.9-5.7-5.3,22"/>
	<path fill="#665237" d="M102,277.7c0,0,11.5,10.3,24.7,10.3c0,0,16.8-1.9,22.8-10.3"/>
	<path fill="#665237" d="M197.2,271.4c0,0,8.6,16.7,26.3,15.8c0,0,17.9,0.6,28.8-15.8"/>
	<path fill="#665237" d="M299,265.7c0,0,5.2,22.2,30.3,22.6c0,0,21.8,1.8,30.8-22.6"/>
	<path fill="#665237" d="M399.3,261.4c0,0,5.2,27.8,32.2,26.9c0,0,23.8-0.4,29.5-26.9"/>
	<path fill="#665237" d="M501.5,250.2c0,0-1.6,37.5,32.8,38.1c0,0,29.1,1.8,31.3-38.1"/>
	<path fill="#665237" d="M604.8,246.9c0,0-3.8,42.5,33.6,42.4c0,0,29,3.2,30.6-42.4"/>
	<polyline fill="none" stroke="#5BB1E3" stroke-miterlimit="10" points="37.4,176.2 8.7,176.2 8.7,431.3 20.4,431.3 	"/>
	<polyline fill="none" stroke="#5BB1E3" stroke-miterlimit="10" points="743.4,179.9 772,179.9 772,398.5 760.3,398.5 	"/>
</g>
<g>
</g>
<g>
</g>
<g>
</g>
<g>
</g>
<g>
</g>
<g>
</g>
</svg>
