<?xml version="1.0" encoding="utf-8"?>
<!-- Generator: Adobe Illustrator 19.2.1, SVG Export Plug-In . SVG Version: 6.00 Build 0)  -->
<!DOCTYPE svg PUBLIC "-//W3C//DTD SVG 1.1//EN" "http://www.w3.org/Graphics/SVG/1.1/DTD/svg11.dtd">
<svg version="1.1" id="Layer_1" xmlns="http://www.w3.org/2000/svg" xmlns:xlink="http://www.w3.org/1999/xlink" x="0px" y="0px"
	 width="792px" height="612px" viewBox="0 0 792 612" enable-background="new 0 0 792 612" xml:space="preserve">
<g>
	<g>
		<path fill="#D6E7F7" d="M294.4,141.3c-0.8,1.9-1.2,3.1-1.6,5.2l-1.8-0.4c-0.1-1.9-0.5-3.5-1.1-5.3l-3-9.8h-0.1l-4.2,10.5
			c-0.7,1.6-1.1,3.3-1.4,5l-2-0.4c-0.1-1.6-0.6-3.1-1-4.3l-4.3-14.5c-1.2-3.9-1.3-4.5-4.6-5l0-0.8c1.6,0,3,0.2,4.8,0.2
			c2.4,0,4.1-0.2,5.4-0.2l0,0.8c-1.1,0-3.4,0.1-3.4,1.4c0,0.7,0.7,2.4,1.1,3.8l4.1,13.9h0.1l4.9-12.6l-0.7-2.2
			c-1.1-3.5-1.2-4-4.1-4.3v-0.8c0.7,0,2.8,0.2,5.2,0.2c2.1,0,3.8-0.2,5.1-0.2v0.8c-1.6,0.1-3.6,0-3.6,1.7c0,1.7,0.7,3.1,1.2,4.8
			l3.6,12.4h0.1l5-13.4c0.3-0.9,0.9-2.2,0.9-3.4c0-2-1.9-1.9-3.9-2.1v-0.8c1.6,0,3.5,0.2,5.5,0.2c1.4,0,3-0.2,4.1-0.2l0,0.8
			c-1.8,0.2-2.6,0.3-4.7,5.6L294.4,141.3z"/>
		<path fill="#D6E7F7" d="M325.8,146c-1.5,0-3.1-0.2-4.3-0.2c-1.5,0-3.2,0.2-4.6,0.2v-0.8c3.1-0.4,3.1-0.9,3.1-4.9v-6
			c0-1.6,0-3.3-2.4-3.3c-3.5,0-5.6,2.4-5.6,4.6v4.7c0,3.9,0,4.5,3.1,4.9v0.8c-1.5,0-3.1-0.2-4.3-0.2c-1.5,0-3.2,0.2-4.6,0.2v-0.8
			c3.1-0.4,3.1-0.9,3.1-4.9v-13.5c0-4.3,0-4.9-4.2-4.9v-0.8c2.7,0,5.1-0.5,7.1-1.9c0,1.2-0.2,5.3-0.2,7.7v5.6
			c1.7-1.6,4.2-3.5,7.8-3.5c2.7,0,3,2.2,3,4.2v7.2c0,3.9,0,4.5,3.1,4.9V146z"/>
		<path fill="#D6E7F7" d="M341.8,140.1c-0.6,2.3-2.3,6.4-7.3,6.4c-3.9,0-6.9-2.2-6.9-8.4c0-5.5,3.2-9.1,7.7-9.1
			c5.3,0,6.1,4.6,6.1,6.8l-11.1,0.8c0,0.3,0,0.9,0,1.4c0,2.9,1.5,6.6,5.3,6.6c3.5,0,4.6-3,5.1-4.8L341.8,140.1z M336.9,134.7
			c0.6-0.1,1.8-0.3,1.8-1.3c0-1.5-1.4-3.3-3.3-3.3c-4.3,0-4.8,3.9-5,5.3L336.9,134.7z"/>
		<path fill="#D6E7F7" d="M364.4,146c-1.5,0-3.1-0.2-4.3-0.2c-1.5,0-3.2,0.2-4.6,0.2v-0.8c3.1-0.4,3.1-0.9,3.1-4.9v-6
			c0-1.6,0-3.3-2.4-3.3c-3.5,0-5.6,2.4-5.6,4.6v4.7c0,3.9,0,4.5,3.1,4.9v0.8c-1.5,0-3.1-0.2-4.3-0.2c-1.5,0-3.2,0.2-4.6,0.2v-0.8
			c3.1-0.4,3.1-0.9,3.1-4.9v-4.9c0-3.4-0.6-3.5-3.9-3.5V131c2.9-0.3,5.2-0.9,6.8-2.5c-0.1,1.1-0.2,1.9-0.2,4
			c1.7-1.6,4.2-3.5,7.8-3.5c2.7,0,3,2.2,3,4.2v7.2c0,3.9,0,4.5,3.1,4.9V146z"/>
		<path fill="#D6E7F7" d="M382.6,150.4c-0.2,0.4-1.9,3.4-5.3,3.4c-1.7,0-2.9-1.1-2.9-2.4c0-1.4,0.8-2,1.9-2c0.9,0,1.1,0.3,1.6,0.6
			c-0.4,0.3-0.8,0.5-0.8,1.1c0,0.7,0.6,1,1.3,1c2.2,0,4.5-4.1,4.5-5.8c0-1.1-0.5-2.3-0.9-3.3l-3.8-9.7c-0.9-2.3-1.1-3.2-3.6-3.2
			v-0.8c0.6,0,3.4,0.2,4.4,0.2c1.2,0,3.8-0.2,4.5-0.2v0.8c-1.1,0-2.8,0-2.8,1.2c0,0.7,0.2,1,0.5,1.7l3.7,9.8l3.4-9
			c0.2-0.5,0.5-1.5,0.5-2.3c0-1.5-1.8-1.5-3.2-1.5v-0.8c0.7,0,2.9,0.2,4.5,0.2c1,0,3-0.2,3.4-0.2v0.8c-1.8,0.3-2,0-3.4,3.3
			l-5.7,13.5L382.6,150.4z"/>
		<path fill="#D6E7F7" d="M402,146.5c-4.9,0-8-3.9-8-8.8c0-4.9,3.1-8.8,8-8.8s8,3.9,8,8.8C410,142.6,406.9,146.5,402,146.5z
			 M406.8,137.7c0-4.4-1.3-7.6-4.8-7.6c-3.5,0-4.8,3.2-4.8,7.6s1.3,7.6,4.8,7.6C405.5,145.3,406.8,142.1,406.8,137.7z"/>
		<path fill="#D6E7F7" d="M431.7,146c-0.5,0-1.1,0-1.6-0.1c-0.5,0-1.1-0.1-1.6-0.1c-1,0-1.8,0-2.7,0.7c0.1-1.2,0.3-2.5,0.3-3.4
			c-1.7,1.6-4.2,3.4-7.8,3.4c-2.7,0-3-2.2-3-4.2v-6.9c0-3.4-0.5-3.5-3.5-3.5V131c2.8-0.3,4.9-0.9,6.5-2.5c-0.1,1.9-0.2,3.3-0.2,6.9
			v5.8c0,1.6,0,3.3,2.4,3.3c2.8,0,5.6-1.9,5.6-3.5v-5.6c0-3.4-0.5-3.5-3.5-3.5V131c2.8-0.3,4.9-0.9,6.5-2.5
			c-0.1,1.9-0.2,3.3-0.2,6.9v7.3c0,2.6,1.5,2.4,3,2.6V146z"/>
		<path fill="#D6E7F7" d="M443.3,146c-1.6,0-3.6-0.2-4.9-0.2c-1.5,0-3.2,0.2-4.6,0.2v-0.8c3.1-0.4,3.1-0.9,3.1-4.9v-4.9
			c0-3.4-0.6-3.5-3.9-3.5V131c2.9-0.3,5.2-0.9,6.8-2.5c0,1-0.1,2.1-0.2,3.9c1.9-1.8,3.3-3.4,5.2-3.4c1,0,2,0.8,2,1.8c0,1.3-1,2-2,2
			c-0.1,0-0.7,0-0.7-0.1c0-0.1,0.2-0.3,0.2-0.6c0-0.7-0.5-0.9-1.1-0.9c-0.9,0-3.5,1.4-3.5,4.2v4.9c0,3.9,0,4.5,3.7,4.9V146z"/>
		<path fill="#D6E7F7" d="M462.2,132.3c1.9-1.6,3.9-3.4,6.7-3.4c3.7,0,5.2,3.4,5.2,7.6c0,6.1-2.8,10-7.3,10c-2.8,0-3.9-1.2-5.3-2.3
			c-0.6,1.4-1.6,2-3.3,3.1l-0.4-0.7c1.1-1.6,1.6-1.6,1.6-6.3v-13.5c0-4.3,0-4.9-4.2-4.9v-0.8c2.7,0,5.1-0.5,7.1-1.9
			c0,1.2-0.2,5.3-0.2,7.7V132.3z M462.2,139.2c0,2.5,0.3,6.1,4.5,6.1c2.8,0,4.5-3.1,4.5-7.4c0-4.1-1.1-6.9-4.1-6.9c-4,0-4.9,3-4.9,6
			V139.2z"/>
		<path fill="#D6E7F7" d="M485.4,146c-1.5,0-3.1-0.2-4.3-0.2c-1.5,0-3.2,0.2-4.6,0.2v-0.8c3.1-0.4,3.1-0.9,3.1-4.9v-13.5
			c0-4.3,0-4.9-4.2-4.9v-0.8c2.7,0,5.1-0.5,7.1-1.9c0,1.2-0.2,5.3-0.2,7.7v13.5c0,3.9,0,4.5,3.1,4.9V146z"/>
		<path fill="#D6E7F7" d="M495.3,146.5c-4.9,0-8-3.9-8-8.8c0-4.9,3.1-8.8,8-8.8s8,3.9,8,8.8C503.3,142.6,500.2,146.5,495.3,146.5z
			 M500.1,137.7c0-4.4-1.3-7.6-4.8-7.6c-3.5,0-4.8,3.2-4.8,7.6s1.3,7.6,4.8,7.6C498.8,145.3,500.1,142.1,500.1,137.7z"/>
		<path fill="#D6E7F7" d="M514.2,146.5c-4.9,0-8-3.9-8-8.8c0-4.9,3.1-8.8,8-8.8s8,3.9,8,8.8C522.3,142.6,519.2,146.5,514.2,146.5z
			 M519,137.7c0-4.4-1.3-7.6-4.8-7.6c-3.5,0-4.8,3.2-4.8,7.6s1.3,7.6,4.8,7.6C517.7,145.3,519,142.1,519,137.7z"/>
		<path fill="#D6E7F7" d="M542.9,146c-0.5,0-1.1,0-1.7-0.1c-0.5,0-1.1-0.1-1.5-0.1c-1,0-2.2,0.1-2.9,0.7c0.1-0.9,0.3-2.3,0.3-3.5
			c-2.1,1.9-3.8,3.5-6.6,3.5c-3.3,0-5.1-3.3-5.1-7.3c0-6.5,3-10.3,7.5-10.3c2.3,0,3.2,0.7,4.3,1.3v-3.4c0-4.3,0-4.9-4.2-4.9v-0.8
			c2.7,0,5.1-0.5,7.1-1.9c0,1.2-0.2,5.3-0.2,7.7v13.5c0,3.9,0,4.5,3.1,4.9V146z M537,135.5c0-3-0.7-5.4-3.8-5.4c-3.8,0-5,3.7-5,8.3
			c0,3.7,1.2,6.2,4,6.2c3.3,0,4.8-3.3,4.8-4.8V135.5z"/>
		<path fill="#D6E7F7" d="M570,146c-0.5,0-1.1,0-1.6-0.1c-0.5,0-1.1-0.1-1.6-0.1c-1,0-1.8,0-2.7,0.7c0.1-1.2,0.3-2.5,0.3-3.4
			c-1.5,1.4-3.5,3.4-6.4,3.4c-1.9,0-3.8-1.5-3.8-4.1c0-3.4,3.1-4.2,5-4.8l4-1.2c1.1-0.3,1.1-1.1,1.1-3c0-2.1-0.7-2.9-2.4-2.9
			c-2,0-4,0.8-4,1.9c0,0.4,0.3,0.9,0.7,0.9c0.2,0,0.4,0,0.5-0.1c0,1-0.6,2.3-2,2.3c-0.9,0-1.8-0.8-1.8-1.8c0-3.4,5.4-4.8,8.1-4.8
			c3.1,0,3.6,2,3.6,4.1v9.6c0,2.6,1.5,2.4,3,2.6V146z M561.5,137.9c-2.5,0.7-4.5,1.4-4.5,3.9c0,1.6,1.2,2.7,2.3,2.7
			c1.9,0,4.9-1.8,4.9-3.9v-3.4L561.5,137.9z"/>
		<path fill="#D6E7F7" d="M580,146c-1.5,0-3.1-0.2-4.3-0.2c-1.5,0-3.2,0.2-4.6,0.2v-0.8c3.1-0.4,3.1-0.9,3.1-4.9v-13.5
			c0-4.3,0-4.9-4.2-4.9v-0.8c2.7,0,5.1-0.5,7.1-1.9c0,1.2-0.2,5.3-0.2,7.7v13.5c0,3.9,0,4.5,3.1,4.9V146z"/>
		<path fill="#D6E7F7" d="M596.2,140c-0.7,2.5-2.2,6.5-7.3,6.5c-4.3,0-7-3.4-7-8.5c0-5.6,3.6-9.1,8-9.1c2.3,0,5,1.1,5,3.3
			c0,1.4-0.9,2.2-2.1,2.2c-0.8,0-1.7-0.5-1.7-1.8c0.8,0,1.1-0.5,1.1-1c0-1.1-1.1-1.6-2.4-1.6c-3.1,0-5.1,2.5-5.1,6.8
			c0,3.8,1.5,7.6,5.1,7.6c3.7,0,4.7-2.7,5.4-4.8L596.2,140z"/>
		<path fill="#D6E7F7" d="M606.1,146.5c-4.9,0-8-3.9-8-8.8c0-4.9,3.1-8.8,8-8.8c4.9,0,8,3.9,8,8.8
			C614.2,142.6,611.1,146.5,606.1,146.5z M610.9,137.7c0-4.4-1.3-7.6-4.8-7.6s-4.8,3.2-4.8,7.6s1.3,7.6,4.8,7.6
			S610.9,142.1,610.9,137.7z"/>
		<path fill="#D6E7F7" d="M636.1,146c-1.5,0-3.1-0.2-4.3-0.2c-1.5,0-3.2,0.2-4.6,0.2v-0.8c3.1-0.4,3.1-0.9,3.1-4.9v-6
			c0-1.6,0-3.3-2.4-3.3c-3.5,0-5.6,2.4-5.6,4.6v4.7c0,3.9,0,4.5,3.1,4.9v0.8c-1.5,0-3.1-0.2-4.3-0.2c-1.5,0-3.2,0.2-4.6,0.2v-0.8
			c3.1-0.4,3.1-0.9,3.1-4.9v-13.5c0-4.3,0-4.9-4.2-4.9v-0.8c2.7,0,5.1-0.5,7.1-1.9c0,1.2-0.2,5.3-0.2,7.7v5.6
			c1.7-1.6,4.2-3.5,7.8-3.5c2.7,0,3,2.2,3,4.2v7.2c0,3.9,0,4.5,3.1,4.9V146z"/>
		<path fill="#D6E7F7" d="M646,146.5c-4.9,0-8-3.9-8-8.8c0-4.9,3.1-8.8,8-8.8s8,3.9,8,8.8C654.1,142.6,651,146.5,646,146.5z
			 M650.8,137.7c0-4.4-1.3-7.6-4.8-7.6c-3.5,0-4.8,3.2-4.8,7.6s1.3,7.6,4.8,7.6C649.5,145.3,650.8,142.1,650.8,137.7z"/>
		<path fill="#D6E7F7" d="M665.2,146c-1.5,0-3.1-0.2-4.3-0.2c-1.5,0-3.2,0.2-4.6,0.2v-0.8c3.1-0.4,3.1-0.9,3.1-4.9v-13.5
			c0-4.3,0-4.9-4.2-4.9v-0.8c2.7,0,5.1-0.5,7.1-1.9c0,1.2-0.2,5.3-0.2,7.7v13.5c0,3.9,0,4.5,3.1,4.9V146z"/>
		<path fill="#D6E7F7" d="M279.7,189.8c-1.6,0-3.6-0.2-4.9-0.2c-1.5,0-3.2,0.2-4.6,0.2V189c3.1-0.4,3.1-0.9,3.1-4.9v-4.9
			c0-3.4-0.6-3.5-3.9-3.5v-0.8c2.9-0.3,5.2-0.9,6.8-2.5c0,1-0.1,2.1-0.2,3.9c1.9-1.8,3.3-3.4,5.2-3.4c1,0,2,0.8,2,1.8c0,1.3-1,2-2,2
			c-0.1,0-0.7,0-0.7-0.1c0-0.1,0.2-0.3,0.2-0.6c0-0.7-0.5-0.9-1.1-0.9c-0.9,0-3.5,1.4-3.5,4.2v4.9c0,3.9,0,4.5,3.7,4.9V189.8z"/>
		<path fill="#D6E7F7" d="M298.6,183.9c-0.6,2.3-2.3,6.4-7.3,6.4c-3.9,0-6.9-2.2-6.9-8.4c0-5.5,3.2-9.1,7.7-9.1
			c5.3,0,6.1,4.6,6.1,6.8l-11.1,0.8c0,0.3,0,0.9,0,1.4c0,2.9,1.5,6.6,5.3,6.6c3.5,0,4.6-3,5.1-4.8L298.6,183.9z M293.7,178.5
			c0.6-0.1,1.8-0.3,1.8-1.3c0-1.5-1.4-3.3-3.3-3.3c-4.3,0-4.8,3.9-5,5.3L293.7,178.5z"/>
		<path fill="#D6E7F7" d="M317.1,189.8c-0.5,0-1.1,0-1.6-0.1c-0.5,0-1.1-0.1-1.6-0.1c-1,0-1.8,0-2.7,0.7c0.1-1.2,0.3-2.5,0.3-3.4
			c-1.5,1.4-3.5,3.4-6.4,3.4c-1.9,0-3.8-1.5-3.8-4.1c0-3.4,3.1-4.2,5-4.8l4-1.2c1.1-0.3,1.1-1.1,1.1-3c0-2.1-0.7-2.9-2.4-2.9
			c-2,0-4,0.8-4,1.9c0,0.4,0.3,0.9,0.7,0.9c0.2,0,0.4,0,0.5-0.1c0,1-0.6,2.3-2,2.3c-0.9,0-1.8-0.8-1.8-1.8c0-3.4,5.4-4.8,8.1-4.8
			c3.1,0,3.6,2,3.6,4.1v9.6c0,2.6,1.5,2.4,3,2.6V189.8z M308.6,181.7c-2.5,0.7-4.5,1.4-4.5,3.9c0,1.6,1.2,2.7,2.3,2.7
			c1.9,0,4.9-1.8,4.9-3.9V181L308.6,181.7z"/>
		<path fill="#D6E7F7" d="M333.2,183.8c-0.7,2.5-2.2,6.5-7.3,6.5c-4.3,0-7-3.4-7-8.5c0-5.6,3.6-9.1,8-9.1c2.3,0,5,1.1,5,3.3
			c0,1.4-0.9,2.2-2.1,2.2c-0.8,0-1.7-0.5-1.7-1.8c0.8,0,1.1-0.5,1.1-1c0-1.1-1.1-1.6-2.4-1.6c-3.1,0-5.1,2.5-5.1,6.8
			c0,3.8,1.5,7.6,5.1,7.6c3.6,0,4.7-2.7,5.4-4.8L333.2,183.8z"/>
		<path fill="#D6E7F7" d="M354.2,189.8c-1.5,0-3.1-0.2-4.3-0.2c-1.5,0-3.2,0.2-4.6,0.2V189c3.1-0.4,3.1-0.9,3.1-4.9v-6
			c0-1.6,0-3.3-2.4-3.3c-3.5,0-5.6,2.4-5.6,4.6v4.7c0,3.9,0,4.5,3.1,4.9v0.8c-1.5,0-3.1-0.2-4.3-0.2c-1.5,0-3.2,0.2-4.6,0.2V189
			c3.1-0.4,3.1-0.9,3.1-4.9v-13.5c0-4.3,0-4.9-4.2-4.9v-0.8c2.7,0,5.1-0.5,7.1-1.9c0,1.2-0.2,5.3-0.2,7.7v5.6
			c1.7-1.6,4.2-3.5,7.8-3.5c2.7,0,3,2.2,3,4.2v7.2c0,3.9,0,4.5,3.1,4.9V189.8z"/>
		<path fill="#D6E7F7" d="M370.2,183.9c-0.6,2.3-2.3,6.4-7.3,6.4c-3.9,0-6.9-2.2-6.9-8.4c0-5.5,3.2-9.1,7.7-9.1
			c5.3,0,6.1,4.6,6.1,6.8l-11.1,0.8c0,0.3,0,0.9,0,1.4c0,2.9,1.5,6.6,5.3,6.6c3.5,0,4.6-3,5.1-4.8L370.2,183.9z M365.3,178.5
			c0.6-0.1,1.8-0.3,1.8-1.3c0-1.5-1.4-3.3-3.3-3.3c-4.3,0-4.8,3.9-5,5.3L365.3,178.5z"/>
		<path fill="#D6E7F7" d="M383.1,178.5c-0.5-1.6-1.5-4.6-4.6-4.6c-2,0-3.1,1-3.1,2.6c0,4.1,9.8,2.6,9.8,8.9c0,2.6-2.1,5-5.5,5
			c-2.4,0-3.5-1-5.2-1c-0.5,0-0.9,0.3-1.3,0.5c0-0.5,0.1-1.3,0.1-2.3c0-1.4,0-2.5-0.1-4h0.8c0.4,2.1,1.2,5.5,5.3,5.5
			c1.9,0,3.6-1.1,3.6-2.9c0-4.2-9.6-2.6-9.6-8.6c0-2.5,1.7-4.7,5.3-4.7c1.7,0,3.2,0.8,4.1,0.8c0.4,0,0.8-0.3,1.2-0.5
			c0,0.5-0.1,1.1-0.1,1.6c0,0.7,0.1,2.2,0.2,3.8H383.1z"/>
		<path fill="#D6E7F7" d="M407.4,195.6c-0.4-0.3-0.7-0.5-0.9-0.7c-1.6-1.3-3-2.7-4.2-4.2c-2.8-3.6-4.2-8-4.2-12.7
			c0-4.4,1.4-8.9,3.9-12.4c0.7-0.9,1.5-1.9,2.3-2.7c1-1,1.5-1.5,3-2.6l1.7,1.9c-1.5,1.5-2,2.1-2.8,3.2c-2.3,3.2-3.5,7.6-3.5,12.2
			c0,6.5,2.4,12.5,6.4,15.8L407.4,195.6z"/>
		<path fill="#D6E7F7" d="M426,189.8c-0.5,0-1.1,0-1.6-0.1c-0.5,0-1.1-0.1-1.6-0.1c-1,0-1.8,0-2.7,0.7c0.1-1.2,0.3-2.5,0.3-3.4
			c-1.5,1.4-3.5,3.4-6.4,3.4c-1.9,0-3.8-1.5-3.8-4.1c0-3.4,3.1-4.2,5-4.8l4-1.2c1.1-0.3,1.1-1.1,1.1-3c0-2.1-0.7-2.9-2.4-2.9
			c-2,0-4,0.8-4,1.9c0,0.4,0.3,0.9,0.7,0.9c0.2,0,0.4,0,0.5-0.1c0,1-0.6,2.3-2,2.3c-0.9,0-1.8-0.8-1.8-1.8c0-3.4,5.4-4.8,8.1-4.8
			c3.1,0,3.6,2,3.6,4.1v9.6c0,2.6,1.5,2.4,3,2.6V189.8z M417.5,181.7c-2.5,0.7-4.5,1.4-4.5,3.9c0,1.6,1.2,2.7,2.3,2.7
			c1.9,0,4.9-1.8,4.9-3.9V181L417.5,181.7z"/>
		<path fill="#D6E7F7" d="M431.8,176.1c1.9-1.6,3.9-3.4,6.7-3.4c3.7,0,5.2,3.4,5.2,7.6c0,6.1-2.8,10-7.3,10c-2.8,0-3.9-1.2-5.3-2.3
			c-0.6,1.4-1.6,2-3.3,3.1l-0.4-0.7c1.1-1.6,1.6-1.6,1.6-6.3v-13.5c0-4.3,0-4.9-4.2-4.9v-0.8c2.7,0,5.1-0.5,7.1-1.9
			c0,1.2-0.2,5.3-0.2,7.7V176.1z M431.8,183c0,2.5,0.3,6.1,4.5,6.1c2.8,0,4.5-3.1,4.5-7.4c0-4.1-1.1-6.9-4.1-6.9c-4,0-4.9,3-4.9,6
			V183z"/>
		<path fill="#D6E7F7" d="M454.7,190.3c-4.9,0-8-3.9-8-8.8c0-4.9,3.1-8.8,8-8.8s8,3.9,8,8.8C462.8,186.4,459.7,190.3,454.7,190.3z
			 M459.5,181.5c0-4.4-1.3-7.6-4.8-7.6c-3.5,0-4.8,3.2-4.8,7.6s1.3,7.6,4.8,7.6C458.2,189.1,459.5,185.9,459.5,181.5z"/>
		<path fill="#D6E7F7" d="M484.5,189.8c-0.5,0-1.1,0-1.6-0.1c-0.5,0-1.1-0.1-1.6-0.1c-1,0-1.8,0-2.7,0.7c0.1-1.2,0.3-2.5,0.3-3.4
			c-1.7,1.6-4.2,3.4-7.8,3.4c-2.7,0-3-2.2-3-4.2v-6.9c0-3.4-0.5-3.5-3.5-3.5v-0.8c2.8-0.3,4.9-0.9,6.5-2.5c-0.1,1.9-0.2,3.3-0.2,6.9
			v5.8c0,1.6,0,3.3,2.4,3.3c2.8,0,5.6-1.9,5.6-3.5v-5.6c0-3.4-0.5-3.5-3.5-3.5v-0.8c2.8-0.3,4.9-0.9,6.5-2.5
			c-0.1,1.9-0.2,3.3-0.2,6.9v7.3c0,2.6,1.5,2.4,3,2.6V189.8z"/>
		<path fill="#D6E7F7" d="M497.5,188c-1.7,1.1-3.6,2.3-6,2.3c-2.2,0-2.4-2.2-2.4-4.7v-10.7h-3v-1c3.2-0.4,3.7-2.2,4.7-6h1.1
			c0,1.3-0.1,4.1-0.1,5.5l5.1-0.4v1.9h-5.1v8.8c0,4.2,0.4,4.6,1.9,4.6c1.3,0,2.3-0.6,3.3-1.2L497.5,188z"/>
		<path fill="#D6E7F7" d="M509.9,189.6v-3.6c4.2-3,7.3-6.1,8.6-7.6c0.6-0.7,2.7-2.9,2.7-6c0-2-1.1-3.7-3.2-3.7
			c-1.2,0-1.8,0.5-2.2,0.8c-1.4,1.3-1.3,3.4-1.3,5l-4.6-0.4c0-3.2,0.9-5.3,1.8-6.4c0.8-1.1,3-3.1,6.7-3.1c2.9,0,4.7,1.2,5.6,2
			c1.6,1.4,2.3,3.6,2.3,5.7c0,0.7-0.1,2.3-0.9,4.1c-1.5,3.1-4.3,5.2-6.8,7.3c-0.9,0.7-1.7,1.5-2.6,2.1h10.8v3.8H509.9z"/>
		<path fill="#D6E7F7" d="M553.4,189.6v-1.8c-0.2,0.2-0.3,0.4-0.5,0.6c-0.7,0.7-2.2,1.7-4.6,1.7c-0.6,0-1.9-0.1-3.4-0.8
			c-2-0.9-4.7-3.3-4.7-8.5c0-5.6,3-8.5,5.1-9.4c0.6-0.3,1.6-0.6,3.2-0.6c0.6,0,1.9,0,3.3,0.8c0.3,0.1,0.5,0.3,0.9,0.6
			c0.3,0.3,0.6,0.6,0.7,0.7v-9h4.3v25.8H553.4z M552.5,176.8c-0.2-0.4-0.6-0.9-0.9-1.1c-0.7-0.6-1.5-0.8-2.4-0.8
			c-0.4,0-1.3,0.1-2.2,0.7c-2.1,1.4-2.2,4.3-2.2,4.9c0,2.7,1.1,5.8,4.3,5.8c1.2,0,2.1-0.4,2.8-1.2c1.1-1.2,1.4-2.7,1.4-4.4
			C553.3,179.4,553.1,177.9,552.5,176.8z"/>
		<path fill="#D6E7F7" d="M567,178.8c-0.3,1-0.3,1.9-0.3,3v7.8h-4.2v-18.2h4.2v2.6c0.3-0.5,0.7-1.1,1.1-1.5c1.5-1.4,3.8-1.5,4.3-1.5
			h0.4v4.5C571.6,175.5,568.1,175.5,567,178.8z"/>
		<path fill="#D6E7F7" d="M575.4,168.6v-4.4h4.3v4.4H575.4z M575.4,189.6v-18.2h4.3v18.2H575.4z"/>
		<path fill="#D6E7F7" d="M596.1,189.6v-9.3c0-1.4,0-2.1-0.2-2.8c-0.5-2.1-2.2-2.4-3-2.4c-0.5,0-1.4,0.1-2.3,0.8
			c-1.3,1.1-1.7,2.6-1.7,5.8v7.9h-4.4v-18.2h4.4v2.2c0.1-0.1,0.4-0.6,0.8-0.9c1.7-1.6,4.2-1.8,4.8-1.8c2.7,0,4.3,1.4,4.9,2.2
			c1.2,1.7,1.1,4,1.1,5.8v10.7H596.1z"/>
		<path fill="#D6E7F7" d="M617.5,189.6l-5.5-8.2l-2.6,2.5v5.7H605v-25.8h4.3v14.5l7.1-7h5.6l-7,7l7.7,11.3H617.5z"/>
		<path fill="#D6E7F7" d="M639.7,186.4c-0.9,1.7-3.1,3.8-7.6,3.8c-3.4,0-5.9-1.2-7-1.9c-0.6-0.4-1.2-0.9-1.8-1.4l3.3-2.7
			c0.1,0.2,0.4,0.5,0.8,0.9c1.6,1.4,3.9,1.4,4.4,1.4c1.1,0,2.4-0.3,3.1-1.1c0.3-0.3,0.5-0.7,0.5-1.1c0-0.1,0-0.4-0.3-0.8
			c-0.5-0.7-1.1-0.7-2.4-1c-1.2-0.3-2.4-0.4-3.6-0.7c-0.8-0.2-5-1.2-5-5.2c0-1.4,0.6-2.4,0.8-2.8c0.9-1.4,3.1-3.1,7-3.1
			c1.4,0,5.1,0.2,7.8,3.4l-3.1,2.9c-0.4-0.8-0.8-1.2-1.1-1.5c-1.1-1-2.3-1.3-3.8-1.3c-0.2,0-1.4,0-2.2,0.5c-0.7,0.4-0.8,1-0.8,1.4
			c0,0.6,0.5,1.1,0.6,1.1c0.5,0.4,1.7,0.7,3.1,0.9c1,0.2,2,0.3,3,0.5s2.1,0.5,2.9,1.1c0.7,0.5,2,1.8,2,4
			C640.3,184.8,640.1,185.7,639.7,186.4z"/>
		<path fill="#D6E7F7" d="M290.1,233.5h-4.3l-3.3-11.6l-3.5,11.6h-4.3l-5.3-18.2h4.6l3.2,12.5l3.4-12.5h3.9l3.4,12.5l3.2-12.5h4.6
			L290.1,233.5z"/>
		<path fill="#D6E7F7" d="M315.5,228.3c-0.7,1.9-3.1,5.7-8.5,5.7c-0.8,0-2.3,0-4.1-0.8c-1.9-0.8-5.4-3.4-5.4-8.9
			c0-2,0.5-3.4,0.8-4.1c0.8-1.8,3.1-5.5,8.5-5.5c0.7,0,2.3,0.1,4,0.8c2,0.8,5.4,3.3,5.4,8.8C316.2,224.9,316.2,226.6,315.5,228.3z
			 M306.7,218.6c-0.4,0-1.5,0.1-2.5,0.7c-0.9,0.6-2.2,2.1-2.2,4.9c0,0.9,0.1,1.6,0.4,2.5c0.3,0.9,1.6,3.4,4.6,3.4
			c3.3,0,4.8-2.9,4.7-5.8C311.6,221.3,309.9,218.6,306.7,218.6z"/>
		<path fill="#D6E7F7" d="M324.3,222.6c-0.3,1-0.3,1.9-0.3,3v7.8h-4.2v-18.2h4.2v2.6c0.3-0.5,0.7-1.1,1.1-1.5
			c1.5-1.4,3.8-1.5,4.3-1.5h0.4v4.5C328.9,219.3,325.4,219.3,324.3,222.6z"/>
		<path fill="#D6E7F7" d="M338.3,233.6c-2.4,0-3.7-0.6-4.4-1.5c-0.4-0.4-0.5-0.9-0.5-1.1c-0.2-0.6-0.2-1.9-0.2-3.5v-9.3h-2.7v-3.1
			h2.7v-6.5h4.4v6.5h3.9v3.1h-3.9v8.3c0,0.7-0.1,2.1,0.4,2.7c0.5,0.6,1.6,0.5,1.7,0.5c0.6,0,1.2-0.1,1.8-0.2v3.7
			C340.9,233.4,339.8,233.6,338.3,233.6z"/>
		<path fill="#D6E7F7" d="M356.5,233.5v-10c0-1.5,0.1-2.8-1.2-3.8c-0.4-0.3-1.1-0.8-2.3-0.8c-1.5,0-2.7,0.6-3.6,1.8
			c-0.4,0.4-0.7,1-0.8,1.5c-0.1,0.5-0.1,1-0.1,1.6v9.8h-4.4v-25.8h4.4v9.4c0.4-0.4,0.8-0.8,1.8-1.4c0.7-0.4,2-1.1,4-1.1
			s4.2,0.7,5.4,2.4c1.1,1.6,1.1,3.3,1.1,5.1v11.3H356.5z"/>
		<path fill="#D6E7F7" d="M370,234.1c-1.4,2-2.9,3.5-5.3,5.3l-1.7-1.9c1.5-1.5,2-2.1,2.8-3.2c2.3-3.2,3.6-7.6,3.6-12.3
			c0-6.5-2.4-12.4-6.4-15.7l1.6-2.2c0.4,0.3,0.7,0.5,0.8,0.7c1.7,1.4,3,2.7,4.2,4.2c2.8,3.6,4.2,7.9,4.2,12.7
			C373.9,226.2,372.5,230.6,370,234.1z"/>
		<path fill="#D6E7F7" d="M395.2,238.1c-0.2,0.4-1.9,3.4-5.3,3.4c-1.7,0-2.9-1.1-2.9-2.4c0-1.4,0.8-2,1.9-2c0.9,0,1.1,0.3,1.6,0.6
			c-0.4,0.3-0.8,0.5-0.8,1.1c0,0.7,0.6,1,1.3,1c2.2,0,4.5-4.1,4.5-5.8c0-1.1-0.5-2.3-0.9-3.3l-3.8-9.7c-0.9-2.3-1.1-3.2-3.6-3.2V217
			c0.6,0,3.4,0.2,4.4,0.2c1.2,0,3.8-0.2,4.5-0.2v0.8c-1.1,0-2.8,0-2.8,1.2c0,0.7,0.2,1,0.5,1.7l3.7,9.8l3.4-9
			c0.2-0.5,0.5-1.5,0.5-2.3c0-1.5-1.8-1.5-3.2-1.5V217c0.7,0,2.9,0.2,4.5,0.2c1,0,3-0.2,3.4-0.2v0.8c-1.8,0.3-2,0-3.4,3.3l-5.7,13.5
			L395.2,238.1z"/>
		<path fill="#D6E7F7" d="M414.7,234.1c-4.9,0-8-3.9-8-8.8c0-4.9,3.1-8.8,8-8.8s8,3.9,8,8.8C422.7,230.2,419.6,234.1,414.7,234.1z
			 M419.4,225.4c0-4.4-1.3-7.6-4.8-7.6c-3.5,0-4.8,3.2-4.8,7.6s1.3,7.6,4.8,7.6C418.1,232.9,419.4,229.7,419.4,225.4z"/>
		<path fill="#D6E7F7" d="M444.4,233.6c-0.5,0-1.1,0-1.6-0.1c-0.5,0-1.1-0.1-1.6-0.1c-1,0-1.8,0-2.7,0.7c0.1-1.2,0.3-2.5,0.3-3.4
			c-1.7,1.6-4.2,3.4-7.8,3.4c-2.7,0-3-2.2-3-4.2V223c0-3.4-0.5-3.5-3.5-3.5v-0.8c2.8-0.3,4.9-0.9,6.5-2.5c-0.1,1.9-0.2,3.3-0.2,6.9
			v5.8c0,1.6,0,3.3,2.4,3.3c2.8,0,5.6-1.9,5.6-3.5V223c0-3.4-0.5-3.5-3.5-3.5v-0.8c2.8-0.3,4.9-0.9,6.5-2.5
			c-0.1,1.9-0.2,3.3-0.2,6.9v7.3c0,2.6,1.5,2.4,3,2.6V233.6z"/>
		<path fill="#D6E7F7" d="M460,219.9c1.9-1.6,3.9-3.4,6.7-3.4c3.7,0,5.2,3.4,5.2,7.6c0,6.1-2.8,10-7.3,10c-2.8,0-3.9-1.2-5.3-2.3
			c-0.6,1.4-1.6,2-3.3,3.1l-0.4-0.7c1.1-1.6,1.6-1.6,1.6-6.3v-13.5c0-4.3,0-4.9-4.2-4.9v-0.8c2.7,0,5.1-0.5,7.1-1.9
			c0,1.2-0.2,5.3-0.2,7.7V219.9z M460,226.8c0,2.5,0.3,6.1,4.5,6.1c2.8,0,4.5-3.1,4.5-7.4c0-4.1-1.1-6.9-4.1-6.9c-4,0-4.9,3-4.9,6
			V226.8z"/>
		<path fill="#D6E7F7" d="M489.1,227.7c-0.6,2.3-2.3,6.4-7.3,6.4c-3.9,0-6.9-2.2-6.9-8.4c0-5.5,3.2-9.1,7.7-9.1
			c5.3,0,6.1,4.6,6.1,6.8l-11.1,0.8c0,0.3,0,0.9,0,1.4c0,2.9,1.5,6.6,5.3,6.6c3.5,0,4.6-3,5.1-4.8L489.1,227.7z M484.2,222.3
			c0.6-0.1,1.8-0.3,1.8-1.3c0-1.5-1.4-3.3-3.3-3.3c-4.3,0-4.8,3.9-5,5.3L484.2,222.3z"/>
		<path fill="#D6E7F7" d="M506.1,227.6c-0.7,2.5-2.2,6.5-7.3,6.5c-4.3,0-7-3.4-7-8.5c0-5.6,3.6-9.1,8-9.1c2.3,0,5,1.1,5,3.3
			c0,1.4-0.9,2.2-2.1,2.2c-0.8,0-1.7-0.5-1.7-1.8c0.8,0,1.1-0.5,1.1-1c0-1.1-1.1-1.6-2.4-1.6c-3.1,0-5.1,2.5-5.1,6.8
			c0,3.8,1.5,7.6,5.1,7.6c3.7,0,4.7-2.7,5.4-4.8L506.1,227.6z"/>
		<path fill="#D6E7F7" d="M516.1,234.1c-4.9,0-8-3.9-8-8.8c0-4.9,3.1-8.8,8-8.8s8,3.9,8,8.8C524.1,230.2,521,234.1,516.1,234.1z
			 M520.8,225.4c0-4.4-1.3-7.6-4.8-7.6c-3.5,0-4.8,3.2-4.8,7.6s1.3,7.6,4.8,7.6C519.5,232.9,520.8,229.7,520.8,225.4z"/>
		<path fill="#D6E7F7" d="M555.5,233.6c-1.5,0-3-0.2-4.3-0.2c-1.6,0-3.2,0.2-4.6,0.2v-0.8c3.1-0.4,3.1-0.9,3.1-4.9v-6
			c0-1.6,0-3.3-1.7-3.3c-3.3,0-5.4,2.3-5.4,4.4v4.9c0,3.9,0,4.5,2.8,4.9v0.8c-1.4,0-2.8-0.2-4-0.2c-1.5,0-2.9,0.2-4.3,0.2v-0.8
			c2.8-0.4,2.8-0.9,2.8-4.9v-6c0-1.6,0-3.3-1.7-3.3c-3.3,0-5.4,2.3-5.4,4.4v4.9c0,3.9,0,4.5,3.1,4.9v0.8c-1.5,0-3.1-0.2-4.3-0.2
			c-1.5,0-3.2,0.2-4.6,0.2v-0.8c3.1-0.4,3.1-0.9,3.1-4.9V223c0-3.4-0.6-3.5-3.9-3.5v-0.8c2.9-0.3,5.2-0.9,6.8-2.5
			c-0.1,1.2-0.1,2.3-0.2,3.8c1.6-1.5,4.5-3.3,7.2-3.3c2,0,2.5,1.6,2.6,3.3c1.6-1.5,4.5-3.3,7.2-3.3c2.3,0,2.6,2.2,2.6,4.2v7.2
			c0,3.9,0,4.5,3.1,4.9V233.6z"/>
		<path fill="#D6E7F7" d="M571.5,227.7c-0.6,2.3-2.3,6.4-7.3,6.4c-3.9,0-6.9-2.2-6.9-8.4c0-5.5,3.2-9.1,7.7-9.1
			c5.3,0,6.1,4.6,6.1,6.8l-11.1,0.8c0,0.3,0,0.9,0,1.4c0,2.9,1.5,6.6,5.3,6.6c3.5,0,4.6-3,5.1-4.8L571.5,227.7z M566.6,222.3
			c0.6-0.1,1.8-0.3,1.8-1.3c0-1.5-1.4-3.3-3.3-3.3c-4.3,0-4.8,3.9-5,5.3L566.6,222.3z"/>
		<path fill="#D6E7F7" d="M298.7,277.4c-1.5,0-3-0.2-4.3-0.2c-1.6,0-3.2,0.2-4.6,0.2v-0.8c3.1-0.4,3.1-0.9,3.1-4.9v-6
			c0-1.6,0-3.3-1.7-3.3c-3.3,0-5.4,2.3-5.4,4.4v4.9c0,3.9,0,4.5,2.8,4.9v0.8c-1.4,0-2.8-0.2-4-0.2c-1.5,0-2.9,0.2-4.3,0.2v-0.8
			c2.8-0.4,2.8-0.9,2.8-4.9v-6c0-1.6,0-3.3-1.7-3.3c-3.3,0-5.4,2.3-5.4,4.4v4.9c0,3.9,0,4.5,3.1,4.9v0.8c-1.5,0-3.1-0.2-4.3-0.2
			c-1.5,0-3.2,0.2-4.6,0.2v-0.8c3.1-0.4,3.1-0.9,3.1-4.9v-4.9c0-3.4-0.6-3.5-3.9-3.5v-0.8c2.9-0.3,5.2-0.9,6.8-2.5
			c-0.1,1.2-0.1,2.3-0.2,3.8c1.6-1.5,4.5-3.3,7.2-3.3c2,0,2.5,1.6,2.6,3.3c1.6-1.5,4.5-3.3,7.2-3.3c2.3,0,2.6,2.2,2.6,4.2v7.2
			c0,3.9,0,4.5,3.1,4.9V277.4z"/>
		<path fill="#D6E7F7" d="M308.6,277.9c-4.9,0-8-3.9-8-8.8c0-4.9,3.1-8.8,8-8.8s8,3.9,8,8.8C316.7,274,313.6,277.9,308.6,277.9z
			 M313.4,269.2c0-4.4-1.3-7.6-4.8-7.6s-4.8,3.2-4.8,7.6s1.3,7.6,4.8,7.6S313.4,273.5,313.4,269.2z"/>
		<path fill="#D6E7F7" d="M329,277.4c-1.6,0-3.6-0.2-4.9-0.2c-1.5,0-3.2,0.2-4.6,0.2v-0.8c3.1-0.4,3.1-0.9,3.1-4.9v-4.9
			c0-3.4-0.6-3.5-3.9-3.5v-0.8c2.9-0.3,5.2-0.9,6.8-2.5c0,1-0.1,2.1-0.2,3.9c1.9-1.8,3.3-3.4,5.2-3.4c1,0,2,0.8,2,1.8c0,1.3-1,2-2,2
			c-0.1,0-0.7,0-0.7-0.1c0-0.1,0.2-0.3,0.2-0.6c0-0.7-0.5-0.9-1.1-0.9c-0.9,0-3.5,1.4-3.5,4.2v4.9c0,3.9,0,4.5,3.7,4.9V277.4z"/>
		<path fill="#D6E7F7" d="M347.9,271.5c-0.6,2.3-2.3,6.4-7.3,6.4c-3.9,0-6.9-2.2-6.9-8.4c0-5.5,3.2-9.1,7.7-9.1
			c5.3,0,6.1,4.6,6.1,6.8l-11.1,0.8c0,0.3,0,0.9,0,1.4c0,2.9,1.5,6.6,5.3,6.6c3.5,0,4.6-3,5.1-4.8L347.9,271.5z M343,266.1
			c0.6-0.1,1.8-0.3,1.8-1.3c0-1.5-1.4-3.3-3.3-3.3c-4.3,0-4.8,3.9-5,5.3L343,266.1z"/>
	</g>
	<g>
		<path fill="#D6E7F7" d="M410,272.1c-0.4-1.9-1.1-3.6-2.2-5.3c-1.9-2.9-5.1-6.4-12.8-6.4c-1.1,0-4.9-0.1-8.1,1.7
			c-2.6,1.4-4.6,3.8-6,6.3c-1.7,3-3.3,7.3-3.3,14.8c0,1.6,0,5.1,1,9.3c1,4.8,4.2,14,17.3,14c4.7,0,8.4-1.5,11.3-5.3
			c1.9-2.5,2.5-4.5,2.8-5.8l4.7,2.8c-2.6,5.6-6,8.6-8.2,10c-2,1.3-5.6,2.7-11.2,2.7c-2.9,0-11.5-0.3-17.1-7.5
			c-5.6-7-5.7-17.7-5.7-19.7c0-2.5,0-13.6,6.5-21.1c2.5-3,5.6-4.5,6.8-5.1c1.7-0.7,4.6-1.6,9-1.6c2.9,0,5.9,0.4,8.6,1.3
			c6.1,2.1,9.3,6.5,11.7,12.2L410,272.1z"/>
		<path fill="#D6E7F7" d="M458,309.7l-16.5-23.2h-12.2v23.2h-5v-52.4H439c2.9,0,5.9-0.1,8.8,0.1c2.1,0.1,9.3,0.5,13,7
			c0.7,1.3,2,4,2,7.9c0,6.2-3.3,11.1-9.1,13.1c-1.5,0.5-3.1,0.9-6.4,1.1l17,23.2H458z M456.3,266.3c-2.4-4.1-6.7-4.5-10.9-4.5h-16.2
			v20.4h12.3c1.3,0,2.7,0,4.2-0.1c3.8-0.1,7.8-0.4,10.3-3.9c0.8-1.1,1.9-3,1.9-6.2C457.9,271.2,457.8,268.6,456.3,266.3z"/>
		<path fill="#D6E7F7" d="M472.1,309.7v-52.4h34.2v4.5h-29.2v18.7h26.5v4.6h-26.5v20h31.1v4.6H472.1z"/>
		<path fill="#D6E7F7" d="M552.6,309.7l-6-15.8h-23.4l-6,15.8h-5.5l21.4-52.4h4.2l20.8,52.4H552.6z M535,263.1l-10.2,26.8h20.3
			L535,263.1z"/>
		<path fill="#D6E7F7" d="M574.8,261.7v48h-5v-48h-16.5v-4.4h38v4.4H574.8z"/>
		<path fill="#D6E7F7" d="M598.5,309.7v-52.4h5v52.4H598.5z"/>
		<path fill="#D6E7F7" d="M633.9,309.7h-4.5l-19.2-52.4h5.5l16.1,45.5l16.5-45.5h5.3L633.9,309.7z"/>
		<path fill="#D6E7F7" d="M660.3,309.7v-52.4h34.2v4.5h-29.2v18.7h26.5v4.6h-26.5v20h31.1v4.6H660.3z"/>
	</g>
	<path fill="#FFCA61" d="M87.8,123.1c0,0,25.5,2.8,15.8,10.3l5.5,16.5l-4.1,4.1c0,0,11,79.2,8.3,92.3c0,0,18.6,18.6,18.6,26.9v160.4
		c0,0-16.5,23.4-44.1,19.3"/>
	<path fill="#FFCA61" d="M94.4,123.1c0,0-25.5,2.8-15.8,10.3L73.1,150l4.1,4.1c0,0-11,79.2-8.3,92.3c0,0-18.6,18.6-18.6,26.9v160.4
		c0,0,16.5,23.4,44.1,19.3"/>
	<path fill="#FFCA61" d="M206.4,123.1c0,0,25.5,2.8,15.8,10.3l5.5,16.5l-4.1,4.1c0,0,11,79.2,8.3,92.3c0,0,18.6,18.6,18.6,26.9
		v160.4c0,0-16.5,23.4-44.1,19.3"/>
	<path fill="#FFCA61" d="M209.6,123.1c0,0-25.5,2.8-15.8,10.3l-5.5,16.5l4.1,4.1c0,0-11,79.2-8.3,92.3c0,0-18.6,18.6-18.6,26.9
		v160.4c0,0,16.5,23.4,44.1,19.3"/>
	<polyline fill="none" stroke="#5BB1E3" stroke-miterlimit="10" points="78,96.3 14.1,96.3 14.1,492.6 40.2,492.6 	"/>
	<polyline fill="none" stroke="#5BB1E3" stroke-miterlimit="10" points="713.2,106.9 777.2,106.9 777.2,353.8 751.1,353.8 	"/>
</g>
<g>
</g>
<g>
</g>
<g>
</g>
<g>
</g>
<g>
</g>
<g>
</g>
</svg>
